<svg width="419" height="205" viewBox="0 0 419 205" fill="none" xmlns="http://www.w3.org/2000/svg">
<g clip-path="url(#clip0_1709_3149)">
<path opacity="0.1" d="M404 135.078C404.021 146.361 400.941 157.432 395.096 167.083C395.096 178.885 389.593 189.583 380.668 197.38C378.435 199.332 376.029 201.079 373.482 202.599C373.38 202.664 373.274 202.725 373.168 202.786C372.977 202.899 372.786 203.011 372.592 203.127L372.411 203.233C363.963 207.941 354.442 210.386 344.771 210.331H88.0354C70.332 210.331 54.3058 204.167 42.6944 194.206C31.0831 184.244 23.9274 170.458 23.9274 155.253C17.4254 145.241 13.9762 133.554 14.0001 121.616C14.0001 87.8182 41.0138 60.4193 74.341 60.4193C75.5206 60.4193 76.6899 60.4602 77.8524 60.525C98.7638 24.8659 145.932 0 200.73 0C234.418 0 265.213 9.39204 288.8 24.9102C297.735 19.8593 307.827 17.2106 318.091 17.2227C351.412 17.2227 378.432 44.6216 378.432 78.4193C378.427 80.5578 378.313 82.6947 378.091 84.8216C386.123 90.5073 392.67 98.0413 397.179 106.788C401.688 115.535 404.028 125.238 404 135.078Z" fill="#2B22C6"/>
<g clip-path="url(#clip1_1709_3149)">
<g filter="url(#filter0_di_1709_3149)">
<path d="M106.908 162.27H57V142.539L104.248 68.7583H126.802V144.366H143.925V162.27H126.802V186.143H106.908V162.27ZM106.908 96.9449H106.573L77.229 144.366H106.908V96.9449Z" fill="#007580"/>
</g>
<g filter="url(#filter1_di_1709_3149)">
<path d="M325.823 162.27H275.925V142.539L323.174 68.7583H345.727V144.366H362.799V162.27H345.727V186.143H325.823V162.27ZM329.294 96.9449H328.959L299.615 144.366H329.294V96.9449Z" fill="#007580"/>
</g>
<path d="M206.327 74.615C195.9 74.613 185.706 77.7025 177.035 83.493C168.363 89.2835 161.603 97.515 157.609 107.147C153.615 116.779 152.566 127.379 154.596 137.606C156.625 147.834 161.641 157.231 169.01 164.608C176.379 171.985 185.769 177.012 195.995 179.053C206.22 181.094 216.821 180.058 226.458 176.075C236.094 172.092 244.334 165.342 250.134 156.677C255.935 148.012 259.036 137.822 259.046 127.395C259.054 120.467 257.696 113.605 255.05 107.202C252.405 100.798 248.523 94.9795 243.626 90.0776C238.73 85.1757 232.916 81.287 226.516 78.6338C220.115 75.9806 213.255 74.615 206.327 74.615Z" fill="white" stroke="#231F20" stroke-width="1.04545" stroke-linecap="round" stroke-linejoin="round"/>
<path d="M233.965 113.814C235.311 113.814 236.401 112.192 236.401 110.191C236.401 108.189 235.311 106.567 233.965 106.567C232.62 106.567 231.529 108.189 231.529 110.191C231.529 112.192 232.62 113.814 233.965 113.814Z" fill="#231F20"/>
<path d="M144.392 111.723L268.222 84.3183L243.862 77.2133C243.862 77.2133 230.667 55.34 227.145 54.8833C223.622 54.4265 159.617 68.0783 159.617 68.0783L155.557 98.8937L144.392 111.723Z" fill="#231F20"/>
<path d="M185.813 138.326C185.813 138.326 217.278 125.75 231.042 149.177L185.813 138.326Z" fill="white"/>
<path d="M231.042 149.705C230.951 149.704 230.862 149.679 230.783 149.633C230.705 149.586 230.64 149.52 230.595 149.441C217.207 126.674 186.311 138.692 186.006 138.814C185.872 138.866 185.722 138.863 185.589 138.805C185.457 138.747 185.353 138.639 185.301 138.504C185.248 138.369 185.252 138.219 185.31 138.087C185.368 137.955 185.476 137.851 185.61 137.799C185.935 137.677 217.654 125.324 231.499 148.872C231.567 148.993 231.586 149.135 231.552 149.269C231.518 149.403 231.433 149.519 231.316 149.593C231.237 149.655 231.142 149.693 231.042 149.705Z" fill="#231F20"/>
<path d="M170.173 185.92L156.176 163.793L217.36 153.328L221.562 174.531L227.774 155.003L259.076 161.184L252.712 185.92H170.173Z" fill="#231F20"/>
<path d="M248.574 137.939L254.214 137.158L257.128 158.211C257.225 158.915 257.039 159.629 256.61 160.196C256.181 160.763 255.545 161.136 254.841 161.233L254.509 161.279C253.805 161.376 253.092 161.19 252.525 160.761C251.958 160.333 251.585 159.696 251.488 158.992L248.574 137.939Z" fill="white"/>
<path d="M254.143 161.824C253.374 161.822 252.632 161.542 252.052 161.037C251.472 160.532 251.094 159.835 250.987 159.073L248.074 138.012C248.056 137.879 248.092 137.744 248.174 137.637C248.256 137.531 248.377 137.461 248.51 137.443L254.143 136.662C254.209 136.653 254.277 136.658 254.341 136.675C254.406 136.693 254.466 136.723 254.519 136.763C254.573 136.803 254.617 136.853 254.651 136.911C254.684 136.968 254.705 137.032 254.712 137.098L257.604 158.15C257.664 158.564 257.641 158.987 257.537 159.393C257.432 159.799 257.248 160.18 256.995 160.514C256.742 160.849 256.425 161.129 256.063 161.34C255.7 161.551 255.3 161.688 254.884 161.743L254.559 161.793C254.422 161.813 254.282 161.823 254.143 161.824ZM249.149 138.377L251.991 158.931C252.072 159.501 252.374 160.015 252.832 160.363C253.291 160.711 253.867 160.864 254.438 160.788H254.773C255.341 160.708 255.855 160.405 256.201 159.947C256.548 159.488 256.698 158.912 256.62 158.342L253.778 137.789L249.149 138.377Z" fill="#231F20"/>
<path d="M253.341 118.097L244.242 119.356L247.092 139.947L256.191 138.688L253.341 118.097Z" fill="white"/>
<path d="M247.089 140.468C246.98 140.465 246.874 140.43 246.785 140.366C246.73 140.328 246.685 140.278 246.651 140.22C246.618 140.163 246.598 140.098 246.592 140.032L243.74 119.427C243.729 119.362 243.732 119.295 243.747 119.23C243.763 119.166 243.792 119.105 243.831 119.051C243.915 118.948 244.034 118.879 244.166 118.859L253.301 117.6C253.367 117.59 253.435 117.594 253.5 117.61C253.564 117.627 253.625 117.657 253.678 117.697C253.731 117.738 253.775 117.789 253.808 117.847C253.841 117.906 253.862 117.97 253.869 118.036L256.722 138.631C256.739 138.764 256.703 138.899 256.621 139.005C256.539 139.112 256.418 139.182 256.285 139.199L247.15 140.458L247.089 140.468ZM244.816 119.792L247.526 139.382L255.646 138.265L252.936 118.676L244.816 119.792Z" fill="#231F20"/>
<path d="M254.95 153.4L252.285 153.768C250.508 154.014 249.267 155.654 249.513 157.431L253.579 186.809C253.825 188.586 255.465 189.827 257.242 189.581L259.906 189.212C261.683 188.967 262.924 187.327 262.678 185.55L258.612 156.172C258.366 154.395 256.726 153.154 254.95 153.4Z" fill="white"/>
<path d="M256.782 190.132C255.877 190.131 255.002 189.803 254.32 189.208C253.637 188.613 253.192 187.791 253.067 186.894L249.007 157.51C248.938 157.022 248.966 156.525 249.09 156.047C249.213 155.57 249.43 155.122 249.728 154.729C250.33 153.938 251.22 153.416 252.205 153.277L254.884 152.912C255.868 152.776 256.866 153.037 257.658 153.636C258.449 154.236 258.971 155.125 259.107 156.109L263.167 185.544C263.3 186.528 263.038 187.524 262.439 188.315C261.84 189.106 260.952 189.628 259.969 189.767L257.29 190.142L256.782 190.132ZM255.402 153.886C255.277 153.876 255.151 153.876 255.026 153.886L252.347 154.252C251.99 154.3 251.646 154.42 251.336 154.603C251.026 154.786 250.755 155.029 250.54 155.317C250.32 155.603 250.159 155.93 250.068 156.278C249.978 156.627 249.959 156.991 250.012 157.347L254.072 186.782C254.176 187.492 254.552 188.132 255.12 188.568C255.689 189.004 256.406 189.201 257.117 189.117L259.797 188.741C260.507 188.64 261.149 188.265 261.586 187.696C262.022 187.126 262.218 186.409 262.131 185.696L258.071 156.261C257.981 155.608 257.658 155.01 257.162 154.575C256.667 154.141 256.031 153.9 255.371 153.896L255.402 153.886Z" fill="#231F20"/>
<path d="M248.064 137.87C261.534 137.87 272.454 126.95 272.454 113.479C272.454 100.009 261.534 89.0889 248.064 89.0889C234.593 89.0889 223.673 100.009 223.673 113.479C223.673 126.95 234.593 137.87 248.064 137.87Z" fill="white"/>
<path d="M248.043 138.377C243.263 138.375 238.584 136.997 234.566 134.409C230.547 131.82 227.358 128.129 225.38 123.778C223.401 119.426 222.717 114.597 223.408 109.867C224.1 105.137 226.137 100.706 229.279 97.1023C232.42 93.4989 236.531 90.8754 241.123 89.545C245.714 88.2147 250.591 88.2337 255.172 89.5997C259.753 90.9657 263.844 93.621 266.957 97.2488C270.07 100.877 272.074 105.323 272.728 110.059C273.625 116.594 271.897 123.218 267.921 128.482C263.945 133.746 258.046 137.22 251.515 138.144C250.364 138.299 249.204 138.377 248.043 138.377ZM248.043 89.5862C246.94 89.5851 245.838 89.6597 244.745 89.8095C240.063 90.4564 235.679 92.4771 232.146 95.6159C228.613 98.7548 226.09 102.871 224.897 107.444C223.703 112.016 223.893 116.84 225.441 121.305C226.989 125.77 229.827 129.676 233.595 132.528C237.363 135.381 241.892 137.051 246.61 137.329C251.327 137.607 256.022 136.48 260.099 134.09C264.176 131.7 267.452 128.155 269.514 123.903C271.576 119.65 272.331 114.882 271.683 110.201C270.885 104.502 268.06 99.2808 263.726 95.4948C259.392 91.7087 253.839 89.6111 248.084 89.5862H248.043Z" fill="#231F20"/>
<path d="M248.064 133.292C259.006 133.292 267.877 124.422 267.877 113.479C267.877 102.537 259.006 93.6665 248.064 93.6665C237.121 93.6665 228.251 102.537 228.251 113.479C228.251 124.422 237.121 133.292 248.064 133.292Z" fill="white"/>
<path d="M248.053 133.799C242.79 133.8 237.733 131.756 233.948 128.099C230.164 124.443 227.947 119.459 227.765 114.2C227.584 108.94 229.452 103.816 232.976 99.9068C236.499 95.998 241.404 93.6105 246.654 93.2478C251.904 92.885 257.09 94.5754 261.118 97.9624C265.146 101.349 267.701 106.168 268.244 111.403C268.788 116.637 267.277 121.879 264.031 126.021C260.785 130.163 256.057 132.883 250.844 133.607C249.92 133.736 248.987 133.801 248.053 133.799ZM248.053 94.2145C247.154 94.2151 246.255 94.2761 245.363 94.3972C240.413 95.0836 235.922 97.6652 232.838 101.598C229.753 105.53 228.316 110.507 228.829 115.478C229.342 120.45 231.765 125.028 235.587 128.248C239.409 131.468 244.333 133.079 249.319 132.74C254.305 132.401 258.966 130.14 262.317 126.433C265.669 122.725 267.451 117.861 267.287 112.866C267.123 107.871 265.026 103.135 261.438 99.6551C257.85 96.1757 253.051 94.2252 248.053 94.2145Z" fill="#231F20"/>
<path d="M271.358 168.462C270.017 166.761 268.319 165.375 266.384 164.402C260.568 161.357 253.9 161.458 247.779 163.387C245.607 164.077 241.395 165.062 241.172 167.944C241.18 168.519 241.372 169.076 241.722 169.533C242.071 169.99 242.558 170.323 243.11 170.482C244.221 170.77 245.381 170.815 246.51 170.614C244.901 170.57 243.31 170.971 241.912 171.771C240.603 172.694 239.882 174.714 240.958 175.942C241.434 176.453 242.053 176.807 242.735 176.957C244.216 177.365 245.782 177.344 247.251 176.897C245.661 177.201 244.112 177.688 242.633 178.348C241.74 178.744 240.745 179.444 240.847 180.378C240.948 181.312 241.862 181.738 242.694 182.022C244.445 182.623 246.274 182.965 248.124 183.037C246.528 183.327 245.018 183.976 243.709 184.935C241.679 186.641 241.679 189.878 244.43 190.802C245.312 191.06 246.232 191.167 247.15 191.117C255.27 191.117 264.994 190.102 270.495 183.342C271.828 181.784 272.762 179.924 273.215 177.924C273.668 175.923 273.626 173.843 273.093 171.862C272.717 170.636 272.13 169.485 271.358 168.462Z" fill="white"/>
<path d="M247.089 191.594C246.137 191.64 245.183 191.527 244.268 191.259C243.661 191.074 243.116 190.728 242.69 190.258C242.265 189.788 241.975 189.211 241.852 188.589C241.736 187.839 241.815 187.071 242.082 186.36C242.348 185.649 242.794 185.018 243.374 184.529C244.029 183.986 244.77 183.557 245.567 183.26C244.532 183.085 243.513 182.824 242.522 182.479C241.172 182.012 240.492 181.322 240.34 180.449C240.187 179.576 240.969 178.52 242.37 177.861L243.09 177.556C242.905 177.522 242.722 177.478 242.542 177.424C241.761 177.26 241.052 176.855 240.512 176.267C240.265 175.964 240.083 175.612 239.98 175.234C239.877 174.857 239.854 174.462 239.913 174.075C239.992 173.536 240.177 173.018 240.46 172.553C240.742 172.087 241.116 171.683 241.558 171.365C241.873 171.143 242.214 170.959 242.573 170.817C241.995 170.581 241.501 170.177 241.156 169.658C240.81 169.139 240.628 168.527 240.634 167.904C240.867 164.94 244.531 163.844 246.947 163.103L247.597 162.91C254.377 160.768 261.127 161.144 266.587 163.925C268.595 164.941 270.353 166.39 271.733 168.167C272.544 169.231 273.166 170.425 273.571 171.7C274.133 173.761 274.181 175.928 273.712 178.012C273.243 180.097 272.271 182.034 270.881 183.656C265.126 190.69 255.159 191.604 247.12 191.614L247.089 191.594ZM246.125 177.597C244.998 177.883 243.897 178.267 242.836 178.744C242.359 178.957 241.273 179.535 241.355 180.287C241.436 181.038 242.207 181.302 242.857 181.515C244.56 182.111 246.342 182.453 248.145 182.53C248.267 182.532 248.384 182.578 248.473 182.66C248.563 182.743 248.62 182.855 248.632 182.976C248.646 183.098 248.615 183.22 248.546 183.32C248.477 183.421 248.375 183.493 248.257 183.524C246.734 183.806 245.293 184.42 244.034 185.321C243.584 185.691 243.237 186.172 243.029 186.717C242.821 187.261 242.758 187.851 242.847 188.427C242.935 188.873 243.145 189.286 243.453 189.621C243.761 189.956 244.155 190.199 244.592 190.325C245.418 190.569 246.281 190.665 247.14 190.609C254.966 190.609 264.639 189.736 270.12 183.027C271.405 181.536 272.306 179.752 272.745 177.833C273.184 175.914 273.147 173.916 272.637 172.014C272.264 170.853 271.694 169.765 270.952 168.797C269.667 167.136 268.026 165.783 266.151 164.838C260.924 162.148 254.458 161.793 247.932 163.823L247.272 164.026C245.12 164.676 241.852 165.66 241.669 167.934C241.688 168.398 241.854 168.845 242.142 169.209C242.43 169.574 242.826 169.838 243.273 169.964C243.859 170.151 244.475 170.227 245.09 170.187C245.567 170.137 246.034 170.106 246.48 170.076C246.612 170.072 246.74 170.118 246.84 170.205C246.939 170.291 247.003 170.412 247.018 170.543C247.027 170.675 246.984 170.806 246.899 170.908C246.814 171.01 246.693 171.075 246.561 171.091C246.105 171.091 245.628 171.192 245.14 171.202C244.098 171.27 243.09 171.598 242.207 172.156C241.877 172.395 241.598 172.698 241.387 173.047C241.176 173.396 241.037 173.783 240.979 174.186C240.939 174.434 240.951 174.687 241.014 174.93C241.077 175.173 241.189 175.4 241.344 175.597C241.757 176.021 242.287 176.311 242.867 176.43C243.859 176.697 244.893 176.766 245.912 176.633C246.318 176.531 246.734 176.44 247.14 176.358C247.268 176.334 247.4 176.359 247.509 176.429C247.619 176.499 247.697 176.608 247.729 176.734C247.758 176.86 247.739 176.993 247.675 177.106C247.611 177.218 247.507 177.303 247.384 177.343C246.972 177.462 246.551 177.547 246.125 177.597Z" fill="#231F20"/>
<path d="M214.761 113.865C214.761 113.865 227.124 132.439 219.643 132.703C212.163 132.967 211.523 131.008 211.523 131.008" fill="white"/>
<path d="M218.304 133.292C212.031 133.292 211.128 131.577 211.006 131.262C210.964 131.129 210.975 130.984 211.038 130.859C211.1 130.734 211.209 130.638 211.341 130.592C211.473 130.55 211.616 130.562 211.739 130.625C211.863 130.687 211.957 130.796 212.001 130.927C212.001 130.927 212.914 132.5 219.623 132.257C219.95 132.287 220.279 132.222 220.57 132.071C220.862 131.92 221.104 131.689 221.268 131.404C222.871 128.288 216.802 117.955 214.325 114.24C214.259 114.125 214.238 113.988 214.269 113.858C214.299 113.728 214.377 113.615 214.488 113.54C214.598 113.465 214.733 113.435 214.865 113.456C214.997 113.477 215.116 113.547 215.198 113.652C216.142 115.073 224.333 127.659 222.201 131.922C221.958 132.376 221.59 132.752 221.14 133.006C220.691 133.259 220.179 133.379 219.664 133.353L218.304 133.292Z" fill="#231F20"/>
<path d="M249.19 120.503C251.668 120.503 253.677 117.081 253.677 112.86C253.677 108.639 251.668 105.217 249.19 105.217C246.713 105.217 244.704 108.639 244.704 112.86C244.704 117.081 246.713 120.503 249.19 120.503Z" fill="#D1D3D4"/>
<path d="M194.289 119.041C196.178 119.041 197.709 116.274 197.709 112.86C197.709 109.446 196.178 106.679 194.289 106.679C192.4 106.679 190.868 109.446 190.868 112.86C190.868 116.274 192.4 119.041 194.289 119.041Z" fill="#231F20"/>
</g>
</g>
<defs>
<filter id="filter0_di_1709_3149" x="53" y="68.7583" width="94.9248" height="125.385" filterUnits="userSpaceOnUse" color-interpolation-filters="sRGB">
<feFlood flood-opacity="0" result="BackgroundImageFix"/>
<feColorMatrix in="SourceAlpha" type="matrix" values="0 0 0 0 0 0 0 0 0 0 0 0 0 0 0 0 0 0 127 0" result="hardAlpha"/>
<feOffset dy="4"/>
<feGaussianBlur stdDeviation="2"/>
<feComposite in2="hardAlpha" operator="out"/>
<feColorMatrix type="matrix" values="0 0 0 0 0 0 0 0 0 0 0 0 0 0 0 0 0 0 0.5 0"/>
<feBlend mode="normal" in2="BackgroundImageFix" result="effect1_dropShadow_1709_3149"/>
<feBlend mode="normal" in="SourceGraphic" in2="effect1_dropShadow_1709_3149" result="shape"/>
<feColorMatrix in="SourceAlpha" type="matrix" values="0 0 0 0 0 0 0 0 0 0 0 0 0 0 0 0 0 0 127 0" result="hardAlpha"/>
<feOffset dy="4"/>
<feGaussianBlur stdDeviation="2"/>
<feComposite in2="hardAlpha" operator="arithmetic" k2="-1" k3="1"/>
<feColorMatrix type="matrix" values="0 0 0 0 0 0 0 0 0 0 0 0 0 0 0 0 0 0 0.25 0"/>
<feBlend mode="normal" in2="shape" result="effect2_innerShadow_1709_3149"/>
</filter>
<filter id="filter1_di_1709_3149" x="271.925" y="68.7583" width="94.874" height="125.385" filterUnits="userSpaceOnUse" color-interpolation-filters="sRGB">
<feFlood flood-opacity="0" result="BackgroundImageFix"/>
<feColorMatrix in="SourceAlpha" type="matrix" values="0 0 0 0 0 0 0 0 0 0 0 0 0 0 0 0 0 0 127 0" result="hardAlpha"/>
<feOffset dy="4"/>
<feGaussianBlur stdDeviation="2"/>
<feComposite in2="hardAlpha" operator="out"/>
<feColorMatrix type="matrix" values="0 0 0 0 0 0 0 0 0 0 0 0 0 0 0 0 0 0 0.5 0"/>
<feBlend mode="normal" in2="BackgroundImageFix" result="effect1_dropShadow_1709_3149"/>
<feBlend mode="normal" in="SourceGraphic" in2="effect1_dropShadow_1709_3149" result="shape"/>
<feColorMatrix in="SourceAlpha" type="matrix" values="0 0 0 0 0 0 0 0 0 0 0 0 0 0 0 0 0 0 127 0" result="hardAlpha"/>
<feOffset dy="4"/>
<feGaussianBlur stdDeviation="2"/>
<feComposite in2="hardAlpha" operator="arithmetic" k2="-1" k3="1"/>
<feColorMatrix type="matrix" values="0 0 0 0 0 0 0 0 0 0 0 0 0 0 0 0 0 0 0.25 0"/>
<feBlend mode="normal" in2="shape" result="effect2_innerShadow_1709_3149"/>
</filter>
<clipPath id="clip0_1709_3149">
<rect width="419" height="205" fill="white"/>
</clipPath>
<clipPath id="clip1_1709_3149">
<rect width="305.799" height="136.742" fill="white" transform="translate(57 54.8721)"/>
</clipPath>
</defs>
</svg>
