<svg width="406" height="306" viewBox="0 0 406 306" fill="none" xmlns="http://www.w3.org/2000/svg">
<path opacity="0.3" d="M106.047 78.4989C73.0799 90.8312 48.6488 122.083 43.8276 159.882C39.7676 191.732 49.471 226.933 106.595 236.961C217.748 256.53 321.846 262.041 348.429 209.393C375.012 156.745 366.821 66.5524 310.417 60.7263C265.575 56.0776 170.398 54.4333 106.047 78.4989Z" fill="#E6E6E6"/>
<path d="M307.748 129.127C309.081 128.624 310.265 127.791 311.19 126.707C312.114 125.622 312.75 124.321 313.036 122.926V119.779C312.59 117.749 312.204 115.719 311.676 113.689C310.255 108.31 308.408 103.113 305.058 98.5656C304.437 97.7632 303.758 97.0068 303.028 96.3021C301.856 95.163 300.358 94.4179 298.742 94.1705C297.127 93.923 295.474 94.1856 294.015 94.9217C287.821 97.9715 280.745 98.7198 274.05 97.0329C265.453 94.871 258.51 86.3551 257.597 77.3013C257.088 72.7823 257.77 68.2088 259.576 64.0353C259.949 63.0629 260.255 62.0658 260.49 61.0512C260.743 60.2159 260.783 59.3303 260.606 58.4756C260.429 57.6209 260.04 56.8243 259.475 56.1589C257.956 54.1757 256.238 52.3528 254.349 50.7185C248.278 46.0708 240.909 43.4312 233.267 43.1669C232.593 43.1245 231.917 43.2156 231.277 43.4351C230.638 43.6545 230.048 43.998 229.542 44.4458C227.779 45.9012 226.387 47.7557 225.482 49.8557C223.079 55.8139 218.449 60.6015 212.575 63.2032C206.701 65.8049 200.044 66.016 194.017 63.7917C187.064 61.1324 182.568 55.7326 179.665 48.9727C179.513 48.6276 179.391 48.2825 179.219 47.9577C177.28 44.0702 175.016 42.7609 170.733 43.2582C163.42 44.0097 156.389 46.4866 150.22 50.485C149.043 51.2766 147.954 52.1919 146.972 53.2154C145.897 54.2833 145.138 55.628 144.78 57.1005C144.421 58.5731 144.477 60.1161 144.942 61.5587C146.894 68.8286 146.611 76.5179 144.13 83.6248C141.887 90.2121 136.792 93.8661 130.499 95.9266C124.732 97.7377 118.526 97.5662 112.868 95.4394C111.944 95.1146 111.011 94.871 110.097 94.5665C107.052 93.5515 104.606 94.4244 102.414 96.5356C100.35 98.6159 98.6673 101.041 97.44 103.701C94.8441 108.654 93.3191 114.097 92.9638 119.678C92.8895 121.779 93.3839 123.862 94.395 125.707C95.1759 127.303 96.5267 128.549 98.181 129.198C103.149 131.24 107.563 134.43 111.061 138.506C114.309 142.169 116.174 146.852 116.335 151.745C116.497 156.637 114.943 161.433 111.944 165.302C108.496 170.06 103.795 173.767 98.3637 176.01C95.004 177.36 93.5526 179.796 93.1364 183.166C92.9082 186.197 93.2525 189.245 94.1514 192.149C95.4463 197.04 97.5013 201.698 100.241 205.953C102.19 208.998 104.819 211.099 108.585 211.231C109.999 211.247 111.407 211.038 112.756 210.611C118.827 208.72 125.299 208.523 131.473 210.043C134.093 210.708 136.485 212.068 138.395 213.981C145.724 221.188 146.434 230.891 143.338 238.757C142.75 240.26 142.059 241.711 141.562 243.244C141.122 244.506 141.029 245.864 141.293 247.174C141.558 248.485 142.169 249.701 143.064 250.694C145.223 253.143 147.818 255.17 150.717 256.672C156.176 259.734 162.147 261.777 168.338 262.701C169.739 262.865 171.156 262.838 172.55 262.62C174.101 262.428 175.567 261.802 176.779 260.815C177.991 259.827 178.9 258.518 179.401 257.038C181.41 251.932 184.863 247.523 189.338 244.35C189.825 243.985 190.353 243.65 190.84 243.335C193.335 241.702 196.135 240.593 199.072 240.077C202.674 239.48 206.368 239.758 209.84 240.886C213.313 242.015 216.464 243.962 219.027 246.563C221.996 249.473 224.341 252.957 225.919 256.804C226.685 258.68 227.919 260.329 229.502 261.595C230.259 262.15 231.119 262.548 232.033 262.764C232.947 262.981 233.895 263.011 234.82 262.853C242.708 262.022 250.222 259.064 256.562 254.297C258.469 252.99 259.842 251.039 260.429 248.803C261.016 246.566 260.778 244.193 259.759 242.117C258.209 238.878 257.391 235.337 257.365 231.745C257.339 228.154 258.104 224.602 259.607 221.34C262.824 214.235 268.265 210.175 276.121 209.16C281.229 208.473 286.428 208.984 291.305 210.652C293.689 211.486 296.274 211.548 298.695 210.831C301.117 210.113 303.25 208.651 304.794 206.653C309.669 200.434 312.413 192.811 312.62 184.912C312.669 183.626 312.42 182.347 311.892 181.174C311.363 180.001 310.57 178.967 309.575 178.152C308.241 176.955 306.727 175.975 305.089 175.249C301.464 173.766 298.257 171.418 295.75 168.41C293.242 165.402 291.509 161.826 290.703 157.993C289.897 154.161 290.042 150.189 291.125 146.426C292.209 142.663 294.198 139.222 296.918 136.405C299.938 133.199 303.639 130.712 307.748 129.127ZM220.844 215.585C214.904 217.294 208.754 218.159 202.574 218.153C193.847 218.16 185.212 216.381 177.199 212.926C153.367 202.654 137.319 178.548 137.502 152.513C137.542 140.366 140.965 128.47 147.387 118.159C153.808 107.848 162.976 99.5297 173.86 94.137C184.745 88.7444 196.917 86.4904 209.011 87.6278C221.104 88.7653 232.642 93.2491 242.331 100.577C252.019 107.904 259.475 117.786 263.861 129.113C268.248 140.441 269.393 152.766 267.167 164.708C264.941 176.649 259.433 187.735 251.26 196.721C243.087 205.708 232.572 212.24 220.894 215.585H220.844Z" fill="#68E1FD"/>
<path opacity="0.09" d="M221.27 219.533C219.24 224.385 207.902 224.923 203.538 226.151C202.512 226.367 201.552 226.822 200.737 227.481C199.97 228.278 199.449 229.278 199.234 230.363C198.453 233.51 198.839 236.768 199.072 240.026C196.125 240.555 193.316 241.681 190.82 243.335C190.302 243.67 189.805 244.005 189.318 244.35C189.111 236.274 189.93 228.205 191.754 220.335C187.785 218.873 183.421 222.203 181.908 226.161C180.396 230.12 180.812 234.494 180.629 238.727C180.443 243.036 179.609 247.293 178.153 251.353C177.714 252.908 176.857 254.312 175.676 255.413C175.07 255.95 174.298 256.263 173.489 256.3C172.68 256.337 171.883 256.096 171.23 255.616C169.728 254.246 170.287 251.82 170.774 249.851C173.179 240.148 171.099 229.795 173.24 220.031C173.611 217.703 174.628 215.527 176.174 213.748C176.467 213.447 176.786 213.172 177.128 212.926C179.085 211.641 181.304 210.809 183.624 210.49C192.604 208.773 201.839 208.887 210.775 210.825C213.353 211.383 218.793 212.855 220.823 215.585C221.255 216.137 221.526 216.799 221.605 217.496C221.683 218.193 221.568 218.898 221.27 219.533Z" fill="black"/>
<path d="M174.58 140.363C169.522 151.544 168.798 164.205 172.55 175.888C178.813 195.732 163.131 205.019 192.667 208.784C222.204 212.55 174.58 140.363 174.58 140.363Z" fill="#68E1FD"/>
<path opacity="0.46" d="M174.58 140.363C169.522 151.544 168.798 164.205 172.55 175.888C178.813 195.732 163.131 205.019 192.667 208.784C222.204 212.55 174.58 140.363 174.58 140.363Z" fill="white"/>
<path d="M196.22 99.6617C194.825 102.054 193.753 104.621 193.033 107.295C192.967 107.618 192.965 107.951 193.029 108.275C193.093 108.599 193.221 108.907 193.405 109.181C193.59 109.455 193.827 109.69 194.102 109.871C194.378 110.053 194.687 110.177 195.012 110.238C196.042 110.504 197.127 110.468 198.137 110.133C199.147 109.798 200.039 109.179 200.706 108.35L203.914 105.062C204.49 104.336 204.827 103.449 204.878 102.524C204.929 101.598 204.691 100.68 204.198 99.8952C202.533 96.8705 197.631 96.972 196.22 99.6617Z" fill="#F4A28C"/>
<path d="M201.599 105.599L204.898 121.586L195.956 122.773L197.113 110.969L201.599 105.599Z" fill="#F4A28C"/>
<path d="M194.768 102.453L192.738 103.59C192.62 103.653 192.519 103.745 192.446 103.858C192.373 103.971 192.33 104.1 192.321 104.234C192.312 104.368 192.337 104.502 192.394 104.624C192.451 104.746 192.538 104.851 192.647 104.93L194.21 106.077L194.768 102.453Z" fill="#F4A28C"/>
<path opacity="0.31" d="M197.093 110.37C197.093 110.37 200.381 109.802 201.508 108.817C201.508 108.817 200.909 116.227 196.524 117.018L197.093 110.37Z" fill="#CE8172"/>
<path d="M199.843 105.295C199.843 105.295 200.706 103.58 201.934 104.28C203.162 104.98 201.934 107.528 200.067 106.919L199.843 105.295Z" fill="#F4A28C"/>
<path d="M206.045 104.473L204.583 105.934C204.583 105.934 202.188 110.066 198.605 111.578C195.022 113.09 190.993 111.497 191.5 108.269C192.048 104.574 194.22 106.077 197.478 106.787C200.737 107.498 201.396 103.052 201.396 103.052C200.798 102.891 200.248 102.589 199.792 102.17C199.336 101.751 198.988 101.228 198.778 100.646L197.103 99.205C196.732 98.8738 196.436 98.4662 196.237 98.0102C196.038 97.5541 195.94 97.0605 195.95 96.563C195.959 96.0655 196.077 95.576 196.293 95.1281C196.51 94.6801 196.82 94.2842 197.204 93.9676C197.655 93.5551 198.183 93.236 198.758 93.0287C199.333 92.8214 199.943 92.73 200.554 92.7598C204.015 93.044 210.552 100.149 206.045 104.473Z" fill="#24285B"/>
<path d="M203.112 104.168C203.112 104.168 205.822 103.407 206.157 105.498C206.492 107.589 203.528 108.35 202.097 106.746C202.733 106.036 203.093 105.122 203.112 104.168Z" fill="#F4A28C"/>
<path opacity="0.08" d="M191.297 251.425L189.937 215.027L178.295 216.336L174.306 230.12L176.072 250.826L191.297 251.425Z" fill="black"/>
<path d="M190.028 246.603C190.028 246.603 188.658 249.983 185.542 250.125C182.426 250.267 181.482 253.272 184.263 254.185C187.044 255.099 194.413 251.77 194.413 251.77V247.283L190.028 246.603Z" fill="#68E1FD"/>
<path d="M195.205 122.55L204.147 121.362C204.147 121.362 233.683 122.55 238.464 132.873C243.245 143.195 240.687 180.801 222.397 211.028L187.379 210.682C187.379 210.682 190.201 188.048 184.162 175.431C178.122 162.815 158.878 135.806 195.205 122.55Z" fill="#4B8491"/>
<path d="M222.397 211.068L205.385 207.81C202.929 207.342 200.398 207.442 197.986 208.103C195.575 208.764 193.346 209.967 191.471 211.622C189.596 213.276 188.125 215.338 187.169 217.648C186.214 219.959 185.799 222.458 185.958 224.953L187.349 246.776L195.743 247.101L195.804 226.719C195.807 225.58 196.063 224.456 196.552 223.427C197.042 222.398 197.754 221.491 198.636 220.77C199.518 220.049 200.549 219.532 201.654 219.257C202.76 218.982 203.913 218.955 205.03 219.178C212.267 220.65 221.321 220.487 222.397 211.068Z" fill="#24285B"/>
<path d="M172.611 245.923C172.611 245.923 171.241 249.313 168.125 249.455C165.009 249.598 164.065 252.602 166.846 253.515C169.627 254.429 176.996 251.11 176.996 251.11V246.624L172.611 245.923Z" fill="#68E1FD"/>
<path opacity="0.08" d="M222.285 135.897C222.285 135.897 212.257 144.017 213.84 153.487C214.094 155.01 214.358 156.857 214.602 158.887C215.563 166.72 214.782 174.669 212.313 182.165C209.844 189.661 205.749 196.519 200.32 202.248L193.946 208.998L222.366 211.028L224.995 206.348L239.144 184.78L222.285 135.897Z" fill="black"/>
<path d="M205.03 210.388L188.019 207.14C185.562 206.672 183.031 206.772 180.62 207.433C178.208 208.094 175.979 209.297 174.104 210.952C172.23 212.606 170.758 214.668 169.802 216.979C168.847 219.289 168.433 221.788 168.591 224.283L169.982 246.116L178.376 246.441L178.437 226.06C178.441 224.92 178.696 223.795 179.186 222.766C179.676 221.737 180.387 220.829 181.269 220.107C182.151 219.386 183.181 218.868 184.287 218.591C185.392 218.315 186.545 218.286 187.663 218.508C194.88 219.99 203.893 219.807 205.03 210.388Z" fill="#24285B"/>
<path d="M238.921 133.837C245.011 143.215 250.025 163.576 243.915 191.763C243.002 195.931 240.716 199.673 237.424 202.387C234.131 205.102 230.022 206.633 225.756 206.734L198.95 207.384L199.295 198.665L219.717 196.513C220.835 196.396 221.915 196.039 222.881 195.466C223.848 194.893 224.68 194.118 225.319 193.193C225.958 192.268 226.39 191.216 226.585 190.109C226.779 189.002 226.732 187.866 226.447 186.779C223.331 174.863 218.611 153.284 220.641 138.14C221.869 128.934 233.836 126.062 238.921 133.837Z" fill="#68E1FD"/>
<path opacity="0.46" d="M238.921 133.837C245.011 143.215 250.025 163.576 243.915 191.763C243.002 195.931 240.716 199.673 237.424 202.387C234.131 205.102 230.022 206.633 225.756 206.734L198.95 207.384L199.295 198.665L219.717 196.513C220.835 196.396 221.915 196.039 222.881 195.466C223.848 194.893 224.68 194.118 225.319 193.193C225.958 192.268 226.39 191.216 226.585 190.109C226.779 189.002 226.732 187.866 226.447 186.779C223.331 174.863 218.611 153.284 220.641 138.14C221.869 128.934 233.836 126.062 238.921 133.837Z" fill="white"/>
<path d="M199.214 200.776C199.214 200.776 188.374 200.076 189.693 205.851C191.013 211.626 198.95 207.434 198.95 207.434L199.214 200.776Z" fill="#F4A28C"/>
<path d="M162.786 208.013L159.365 183.085L190.424 184.292L192.302 205.506L206.532 206.257L206.39 209.708L162.786 208.013Z" fill="#C9C9C9"/>
<path d="M175.646 198.726C177.367 198.726 178.762 197.331 178.762 195.61C178.762 193.889 177.367 192.494 175.646 192.494C173.925 192.494 172.53 193.889 172.53 195.61C172.53 197.331 173.925 198.726 175.646 198.726Z" fill="white"/>
<path d="M211.749 122.042C211.749 122.042 215.647 118.236 205.517 117.414C195.387 116.592 185.217 117.414 187.247 126.143C189.277 134.872 211.749 122.042 211.749 122.042Z" fill="#68E1FD"/>
<path opacity="0.46" d="M211.749 122.042C211.749 122.042 215.647 118.236 205.517 117.414C195.387 116.592 185.217 117.414 187.247 126.143C189.277 134.872 211.749 122.042 211.749 122.042Z" fill="white"/>
<path d="M153.894 68.8159H79.0583V121.677H153.894V68.8159Z" fill="#FFD200"/>
<g opacity="0.5">
<path d="M116.471 79.0876C113.275 79.0876 110.151 80.0353 107.494 81.8109C104.837 83.5864 102.766 86.1101 101.543 89.0627C100.32 92.0154 99.9995 95.2644 100.623 98.3989C101.246 101.533 102.785 104.413 105.045 106.672C107.305 108.932 110.184 110.471 113.319 111.095C116.453 111.718 119.702 111.398 122.655 110.175C125.608 108.952 128.131 106.881 129.907 104.224C131.682 101.566 132.63 98.4424 132.63 95.2464C132.63 90.9609 130.928 86.8508 127.897 83.8204C124.867 80.7901 120.757 79.0876 116.471 79.0876ZM116.471 106.675C114.21 106.677 112 106.009 110.119 104.754C108.238 103.5 106.772 101.715 105.905 99.6271C105.039 97.539 104.811 95.2407 105.251 93.023C105.69 90.8053 106.778 88.768 108.376 87.1686C109.974 85.5692 112.01 84.4797 114.228 84.0379C116.445 83.5961 118.744 83.8218 120.832 84.6866C122.921 85.5513 124.707 87.0161 125.963 88.8958C127.22 90.7755 127.89 92.9856 127.89 95.2464C127.89 98.2758 126.687 101.181 124.546 103.324C122.405 105.467 119.501 106.673 116.471 106.675Z" fill="white"/>
<path d="M125.322 95.7539H116.238L112.32 90.9327L113.102 90.2932L116.715 94.7389H125.322V95.7539Z" fill="white"/>
</g>
<path d="M136.243 188.403H89.6143V226.131H136.243V188.403Z" fill="#FFD200"/>
<g opacity="0.5">
<path d="M108.98 210.906H116.887C119.009 207.658 120.419 205.313 120.419 202.623C120.348 200.686 119.528 198.851 118.132 197.506C116.736 196.16 114.873 195.408 112.934 195.408C110.995 195.408 109.132 196.16 107.736 197.506C106.34 198.851 105.52 200.686 105.448 202.623C105.448 205.313 106.869 207.658 108.98 210.906Z" fill="white"/>
<path d="M116.481 211.911H109.397C109.099 211.911 108.859 212.151 108.859 212.448C108.859 212.746 109.099 212.986 109.397 212.986H116.481C116.778 212.986 117.019 212.746 117.019 212.448C117.019 212.151 116.778 211.911 116.481 211.911Z" fill="white"/>
<path d="M116.481 213.443H109.397C109.099 213.443 108.859 213.684 108.859 213.981C108.859 214.278 109.099 214.519 109.397 214.519H116.481C116.778 214.519 117.019 214.278 117.019 213.981C117.019 213.684 116.778 213.443 116.481 213.443Z" fill="white"/>
<path d="M116.481 214.976H109.397C109.099 214.976 108.859 215.217 108.859 215.514C108.859 215.811 109.099 216.052 109.397 216.052H116.481C116.778 216.052 117.019 215.811 117.019 215.514C117.019 215.217 116.778 214.976 116.481 214.976Z" fill="white"/>
<path d="M109.478 217.047C109.751 217.74 110.227 218.336 110.843 218.755C111.46 219.175 112.188 219.399 112.934 219.399C113.679 219.399 114.408 219.175 115.024 218.755C115.641 218.336 116.116 217.74 116.39 217.047H109.478Z" fill="white"/>
</g>
<path d="M333.793 145.672H258.957V198.533H333.793V145.672Z" fill="#FFD200"/>
<path opacity="0.3" d="M281.226 179.461H275.319V186.272H281.226V179.461Z" fill="white"/>
<path opacity="0.3" d="M293.365 173.209H287.458V186.272H293.365V173.209Z" fill="white"/>
<path opacity="0.3" d="M305.515 169.078H299.608V186.272H305.515V169.078Z" fill="white"/>
<path opacity="0.3" d="M317.665 156.116H311.757V186.272H317.665V156.116Z" fill="white"/>
<path opacity="0.3" d="M322.09 186.272H270.65V188.078H322.09V186.272Z" fill="white"/>
<path opacity="0.3" d="M275.319 171.199L301.658 157.192L302.44 158.481L304.926 154.928L300.338 154.715L301.059 156.096L274.476 169.697L275.319 171.199Z" fill="white"/>
</svg>
