<svg width="40" height="34" viewBox="0 0 40 34" fill="none" xmlns="http://www.w3.org/2000/svg">
<path d="M16 15C13.8 15 12 14.3 10.6 12.9C9.2 11.5 8.5 9.7 8.5 7.5C8.5 5.3 9.2 3.5 10.6 2.1C12 0.7 13.8 0 16 0C18.2 0 20 0.7 21.4 2.1C22.8 3.5 23.5 5.3 23.5 7.5C23.5 9.7 22.8 11.5 21.4 12.9C20 14.3 18.2 15 16 15ZM0 31.05V26.3C0 25.1333 0.3 24.0833 0.9 23.15C1.5 22.2167 2.33333 21.5167 3.4 21.05C5.4 20.1833 7.45 19.4667 9.55 18.9C11.65 18.3333 13.8 18.05 16 18.05H17.15C16.4833 20.1833 16.2333 22.3583 16.4 24.575C16.5667 26.7917 17.0667 28.95 17.9 31.05H0ZM29.35 33.25L28.85 29.95C28.2833 29.7833 27.7083 29.5417 27.125 29.225C26.5417 28.9083 26.05 28.55 25.65 28.15L22.9 28.75L21.65 26.65L24 24.45C23.9333 24.15 23.9 23.7333 23.9 23.2C23.9 22.6667 23.9333 22.25 24 21.95L21.65 19.75L22.9 17.65L25.65 18.25C26.05 17.85 26.5417 17.4917 27.125 17.175C27.7083 16.8583 28.2833 16.6167 28.85 16.45L29.35 13.15H32.05L32.55 16.45C33.1167 16.6167 33.6917 16.8583 34.275 17.175C34.8583 17.4917 35.35 17.85 35.75 18.25L38.5 17.65L39.75 19.75L37.4 21.95C37.4667 22.25 37.5 22.6667 37.5 23.2C37.5 23.7333 37.4667 24.15 37.4 24.45L39.75 26.65L38.5 28.75L35.75 28.15C35.35 28.55 34.8583 28.9083 34.275 29.225C33.6917 29.5417 33.1167 29.7833 32.55 29.95L32.05 33.25H29.35ZM30.7 27.2C31.9 27.2 32.8667 26.8333 33.6 26.1C34.3333 25.3667 34.7 24.4 34.7 23.2C34.7 22 34.3333 21.0333 33.6 20.3C32.8667 19.5667 31.9 19.2 30.7 19.2C29.5 19.2 28.5333 19.5667 27.8 20.3C27.0667 21.0333 26.7 22 26.7 23.2C26.7 24.4 27.0667 25.3667 27.8 26.1C28.5333 26.8333 29.5 27.2 30.7 27.2Z" fill="#007580"/>
</svg>
