<svg width="48" height="48" viewBox="0 0 48 48" fill="none" xmlns="http://www.w3.org/2000/svg">
<path d="M24 22C18.6333 22 14.2917 21.1833 10.975 19.55C7.65833 17.9167 6 16.0667 6 14C6 11.9 7.65833 10.0417 10.975 8.425C14.2917 6.80833 18.6333 6 24 6C29.3667 6 33.7083 6.80833 37.025 8.425C40.3417 10.0417 42 11.9 42 14C42 16.0667 40.3417 17.9167 37.025 19.55C33.7083 21.1833 29.3667 22 24 22ZM24 32C19.1333 32 14.9167 31.2667 11.35 29.8C7.78333 28.3333 6 26.5667 6 24.5V19.5C6 20.8 6.625 21.925 7.875 22.875C9.125 23.825 10.675 24.6083 12.525 25.225C14.375 25.8417 16.3417 26.2917 18.425 26.575C20.5083 26.8583 22.3667 27 24 27C25.6667 27 27.5333 26.8583 29.6 26.575C31.6667 26.2917 33.625 25.85 35.475 25.25C37.325 24.65 38.875 23.875 40.125 22.925C41.375 21.975 42 20.8333 42 19.5V24.5C42 26.5667 40.2167 28.3333 36.65 29.8C33.0833 31.2667 28.8667 32 24 32ZM24 42C19.1333 42 14.9167 41.2667 11.35 39.8C7.78333 38.3333 6 36.5667 6 34.5V29.5C6 30.8 6.625 31.925 7.875 32.875C9.125 33.825 10.675 34.6083 12.525 35.225C14.375 35.8417 16.3417 36.2917 18.425 36.575C20.5083 36.8583 22.3667 37 24 37C25.6667 37 27.5333 36.8583 29.6 36.575C31.6667 36.2917 33.625 35.85 35.475 35.25C37.325 34.65 38.875 33.875 40.125 32.925C41.375 31.975 42 30.8333 42 29.5V34.5C42 36.5667 40.2167 38.3333 36.65 39.8C33.0833 41.2667 28.8667 42 24 42Z" fill="#FF9900"/>
</svg>
