<svg width="42" height="42" viewBox="0 0 42 42" fill="none" xmlns="http://www.w3.org/2000/svg">
<path d="M19.396 31.2H22.516V22.568H31.2V19.448H22.516V10.4H19.396V19.448H10.4V22.568H19.396V31.2ZM20.8 41.6C17.9573 41.6 15.2707 41.054 12.74 39.962C10.2093 38.87 7.99933 37.3793 6.11 35.49C4.22067 33.6007 2.73 31.3907 1.638 28.86C0.546 26.3293 0 23.6253 0 20.748C0 17.9053 0.546 15.2187 1.638 12.688C2.73 10.1573 4.22067 7.956 6.11 6.084C7.99933 4.212 10.2093 2.73 12.74 1.638C15.2707 0.546 17.9747 0 20.852 0C23.6947 0 26.3813 0.546 28.912 1.638C31.4427 2.73 33.644 4.212 35.516 6.084C37.388 7.956 38.87 10.1573 39.962 12.688C41.054 15.2187 41.6 17.9227 41.6 20.8C41.6 23.6427 41.054 26.3293 39.962 28.86C38.87 31.3907 37.388 33.6007 35.516 35.49C33.644 37.3793 31.4427 38.87 28.912 39.962C26.3813 41.054 23.6773 41.6 20.8 41.6Z" fill="#007580"/>
</svg>
