<svg width="48" height="48" viewBox="0 0 48 48" fill="none" xmlns="http://www.w3.org/2000/svg">
<path d="M36.5 28V21.5H30V18.5H36.5V12H39.5V18.5H46V21.5H39.5V28H36.5ZM18 23.95C15.8 23.95 14 23.25 12.6 21.85C11.2 20.45 10.5 18.65 10.5 16.45C10.5 14.25 11.2 12.45 12.6 11.05C14 9.64995 15.8 8.94995 18 8.94995C20.2 8.94995 22 9.64995 23.4 11.05C24.8 12.45 25.5 14.25 25.5 16.45C25.5 18.65 24.8 20.45 23.4 21.85C22 23.25 20.2 23.95 18 23.95ZM2 40V35.2999C2 34.1333 2.3 33.075 2.9 32.125C3.5 31.1749 4.33333 30.4666 5.4 30C7.9 28.9 10.125 28.125 12.075 27.6749C14.025 27.2249 16 27 18 27C20 27 21.975 27.2249 23.925 27.6749C25.875 28.125 28.0833 28.9 30.55 30C31.6167 30.5 32.4583 31.2166 33.075 32.15C33.6917 33.0833 34 34.1333 34 35.2999V40H2Z" fill="#FF9900"/>
</svg>
