<svg width="566" height="426" viewBox="0 0 566 426" fill="none" xmlns="http://www.w3.org/2000/svg">
<path opacity="0.45" d="M283.392 353.852C396.901 353.852 488.918 347.879 488.918 340.512C488.918 333.145 396.901 327.173 283.392 327.173C169.883 327.173 77.8652 333.145 77.8652 340.512C77.8652 347.879 169.883 353.852 283.392 353.852Z" fill="#E6E6E6"/>
<path d="M249.098 243.847L233.555 324.856H309.378L293.835 243.847H249.098Z" fill="#C9C9C9"/>
<path d="M423.566 72.1482H127.534V264.802H423.566V72.1482Z" fill="#E6E6E6"/>
<path d="M319.27 316.844H223.183V333.193H319.27V316.844Z" fill="#E6E6E6"/>
<path opacity="0.56" d="M423.566 72.1482H127.534V242.66H423.566V72.1482Z" fill="white"/>
<path d="M150.27 95.7176C153.711 95.7176 156.501 92.9277 156.501 89.4861C156.501 86.0446 153.711 83.2546 150.27 83.2546C146.828 83.2546 144.038 86.0446 144.038 89.4861C144.038 92.9277 146.828 95.7176 150.27 95.7176Z" fill="#24285B"/>
<path d="M168.795 95.7176C172.237 95.7176 175.026 92.9277 175.026 89.4861C175.026 86.0446 172.237 83.2546 168.795 83.2546C165.353 83.2546 162.563 86.0446 162.563 89.4861C162.563 92.9277 165.353 95.7176 168.795 95.7176Z" fill="#68E1FD"/>
<path d="M186.246 95.7176C189.687 95.7176 192.477 92.9277 192.477 89.4861C192.477 86.0446 189.687 83.2546 186.246 83.2546C182.804 83.2546 180.014 86.0446 180.014 89.4861C180.014 92.9277 182.804 95.7176 186.246 95.7176Z" fill="#FFD200"/>
<path opacity="0.16" d="M408.771 242.674C408.178 245.345 407.542 248.015 406.892 250.672C405.906 255.618 404.166 260.384 401.734 264.802H365.447C365.416 264.667 365.392 264.53 365.377 264.392C365.249 263.262 367.157 251.943 368.598 242.66C369.63 235.835 370.407 230.112 369.941 230.267C361.745 232.867 352.179 235.312 345.085 230.437C343.028 228.876 341.188 227.046 339.617 224.997L306.114 184.923C304.87 183.51 303.641 181.122 305.04 179.78C306.439 178.437 308.219 179.426 309.66 180.274L325.204 189.445C329.443 191.918 335.915 197.725 340.86 197.923C348.745 198.347 360.134 189.883 364.727 184.061C370.011 177.363 372.852 169.026 374.321 160.619C375.734 152.748 376.285 143.973 381.937 138.321C385.795 134.477 392.055 131.75 392.196 126.31C392.366 119.838 385.936 114.073 390.175 107.446C395.079 99.7591 402.893 104.917 404.716 111.784C406.058 116.942 405.902 122.368 406.369 127.667C407.316 138.363 410.862 148.636 413.052 159.135C418.775 186.689 415.017 215.176 408.771 242.674Z" fill="#A5A5A5"/>
<path opacity="0.58" d="M176.553 317.975C176.553 317.975 164.796 314.767 162.239 303.844C162.239 303.844 180.453 300.156 180.976 318.964L176.553 317.975Z" fill="#68E1FD"/>
<path opacity="0.73" d="M177.993 316.816C177.993 316.816 169.783 303.83 177.004 291.692C177.004 291.692 190.852 300.481 184.705 316.844L177.993 316.816Z" fill="#68E1FD"/>
<path d="M180.113 316.816C180.113 316.816 184.451 303.11 197.564 300.51C197.564 300.51 200.023 309.412 189.086 316.858L180.113 316.816Z" fill="#68E1FD"/>
<path d="M171.578 316.505L173.966 332.811L188.973 332.868L191.191 316.59L171.578 316.505Z" fill="#24285B"/>
<path d="M174.362 129.546H90.8657V218.186H174.362V129.546Z" fill="#E6E6E6"/>
<path d="M346.583 155.701C347.161 155.484 347.674 155.124 348.074 154.654C348.474 154.185 348.749 153.621 348.872 153.017V151.603C348.688 150.727 348.519 149.837 348.293 148.975C347.769 146.636 346.811 144.417 345.467 142.433C345.201 142.085 344.908 141.759 344.591 141.458C344.084 140.964 343.437 140.64 342.738 140.531C342.039 140.423 341.323 140.534 340.691 140.85C338.005 142.177 334.933 142.503 332.029 141.769C330.153 141.198 328.485 140.091 327.23 138.585C325.975 137.079 325.187 135.238 324.964 133.29C324.742 131.337 325.035 129.36 325.811 127.554C325.971 127.129 326.103 126.695 326.207 126.254C326.322 125.897 326.345 125.516 326.273 125.148C326.202 124.78 326.038 124.436 325.797 124.148C324.493 122.38 322.789 120.946 320.824 119.963C318.859 118.981 316.69 118.478 314.493 118.496C314.201 118.477 313.909 118.516 313.632 118.611C313.356 118.705 313.101 118.854 312.882 119.047C312.118 119.68 311.513 120.483 311.116 121.393C310.078 123.967 308.078 126.036 305.54 127.16C303.002 128.284 300.126 128.374 297.522 127.412C296.099 126.834 294.812 125.966 293.742 124.864C292.671 123.763 291.842 122.45 291.305 121.011C291.252 120.857 291.191 120.706 291.121 120.559C290.866 119.828 290.35 119.216 289.673 118.84C288.995 118.465 288.203 118.352 287.447 118.524C284.278 118.842 281.231 119.913 278.559 121.647C278.044 121.987 277.57 122.386 277.146 122.834C276.678 123.293 276.347 123.873 276.19 124.509C276.033 125.146 276.056 125.813 276.256 126.437C277.107 129.583 276.989 132.912 275.917 135.989C275.444 137.291 274.66 138.457 273.633 139.386C272.606 140.314 271.367 140.977 270.025 141.317C267.529 142.103 264.842 142.028 262.394 141.105C261.999 140.963 261.589 140.864 261.193 140.723C260.617 140.515 259.992 140.487 259.399 140.64C258.807 140.794 258.275 141.124 257.872 141.585C256.983 142.482 256.26 143.529 255.739 144.68C254.616 146.821 253.956 149.176 253.803 151.589C253.773 152.501 253.987 153.403 254.425 154.203C254.765 154.893 255.349 155.431 256.064 155.715C258.243 156.585 260.182 157.967 261.716 159.743C263.117 161.328 263.921 163.353 263.991 165.467C264.06 167.582 263.391 169.655 262.097 171.33C260.602 173.386 258.568 174.99 256.219 175.964C255.53 176.162 254.92 176.568 254.472 177.128C254.024 177.687 253.76 178.372 253.718 179.087C253.622 180.398 253.771 181.716 254.156 182.973C254.721 185.104 255.623 187.131 256.827 188.978C257.18 189.636 257.697 190.192 258.329 190.591C258.96 190.989 259.684 191.218 260.43 191.253C261.044 191.263 261.654 191.172 262.239 190.985C264.865 190.165 267.665 190.082 270.335 190.745C271.467 191.033 272.501 191.618 273.331 192.44C274.72 193.809 275.665 195.563 276.046 197.475C276.426 199.387 276.224 201.369 275.465 203.165C275.21 203.815 274.914 204.437 274.702 205.101C274.509 205.647 274.468 206.234 274.583 206.802C274.697 207.369 274.963 207.894 275.352 208.323C276.283 209.384 277.404 210.261 278.658 210.909C281.02 212.24 283.607 213.126 286.289 213.523C286.894 213.6 287.506 213.6 288.111 213.523C288.783 213.438 289.416 213.166 289.941 212.739C290.465 212.312 290.86 211.746 291.079 211.107C291.926 208.896 293.399 206.981 295.318 205.596L295.968 205.144C297.047 204.437 298.259 203.957 299.529 203.731C301.089 203.477 302.687 203.602 304.189 204.094C305.691 204.585 307.054 205.43 308.162 206.557C309.446 207.819 310.46 209.329 311.144 210.994C311.475 211.804 312.01 212.515 312.698 213.057C313.024 213.301 313.397 213.476 313.793 213.571C314.189 213.665 314.6 213.678 315.002 213.608C318.41 213.243 321.657 211.964 324.398 209.905C325.22 209.333 325.813 208.489 326.071 207.522C326.33 206.554 326.238 205.527 325.811 204.621C325.141 203.22 324.787 201.688 324.775 200.135C324.763 198.582 325.092 197.045 325.741 195.634C326.331 194.183 327.311 192.923 328.573 191.995C329.835 191.067 331.33 190.507 332.891 190.377C335.098 190.091 337.342 190.319 339.447 191.041C340.478 191.403 341.596 191.432 342.644 191.122C343.691 190.813 344.615 190.181 345.283 189.318C346.929 187.241 348.023 184.781 348.462 182.168C348.59 181.42 348.661 180.665 348.674 179.907C348.699 179.352 348.594 178.799 348.368 178.291C348.143 177.784 347.803 177.335 347.374 176.982C346.802 176.463 346.148 176.043 345.438 175.738C343.871 175.095 342.485 174.077 341.401 172.775C340.317 171.472 339.568 169.924 339.219 168.266C338.871 166.608 338.934 164.889 339.402 163.261C339.87 161.632 340.73 160.143 341.906 158.923C343.197 157.504 344.797 156.401 346.583 155.701ZM308.996 193.09C306.425 193.836 303.76 194.212 301.083 194.207C297.303 194.211 293.562 193.442 290.09 191.946C283.959 189.338 278.947 184.648 275.938 178.705C272.929 172.761 272.117 165.945 273.644 159.461C275.171 152.976 278.94 147.24 284.286 143.264C289.632 139.288 296.21 137.328 302.86 137.731C309.51 138.133 315.803 140.872 320.63 145.464C325.457 150.056 328.507 156.205 329.241 162.826C329.975 169.448 328.346 176.116 324.642 181.653C320.938 187.19 315.396 191.241 308.996 193.09Z" fill="#C9C9C9"/>
<path d="M249.974 195.408C250.383 195.458 250.798 195.403 251.179 195.247C251.56 195.091 251.894 194.84 252.15 194.517L252.574 193.698C252.73 193.118 252.899 192.539 253.026 191.96C253.435 190.402 253.536 188.78 253.323 187.184C253.281 186.895 253.21 186.611 253.111 186.336C252.965 185.885 252.68 185.491 252.297 185.212C251.913 184.933 251.452 184.782 250.978 184.782C248.965 184.745 247.032 183.993 245.523 182.662C244.57 181.744 243.909 180.565 243.622 179.273C243.336 177.982 243.437 176.634 243.912 175.399C244.372 174.166 245.152 173.078 246.173 172.248C246.399 172.045 246.612 171.828 246.809 171.598C246.991 171.416 247.122 171.191 247.192 170.943C247.261 170.696 247.266 170.435 247.205 170.185C247.08 169.469 246.881 168.768 246.611 168.094C245.656 166.095 244.107 164.442 242.174 163.36C241.834 163.158 241.428 163.097 241.044 163.19C240.394 163.332 239.789 163.627 239.278 164.052C237.872 165.249 236.058 165.856 234.216 165.748C232.373 165.64 230.643 164.825 229.386 163.473C228.725 162.7 228.23 161.799 227.931 160.827C227.632 159.855 227.536 158.832 227.648 157.821C227.648 157.708 227.648 157.609 227.648 157.496C227.721 156.982 227.603 156.46 227.316 156.028C227.03 155.596 226.595 155.283 226.094 155.15C224.103 154.38 221.959 154.085 219.834 154.288C219.424 154.334 219.021 154.428 218.633 154.571C218.213 154.699 217.838 154.941 217.548 155.27C217.259 155.6 217.067 156.003 216.994 156.436C216.554 158.594 215.464 160.567 213.871 162.088C213.196 162.729 212.374 163.193 211.477 163.44C210.579 163.686 209.635 163.707 208.728 163.501C207 163.201 205.423 162.33 204.248 161.028L203.641 160.435C203.363 160.136 203.001 159.927 202.603 159.837C202.205 159.746 201.788 159.777 201.408 159.926C200.601 160.187 199.849 160.594 199.19 161.127C197.861 162.055 196.743 163.254 195.911 164.646C195.616 165.181 195.469 165.786 195.487 166.398C195.473 166.916 195.655 167.421 195.996 167.811C197.006 168.993 197.722 170.397 198.087 171.909C198.452 173.289 198.319 174.753 197.712 176.045C197.105 177.337 196.062 178.374 194.767 178.974C193.244 179.746 191.536 180.079 189.835 179.935C189.382 179.879 188.922 179.96 188.514 180.166C188.107 180.372 187.77 180.695 187.546 181.093C187.084 181.842 186.767 182.672 186.614 183.538C186.298 184.971 186.207 186.444 186.345 187.904C186.35 188.401 186.483 188.888 186.73 189.318C186.978 189.749 187.332 190.109 187.758 190.363C188.117 190.564 188.51 190.698 188.917 190.759C190.735 191.078 192.431 191.889 193.82 193.104C194.408 193.617 194.843 194.282 195.078 195.026C195.491 196.269 195.52 197.608 195.162 198.868C194.804 200.128 194.076 201.251 193.071 202.091C192.718 202.388 192.351 202.671 192.011 203.01C191.732 203.277 191.529 203.615 191.425 203.988C191.32 204.361 191.318 204.755 191.418 205.129C191.644 206.048 192.042 206.916 192.591 207.687C193.599 209.194 194.867 210.51 196.335 211.573C196.676 211.802 197.047 211.983 197.437 212.11C197.861 212.267 198.321 212.301 198.763 212.208C199.206 212.116 199.613 211.9 199.939 211.587C201.13 210.533 202.603 209.85 204.178 209.623C204.35 209.586 204.525 209.563 204.7 209.552C205.561 209.457 206.433 209.544 207.258 209.806C208.251 210.125 209.153 210.676 209.891 211.413C210.628 212.15 211.179 213.053 211.497 214.046C211.884 215.185 212.029 216.393 211.921 217.592C211.872 218.177 211.969 218.764 212.204 219.302C212.325 219.548 212.495 219.766 212.704 219.944C212.913 220.121 213.157 220.254 213.419 220.334C215.559 221.162 217.883 221.397 220.145 221.012C220.808 220.922 221.417 220.6 221.864 220.103C222.312 219.606 222.569 218.967 222.59 218.299C222.617 217.257 222.874 216.234 223.343 215.303C223.812 214.372 224.481 213.557 225.303 212.915C226.101 212.233 227.072 211.784 228.109 211.617C229.146 211.45 230.208 211.572 231.181 211.968C232.579 212.48 233.841 213.307 234.869 214.385C235.375 214.915 236.034 215.273 236.754 215.407C237.475 215.541 238.219 215.446 238.882 215.134C240.499 214.404 241.904 213.276 242.966 211.855C243.268 211.451 243.542 211.026 243.785 210.584C243.969 210.259 244.076 209.897 244.098 209.524C244.12 209.152 244.056 208.78 243.912 208.436C243.726 207.95 243.464 207.497 243.135 207.093C242.399 206.23 241.885 205.199 241.639 204.092C241.393 202.984 241.422 201.833 241.723 200.739C242.024 199.645 242.588 198.641 243.366 197.815C244.144 196.989 245.113 196.366 246.187 196.001C247.389 195.522 248.683 195.319 249.974 195.408ZM216.061 206.175C214.3 205.829 212.597 205.234 211.003 204.409C208.75 203.26 206.758 201.658 205.153 199.703C202.794 196.822 201.327 193.316 200.931 189.615C200.534 185.913 201.226 182.176 202.92 178.861C204.54 175.731 206.999 173.115 210.023 171.305C213.046 169.496 216.514 168.564 220.038 168.615C223.561 168.667 227 169.699 229.97 171.596C232.94 173.493 235.322 176.18 236.85 179.355C238.377 182.53 238.99 186.069 238.619 189.573C238.248 193.077 236.908 196.409 234.749 199.194C232.591 201.979 229.699 204.107 226.398 205.34C223.097 206.574 219.517 206.863 216.061 206.175Z" fill="#C9C9C9"/>
<path d="M159.751 199.308H105.462V203.095H159.751V199.308Z" fill="#A5A5A5"/>
<path opacity="0.23" d="M149.506 199.308H115.707V203.095H149.506V199.308Z" fill="white"/>
<path opacity="0.02" d="M146.37 160.011C149.281 160.011 151.64 157.651 151.64 154.741C151.64 151.83 149.281 149.47 146.37 149.47C143.459 149.47 141.099 151.83 141.099 154.741C141.099 157.651 143.459 160.011 146.37 160.011Z" fill="#A5A5A5"/>
<path opacity="0.36" d="M119.705 186.675C122.616 186.675 124.976 184.315 124.976 181.404C124.976 178.493 122.616 176.134 119.705 176.134C116.794 176.134 114.435 178.493 114.435 181.404C114.435 184.315 116.794 186.675 119.705 186.675Z" fill="#A5A5A5"/>
<path opacity="0.16" d="M146.37 186.675C149.281 186.675 151.64 184.315 151.64 181.404C151.64 178.493 149.281 176.134 146.37 176.134C143.459 176.134 141.099 178.493 141.099 181.404C141.099 184.315 143.459 186.675 146.37 186.675Z" fill="#A5A5A5"/>
<path opacity="0.84" d="M119.705 160.011C122.616 160.011 124.976 157.651 124.976 154.741C124.976 151.83 122.616 149.47 119.705 149.47C116.794 149.47 114.435 151.83 114.435 154.741C114.435 157.651 116.794 160.011 119.705 160.011Z" fill="#A5A5A5"/>
<path opacity="0.23" d="M132.86 192.878C135.771 192.878 138.131 190.519 138.131 187.608C138.131 184.697 135.771 182.337 132.86 182.337C129.95 182.337 127.59 184.697 127.59 187.608C127.59 190.519 129.95 192.878 132.86 192.878Z" fill="#A5A5A5"/>
<path d="M132.86 155.178C135.771 155.178 138.131 152.818 138.131 149.908C138.131 146.997 135.771 144.637 132.86 144.637C129.95 144.637 127.59 146.997 127.59 149.908C127.59 152.818 129.95 155.178 132.86 155.178Z" fill="#A5A5A5"/>
<path opacity="0.52" d="M113.756 173.774C116.667 173.774 119.027 171.414 119.027 168.503C119.027 165.592 116.667 163.233 113.756 163.233C110.846 163.233 108.486 165.592 108.486 168.503C108.486 171.414 110.846 173.774 113.756 173.774Z" fill="#A5A5A5"/>
<path opacity="0.09" d="M151.471 173.774C154.382 173.774 156.741 171.414 156.741 168.503C156.741 165.592 154.382 163.233 151.471 163.233C148.56 163.233 146.2 165.592 146.2 168.503C146.2 171.414 148.56 173.774 151.471 173.774Z" fill="#A5A5A5"/>
<path opacity="0.23" d="M97.6482 137.473C98.6003 137.473 99.3721 136.701 99.3721 135.749C99.3721 134.797 98.6003 134.025 97.6482 134.025C96.6961 134.025 95.9243 134.797 95.9243 135.749C95.9243 136.701 96.6961 137.473 97.6482 137.473Z" fill="#A5A5A5"/>
<path opacity="0.23" d="M105.463 137.473C106.415 137.473 107.187 136.701 107.187 135.749C107.187 134.797 106.415 134.025 105.463 134.025C104.511 134.025 103.739 134.797 103.739 135.749C103.739 136.701 104.511 137.473 105.463 137.473Z" fill="#A5A5A5"/>
<path opacity="0.23" d="M113.291 137.473C114.243 137.473 115.015 136.701 115.015 135.749C115.015 134.797 114.243 134.025 113.291 134.025C112.339 134.025 111.567 134.797 111.567 135.749C111.567 136.701 112.339 137.473 113.291 137.473Z" fill="#A5A5A5"/>
<path d="M314.479 181.079C312.833 179.72 311.366 178.158 310.112 176.43C309.18 174.707 307.979 168.871 306.523 169.012C305.068 169.153 306.792 172.46 306.523 175.639C306.255 178.819 304.799 174.452 304.135 176.035C303.471 177.617 305.336 179.483 306.523 181.079C308.749 183.338 311.109 185.462 313.588 187.438L314.479 181.079Z" fill="#F4A28C"/>
<path d="M374.646 148.311C374.646 148.311 355.443 196.354 348.025 193.698C340.606 191.041 313.575 178.847 313.575 178.847L310.749 185.799C310.749 185.799 338.147 223.386 354.553 217.013C370.958 210.64 392.917 177.448 392.917 177.448L374.646 148.311Z" fill="#68E1FD"/>
<path opacity="0.46" d="M374.646 148.311C374.646 148.311 355.443 196.354 348.025 193.698C340.606 191.041 313.575 178.847 313.575 178.847L310.749 185.799C310.749 185.799 338.147 223.386 354.553 217.013C370.958 210.64 392.917 177.448 392.917 177.448L374.646 148.311Z" fill="white"/>
<path d="M382.418 336.457C382.418 336.457 380.765 340.838 376.766 341.106C372.767 341.375 371.679 345.261 375.24 346.32C378.801 347.38 388.085 342.943 388.085 342.943L387.957 335.652L382.418 336.457Z" fill="#68E1FD"/>
<path d="M434.163 335.652C434.163 335.652 433.118 340.838 429.133 341.106C425.148 341.375 424.06 345.261 427.621 346.32C431.182 347.38 440.465 342.943 440.465 342.943L440.239 335.652H434.163Z" fill="#68E1FD"/>
<path d="M399.516 134.788L412.021 135.184C412.021 135.184 450.611 137.883 456.461 160.548C462.311 183.213 435.506 236.852 435.506 236.852H384.891C384.891 236.852 341.101 138.632 399.516 134.788Z" fill="#68E1FD"/>
<path d="M399.516 134.788C399.516 134.788 398.597 183.736 398.753 183.029C398.908 182.323 411.979 135.184 411.979 135.184L399.516 134.788Z" fill="#24285B"/>
<path d="M399.106 107.842C398.326 111.603 398.059 115.454 398.314 119.287C398.371 119.742 398.519 120.18 398.747 120.577C398.976 120.974 399.281 121.322 399.646 121.599C400.01 121.877 400.426 122.079 400.87 122.194C401.313 122.309 401.775 122.334 402.228 122.269C403.699 122.159 405.106 121.628 406.282 120.738C407.457 119.848 408.351 118.638 408.856 117.252L411.682 111.501C412.113 110.291 412.158 108.976 411.811 107.739C411.464 106.502 410.743 105.402 409.746 104.592C406.142 101.37 399.756 103.673 399.106 107.842Z" fill="#F4A28C"/>
<path d="M411.118 112.547L412.022 135.184L399.517 134.789L403.883 118.468L411.118 112.547Z" fill="#F4A28C"/>
<path d="M400.773 108.322C402.884 108.665 405.028 108.755 407.16 108.591C406.436 109.449 405.98 110.501 405.847 111.616C405.714 112.73 405.91 113.86 406.411 114.865C406.879 115.849 407.675 116.64 408.663 117.102C409.65 117.564 410.768 117.667 411.823 117.394L412.756 108.562C412.928 107.301 412.756 106.017 412.259 104.846C411.761 103.674 410.956 102.659 409.93 101.907C409.03 101.248 408.086 100.653 407.104 100.127C404.687 98.7983 400.773 100.056 398.625 98.0777C398.417 97.8794 398.16 97.7385 397.881 97.6687C397.602 97.5989 397.309 97.6025 397.032 97.6794C396.754 97.7562 396.501 97.9035 396.298 98.107C396.094 98.3106 395.947 98.5633 395.87 98.8407C395.149 101.483 395.135 105.765 398.583 107.658C399.268 108.008 400.009 108.233 400.773 108.322Z" fill="#24285B"/>
<path d="M435.506 236.824C435.506 236.824 428.709 286.28 442.571 335.652H432.299C432.299 335.652 413.929 306.543 409.252 246.461L435.506 236.824Z" fill="#24285B"/>
<path d="M405.705 114.582C405.705 114.582 406.058 111.939 408.022 112.377C409.987 112.815 409.436 116.616 406.737 116.616L405.705 114.582Z" fill="#F4A28C"/>
<path d="M398.442 112.151L396.21 114.568C396.081 114.704 395.99 114.871 395.944 115.053C395.898 115.234 395.899 115.424 395.948 115.605C395.996 115.786 396.089 115.952 396.219 116.087C396.349 116.222 396.511 116.322 396.69 116.376L399.262 117.182L398.442 112.151Z" fill="#F4A28C"/>
<path opacity="0.31" d="M402.766 122C404.334 121.779 405.805 121.112 407.005 120.079C407.005 120.079 406.341 124.176 401.353 127.695L402.766 122Z" fill="#CE8172"/>
<path d="M384.891 236.824C384.891 236.824 372.527 307.32 380.298 335.652H390.26C390.26 335.652 393.694 270.285 410.495 255.024L435.506 236.824H384.891Z" fill="#24285B"/>
<path opacity="0.08" d="M433.952 150.586C433.952 150.586 413.406 158.4 424.611 189.953C435.817 221.506 431.677 225.279 419.835 223.174C413.547 222.072 409.11 213.282 406.369 208.309C404.179 204.352 402.483 200.169 400.378 196.171C398.541 192.68 393.694 192.808 390.246 193.005C384.246 193.335 378.264 193.806 372.301 194.418C372.783 196.077 373.9 197.479 375.409 198.318C378.399 200.438 381.606 202.233 384.976 203.674C387.486 204.75 390.229 205.168 392.945 204.889C392.945 204.889 391.306 228.911 404.25 236.81H435.534L451.827 219.853V177.307L433.952 150.586Z" fill="black"/>
<path d="M436.071 148.608C438.113 147.036 440.662 146.27 443.232 146.458C445.801 146.646 448.212 147.773 450.004 149.625C456.956 156.69 466.635 172.714 462.495 204.592C456.263 252.537 423.17 251.844 395.913 203.038L404.221 197.739C404.221 197.739 429.176 232.302 440.07 215.176C449.961 199.633 416.84 163.657 436.071 148.608Z" fill="#68E1FD"/>
<path opacity="0.46" d="M436.071 148.608C438.113 147.036 440.662 146.27 443.232 146.458C445.801 146.646 448.212 147.773 450.004 149.625C456.956 156.69 466.635 172.714 462.495 204.592C456.263 252.537 423.17 251.844 395.913 203.038L404.221 197.739C404.221 197.739 429.176 232.302 440.07 215.176C449.961 199.633 416.84 163.657 436.071 148.608Z" fill="white"/>
<path d="M402.949 198.559C402.588 197.503 402.114 196.489 401.536 195.535C401.03 195.007 400.422 194.586 399.75 194.297C399.077 194.008 398.354 193.857 397.622 193.853L394.16 193.514C392.712 193.256 391.222 193.358 389.822 193.811C389.432 193.926 389.087 194.159 388.834 194.478C388.582 194.796 388.433 195.185 388.409 195.591C388.471 195.906 388.619 196.198 388.836 196.435C389.053 196.671 389.33 196.844 389.639 196.934C390.257 197.101 390.892 197.205 391.532 197.245C392.869 197.437 394.133 197.973 395.201 198.8C396.268 199.627 397.103 200.717 397.622 201.964L402.949 198.559Z" fill="#F4A28C"/>
<path d="M341.581 196.241L335.42 161.467H379.04L382.827 191.112L402.836 191.395V196.241H341.581Z" fill="#FFD200"/>
<path d="M358.947 182.507C361.359 182.507 363.314 180.552 363.314 178.14C363.314 175.729 361.359 173.774 358.947 173.774C356.536 173.774 354.581 175.729 354.581 178.14C354.581 180.552 356.536 182.507 358.947 182.507Z" fill="white"/>
<path d="M408.404 116.673C409.817 116.673 410.962 115.528 410.962 114.115C410.962 112.703 409.817 111.558 408.404 111.558C406.992 111.558 405.847 112.703 405.847 114.115C405.847 115.528 406.992 116.673 408.404 116.673Z" fill="#C9C9C9"/>
<path d="M407.994 114.667C407.994 114.667 406.948 122.128 404.235 123.315C402.473 124.006 400.515 124.006 398.752 123.315" stroke="#C9C9C9" stroke-width="1.41304" stroke-miterlimit="10"/>
<path d="M398.682 124.487C399.283 124.487 399.77 124 399.77 123.399C399.77 122.798 399.283 122.311 398.682 122.311C398.081 122.311 397.594 122.798 397.594 123.399C397.594 124 398.081 124.487 398.682 124.487Z" fill="#C9C9C9"/>
<path d="M412.813 107.573L395.856 93.9799C395.856 93.9799 396.167 93.3864 397.538 94.2767C398.909 95.1669 404.165 98.9538 404.165 98.9538C404.165 98.9538 406.313 95.3788 410.905 98.6571C415.498 101.935 414.664 105.355 412.813 107.573Z" fill="#68E1FD"/>
<path d="M407.457 114.087C407.457 114.087 410.283 104.408 409.944 101.879C409.644 100.222 408.978 98.6529 407.994 97.2864C408.799 97.2366 409.602 97.4176 410.308 97.8081C411.013 98.1985 411.593 98.7823 411.979 99.4907C411.979 99.4907 414.805 102.698 409.69 114.497L407.457 114.087Z" fill="#C9C9C9"/>
<path d="M424.357 164.024H410.961V173.774H424.357V164.024Z" fill="white"/>
<path opacity="0.08" d="M419.057 162.696H417.065V166.016H419.057V162.696Z" fill="black"/>
</svg>
