<svg width="146" height="100" viewBox="0 0 146 100" fill="none" xmlns="http://www.w3.org/2000/svg">
<path d="M107.263 75.3464H2.04476C1.92424 75.3464 1.80865 75.2985 1.72343 75.2133C1.63821 75.128 1.59033 75.0124 1.59033 74.8919C1.59033 74.7714 1.63821 74.6558 1.72343 74.5706C1.80865 74.4854 1.92424 74.4375 2.04476 74.4375H107.263C107.384 74.4375 107.499 74.4854 107.584 74.5706C107.67 74.6558 107.717 74.7714 107.717 74.8919C107.717 75.0124 107.67 75.128 107.584 75.2133C107.499 75.2985 107.384 75.3464 107.263 75.3464Z" fill="#093F68"/>
<path d="M84.7006 16.2117H17.2771C14.5089 16.2117 12.2648 18.4558 12.2648 21.224V69.8751C12.2648 72.6433 14.5089 74.8874 17.2771 74.8874H84.7006C87.4688 74.8874 89.7129 72.6433 89.7129 69.8751V21.224C89.7129 18.4558 87.4688 16.2117 84.7006 16.2117Z" fill="white"/>
<path d="M84.7007 75.3465H17.2772C15.831 75.3465 14.4439 74.7719 13.4213 73.7493C12.3986 72.7266 11.8241 71.3396 11.8241 69.8933V21.2332C11.8241 19.7869 12.3986 18.3999 13.4213 17.3772C14.4439 16.3546 15.831 15.78 17.2772 15.78H84.7007C86.147 15.78 87.534 16.3546 88.5567 17.3772C89.5793 18.3999 90.1538 19.7869 90.1538 21.2332V69.8797C90.1556 70.5969 90.0159 71.3075 89.7427 71.9707C89.4694 72.6339 89.068 73.2366 88.5615 73.7444C88.0549 74.2523 87.4532 74.6552 86.7907 74.9301C86.1282 75.205 85.418 75.3465 84.7007 75.3465ZM17.2772 16.6889C16.072 16.6889 14.9162 17.1677 14.0639 18.0199C13.2117 18.8721 12.733 20.0279 12.733 21.2332V69.8797C12.733 71.0849 13.2117 72.2408 14.0639 73.093C14.9162 73.9452 16.072 74.424 17.2772 74.424H84.7007C85.9059 74.424 87.0618 73.9452 87.914 73.093C88.7662 72.2408 89.245 71.0849 89.245 69.8797V21.2332C89.245 20.0279 88.7662 18.8721 87.914 18.0199C87.0618 17.1677 85.9059 16.6889 84.7007 16.6889H17.2772Z" fill="#093F68"/>
<path d="M89.7129 21.2331V27.5042H12.2648V21.2331C12.2648 19.9074 12.7914 18.6359 13.7289 17.6985C14.6663 16.761 15.9377 16.2344 17.2635 16.2344H84.7006C85.3582 16.2326 86.0097 16.3606 86.6177 16.611C87.2258 16.8614 87.7784 17.2293 88.244 17.6937C88.7096 18.158 89.0791 18.7097 89.3311 19.317C89.5832 19.9244 89.7129 20.5755 89.7129 21.2331Z" fill="#E34149"/>
<path d="M89.713 27.9587H12.2649C12.1443 27.9587 12.0287 27.9108 11.9435 27.8256C11.8583 27.7404 11.8104 27.6248 11.8104 27.5043V21.2332C11.8104 19.7869 12.3849 18.3999 13.4076 17.3772C14.4303 16.3546 15.8173 15.78 17.2636 15.78H84.7007C86.1469 15.78 87.534 16.3546 88.5566 17.3772C89.5793 18.3999 90.1538 19.7869 90.1538 21.2332V27.5043C90.1539 27.6225 90.1079 27.736 90.0256 27.8209C89.9433 27.9057 89.8312 27.9552 89.713 27.9587ZM12.7193 27.0498H89.2586V21.2332C89.2586 20.0279 88.7798 18.8721 87.9276 18.0199C87.0754 17.1677 85.9195 16.6889 84.7143 16.6889H17.2772C16.072 16.6889 14.9161 17.1677 14.0639 18.0199C13.2117 18.8721 12.7329 20.0279 12.7329 21.2332L12.7193 27.0498Z" fill="#093F68"/>
<path d="M41.7799 34.1707H33.7366V42.214H41.7799V34.1707Z" fill="white"/>
<path d="M41.7846 42.6685H33.7367C33.6161 42.6685 33.5005 42.6207 33.4153 42.5354C33.3301 42.4502 33.2822 42.3346 33.2822 42.2141V34.1707C33.2822 34.0502 33.3301 33.9346 33.4153 33.8494C33.5005 33.7642 33.6161 33.7163 33.7367 33.7163H41.7846C41.9051 33.7163 42.0207 33.7642 42.1059 33.8494C42.1911 33.9346 42.239 34.0502 42.239 34.1707V42.2141C42.239 42.2738 42.2272 42.3329 42.2044 42.388C42.1816 42.4432 42.1481 42.4932 42.1059 42.5354C42.0637 42.5776 42.0136 42.6111 41.9585 42.6339C41.9033 42.6568 41.8442 42.6685 41.7846 42.6685ZM34.1911 41.7597H41.3301V34.6252H34.1911V41.7597Z" fill="#DFEAEF"/>
<path d="M55.0083 34.1707H46.965V42.214H55.0083V34.1707Z" fill="white"/>
<path d="M55.013 42.6685H46.965C46.8445 42.6685 46.7289 42.6207 46.6437 42.5354C46.5585 42.4502 46.5106 42.3346 46.5106 42.2141V34.1707C46.5106 34.0502 46.5585 33.9346 46.6437 33.8494C46.7289 33.7642 46.8445 33.7163 46.965 33.7163H55.013C55.1335 33.7163 55.2491 33.7642 55.3343 33.8494C55.4195 33.9346 55.4674 34.0502 55.4674 34.1707V42.2141C55.4674 42.3346 55.4195 42.4502 55.3343 42.5354C55.2491 42.6207 55.1335 42.6685 55.013 42.6685ZM47.4195 41.7597H54.5585V34.6252H47.4195V41.7597Z" fill="#DFEAEF"/>
<path d="M68.2369 34.1707H60.1935V42.214H68.2369V34.1707Z" fill="white"/>
<path d="M68.2367 42.6685H60.1933C60.0728 42.6685 59.9572 42.6207 59.872 42.5354C59.7868 42.4502 59.7389 42.3346 59.7389 42.2141V34.1707C59.7389 34.0502 59.7868 33.9346 59.872 33.8494C59.9572 33.7642 60.0728 33.7163 60.1933 33.7163H68.2367C68.3572 33.7163 68.4728 33.7642 68.558 33.8494C68.6433 33.9346 68.6911 34.0502 68.6911 34.1707V42.2141C68.6911 42.3346 68.6433 42.4502 68.558 42.5354C68.4728 42.6207 68.3572 42.6685 68.2367 42.6685ZM60.6477 41.7597H67.7823V34.6252H60.6477V41.7597Z" fill="#DFEAEF"/>
<path d="M81.4652 34.1707H73.4219V42.214H81.4652V34.1707Z" fill="#F56132"/>
<path d="M81.4651 42.6685H73.4217C73.3012 42.6685 73.1856 42.6207 73.1004 42.5354C73.0152 42.4502 72.9673 42.3346 72.9673 42.2141V34.1707C72.9673 34.0502 73.0152 33.9346 73.1004 33.8494C73.1856 33.7642 73.3012 33.7163 73.4217 33.7163H81.4651C81.5856 33.7163 81.7012 33.7642 81.7864 33.8494C81.8716 33.9346 81.9195 34.0502 81.9195 34.1707V42.2141C81.9195 42.3346 81.8716 42.4502 81.7864 42.5354C81.7012 42.6207 81.5856 42.6685 81.4651 42.6685ZM73.8761 41.7597H81.0107V34.6252H73.8761V41.7597Z" fill="#093F68"/>
<path d="M28.5562 46.3901H20.5128V54.4335H28.5562V46.3901Z" fill="white"/>
<path d="M28.5562 54.8883H20.5128C20.3923 54.8883 20.2767 54.8404 20.1914 54.7552C20.1062 54.6699 20.0583 54.5544 20.0583 54.4338V46.3905C20.0583 46.2699 20.1062 46.1544 20.1914 46.0691C20.2767 45.9839 20.3923 45.936 20.5128 45.936H28.5562C28.6767 45.936 28.7923 45.9839 28.8775 46.0691C28.9627 46.1544 29.0106 46.2699 29.0106 46.3905V54.4338C29.0106 54.5544 28.9627 54.6699 28.8775 54.7552C28.7923 54.8404 28.6767 54.8883 28.5562 54.8883ZM20.9672 53.9794H28.1017V46.8449H20.9672V53.9794Z" fill="#DFEAEF"/>
<path d="M41.7799 46.3901H33.7366V54.4335H41.7799V46.3901Z" fill="white"/>
<path d="M41.7846 54.8883H33.7367C33.6161 54.8883 33.5005 54.8404 33.4153 54.7552C33.3301 54.6699 33.2822 54.5544 33.2822 54.4338V46.3905C33.2822 46.2699 33.3301 46.1544 33.4153 46.0691C33.5005 45.9839 33.6161 45.936 33.7367 45.936H41.7846C41.9051 45.936 42.0207 45.9839 42.1059 46.0691C42.1911 46.1544 42.239 46.2699 42.239 46.3905V54.4338C42.239 54.4935 42.2272 54.5526 42.2044 54.6077C42.1816 54.6629 42.1481 54.713 42.1059 54.7552C42.0637 54.7974 42.0136 54.8308 41.9585 54.8537C41.9033 54.8765 41.8442 54.8883 41.7846 54.8883ZM34.1911 53.9794H41.3301V46.8449H34.1911V53.9794Z" fill="#DFEAEF"/>
<path d="M55.0083 46.3901H46.965V54.4335H55.0083V46.3901Z" fill="white"/>
<path d="M55.013 54.8883H46.965C46.8445 54.8883 46.7289 54.8404 46.6437 54.7552C46.5585 54.6699 46.5106 54.5544 46.5106 54.4338V46.3905C46.5106 46.2699 46.5585 46.1544 46.6437 46.0691C46.7289 45.9839 46.8445 45.936 46.965 45.936H55.013C55.1335 45.936 55.2491 45.9839 55.3343 46.0691C55.4195 46.1544 55.4674 46.2699 55.4674 46.3905V54.4338C55.4674 54.5544 55.4195 54.6699 55.3343 54.7552C55.2491 54.8404 55.1335 54.8883 55.013 54.8883ZM47.4195 53.9794H54.5585V46.8449H47.4195V53.9794Z" fill="#DFEAEF"/>
<path d="M68.2369 46.3901H60.1935V54.4335H68.2369V46.3901Z" fill="white"/>
<path d="M68.2367 54.8883H60.1933C60.0728 54.8883 59.9572 54.8404 59.872 54.7552C59.7868 54.6699 59.7389 54.5544 59.7389 54.4338V46.3905C59.7389 46.2699 59.7868 46.1544 59.872 46.0691C59.9572 45.9839 60.0728 45.936 60.1933 45.936H68.2367C68.3572 45.936 68.4728 45.9839 68.558 46.0691C68.6433 46.1544 68.6911 46.2699 68.6911 46.3905V54.4338C68.6911 54.5544 68.6433 54.6699 68.558 54.7552C68.4728 54.8404 68.3572 54.8883 68.2367 54.8883ZM60.6477 53.9794H67.7823V46.8449H60.6477V53.9794Z" fill="#DFEAEF"/>
<path d="M81.4652 46.3901H73.4219V54.4335H81.4652V46.3901Z" fill="#F56132"/>
<path d="M81.4651 54.8883H73.4217C73.3012 54.8883 73.1856 54.8404 73.1004 54.7552C73.0152 54.6699 72.9673 54.5544 72.9673 54.4338V46.3905C72.9673 46.2699 73.0152 46.1544 73.1004 46.0691C73.1856 45.9839 73.3012 45.936 73.4217 45.936H81.4651C81.5856 45.936 81.7012 45.9839 81.7864 46.0691C81.8716 46.1544 81.9195 46.2699 81.9195 46.3905V54.4338C81.9195 54.5544 81.8716 54.6699 81.7864 54.7552C81.7012 54.8404 81.5856 54.8883 81.4651 54.8883ZM73.8761 53.9794H81.0107V46.8449H73.8761V53.9794Z" fill="#093F68"/>
<path d="M28.5562 58.6099H20.5128V66.6532H28.5562V58.6099Z" fill="white"/>
<path d="M28.5562 67.1305H20.5128C20.3923 67.1305 20.2767 67.0826 20.1914 66.9974C20.1062 66.9121 20.0583 66.7965 20.0583 66.676V58.6327C20.0583 58.5121 20.1062 58.3965 20.1914 58.3113C20.2767 58.2261 20.3923 58.1782 20.5128 58.1782H28.5562C28.6767 58.1782 28.7923 58.2261 28.8775 58.3113C28.9627 58.3965 29.0106 58.5121 29.0106 58.6327V66.676C29.0106 66.7965 28.9627 66.9121 28.8775 66.9974C28.7923 67.0826 28.6767 67.1305 28.5562 67.1305ZM20.9672 66.2216H28.1017V59.0871H20.9672V66.2216Z" fill="#DFEAEF"/>
<path d="M41.7799 58.6099H33.7366V66.6532H41.7799V58.6099Z" fill="white"/>
<path d="M41.7846 67.1305H33.7367C33.6161 67.1305 33.5005 67.0826 33.4153 66.9974C33.3301 66.9121 33.2822 66.7965 33.2822 66.676V58.6327C33.2822 58.5121 33.3301 58.3965 33.4153 58.3113C33.5005 58.2261 33.6161 58.1782 33.7367 58.1782H41.7846C41.9051 58.1782 42.0207 58.2261 42.1059 58.3113C42.1911 58.3965 42.239 58.5121 42.239 58.6327V66.676C42.239 66.7357 42.2272 66.7948 42.2044 66.8499C42.1816 66.9051 42.1481 66.9552 42.1059 66.9974C42.0637 67.0396 42.0136 67.073 41.9585 67.0959C41.9033 67.1187 41.8442 67.1305 41.7846 67.1305ZM34.1911 66.2216H41.3301V59.0871H34.1911V66.2216Z" fill="#093F68"/>
<path d="M55.0083 58.6099H46.965V66.6532H55.0083V58.6099Z" fill="white"/>
<path d="M55.013 67.1305H46.965C46.8445 67.1305 46.7289 67.0826 46.6437 66.9974C46.5585 66.9121 46.5106 66.7965 46.5106 66.676V58.6327C46.5106 58.5121 46.5585 58.3965 46.6437 58.3113C46.7289 58.2261 46.8445 58.1782 46.965 58.1782H55.013C55.1335 58.1782 55.2491 58.2261 55.3343 58.3113C55.4195 58.3965 55.4674 58.5121 55.4674 58.6327V66.676C55.4674 66.7965 55.4195 66.9121 55.3343 66.9974C55.2491 67.0826 55.1335 67.1305 55.013 67.1305ZM47.4195 66.2216H54.5585V59.0871H47.4195V66.2216Z" fill="#DFEAEF"/>
<path d="M68.2369 58.6099H60.1935V66.6532H68.2369V58.6099Z" fill="white"/>
<path d="M68.2367 67.1305H60.1933C60.0728 67.1305 59.9572 67.0826 59.872 66.9974C59.7868 66.9121 59.7389 66.7965 59.7389 66.676V58.6327C59.7389 58.5121 59.7868 58.3965 59.872 58.3113C59.9572 58.2261 60.0728 58.1782 60.1933 58.1782H68.2367C68.3572 58.1782 68.4728 58.2261 68.558 58.3113C68.6433 58.3965 68.6911 58.5121 68.6911 58.6327V66.676C68.6911 66.7965 68.6433 66.9121 68.558 66.9974C68.4728 67.0826 68.3572 67.1305 68.2367 67.1305ZM60.6477 66.2216H67.7823V59.0871H60.6477V66.2216Z" fill="#DFEAEF"/>
<path d="M31.3509 23.4962C32.5279 23.4962 33.4821 22.542 33.4821 21.3649C33.4821 20.1878 32.5279 19.2336 31.3509 19.2336C30.1738 19.2336 29.2196 20.1878 29.2196 21.3649C29.2196 22.542 30.1738 23.4962 31.3509 23.4962Z" fill="#093F68"/>
<path d="M31.3509 23.9597C30.8393 23.9606 30.3389 23.8097 29.9131 23.5262C29.4873 23.2426 29.1552 22.8391 28.9588 22.3667C28.7623 21.8943 28.7105 21.3742 28.8098 20.8724C28.909 20.3705 29.1549 19.9093 29.5163 19.5473C29.8778 19.1852 30.3385 18.9385 30.8402 18.8383C31.3419 18.7382 31.862 18.7892 32.3348 18.9847C32.8075 19.1803 33.2116 19.5117 33.4959 19.937C33.7802 20.3623 33.932 20.8624 33.932 21.374C33.932 22.059 33.6602 22.716 33.1763 23.2008C32.6924 23.6856 32.0358 23.9585 31.3509 23.9597ZM31.3509 19.6972C31.019 19.6963 30.6944 19.7939 30.418 19.9776C30.1417 20.1613 29.926 20.4228 29.7984 20.7292C29.6708 21.0355 29.637 21.3728 29.7011 21.6984C29.7653 22.0239 29.9247 22.3231 30.159 22.5581C30.3933 22.7931 30.6921 22.9532 31.0175 23.0183C31.3429 23.0834 31.6803 23.0504 31.987 22.9237C32.2936 22.7969 32.5558 22.5819 32.7402 22.3061C32.9247 22.0302 33.0232 21.7059 33.0232 21.374C33.0244 21.1534 32.982 20.9348 32.8986 20.7306C32.8151 20.5264 32.6922 20.3407 32.5369 20.184C32.3815 20.0274 32.1968 19.903 31.9933 19.8179C31.7898 19.7328 31.5715 19.6887 31.3509 19.6881V19.6972Z" fill="#093F68"/>
<path d="M32.805 13.5124C32.805 12.7068 32.1519 12.0537 31.3463 12.0537C30.5407 12.0537 29.8876 12.7068 29.8876 13.5124V20.7469C29.8876 21.5525 30.5407 22.2056 31.3463 22.2056C32.1519 22.2056 32.805 21.5525 32.805 20.7469V13.5124Z" fill="white"/>
<path d="M31.3508 22.6601C30.8437 22.6589 30.3578 22.457 29.9993 22.0985C29.6408 21.7399 29.4388 21.254 29.4376 20.747V13.508C29.4616 13.0161 29.6738 12.5523 30.0304 12.2127C30.387 11.873 30.8606 11.6836 31.353 11.6836C31.8455 11.6836 32.3191 11.873 32.6756 12.2127C33.0322 12.5523 33.2445 13.0161 33.2684 13.508V20.747C33.2672 21.2548 33.0647 21.7414 32.7052 22.1001C32.3457 22.4587 31.8586 22.6601 31.3508 22.6601ZM31.3508 12.5082C31.0856 12.5094 30.8315 12.615 30.6435 12.8021C30.4556 12.9892 30.3489 13.2428 30.3465 13.508V20.747C30.3636 21.0023 30.4772 21.2415 30.664 21.4162C30.8509 21.5909 31.0972 21.6882 31.353 21.6882C31.6089 21.6882 31.8552 21.5909 32.042 21.4162C32.2289 21.2415 32.3424 21.0023 32.3596 20.747V13.508C32.3572 13.242 32.2499 12.9877 32.0609 12.8005C31.872 12.6132 31.6168 12.5082 31.3508 12.5082Z" fill="#093F68"/>
<path d="M70.627 23.4962C71.8041 23.4962 72.7583 22.542 72.7583 21.3649C72.7583 20.1878 71.8041 19.2336 70.627 19.2336C69.4499 19.2336 68.4957 20.1878 68.4957 21.3649C68.4957 22.542 69.4499 23.4962 70.627 23.4962Z" fill="#093F68"/>
<path d="M70.6272 23.9597C70.1158 23.9597 69.6159 23.8081 69.1907 23.524C68.7655 23.2398 68.434 22.836 68.2383 22.3635C68.0426 21.8911 67.9914 21.3712 68.0912 20.8696C68.191 20.368 68.4372 19.9073 68.7988 19.5457C69.1605 19.184 69.6212 18.9378 70.1228 18.838C70.6243 18.7382 71.1442 18.7894 71.6167 18.9852C72.0892 19.1809 72.493 19.5123 72.7771 19.9375C73.0612 20.3627 73.2129 20.8626 73.2129 21.374C73.2129 22.0598 72.9405 22.7175 72.4556 23.2024C71.9707 23.6873 71.313 23.9597 70.6272 23.9597ZM70.6272 19.6972C70.2956 19.6972 69.9714 19.7955 69.6956 19.9798C69.4198 20.164 69.2049 20.4259 69.078 20.7323C68.9511 21.0387 68.9179 21.3759 68.9826 21.7012C69.0473 22.0264 69.207 22.3252 69.4415 22.5597C69.676 22.7942 69.9748 22.9539 70.3001 23.0186C70.6253 23.0833 70.9625 23.0501 71.2689 22.9232C71.5753 22.7963 71.8372 22.5814 72.0214 22.3056C72.2057 22.0299 72.304 21.7057 72.304 21.374C72.3052 21.1531 72.2627 20.934 72.179 20.7295C72.0953 20.525 71.972 20.3391 71.8161 20.1824C71.6603 20.0258 71.475 19.9014 71.271 19.8166C71.067 19.7318 70.8482 19.6881 70.6272 19.6881V19.6972Z" fill="#093F68"/>
<path d="M72.0858 13.5124C72.0858 12.7068 71.4327 12.0537 70.6271 12.0537C69.8214 12.0537 69.1683 12.7068 69.1683 13.5124V20.7469C69.1683 21.5525 69.8214 22.2056 70.6271 22.2056C71.4327 22.2056 72.0858 21.5525 72.0858 20.7469V13.5124Z" fill="white"/>
<path d="M70.6271 22.66C70.1201 22.6588 69.6342 22.4569 69.2757 22.0984C68.9171 21.7399 68.7152 21.2539 68.714 20.7469V13.5079C68.714 13.0005 68.9156 12.5139 69.2743 12.1551C69.6331 11.7963 70.1197 11.5947 70.6271 11.5947C71.1345 11.5947 71.6211 11.7963 71.9799 12.1551C72.3387 12.5139 72.5403 13.0005 72.5403 13.5079V20.7469C72.5391 21.2539 72.3371 21.7399 71.9786 22.0984C71.6201 22.4569 71.1342 22.6588 70.6271 22.66ZM70.6271 12.5081C70.3616 12.5081 70.1068 12.6133 69.9186 12.8007C69.7304 12.988 69.624 13.2423 69.6228 13.5079V20.7469C69.6228 21.0133 69.7287 21.2687 69.917 21.457C70.1053 21.6454 70.3608 21.7512 70.6271 21.7512C70.8935 21.7512 71.1489 21.6454 71.3373 21.457C71.5256 21.2687 71.6314 21.0133 71.6314 20.7469V13.5079C71.6302 13.2423 71.5239 12.988 71.3357 12.8007C71.1475 12.6133 70.8927 12.5081 70.6271 12.5081Z" fill="#093F68"/>
<path d="M37.0631 65.1991C37.0063 65.1982 36.9499 65.1906 36.8949 65.1764C36.7932 65.1499 36.6991 65.0999 36.6202 65.0304C36.5413 64.961 36.4797 64.874 36.4405 64.7765L35.0772 61.5182C35.0405 61.4352 35.0208 61.3456 35.0192 61.2548C35.0175 61.164 35.0341 61.0738 35.0678 60.9895C35.1016 60.9052 35.1518 60.8285 35.2156 60.7638C35.2794 60.6992 35.3555 60.648 35.4393 60.6132C35.5232 60.5783 35.6132 60.5606 35.704 60.5611C35.7948 60.5615 35.8846 60.5801 35.9681 60.6157C36.0517 60.6513 36.1272 60.7033 36.1904 60.7686C36.2536 60.8338 36.3031 60.911 36.336 60.9956L37.3312 63.4041L43.1933 58.5963C43.2621 58.5365 43.3423 58.4911 43.429 58.4628C43.5156 58.4345 43.6071 58.4239 43.698 58.4316C43.7888 58.4394 43.8772 58.4652 43.9579 58.5077C44.0386 58.5502 44.1099 58.6084 44.1677 58.6789C44.2255 58.7495 44.2685 58.8309 44.2942 58.9184C44.32 59.0059 44.3279 59.0976 44.3176 59.1882C44.3072 59.2788 44.2788 59.3664 44.234 59.4458C44.1892 59.5252 44.1289 59.5948 44.0567 59.6505L37.4857 65.0446C37.3662 65.1421 37.2173 65.1966 37.0631 65.1991Z" fill="#70CC40"/>
<path d="M2.69131 32.1528L4.20702 30.8142C4.58642 30.4791 5.0834 30.3085 5.58862 30.3398C6.09384 30.3712 6.56592 30.6019 6.901 30.9813L27.1519 53.9111L22.7751 57.7766L2.52718 34.8502C2.36056 34.6625 2.23262 34.4437 2.15068 34.2064C2.06874 33.9691 2.03441 33.718 2.04965 33.4675C2.0649 33.2169 2.12942 32.9718 2.23952 32.7462C2.34963 32.5206 2.50315 32.319 2.69131 32.1528Z" fill="#E34149"/>
<path d="M22.7758 58.2419H22.744C22.6253 58.2343 22.5144 58.1804 22.435 58.092L2.17201 35.157C1.96574 34.9244 1.80738 34.6535 1.70599 34.3596C1.60461 34.0658 1.5622 33.7548 1.5812 33.4445C1.60019 33.1343 1.68022 32.8308 1.8167 32.5515C1.95317 32.2722 2.1434 32.0226 2.3765 31.8169L3.89429 30.4809C4.36373 30.0657 4.97887 29.854 5.60439 29.8924C6.22992 29.9307 6.81459 30.216 7.22979 30.6854L27.4791 53.6204C27.5585 53.7108 27.5989 53.8291 27.5912 53.9492C27.5835 54.0694 27.5285 54.1815 27.4382 54.2611L23.0757 58.1283C22.9929 58.2014 22.8862 58.2418 22.7758 58.2419ZM5.47116 30.799C5.11636 30.7982 4.77359 30.9276 4.50777 31.1626L2.99453 32.4986C2.85066 32.6247 2.73318 32.778 2.64885 32.9497C2.56452 33.1214 2.51502 33.3081 2.50319 33.4991C2.49136 33.69 2.51744 33.8814 2.57993 34.0622C2.64242 34.243 2.74008 34.4097 2.86729 34.5526L22.8121 57.1331L26.5112 53.8703L6.56179 31.2807C6.42492 31.1272 6.25677 31.0048 6.06865 30.9217C5.88053 30.8386 5.6768 30.7968 5.47116 30.799Z" fill="#E34149"/>
<path d="M27.1519 53.9155L29.0469 58.5416L30.5192 62.1407L27.1292 60.2366L22.7712 57.7873L27.1519 53.9155Z" fill="white"/>
<path d="M30.5192 62.5861C30.4412 62.5859 30.3645 62.5655 30.2966 62.527L22.5713 58.1736C22.5082 58.1377 22.4547 58.0872 22.4152 58.0263C22.3756 57.9654 22.3513 57.8959 22.3441 57.8237C22.3367 57.752 22.3464 57.6796 22.3725 57.6125C22.3986 57.5453 22.4402 57.4853 22.494 57.4374L26.8747 53.5657C26.9293 53.518 26.9945 53.484 27.0648 53.4667C27.1352 53.4493 27.2087 53.4489 27.2792 53.4657C27.3497 53.4819 27.4154 53.5146 27.4707 53.5613C27.526 53.6079 27.5694 53.6671 27.5973 53.7339L30.96 61.959C30.9961 62.0463 31.0042 62.1426 30.983 62.2346C30.9618 62.3267 30.9125 62.4098 30.8419 62.4725C30.7532 62.5509 30.6375 62.5917 30.5192 62.5861ZM23.5529 57.6965L29.6013 61.0956L26.9747 54.67L23.5529 57.6965Z" fill="#093F68"/>
<path d="M28.7378 57.7874L30.5191 62.1408L26.3202 59.7823L28.7378 57.7874Z" fill="#70CC40"/>
<path d="M30.5193 62.5861C30.4412 62.5859 30.3645 62.5655 30.2966 62.5271L26.0977 60.1686C26.0332 60.1327 25.9784 60.0818 25.938 60.02C25.8976 59.9582 25.8729 59.8876 25.8659 59.8141C25.8594 59.7406 25.8709 59.6666 25.8994 59.5985C25.9279 59.5304 25.9725 59.4703 26.0295 59.4233L28.4471 57.4284C28.5019 57.3832 28.5666 57.3515 28.6359 57.3359C28.7052 57.3202 28.7773 57.321 28.8462 57.3383C28.9151 57.3555 28.9791 57.3887 29.0329 57.4351C29.0867 57.4815 29.1288 57.5399 29.156 57.6056L30.9373 61.959C30.9734 62.0463 30.9815 62.1426 30.9603 62.2347C30.9391 62.3267 30.8898 62.4098 30.8192 62.4725C30.7363 62.5456 30.6297 62.586 30.5193 62.5861ZM27.1201 59.7005L29.6013 61.0956L28.5289 58.5326L27.1201 59.7005Z" fill="#093F68"/>
<path d="M96.6931 66.7577C96.6931 66.7577 92.5805 58.3735 93.1531 52.7068C93.1531 52.7068 96.4613 54.2019 98.0564 58.6144C100.492 65.3672 99.9286 66.7622 99.9286 66.7622L96.6931 66.7577Z" fill="#70CC40"/>
<path d="M99.9286 67.2212H96.6931C96.6087 67.2205 96.5262 67.1964 96.4547 67.1514C96.3833 67.1065 96.3258 67.0425 96.2887 66.9667C96.116 66.6214 92.1216 58.4008 92.6987 52.6704C92.7059 52.5982 92.7302 52.5287 92.7698 52.4679C92.8093 52.407 92.8628 52.3565 92.9259 52.3205C92.9899 52.2878 93.0608 52.2708 93.1327 52.2708C93.2046 52.2708 93.2754 52.2878 93.3394 52.3205C93.4803 52.3841 96.8431 53.9474 98.4836 58.4917C100.856 65.0718 100.456 66.7032 100.351 66.9622C100.313 67.0416 100.253 67.1084 100.178 67.1544C100.103 67.2004 100.017 67.2236 99.9286 67.2212ZM96.984 66.3124H99.5333C99.5333 65.6398 99.3879 63.6494 97.6292 58.7734C96.8774 56.6076 95.442 54.7448 93.5394 53.4657C93.4031 58.3462 96.3432 64.94 96.984 66.3078V66.3124Z" fill="#093F68"/>
<path d="M98.6516 66.3532C98.6516 66.3532 95.5615 54.3972 100.015 46.3901C100.015 46.3901 102.573 49.3167 103.196 56.3876C103.518 59.7567 102.877 63.1481 101.346 66.1668L98.6516 66.3532Z" fill="#70CC40"/>
<path d="M98.6516 66.8078C98.5484 66.8111 98.4472 66.7791 98.3646 66.7171C98.282 66.6552 98.2229 66.5669 98.1972 66.467C97.6549 64.1477 97.3233 61.7841 97.2065 59.4052C97.0066 55.7016 97.261 50.4029 99.6059 46.1722C99.6413 46.1083 99.6916 46.0539 99.7525 46.0135C99.8134 45.9732 99.8831 45.9481 99.9558 45.9405C100.029 45.9328 100.102 45.9429 100.17 45.9698C100.238 45.9967 100.299 46.0397 100.347 46.095C100.451 46.2177 103.005 49.2123 103.623 56.3605C103.962 59.8248 103.3 63.3136 101.714 66.4124C101.677 66.4758 101.625 66.5292 101.562 66.568C101.5 66.6068 101.429 66.6298 101.355 66.6351L98.6789 66.8123L98.6516 66.8078ZM100.06 47.2674C96.6476 54.2201 98.5562 63.8949 99.0015 65.8989L101.042 65.7626C102.425 62.8683 103.004 59.6554 102.719 56.4605C102.278 51.3118 100.783 48.4035 100.06 47.2583V47.2674Z" fill="#093F68"/>
<path d="M99.983 65.9807C99.983 65.9807 100.942 57.9964 107.395 52.8022C107.395 52.8022 109.299 58.7507 103.964 66.7032L99.983 65.9807Z" fill="#70CC40"/>
<path d="M103.964 67.1303H103.887L99.9059 66.426C99.7918 66.4059 99.6896 66.3429 99.6204 66.25C99.5511 66.1571 99.52 66.0412 99.5333 65.9261C99.5742 65.5944 100.588 57.6964 107.109 52.4341C107.166 52.3874 107.235 52.3555 107.307 52.3412C107.38 52.327 107.456 52.3308 107.527 52.3523C107.597 52.3737 107.661 52.4118 107.713 52.4632C107.765 52.5146 107.804 52.578 107.827 52.6477C107.908 52.8977 109.735 58.8961 104.341 66.9395C104.298 66.9995 104.242 67.0482 104.176 67.0814C104.11 67.1147 104.038 67.1315 103.964 67.1303ZM100.506 65.6035L103.75 66.176C107.681 60.173 107.386 55.347 107.109 53.6111C102.187 57.9509 100.783 63.9721 100.506 65.6126V65.6035Z" fill="#093F68"/>
<path d="M104.405 74.9466H96.2841L95.0798 65.0627H105.604L104.405 74.9466Z" fill="white"/>
<path d="M104.418 75.4011H96.2839C96.1723 75.4019 96.0643 75.3616 95.9804 75.2878C95.8966 75.214 95.8429 75.112 95.8295 75.0012L94.6253 65.1174C94.6181 65.0536 94.6245 64.9891 94.6441 64.928C94.6637 64.8669 94.696 64.8106 94.7389 64.7629C94.7815 64.7144 94.8339 64.6756 94.8926 64.6489C94.9514 64.6223 95.0152 64.6085 95.0797 64.6084H105.6C105.664 64.6085 105.728 64.6223 105.787 64.6489C105.846 64.6756 105.898 64.7144 105.941 64.7629C105.983 64.8106 106.016 64.8669 106.035 64.928C106.055 64.9891 106.061 65.0536 106.054 65.1174L104.873 75.0012C104.859 75.112 104.805 75.214 104.722 75.2878C104.638 75.3616 104.53 75.4019 104.418 75.4011ZM96.6929 74.4922H104.005L105.1 65.5173H95.5932L96.6929 74.4922Z" fill="#093F68"/>
</svg>
