<svg width="312" height="187" viewBox="0 0 312 187" fill="none" xmlns="http://www.w3.org/2000/svg">
<path d="M309.298 186.017H2.28786C1.9362 186.017 1.59894 185.877 1.35027 185.628C1.10161 185.38 0.961914 185.042 0.961914 184.691C0.961914 184.339 1.10161 184.002 1.35027 183.753C1.59894 183.504 1.9362 183.365 2.28786 183.365H309.298C309.649 183.365 309.986 183.504 310.235 183.753C310.484 184.002 310.623 184.339 310.623 184.691C310.623 185.042 310.484 185.38 310.235 185.628C309.986 185.877 309.649 186.017 309.298 186.017Z" fill="#093F68"/>
<path d="M243.464 13.4717H46.7329C38.6556 13.4717 32.1077 20.0196 32.1077 28.0969V170.053C32.1077 178.13 38.6556 184.678 46.7329 184.678H243.464C251.541 184.678 258.089 178.13 258.089 170.053V28.0969C258.089 20.0196 251.541 13.4717 243.464 13.4717Z" fill="white"/>
<path d="M243.465 186.017H46.7339C42.5139 186.017 38.4668 184.341 35.4828 181.357C32.4989 178.373 30.8225 174.326 30.8225 170.106V28.1235C30.8225 23.9036 32.4989 19.8564 35.4828 16.8725C38.4668 13.8885 42.5139 12.2122 46.7339 12.2122H243.465C247.684 12.2122 251.732 13.8885 254.716 16.8725C257.7 19.8564 259.376 23.9036 259.376 28.1235V170.066C259.381 172.159 258.973 174.232 258.176 176.167C257.379 178.102 256.208 179.861 254.73 181.343C253.252 182.825 251.496 184 249.563 184.802C247.63 185.604 245.557 186.017 243.465 186.017ZM46.7339 14.8641C43.2172 14.8641 39.8446 16.261 37.358 18.7477C34.8714 21.2343 33.4744 24.6069 33.4744 28.1235V170.066C33.4744 173.583 34.8714 176.955 37.358 179.442C39.8446 181.929 43.2172 183.326 46.7339 183.326H243.465C246.981 183.326 250.354 181.929 252.84 179.442C255.327 176.955 256.724 173.583 256.724 170.066V28.1235C256.724 24.6069 255.327 21.2343 252.84 18.7477C250.354 16.261 246.981 14.8641 243.465 14.8641H46.7339Z" fill="#093F68"/>
<path d="M258.089 28.1231V46.4211H32.1077V28.1231C32.1077 24.2548 33.6443 20.5449 36.3796 17.8096C39.1149 15.0743 42.8248 13.5377 46.6931 13.5377H243.464C245.382 13.5324 247.283 13.9058 249.057 14.6365C250.832 15.3671 252.444 16.4406 253.803 17.7955C255.161 19.1504 256.239 20.7601 256.975 22.5323C257.71 24.3044 258.089 26.2043 258.089 28.1231Z" fill="#E34149"/>
<path d="M258.09 47.7475H32.1087C31.757 47.7475 31.4197 47.6078 31.1711 47.3592C30.9224 47.1105 30.7827 46.7732 30.7827 46.4216V28.1235C30.7827 23.9036 32.4591 19.8564 35.443 16.8725C38.427 13.8885 42.4741 12.2122 46.6941 12.2122H243.464C247.684 12.2122 251.732 13.8885 254.716 16.8725C257.699 19.8564 259.376 23.9036 259.376 28.1235V46.4216C259.376 46.7665 259.242 47.0978 259.002 47.3454C258.762 47.5929 258.434 47.7372 258.09 47.7475ZM33.4346 45.0956H256.764V28.1235C256.764 24.6069 255.367 21.2343 252.88 18.7477C250.393 16.261 247.021 14.8641 243.504 14.8641H46.7338C43.2172 14.8641 39.8446 16.261 37.358 18.7477C34.8714 21.2343 33.4744 24.6069 33.4744 28.1235L33.4346 45.0956Z" fill="#093F68"/>
<path d="M118.229 65.8728H94.7593V89.342H118.229V65.8728Z" fill="white"/>
<path d="M118.242 90.6683H94.7595C94.4079 90.6683 94.0706 90.5286 93.822 90.2799C93.5733 90.0312 93.4336 89.694 93.4336 89.3423V65.8731C93.4336 65.5214 93.5733 65.1841 93.822 64.9355C94.0706 64.6868 94.4079 64.5471 94.7595 64.5471H118.242C118.594 64.5471 118.931 64.6868 119.18 64.9355C119.428 65.1841 119.568 65.5214 119.568 65.8731V89.3423C119.568 89.5164 119.534 89.6889 119.467 89.8497C119.4 90.0106 119.303 90.1568 119.18 90.2799C119.057 90.403 118.91 90.5007 118.749 90.5673C118.589 90.634 118.416 90.6683 118.242 90.6683ZM96.0855 88.0164H116.916V67.199H96.0855V88.0164Z" fill="#DFEAEF"/>
<path d="M156.826 65.8728H133.357V89.342H156.826V65.8728Z" fill="white"/>
<path d="M156.841 90.6683H133.358C133.007 90.6683 132.669 90.5286 132.421 90.2799C132.172 90.0312 132.032 89.694 132.032 89.3423V65.8731C132.032 65.5214 132.172 65.1841 132.421 64.9355C132.669 64.6868 133.007 64.5471 133.358 64.5471H156.841C157.192 64.5471 157.53 64.6868 157.778 64.9355C158.027 65.1841 158.167 65.5214 158.167 65.8731V89.3423C158.167 89.694 158.027 90.0312 157.778 90.2799C157.53 90.5286 157.192 90.6683 156.841 90.6683ZM134.684 88.0164H155.515V67.199H134.684V88.0164Z" fill="#DFEAEF"/>
<path d="M195.425 65.8728H171.956V89.342H195.425V65.8728Z" fill="white"/>
<path d="M195.426 90.6683H171.956C171.605 90.6683 171.267 90.5286 171.019 90.2799C170.77 90.0312 170.63 89.694 170.63 89.3423V65.8731C170.63 65.5214 170.77 65.1841 171.019 64.9355C171.267 64.6868 171.605 64.5471 171.956 64.5471H195.426C195.777 64.5471 196.115 64.6868 196.363 64.9355C196.612 65.1841 196.752 65.5214 196.752 65.8731V89.3423C196.752 89.694 196.612 90.0312 196.363 90.2799C196.115 90.5286 195.777 90.6683 195.426 90.6683ZM173.282 88.0164H194.1V67.199H173.282V88.0164Z" fill="#DFEAEF"/>
<path d="M234.024 65.8728H210.555V89.342H234.024V65.8728Z" fill="#F56132"/>
<path d="M234.023 90.6683H210.554C210.202 90.6683 209.865 90.5286 209.616 90.2799C209.368 90.0312 209.228 89.694 209.228 89.3423V65.8731C209.228 65.5214 209.368 65.1841 209.616 64.9355C209.865 64.6868 210.202 64.5471 210.554 64.5471H234.023C234.375 64.5471 234.712 64.6868 234.961 64.9355C235.209 65.1841 235.349 65.5214 235.349 65.8731V89.3423C235.349 89.694 235.209 90.0312 234.961 90.2799C234.712 90.5286 234.375 90.6683 234.023 90.6683ZM211.88 88.0164H232.697V67.199H211.88V88.0164Z" fill="#093F68"/>
<path d="M79.6433 101.527H56.1741V124.997H79.6433V101.527Z" fill="white"/>
<path d="M79.6438 126.323H56.1746C55.8229 126.323 55.4857 126.184 55.237 125.935C54.9883 125.686 54.8486 125.349 54.8486 124.997V101.528C54.8486 101.176 54.9883 100.839 55.237 100.591C55.4857 100.342 55.8229 100.202 56.1746 100.202H79.6438C79.9955 100.202 80.3328 100.342 80.5814 100.591C80.8301 100.839 80.9698 101.176 80.9698 101.528V124.997C80.9698 125.349 80.8301 125.686 80.5814 125.935C80.3328 126.184 79.9955 126.323 79.6438 126.323ZM57.5005 123.671H78.3179V102.854H57.5005V123.671Z" fill="#DFEAEF"/>
<path d="M118.229 101.527H94.7593V124.997H118.229V101.527Z" fill="white"/>
<path d="M118.242 126.323H94.7595C94.4079 126.323 94.0706 126.184 93.822 125.935C93.5733 125.686 93.4336 125.349 93.4336 124.997V101.528C93.4336 101.176 93.5733 100.839 93.822 100.591C94.0706 100.342 94.4079 100.202 94.7595 100.202H118.242C118.594 100.202 118.931 100.342 119.18 100.591C119.428 100.839 119.568 101.176 119.568 101.528V124.997C119.568 125.171 119.534 125.344 119.467 125.505C119.4 125.666 119.303 125.812 119.18 125.935C119.057 126.058 118.91 126.156 118.749 126.222C118.589 126.289 118.416 126.323 118.242 126.323ZM96.0855 123.671H116.916V102.854H96.0855V123.671Z" fill="#DFEAEF"/>
<path d="M156.826 101.527H133.357V124.997H156.826V101.527Z" fill="white"/>
<path d="M156.841 126.323H133.358C133.007 126.323 132.669 126.184 132.421 125.935C132.172 125.686 132.032 125.349 132.032 124.997V101.528C132.032 101.176 132.172 100.839 132.421 100.591C132.669 100.342 133.007 100.202 133.358 100.202H156.841C157.192 100.202 157.53 100.342 157.778 100.591C158.027 100.839 158.167 101.176 158.167 101.528V124.997C158.167 125.349 158.027 125.686 157.778 125.935C157.53 126.184 157.192 126.323 156.841 126.323ZM134.684 123.671H155.515V102.854H134.684V123.671Z" fill="#DFEAEF"/>
<path d="M195.425 101.527H171.956V124.997H195.425V101.527Z" fill="white"/>
<path d="M195.426 126.323H171.956C171.605 126.323 171.267 126.184 171.019 125.935C170.77 125.686 170.63 125.349 170.63 124.997V101.528C170.63 101.176 170.77 100.839 171.019 100.591C171.267 100.342 171.605 100.202 171.956 100.202H195.426C195.777 100.202 196.115 100.342 196.363 100.591C196.612 100.839 196.752 101.176 196.752 101.528V124.997C196.752 125.349 196.612 125.686 196.363 125.935C196.115 126.184 195.777 126.323 195.426 126.323ZM173.282 123.671H194.1V102.854H173.282V123.671Z" fill="#DFEAEF"/>
<path d="M234.024 101.527H210.555V124.997H234.024V101.527Z" fill="#F56132"/>
<path d="M234.023 126.323H210.554C210.202 126.323 209.865 126.184 209.616 125.935C209.368 125.686 209.228 125.349 209.228 124.997V101.528C209.228 101.176 209.368 100.839 209.616 100.591C209.865 100.342 210.202 100.202 210.554 100.202H234.023C234.375 100.202 234.712 100.342 234.961 100.591C235.209 100.839 235.349 101.176 235.349 101.528V124.997C235.349 125.349 235.209 125.686 234.961 125.935C234.712 126.184 234.375 126.323 234.023 126.323ZM211.88 123.671H232.697V102.854H211.88V123.671Z" fill="#093F68"/>
<path d="M79.6433 137.182H56.1741V160.652H79.6433V137.182Z" fill="white"/>
<path d="M79.6438 162.044H56.1746C55.8229 162.044 55.4857 161.905 55.237 161.656C54.9883 161.407 54.8486 161.07 54.8486 160.718V137.249C54.8486 136.897 54.9883 136.56 55.237 136.311C55.4857 136.063 55.8229 135.923 56.1746 135.923H79.6438C79.9955 135.923 80.3328 136.063 80.5814 136.311C80.8301 136.56 80.9698 136.897 80.9698 137.249V160.718C80.9698 161.07 80.8301 161.407 80.5814 161.656C80.3328 161.905 79.9955 162.044 79.6438 162.044ZM57.5005 159.392H78.3179V138.575H57.5005V159.392Z" fill="#DFEAEF"/>
<path d="M118.229 137.182H94.7593V160.652H118.229V137.182Z" fill="white"/>
<path d="M118.242 162.044H94.7595C94.4079 162.044 94.0706 161.905 93.822 161.656C93.5733 161.407 93.4336 161.07 93.4336 160.718V137.249C93.4336 136.897 93.5733 136.56 93.822 136.311C94.0706 136.063 94.4079 135.923 94.7595 135.923H118.242C118.594 135.923 118.931 136.063 119.18 136.311C119.428 136.56 119.568 136.897 119.568 137.249V160.718C119.568 160.892 119.534 161.065 119.467 161.226C119.4 161.387 119.303 161.533 119.18 161.656C119.057 161.779 118.91 161.877 118.749 161.943C118.589 162.01 118.416 162.044 118.242 162.044ZM96.0855 159.392H116.916V138.575H96.0855V159.392Z" fill="#093F68"/>
<path d="M156.826 137.182H133.357V160.652H156.826V137.182Z" fill="white"/>
<path d="M156.841 162.044H133.358C133.007 162.044 132.669 161.905 132.421 161.656C132.172 161.407 132.032 161.07 132.032 160.718V137.249C132.032 136.897 132.172 136.56 132.421 136.311C132.669 136.063 133.007 135.923 133.358 135.923H156.841C157.192 135.923 157.53 136.063 157.778 136.311C158.027 136.56 158.167 136.897 158.167 137.249V160.718C158.167 161.07 158.027 161.407 157.778 161.656C157.53 161.905 157.192 162.044 156.841 162.044ZM134.684 159.392H155.515V138.575H134.684V159.392Z" fill="#DFEAEF"/>
<path d="M195.425 137.182H171.956V160.652H195.425V137.182Z" fill="white"/>
<path d="M195.426 162.044H171.956C171.605 162.044 171.267 161.905 171.019 161.656C170.77 161.407 170.63 161.07 170.63 160.718V137.249C170.63 136.897 170.77 136.56 171.019 136.311C171.267 136.063 171.605 135.923 171.956 135.923H195.426C195.777 135.923 196.115 136.063 196.363 136.311C196.612 136.56 196.752 136.897 196.752 137.249V160.718C196.752 161.07 196.612 161.407 196.363 161.656C196.115 161.905 195.777 162.044 195.426 162.044ZM173.282 159.392H194.1V138.575H173.282V159.392Z" fill="#DFEAEF"/>
<path d="M87.798 34.7264C91.2325 34.7264 94.0167 31.9422 94.0167 28.5078C94.0167 25.0733 91.2325 22.2891 87.798 22.2891C84.3636 22.2891 81.5793 25.0733 81.5793 28.5078C81.5793 31.9422 84.3636 34.7264 87.798 34.7264Z" fill="#093F68"/>
<path d="M87.7979 36.079C86.3051 36.0816 84.8452 35.6414 83.6027 34.814C82.3602 33.9865 81.3912 32.8092 80.8181 31.4308C80.245 30.0524 80.0937 28.535 80.3834 27.0706C80.673 25.6062 81.3905 24.2607 82.4451 23.2042C83.4997 22.1477 84.844 21.4279 86.3079 21.1357C87.7717 20.8435 89.2894 20.9921 90.6688 21.5628C92.0481 22.1334 93.2272 23.1004 94.0568 24.3414C94.8864 25.5824 95.3293 27.0416 95.3293 28.5344C95.3293 30.533 94.5362 32.45 93.1242 33.8646C91.7122 35.2791 89.7966 36.0755 87.7979 36.079ZM87.7979 23.6416C86.8296 23.639 85.8824 23.9237 85.076 24.4598C84.2697 24.9958 83.6405 25.759 83.2681 26.6528C82.8958 27.5466 82.797 28.5308 82.9843 29.4807C83.1716 30.4307 83.6365 31.3038 84.3202 31.9893C85.004 32.6749 85.8757 33.1423 86.8252 33.3321C87.7747 33.522 88.7591 33.4259 89.6539 33.0559C90.5487 32.686 91.3137 32.0589 91.8519 31.254C92.3901 30.4491 92.6774 29.5026 92.6774 28.5344C92.6809 27.8907 92.5573 27.2527 92.3138 26.6569C92.0703 26.0611 91.7117 25.5192 91.2584 25.0622C90.8051 24.6052 90.2661 24.2422 89.6723 23.9939C89.0785 23.7456 88.4415 23.6168 87.7979 23.6151V23.6416Z" fill="#093F68"/>
<path d="M92.0414 5.59564C92.0414 3.24496 90.1358 1.33936 87.7851 1.33936C85.4344 1.33936 83.5288 3.24496 83.5288 5.59564V26.7047C83.5288 29.0554 85.4344 30.961 87.7851 30.961C90.1358 30.961 92.0414 29.0554 92.0414 26.7047V5.59564Z" fill="white"/>
<path d="M87.7981 32.287C86.3186 32.2835 84.9008 31.6943 83.8547 30.6482C82.8086 29.602 82.2193 28.1842 82.2158 26.7048V5.58247C82.2857 4.14729 82.9051 2.79402 83.9455 1.80302C84.986 0.812031 86.3678 0.259277 87.8047 0.259277C89.2416 0.259277 90.6234 0.812031 91.6638 1.80302C92.7043 2.79402 93.3236 4.14729 93.3935 5.58247V26.7048C93.39 28.1865 92.799 29.6063 91.75 30.6528C90.701 31.6993 89.2798 32.287 87.7981 32.287ZM87.7981 2.66539C87.0242 2.66884 86.2829 2.97687 85.7345 3.5228C85.1861 4.06874 84.8747 4.80867 84.8677 5.58247V26.7048C84.9178 27.4496 85.249 28.1476 85.7943 28.6575C86.3396 29.1673 87.0582 29.4509 87.8047 29.4509C88.5512 29.4509 89.2698 29.1673 89.8151 28.6575C90.3604 28.1476 90.6916 27.4496 90.7416 26.7048V5.58247C90.7347 4.80638 90.4215 4.06446 89.8702 3.51815C89.3189 2.97184 88.5742 2.66536 87.7981 2.66539Z" fill="#093F68"/>
<path d="M202.4 34.7264C205.834 34.7264 208.619 31.9422 208.619 28.5078C208.619 25.0733 205.834 22.2891 202.4 22.2891C198.965 22.2891 196.181 25.0733 196.181 28.5078C196.181 31.9422 198.965 34.7264 202.4 34.7264Z" fill="#093F68"/>
<path d="M202.4 36.079C200.908 36.079 199.449 35.6365 198.209 34.8075C196.968 33.9785 196.001 32.8002 195.43 31.4216C194.859 30.043 194.709 28.526 195 27.0625C195.292 25.599 196.01 24.2547 197.065 23.1995C198.12 22.1444 199.465 21.4258 200.928 21.1347C202.392 20.8436 203.909 20.993 205.287 21.564C206.666 22.1351 207.844 23.1021 208.673 24.3428C209.502 25.5835 209.945 27.0422 209.945 28.5344C209.945 30.5353 209.15 32.4544 207.735 33.8692C206.32 35.2841 204.401 36.079 202.4 36.079ZM202.4 23.6416C201.432 23.6416 200.486 23.9286 199.682 24.4662C198.877 25.0038 198.25 25.768 197.88 26.662C197.509 27.556 197.413 28.5398 197.601 29.4889C197.79 30.438 198.256 31.3098 198.94 31.9941C199.625 32.6783 200.496 33.1443 201.446 33.3331C202.395 33.5219 203.378 33.425 204.272 33.0547C205.167 32.6844 205.931 32.0573 206.468 31.2526C207.006 30.448 207.293 29.5021 207.293 28.5344C207.296 27.8896 207.172 27.2505 206.928 26.6539C206.684 26.0572 206.324 25.5147 205.869 25.0575C205.415 24.6004 204.874 24.2376 204.279 23.9901C203.683 23.7425 203.045 23.6151 202.4 23.6151V23.6416Z" fill="#093F68"/>
<path d="M206.656 5.59564C206.656 3.24496 204.75 1.33936 202.399 1.33936C200.049 1.33936 198.143 3.24496 198.143 5.59564V26.7047C198.143 29.0554 200.049 30.961 202.399 30.961C204.75 30.961 206.656 29.0554 206.656 26.7047V5.59564Z" fill="white"/>
<path d="M202.4 32.2868C200.92 32.2833 199.502 31.694 198.456 30.6479C197.41 29.6018 196.821 28.184 196.817 26.7046V5.58223C196.817 4.10173 197.406 2.68187 198.452 1.635C199.499 0.588123 200.919 0 202.4 0C203.88 0 205.3 0.588123 206.347 1.635C207.394 2.68187 207.982 4.10173 207.982 5.58223V26.7046C207.978 28.184 207.389 29.6018 206.343 30.6479C205.297 31.694 203.879 32.2833 202.4 32.2868ZM202.4 2.66516C201.625 2.66515 200.881 2.97206 200.332 3.51874C199.783 4.06542 199.473 4.80736 199.469 5.58223V26.7046C199.469 27.4817 199.778 28.2271 200.328 28.7766C200.877 29.3262 201.622 29.6349 202.4 29.6349C203.177 29.6349 203.922 29.3262 204.472 28.7766C205.021 28.2271 205.33 27.4817 205.33 26.7046V5.58223C205.326 4.80736 205.016 4.06542 204.467 3.51874C203.918 2.97206 203.175 2.66515 202.4 2.66516Z" fill="#093F68"/>
<path d="M104.465 156.409C104.3 156.406 104.135 156.384 103.975 156.343C103.678 156.265 103.403 156.119 103.173 155.917C102.943 155.714 102.763 155.46 102.649 155.176L98.671 145.669C98.5639 145.426 98.5062 145.165 98.5015 144.9C98.4968 144.635 98.5451 144.372 98.6435 144.126C98.742 143.88 98.8886 143.656 99.0747 143.468C99.2609 143.279 99.4828 143.13 99.7275 143.028C99.9723 142.926 100.235 142.875 100.5 142.876C100.765 142.877 101.027 142.931 101.271 143.035C101.514 143.139 101.735 143.291 101.919 143.481C102.103 143.672 102.248 143.897 102.344 144.144L105.248 151.171L122.352 137.143C122.553 136.968 122.787 136.836 123.04 136.754C123.293 136.671 123.56 136.64 123.825 136.663C124.09 136.685 124.348 136.761 124.583 136.885C124.819 137.009 125.027 137.178 125.195 137.384C125.364 137.59 125.49 137.828 125.565 138.083C125.64 138.338 125.663 138.606 125.633 138.87C125.603 139.134 125.52 139.39 125.389 139.622C125.258 139.853 125.082 140.057 124.872 140.219L105.698 155.958C105.35 156.243 104.915 156.402 104.465 156.409Z" fill="#70CC40"/>
<path d="M4.17415 59.9851L8.59674 56.0792C9.70379 55.1015 11.1539 54.6036 12.628 54.6951C14.1022 54.7865 15.4796 55.4598 16.4573 56.5669L75.5463 123.472L62.7754 134.751L3.69526 67.8557C3.2091 67.3079 2.83579 66.6695 2.59669 65.9772C2.3576 65.2848 2.25743 64.5522 2.30191 63.8211C2.3464 63.09 2.53466 62.3748 2.85592 61.7166C3.17719 61.0584 3.62516 60.47 4.17415 59.9851Z" fill="#E34149"/>
<path d="M62.7771 136.109H62.6843C62.338 136.086 62.0143 135.929 61.7826 135.671L2.65866 68.7507C2.05679 68.0721 1.59471 67.2815 1.29889 66.4241C1.00308 65.5667 0.879334 64.6593 0.934761 63.754C0.990189 62.8487 1.2237 61.9632 1.6219 61.1483C2.02011 60.3334 2.57518 59.605 3.25533 59.005L7.684 55.1067C9.05374 53.8952 10.8486 53.2775 12.6738 53.3894C14.499 53.5013 16.2049 54.3337 17.4164 55.7033L76.5006 122.624C76.7324 122.888 76.85 123.233 76.8276 123.583C76.8053 123.934 76.6447 124.261 76.3813 124.493L63.6522 135.777C63.4105 135.99 63.0994 136.108 62.7771 136.109ZM12.285 56.0348C11.2498 56.0325 10.2496 56.4099 9.47402 57.0956L5.05862 60.9939C4.63884 61.3618 4.29605 61.8092 4.04999 62.3102C3.80394 62.8113 3.6595 63.3561 3.62498 63.9132C3.59047 64.4703 3.66657 65.0288 3.84891 65.5564C4.03124 66.0839 4.3162 66.5702 4.68735 66.9871L62.8831 132.873L73.6763 123.353L15.4673 57.4403C15.0679 56.9925 14.5773 56.6353 14.0284 56.3929C13.4795 56.1505 12.8851 56.0284 12.285 56.0348Z" fill="#E34149"/>
<path d="M75.5463 123.485L81.0755 136.983L85.3716 147.485L75.48 141.929L62.7642 134.782L75.5463 123.485Z" fill="white"/>
<path d="M85.3718 148.784C85.144 148.784 84.9203 148.724 84.7221 148.612L62.181 135.909C61.997 135.805 61.8408 135.657 61.7254 135.479C61.6101 135.302 61.539 135.099 61.518 134.888C61.4964 134.679 61.5248 134.468 61.6009 134.272C61.677 134.076 61.7985 133.901 61.9556 133.761L74.7377 122.464C74.8969 122.325 75.0871 122.226 75.2924 122.175C75.4976 122.124 75.7121 122.124 75.9178 122.173C76.1236 122.22 76.3152 122.315 76.4767 122.451C76.6381 122.587 76.7647 122.76 76.846 122.955L86.658 146.954C86.7633 147.209 86.7867 147.49 86.7249 147.759C86.6631 148.027 86.5192 148.27 86.3132 148.453C86.0546 148.682 85.7168 148.801 85.3718 148.784ZM65.045 134.517L82.6934 144.435L75.0294 125.686L65.045 134.517Z" fill="#093F68"/>
<path d="M80.1739 134.782L85.3716 147.485L73.1199 140.603L80.1739 134.782Z" fill="#70CC40"/>
<path d="M85.3712 148.785C85.1434 148.784 84.9197 148.725 84.7215 148.612L72.4697 141.731C72.2815 141.626 72.1216 141.477 72.0038 141.297C71.886 141.117 71.8138 140.911 71.7935 140.696C71.7745 140.482 71.808 140.266 71.8912 140.067C71.9743 139.868 72.1047 139.693 72.2709 139.556L79.3249 133.735C79.485 133.603 79.6737 133.511 79.8759 133.465C80.0782 133.42 80.2883 133.422 80.4895 133.472C80.6907 133.522 80.8772 133.619 81.0342 133.755C81.1912 133.89 81.3142 134.061 81.3934 134.252L86.5911 146.955C86.6964 147.209 86.7198 147.491 86.658 147.759C86.5963 148.028 86.4523 148.27 86.2463 148.453C86.0046 148.666 85.6935 148.784 85.3712 148.785ZM75.4531 140.365L82.6928 144.436L79.5636 136.957L75.4531 140.365Z" fill="#093F68"/>
<path d="M278.456 160.957C278.456 160.957 266.456 136.493 268.127 119.958C268.127 119.958 277.78 124.321 282.434 137.196C289.541 156.899 287.897 160.97 287.897 160.97L278.456 160.957Z" fill="#70CC40"/>
<path d="M287.897 162.309H278.456C278.21 162.307 277.969 162.237 277.76 162.105C277.552 161.974 277.384 161.788 277.276 161.566C276.772 160.559 265.117 136.572 266.801 119.852C266.822 119.641 266.893 119.439 267.008 119.261C267.123 119.084 267.28 118.936 267.464 118.831C267.65 118.736 267.857 118.686 268.067 118.686C268.277 118.686 268.484 118.736 268.67 118.831C269.081 119.017 278.893 123.578 283.68 136.838C290.601 156.037 289.435 160.797 289.13 161.553C289.019 161.785 288.844 161.98 288.625 162.114C288.406 162.248 288.153 162.316 287.897 162.309ZM279.304 159.657H286.743C286.743 157.695 286.319 151.887 281.187 137.66C278.993 131.34 274.805 125.905 269.254 122.173C268.856 136.413 277.435 155.653 279.304 159.644V159.657Z" fill="#093F68"/>
<path d="M284.171 159.776C284.171 159.776 275.155 124.891 288.149 101.527C288.149 101.527 295.614 110.066 297.431 130.698C298.371 140.529 296.5 150.424 292.034 159.233L284.171 159.776Z" fill="#70CC40"/>
<path d="M284.171 161.103C283.869 161.112 283.574 161.019 283.333 160.838C283.092 160.658 282.92 160.4 282.845 160.108C281.262 153.341 280.295 146.445 279.954 139.503C279.371 128.697 280.113 113.236 286.955 100.892C287.058 100.705 287.205 100.546 287.383 100.429C287.561 100.311 287.764 100.238 287.976 100.215C288.188 100.193 288.403 100.223 288.601 100.301C288.8 100.38 288.977 100.505 289.116 100.666C289.421 101.024 296.873 109.762 298.676 130.619C299.667 140.728 297.734 150.908 293.107 159.949C292.998 160.134 292.846 160.29 292.664 160.403C292.481 160.516 292.274 160.584 292.06 160.599L284.25 161.116L284.171 161.103ZM288.281 104.087C278.323 124.374 283.892 152.604 285.192 158.451L291.145 158.053C295.18 149.608 296.87 140.234 296.038 130.911C294.752 115.888 290.389 107.402 288.281 104.061V104.087Z" fill="#093F68"/>
<path d="M288.056 158.689C288.056 158.689 290.854 135.392 309.682 120.237C309.682 120.237 315.238 137.593 299.671 160.798L288.056 158.689Z" fill="#70CC40"/>
<path d="M299.671 162.044H299.446L287.83 159.988C287.497 159.93 287.199 159.746 286.997 159.475C286.795 159.204 286.704 158.866 286.743 158.53C286.863 157.562 289.819 134.517 308.847 119.163C309.015 119.026 309.214 118.933 309.427 118.891C309.64 118.85 309.859 118.861 310.067 118.924C310.271 118.986 310.458 119.097 310.61 119.247C310.762 119.397 310.876 119.582 310.942 119.786C311.18 120.515 316.511 138.017 300.772 161.487C300.647 161.662 300.482 161.804 300.29 161.901C300.098 161.998 299.886 162.047 299.671 162.044ZM289.581 157.588L299.048 159.259C310.517 141.743 309.656 127.662 308.847 122.597C294.487 135.259 290.39 152.828 289.581 157.615V157.588Z" fill="#093F68"/>
<path d="M300.957 184.85H277.263L273.749 156.011H304.458L300.957 184.85Z" fill="white"/>
<path d="M300.997 186.176H277.263C276.937 186.179 276.622 186.061 276.377 185.846C276.132 185.631 275.976 185.333 275.937 185.009L272.423 156.17C272.402 155.984 272.421 155.796 272.478 155.618C272.535 155.439 272.629 155.275 272.754 155.136C272.879 154.994 273.032 154.881 273.203 154.803C273.374 154.726 273.561 154.685 273.749 154.685H304.444C304.633 154.685 304.819 154.726 304.99 154.803C305.162 154.881 305.315 154.994 305.439 155.136C305.564 155.275 305.658 155.439 305.715 155.618C305.773 155.796 305.791 155.984 305.77 156.17L302.323 185.009C302.284 185.333 302.127 185.631 301.882 185.846C301.638 186.061 301.323 186.179 300.997 186.176ZM278.456 183.524H299.79L302.986 157.337H275.247L278.456 183.524Z" fill="#093F68"/>
</svg>
