<svg width="406" height="306" viewBox="0 0 406 306" fill="none" xmlns="http://www.w3.org/2000/svg">
<path d="M351.88 226.283H54.1198C53.9852 226.283 53.8561 226.23 53.7609 226.134C53.6658 226.039 53.6123 225.91 53.6123 225.776C53.6123 225.641 53.6658 225.512 53.7609 225.417C53.8561 225.322 53.9852 225.268 54.1198 225.268H351.88C352.015 225.268 352.144 225.322 352.239 225.417C352.334 225.512 352.388 225.641 352.388 225.776C352.388 225.91 352.334 226.039 352.239 226.134C352.144 226.23 352.015 226.283 351.88 226.283Z" fill="#D1D3D4"/>
<path d="M317.553 63.8018H246.046V221.847H317.553V63.8018Z" fill="#231F20"/>
<path d="M317.553 222.375H246.046C245.977 222.376 245.909 222.364 245.845 222.339C245.781 222.313 245.723 222.275 245.673 222.227C245.624 222.179 245.585 222.121 245.559 222.058C245.532 221.994 245.518 221.926 245.518 221.857V63.8017C245.518 63.7328 245.532 63.6647 245.559 63.6012C245.585 63.5377 245.624 63.4802 245.673 63.432C245.723 63.3838 245.781 63.3459 245.845 63.3205C245.909 63.2951 245.977 63.2827 246.046 63.284H317.553C317.622 63.2827 317.69 63.2951 317.754 63.3205C317.818 63.3459 317.876 63.3838 317.925 63.432C317.975 63.4802 318.014 63.5377 318.04 63.6012C318.067 63.6647 318.081 63.7328 318.081 63.8017V221.857C318.081 221.926 318.067 221.994 318.04 222.058C318.014 222.121 317.975 222.179 317.925 222.227C317.876 222.275 317.818 222.313 317.754 222.339C317.69 222.364 317.622 222.376 317.553 222.375V222.375ZM246.574 221.36H317.025V64.3295H246.574V221.36Z" fill="#231F20"/>
<path d="M317.533 60.4219H246.066C242.922 60.4219 240.372 62.9712 240.372 66.116V78.2047C240.372 81.3495 242.922 83.8988 246.066 83.8988H317.533C320.677 83.8988 323.227 81.3495 323.227 78.2047V66.116C323.227 62.9712 320.677 60.4219 317.533 60.4219Z" fill="white"/>
<path d="M317.533 84.4165H246.067C244.418 84.4138 242.838 83.7571 241.674 82.5906C240.509 81.424 239.855 79.843 239.855 78.1946V66.1161C239.855 64.4677 240.509 62.8866 241.674 61.7201C242.838 60.5535 244.418 59.8968 246.067 59.8941H317.533C318.352 59.8901 319.165 60.0481 319.923 60.359C320.681 60.6699 321.371 61.1275 321.952 61.7057C322.533 62.2838 322.994 62.9711 323.309 63.728C323.623 64.4848 323.785 65.2964 323.785 66.1161V78.1946C323.785 79.0142 323.623 79.8258 323.309 80.5827C322.994 81.3395 322.533 82.0268 321.952 82.6049C321.371 83.1831 320.681 83.6408 319.923 83.9517C319.165 84.2626 318.352 84.4205 317.533 84.4165V84.4165ZM246.067 60.9396C244.695 60.9423 243.381 61.4888 242.413 62.4593C241.444 63.4298 240.9 64.7449 240.9 66.1161V78.1946C240.9 79.5657 241.444 80.8808 242.413 81.8513C243.381 82.8218 244.695 83.3684 246.067 83.3711H317.533C318.904 83.3684 320.218 82.8218 321.186 81.8513C322.155 80.8808 322.699 79.5657 322.699 78.1946V66.1161C322.699 64.7449 322.155 63.4298 321.186 62.4593C320.218 61.4888 318.904 60.9423 317.533 60.9396H246.067Z" fill="#231F20"/>
<path d="M250.177 74.6927C249.675 74.6927 249.185 74.5439 248.767 74.265C248.35 73.9862 248.025 73.5899 247.833 73.1262C247.641 72.6626 247.59 72.1524 247.688 71.6601C247.786 71.1679 248.028 70.7158 248.383 70.3609C248.738 70.006 249.19 69.7643 249.682 69.6664C250.174 69.5685 250.685 69.6188 251.148 69.8108C251.612 70.0029 252.008 70.3281 252.287 70.7454C252.566 71.1627 252.715 71.6533 252.715 72.1552C252.712 72.8273 252.444 73.4712 251.968 73.9465C251.493 74.4218 250.849 74.69 250.177 74.6927V74.6927ZM250.177 70.6327C249.876 70.6327 249.582 70.722 249.331 70.8893C249.081 71.0566 248.886 71.2943 248.771 71.5725C248.655 71.8507 248.625 72.1569 248.684 72.4522C248.743 72.7475 248.888 73.0188 249.101 73.2318C249.314 73.4447 249.585 73.5897 249.88 73.6484C250.175 73.7072 250.482 73.677 250.76 73.5618C251.038 73.4466 251.276 73.2514 251.443 73.001C251.61 72.7507 251.7 72.4563 251.7 72.1552C251.697 71.7522 251.536 71.3665 251.251 71.0816C250.966 70.7966 250.58 70.6353 250.177 70.6327V70.6327Z" fill="#D1D3D4"/>
<path d="M258.744 74.6927C258.242 74.6927 257.751 74.5439 257.334 74.265C256.917 73.9862 256.592 73.5899 256.399 73.1262C256.207 72.6626 256.157 72.1524 256.255 71.6601C256.353 71.1679 256.595 70.7158 256.95 70.3609C257.304 70.006 257.757 69.7643 258.249 69.6664C258.741 69.5685 259.251 69.6188 259.715 69.8108C260.179 70.0029 260.575 70.3281 260.854 70.7454C261.132 71.1627 261.281 71.6533 261.281 72.1552C261.281 72.8282 261.014 73.4736 260.538 73.9495C260.062 74.4253 259.417 74.6927 258.744 74.6927V74.6927ZM258.744 70.6327C258.443 70.6327 258.148 70.722 257.898 70.8893C257.648 71.0566 257.452 71.2943 257.337 71.5725C257.222 71.8507 257.192 72.1569 257.251 72.4522C257.309 72.7475 257.454 73.0188 257.667 73.2318C257.88 73.4447 258.151 73.5897 258.447 73.6484C258.742 73.7072 259.048 73.677 259.326 73.5618C259.605 73.4466 259.842 73.2514 260.01 73.001C260.177 72.7507 260.266 72.4563 260.266 72.1552C260.266 71.7514 260.106 71.3641 259.82 71.0786C259.535 70.7931 259.148 70.6327 258.744 70.6327Z" fill="#D1D3D4"/>
<path d="M315.452 73.8299H266.224C266.09 73.8299 265.961 73.7764 265.865 73.6813C265.77 73.5861 265.717 73.457 265.717 73.3224V70.9575C265.717 70.8229 265.77 70.6938 265.865 70.5986C265.961 70.5034 266.09 70.45 266.224 70.45H315.452C315.586 70.45 315.715 70.5034 315.811 70.5986C315.906 70.6938 315.959 70.8229 315.959 70.9575V73.3529C315.952 73.4821 315.895 73.6035 315.8 73.6922C315.706 73.7809 315.581 73.8301 315.452 73.8299V73.8299ZM266.732 72.8149H314.944V71.465H266.732V72.8149Z" fill="#D1D3D4"/>
<path d="M317.533 89.3494H246.066C242.922 89.3494 240.372 91.8987 240.372 95.0435V107.132C240.372 110.277 242.922 112.826 246.066 112.826H317.533C320.677 112.826 323.227 110.277 323.227 107.132V95.0435C323.227 91.8987 320.677 89.3494 317.533 89.3494Z" fill="white"/>
<path d="M317.533 113.344H246.067C244.418 113.341 242.838 112.685 241.674 111.518C240.509 110.352 239.855 108.77 239.855 107.122V95.0436C239.855 93.3952 240.509 91.8141 241.674 90.6476C242.838 89.481 244.418 88.8243 246.067 88.8216H317.533C318.352 88.8176 319.165 88.9756 319.923 89.2865C320.681 89.5973 321.371 90.055 321.952 90.6332C322.533 91.2113 322.994 91.8986 323.309 92.6555C323.623 93.4123 323.785 94.2239 323.785 95.0436V107.122C323.785 107.942 323.623 108.753 323.309 109.51C322.994 110.267 322.533 110.954 321.952 111.532C321.371 112.111 320.681 112.568 319.923 112.879C319.165 113.19 318.352 113.348 317.533 113.344V113.344ZM246.067 89.8671C244.695 89.8698 243.381 90.4163 242.413 91.3868C241.444 92.3573 240.9 93.6724 240.9 95.0436V107.122C240.9 108.493 241.444 109.808 242.413 110.779C243.381 111.749 244.695 112.296 246.067 112.299H317.533C318.904 112.296 320.218 111.749 321.186 110.779C322.155 109.808 322.699 108.493 322.699 107.122V95.0436C322.699 93.6724 322.155 92.3573 321.186 91.3868C320.218 90.4163 318.904 89.8698 317.533 89.8671H246.067Z" fill="#231F20"/>
<path d="M250.177 103.62C249.675 103.62 249.185 103.471 248.767 103.193C248.35 102.914 248.025 102.517 247.833 102.054C247.641 101.59 247.59 101.08 247.688 100.588C247.786 100.095 248.028 99.6433 248.383 99.2884C248.738 98.9335 249.19 98.6918 249.682 98.5939C250.174 98.496 250.685 98.5463 251.148 98.7383C251.612 98.9304 252.008 99.2556 252.287 99.6729C252.566 100.09 252.715 100.581 252.715 101.083C252.712 101.755 252.444 102.399 251.968 102.874C251.493 103.349 250.849 103.617 250.177 103.62V103.62ZM250.177 99.5602C249.876 99.5602 249.582 99.6495 249.331 99.8168C249.081 99.9841 248.886 100.222 248.771 100.5C248.655 100.778 248.625 101.084 248.684 101.38C248.743 101.675 248.888 101.946 249.101 102.159C249.314 102.372 249.585 102.517 249.88 102.576C250.175 102.635 250.482 102.605 250.76 102.489C251.038 102.374 251.276 102.179 251.443 101.929C251.61 101.678 251.7 101.384 251.7 101.083C251.697 100.68 251.536 100.294 251.251 100.009C250.966 99.7241 250.58 99.5628 250.177 99.5602V99.5602Z" fill="#D1D3D4"/>
<path d="M258.744 103.62C258.242 103.62 257.751 103.471 257.334 103.193C256.917 102.914 256.592 102.517 256.399 102.054C256.207 101.59 256.157 101.08 256.255 100.588C256.353 100.095 256.595 99.6433 256.95 99.2884C257.304 98.9335 257.757 98.6918 258.249 98.5939C258.741 98.496 259.251 98.5463 259.715 98.7383C260.179 98.9304 260.575 99.2556 260.854 99.6729C261.132 100.09 261.281 100.581 261.281 101.083C261.281 101.756 261.014 102.401 260.538 102.877C260.062 103.353 259.417 103.62 258.744 103.62V103.62ZM258.744 99.5602C258.443 99.5602 258.148 99.6495 257.898 99.8168C257.648 99.9841 257.452 100.222 257.337 100.5C257.222 100.778 257.192 101.084 257.251 101.38C257.309 101.675 257.454 101.946 257.667 102.159C257.88 102.372 258.151 102.517 258.447 102.576C258.742 102.635 259.048 102.605 259.326 102.489C259.605 102.374 259.842 102.179 260.01 101.929C260.177 101.678 260.266 101.384 260.266 101.083C260.266 100.679 260.106 100.292 259.82 100.006C259.535 99.7206 259.148 99.5602 258.744 99.5602Z" fill="#D1D3D4"/>
<path d="M315.452 102.788H266.224C266.09 102.788 265.961 102.734 265.865 102.639C265.77 102.544 265.717 102.415 265.717 102.28V99.8849C265.717 99.7503 265.77 99.6213 265.865 99.5261C265.961 99.4309 266.09 99.3774 266.224 99.3774H315.452C315.586 99.3774 315.715 99.4309 315.811 99.5261C315.906 99.6213 315.959 99.7503 315.959 99.8849V102.25C315.963 102.319 315.953 102.388 315.93 102.453C315.906 102.519 315.869 102.578 315.822 102.629C315.774 102.679 315.717 102.719 315.653 102.747C315.59 102.774 315.521 102.788 315.452 102.788ZM266.732 101.773H314.944V100.392H266.732V101.773Z" fill="#D1D3D4"/>
<path d="M317.533 118.277H246.066C242.922 118.277 240.372 120.826 240.372 123.971V136.06C240.372 139.204 242.922 141.754 246.066 141.754H317.533C320.677 141.754 323.227 139.204 323.227 136.06V123.971C323.227 120.826 320.677 118.277 317.533 118.277Z" fill="white"/>
<path d="M317.533 142.271H246.067C244.418 142.269 242.838 141.612 241.674 140.446C240.509 139.279 239.855 137.698 239.855 136.05V123.971C239.855 122.323 240.509 120.742 241.674 119.575C242.838 118.409 244.418 117.752 246.067 117.749H317.533C318.352 117.745 319.165 117.903 319.923 118.214C320.681 118.525 321.371 118.983 321.952 119.561C322.533 120.139 322.994 120.826 323.309 121.583C323.623 122.34 323.785 123.151 323.785 123.971V136.05C323.785 136.869 323.623 137.681 323.309 138.438C322.994 139.195 322.533 139.882 321.952 140.46C321.371 141.038 320.681 141.496 319.923 141.807C319.165 142.118 318.352 142.276 317.533 142.271V142.271ZM246.067 118.795C244.695 118.797 243.381 119.344 242.413 120.314C241.444 121.285 240.9 122.6 240.9 123.971V136.05C240.9 137.421 241.444 138.736 242.413 139.706C243.381 140.677 244.695 141.223 246.067 141.226H317.533C318.904 141.223 320.218 140.677 321.186 139.706C322.155 138.736 322.699 137.421 322.699 136.05V123.971C322.699 122.6 322.155 121.285 321.186 120.314C320.218 119.344 318.904 118.797 317.533 118.795H246.067Z" fill="#231F20"/>
<path d="M250.177 132.548C249.675 132.548 249.185 132.399 248.767 132.12C248.35 131.841 248.025 131.445 247.833 130.981C247.641 130.518 247.59 130.007 247.688 129.515C247.786 129.023 248.028 128.571 248.383 128.216C248.738 127.861 249.19 127.619 249.682 127.521C250.174 127.424 250.685 127.474 251.148 127.666C251.612 127.858 252.008 128.183 252.287 128.6C252.566 129.018 252.715 129.508 252.715 130.01C252.712 130.682 252.444 131.326 251.968 131.801C251.493 132.277 250.849 132.545 250.177 132.548ZM250.177 128.488C249.876 128.488 249.582 128.577 249.331 128.744C249.081 128.912 248.886 129.149 248.771 129.428C248.655 129.706 248.625 130.012 248.684 130.307C248.743 130.603 248.888 130.874 249.101 131.087C249.314 131.3 249.585 131.445 249.88 131.503C250.175 131.562 250.482 131.532 250.76 131.417C251.038 131.302 251.276 131.106 251.443 130.856C251.61 130.606 251.7 130.311 251.7 130.01C251.697 129.607 251.536 129.221 251.251 128.937C250.966 128.652 250.58 128.49 250.177 128.488V128.488Z" fill="#D1D3D4"/>
<path d="M258.744 132.548C258.242 132.548 257.751 132.399 257.334 132.12C256.917 131.841 256.592 131.445 256.399 130.981C256.207 130.518 256.157 130.007 256.255 129.515C256.353 129.023 256.595 128.571 256.95 128.216C257.304 127.861 257.757 127.619 258.249 127.521C258.741 127.424 259.251 127.474 259.715 127.666C260.179 127.858 260.575 128.183 260.854 128.6C261.132 129.018 261.281 129.508 261.281 130.01C261.281 130.683 261.014 131.329 260.538 131.804C260.062 132.28 259.417 132.548 258.744 132.548V132.548ZM258.744 128.488C258.443 128.488 258.148 128.577 257.898 128.744C257.648 128.912 257.452 129.149 257.337 129.428C257.222 129.706 257.192 130.012 257.251 130.307C257.309 130.603 257.454 130.874 257.667 131.087C257.88 131.3 258.151 131.445 258.447 131.503C258.742 131.562 259.048 131.532 259.326 131.417C259.605 131.302 259.842 131.106 260.01 130.856C260.177 130.606 260.266 130.311 260.266 130.01C260.266 129.606 260.106 129.219 259.82 128.934C259.535 128.648 259.148 128.488 258.744 128.488Z" fill="#D1D3D4"/>
<path d="M315.452 131.685H266.224C266.09 131.685 265.961 131.632 265.865 131.536C265.77 131.441 265.717 131.312 265.717 131.178V128.782C265.717 128.648 265.77 128.518 265.865 128.423C265.961 128.328 266.09 128.275 266.224 128.275H315.452C315.586 128.275 315.715 128.328 315.811 128.423C315.906 128.518 315.959 128.648 315.959 128.782V131.178C315.959 131.312 315.906 131.441 315.811 131.536C315.715 131.632 315.586 131.685 315.452 131.685ZM266.732 130.67H314.944V129.29H266.732V130.67Z" fill="#D1D3D4"/>
<path d="M317.533 147.194H246.066C242.922 147.194 240.372 149.743 240.372 152.888V164.977C240.372 168.122 242.922 170.671 246.066 170.671H317.533C320.677 170.671 323.227 168.122 323.227 164.977V152.888C323.227 149.743 320.677 147.194 317.533 147.194Z" fill="white"/>
<path d="M317.533 171.199H246.067C244.418 171.196 242.838 170.54 241.674 169.373C240.509 168.206 239.855 166.625 239.855 164.977V152.899C239.855 151.25 240.509 149.669 241.674 148.503C242.838 147.336 244.418 146.679 246.067 146.677H317.533C318.352 146.673 319.165 146.831 319.923 147.141C320.681 147.452 321.371 147.91 321.952 148.488C322.533 149.066 322.994 149.754 323.309 150.51C323.623 151.267 323.785 152.079 323.785 152.899V164.977C323.785 165.797 323.623 166.608 323.309 167.365C322.994 168.122 322.533 168.809 321.952 169.387C321.371 169.966 320.681 170.423 319.923 170.734C319.165 171.045 318.352 171.203 317.533 171.199V171.199ZM246.067 147.722C244.695 147.725 243.381 148.271 242.413 149.242C241.444 150.212 240.9 151.527 240.9 152.899V164.977C240.9 166.348 241.444 167.663 242.413 168.634C243.381 169.604 244.695 170.151 246.067 170.154H317.533C318.904 170.151 320.218 169.604 321.186 168.634C322.155 167.663 322.699 166.348 322.699 164.977V152.899C322.699 151.527 322.155 150.212 321.186 149.242C320.218 148.271 318.904 147.725 317.533 147.722H246.067Z" fill="#231F20"/>
<path d="M250.177 161.475C249.675 161.475 249.185 161.326 248.767 161.048C248.35 160.769 248.025 160.372 247.833 159.909C247.641 159.445 247.59 158.935 247.688 158.443C247.786 157.95 248.028 157.498 248.383 157.143C248.738 156.788 249.19 156.547 249.682 156.449C250.174 156.351 250.685 156.401 251.148 156.593C251.612 156.785 252.008 157.111 252.287 157.528C252.566 157.945 252.715 158.436 252.715 158.938C252.712 159.61 252.444 160.254 251.968 160.729C251.493 161.204 250.849 161.472 250.177 161.475ZM250.177 157.415C249.876 157.415 249.582 157.504 249.331 157.672C249.081 157.839 248.886 158.077 248.771 158.355C248.655 158.633 248.625 158.939 248.684 159.235C248.743 159.53 248.888 159.801 249.101 160.014C249.314 160.227 249.585 160.372 249.88 160.431C250.175 160.49 250.482 160.459 250.76 160.344C251.038 160.229 251.276 160.034 251.443 159.783C251.61 159.533 251.7 159.239 251.7 158.938C251.697 158.535 251.536 158.149 251.251 157.864C250.966 157.579 250.58 157.418 250.177 157.415V157.415Z" fill="#D1D3D4"/>
<path d="M258.744 161.475C258.242 161.475 257.751 161.326 257.334 161.048C256.917 160.769 256.592 160.372 256.399 159.909C256.207 159.445 256.157 158.935 256.255 158.443C256.353 157.95 256.595 157.498 256.95 157.143C257.304 156.788 257.757 156.547 258.249 156.449C258.741 156.351 259.251 156.401 259.715 156.593C260.179 156.785 260.575 157.111 260.854 157.528C261.132 157.945 261.281 158.436 261.281 158.938C261.281 159.611 261.014 160.256 260.538 160.732C260.062 161.208 259.417 161.475 258.744 161.475V161.475ZM258.744 157.415C258.443 157.415 258.148 157.504 257.898 157.672C257.648 157.839 257.452 158.077 257.337 158.355C257.222 158.633 257.192 158.939 257.251 159.235C257.309 159.53 257.454 159.801 257.667 160.014C257.88 160.227 258.151 160.372 258.447 160.431C258.742 160.49 259.048 160.459 259.326 160.344C259.605 160.229 259.842 160.034 260.01 159.783C260.177 159.533 260.266 159.239 260.266 158.938C260.266 158.534 260.106 158.147 259.82 157.861C259.535 157.576 259.148 157.415 258.744 157.415Z" fill="#D1D3D4"/>
<path d="M315.452 160.643H266.224C266.09 160.643 265.961 160.589 265.865 160.494C265.77 160.399 265.717 160.27 265.717 160.135V157.74C265.717 157.605 265.77 157.476 265.865 157.381C265.961 157.286 266.09 157.232 266.224 157.232H315.452C315.586 157.232 315.715 157.286 315.811 157.381C315.906 157.476 315.959 157.605 315.959 157.74V160.105C315.963 160.174 315.953 160.243 315.93 160.308C315.906 160.374 315.869 160.433 315.822 160.484C315.774 160.534 315.717 160.574 315.653 160.602C315.59 160.629 315.521 160.643 315.452 160.643ZM266.732 159.628H314.944V158.247H266.732V159.628Z" fill="#D1D3D4"/>
<path d="M317.533 176.122H246.066C242.922 176.122 240.372 178.671 240.372 181.816V193.904C240.372 197.049 242.922 199.599 246.066 199.599H317.533C320.677 199.599 323.227 197.049 323.227 193.904V181.816C323.227 178.671 320.677 176.122 317.533 176.122Z" fill="white"/>
<path d="M317.533 200.126H246.067C244.418 200.124 242.838 199.467 241.674 198.301C240.509 197.134 239.855 195.553 239.855 193.905V181.826C239.855 180.178 240.509 178.597 241.674 177.43C242.838 176.263 244.418 175.607 246.067 175.604H317.533C318.352 175.6 319.165 175.758 319.923 176.069C320.681 176.38 321.371 176.837 321.952 177.416C322.533 177.994 322.994 178.681 323.309 179.438C323.623 180.195 323.785 181.006 323.785 181.826V193.905C323.785 194.724 323.623 195.536 323.309 196.293C322.994 197.049 322.533 197.737 321.952 198.315C321.371 198.893 320.681 199.351 319.923 199.662C319.165 199.973 318.352 200.13 317.533 200.126V200.126ZM246.067 176.65C244.695 176.652 243.381 177.199 242.413 178.169C241.444 179.14 240.9 180.455 240.9 181.826V193.905C240.9 195.276 241.444 196.591 242.413 197.561C243.381 198.532 244.695 199.078 246.067 199.081H317.533C318.904 199.078 320.218 198.532 321.186 197.561C322.155 196.591 322.699 195.276 322.699 193.905V181.826C322.699 180.455 322.155 179.14 321.186 178.169C320.218 177.199 318.904 176.652 317.533 176.65H246.067Z" fill="#231F20"/>
<path d="M250.177 190.403C249.675 190.403 249.185 190.254 248.767 189.975C248.35 189.696 248.025 189.3 247.833 188.836C247.641 188.373 247.59 187.862 247.688 187.37C247.786 186.878 248.028 186.426 248.383 186.071C248.738 185.716 249.19 185.474 249.682 185.376C250.174 185.278 250.685 185.329 251.148 185.521C251.612 185.713 252.008 186.038 252.287 186.455C252.566 186.873 252.715 187.363 252.715 187.865C252.712 188.537 252.444 189.181 251.968 189.656C251.493 190.132 250.849 190.4 250.177 190.403V190.403ZM250.177 186.343C249.876 186.343 249.582 186.432 249.331 186.599C249.081 186.767 248.886 187.004 248.771 187.282C248.655 187.561 248.625 187.867 248.684 188.162C248.743 188.458 248.888 188.729 249.101 188.942C249.314 189.155 249.585 189.3 249.88 189.358C250.175 189.417 250.482 189.387 250.76 189.272C251.038 189.157 251.276 188.961 251.443 188.711C251.61 188.461 251.7 188.166 251.7 187.865C251.697 187.462 251.536 187.076 251.251 186.792C250.966 186.507 250.58 186.345 250.177 186.343V186.343Z" fill="#D1D3D4"/>
<path d="M258.744 190.403C258.242 190.403 257.751 190.254 257.334 189.975C256.917 189.696 256.592 189.3 256.399 188.836C256.207 188.373 256.157 187.862 256.255 187.37C256.353 186.878 256.595 186.426 256.95 186.071C257.304 185.716 257.757 185.474 258.249 185.376C258.741 185.278 259.251 185.329 259.715 185.521C260.179 185.713 260.575 186.038 260.854 186.455C261.132 186.873 261.281 187.363 261.281 187.865C261.281 188.538 261.014 189.184 260.538 189.659C260.062 190.135 259.417 190.403 258.744 190.403V190.403ZM258.744 186.343C258.443 186.343 258.148 186.432 257.898 186.599C257.648 186.767 257.452 187.004 257.337 187.282C257.222 187.561 257.192 187.867 257.251 188.162C257.309 188.458 257.454 188.729 257.667 188.942C257.88 189.155 258.151 189.3 258.447 189.358C258.742 189.417 259.048 189.387 259.326 189.272C259.605 189.157 259.842 188.961 260.01 188.711C260.177 188.461 260.266 188.166 260.266 187.865C260.266 187.461 260.106 187.074 259.82 186.789C259.535 186.503 259.148 186.343 258.744 186.343Z" fill="#D1D3D4"/>
<path d="M315.452 189.54H266.224C266.09 189.54 265.961 189.487 265.865 189.391C265.77 189.296 265.717 189.167 265.717 189.033V186.637C265.717 186.503 265.77 186.373 265.865 186.278C265.961 186.183 266.09 186.13 266.224 186.13H315.452C315.586 186.13 315.715 186.183 315.811 186.278C315.906 186.373 315.959 186.503 315.959 186.637V189.033C315.959 189.167 315.906 189.296 315.811 189.391C315.715 189.487 315.586 189.54 315.452 189.54ZM266.732 188.525H314.944V187.145H266.732V188.525Z" fill="#D1D3D4"/>
<path d="M317.533 205.049H246.066C242.922 205.049 240.372 207.599 240.372 210.743V222.832C240.372 225.977 242.922 228.526 246.066 228.526H317.533C320.677 228.526 323.227 225.977 323.227 222.832V210.743C323.227 207.599 320.677 205.049 317.533 205.049Z" fill="white"/>
<path d="M317.533 229.054H246.067C244.418 229.051 242.838 228.395 241.674 227.228C240.509 226.061 239.855 224.48 239.855 222.832V210.754C239.855 209.105 240.509 207.524 241.674 206.358C242.838 205.191 244.418 204.534 246.067 204.532H317.533C318.352 204.528 319.165 204.686 319.923 204.996C320.681 205.307 321.371 205.765 321.952 206.343C322.533 206.921 322.994 207.609 323.309 208.365C323.623 209.122 323.785 209.934 323.785 210.754V222.832C323.785 223.652 323.623 224.463 323.309 225.22C322.994 225.977 322.533 226.664 321.952 227.242C321.371 227.821 320.681 228.278 319.923 228.589C319.165 228.9 318.352 229.058 317.533 229.054V229.054ZM246.067 205.577C244.695 205.58 243.381 206.126 242.413 207.097C241.444 208.067 240.9 209.382 240.9 210.754V222.832C240.9 224.203 241.444 225.518 242.413 226.489C243.381 227.459 244.695 228.006 246.067 228.009H317.533C318.904 228.006 320.218 227.459 321.186 226.489C322.155 225.518 322.699 224.203 322.699 222.832V210.754C322.699 209.382 322.155 208.067 321.186 207.097C320.218 206.126 318.904 205.58 317.533 205.577H246.067Z" fill="#231F20"/>
<path d="M250.177 219.33C249.675 219.33 249.185 219.182 248.767 218.903C248.35 218.624 248.025 218.228 247.833 217.764C247.641 217.3 247.59 216.79 247.688 216.298C247.786 215.806 248.028 215.353 248.383 214.999C248.738 214.644 249.19 214.402 249.682 214.304C250.174 214.206 250.685 214.256 251.148 214.449C251.612 214.641 252.008 214.966 252.287 215.383C252.566 215.8 252.715 216.291 252.715 216.793C252.712 217.465 252.444 218.109 251.968 218.584C251.493 219.059 250.849 219.328 250.177 219.33V219.33ZM250.177 215.27C249.876 215.27 249.582 215.36 249.331 215.527C249.081 215.694 248.886 215.932 248.771 216.21C248.655 216.488 248.625 216.795 248.684 217.09C248.743 217.385 248.888 217.657 249.101 217.869C249.314 218.082 249.585 218.227 249.88 218.286C250.175 218.345 250.482 218.315 250.76 218.199C251.038 218.084 251.276 217.889 251.443 217.639C251.61 217.388 251.7 217.094 251.7 216.793C251.697 216.39 251.536 216.004 251.251 215.719C250.966 215.434 250.58 215.273 250.177 215.27V215.27Z" fill="#D1D3D4"/>
<path d="M258.744 219.33C258.242 219.33 257.751 219.182 257.334 218.903C256.917 218.624 256.592 218.228 256.399 217.764C256.207 217.3 256.157 216.79 256.255 216.298C256.353 215.806 256.595 215.353 256.95 214.999C257.304 214.644 257.757 214.402 258.249 214.304C258.741 214.206 259.251 214.256 259.715 214.449C260.179 214.641 260.575 214.966 260.854 215.383C261.132 215.8 261.281 216.291 261.281 216.793C261.281 217.466 261.014 218.111 260.538 218.587C260.062 219.063 259.417 219.33 258.744 219.33V219.33ZM258.744 215.27C258.443 215.27 258.148 215.36 257.898 215.527C257.648 215.694 257.452 215.932 257.337 216.21C257.222 216.488 257.192 216.795 257.251 217.09C257.309 217.385 257.454 217.657 257.667 217.869C257.88 218.082 258.151 218.227 258.447 218.286C258.742 218.345 259.048 218.315 259.326 218.199C259.605 218.084 259.842 217.889 260.01 217.639C260.177 217.388 260.266 217.094 260.266 216.793C260.266 216.389 260.106 216.002 259.82 215.716C259.535 215.431 259.148 215.27 258.744 215.27V215.27Z" fill="#D1D3D4"/>
<path d="M315.452 218.498H266.224C266.09 218.498 265.961 218.445 265.865 218.349C265.77 218.254 265.717 218.125 265.717 217.991V215.595C265.717 215.461 265.77 215.331 265.865 215.236C265.961 215.141 266.09 215.088 266.224 215.088H315.452C315.586 215.088 315.715 215.141 315.811 215.236C315.906 215.331 315.959 215.461 315.959 215.595V217.96C315.963 218.029 315.953 218.099 315.93 218.164C315.906 218.229 315.869 218.288 315.822 218.339C315.774 218.389 315.717 218.429 315.653 218.457C315.59 218.484 315.521 218.498 315.452 218.498ZM266.732 217.483H314.944V216.103H266.732V217.483Z" fill="#D1D3D4"/>
<path d="M257.15 228.526H248.573V232.018H257.15V228.526Z" fill="#231F20"/>
<path d="M257.15 232.546H248.574C248.436 232.546 248.305 232.491 248.208 232.394C248.11 232.297 248.056 232.165 248.056 232.028V228.526C248.056 228.389 248.11 228.257 248.208 228.16C248.305 228.063 248.436 228.009 248.574 228.009H257.15C257.288 228.009 257.419 228.063 257.516 228.16C257.613 228.257 257.668 228.389 257.668 228.526V232.028C257.668 232.165 257.613 232.297 257.516 232.394C257.419 232.491 257.288 232.546 257.15 232.546V232.546ZM249.101 231.531H256.623V229.084H249.101V231.531Z" fill="#231F20"/>
<path d="M315.025 228.526H306.449V232.018H315.025V228.526Z" fill="#231F20"/>
<path d="M315.026 232.546H306.449C306.312 232.546 306.18 232.491 306.083 232.394C305.986 232.297 305.931 232.165 305.931 232.028V228.526C305.931 228.389 305.986 228.257 306.083 228.16C306.18 228.063 306.312 228.009 306.449 228.009H315.026C315.163 228.009 315.295 228.063 315.392 228.16C315.489 228.257 315.543 228.389 315.543 228.526V232.028C315.543 232.165 315.489 232.297 315.392 232.394C315.295 232.491 315.163 232.546 315.026 232.546V232.546ZM306.977 231.531H314.498V229.084H306.977V231.531Z" fill="#231F20"/>
<path d="M221.98 123.839H150.474V221.858H221.98V123.839Z" fill="#231F20"/>
<path d="M221.981 222.375H150.474C150.337 222.375 150.205 222.321 150.108 222.224C150.011 222.127 149.956 221.995 149.956 221.858V123.839C149.955 123.77 149.967 123.702 149.993 123.638C150.018 123.574 150.056 123.516 150.104 123.466C150.152 123.417 150.21 123.378 150.273 123.352C150.337 123.325 150.405 123.311 150.474 123.311H221.981C222.121 123.311 222.255 123.367 222.354 123.466C222.453 123.565 222.508 123.699 222.508 123.839V221.858C222.508 221.926 222.495 221.995 222.468 222.058C222.441 222.122 222.402 222.179 222.353 222.227C222.304 222.276 222.246 222.313 222.182 222.339C222.118 222.364 222.049 222.377 221.981 222.375V222.375ZM151.002 221.36H221.463V124.367H151.002V221.36Z" fill="#231F20"/>
<path d="M221.96 118.277H150.494C147.349 118.277 144.8 120.826 144.8 123.971V136.06C144.8 139.204 147.349 141.754 150.494 141.754H221.96C225.105 141.754 227.654 139.204 227.654 136.06V123.971C227.654 120.826 225.105 118.277 221.96 118.277Z" fill="white"/>
<path d="M221.96 142.271H150.504C148.855 142.269 147.274 141.612 146.108 140.446C144.941 139.28 144.285 137.699 144.282 136.049V123.971C144.285 122.322 144.941 120.741 146.108 119.574C147.274 118.408 148.855 117.752 150.504 117.749H221.96C223.61 117.752 225.191 118.408 226.357 119.574C227.523 120.741 228.179 122.322 228.182 123.971V136.049C228.179 137.699 227.523 139.28 226.357 140.446C225.191 141.612 223.61 142.269 221.96 142.271V142.271ZM150.504 118.794C149.132 118.797 147.817 119.343 146.847 120.314C145.877 121.284 145.33 122.599 145.328 123.971V136.049C145.33 137.422 145.877 138.737 146.847 139.707C147.817 140.677 149.132 141.223 150.504 141.226H221.96C223.332 141.223 224.647 140.677 225.618 139.707C226.588 138.737 227.134 137.422 227.137 136.049V123.971C227.134 122.599 226.588 121.284 225.618 120.314C224.647 119.343 223.332 118.797 221.96 118.794H150.504Z" fill="#231F20"/>
<path d="M154.605 132.548C154.103 132.548 153.612 132.399 153.195 132.12C152.778 131.841 152.453 131.445 152.261 130.981C152.068 130.518 152.018 130.007 152.116 129.515C152.214 129.023 152.456 128.571 152.811 128.216C153.165 127.861 153.618 127.619 154.11 127.521C154.602 127.424 155.112 127.474 155.576 127.666C156.04 127.858 156.436 128.183 156.715 128.6C156.994 129.018 157.142 129.508 157.142 130.01C157.142 130.683 156.875 131.329 156.399 131.804C155.923 132.28 155.278 132.548 154.605 132.548ZM154.605 128.488C154.304 128.488 154.009 128.577 153.759 128.744C153.509 128.912 153.314 129.149 153.198 129.428C153.083 129.706 153.053 130.012 153.112 130.307C153.17 130.603 153.315 130.874 153.528 131.087C153.741 131.3 154.013 131.445 154.308 131.503C154.603 131.562 154.909 131.532 155.188 131.417C155.466 131.302 155.703 131.106 155.871 130.856C156.038 130.606 156.127 130.311 156.127 130.01C156.127 129.606 155.967 129.219 155.681 128.934C155.396 128.648 155.009 128.488 154.605 128.488Z" fill="#D1D3D4"/>
<path d="M163.182 132.548C162.68 132.548 162.189 132.399 161.772 132.12C161.354 131.841 161.029 131.445 160.837 130.981C160.645 130.518 160.595 130.007 160.693 129.515C160.791 129.023 161.032 128.571 161.387 128.216C161.742 127.861 162.194 127.619 162.687 127.521C163.179 127.424 163.689 127.474 164.153 127.666C164.616 127.858 165.013 128.183 165.291 128.6C165.57 129.018 165.719 129.508 165.719 130.01C165.716 130.682 165.448 131.326 164.973 131.801C164.498 132.277 163.854 132.545 163.182 132.548V132.548ZM163.182 128.488C162.88 128.488 162.586 128.577 162.336 128.744C162.085 128.912 161.89 129.149 161.775 129.428C161.66 129.706 161.63 130.012 161.688 130.307C161.747 130.603 161.892 130.874 162.105 131.087C162.318 131.3 162.589 131.445 162.885 131.503C163.18 131.562 163.486 131.532 163.764 131.417C164.042 131.302 164.28 131.106 164.447 130.856C164.615 130.606 164.704 130.311 164.704 130.01C164.701 129.607 164.54 129.221 164.255 128.937C163.97 128.652 163.585 128.49 163.182 128.488Z" fill="#D1D3D4"/>
<path d="M219.89 131.685H170.652C170.517 131.685 170.388 131.632 170.293 131.536C170.198 131.441 170.145 131.312 170.145 131.178V128.782C170.145 128.648 170.198 128.518 170.293 128.423C170.388 128.328 170.517 128.275 170.652 128.275H219.89C220.024 128.275 220.153 128.328 220.249 128.423C220.344 128.518 220.397 128.648 220.397 128.782V131.178C220.395 131.311 220.34 131.439 220.246 131.534C220.151 131.628 220.023 131.682 219.89 131.685ZM171.17 130.67H219.392V129.29H171.16L171.17 130.67Z" fill="#D1D3D4"/>
<path d="M221.96 147.194H150.494C147.349 147.194 144.8 149.743 144.8 152.888V164.977C144.8 168.122 147.349 170.671 150.494 170.671H221.96C225.105 170.671 227.654 168.122 227.654 164.977V152.888C227.654 149.743 225.105 147.194 221.96 147.194Z" fill="white"/>
<path d="M221.96 171.199H150.504C148.855 171.196 147.274 170.54 146.108 169.374C144.941 168.207 144.285 166.626 144.282 164.977V152.898C144.285 151.249 144.941 149.668 146.108 148.502C147.274 147.336 148.855 146.679 150.504 146.677H221.96C223.61 146.679 225.191 147.336 226.357 148.502C227.523 149.668 228.179 151.249 228.182 152.898V164.977C228.179 166.626 227.523 168.207 226.357 169.374C225.191 170.54 223.61 171.196 221.96 171.199V171.199ZM150.504 147.722C149.132 147.725 147.817 148.271 146.847 149.241C145.877 150.211 145.33 151.526 145.328 152.898V164.977C145.33 166.349 145.877 167.664 146.847 168.634C147.817 169.605 149.132 170.151 150.504 170.153H221.96C223.332 170.151 224.647 169.605 225.618 168.634C226.588 167.664 227.134 166.349 227.137 164.977V152.898C227.134 151.526 226.588 150.211 225.618 149.241C224.647 148.271 223.332 147.725 221.96 147.722H150.504Z" fill="#231F20"/>
<path d="M154.605 161.475C154.103 161.475 153.612 161.326 153.195 161.048C152.778 160.769 152.453 160.372 152.261 159.909C152.068 159.445 152.018 158.935 152.116 158.443C152.214 157.95 152.456 157.498 152.811 157.143C153.165 156.788 153.618 156.547 154.11 156.449C154.602 156.351 155.112 156.401 155.576 156.593C156.04 156.785 156.436 157.111 156.715 157.528C156.994 157.945 157.142 158.436 157.142 158.938C157.142 159.611 156.875 160.256 156.399 160.732C155.923 161.208 155.278 161.475 154.605 161.475V161.475ZM154.605 157.415C154.304 157.415 154.009 157.504 153.759 157.672C153.509 157.839 153.314 158.077 153.198 158.355C153.083 158.633 153.053 158.939 153.112 159.235C153.17 159.53 153.315 159.801 153.528 160.014C153.741 160.227 154.013 160.372 154.308 160.431C154.603 160.49 154.909 160.459 155.188 160.344C155.466 160.229 155.703 160.034 155.871 159.783C156.038 159.533 156.127 159.239 156.127 158.938C156.127 158.534 155.967 158.147 155.681 157.861C155.396 157.576 155.009 157.415 154.605 157.415Z" fill="#D1D3D4"/>
<path d="M163.182 161.475C162.68 161.475 162.189 161.326 161.772 161.048C161.354 160.769 161.029 160.372 160.837 159.909C160.645 159.445 160.595 158.935 160.693 158.443C160.791 157.95 161.032 157.498 161.387 157.143C161.742 156.788 162.194 156.547 162.687 156.449C163.179 156.351 163.689 156.401 164.153 156.593C164.616 156.785 165.013 157.111 165.291 157.528C165.57 157.945 165.719 158.436 165.719 158.938C165.716 159.61 165.448 160.254 164.973 160.729C164.498 161.204 163.854 161.472 163.182 161.475V161.475ZM163.182 157.415C162.88 157.415 162.586 157.504 162.336 157.672C162.085 157.839 161.89 158.077 161.775 158.355C161.66 158.633 161.63 158.939 161.688 159.235C161.747 159.53 161.892 159.801 162.105 160.014C162.318 160.227 162.589 160.372 162.885 160.431C163.18 160.49 163.486 160.459 163.764 160.344C164.042 160.229 164.28 160.034 164.447 159.783C164.615 159.533 164.704 159.239 164.704 158.938C164.701 158.535 164.54 158.149 164.255 157.864C163.97 157.579 163.585 157.418 163.182 157.415Z" fill="#D1D3D4"/>
<path d="M219.89 160.643H170.652C170.517 160.643 170.388 160.589 170.293 160.494C170.198 160.399 170.145 160.27 170.145 160.135V157.74C170.145 157.605 170.198 157.476 170.293 157.381C170.388 157.286 170.517 157.232 170.652 157.232H219.89C220.024 157.232 220.153 157.286 220.249 157.381C220.344 157.476 220.397 157.605 220.397 157.74V160.105C220.4 160.174 220.389 160.242 220.365 160.307C220.341 160.371 220.304 160.43 220.256 160.48C220.209 160.531 220.152 160.571 220.089 160.599C220.026 160.626 219.959 160.642 219.89 160.643ZM171.17 159.628H219.392V158.247H171.16L171.17 159.628Z" fill="#D1D3D4"/>
<path d="M221.96 176.122H150.494C147.349 176.122 144.8 178.671 144.8 181.816V193.904C144.8 197.049 147.349 199.599 150.494 199.599H221.96C225.105 199.599 227.654 197.049 227.654 193.904V181.816C227.654 178.671 225.105 176.122 221.96 176.122Z" fill="white"/>
<path d="M221.96 200.126H150.504C148.855 200.124 147.274 199.467 146.108 198.301C144.941 197.135 144.285 195.554 144.282 193.904V181.826C144.285 180.177 144.941 178.596 146.108 177.429C147.274 176.263 148.855 175.607 150.504 175.604H221.96C223.61 175.607 225.191 176.263 226.357 177.429C227.523 178.596 228.179 180.177 228.182 181.826V193.904C228.179 195.554 227.523 197.135 226.357 198.301C225.191 199.467 223.61 200.124 221.96 200.126V200.126ZM150.504 176.649C149.132 176.652 147.817 177.198 146.847 178.169C145.877 179.139 145.33 180.454 145.328 181.826V193.904C145.33 195.277 145.877 196.592 146.847 197.562C147.817 198.532 149.132 199.078 150.504 199.081H221.96C223.332 199.078 224.647 198.532 225.618 197.562C226.588 196.592 227.134 195.277 227.137 193.904V181.826C227.134 180.454 226.588 179.139 225.618 178.169C224.647 177.198 223.332 176.652 221.96 176.649H150.504Z" fill="#231F20"/>
<path d="M154.605 190.403C154.103 190.403 153.612 190.254 153.195 189.975C152.778 189.696 152.453 189.3 152.261 188.836C152.068 188.373 152.018 187.862 152.116 187.37C152.214 186.878 152.456 186.426 152.811 186.071C153.165 185.716 153.618 185.474 154.11 185.376C154.602 185.278 155.112 185.329 155.576 185.521C156.04 185.713 156.436 186.038 156.715 186.455C156.994 186.873 157.142 187.363 157.142 187.865C157.142 188.538 156.875 189.184 156.399 189.659C155.923 190.135 155.278 190.403 154.605 190.403ZM154.605 186.343C154.304 186.343 154.009 186.432 153.759 186.599C153.509 186.767 153.314 187.004 153.198 187.282C153.083 187.561 153.053 187.867 153.112 188.162C153.17 188.458 153.315 188.729 153.528 188.942C153.741 189.155 154.013 189.3 154.308 189.358C154.603 189.417 154.909 189.387 155.188 189.272C155.466 189.157 155.703 188.961 155.871 188.711C156.038 188.461 156.127 188.166 156.127 187.865C156.127 187.461 155.967 187.074 155.681 186.789C155.396 186.503 155.009 186.343 154.605 186.343Z" fill="#D1D3D4"/>
<path d="M163.182 190.403C162.68 190.403 162.189 190.254 161.772 189.975C161.354 189.696 161.029 189.3 160.837 188.836C160.645 188.373 160.595 187.862 160.693 187.37C160.791 186.878 161.032 186.426 161.387 186.071C161.742 185.716 162.194 185.474 162.687 185.376C163.179 185.278 163.689 185.329 164.153 185.521C164.616 185.713 165.013 186.038 165.291 186.455C165.57 186.873 165.719 187.363 165.719 187.865C165.716 188.537 165.448 189.181 164.973 189.656C164.498 190.132 163.854 190.4 163.182 190.403V190.403ZM163.182 186.343C162.88 186.343 162.586 186.432 162.336 186.599C162.085 186.767 161.89 187.004 161.775 187.282C161.66 187.561 161.63 187.867 161.688 188.162C161.747 188.458 161.892 188.729 162.105 188.942C162.318 189.155 162.589 189.3 162.885 189.358C163.18 189.417 163.486 189.387 163.764 189.272C164.042 189.157 164.28 188.961 164.447 188.711C164.615 188.461 164.704 188.166 164.704 187.865C164.701 187.462 164.54 187.076 164.255 186.792C163.97 186.507 163.585 186.345 163.182 186.343Z" fill="#D1D3D4"/>
<path d="M219.89 189.54H170.652C170.517 189.54 170.388 189.487 170.293 189.391C170.198 189.296 170.145 189.167 170.145 189.033V186.637C170.145 186.503 170.198 186.373 170.293 186.278C170.388 186.183 170.517 186.13 170.652 186.13H219.89C220.024 186.13 220.153 186.183 220.249 186.278C220.344 186.373 220.397 186.503 220.397 186.637V189.033C220.395 189.166 220.34 189.294 220.246 189.389C220.151 189.483 220.023 189.537 219.89 189.54V189.54ZM171.17 188.525H219.392V187.145H171.16L171.17 188.525Z" fill="#D1D3D4"/>
<path d="M221.96 205.049H150.494C147.349 205.049 144.8 207.599 144.8 210.743V222.832C144.8 225.977 147.349 228.526 150.494 228.526H221.96C225.105 228.526 227.654 225.977 227.654 222.832V210.743C227.654 207.599 225.105 205.049 221.96 205.049Z" fill="white"/>
<path d="M221.96 229.054H150.504C148.855 229.051 147.274 228.395 146.108 227.229C144.941 226.062 144.285 224.481 144.282 222.832V210.753C144.285 209.104 144.941 207.523 146.108 206.357C147.274 205.191 148.855 204.534 150.504 204.531H221.96C223.61 204.534 225.191 205.191 226.357 206.357C227.523 207.523 228.179 209.104 228.182 210.753V222.832C228.179 224.481 227.523 226.062 226.357 227.229C225.191 228.395 223.61 229.051 221.96 229.054V229.054ZM150.504 205.577C149.132 205.58 147.817 206.126 146.847 207.096C145.877 208.066 145.33 209.381 145.328 210.753V222.832C145.33 224.204 145.877 225.519 146.847 226.489C147.817 227.46 149.132 228.006 150.504 228.008H221.96C223.332 228.006 224.647 227.46 225.618 226.489C226.588 225.519 227.134 224.204 227.137 222.832V210.753C227.134 209.381 226.588 208.066 225.618 207.096C224.647 206.126 223.332 205.58 221.96 205.577H150.504Z" fill="#231F20"/>
<path d="M154.605 219.33C154.103 219.33 153.612 219.182 153.195 218.903C152.778 218.624 152.453 218.228 152.261 217.764C152.068 217.3 152.018 216.79 152.116 216.298C152.214 215.806 152.456 215.353 152.811 214.999C153.165 214.644 153.618 214.402 154.11 214.304C154.602 214.206 155.112 214.256 155.576 214.449C156.04 214.641 156.436 214.966 156.715 215.383C156.994 215.8 157.142 216.291 157.142 216.793C157.142 217.466 156.875 218.111 156.399 218.587C155.923 219.063 155.278 219.33 154.605 219.33ZM154.605 215.27C154.304 215.27 154.009 215.36 153.759 215.527C153.509 215.694 153.314 215.932 153.198 216.21C153.083 216.488 153.053 216.795 153.112 217.09C153.17 217.385 153.315 217.657 153.528 217.869C153.741 218.082 154.013 218.227 154.308 218.286C154.603 218.345 154.909 218.315 155.188 218.199C155.466 218.084 155.703 217.889 155.871 217.639C156.038 217.388 156.127 217.094 156.127 216.793C156.127 216.389 155.967 216.002 155.681 215.716C155.396 215.431 155.009 215.27 154.605 215.27V215.27Z" fill="#D1D3D4"/>
<path d="M163.182 219.33C162.68 219.33 162.189 219.182 161.772 218.903C161.354 218.624 161.029 218.228 160.837 217.764C160.645 217.3 160.595 216.79 160.693 216.298C160.791 215.806 161.032 215.353 161.387 214.999C161.742 214.644 162.194 214.402 162.687 214.304C163.179 214.206 163.689 214.256 164.153 214.449C164.616 214.641 165.013 214.966 165.291 215.383C165.57 215.8 165.719 216.291 165.719 216.793C165.716 217.465 165.448 218.109 164.973 218.584C164.498 219.059 163.854 219.328 163.182 219.33V219.33ZM163.182 215.27C162.88 215.27 162.586 215.36 162.336 215.527C162.085 215.694 161.89 215.932 161.775 216.21C161.66 216.488 161.63 216.795 161.688 217.09C161.747 217.385 161.892 217.657 162.105 217.869C162.318 218.082 162.589 218.227 162.885 218.286C163.18 218.345 163.486 218.315 163.764 218.199C164.042 218.084 164.28 217.889 164.447 217.639C164.615 217.388 164.704 217.094 164.704 216.793C164.701 216.39 164.54 216.004 164.255 215.719C163.97 215.434 163.585 215.273 163.182 215.27V215.27Z" fill="#D1D3D4"/>
<path d="M219.89 218.498H170.652C170.517 218.498 170.388 218.445 170.293 218.349C170.198 218.254 170.145 218.125 170.145 217.991V215.595C170.145 215.461 170.198 215.331 170.293 215.236C170.388 215.141 170.517 215.088 170.652 215.088H219.89C220.024 215.088 220.153 215.141 220.249 215.236C220.344 215.331 220.397 215.461 220.397 215.595V217.96C220.4 218.029 220.389 218.098 220.365 218.162C220.341 218.227 220.304 218.286 220.256 218.336C220.209 218.386 220.152 218.426 220.089 218.454C220.026 218.482 219.959 218.497 219.89 218.498ZM171.17 217.483H219.392V216.103H171.16L171.17 217.483Z" fill="#D1D3D4"/>
<path d="M161.578 228.526H153.001V232.018H161.578V228.526Z" fill="#231F20"/>
<path d="M161.578 232.545H153.001C152.864 232.545 152.732 232.491 152.635 232.394C152.538 232.297 152.483 232.165 152.483 232.028V228.526C152.483 228.389 152.538 228.257 152.635 228.16C152.732 228.063 152.864 228.008 153.001 228.008H161.578C161.647 228.007 161.715 228.019 161.779 228.045C161.843 228.07 161.901 228.108 161.95 228.156C162 228.205 162.039 228.262 162.065 228.326C162.092 228.389 162.106 228.457 162.106 228.526V232.028C162.106 232.097 162.092 232.165 162.065 232.228C162.039 232.292 162 232.349 161.95 232.397C161.901 232.446 161.843 232.484 161.779 232.509C161.715 232.534 161.647 232.547 161.578 232.545V232.545ZM153.529 231.53H161.06V229.084H153.529V231.53Z" fill="#231F20"/>
<path d="M219.453 228.526H210.876V232.018H219.453V228.526Z" fill="#231F20"/>
<path d="M219.453 232.545H210.876C210.739 232.545 210.607 232.491 210.51 232.394C210.413 232.297 210.359 232.165 210.359 232.028V228.526C210.359 228.389 210.413 228.257 210.51 228.16C210.607 228.063 210.739 228.008 210.876 228.008H219.453C219.522 228.007 219.59 228.019 219.654 228.045C219.718 228.07 219.777 228.108 219.826 228.156C219.875 228.205 219.914 228.262 219.94 228.326C219.967 228.389 219.981 228.457 219.981 228.526V232.028C219.981 232.097 219.967 232.165 219.94 232.228C219.914 232.292 219.875 232.349 219.826 232.397C219.777 232.446 219.718 232.484 219.654 232.509C219.59 232.534 219.522 232.547 219.453 232.545V232.545ZM211.404 231.53H218.935V229.084H211.404V231.53Z" fill="#231F20"/>
<path d="M346.054 205.242H333.092C332.959 205.24 332.831 205.185 332.736 205.091C332.642 204.996 332.588 204.868 332.585 204.735V194.443C332.585 194.308 332.638 194.179 332.734 194.084C332.829 193.989 332.958 193.935 333.092 193.935H346.054C346.189 193.935 346.318 193.989 346.413 194.084C346.508 194.179 346.561 194.308 346.561 194.443V204.765C346.554 204.894 346.497 205.016 346.403 205.104C346.308 205.193 346.183 205.242 346.054 205.242V205.242ZM333.6 204.227H345.546V194.95H333.6V204.227Z" fill="#D1D3D4"/>
<path d="M339.578 202.816C338.937 202.818 338.31 202.63 337.776 202.275C337.242 201.92 336.825 201.414 336.579 200.822C336.332 200.23 336.267 199.578 336.392 198.949C336.517 198.32 336.825 197.742 337.279 197.289C337.732 196.835 338.31 196.527 338.939 196.402C339.568 196.278 340.22 196.343 340.812 196.589C341.404 196.835 341.91 197.252 342.265 197.786C342.62 198.32 342.808 198.947 342.806 199.589C342.806 200.445 342.466 201.266 341.861 201.871C341.255 202.476 340.434 202.816 339.578 202.816ZM339.578 197.366C339.138 197.364 338.707 197.492 338.341 197.735C337.974 197.978 337.687 198.325 337.517 198.731C337.348 199.137 337.302 199.584 337.387 200.016C337.471 200.448 337.682 200.845 337.993 201.157C338.303 201.469 338.699 201.681 339.131 201.768C339.562 201.855 340.01 201.811 340.416 201.643C340.823 201.475 341.171 201.19 341.416 200.825C341.66 200.459 341.791 200.029 341.791 199.589C341.791 199.001 341.558 198.437 341.144 198.02C340.729 197.604 340.166 197.368 339.578 197.366V197.366Z" fill="#D1D3D4"/>
<path d="M106.575 67.6689C106.088 66.9284 105.376 66.363 104.545 66.055C104.138 65.9087 103.69 65.9265 103.296 66.1045C102.902 66.2826 102.593 66.607 102.434 67.0091C100.404 63.8423 95.9988 63.1318 92.2839 63.8119C86.0924 64.9588 81.7583 67.3542 79.9922 73.7386C79.3325 76.1441 79.2005 78.6918 78.3479 81.0364C77.3821 83.2813 76.1484 85.4011 74.6736 87.3497C74.4945 87.5635 74.3942 87.8322 74.3894 88.111C74.4439 88.3901 74.5992 88.6395 74.8259 88.8113C75.6957 89.7746 76.7807 90.5188 77.9926 90.9834C78.5974 91.2122 79.2528 91.2727 79.8892 91.1583C80.5255 91.0439 81.1189 90.7589 81.6061 90.3338C81.2956 90.725 81.1267 91.2097 81.1267 91.7091C81.1267 92.2085 81.2956 92.6933 81.6061 93.0845C82.261 93.8462 83.1316 94.3912 84.103 94.6476C90.3046 96.6776 97.9882 94.5664 102.85 90.415C106.016 87.6744 108.281 84.0409 109.346 79.991C110.635 75.3423 109.498 71.5259 106.575 67.6689Z" fill="white"/>
<path d="M89.32 95.9468C87.5252 95.9609 85.7398 95.6867 84.0319 95.1348C82.964 94.8409 82.0091 94.2326 81.2914 93.389C80.8833 92.8453 80.669 92.1807 80.6824 91.5011C79.7691 91.8002 78.7842 91.8002 77.8708 91.5011C76.5884 91.007 75.4383 90.2217 74.5112 89.2072C74.1997 88.9503 73.9908 88.5901 73.9225 88.1922C73.9178 87.7992 74.0467 87.4163 74.2879 87.1061L74.9375 86.152C76.14 84.5276 77.1387 82.7619 77.9114 80.8943C78.3645 79.5723 78.7041 78.214 78.9264 76.8343C79.1091 75.8193 79.302 74.7231 79.5862 73.6777C81.6162 66.2986 87.1479 64.3295 92.2737 63.3856C95.542 62.7766 100.038 63.1826 102.424 66.1667C102.556 66.0417 102.702 65.9327 102.86 65.8419C103.141 65.6869 103.45 65.5892 103.769 65.5544C104.087 65.5195 104.41 65.5482 104.718 65.6389C105.631 65.9855 106.412 66.6105 106.951 67.4253C110.229 71.6984 111.153 75.6366 109.996 80.194C108.897 84.3402 106.577 88.0604 103.337 90.8718C99.3942 94.1368 94.4394 95.9307 89.32 95.9468V95.9468ZM81.6466 89.8568C81.7787 89.858 81.9054 89.9087 82.0019 89.9989C82.0925 90.0949 82.143 90.222 82.143 90.3541C82.143 90.4862 82.0925 90.6133 82.0019 90.7094C81.782 91.0196 81.6708 91.3938 81.6855 91.7737C81.7002 92.1536 81.84 92.5181 82.0831 92.8104C82.6936 93.4605 83.4801 93.9189 84.3465 94.1299C90.0204 96.028 97.5415 94.3228 102.617 89.9887C105.7 87.317 107.91 83.781 108.96 79.8387C110.087 75.6163 109.214 71.9522 106.149 67.9531C105.735 67.3135 105.137 66.8145 104.433 66.5219C104.074 66.4202 103.689 66.4601 103.357 66.6336C103.26 66.6829 103.174 66.7516 103.104 66.8353C103.034 66.9191 102.982 67.0162 102.951 67.1208C102.924 67.2161 102.871 67.3019 102.797 67.3684C102.724 67.4348 102.633 67.4791 102.535 67.4963C102.439 67.5106 102.34 67.496 102.251 67.4545C102.163 67.413 102.089 67.3463 102.038 67.2629C100.008 64.1265 95.613 63.7002 92.4259 64.2889C85.5036 65.5678 82.0628 68.3489 80.5301 73.8604C80.2561 74.8754 80.0734 75.8904 79.8907 76.9054C79.6802 78.3538 79.3405 79.7805 78.8757 81.1684C78.0903 83.1138 77.0676 84.9548 75.8307 86.6494L75.11 87.6339C75.039 87.7557 74.8969 87.9587 74.9172 88.0602C74.9375 88.1617 75.0999 88.3546 75.2014 88.4561C76.0267 89.344 77.0391 90.0374 78.1652 90.4861C78.6836 90.6788 79.2437 90.7316 79.7889 90.6389C80.3342 90.5462 80.8454 90.3115 81.2711 89.9583C81.32 89.9129 81.3776 89.8778 81.4404 89.8552C81.5031 89.8325 81.5698 89.8227 81.6365 89.8263L81.6466 89.8568Z" fill="#231F20"/>
<path d="M106.26 79.6257C106.26 79.6257 109.924 84.8936 109.224 86.0202C108.524 87.1469 106.067 86.477 106.067 86.477" fill="white"/>
<path d="M107.59 87.1874C107.038 87.1807 106.489 87.1057 105.956 86.9641C105.821 86.9278 105.707 86.8395 105.637 86.7186C105.568 86.5977 105.549 86.4542 105.585 86.3196C105.622 86.185 105.71 86.0703 105.831 86.0009C105.952 85.9314 106.095 85.9128 106.23 85.9491C106.91 86.1318 108.443 86.3247 108.828 85.7157C109.214 85.1067 107.681 82.4778 105.875 79.8794C105.836 79.8249 105.808 79.7631 105.793 79.6978C105.778 79.6325 105.776 79.5648 105.787 79.4988C105.799 79.4327 105.823 79.3696 105.859 79.3129C105.895 79.2563 105.941 79.2074 105.996 79.1689C106.107 79.0929 106.244 79.0631 106.376 79.0858C106.509 79.1086 106.628 79.182 106.707 79.2907C107.864 80.9655 110.483 84.9747 109.681 86.2536C109.442 86.5758 109.124 86.8309 108.758 86.9945C108.392 87.1581 107.989 87.2245 107.59 87.1874V87.1874Z" fill="#231F20"/>
<path d="M105.327 72.5612C107.631 74.3476 107.072 78.2554 107.113 80.7827C107.174 84.3454 107.113 87.8877 107.042 91.4605C106.981 93.724 101.135 93.9067 100.089 93.2571L101.226 102.148C101.226 102.148 98.4347 102.991 93.6743 100.92C88.914 98.8497 88.8328 97.7434 88.8328 97.7434L88.9749 87.4411C88.9749 87.4411 92.8319 87.3802 95.004 82.7315C97.1761 78.0828 96.902 71.0184 96.902 71.0184C96.902 71.0184 103.083 70.785 105.327 72.5612Z" fill="white"/>
<path d="M99.6223 102.828C97.4953 102.771 95.4025 102.28 93.4713 101.387C88.914 99.3572 88.3963 98.2001 88.3354 97.7738L88.4674 87.4411C88.4699 87.309 88.5228 87.1829 88.6152 87.0885C88.7077 86.9942 88.8327 86.9387 88.9648 86.9336C89.1069 86.9336 92.5477 86.8016 94.5473 82.5183C96.6382 78.0219 96.425 71.0996 96.425 71.0285C96.4257 70.8934 96.4763 70.7632 96.5671 70.6631C96.6614 70.5684 96.7887 70.5139 96.9223 70.5109C97.1761 70.5109 103.307 70.3282 105.672 72.1653C107.783 73.7995 107.702 76.9155 107.702 79.4124C107.702 79.8996 107.702 80.3564 107.702 80.7725C107.702 84.3352 107.702 87.9384 107.631 91.4808C107.602 91.8701 107.466 92.2438 107.236 92.5595C107.007 92.8753 106.693 93.1204 106.331 93.2672C104.584 94.0197 102.66 94.2659 100.779 93.9777L101.794 102.098C101.809 102.216 101.782 102.336 101.717 102.436C101.652 102.537 101.553 102.611 101.439 102.646C100.846 102.795 100.234 102.857 99.6223 102.828V102.828ZM89.32 97.6621C89.4114 97.8448 90.0914 98.8192 93.8469 100.453C95.9499 101.485 98.2922 101.93 100.627 101.742L99.6121 93.3281C99.5966 93.2331 99.6091 93.1356 99.6479 93.0475C99.6868 92.9594 99.7504 92.8845 99.831 92.8318C99.9116 92.7792 100.006 92.751 100.102 92.7508C100.198 92.7506 100.293 92.7784 100.373 92.8307C102.179 93.2668 104.077 93.1066 105.783 92.374C106.291 92.1101 106.545 91.7954 106.555 91.4503C106.656 87.9181 106.677 84.3453 106.626 80.7928C106.626 80.3564 106.626 79.8895 106.626 79.3921C106.626 77.1185 106.737 74.3171 105.022 72.9672C103.459 71.739 99.3989 71.5056 97.4298 71.5157C97.44 73.2514 97.3385 78.9049 95.4608 82.9649C93.583 87.0249 90.6497 87.7456 89.4723 87.9181L89.32 97.6621Z" fill="#231F20"/>
<path d="M106.89 88.8114C106.89 88.8114 104.18 90.5775 102.637 87.7964Z" fill="white"/>
<path d="M105.042 89.8669C104.789 89.866 104.537 89.8354 104.291 89.7756C103.84 89.6485 103.419 89.4285 103.058 89.1296C102.696 88.8307 102.4 88.4596 102.19 88.0399C102.126 87.9215 102.111 87.7822 102.149 87.6528C102.187 87.5233 102.275 87.4143 102.393 87.3497C102.512 87.2851 102.651 87.2702 102.78 87.3083C102.91 87.3463 103.019 87.4343 103.083 87.5527C103.229 87.8482 103.434 88.1106 103.686 88.3236C103.937 88.5366 104.23 88.6957 104.545 88.791C105.265 88.9093 106.003 88.7652 106.626 88.385C106.681 88.3478 106.744 88.3221 106.81 88.3096C106.875 88.2971 106.943 88.2979 107.008 88.3121C107.074 88.3264 107.136 88.3536 107.19 88.3923C107.245 88.431 107.291 88.4803 107.326 88.5373C107.4 88.6491 107.426 88.7855 107.399 88.9167C107.373 89.0479 107.295 89.1632 107.184 89.2376C106.537 89.6308 105.799 89.8477 105.042 89.8669V89.8669Z" fill="#231F20"/>
<path d="M99.47 82.0717C99.3561 81.1896 99.0053 80.3548 98.455 79.656C98.0913 79.0662 97.6434 78.5328 97.1253 78.0726C96.8655 77.843 96.5569 77.6753 96.2229 77.5822C95.8888 77.489 95.538 77.4728 95.1968 77.5347C94.9014 77.6172 94.6266 77.7611 94.3905 77.957C94.1544 78.1529 93.9623 78.3963 93.8266 78.6715C93.5584 79.2252 93.4196 79.8325 93.4206 80.4477C93.3974 81.7873 93.7252 83.1096 94.3716 84.283C95.018 85.4565 95.9604 86.4403 97.105 87.1366L96.9122 86.9234" fill="white"/>
<path d="M97.0948 87.6442C97.0025 87.6412 96.9122 87.6169 96.8309 87.5731C95.614 86.8328 94.6108 85.7883 93.9203 84.5425C93.2297 83.2967 92.8756 81.8925 92.8927 80.4681C92.8878 79.7655 93.0441 79.071 93.3494 78.4381C93.5185 78.0974 93.7578 77.7963 94.0518 77.5549C94.3457 77.3134 94.6875 77.1371 95.0546 77.0374C95.4715 76.9564 95.9014 76.9719 96.3113 77.0827C96.7213 77.1936 97.1004 77.3968 97.4196 77.6769C97.9792 78.1667 98.4617 78.7381 98.8507 79.3719C99.477 80.1398 99.8745 81.0684 99.9977 82.0515C100 82.1182 99.99 82.1847 99.9669 82.2474C99.9439 82.31 99.9088 82.3674 99.8635 82.4165C99.8183 82.4655 99.7638 82.5051 99.7032 82.5331C99.6426 82.561 99.5771 82.5767 99.5105 82.5793C99.3773 82.5797 99.2488 82.5297 99.1509 82.4394C99.053 82.349 98.9929 82.225 98.9827 82.0921C98.8471 81.2957 98.4961 80.5515 97.9677 79.9403C97.638 79.3913 97.2274 78.8951 96.7497 78.4686C96.5476 78.2886 96.3079 78.1559 96.048 78.0804C95.7881 78.0049 95.5146 77.9884 95.2475 78.0321C95.0263 78.0977 94.8214 78.2094 94.6465 78.3599C94.4716 78.5103 94.3304 78.6961 94.2325 78.905C94.0004 79.3932 93.8824 79.9277 93.8874 80.4681C93.8736 81.6323 94.1436 82.7824 94.6742 83.8187C95.2047 84.8551 95.9798 85.7466 96.9324 86.416C97.0589 86.4241 97.1781 86.4782 97.2673 86.5683L97.4703 86.7814C97.551 86.8724 97.5955 86.9898 97.5955 87.1113C97.5955 87.2329 97.551 87.3502 97.4703 87.4412C97.4262 87.5003 97.3698 87.549 97.3049 87.5841C97.2401 87.6192 97.1684 87.6397 97.0948 87.6442V87.6442Z" fill="#231F20"/>
<path d="M100.089 93.2571C98.3389 92.7432 96.7742 91.7353 95.5825 90.3542C95.5825 90.3542 95.9175 95.7642 100.597 97.2157L100.089 93.2571Z" fill="#231F20"/>
<path d="M100.597 97.723C100.546 97.7328 100.495 97.7328 100.444 97.723C95.4811 96.1802 95.0853 90.618 95.0751 90.4048C95.0707 90.2966 95.101 90.1897 95.1616 90.0999C95.2223 90.0101 95.3101 89.9421 95.4122 89.9058C95.5143 89.8695 95.6253 89.8668 95.729 89.8982C95.8328 89.9295 95.9237 89.9933 95.9886 90.08C97.1134 91.3719 98.5863 92.3127 100.231 92.7901C100.326 92.8196 100.411 92.8752 100.475 92.9506C100.54 93.026 100.582 93.1181 100.597 93.2164L101.094 97.1749C101.105 97.2593 101.095 97.3452 101.065 97.4249C101.035 97.5046 100.986 97.5756 100.922 97.6316C100.826 97.6955 100.712 97.7274 100.597 97.723ZM96.4251 91.907C96.6578 92.8806 97.101 93.7913 97.7235 94.5752C98.346 95.359 99.1328 95.997 100.028 96.4441L99.6731 93.6427C98.5011 93.2497 97.4032 92.663 96.4251 91.907V91.907Z" fill="#231F20"/>
<path d="M104.649 77.2743C104.749 76.5807 104.61 75.9867 104.338 75.9476C104.066 75.9084 103.765 76.4389 103.665 77.1324C103.565 77.826 103.704 78.4199 103.976 78.4591C104.248 78.4983 104.549 77.9678 104.649 77.2743Z" fill="#231F20"/>
<path d="M122.967 111.385C120.552 112.319 119.293 110.959 118.268 107.599C118.102 107.002 118.047 106.379 118.105 105.762C118.202 104.858 118.365 103.962 118.593 103.082C119.244 100.617 120.1 98.2098 121.15 95.886C121.404 95.2973 121.902 94.597 122.5 94.8C123.099 95.003 123.099 95.6526 123.089 96.1905C123.089 97.713 122.835 99.2355 122.876 100.768C126.083 99.946 128.093 96.5559 131.138 95.8353C132.001 95.6221 133.056 95.5612 133.168 96.6777C133.28 98.048 130.793 99.1239 129.971 99.8445C130.895 99.0451 131.958 98.4223 133.107 98.0074C133.426 97.8671 133.775 97.8111 134.122 97.845C134.297 97.868 134.46 97.9482 134.584 98.0729C134.709 98.1977 134.789 98.3602 134.812 98.5352C134.804 98.6783 134.767 98.8183 134.705 98.9473C134.642 99.0762 134.554 99.1914 134.447 99.2863C133.978 99.83 133.45 100.32 132.874 100.748C133.447 100.075 134.23 99.6138 135.097 99.4385C135.309 99.3678 135.538 99.3609 135.754 99.4186C135.971 99.4763 136.165 99.5962 136.315 99.7633C136.67 100.352 135.99 101.002 135.391 101.337C135.862 100.919 136.437 100.635 137.055 100.514C137.364 100.463 137.681 100.532 137.94 100.708C138.199 100.884 138.38 101.153 138.446 101.458C138.434 101.701 138.368 101.937 138.254 102.151C138.14 102.365 137.98 102.551 137.786 102.697C134.63 105.792 127.027 109.802 122.967 111.385Z" fill="white"/>
<path d="M121.617 112.167C121.196 112.17 120.779 112.076 120.399 111.893C119.303 111.355 118.491 110.076 117.78 107.731C117.593 107.072 117.531 106.383 117.598 105.701C117.695 104.77 117.861 103.847 118.095 102.94C118.749 100.442 119.615 98.0036 120.683 95.6526C121.15 94.5564 121.912 94.0387 122.663 94.2925C123.109 94.4447 123.678 94.8913 123.596 96.1702C123.596 96.83 123.536 97.4796 123.485 98.1393C123.434 98.7991 123.393 99.4081 123.373 100.037C124.61 99.4777 125.753 98.7315 126.763 97.8247C127.978 96.6772 129.435 95.817 131.026 95.3075C131.358 95.1941 131.709 95.15 132.058 95.1779C132.407 95.2059 132.747 95.3052 133.056 95.4699C133.229 95.6054 133.37 95.7776 133.469 95.9743C133.567 96.1709 133.62 96.3869 133.625 96.6067C133.651 96.8507 133.62 97.0975 133.533 97.3273C133.751 97.2866 133.975 97.2866 134.193 97.3273C134.481 97.3711 134.746 97.5097 134.947 97.7211C135.147 97.9325 135.271 98.2047 135.299 98.4946C135.324 98.622 135.324 98.7529 135.299 98.8803C135.578 98.828 135.865 98.8567 136.128 98.9628C136.391 99.0689 136.617 99.2481 136.781 99.4791C136.875 99.6368 136.93 99.814 136.944 99.9968H137.025C137.535 99.9454 138.044 100.095 138.446 100.413C138.6 100.536 138.728 100.69 138.82 100.865C138.913 101.039 138.969 101.231 138.984 101.428C138.981 101.744 138.908 102.056 138.769 102.341C138.631 102.625 138.43 102.875 138.182 103.072C134.934 106.269 127.25 110.299 123.18 111.872C122.682 112.066 122.152 112.166 121.617 112.167V112.167ZM122.297 95.2567C122.104 95.2567 121.81 95.6018 121.617 96.0687C120.574 98.3608 119.728 100.738 119.09 103.174C118.861 104.026 118.702 104.895 118.613 105.772C118.557 106.327 118.602 106.888 118.745 107.427C119.364 109.457 120.034 110.573 120.846 110.969C121.156 111.093 121.49 111.149 121.824 111.135C122.158 111.121 122.485 111.037 122.784 110.888C126.844 109.314 134.406 105.285 137.431 102.311C137.664 102.088 137.969 101.753 137.938 101.469C137.932 101.41 137.913 101.354 137.884 101.303C137.854 101.252 137.814 101.208 137.766 101.174C137.578 101.03 137.342 100.961 137.106 100.981C136.782 101.043 136.475 101.171 136.203 101.357C136.028 101.504 135.841 101.636 135.644 101.753C135.532 101.817 135.398 101.836 135.272 101.805C135.146 101.774 135.036 101.696 134.966 101.586C134.896 101.477 134.87 101.345 134.894 101.217C134.919 101.09 134.991 100.976 135.096 100.9L135.584 100.545C135.725 100.438 135.834 100.294 135.898 100.129C135.915 100.086 135.915 100.039 135.898 99.9968C135.827 99.875 135.543 99.8445 135.218 99.9054C134.861 99.9825 134.518 100.116 134.203 100.301C133.88 100.593 133.541 100.868 133.188 101.123C133.087 101.197 132.963 101.232 132.839 101.223C132.714 101.213 132.597 101.16 132.508 101.073C132.424 100.979 132.377 100.858 132.377 100.733C132.377 100.607 132.424 100.486 132.508 100.393C132.796 100.039 133.138 99.7339 133.523 99.4893C133.706 99.3066 133.889 99.1239 134.061 98.9209C134.234 98.7179 134.305 98.6468 134.295 98.525C134.284 98.4032 134.163 98.3423 134.02 98.3119C133.756 98.3032 133.493 98.3516 133.249 98.454C132.844 98.6057 132.448 98.7784 132.062 98.9716C131.757 99.1949 131.432 99.4081 131.128 99.6009C130.83 99.7851 130.542 99.985 130.265 100.2C130.163 100.287 130.03 100.331 129.896 100.32C129.761 100.31 129.637 100.246 129.549 100.144C129.462 100.042 129.419 99.9088 129.429 99.7746C129.44 99.6404 129.503 99.5159 129.605 99.4284C130.192 98.9236 130.832 98.4846 131.513 98.119C132.122 97.6724 132.671 97.104 132.63 96.6879C132.635 96.6139 132.623 96.5398 132.595 96.4712C132.566 96.4026 132.523 96.3413 132.468 96.292C132.356 96.2108 132.051 96.1093 131.25 96.292C129.808 96.7723 128.491 97.5661 127.393 98.6164C126.135 99.7977 124.635 100.691 122.998 101.235C122.923 101.256 122.844 101.258 122.768 101.242C122.692 101.226 122.621 101.193 122.561 101.144C122.501 101.099 122.452 101.041 122.419 100.974C122.385 100.907 122.368 100.833 122.368 100.758C122.356 99.8603 122.39 98.9625 122.47 98.0683C122.47 97.4288 122.571 96.7995 122.581 96.1601C122.592 95.5206 122.5 95.3176 122.338 95.2669L122.297 95.2567Z" fill="#231F20"/>
<path d="M123.028 100.89C123.752 101.776 124.154 102.881 124.171 104.026C124.188 105.17 123.817 106.286 123.119 107.193H123.434" fill="white"/>
<path d="M123.12 107.701C123.023 107.704 122.927 107.68 122.844 107.63C122.761 107.58 122.694 107.507 122.652 107.419C122.61 107.332 122.594 107.234 122.607 107.138C122.62 107.042 122.66 106.952 122.724 106.878C123.35 106.065 123.683 105.064 123.669 104.038C123.654 103.011 123.292 102.02 122.643 101.225C122.549 101.128 122.497 100.999 122.497 100.865C122.497 100.73 122.549 100.601 122.643 100.504C122.689 100.457 122.744 100.419 122.805 100.394C122.866 100.368 122.932 100.355 122.998 100.355C123.064 100.355 123.129 100.368 123.19 100.394C123.251 100.419 123.307 100.457 123.353 100.504C124.081 101.395 124.519 102.487 124.608 103.634C124.697 104.78 124.432 105.927 123.85 106.919C123.862 106.979 123.862 107.041 123.85 107.102C123.856 107.235 123.809 107.365 123.72 107.463C123.631 107.562 123.506 107.622 123.373 107.63H123.059L123.12 107.701Z" fill="#231F20"/>
<path d="M200.128 83.9597H128.661C125.517 83.9597 122.967 86.5091 122.967 89.6539V101.743C122.967 104.887 125.517 107.437 128.661 107.437H200.128C203.272 107.437 205.822 104.887 205.822 101.743V89.6539C205.822 86.5091 203.272 83.9597 200.128 83.9597Z" fill="white"/>
<path d="M200.128 107.964H128.662C127.013 107.962 125.433 107.305 124.268 106.138C123.104 104.972 122.45 103.391 122.45 101.742V89.6538C122.45 88.0054 123.104 86.4244 124.268 85.2578C125.433 84.0913 127.013 83.4346 128.662 83.4319H200.128C201.776 83.4346 203.356 84.0913 204.521 85.2578C205.685 86.4244 206.339 88.0054 206.339 89.6538V101.742C206.339 103.391 205.685 104.972 204.521 106.138C203.356 107.305 201.776 107.962 200.128 107.964ZM128.662 84.4875C127.291 84.4875 125.977 85.0318 125.008 86.0007C124.039 86.9696 123.495 88.2836 123.495 89.6538V101.742C123.495 103.113 124.039 104.427 125.008 105.396C125.977 106.365 127.291 106.909 128.662 106.909H200.128C201.498 106.909 202.812 106.365 203.781 105.396C204.75 104.427 205.294 103.113 205.294 101.742V89.6538C205.294 88.2836 204.75 86.9696 203.781 86.0007C202.812 85.0318 201.498 84.4875 200.128 84.4875H128.662Z" fill="#231F20"/>
<path d="M132.772 98.2408C132.268 98.2428 131.774 98.0951 131.354 97.8164C130.934 97.5377 130.606 97.1405 130.411 96.6751C130.217 96.2098 130.165 95.6972 130.262 95.2024C130.359 94.7075 130.601 94.2526 130.957 93.8953C131.313 93.538 131.767 93.2943 132.261 93.1952C132.756 93.0961 133.268 93.1459 133.735 93.3385C134.201 93.531 134.599 93.8575 134.88 94.2767C135.16 94.6959 135.31 95.1888 135.31 95.6931C135.307 96.3662 135.039 97.0112 134.564 97.4881C134.089 97.965 133.445 98.2355 132.772 98.2408V98.2408ZM132.772 94.1808C132.468 94.1788 132.17 94.2672 131.917 94.4348C131.663 94.6025 131.465 94.8418 131.348 95.1222C131.231 95.4027 131.2 95.7117 131.258 96.0099C131.317 96.3082 131.463 96.5822 131.678 96.7972C131.893 97.0121 132.167 97.1583 132.466 97.2171C132.764 97.2759 133.073 97.2447 133.353 97.1274C133.634 97.0102 133.873 96.8122 134.041 96.5586C134.208 96.305 134.297 96.0073 134.295 95.7033C134.3 95.4995 134.265 95.2966 134.191 95.1066C134.117 94.9167 134.006 94.7433 133.864 94.5968C133.722 94.4503 133.553 94.3336 133.365 94.2534C133.178 94.1733 132.976 94.1313 132.772 94.13V94.1808Z" fill="#D1D3D4"/>
<path d="M141.339 98.2408C140.834 98.2428 140.341 98.0951 139.921 97.8164C139.5 97.5377 139.172 97.1405 138.978 96.6751C138.783 96.2098 138.732 95.6972 138.829 95.2024C138.926 94.7075 139.168 94.2526 139.524 93.8953C139.879 93.538 140.333 93.2943 140.828 93.1952C141.322 93.0961 141.835 93.1459 142.301 93.3385C142.767 93.531 143.166 93.8575 143.446 94.2767C143.727 94.6959 143.876 95.1888 143.876 95.6931C143.876 96.3671 143.609 97.0135 143.134 97.491C142.658 97.9685 142.013 98.2381 141.339 98.2408ZM141.339 94.1808C141.035 94.1788 140.737 94.2672 140.484 94.4348C140.23 94.6025 140.032 94.8418 139.915 95.1222C139.797 95.4027 139.766 95.7117 139.825 96.0099C139.884 96.3082 140.03 96.5822 140.245 96.7972C140.46 97.0121 140.734 97.1583 141.032 97.2171C141.33 97.2759 141.639 97.2447 141.92 97.1274C142.2 97.0102 142.44 96.8122 142.607 96.5586C142.775 96.305 142.863 96.0073 142.861 95.7033C142.867 95.4995 142.831 95.2966 142.757 95.1066C142.683 94.9167 142.572 94.7433 142.431 94.5968C142.289 94.4503 142.119 94.3336 141.932 94.2534C141.744 94.1733 141.543 94.1313 141.339 94.13V94.1808Z" fill="#D1D3D4"/>
<path d="M198.047 97.3983H148.819C148.685 97.3983 148.556 97.3448 148.46 97.2497C148.365 97.1545 148.312 97.0254 148.312 96.8908V94.5055C148.312 94.3709 148.365 94.2419 148.46 94.1467C148.556 94.0515 148.685 93.998 148.819 93.998H198.047C198.181 93.998 198.31 94.0515 198.406 94.1467C198.501 94.2419 198.554 94.3709 198.554 94.5055V96.8908C198.554 97.0254 198.501 97.1545 198.406 97.2497C198.31 97.3448 198.181 97.3983 198.047 97.3983ZM149.327 96.3833H197.539V95.013H149.327V96.3833Z" fill="#D1D3D4"/>
<path d="M72.9581 237.479L71.9431 244.665C71.9431 244.665 94.131 243.508 93.3698 241.782C92.6085 240.057 86.346 237.803 86.346 237.803" fill="white"/>
<path d="M71.9735 245.172C71.903 245.173 71.833 245.159 71.7683 245.131C71.7035 245.103 71.6455 245.062 71.598 245.01C71.5478 244.956 71.51 244.891 71.4872 244.821C71.4645 244.751 71.4572 244.677 71.466 244.604L72.481 237.407C72.4897 237.342 72.5114 237.279 72.5448 237.221C72.5783 237.164 72.6227 237.115 72.6757 237.075C72.7286 237.035 72.7889 237.006 72.8531 236.99C72.9173 236.974 72.984 236.971 73.0494 236.981C73.1826 236.999 73.3033 237.069 73.3851 237.175C73.467 237.282 73.5032 237.416 73.4859 237.549L72.5825 244.127C81.7175 243.629 91.4006 242.655 92.8825 241.802C92.0807 240.696 88.4673 239.072 86.2546 238.28C86.1317 238.232 86.0325 238.137 85.9781 238.017C85.9237 237.897 85.9185 237.76 85.9634 237.635C86.0083 237.511 86.0999 237.409 86.2188 237.352C86.3376 237.294 86.4742 237.285 86.5997 237.326C87.2594 237.56 93.0855 239.701 93.9077 241.579C93.9628 241.684 93.9916 241.801 93.9916 241.919C93.9916 242.038 93.9628 242.154 93.9077 242.259C92.8927 243.914 78.3071 244.847 72.0953 245.172H71.9735Z" fill="#231F20"/>
<path d="M118.481 108.898C118.481 108.898 129.474 119.921 134.934 118.368C138.142 117.465 153.011 110.005 153.204 109.7C153.905 108.502 155.285 104.625 156.158 103.61C156.457 103.129 156.918 102.769 157.457 102.595C160.279 102.098 157.548 107.183 156.818 108.036C159.213 106.544 161.69 105.072 164.227 103.803C164.351 103.717 164.493 103.659 164.642 103.634C164.792 103.61 164.945 103.619 165.09 103.661C165.236 103.752 165.342 103.893 165.389 104.058C165.436 104.224 165.42 104.4 165.344 104.554C165.184 104.858 164.95 105.116 164.664 105.305L160.33 108.726C161.58 107.701 162.903 106.768 164.288 105.935C164.795 105.64 166.206 104.747 166.724 105.326C167.627 106.341 163.009 109.822 162.217 110.401C163.485 109.235 164.902 108.242 166.43 107.447C166.85 107.174 167.356 107.065 167.851 107.142C168.054 107.457 167.729 107.843 167.424 108.076L164.43 110.37C165.932 109.254 167.597 108.096 169.505 108.117C169.505 108.431 169.261 108.685 169.008 108.878C164.562 112.359 160.055 116.846 155.447 120.104C149.357 124.428 142.679 130.437 135.076 131.096C126.053 131.878 119.445 125.291 113.315 119.556" fill="white"/>
<path d="M133.564 131.685C125.444 131.685 119.171 125.828 113.619 120.632L112.898 119.951C112.851 119.904 112.813 119.848 112.787 119.786C112.762 119.724 112.748 119.658 112.748 119.591C112.748 119.524 112.762 119.458 112.787 119.396C112.813 119.334 112.851 119.278 112.898 119.231C112.945 119.184 113 119.146 113.061 119.12C113.122 119.095 113.187 119.082 113.254 119.082C113.32 119.082 113.385 119.095 113.446 119.12C113.507 119.146 113.563 119.184 113.609 119.231L114.34 119.911C120.338 125.544 126.52 131.36 134.985 130.629C141.075 130.101 146.546 126.052 151.814 122.134C152.93 121.312 154.026 120.489 155.102 119.728C157.844 117.71 160.483 115.556 163.009 113.273C164.734 111.771 166.511 110.228 168.267 108.817C166.97 109.275 165.767 109.963 164.714 110.847C164.606 110.928 164.471 110.962 164.338 110.943C164.205 110.924 164.084 110.853 164.004 110.745C163.923 110.638 163.888 110.502 163.907 110.369C163.926 110.236 163.997 110.116 164.105 110.035L167.059 107.751C166.923 107.807 166.791 107.872 166.663 107.944C165.963 108.299 165.285 108.696 164.633 109.132C163.77 109.883 162.907 110.522 162.471 110.847C162.367 110.925 162.236 110.959 162.107 110.942C161.978 110.925 161.861 110.858 161.781 110.756C161.694 110.662 161.645 110.538 161.645 110.41C161.645 110.283 161.694 110.159 161.781 110.065C162.469 109.439 163.198 108.859 163.963 108.33C165.435 107.051 166.298 106.016 166.247 105.67C166.247 105.67 166.247 105.67 166.155 105.67C165.57 105.78 165.018 106.023 164.542 106.381C163.541 106.97 162.575 107.618 161.649 108.32L160.553 109.182C160.501 109.224 160.441 109.256 160.377 109.275C160.313 109.293 160.246 109.3 160.179 109.292C160.113 109.285 160.048 109.265 159.99 109.233C159.931 109.201 159.879 109.158 159.837 109.106C159.795 109.054 159.764 108.994 159.745 108.93C159.726 108.866 159.72 108.799 159.727 108.733C159.734 108.666 159.754 108.602 159.786 108.543C159.818 108.484 159.861 108.433 159.913 108.391C160.279 108.086 160.654 107.792 161.03 107.508L164.257 104.96C164.475 104.823 164.656 104.635 164.785 104.412C164.805 104.374 164.815 104.332 164.815 104.29C164.815 104.248 164.805 104.206 164.785 104.168C164.785 104.168 164.684 104.168 164.369 104.31C161.74 105.62 159.172 107.173 157 108.512C156.899 108.577 156.778 108.603 156.659 108.586C156.54 108.569 156.431 108.511 156.351 108.421C156.271 108.328 156.228 108.209 156.228 108.086C156.228 107.963 156.271 107.845 156.351 107.751C157.01 106.98 158.472 103.986 158.056 103.245C157.964 103.092 157.69 103.113 157.457 103.153C157.039 103.29 156.681 103.566 156.442 103.935C155.734 105.096 155.133 106.319 154.645 107.589C154.209 108.604 153.823 109.507 153.539 110.004C153.133 110.695 137.522 118.185 134.975 118.916C129.311 120.51 118.491 109.781 118.034 109.304C117.987 109.257 117.949 109.201 117.923 109.139C117.897 109.077 117.884 109.011 117.884 108.944C117.884 108.877 117.897 108.81 117.923 108.749C117.949 108.687 117.987 108.631 118.034 108.583C118.129 108.491 118.257 108.438 118.39 108.438C118.522 108.438 118.65 108.491 118.745 108.583C118.856 108.695 129.605 119.393 134.701 117.932C137.746 117.079 151.479 110.218 152.707 109.416C152.96 108.939 153.326 108.096 153.722 107.193C154.231 105.825 154.884 104.515 155.671 103.285C156.054 102.696 156.644 102.273 157.325 102.098C157.625 101.997 157.951 102 158.249 102.107C158.547 102.214 158.801 102.418 158.969 102.686C159.487 103.58 158.908 105.224 158.269 106.523C160.035 105.508 161.974 104.341 163.953 103.346C164.148 103.224 164.368 103.147 164.596 103.123C164.825 103.098 165.056 103.126 165.272 103.204C165.52 103.345 165.709 103.57 165.806 103.838C165.902 104.105 165.9 104.399 165.8 104.666C166.021 104.599 166.256 104.594 166.48 104.652C166.703 104.709 166.907 104.826 167.069 104.99C167.162 105.094 167.231 105.217 167.271 105.35C167.311 105.483 167.322 105.624 167.302 105.762C167.247 106.091 167.119 106.403 166.927 106.675C167.258 106.579 167.61 106.579 167.942 106.675C168.06 106.703 168.162 106.776 168.226 106.878C168.315 107.008 168.368 107.159 168.38 107.315C168.393 107.472 168.364 107.629 168.297 107.771C168.668 107.698 169.045 107.66 169.424 107.66C169.55 107.662 169.671 107.711 169.763 107.797C169.855 107.884 169.911 108.001 169.921 108.127C169.916 108.37 169.851 108.608 169.73 108.819C169.61 109.03 169.438 109.207 169.231 109.335C167.384 110.776 165.475 112.44 163.628 114.054C161.03 116.318 158.35 118.662 155.65 120.571C154.574 121.322 153.488 122.134 152.382 122.966C147.246 126.772 141.44 131.086 135.025 131.654C134.548 131.685 134.051 131.685 133.564 131.685Z" fill="#231F20"/>
<path d="M113.619 140.17L126.337 238.747L112.685 238.402L96.7194 172.843L87.6758 238.565L72.3391 237.478L76.8863 135.522L113.619 140.17Z" fill="#231F20"/>
<path d="M107.59 98.7178L130.701 114.034L124.053 131.512C124.053 131.512 95.6028 112.674 95.4099 108.34C95.2171 104.006 107.59 98.7178 107.59 98.7178Z" fill="#68E1FD"/>
<path d="M116.867 157.72C116.867 157.72 116.136 127.665 113.984 114.602C113.071 109.061 113.416 105.173 111.579 102.179C105.418 92.11 81.4131 95.0738 77.9215 102.098C74.4299 109.121 73.6179 159.547 73.6179 159.547L116.867 157.72Z" fill="#68E1FD"/>
<path d="M112.665 238.402C112.665 238.402 112.279 244.35 113.051 245.314C113.822 246.278 134.792 244.543 133.828 242.269C132.864 239.996 125.17 238.016 125.17 238.016" fill="white"/>
<path d="M115.801 246.076C114.106 246.076 112.929 245.944 112.675 245.629C111.853 244.614 112.086 239.813 112.178 238.372C112.182 238.305 112.199 238.24 112.228 238.18C112.257 238.12 112.298 238.066 112.348 238.022C112.398 237.977 112.456 237.943 112.519 237.922C112.582 237.9 112.649 237.891 112.716 237.895C112.782 237.899 112.848 237.916 112.908 237.945C112.968 237.974 113.021 238.015 113.066 238.065C113.11 238.115 113.144 238.173 113.166 238.236C113.188 238.299 113.197 238.366 113.193 238.433C113.02 241.112 113.071 244.289 113.436 244.939C114.847 245.446 127.646 244.573 132.204 242.97C133.219 242.614 133.381 242.351 133.381 242.351C132.752 240.93 127.951 239.204 125.068 238.473C124.937 238.44 124.824 238.356 124.754 238.24C124.684 238.125 124.662 237.986 124.693 237.854C124.709 237.789 124.738 237.729 124.779 237.675C124.819 237.622 124.869 237.577 124.926 237.543C124.984 237.509 125.048 237.487 125.114 237.477C125.18 237.468 125.247 237.472 125.312 237.489C126.124 237.692 133.29 239.58 134.315 242.046C134.447 242.34 134.518 242.919 133.604 243.457C131.422 244.756 121.11 246.076 115.801 246.076Z" fill="#231F20"/>
<path d="M124.003 132.02C123.909 132.018 123.817 131.99 123.739 131.939C123.089 131.533 107.864 121.85 102.596 116.714C102.549 116.666 102.511 116.61 102.485 116.549C102.459 116.487 102.446 116.42 102.446 116.353C102.446 116.286 102.459 116.22 102.485 116.158C102.511 116.096 102.549 116.04 102.596 115.993C102.642 115.946 102.698 115.908 102.759 115.883C102.82 115.857 102.885 115.844 102.951 115.844C103.018 115.844 103.083 115.857 103.144 115.883C103.205 115.908 103.26 115.946 103.307 115.993C108.503 121.007 124.134 130.944 124.287 131.045C124.344 131.079 124.394 131.123 124.434 131.177C124.473 131.23 124.502 131.291 124.517 131.356C124.532 131.42 124.534 131.487 124.522 131.553C124.511 131.618 124.486 131.68 124.449 131.736C124.408 131.82 124.345 131.89 124.266 131.941C124.187 131.991 124.096 132.018 124.003 132.02V132.02Z" fill="#231F20"/>
</svg>
