<svg width="267" height="238" viewBox="0 0 267 238" fill="none" xmlns="http://www.w3.org/2000/svg">
<g clip-path="url(#clip0_2195_3489)">
<path d="M17.9346 168.015C17.9346 168.015 15.3261 167.823 14.9505 164.108C14.6156 160.849 3.30847 57.1063 0.507072 31.4776C0.341438 29.9429 0.777924 28.4038 1.72458 27.1845C2.67124 25.9652 4.05417 25.1609 5.58207 24.941L167.221 0.580995C167.964 0.467402 168.723 0.520269 169.443 0.735771C170.163 0.951274 170.826 1.32403 171.385 1.82712C171.943 2.3302 172.383 2.95105 172.672 3.64481C172.961 4.33857 173.093 5.08791 173.057 5.8387L168.693 111.754L17.9346 168.015Z" fill="#231F20"/>
<path d="M17.9346 168.523C17.9346 168.523 14.8896 168.249 14.4735 164.158C14.1385 160.849 2.39499 53.0971 0.0401918 31.5283C-0.146131 29.866 0.320085 28.1962 1.34061 26.8709C2.36114 25.5455 3.8563 24.668 5.51104 24.4233L167.15 0.0633324C167.964 -0.0604482 168.795 -0.00231048 169.584 0.233569C170.373 0.469449 171.1 0.877208 171.712 1.42752C172.324 1.97783 172.807 2.65701 173.126 3.41623C173.444 4.17545 173.591 4.99583 173.554 5.81838L169.2 111.815C169.195 111.915 169.16 112.012 169.101 112.093C169.041 112.174 168.959 112.236 168.865 112.272L18.1173 168.492C18.0585 168.512 17.9968 168.523 17.9346 168.523V168.523ZM167.982 1.05803C167.752 1.03844 167.522 1.03844 167.292 1.05803L5.58209 25.4383C4.19056 25.6451 2.93359 26.3839 2.07593 27.4991C1.21827 28.6142 0.826862 30.0187 0.984142 31.4167C3.36939 52.9448 15.1129 160.748 15.458 164.057C15.7422 166.919 17.488 167.417 17.8839 167.498L168.195 111.399L172.509 5.83868C172.538 5.22458 172.442 4.611 172.228 4.03472C172.014 3.45843 171.686 2.93129 171.263 2.4849C170.84 2.0385 170.332 1.68203 169.768 1.43685C169.204 1.19167 168.597 1.06283 167.982 1.05803V1.05803Z" fill="#231F20"/>
<path d="M21.6191 156.962L9.04321 35.3143L168.794 8.64014L162.978 105.806L21.6191 156.962Z" fill="white"/>
<path d="M21.6191 157.429C21.5294 157.431 21.4411 157.406 21.3653 157.358C21.3084 157.318 21.2602 157.266 21.2235 157.207C21.1869 157.148 21.1626 157.082 21.1522 157.013L8.62708 35.365C8.61747 35.2477 8.65153 35.131 8.72273 35.0373C8.79392 34.9437 8.89722 34.8796 9.01278 34.8575L168.723 8.18328C168.792 8.17406 168.861 8.17922 168.928 8.19845C168.994 8.21767 169.056 8.25053 169.109 8.29492C169.158 8.34406 169.197 8.40265 169.223 8.46718C169.249 8.53171 169.262 8.60086 169.261 8.67048L163.445 105.836C163.44 105.927 163.409 106.013 163.354 106.086C163.3 106.158 163.226 106.212 163.141 106.242L21.8221 157.398C21.7581 157.426 21.6882 157.436 21.6191 157.429V157.429ZM9.55074 35.6898L22.0149 156.312L162.542 105.471L168.297 9.18812L9.55074 35.6898Z" fill="#231F20"/>
<path d="M27.5873 123.345C27.5073 123.346 27.4281 123.331 27.3546 123.299C27.2812 123.268 27.2152 123.221 27.161 123.163C27.0574 123.055 26.9995 122.911 26.9995 122.762C26.9995 122.612 27.0574 122.468 27.161 122.361L139.613 22.3527C139.721 22.2491 139.864 22.1913 140.014 22.1913C140.163 22.1913 140.307 22.2491 140.415 22.3527C140.464 22.4079 140.501 22.4722 140.525 22.542C140.549 22.6117 140.559 22.6855 140.554 22.7592C140.55 22.8328 140.53 22.9047 140.498 22.9709C140.465 23.037 140.42 23.096 140.364 23.1444L27.9628 123.203C27.8601 123.296 27.7259 123.347 27.5873 123.345V123.345Z" fill="#D1D3D4"/>
<path d="M17.9347 168.015L17.752 172.522C17.746 172.666 17.7764 172.81 17.8402 172.939C17.904 173.069 17.9993 173.18 18.1174 173.263L105.275 236.122C106.234 236.814 107.362 237.234 108.54 237.336C109.718 237.437 110.901 237.218 111.964 236.7L264.59 162.362C265.146 162.089 265.615 161.666 265.943 161.14C266.272 160.615 266.446 160.008 266.447 159.388V156.597L80.4383 167.965L17.9347 168.015Z" fill="#231F20"/>
<path d="M109.112 237.868C107.63 237.866 106.186 237.401 104.981 236.538L17.8129 173.73C17.6282 173.596 17.4796 173.418 17.3804 173.213C17.2813 173.007 17.2345 172.78 17.2445 172.552L17.4272 168.046C17.4324 167.915 17.4882 167.791 17.5828 167.7C17.6774 167.609 17.8035 167.559 17.9347 167.559L80.4384 167.508L266.437 156.089C266.507 156.084 266.577 156.093 266.644 156.116C266.71 156.138 266.771 156.174 266.823 156.221C266.872 156.27 266.911 156.329 266.937 156.393C266.963 156.458 266.976 156.527 266.975 156.597V159.388C266.973 160.101 266.772 160.8 266.393 161.404C266.015 162.009 265.474 162.495 264.833 162.808L112.157 237.157C111.207 237.617 110.167 237.86 109.112 237.868V237.868ZM18.432 168.523L18.2696 172.583C18.2676 172.644 18.2804 172.704 18.3069 172.759C18.3334 172.814 18.3729 172.861 18.4219 172.898L105.58 235.746C106.463 236.388 107.504 236.777 108.591 236.872C109.678 236.967 110.771 236.763 111.751 236.284L264.407 161.905C264.878 161.674 265.275 161.316 265.553 160.871C265.831 160.426 265.979 159.912 265.98 159.388V157.135L80.4688 168.472L18.432 168.523Z" fill="#231F20"/>
<path d="M18.4523 167.396L168.672 111.754L265.422 155.257C265.73 155.369 265.997 155.57 266.189 155.834C266.382 156.099 266.491 156.415 266.503 156.742C266.515 157.069 266.429 157.392 266.256 157.67C266.084 157.948 265.832 158.168 265.534 158.302L110.127 231.108C109.35 231.475 108.488 231.628 107.632 231.552C106.775 231.475 105.955 231.171 105.255 230.671L18.2392 168.756C18.1325 168.668 18.0507 168.553 18.0018 168.423C17.9528 168.293 17.9384 168.153 17.9599 168.016C17.9813 167.879 18.038 167.75 18.1243 167.641C18.2106 167.532 18.3237 167.448 18.4523 167.396Z" fill="white"/>
<path d="M108.097 232.031C107.002 232.017 105.938 231.662 105.052 231.016L18.0362 169.101C17.848 168.969 17.6996 168.788 17.6072 168.577C17.5149 168.366 17.4821 168.134 17.5125 167.906C17.5428 167.678 17.6351 167.462 17.7794 167.283C17.9236 167.104 18.1143 166.967 18.3306 166.889L168.551 111.246C168.665 111.201 168.792 111.201 168.906 111.246L265.615 154.749C265.996 154.902 266.325 155.162 266.56 155.499C266.796 155.835 266.928 156.233 266.941 156.643C266.954 157.053 266.847 157.459 266.633 157.809C266.419 158.16 266.108 158.44 265.737 158.617L110.35 231.585C109.641 231.897 108.872 232.05 108.097 232.031V232.031ZM168.672 112.261L18.6148 167.833C18.559 167.854 18.5098 167.889 18.4723 167.936C18.4349 167.982 18.4105 168.038 18.4016 168.097C18.3921 168.157 18.4004 168.219 18.4257 168.275C18.4509 168.331 18.492 168.378 18.5437 168.411L105.56 230.326C106.193 230.776 106.935 231.049 107.709 231.119C108.483 231.188 109.261 231.051 109.965 230.722L265.321 157.855C265.53 157.759 265.705 157.602 265.825 157.404C265.944 157.207 266.002 156.979 265.991 156.749C265.975 156.526 265.896 156.312 265.763 156.132C265.63 155.952 265.448 155.814 265.24 155.734L168.672 112.261Z" fill="#231F20"/>
<path d="M87.7971 202.15C86.1782 202.149 84.5959 201.669 83.2499 200.769L44.4058 174.877C43.8307 174.496 43.3724 173.962 43.0817 173.337C42.7911 172.711 42.6796 172.016 42.7595 171.331C42.8394 170.646 43.1076 169.996 43.5344 169.454C43.9611 168.911 44.5298 168.498 45.1772 168.259L169.596 122.249C169.732 122.193 169.886 122.193 170.022 122.249L215.007 142.092C215.586 142.348 216.079 142.767 216.424 143.298C216.77 143.829 216.954 144.448 216.954 145.082C216.954 145.715 216.77 146.334 216.424 146.865C216.079 147.396 215.586 147.815 215.007 148.071L91.0654 201.49C90.0312 201.927 88.9197 202.151 87.7971 202.15V202.15ZM169.779 123.386L45.5731 169.325C45.1211 169.491 44.724 169.779 44.4256 170.157C44.1272 170.535 43.9393 170.988 43.8825 171.466C43.8258 171.944 43.9025 172.428 44.1041 172.866C44.3057 173.303 44.6245 173.676 45.025 173.943L83.869 199.836C84.8535 200.493 85.9865 200.894 87.1653 201.002C88.3441 201.11 89.5312 200.922 90.6188 200.455V200.455L214.53 147.056C214.914 146.895 215.241 146.624 215.47 146.277C215.7 145.93 215.821 145.523 215.819 145.107C215.821 144.692 215.702 144.286 215.477 143.938C215.251 143.59 214.929 143.316 214.55 143.148L169.779 123.386Z" fill="#D1D3D4"/>
<path d="M166.226 198.567C165.929 198.568 165.636 198.494 165.374 198.354L142.607 186.357C142.301 186.195 142.047 185.951 141.874 185.651C141.7 185.352 141.615 185.009 141.628 184.664C141.641 184.318 141.751 183.983 141.946 183.697C142.14 183.411 142.412 183.186 142.729 183.048L186.79 163.874C187.432 163.596 188.126 163.457 188.825 163.465C189.525 163.474 190.215 163.631 190.85 163.925L212.541 174.004C212.857 174.152 213.125 174.387 213.313 174.682C213.501 174.977 213.6 175.319 213.6 175.669C213.6 176.018 213.501 176.36 213.313 176.655C213.125 176.95 212.857 177.185 212.541 177.333L166.967 198.394C166.735 198.502 166.482 198.561 166.226 198.567V198.567ZM187.267 164.91L143.216 184.083C143.096 184.141 142.995 184.232 142.924 184.345C142.853 184.458 142.815 184.589 142.815 184.722C142.815 184.856 142.853 184.987 142.924 185.1C142.995 185.213 143.096 185.304 143.216 185.362L165.972 197.359C166.07 197.409 166.178 197.435 166.287 197.435C166.396 197.435 166.504 197.409 166.602 197.359L212.124 176.298C212.247 176.241 212.351 176.15 212.424 176.036C212.497 175.921 212.536 175.789 212.536 175.653C212.536 175.518 212.497 175.385 212.424 175.271C212.351 175.157 212.247 175.066 212.124 175.009L190.312 164.95C189.822 164.732 189.291 164.619 188.754 164.619C188.217 164.619 187.686 164.732 187.196 164.95L187.267 164.91Z" fill="#D1D3D4"/>
<path d="M45.3296 62.7802L43.8984 46.7838L144.17 30.493V112.87L51.6124 133.505V128.796L45.3296 62.7802Z" fill="#231F20"/>
<path d="M51.6123 134.013C51.4777 134.013 51.3487 133.959 51.2535 133.864C51.1583 133.769 51.1048 133.64 51.1048 133.505V128.796L44.822 62.8208L43.3908 46.8549C43.3789 46.7264 43.4164 46.5983 43.4956 46.4965C43.5748 46.3947 43.6897 46.3268 43.8171 46.3068L144.089 30.016C144.162 30.0075 144.235 30.0142 144.305 30.0357C144.375 30.0571 144.439 30.0928 144.495 30.1405C144.55 30.1882 144.595 30.2469 144.626 30.3128C144.658 30.3787 144.675 30.4505 144.678 30.5235V112.83C144.678 112.944 144.638 113.055 144.566 113.144C144.494 113.233 144.394 113.294 144.282 113.317L51.724 133.952L51.6123 134.013ZM45.837 62.7396L52.1198 128.715V132.825L143.622 112.464V31.0919L44.4464 47.2101L45.837 62.7396V62.7396Z" fill="#231F20"/>
<path d="M46.2226 72.2197L44.2839 51.1077L113.06 40.0645L97.1451 92.2152L46.2226 72.2197Z" fill="white"/>
<path d="M97.1453 92.682C97.0916 92.6918 97.0366 92.6918 96.9829 92.682L46.0603 72.6866C45.9798 72.6537 45.9099 72.5994 45.858 72.5296C45.8061 72.4599 45.7743 72.3772 45.766 72.2907L43.8273 51.1787C43.8129 51.0617 43.8454 50.9437 43.9177 50.8505C43.9899 50.7574 44.0961 50.6965 44.213 50.6814L112.979 39.6382C113.057 39.6232 113.138 39.6295 113.213 39.6563C113.288 39.683 113.355 39.7293 113.406 39.7904C113.457 39.8493 113.492 39.9203 113.508 39.9967C113.524 40.0731 113.52 40.1524 113.497 40.2269L97.5919 92.3877C97.5725 92.4491 97.541 92.5059 97.4991 92.5547C97.4572 92.6035 97.4059 92.6434 97.3483 92.6719C97.2822 92.6905 97.2128 92.694 97.1453 92.682ZM46.6592 71.8949L96.8509 91.6062L112.401 40.643L44.7814 51.4934L46.6592 71.8949Z" fill="#231F20"/>
<path d="M57.4688 114.697C57.1846 112.982 51.7949 55.9695 51.7949 55.9695L88.1928 49.6359V42.7339L130.762 34.6139L134.101 39.1509L155.071 35.4969L156.208 88.6525L57.4688 114.697Z" fill="#E6E7E8"/>
<path d="M57.4688 115.164C57.3823 115.166 57.2973 115.141 57.2252 115.093C57.1692 115.059 57.1212 115.014 57.0844 114.959C57.0476 114.905 57.0229 114.843 57.0121 114.779C56.7279 113.063 51.5514 58.3447 51.3281 56.0203C51.3161 55.9026 51.3492 55.7847 51.4208 55.6905C51.4924 55.5963 51.5971 55.5328 51.7138 55.5128L87.726 49.2503V42.734C87.7267 42.6248 87.7657 42.5192 87.8362 42.4358C87.9066 42.3523 88.0041 42.2962 88.1117 42.2772L130.681 34.1572C130.766 34.1421 130.854 34.1513 130.935 34.1835C131.016 34.2158 131.086 34.27 131.138 34.3399L134.304 38.6435L154.99 35.0403C155.056 35.0284 155.123 35.0311 155.187 35.048C155.252 35.0649 155.312 35.0958 155.363 35.1383C155.414 35.1809 155.456 35.2341 155.484 35.2943C155.513 35.3545 155.528 35.4203 155.528 35.4869L156.675 88.6424C156.676 88.7461 156.643 88.8472 156.581 88.9299C156.518 89.0126 156.43 89.0721 156.33 89.0992L57.5906 115.205L57.4688 115.164ZM52.272 56.3553C52.7491 61.3694 57.2151 108.506 57.8444 114.119L155.721 88.2466L154.614 35.9944L134.172 39.557C134.088 39.569 134.003 39.5584 133.924 39.5263C133.846 39.4942 133.777 39.4417 133.726 39.3743L130.559 35.0809L88.6598 43.1197V49.636C88.6633 49.7463 88.6259 49.8541 88.5546 49.9384C88.4834 50.0227 88.3835 50.0777 88.2741 50.0927L52.272 56.3553Z" fill="#231F20"/>
<path d="M74.6629 87.7289L71.6179 55.9695L136.202 44.3478V78.6954L74.6629 87.7289Z" fill="white"/>
<path d="M74.663 88.1856C74.5479 88.1885 74.4362 88.1468 74.3511 88.0693C74.266 87.9918 74.2141 87.8844 74.2063 87.7695L71.1613 56.0203C71.149 55.904 71.1807 55.7874 71.2503 55.6934C71.3198 55.5995 71.4221 55.535 71.5368 55.5128L136.121 43.891C136.189 43.8816 136.258 43.8857 136.324 43.9032C136.391 43.9206 136.453 43.951 136.507 43.9925C136.557 44.0373 136.597 44.092 136.625 44.1532C136.653 44.2143 136.668 44.2806 136.669 44.3478V78.6954C136.668 78.8061 136.628 78.9128 136.555 78.9965C136.483 79.0801 136.383 79.1353 136.274 79.1521L74.7341 88.1856H74.663ZM72.1255 56.3552L75.0792 87.1909L135.746 78.3198V44.906L72.1255 56.3552Z" fill="#231F20"/>
<path d="M65.2337 112.83C64.9495 111.114 65.2337 60.3949 65.2337 60.3949L106.504 53.2189V46.3169L149.073 38.1461L152.412 42.673L167.566 39.354L163.374 88.3176L65.2337 112.83Z" fill="#E6E7E8"/>
<path d="M65.2337 113.327C65.144 113.329 65.0557 113.304 64.9799 113.256C64.9266 113.22 64.8812 113.174 64.8463 113.12C64.8114 113.065 64.7878 113.005 64.7769 112.941C64.4927 111.206 64.7769 62.5061 64.7769 60.4355C64.7777 60.3263 64.8166 60.2207 64.8871 60.1373C64.9576 60.0538 65.0551 59.9977 65.1626 59.9787L106.047 52.8737V46.3574C106.048 46.2482 106.087 46.1427 106.157 46.0592C106.227 45.9758 106.325 45.9197 106.433 45.9007L148.991 37.7807C149.079 37.7648 149.168 37.7735 149.251 37.8057C149.333 37.838 149.405 37.8926 149.458 37.9634L152.615 42.2467L167.475 38.9987C167.546 38.9827 167.619 38.9835 167.69 39.0011C167.76 39.0186 167.826 39.0524 167.881 39.0997C167.936 39.147 167.98 39.2066 168.008 39.2736C168.036 39.3407 168.048 39.4133 168.043 39.4859L163.851 88.4495C163.842 88.5469 163.803 88.6391 163.739 88.7136C163.676 88.788 163.591 88.8411 163.496 88.8656L65.3758 113.368L65.2337 113.327ZM65.6701 60.8313C65.5889 77.4773 65.4874 107.836 65.6701 112.282L162.907 87.9927L167.018 39.9832L152.473 43.1703C152.386 43.1887 152.295 43.1812 152.212 43.1488C152.129 43.1163 152.058 43.0603 152.006 42.9876L148.849 38.7348L106.95 46.7736V53.3C106.949 53.4093 106.91 53.5148 106.84 53.5982C106.77 53.6817 106.672 53.7378 106.564 53.7568L65.6701 60.8313Z" fill="#231F20"/>
<path d="M85.5032 98.701V59.8265C85.5032 59.8265 153.163 47.6465 153.356 48.2048C153.549 48.763 153.356 101.33 153.356 101.33L85.5032 98.701Z" fill="white"/>
<path d="M153.356 101.797L85.5032 99.1578C85.3856 99.1525 85.2745 99.1021 85.1932 99.017C85.1119 98.9319 85.0666 98.8187 85.0667 98.701V59.8265C85.065 59.7182 85.1018 59.6128 85.1706 59.5292C85.2394 59.4455 85.3357 59.389 85.4423 59.3698C85.6148 59.3698 102.555 56.3248 119.303 53.3508C153.569 47.3217 153.62 47.4943 153.813 48.0627C154.005 48.6311 153.894 85.506 153.813 101.33C153.813 101.452 153.765 101.569 153.68 101.656C153.594 101.744 153.478 101.794 153.356 101.797V101.797ZM85.9701 98.2544L152.889 100.853C152.95 83.7297 153.031 52.5693 152.889 48.6717C148.24 49.0878 103.783 57.0048 85.899 60.2224L85.9701 98.2544Z" fill="#231F20"/>
<path d="M92.1919 118.128C91.9077 116.413 91.6235 62.7801 91.6235 62.7801L124.104 57.1367L125.535 51.4426L173.341 40.8967L176.681 45.4236L191.834 42.1147L187.643 91.0783L92.1919 118.128Z" fill="#E6E7E8"/>
<path d="M92.1921 118.595C92.1063 118.592 92.0225 118.568 91.9485 118.524C91.8925 118.49 91.8444 118.444 91.8076 118.39C91.7709 118.336 91.7462 118.274 91.7353 118.209C91.4511 116.474 91.1771 64.9726 91.1568 62.7904C91.1551 62.6794 91.193 62.5715 91.2637 62.4859C91.3344 62.4004 91.4332 62.3428 91.5425 62.3235L123.728 56.7308L125.088 51.331C125.111 51.2496 125.155 51.1757 125.215 51.1169C125.276 51.058 125.351 51.0164 125.433 50.9961L173.24 40.4502C173.328 40.43 173.419 40.4355 173.504 40.4661C173.588 40.4967 173.662 40.5511 173.717 40.6228L176.874 44.9061L191.743 41.6581C191.814 41.6438 191.888 41.6455 191.958 41.663C192.028 41.6806 192.093 41.7136 192.149 41.7596C192.201 41.8111 192.242 41.873 192.268 41.9412C192.294 42.0094 192.306 42.0824 192.302 42.1554L188.11 91.119C188.101 91.2125 188.065 91.3013 188.005 91.3737C187.945 91.4462 187.865 91.4989 187.775 91.525L92.3646 118.575L92.1921 118.595ZM92.0906 63.1761C92.1819 80.7762 92.4052 112.911 92.6184 117.529L187.267 90.713L191.327 42.7035L176.782 45.8399C176.695 45.8589 176.603 45.8528 176.519 45.8223C176.434 45.7918 176.36 45.7381 176.305 45.6673L173.148 41.3739L125.921 51.8385L124.55 57.2485C124.526 57.3351 124.478 57.4132 124.411 57.4741C124.345 57.535 124.263 57.5764 124.175 57.5936L92.0906 63.1761Z" fill="#231F20"/>
<path d="M45.3296 62.7802L51.6124 128.796L118.491 158.809L115.06 83.07L45.3296 62.7802Z" fill="#007580"/>
<path d="M118.491 159.266C118.427 159.281 118.361 159.281 118.298 159.266L51.4295 129.263C51.3544 129.23 51.2893 129.178 51.2411 129.112C51.1929 129.046 51.1633 128.968 51.1554 128.887L44.8625 62.9121C44.8572 62.8356 44.8702 62.759 44.9001 62.6884C44.9301 62.6179 44.9763 62.5554 45.035 62.5061C45.0928 62.4565 45.1621 62.4222 45.2366 62.4063C45.311 62.3903 45.3883 62.3932 45.4613 62.4147L115.192 82.7147C115.283 82.7406 115.364 82.7948 115.422 82.8697C115.481 82.9445 115.514 83.036 115.517 83.1309L118.947 158.87C118.951 158.95 118.934 159.028 118.898 159.099C118.863 159.171 118.81 159.231 118.744 159.276C118.661 159.298 118.572 159.294 118.491 159.266ZM52.0487 128.491L118.024 158.078L114.613 83.3948L45.8571 63.3891L52.0487 128.491Z" fill="#231F20"/>
<path d="M117.06 162.808L113.061 67.6421L116.583 68.8804L120.49 164.037L117.06 162.808Z" fill="#68E1FD"/>
<path d="M120.49 164.493H120.328L116.907 163.265C116.819 163.235 116.743 163.179 116.687 163.105C116.63 163.031 116.598 162.942 116.593 162.849L112.594 67.6826C112.589 67.6056 112.604 67.5287 112.638 67.4593C112.672 67.3899 112.723 67.3305 112.786 67.2868C112.847 67.2424 112.918 67.2136 112.992 67.203C113.066 67.1923 113.142 67.2002 113.213 67.2259L116.735 68.4642C116.823 68.4931 116.901 68.5485 116.957 68.6229C117.014 68.6973 117.046 68.7872 117.05 68.8803L120.947 164.037C120.951 164.111 120.937 164.185 120.905 164.253C120.873 164.32 120.825 164.378 120.764 164.422C120.683 164.474 120.587 164.499 120.49 164.493V164.493ZM117.506 162.463L119.993 163.357L116.136 69.1848L113.548 68.2713L117.506 162.463Z" fill="#231F20"/>
<path d="M120.49 164.037L217.23 126.654L218.509 44.3478L116.583 68.8803L120.49 164.037Z" fill="#007580"/>
<path d="M120.49 164.493C120.4 164.496 120.312 164.471 120.236 164.422C120.173 164.381 120.121 164.326 120.084 164.261C120.047 164.195 120.026 164.122 120.023 164.047L116.115 68.9006C116.11 68.7934 116.143 68.6879 116.208 68.6025C116.273 68.5172 116.366 68.4574 116.471 68.4337L218.407 43.9011C218.476 43.8855 218.547 43.8857 218.616 43.9015C218.684 43.9173 218.748 43.9484 218.803 43.9925C218.858 44.0361 218.902 44.0917 218.932 44.1551C218.962 44.2184 218.977 44.2878 218.976 44.3579L217.717 126.664C217.716 126.756 217.687 126.846 217.634 126.922C217.582 126.998 217.508 127.056 217.423 127.091L120.683 164.463C120.622 164.487 120.556 164.497 120.49 164.493V164.493ZM117.059 69.2457L120.927 163.367L216.763 126.339L218.042 44.9364L117.059 69.2457Z" fill="#231F20"/>
<path d="M113.061 67.642L214.652 43.0688L218.509 44.3477L116.583 68.8803L113.061 67.642Z" fill="#68E1FD"/>
<path d="M116.583 69.3473C116.532 69.3569 116.481 69.3569 116.43 69.3473L112.908 68.109C112.813 68.0779 112.731 68.0164 112.674 67.9338C112.617 67.8513 112.589 67.7523 112.594 67.6522C112.596 67.5515 112.632 67.4546 112.697 67.3772C112.761 67.2998 112.85 67.2465 112.949 67.2259L214.54 42.6122C214.627 42.5918 214.717 42.5918 214.804 42.6122L218.661 43.9012C218.756 43.9323 218.839 43.9938 218.896 44.0764C218.953 44.1589 218.981 44.2579 218.976 44.358C218.972 44.4595 218.935 44.557 218.871 44.6357C218.807 44.7145 218.719 44.7702 218.62 44.7944L116.694 69.327L116.583 69.3473ZM114.695 67.7233L116.603 68.3932L216.824 44.2768L214.672 43.546L114.695 67.7233Z" fill="#231F20"/>
<path d="M161.77 101.898C160.855 101.873 159.98 101.512 159.314 100.883C158.96 100.588 158.677 100.217 158.487 99.7965C158.297 99.3762 158.205 98.9184 158.218 98.4574C158.289 96.7827 157.66 82.4306 157.649 82.2783C157.644 82.1545 157.68 82.0325 157.752 81.9314C157.823 81.8303 157.927 81.756 158.045 81.7201L185.389 73.6001C185.474 73.5742 185.563 73.569 185.649 73.5849C185.736 73.6008 185.817 73.6374 185.887 73.6914C185.958 73.7423 186.016 73.8093 186.057 73.8869C186.097 73.9644 186.119 74.0505 186.12 74.138C186.12 74.7876 186.12 90.0431 186.12 91.0378C186.084 91.7601 185.882 92.4643 185.53 93.0961C185.178 93.7279 184.685 94.2704 184.09 94.6816C182.71 95.7575 163.79 101.634 162.156 101.878C162.028 101.897 161.899 101.904 161.77 101.898ZM158.847 82.7046C158.959 85.1914 159.466 96.9654 159.395 98.5285C159.395 98.8242 159.459 99.1164 159.584 99.3846C159.708 99.6529 159.89 99.8907 160.116 100.081C160.38 100.324 160.691 100.508 161.03 100.624C161.369 100.739 161.728 100.783 162.085 100.751C163.851 100.487 182.385 94.6613 183.491 93.7783C183.944 93.4615 184.319 93.0453 184.586 92.5615C184.854 92.0777 185.007 91.5391 185.034 90.987C185.034 90.1344 185.034 78.0458 185.034 74.879L158.847 82.7046Z" fill="white"/>
<path d="M192.251 106.892C191.579 106.897 190.937 107.166 190.462 107.641C189.988 108.116 189.719 108.758 189.713 109.43C189.708 110.062 189.953 110.671 190.393 111.125L189.246 111.683L184.73 113.713C181.685 115.053 178.64 116.342 175.513 117.479C172.421 118.612 169.262 119.554 166.054 120.3C164.084 120.737 160.684 121.843 158.999 120.178C156.675 117.895 153.082 121.478 155.416 123.772C158.553 126.817 163.049 126.147 166.947 125.294C171.38 124.293 175.725 122.935 179.939 121.234C184.202 119.549 188.444 117.742 192.565 115.753C194.352 114.9 196.047 113.388 196.108 111.267C196.15 110.724 196.084 110.179 195.912 109.663C195.74 109.147 195.465 108.671 195.106 108.263C194.746 107.855 194.308 107.523 193.817 107.288C193.327 107.052 192.794 106.918 192.251 106.892V106.892Z" fill="#231F20"/>
<path d="M21.4872 58.7811C21.3652 58.7911 21.2432 58.7615 21.1393 58.6967C21.0355 58.6318 20.9554 58.5352 20.9109 58.4211C20.8664 58.3071 20.86 58.1817 20.8925 58.0637C20.925 57.9457 20.9947 57.8413 21.0913 57.7661L39.7673 39.6179C39.8783 39.5361 40.0152 39.4975 40.1526 39.5091C40.29 39.5208 40.4184 39.582 40.514 39.6813C40.6096 39.7806 40.6659 39.9113 40.6723 40.049C40.6787 40.1867 40.6348 40.3221 40.5489 40.4299L21.883 58.6187C21.8313 58.6709 21.7696 58.7122 21.7016 58.7401C21.6336 58.768 21.5607 58.7819 21.4872 58.7811V58.7811Z" fill="#D1D3D4"/>
<path d="M27.5872 88.2872C27.5014 88.2884 27.4164 88.2697 27.339 88.2328C27.2615 88.1958 27.1936 88.1415 27.1406 88.074C27.0489 87.9564 27.0072 87.8076 27.0243 87.6595C27.0413 87.5114 27.1159 87.3759 27.2319 87.2823L37.524 79.071C37.5803 79.0128 37.6484 78.9674 37.7236 78.9377C37.7989 78.908 37.8796 78.8946 37.9604 78.8986C38.0412 78.9026 38.1203 78.9238 38.1922 78.9608C38.2642 78.9978 38.3274 79.0498 38.3777 79.1132C38.428 79.1765 38.4641 79.2499 38.4838 79.3284C38.5034 79.4069 38.5061 79.4887 38.4915 79.5683C38.477 79.6479 38.4457 79.7235 38.3996 79.79C38.3535 79.8565 38.2938 79.9124 38.2244 79.954L27.912 88.1654C27.8197 88.2401 27.7058 88.2828 27.5872 88.2872V88.2872Z" fill="#D1D3D4"/>
</g>
<defs>
<clipPath id="clip0_2195_3489">
<rect width="266.975" height="237.868" fill="white"/>
</clipPath>
</defs>
</svg>
