<svg width="28" height="28" viewBox="0 0 28 28" fill="none" xmlns="http://www.w3.org/2000/svg">
<mask id="path-1-inside-1_1297_1835" fill="white">
<path d="M7.2626 21.9625L6.0376 20.7375L12.7751 14L6.0376 7.26248L7.2626 6.03748L14.0001 12.775L20.7376 6.03748L21.9626 7.26248L15.2251 14L21.9626 20.7375L20.7376 21.9625L14.0001 15.225L7.2626 21.9625Z"/>
</mask>
<path d="M7.2626 21.9625L6.0376 20.7375L12.7751 14L6.0376 7.26248L7.2626 6.03748L14.0001 12.775L20.7376 6.03748L21.9626 7.26248L15.2251 14L21.9626 20.7375L20.7376 21.9625L14.0001 15.225L7.2626 21.9625Z" fill="white"/>
<path d="M7.2626 21.9625L5.14128 24.0838L7.2626 26.2051L9.38392 24.0838L7.2626 21.9625ZM6.0376 20.7375L3.91628 18.6162L1.79496 20.7375L3.91628 22.8588L6.0376 20.7375ZM12.7751 14L14.8964 16.1213L17.0177 14L14.8964 11.8787L12.7751 14ZM6.0376 7.26248L3.91628 5.14115L1.79496 7.26248L3.91628 9.3838L6.0376 7.26248ZM7.2626 6.03748L9.38392 3.91616L7.2626 1.79484L5.14128 3.91616L7.2626 6.03748ZM14.0001 12.775L11.8788 14.8963L14.0001 17.0176L16.1214 14.8963L14.0001 12.775ZM20.7376 6.03748L22.8589 3.91615L20.7376 1.79484L18.6163 3.91616L20.7376 6.03748ZM21.9626 7.26248L24.0839 9.3838L26.2052 7.26247L24.0839 5.14115L21.9626 7.26248ZM15.2251 14L13.1038 11.8787L10.9825 14L13.1038 16.1213L15.2251 14ZM21.9626 20.7375L24.0839 22.8588L26.2052 20.7375L24.0839 18.6162L21.9626 20.7375ZM20.7376 21.9625L18.6163 24.0838L20.7376 26.2051L22.8589 24.0838L20.7376 21.9625ZM14.0001 15.225L16.1214 13.1037L14.0001 10.9823L11.8788 13.1037L14.0001 15.225ZM9.38392 19.8412L8.15892 18.6162L3.91628 22.8588L5.14128 24.0838L9.38392 19.8412ZM8.15892 22.8588L14.8964 16.1213L10.6538 11.8787L3.91628 18.6162L8.15892 22.8588ZM14.8964 11.8787L8.15892 5.14115L3.91628 9.3838L10.6538 16.1213L14.8964 11.8787ZM8.15892 9.3838L9.38392 8.1588L5.14128 3.91616L3.91628 5.14115L8.15892 9.3838ZM5.14128 8.1588L11.8788 14.8963L16.1214 10.6537L9.38392 3.91616L5.14128 8.1588ZM16.1214 14.8963L22.8589 8.1588L18.6163 3.91616L11.8788 10.6537L16.1214 14.8963ZM18.6163 8.1588L19.8413 9.3838L24.0839 5.14115L22.8589 3.91615L18.6163 8.1588ZM19.8413 5.14115L13.1038 11.8787L17.3464 16.1213L24.0839 9.3838L19.8413 5.14115ZM13.1038 16.1213L19.8413 22.8588L24.0839 18.6162L17.3464 11.8787L13.1038 16.1213ZM19.8413 18.6162L18.6163 19.8412L22.8589 24.0838L24.0839 22.8588L19.8413 18.6162ZM22.8589 19.8412L16.1214 13.1037L11.8788 17.3463L18.6163 24.0838L22.8589 19.8412ZM11.8788 13.1037L5.14128 19.8412L9.38392 24.0838L16.1214 17.3463L11.8788 13.1037Z" fill="white" mask="url(#path-1-inside-1_1297_1835)"/>
</svg>
