<svg width="101" height="101" viewBox="0 0 101 101" fill="none" xmlns="http://www.w3.org/2000/svg">
<path d="M70.381 8.78699H30.6193C27.0962 8.78699 24.2401 11.643 24.2401 15.1661V85.8338C24.2401 89.3569 27.0962 92.213 30.6193 92.213H70.381C73.9041 92.213 76.7601 89.3569 76.7601 85.8338V15.1661C76.7601 11.643 73.9041 8.78699 70.381 8.78699Z" fill="#24285B"/>
<path d="M67.5529 12.4331H33.5624C30.0393 12.4331 27.1832 15.2892 27.1832 18.8123V82.618C27.1832 86.1411 30.0393 88.9972 33.5624 88.9972H67.5529C71.076 88.9972 73.9321 86.1411 73.9321 82.618V18.8123C73.9321 15.2892 71.076 12.4331 67.5529 12.4331Z" fill="#E2E2E2"/>
<path d="M62.907 12.1625H33.4635C29.9404 12.1625 27.0844 15.0185 27.0844 18.5416V80.5819C27.0844 84.105 29.9404 86.9611 33.4635 86.9611H62.907C66.4301 86.9611 69.2862 84.105 69.2862 80.5819V18.5416C69.2862 15.0185 66.4301 12.1625 62.907 12.1625Z" fill="#F2F2F2"/>
<path d="M36.9661 10.807H63.8321V12.3442C63.8321 13.758 63.2704 15.1139 62.2707 16.1137C61.271 17.1134 59.9151 17.675 58.5013 17.675H42.2968C40.883 17.675 39.5271 17.1134 38.5274 16.1137C37.5277 15.1139 36.9661 13.758 36.9661 12.3442V10.807Z" fill="#24285B"/>
<path d="M67.5852 38.0244H33.7017C33.2367 38.0244 32.7907 38.2091 32.4619 38.538C32.1331 38.8668 31.9484 39.3128 31.9484 39.7778V58.7658C31.9481 58.9962 31.9933 59.2244 32.0813 59.4374C32.1692 59.6503 32.2984 59.8439 32.4612 60.0069C32.624 60.1699 32.8174 60.2993 33.0303 60.3875C33.2431 60.4757 33.4713 60.5212 33.7017 60.5212H37.5761L39.0345 62.7714C39.055 62.8033 39.0829 62.8296 39.1159 62.8482C39.1489 62.8667 39.1859 62.8769 39.2238 62.8779C39.2616 62.8789 39.2991 62.8707 39.333 62.8539C39.3669 62.8371 39.3962 62.8122 39.4183 62.7815L41.0464 60.5212H67.5892C67.8197 60.5212 68.0478 60.4757 68.2607 60.3875C68.4736 60.2993 68.6669 60.1699 68.8298 60.0069C68.9926 59.8439 69.1217 59.6503 69.2097 59.4374C69.2977 59.2244 69.3429 58.9962 69.3426 58.7658V39.7778C69.3423 39.5473 69.2967 39.319 69.2082 39.1062C69.1197 38.8933 68.9902 38.6999 68.827 38.5371C68.6638 38.3743 68.4702 38.2452 68.2571 38.1573C68.044 38.0693 67.8157 38.0241 67.5852 38.0244Z" fill="#E34149"/>
<path d="M32.7058 59.4749C32.4858 59.475 32.2678 59.4332 32.0635 59.3517C32.1836 59.6946 32.4074 59.9918 32.7037 60.202C33.0001 60.4123 33.3545 60.5252 33.7179 60.5253H37.5821L36.8994 59.4749H32.7058Z" fill="#DB2868"/>
<path d="M68.2375 38.1476C68.3025 38.3347 68.336 38.5313 68.3365 38.7293V57.7173C68.3368 57.9478 68.2916 58.176 68.2036 58.3889C68.1156 58.6019 67.9865 58.7954 67.8237 58.9585C67.6608 59.1215 67.4674 59.2508 67.2546 59.3391C67.0417 59.4273 66.8136 59.4727 66.5831 59.4727H40.0504L38.4223 61.7331L38.394 61.7614L39.0505 62.7714C39.071 62.8032 39.099 62.8295 39.1319 62.8481C39.1649 62.8667 39.2019 62.8769 39.2398 62.8779C39.2776 62.8789 39.3151 62.8706 39.349 62.8538C39.3829 62.837 39.4122 62.8122 39.4343 62.7815L41.0625 60.5211H67.5992C67.8296 60.5211 68.0578 60.4757 68.2706 60.3874C68.4835 60.2992 68.6769 60.1699 68.8397 60.0068C69.0026 59.8438 69.1317 59.6503 69.2197 59.4373C69.3077 59.2244 69.3528 58.9961 69.3526 58.7657V39.7777C69.352 39.4254 69.2453 39.0815 69.0464 38.7907C68.8475 38.4999 68.5656 38.2758 68.2375 38.1476Z" fill="#DB2868"/>
<path d="M50.6454 52.4534H40.6222" stroke="white" stroke-width="1.818" stroke-linecap="round" stroke-linejoin="round"/>
<path d="M40.6222 45.6439H60.6707" stroke="white" stroke-width="1.818" stroke-linecap="round" stroke-linejoin="round"/>
</svg>
