<svg width="315" height="216" viewBox="0 0 315 216" fill="none" xmlns="http://www.w3.org/2000/svg">
<g clip-path="url(#clip0_1620_3325)">
<path d="M110.441 194.566L110.54 194.173C110.561 194.087 112.793 185.475 119.527 180.799C126.262 176.123 135.11 177.043 135.198 177.052L135.602 177.097L135.503 177.49C135.481 177.577 133.25 186.188 126.515 190.864C119.78 195.54 110.932 194.621 110.844 194.611L110.441 194.566ZM119.931 181.381C114.237 185.334 111.865 192.208 111.342 193.941C113.149 194.055 120.423 194.232 126.111 190.282C131.799 186.333 134.176 179.456 134.7 177.723C132.893 177.608 125.619 177.431 119.931 181.381Z" fill="#F1F1F1"/>
<path d="M122.376 183.471C118.979 190.891 110.977 194.505 110.977 194.505C110.977 194.505 108.482 186.087 111.879 178.666C115.275 171.245 123.278 167.632 123.278 167.632C123.278 167.632 125.773 176.05 122.376 183.471Z" fill="#C6C6C6"/>
<path d="M36.1531 191.883C32.4904 180.619 32.1906 167.818 38.3806 157.367C41.012 152.925 44.7103 149.088 49.2463 146.581C54.4786 143.688 60.5185 142.742 66.4274 142.612C79.2759 142.328 92.0368 145.432 104.886 143.827C110.652 143.107 116.402 141.492 121.344 138.361C125.617 135.653 129.326 131.864 131.514 127.269C133.647 122.883 134.129 117.877 132.874 113.165C131.659 108.708 128.801 104.541 124.621 102.408C120.824 100.469 116.162 100.418 112.238 102.021C108.017 103.746 104.977 107.314 104.331 111.88C103.524 117.577 106.089 123.213 108.944 127.981C111.693 132.571 115.025 136.878 119.073 140.397C122.994 143.805 127.619 146.491 132.705 147.685C137.53 148.817 142.734 148.717 147.425 147.044C152.264 145.314 156.298 141.863 158.758 137.351C161.503 132.384 162.462 126.647 162.368 121.025C162.256 114.386 160.855 107.813 159.604 101.316C158.336 94.7272 156.973 88.1573 155.515 81.6066C154.804 78.4135 154.071 75.2255 153.316 72.0427C153.158 71.3782 152.134 71.6595 152.292 72.3249C155.296 84.9932 158.104 97.7626 160.235 110.61C161.247 116.709 161.88 123.034 160.612 129.145C159.542 134.298 157.142 139.293 153.037 142.702C145.203 149.208 133.519 148.385 125.134 143.475C120.613 140.827 116.777 137.119 113.601 132.975C110.318 128.692 107.26 123.793 105.875 118.535C105.159 115.819 104.955 112.921 105.782 110.206C106.419 108.117 107.671 106.268 109.373 104.9C112.561 102.314 117.069 101.385 121.053 102.256C125.542 103.238 129.015 106.617 130.879 110.726C132.814 115.068 133.04 119.98 131.511 124.481C129.904 129.231 126.57 133.292 122.563 136.245C118.001 139.606 112.565 141.513 107.013 142.452C94.5576 144.56 82.0457 141.804 69.5671 141.551C63.8805 141.435 58.0518 141.873 52.6772 143.86C47.8891 145.644 43.6605 148.667 40.4233 152.62C33.322 161.235 31.3563 172.666 33.0372 183.503C33.5017 186.442 34.2013 189.339 35.1294 192.166C35.3398 192.813 36.3652 192.536 36.1531 191.883L36.1531 191.883Z" fill="#C6C6C6"/>
<path d="M38.6116 189.322H31.8877V194.63H38.6116V189.322Z" fill="#6C63FF"/>
<path d="M152.873 72.1726H272.802C295.521 72.1726 313.938 59.2236 313.938 36.5046V36.5046C313.938 13.7857 295.521 4.31641 272.802 4.31641H235.146C189.708 4.31641 152.873 26.7347 152.873 72.1725V72.1726Z" fill="white"/>
<path d="M272.802 73.2342H151.811V72.1725C151.811 50.4326 160.289 32.5159 176.329 20.3592C191.092 9.16946 211.431 3.25476 235.145 3.25476H272.802C284.966 3.25476 295.235 5.94021 302.498 11.021C310.794 16.8235 315 25.3974 315 36.5046C315 47.6402 310.699 57.0374 302.561 63.6805C295.014 69.8413 284.446 73.2342 272.802 73.2342ZM153.941 71.1108H272.802C296.772 71.1108 312.877 57.2037 312.877 36.5046C312.877 8.41106 284.851 5.3781 272.802 5.3781H235.145C196.168 5.3781 154.539 22.6707 153.941 71.1108H153.941Z" fill="#C6C6C6"/>
<path d="M135.186 194.984H0.35389C0.260033 194.984 0.170019 194.946 0.103652 194.88C0.0372845 194.814 0 194.724 0 194.63C0 194.536 0.0372845 194.446 0.103652 194.38C0.170019 194.313 0.260033 194.276 0.35389 194.276H135.186C135.28 194.276 135.37 194.313 135.436 194.38C135.503 194.446 135.54 194.536 135.54 194.63C135.54 194.724 135.503 194.814 135.436 194.88C135.37 194.946 135.28 194.984 135.186 194.984Z" fill="#CBCBCB"/>
<path d="M81.7486 216.571H40.3434C40.2495 216.571 40.1595 216.534 40.0932 216.467C40.0268 216.401 39.9895 216.311 39.9895 216.217C39.9895 216.123 40.0268 216.033 40.0932 215.967C40.1595 215.9 40.2495 215.863 40.3434 215.863H81.7486C81.8424 215.863 81.9324 215.9 81.9988 215.967C82.0652 216.033 82.1025 216.123 82.1025 216.217C82.1025 216.311 82.0652 216.401 81.9988 216.467C81.9324 216.534 81.8424 216.571 81.7486 216.571Z" fill="#CBCBCB"/>
<path d="M42.6159 119.434C43.0517 118.872 43.359 118.221 43.516 117.527C43.6731 116.833 43.6761 116.113 43.5248 115.418C43.3736 114.723 43.0718 114.07 42.6407 113.504C42.2096 112.938 41.6596 112.474 41.0296 112.143L43.5946 95.0432L35.4425 98.8225L34.2565 114.482C33.7718 115.577 33.7056 116.812 34.0705 117.953C34.4355 119.093 35.2062 120.06 36.2366 120.671C37.267 121.281 38.4855 121.493 39.6613 121.265C40.837 121.037 41.8883 120.385 42.6159 119.434V119.434Z" fill="#FFB7B7"/>
<path d="M67.2641 210.241L61.3966 210.241L58.6055 187.609L67.2652 187.609L67.2641 210.241Z" fill="#FFB7B7"/>
<path d="M68.7605 215.929L49.8413 215.928V215.689C49.8414 213.736 50.6173 211.863 51.9983 210.482C53.3793 209.101 55.2522 208.325 57.2052 208.325H57.2056L68.7608 208.325L68.7605 215.929Z" fill="#2F2E41"/>
<path d="M88.2359 196.744L82.7563 198.855L72.0083 178.724L80.0954 175.609L88.2359 196.744Z" fill="#FFB7B7"/>
<path d="M91.6792 201.517L74.0111 208.323L73.925 208.099C73.2226 206.275 73.2734 204.247 74.0663 202.461C74.8591 200.674 76.3291 199.276 78.1529 198.573L78.1533 198.573L88.9444 194.417L91.6792 201.517Z" fill="#2F2E41"/>
<path d="M50.2112 106.146L48.5532 115.71L75.0805 196.398L89.2421 192.075L79.123 162.314L68.8977 118.186L68.6761 102.457L50.2112 106.146Z" fill="#2F2E41"/>
<path d="M56.0461 205.947L60.8233 173.278L60.0529 167.113L68.6765 148.187L67.6828 103.331L86.4874 106.146L79.1233 163.922L69.5329 197.855L67.6063 205.176L56.0461 205.947Z" fill="#2F2E41"/>
<path d="M58.9361 28.501C64.8949 28.501 69.7254 23.6705 69.7254 17.7117C69.7254 11.7529 64.8949 6.92236 58.9361 6.92236C52.9773 6.92236 48.1467 11.7529 48.1467 17.7117C48.1467 23.6705 52.9773 28.501 58.9361 28.501Z" fill="#FFB8B8"/>
<path d="M69.5851 6.23147C67.8636 3.43592 65.1689 1.3759 62.0197 0.447913L59.7067 2.29833L60.606 0.140025C59.8497 0.0246581 59.0843 -0.0195753 58.3198 0.00789896L56.2387 2.68366L57.1001 0.0995521C55.2942 0.323967 53.5544 0.920124 51.9904 1.85043C50.4264 2.78073 49.0722 4.025 48.013 5.50478C45.3643 9.32409 45.5415 14.6332 48.1467 18.4823C48.8619 16.2846 49.1056 14.2247 49.8208 12.0269C50.3828 12.1036 50.9525 12.1063 51.5153 12.0352L52.3854 10.005L52.6284 11.9493C55.3252 11.7143 59.3253 11.1985 61.882 10.7259L61.6334 9.23433L63.1208 10.4738C63.9041 10.2935 64.3691 10.13 64.3307 10.005C66.2322 13.0704 68.1162 15.0283 70.0176 18.0937C70.7394 13.7699 72.0136 10.1758 69.5851 6.23147Z" fill="#2F2E41"/>
<path d="M79.8972 31.2827C79.8972 31.2827 59.3501 29.4561 50.357 36.9201L47.5686 103.834L49.1064 109.055C49.1064 109.055 56.4611 110.523 65.3855 107.991C74.3098 105.459 86.4873 109.055 86.4873 109.055L87.7965 68.082L79.8972 31.2827Z" fill="#CBCBCB"/>
<path d="M49.6485 105.074L56.0607 39.9784L54.8505 34.3652C54.8505 34.3652 42.4798 37.859 37.9722 44.4931L46.1078 100.903V106.146L49.6485 105.074Z" fill="#3F3D56"/>
<path d="M78.3955 100.751C78.3955 100.751 61.1924 42.3958 67.3659 31.7335C67.3659 31.7335 79.7836 28.2318 85.7168 32.5509L89.003 68.3919C89.003 68.3919 95.5962 88.8847 90.5405 93.704L91.6501 98.5233C91.6501 98.5233 84.9051 98.9208 83.4609 99.1074C82.0167 99.294 78.3955 100.751 78.3955 100.751Z" fill="#3F3D56"/>
<path d="M41.8074 44.1071L37.9722 44.4932C37.9722 44.4932 36.5935 45.242 36.7631 48.57C36.9326 51.898 32.7836 100.667 34.8581 103.834L33.6572 107.964L42.1346 110.276L42.6382 106.146C42.6382 106.146 46.0722 95.4702 46.5117 92.7581C46.9512 90.046 41.8074 44.1071 41.8074 44.1071Z" fill="#3F3D56"/>
<path d="M83.8989 99.9397C83.8831 99.2285 84.0234 98.5226 84.31 97.8715C84.5966 97.2204 85.0224 96.6401 85.5575 96.1714C86.0926 95.7027 86.724 95.357 87.4071 95.1587C88.0903 94.9604 88.8086 94.9143 89.5115 95.0237L97.6238 79.7533L101.928 87.6411L93.5642 100.933C93.3022 102.102 92.6207 103.133 91.6487 103.833C90.6767 104.533 89.4818 104.852 88.2904 104.729C87.099 104.607 85.994 104.052 85.1846 103.169C84.3752 102.286 83.9177 101.137 83.8989 99.9397Z" fill="#FFB7B7"/>
<path d="M80.7634 34.4442L85.3313 32.5509C85.3313 32.5509 92.7695 36.5939 93.3657 40.5853C93.9619 44.5766 108.682 70.4159 108.682 70.4159C108.682 70.4159 103.419 93.4195 98.6905 94.8154L96.1207 97.651L89.0208 93.0763L91.321 90.7761C91.321 90.7761 91.2607 78.6071 93.382 76.4272C93.382 76.4272 87.4112 61.146 84.7139 59.6046C82.0166 58.0633 80.7634 34.4442 80.7634 34.4442Z" fill="#3F3D56"/>
<path d="M190.304 29.2031C190.304 29.0371 190.278 28.8906 190.226 28.7637C190.177 28.6335 190.089 28.5163 189.962 28.4121C189.838 28.3079 189.666 28.2087 189.444 28.1143C189.226 28.0199 188.95 27.9238 188.614 27.8262C188.263 27.722 187.945 27.6064 187.662 27.4795C187.379 27.3493 187.136 27.2012 186.935 27.0352C186.733 26.8691 186.578 26.6787 186.471 26.4639C186.363 26.249 186.31 26.0033 186.31 25.7266C186.31 25.4499 186.367 25.1943 186.48 24.96C186.594 24.7256 186.757 24.5221 186.969 24.3496C187.184 24.1738 187.439 24.0371 187.735 23.9395C188.032 23.8418 188.362 23.793 188.727 23.793C189.26 23.793 189.713 23.8955 190.084 24.1006C190.458 24.3024 190.743 24.5677 190.938 24.8965C191.134 25.222 191.231 25.5703 191.231 25.9414H190.294C190.294 25.6745 190.237 25.4385 190.123 25.2334C190.009 25.0251 189.837 24.8623 189.605 24.7451C189.374 24.6247 189.081 24.5645 188.727 24.5645C188.391 24.5645 188.115 24.6149 187.896 24.7158C187.678 24.8167 187.516 24.9535 187.408 25.126C187.304 25.2985 187.252 25.4954 187.252 25.7168C187.252 25.8665 187.283 26.0033 187.345 26.127C187.41 26.2474 187.509 26.3597 187.643 26.4639C187.779 26.568 187.952 26.6641 188.16 26.752C188.372 26.8398 188.624 26.9245 188.917 27.0059C189.321 27.1198 189.669 27.2467 189.962 27.3867C190.255 27.5267 190.496 27.6846 190.685 27.8604C190.877 28.0329 191.018 28.2298 191.109 28.4512C191.204 28.6693 191.251 28.9167 191.251 29.1934C191.251 29.4831 191.192 29.7451 191.075 29.9795C190.958 30.2139 190.79 30.4141 190.572 30.5801C190.354 30.7461 190.092 30.8747 189.786 30.9658C189.483 31.0537 189.145 31.0977 188.771 31.0977C188.442 31.0977 188.118 31.0521 187.799 30.9609C187.483 30.8698 187.195 30.7331 186.935 30.5508C186.677 30.3685 186.471 30.1439 186.314 29.877C186.161 29.6068 186.085 29.2943 186.085 28.9395H187.022C187.022 29.1836 187.07 29.3936 187.164 29.5693C187.258 29.7419 187.387 29.8851 187.55 29.999C187.716 30.113 187.903 30.1976 188.111 30.2529C188.323 30.305 188.543 30.3311 188.771 30.3311C189.099 30.3311 189.378 30.2855 189.605 30.1943C189.833 30.1032 190.006 29.973 190.123 29.8037C190.243 29.6344 190.304 29.4342 190.304 29.2031ZM192.076 28.417V28.3047C192.076 27.9238 192.132 27.5706 192.242 27.2451C192.353 26.9163 192.512 26.6315 192.721 26.3906C192.929 26.1465 193.181 25.9577 193.478 25.8242C193.774 25.6875 194.106 25.6191 194.474 25.6191C194.845 25.6191 195.178 25.6875 195.475 25.8242C195.774 25.9577 196.028 26.1465 196.236 26.3906C196.448 26.6315 196.609 26.9163 196.72 27.2451C196.83 27.5706 196.886 27.9238 196.886 28.3047V28.417C196.886 28.7979 196.83 29.151 196.72 29.4766C196.609 29.8021 196.448 30.0869 196.236 30.3311C196.028 30.5719 195.776 30.7607 195.479 30.8975C195.187 31.0309 194.854 31.0977 194.483 31.0977C194.112 31.0977 193.779 31.0309 193.482 30.8975C193.186 30.7607 192.932 30.5719 192.721 30.3311C192.512 30.0869 192.353 29.8021 192.242 29.4766C192.132 29.151 192.076 28.7979 192.076 28.417ZM192.979 28.3047V28.417C192.979 28.6807 193.01 28.9297 193.072 29.1641C193.134 29.3952 193.227 29.6003 193.351 29.7793C193.478 29.9583 193.635 30.0999 193.824 30.2041C194.013 30.305 194.233 30.3555 194.483 30.3555C194.731 30.3555 194.947 30.305 195.133 30.2041C195.322 30.0999 195.478 29.9583 195.602 29.7793C195.725 29.6003 195.818 29.3952 195.88 29.1641C195.945 28.9297 195.978 28.6807 195.978 28.417V28.3047C195.978 28.0443 195.945 27.7985 195.88 27.5674C195.818 27.333 195.724 27.1263 195.597 26.9473C195.473 26.765 195.317 26.6217 195.128 26.5176C194.942 26.4134 194.724 26.3613 194.474 26.3613C194.226 26.3613 194.008 26.4134 193.819 26.5176C193.634 26.6217 193.478 26.765 193.351 26.9473C193.227 27.1263 193.134 27.333 193.072 27.5674C193.01 27.7985 192.979 28.0443 192.979 28.3047ZM199.425 30.4531L200.895 25.7168H201.861L199.742 31.8154C199.693 31.9456 199.628 32.0856 199.547 32.2354C199.469 32.3883 199.368 32.5332 199.244 32.6699C199.12 32.8066 198.971 32.9173 198.795 33.002C198.622 33.0898 198.416 33.1338 198.175 33.1338C198.103 33.1338 198.012 33.124 197.901 33.1045C197.791 33.085 197.713 33.0687 197.667 33.0557L197.662 32.3232C197.688 32.3265 197.729 32.3298 197.784 32.333C197.843 32.3395 197.883 32.3428 197.906 32.3428C198.111 32.3428 198.285 32.3151 198.429 32.2598C198.572 32.2077 198.692 32.1182 198.79 31.9912C198.891 31.8675 198.977 31.6966 199.049 31.4785L199.425 30.4531ZM198.346 25.7168L199.718 29.8184L199.952 30.7705L199.303 31.1025L197.359 25.7168H198.346ZM208.39 29.7793V25.7168H209.298V31H208.434L208.39 29.7793ZM208.561 28.666L208.937 28.6562C208.937 29.0078 208.899 29.3333 208.824 29.6328C208.753 29.929 208.635 30.1862 208.473 30.4043C208.31 30.6224 208.097 30.7933 207.833 30.917C207.569 31.0374 207.249 31.0977 206.871 31.0977C206.614 31.0977 206.378 31.0602 206.163 30.9854C205.951 30.9105 205.769 30.7949 205.616 30.6387C205.463 30.4824 205.344 30.279 205.26 30.0283C205.178 29.7777 205.138 29.4766 205.138 29.125V25.7168H206.041V29.1348C206.041 29.3724 206.067 29.5693 206.119 29.7256C206.174 29.8786 206.248 30.0007 206.339 30.0918C206.433 30.1797 206.537 30.2415 206.651 30.2773C206.769 30.3132 206.889 30.3311 207.013 30.3311C207.397 30.3311 207.701 30.2578 207.926 30.1113C208.15 29.9616 208.312 29.7614 208.409 29.5107C208.51 29.2568 208.561 28.9753 208.561 28.666ZM211.578 26.8447V31H210.675V25.7168H211.529L211.578 26.8447ZM211.363 28.1582L210.987 28.1436C210.991 27.7822 211.044 27.4486 211.148 27.1426C211.253 26.8333 211.399 26.5648 211.588 26.3369C211.777 26.109 212.001 25.9333 212.262 25.8096C212.525 25.6826 212.817 25.6191 213.136 25.6191C213.396 25.6191 213.631 25.6549 213.839 25.7266C214.047 25.7949 214.225 25.9056 214.371 26.0586C214.521 26.2116 214.635 26.4102 214.713 26.6543C214.791 26.8952 214.83 27.1898 214.83 27.5381V31H213.922V27.5283C213.922 27.2516 213.881 27.0303 213.8 26.8643C213.718 26.695 213.6 26.5729 213.443 26.498C213.287 26.4199 213.095 26.3809 212.867 26.3809C212.643 26.3809 212.438 26.4281 212.252 26.5225C212.07 26.6169 211.912 26.7471 211.778 26.9131C211.648 27.0791 211.546 27.2695 211.471 27.4844C211.399 27.696 211.363 27.9206 211.363 28.1582ZM219.317 30.0967V27.377C219.317 27.1686 219.275 26.988 219.19 26.835C219.109 26.6787 218.985 26.5583 218.819 26.4736C218.653 26.389 218.448 26.3467 218.204 26.3467C217.976 26.3467 217.776 26.3857 217.604 26.4639C217.434 26.542 217.301 26.6445 217.203 26.7715C217.109 26.8984 217.062 27.0352 217.062 27.1816H216.158C216.158 26.9928 216.207 26.8057 216.305 26.6201C216.402 26.4346 216.542 26.2669 216.725 26.1172C216.91 25.9642 217.132 25.8438 217.389 25.7559C217.649 25.6647 217.939 25.6191 218.258 25.6191C218.642 25.6191 218.98 25.6842 219.273 25.8145C219.57 25.9447 219.801 26.1416 219.967 26.4053C220.136 26.6657 220.221 26.9928 220.221 27.3867V29.8477C220.221 30.0234 220.235 30.2106 220.265 30.4092C220.297 30.6077 220.344 30.7786 220.406 30.9219V31H219.464C219.418 30.8958 219.382 30.7575 219.356 30.585C219.33 30.4092 219.317 30.2464 219.317 30.0967ZM219.474 27.7969L219.483 28.4316H218.57C218.313 28.4316 218.084 28.4528 217.882 28.4951C217.68 28.5342 217.511 28.5944 217.374 28.6758C217.237 28.7572 217.133 28.8597 217.062 28.9834C216.99 29.1038 216.954 29.2454 216.954 29.4082C216.954 29.5742 216.992 29.7256 217.066 29.8623C217.141 29.999 217.254 30.1081 217.403 30.1895C217.556 30.2676 217.743 30.3066 217.965 30.3066C218.242 30.3066 218.486 30.248 218.697 30.1309C218.909 30.0137 219.076 29.8704 219.2 29.7012C219.327 29.5319 219.396 29.3675 219.405 29.208L219.791 29.6426C219.768 29.7793 219.706 29.9307 219.605 30.0967C219.505 30.2627 219.369 30.4222 219.2 30.5752C219.034 30.7249 218.836 30.8503 218.604 30.9512C218.377 31.0488 218.119 31.0977 217.833 31.0977C217.475 31.0977 217.161 31.0277 216.891 30.8877C216.624 30.7477 216.415 30.5605 216.266 30.3262C216.119 30.0885 216.046 29.8232 216.046 29.5303C216.046 29.2471 216.101 28.998 216.212 28.7832C216.323 28.5651 216.482 28.3844 216.69 28.2412C216.899 28.0947 217.149 27.984 217.442 27.9092C217.735 27.8343 218.062 27.7969 218.424 27.7969H219.474ZM226.236 30.3555C226.451 30.3555 226.65 30.3115 226.832 30.2236C227.014 30.1357 227.164 30.0153 227.281 29.8623C227.398 29.7061 227.465 29.5286 227.481 29.3301H228.341C228.325 29.6426 228.219 29.9339 228.023 30.2041C227.831 30.471 227.579 30.6875 227.267 30.8535C226.954 31.0163 226.611 31.0977 226.236 31.0977C225.839 31.0977 225.493 31.0277 225.196 30.8877C224.903 30.7477 224.659 30.5557 224.464 30.3115C224.272 30.0674 224.127 29.7874 224.029 29.4717C223.935 29.1527 223.888 28.8158 223.888 28.4609V28.2559C223.888 27.901 223.935 27.5658 224.029 27.25C224.127 26.931 224.272 26.6494 224.464 26.4053C224.659 26.1611 224.903 25.9691 225.196 25.8291C225.493 25.6891 225.839 25.6191 226.236 25.6191C226.65 25.6191 227.011 25.7038 227.32 25.873C227.63 26.0391 227.872 26.2669 228.048 26.5566C228.227 26.8431 228.325 27.1686 228.341 27.5332H227.481C227.465 27.3151 227.403 27.1182 227.296 26.9424C227.192 26.7666 227.049 26.6266 226.866 26.5225C226.687 26.415 226.477 26.3613 226.236 26.3613C225.96 26.3613 225.727 26.4167 225.538 26.5273C225.353 26.6348 225.204 26.7812 225.094 26.9668C224.986 27.1491 224.908 27.3525 224.859 27.5771C224.814 27.7985 224.791 28.0247 224.791 28.2559V28.4609C224.791 28.6921 224.814 28.9199 224.859 29.1445C224.905 29.3691 224.981 29.5726 225.089 29.7549C225.2 29.9372 225.348 30.0837 225.533 30.1943C225.722 30.3018 225.956 30.3555 226.236 30.3555ZM232.472 30.0967V27.377C232.472 27.1686 232.429 26.988 232.345 26.835C232.263 26.6787 232.14 26.5583 231.974 26.4736C231.808 26.389 231.603 26.3467 231.358 26.3467C231.131 26.3467 230.93 26.3857 230.758 26.4639C230.589 26.542 230.455 26.6445 230.357 26.7715C230.263 26.8984 230.216 27.0352 230.216 27.1816H229.312C229.312 26.9928 229.361 26.8057 229.459 26.6201C229.557 26.4346 229.697 26.2669 229.879 26.1172C230.064 25.9642 230.286 25.8438 230.543 25.7559C230.803 25.6647 231.093 25.6191 231.412 25.6191C231.796 25.6191 232.135 25.6842 232.428 25.8145C232.724 25.9447 232.955 26.1416 233.121 26.4053C233.29 26.6657 233.375 26.9928 233.375 27.3867V29.8477C233.375 30.0234 233.39 30.2106 233.419 30.4092C233.451 30.6077 233.499 30.7786 233.561 30.9219V31H232.618C232.573 30.8958 232.537 30.7575 232.511 30.585C232.485 30.4092 232.472 30.2464 232.472 30.0967ZM232.628 27.7969L232.638 28.4316H231.725C231.467 28.4316 231.238 28.4528 231.036 28.4951C230.834 28.5342 230.665 28.5944 230.528 28.6758C230.392 28.7572 230.287 28.8597 230.216 28.9834C230.144 29.1038 230.108 29.2454 230.108 29.4082C230.108 29.5742 230.146 29.7256 230.221 29.8623C230.296 29.999 230.408 30.1081 230.558 30.1895C230.711 30.2676 230.898 30.3066 231.119 30.3066C231.396 30.3066 231.64 30.248 231.852 30.1309C232.063 30.0137 232.231 29.8704 232.354 29.7012C232.481 29.5319 232.55 29.3675 232.56 29.208L232.945 29.6426C232.923 29.7793 232.861 29.9307 232.76 30.0967C232.659 30.2627 232.524 30.4222 232.354 30.5752C232.188 30.7249 231.99 30.8503 231.759 30.9512C231.531 31.0488 231.274 31.0977 230.987 31.0977C230.629 31.0977 230.315 31.0277 230.045 30.8877C229.778 30.7477 229.57 30.5605 229.42 30.3262C229.273 30.0885 229.2 29.8232 229.2 29.5303C229.2 29.2471 229.256 28.998 229.366 28.7832C229.477 28.5651 229.636 28.3844 229.845 28.2412C230.053 28.0947 230.304 27.984 230.597 27.9092C230.89 27.8343 231.217 27.7969 231.578 27.7969H232.628ZM235.777 23.5V31H234.869V23.5H235.777ZM239.342 30.3555C239.557 30.3555 239.755 30.3115 239.938 30.2236C240.12 30.1357 240.27 30.0153 240.387 29.8623C240.504 29.7061 240.571 29.5286 240.587 29.3301H241.446C241.43 29.6426 241.324 29.9339 241.129 30.2041C240.937 30.471 240.685 30.6875 240.372 30.8535C240.06 31.0163 239.716 31.0977 239.342 31.0977C238.945 31.0977 238.598 31.0277 238.302 30.8877C238.009 30.7477 237.765 30.5557 237.569 30.3115C237.377 30.0674 237.232 29.7874 237.135 29.4717C237.04 29.1527 236.993 28.8158 236.993 28.4609V28.2559C236.993 27.901 237.04 27.5658 237.135 27.25C237.232 26.931 237.377 26.6494 237.569 26.4053C237.765 26.1611 238.009 25.9691 238.302 25.8291C238.598 25.6891 238.945 25.6191 239.342 25.6191C239.755 25.6191 240.117 25.7038 240.426 25.873C240.735 26.0391 240.978 26.2669 241.153 26.5566C241.332 26.8431 241.43 27.1686 241.446 27.5332H240.587C240.571 27.3151 240.509 27.1182 240.401 26.9424C240.297 26.7666 240.154 26.6266 239.972 26.5225C239.793 26.415 239.583 26.3613 239.342 26.3613C239.065 26.3613 238.832 26.4167 238.644 26.5273C238.458 26.6348 238.31 26.7812 238.199 26.9668C238.092 27.1491 238.014 27.3525 237.965 27.5771C237.919 27.7985 237.896 28.0247 237.896 28.2559V28.4609C237.896 28.6921 237.919 28.9199 237.965 29.1445C238.01 29.3691 238.087 29.5726 238.194 29.7549C238.305 29.9372 238.453 30.0837 238.639 30.1943C238.827 30.3018 239.062 30.3555 239.342 30.3555ZM245.694 29.7793V25.7168H246.603V31H245.738L245.694 29.7793ZM245.865 28.666L246.241 28.6562C246.241 29.0078 246.204 29.3333 246.129 29.6328C246.057 29.929 245.94 30.1862 245.777 30.4043C245.615 30.6224 245.401 30.7933 245.138 30.917C244.874 31.0374 244.553 31.0977 244.176 31.0977C243.919 31.0977 243.683 31.0602 243.468 30.9854C243.256 30.9105 243.074 30.7949 242.921 30.6387C242.768 30.4824 242.649 30.279 242.564 30.0283C242.483 29.7777 242.442 29.4766 242.442 29.125V25.7168H243.346V29.1348C243.346 29.3724 243.372 29.5693 243.424 29.7256C243.479 29.8786 243.552 30.0007 243.644 30.0918C243.738 30.1797 243.842 30.2415 243.956 30.2773C244.073 30.3132 244.194 30.3311 244.317 30.3311C244.701 30.3311 245.006 30.2578 245.23 30.1113C245.455 29.9616 245.616 29.7614 245.714 29.5107C245.815 29.2568 245.865 28.9753 245.865 28.666ZM248.961 23.5V31H248.053V23.5H248.961ZM253.526 30.0967V27.377C253.526 27.1686 253.484 26.988 253.399 26.835C253.318 26.6787 253.194 26.5583 253.028 26.4736C252.862 26.389 252.657 26.3467 252.413 26.3467C252.185 26.3467 251.985 26.3857 251.812 26.4639C251.643 26.542 251.51 26.6445 251.412 26.7715C251.318 26.8984 251.271 27.0352 251.271 27.1816H250.367C250.367 26.9928 250.416 26.8057 250.514 26.6201C250.611 26.4346 250.751 26.2669 250.934 26.1172C251.119 25.9642 251.34 25.8438 251.598 25.7559C251.858 25.6647 252.148 25.6191 252.467 25.6191C252.851 25.6191 253.189 25.6842 253.482 25.8145C253.779 25.9447 254.01 26.1416 254.176 26.4053C254.345 26.6657 254.43 26.9928 254.43 27.3867V29.8477C254.43 30.0234 254.444 30.2106 254.474 30.4092C254.506 30.6077 254.553 30.7786 254.615 30.9219V31H253.673C253.627 30.8958 253.591 30.7575 253.565 30.585C253.539 30.4092 253.526 30.2464 253.526 30.0967ZM253.683 27.7969L253.692 28.4316H252.779C252.522 28.4316 252.293 28.4528 252.091 28.4951C251.889 28.5342 251.72 28.5944 251.583 28.6758C251.446 28.7572 251.342 28.8597 251.271 28.9834C251.199 29.1038 251.163 29.2454 251.163 29.4082C251.163 29.5742 251.201 29.7256 251.275 29.8623C251.35 29.999 251.463 30.1081 251.612 30.1895C251.765 30.2676 251.952 30.3066 252.174 30.3066C252.451 30.3066 252.695 30.248 252.906 30.1309C253.118 30.0137 253.285 29.8704 253.409 29.7012C253.536 29.5319 253.604 29.3675 253.614 29.208L254 29.6426C253.977 29.7793 253.915 29.9307 253.814 30.0967C253.714 30.2627 253.578 30.4222 253.409 30.5752C253.243 30.7249 253.045 30.8503 252.813 30.9512C252.586 31.0488 252.328 31.0977 252.042 31.0977C251.684 31.0977 251.37 31.0277 251.1 30.8877C250.833 30.7477 250.624 30.5605 250.475 30.3262C250.328 30.0885 250.255 29.8232 250.255 29.5303C250.255 29.2471 250.31 28.998 250.421 28.7832C250.532 28.5651 250.691 28.3844 250.899 28.2412C251.108 28.0947 251.358 27.984 251.651 27.9092C251.944 27.8343 252.271 27.7969 252.633 27.7969H253.683ZM259.181 29.9746V23.5H260.089V31H259.259L259.181 29.9746ZM255.626 28.417V28.3145C255.626 27.9108 255.675 27.5446 255.772 27.2158C255.873 26.8838 256.015 26.599 256.197 26.3613C256.383 26.1237 256.603 25.9414 256.856 25.8145C257.114 25.6842 257.4 25.6191 257.716 25.6191C258.048 25.6191 258.338 25.6777 258.585 25.7949C258.836 25.9089 259.047 26.0765 259.22 26.2979C259.396 26.516 259.534 26.7796 259.635 27.0889C259.736 27.3981 259.806 27.748 259.845 28.1387V28.5879C259.809 28.9753 259.739 29.3236 259.635 29.6328C259.534 29.9421 259.396 30.2057 259.22 30.4238C259.047 30.6419 258.836 30.8096 258.585 30.9268C258.334 31.0407 258.041 31.0977 257.706 31.0977C257.397 31.0977 257.114 31.0309 256.856 30.8975C256.603 30.764 256.383 30.5768 256.197 30.3359C256.015 30.0951 255.873 29.8118 255.772 29.4863C255.675 29.1576 255.626 28.8011 255.626 28.417ZM256.534 28.3145V28.417C256.534 28.6807 256.56 28.9281 256.612 29.1592C256.668 29.3903 256.752 29.5938 256.866 29.7695C256.98 29.9453 257.125 30.0837 257.301 30.1846C257.477 30.2822 257.687 30.3311 257.931 30.3311C258.23 30.3311 258.476 30.2676 258.668 30.1406C258.863 30.0137 259.02 29.846 259.137 29.6377C259.254 29.4294 259.345 29.2031 259.41 28.959V27.7822C259.371 27.6032 259.314 27.4307 259.239 27.2646C259.168 27.0954 259.073 26.9456 258.956 26.8154C258.842 26.682 258.701 26.5762 258.531 26.498C258.365 26.4199 258.168 26.3809 257.94 26.3809C257.693 26.3809 257.48 26.4329 257.301 26.5371C257.125 26.638 256.98 26.778 256.866 26.957C256.752 27.1328 256.668 27.3379 256.612 27.5723C256.56 27.8034 256.534 28.0508 256.534 28.3145ZM261.256 28.417V28.3047C261.256 27.9238 261.311 27.5706 261.422 27.2451C261.533 26.9163 261.692 26.6315 261.9 26.3906C262.109 26.1465 262.361 25.9577 262.657 25.8242C262.953 25.6875 263.285 25.6191 263.653 25.6191C264.024 25.6191 264.358 25.6875 264.654 25.8242C264.954 25.9577 265.208 26.1465 265.416 26.3906C265.628 26.6315 265.789 26.9163 265.899 27.2451C266.01 27.5706 266.065 27.9238 266.065 28.3047V28.417C266.065 28.7979 266.01 29.151 265.899 29.4766C265.789 29.8021 265.628 30.0869 265.416 30.3311C265.208 30.5719 264.955 30.7607 264.659 30.8975C264.366 31.0309 264.034 31.0977 263.663 31.0977C263.292 31.0977 262.958 31.0309 262.662 30.8975C262.366 30.7607 262.112 30.5719 261.9 30.3311C261.692 30.0869 261.533 29.8021 261.422 29.4766C261.311 29.151 261.256 28.7979 261.256 28.417ZM262.159 28.3047V28.417C262.159 28.6807 262.19 28.9297 262.252 29.1641C262.314 29.3952 262.407 29.6003 262.53 29.7793C262.657 29.9583 262.815 30.0999 263.004 30.2041C263.193 30.305 263.412 30.3555 263.663 30.3555C263.91 30.3555 264.127 30.305 264.312 30.2041C264.501 30.0999 264.658 29.9583 264.781 29.7793C264.905 29.6003 264.998 29.3952 265.06 29.1641C265.125 28.9297 265.157 28.6807 265.157 28.417V28.3047C265.157 28.0443 265.125 27.7985 265.06 27.5674C264.998 27.333 264.903 27.1263 264.776 26.9473C264.653 26.765 264.496 26.6217 264.308 26.5176C264.122 26.4134 263.904 26.3613 263.653 26.3613C263.406 26.3613 263.188 26.4134 262.999 26.5176C262.813 26.6217 262.657 26.765 262.53 26.9473C262.407 27.1263 262.314 27.333 262.252 27.5674C262.19 27.7985 262.159 28.0443 262.159 28.3047ZM268.102 26.5469V31H267.198V25.7168H268.077L268.102 26.5469ZM269.752 25.6875L269.747 26.5273C269.672 26.5111 269.601 26.5013 269.532 26.498C269.467 26.4915 269.392 26.4883 269.308 26.4883C269.099 26.4883 268.915 26.5208 268.756 26.5859C268.596 26.651 268.461 26.7422 268.351 26.8594C268.24 26.9766 268.152 27.1165 268.087 27.2793C268.025 27.4388 267.984 27.6146 267.965 27.8066L267.711 27.9531C267.711 27.6341 267.742 27.3346 267.804 27.0547C267.869 26.7747 267.968 26.5273 268.102 26.3125C268.235 26.0944 268.404 25.9251 268.609 25.8047C268.818 25.681 269.065 25.6191 269.352 25.6191C269.417 25.6191 269.492 25.6273 269.576 25.6436C269.661 25.6566 269.719 25.6712 269.752 25.6875ZM273.507 30.0967V27.377C273.507 27.1686 273.465 26.988 273.38 26.835C273.299 26.6787 273.175 26.5583 273.009 26.4736C272.843 26.389 272.638 26.3467 272.394 26.3467C272.166 26.3467 271.965 26.3857 271.793 26.4639C271.624 26.542 271.49 26.6445 271.393 26.7715C271.298 26.8984 271.251 27.0352 271.251 27.1816H270.348C270.348 26.9928 270.396 26.8057 270.494 26.6201C270.592 26.4346 270.732 26.2669 270.914 26.1172C271.1 25.9642 271.321 25.8438 271.578 25.7559C271.839 25.6647 272.128 25.6191 272.447 25.6191C272.831 25.6191 273.17 25.6842 273.463 25.8145C273.759 25.9447 273.99 26.1416 274.156 26.4053C274.326 26.6657 274.41 26.9928 274.41 27.3867V29.8477C274.41 30.0234 274.425 30.2106 274.454 30.4092C274.487 30.6077 274.534 30.7786 274.596 30.9219V31H273.653C273.608 30.8958 273.572 30.7575 273.546 30.585C273.52 30.4092 273.507 30.2464 273.507 30.0967ZM273.663 27.7969L273.673 28.4316H272.76C272.503 28.4316 272.273 28.4528 272.071 28.4951C271.869 28.5342 271.7 28.5944 271.563 28.6758C271.427 28.7572 271.323 28.8597 271.251 28.9834C271.179 29.1038 271.144 29.2454 271.144 29.4082C271.144 29.5742 271.181 29.7256 271.256 29.8623C271.331 29.999 271.443 30.1081 271.593 30.1895C271.746 30.2676 271.933 30.3066 272.154 30.3066C272.431 30.3066 272.675 30.248 272.887 30.1309C273.098 30.0137 273.266 29.8704 273.39 29.7012C273.517 29.5319 273.585 29.3675 273.595 29.208L273.98 29.6426C273.958 29.7793 273.896 29.9307 273.795 30.0967C273.694 30.2627 273.559 30.4222 273.39 30.5752C273.224 30.7249 273.025 30.8503 272.794 30.9512C272.566 31.0488 272.309 31.0977 272.022 31.0977C271.664 31.0977 271.35 31.0277 271.08 30.8877C270.813 30.7477 270.605 30.5605 270.455 30.3262C270.309 30.0885 270.235 29.8232 270.235 29.5303C270.235 29.2471 270.291 28.998 270.401 28.7832C270.512 28.5651 270.672 28.3844 270.88 28.2412C271.088 28.0947 271.339 27.984 271.632 27.9092C271.925 27.8343 272.252 27.7969 272.613 27.7969H273.663ZM279.215 26.7324V33.0312H278.307V25.7168H279.137L279.215 26.7324ZM282.774 28.3145V28.417C282.774 28.8011 282.729 29.1576 282.638 29.4863C282.547 29.8118 282.413 30.0951 282.237 30.3359C282.065 30.5768 281.852 30.764 281.598 30.8975C281.344 31.0309 281.052 31.0977 280.724 31.0977C280.388 31.0977 280.092 31.0423 279.835 30.9316C279.578 30.821 279.36 30.6598 279.181 30.4482C279.002 30.2367 278.858 29.9827 278.751 29.6865C278.647 29.3903 278.575 29.0566 278.536 28.6855V28.1387C278.575 27.748 278.648 27.3981 278.756 27.0889C278.863 26.7796 279.005 26.516 279.181 26.2979C279.36 26.0765 279.576 25.9089 279.83 25.7949C280.084 25.6777 280.377 25.6191 280.709 25.6191C281.041 25.6191 281.336 25.6842 281.593 25.8145C281.85 25.9414 282.066 26.1237 282.242 26.3613C282.418 26.599 282.55 26.8838 282.638 27.2158C282.729 27.5446 282.774 27.9108 282.774 28.3145ZM281.866 28.417V28.3145C281.866 28.0508 281.839 27.8034 281.783 27.5723C281.728 27.3379 281.642 27.1328 281.524 26.957C281.41 26.778 281.264 26.638 281.085 26.5371C280.906 26.4329 280.693 26.3809 280.445 26.3809C280.217 26.3809 280.019 26.4199 279.85 26.498C279.684 26.5762 279.542 26.682 279.425 26.8154C279.308 26.9456 279.212 27.0954 279.137 27.2646C279.065 27.4307 279.011 27.6032 278.976 27.7822V29.0469C279.041 29.2747 279.132 29.4896 279.249 29.6914C279.366 29.89 279.522 30.0511 279.718 30.1748C279.913 30.2952 280.159 30.3555 280.455 30.3555C280.699 30.3555 280.909 30.305 281.085 30.2041C281.264 30.0999 281.41 29.9583 281.524 29.7793C281.642 29.6003 281.728 29.3952 281.783 29.1641C281.839 28.9297 281.866 28.6807 281.866 28.417ZM287.042 30.0967V27.377C287.042 27.1686 287 26.988 286.915 26.835C286.834 26.6787 286.71 26.5583 286.544 26.4736C286.378 26.389 286.173 26.3467 285.929 26.3467C285.701 26.3467 285.501 26.3857 285.328 26.4639C285.159 26.542 285.025 26.6445 284.928 26.7715C284.833 26.8984 284.786 27.0352 284.786 27.1816H283.883C283.883 26.9928 283.932 26.8057 284.029 26.6201C284.127 26.4346 284.267 26.2669 284.449 26.1172C284.635 25.9642 284.856 25.8438 285.113 25.7559C285.374 25.6647 285.663 25.6191 285.982 25.6191C286.367 25.6191 286.705 25.6842 286.998 25.8145C287.294 25.9447 287.525 26.1416 287.691 26.4053C287.861 26.6657 287.945 26.9928 287.945 27.3867V29.8477C287.945 30.0234 287.96 30.2106 287.989 30.4092C288.022 30.6077 288.069 30.7786 288.131 30.9219V31H287.188C287.143 30.8958 287.107 30.7575 287.081 30.585C287.055 30.4092 287.042 30.2464 287.042 30.0967ZM287.198 27.7969L287.208 28.4316H286.295C286.038 28.4316 285.808 28.4528 285.606 28.4951C285.405 28.5342 285.235 28.5944 285.099 28.6758C284.962 28.7572 284.858 28.8597 284.786 28.9834C284.715 29.1038 284.679 29.2454 284.679 29.4082C284.679 29.5742 284.716 29.7256 284.791 29.8623C284.866 29.999 284.978 30.1081 285.128 30.1895C285.281 30.2676 285.468 30.3066 285.689 30.3066C285.966 30.3066 286.21 30.248 286.422 30.1309C286.633 30.0137 286.801 29.8704 286.925 29.7012C287.052 29.5319 287.12 29.3675 287.13 29.208L287.516 29.6426C287.493 29.7793 287.431 29.9307 287.33 30.0967C287.229 30.2627 287.094 30.4222 286.925 30.5752C286.759 30.7249 286.56 30.8503 286.329 30.9512C286.101 31.0488 285.844 31.0977 285.558 31.0977C285.2 31.0977 284.885 31.0277 284.615 30.8877C284.348 30.7477 284.14 30.5605 283.99 30.3262C283.844 30.0885 283.771 29.8232 283.771 29.5303C283.771 29.2471 283.826 28.998 283.937 28.7832C284.047 28.5651 284.207 28.3844 284.415 28.2412C284.623 28.0947 284.874 27.984 285.167 27.9092C285.46 27.8343 285.787 27.7969 286.148 27.7969H287.198ZM290.27 26.5469V31H289.366V25.7168H290.245L290.27 26.5469ZM291.92 25.6875L291.915 26.5273C291.84 26.5111 291.769 26.5013 291.7 26.498C291.635 26.4915 291.56 26.4883 291.476 26.4883C291.267 26.4883 291.083 26.5208 290.924 26.5859C290.764 26.651 290.629 26.7422 290.519 26.8594C290.408 26.9766 290.32 27.1165 290.255 27.2793C290.193 27.4388 290.152 27.6146 290.133 27.8066L289.879 27.9531C289.879 27.6341 289.91 27.3346 289.972 27.0547C290.037 26.7747 290.136 26.5273 290.27 26.3125C290.403 26.0944 290.572 25.9251 290.777 25.8047C290.986 25.681 291.233 25.6191 291.52 25.6191C291.585 25.6191 291.66 25.6273 291.744 25.6436C291.829 25.6566 291.887 25.6712 291.92 25.6875ZM295.675 30.0967V27.377C295.675 27.1686 295.632 26.988 295.548 26.835C295.466 26.6787 295.343 26.5583 295.177 26.4736C295.011 26.389 294.806 26.3467 294.562 26.3467C294.334 26.3467 294.133 26.3857 293.961 26.4639C293.792 26.542 293.658 26.6445 293.561 26.7715C293.466 26.8984 293.419 27.0352 293.419 27.1816H292.516C292.516 26.9928 292.564 26.8057 292.662 26.6201C292.76 26.4346 292.9 26.2669 293.082 26.1172C293.268 25.9642 293.489 25.8438 293.746 25.7559C294.007 25.6647 294.296 25.6191 294.615 25.6191C294.999 25.6191 295.338 25.6842 295.631 25.8145C295.927 25.9447 296.158 26.1416 296.324 26.4053C296.493 26.6657 296.578 26.9928 296.578 27.3867V29.8477C296.578 30.0234 296.593 30.2106 296.622 30.4092C296.655 30.6077 296.702 30.7786 296.764 30.9219V31H295.821C295.776 30.8958 295.74 30.7575 295.714 30.585C295.688 30.4092 295.675 30.2464 295.675 30.0967ZM295.831 27.7969L295.841 28.4316H294.928C294.671 28.4316 294.441 28.4528 294.239 28.4951C294.037 28.5342 293.868 28.5944 293.731 28.6758C293.595 28.7572 293.491 28.8597 293.419 28.9834C293.347 29.1038 293.312 29.2454 293.312 29.4082C293.312 29.5742 293.349 29.7256 293.424 29.8623C293.499 29.999 293.611 30.1081 293.761 30.1895C293.914 30.2676 294.101 30.3066 294.322 30.3066C294.599 30.3066 294.843 30.248 295.055 30.1309C295.266 30.0137 295.434 29.8704 295.558 29.7012C295.685 29.5319 295.753 29.3675 295.763 29.208L296.148 29.6426C296.126 29.7793 296.064 29.9307 295.963 30.0967C295.862 30.2627 295.727 30.4222 295.558 30.5752C295.392 30.7249 295.193 30.8503 294.962 30.9512C294.734 31.0488 294.477 31.0977 294.19 31.0977C293.832 31.0977 293.518 31.0277 293.248 30.8877C292.981 30.7477 292.773 30.5605 292.623 30.3262C292.477 30.0885 292.403 29.8232 292.403 29.5303C292.403 29.2471 292.459 28.998 292.569 28.7832C292.68 28.5651 292.84 28.3844 293.048 28.2412C293.256 28.0947 293.507 27.984 293.8 27.9092C294.093 27.8343 294.42 27.7969 294.781 27.7969H295.831ZM197.55 45.0312V38.7324L197.628 37.7168H198.458V45.0312H197.55ZM194 40.417V40.3145C194 39.9108 194.047 39.5446 194.142 39.2158C194.236 38.8838 194.374 38.599 194.557 38.3613C194.739 38.1237 194.959 37.9414 195.216 37.8145C195.476 37.6842 195.772 37.6191 196.104 37.6191C196.437 37.6191 196.728 37.6777 196.979 37.7949C197.232 37.9089 197.447 38.0765 197.623 38.2979C197.802 38.516 197.944 38.7796 198.048 39.0889C198.152 39.3981 198.224 39.748 198.263 40.1387V40.5879C198.227 40.9753 198.157 41.3236 198.053 41.6328C197.949 41.9421 197.807 42.2057 197.628 42.4238C197.452 42.6419 197.236 42.8096 196.979 42.9268C196.725 43.0407 196.43 43.0977 196.095 43.0977C195.769 43.0977 195.476 43.0309 195.216 42.8975C194.959 42.764 194.739 42.5768 194.557 42.3359C194.378 42.0951 194.239 41.8118 194.142 41.4863C194.047 41.1576 194 40.8011 194 40.417ZM194.908 40.3145V40.417C194.908 40.6807 194.936 40.9297 194.991 41.1641C195.047 41.3952 195.131 41.6003 195.245 41.7793C195.362 41.9583 195.509 42.0999 195.685 42.2041C195.864 42.305 196.075 42.3555 196.319 42.3555C196.619 42.3555 196.868 42.2904 197.066 42.1602C197.268 42.0299 197.429 41.859 197.55 41.6475C197.67 41.4326 197.763 41.2031 197.828 40.959V39.7822C197.792 39.6032 197.735 39.429 197.657 39.2598C197.582 39.0905 197.485 38.9391 197.364 38.8057C197.244 38.6689 197.097 38.5615 196.925 38.4834C196.756 38.402 196.557 38.3613 196.329 38.3613C196.082 38.3613 195.868 38.4134 195.689 38.5176C195.51 38.6217 195.362 38.765 195.245 38.9473C195.131 39.1263 195.047 39.333 194.991 39.5674C194.936 39.8018 194.908 40.0508 194.908 40.3145ZM203.141 41.7793V37.7168H204.049V43H203.185L203.141 41.7793ZM203.312 40.666L203.688 40.6562C203.688 41.0078 203.65 41.3333 203.575 41.6328C203.504 41.929 203.386 42.1862 203.224 42.4043C203.061 42.6224 202.848 42.7933 202.584 42.917C202.32 43.0374 202 43.0977 201.622 43.0977C201.365 43.0977 201.129 43.0602 200.914 42.9854C200.702 42.9105 200.52 42.7949 200.367 42.6387C200.214 42.4824 200.095 42.279 200.011 42.0283C199.929 41.7777 199.889 41.4766 199.889 41.125V37.7168H200.792V41.1348C200.792 41.3724 200.818 41.5693 200.87 41.7256C200.925 41.8786 200.999 42.0007 201.09 42.0918C201.184 42.1797 201.288 42.2415 201.402 42.2773C201.52 42.3132 201.64 42.3311 201.764 42.3311C202.148 42.3311 202.452 42.2578 202.677 42.1113C202.901 41.9616 203.062 41.7614 203.16 41.5107C203.261 41.2568 203.312 40.9753 203.312 40.666ZM207.618 43.0977C207.25 43.0977 206.917 43.0358 206.617 42.9121C206.321 42.7852 206.065 42.6077 205.851 42.3799C205.639 42.152 205.476 41.8818 205.362 41.5693C205.248 41.2568 205.191 40.915 205.191 40.5439V40.3389C205.191 39.9092 205.255 39.5267 205.382 39.1914C205.509 38.8529 205.681 38.5664 205.899 38.332C206.118 38.0977 206.365 37.9202 206.642 37.7998C206.918 37.6794 207.205 37.6191 207.501 37.6191C207.879 37.6191 208.204 37.6842 208.478 37.8145C208.754 37.9447 208.98 38.127 209.156 38.3613C209.332 38.5924 209.462 38.8659 209.547 39.1816C209.632 39.4941 209.674 39.8359 209.674 40.207V40.6123H205.729V39.875H208.771V39.8066C208.757 39.5723 208.709 39.3444 208.624 39.123C208.543 38.9017 208.412 38.7194 208.233 38.5762C208.054 38.4329 207.81 38.3613 207.501 38.3613C207.296 38.3613 207.107 38.4053 206.935 38.4932C206.762 38.5778 206.614 38.7048 206.49 38.874C206.367 39.0433 206.271 39.25 206.202 39.4941C206.134 39.7383 206.1 40.0199 206.1 40.3389V40.5439C206.1 40.7946 206.134 41.0306 206.202 41.252C206.274 41.4701 206.376 41.6621 206.51 41.8281C206.646 41.9941 206.811 42.1243 207.003 42.2188C207.198 42.3132 207.42 42.3604 207.667 42.3604C207.986 42.3604 208.256 42.2952 208.478 42.165C208.699 42.0348 208.893 41.8607 209.059 41.6426L209.605 42.0771C209.492 42.2497 209.347 42.4141 209.171 42.5703C208.995 42.7266 208.779 42.8535 208.521 42.9512C208.268 43.0488 207.966 43.0977 207.618 43.0977ZM214.112 38.8447V43H213.209V37.7168H214.063L214.112 38.8447ZM213.897 40.1582L213.521 40.1436C213.525 39.7822 213.578 39.4486 213.683 39.1426C213.787 38.8333 213.933 38.5648 214.122 38.3369C214.311 38.109 214.535 37.9333 214.796 37.8096C215.06 37.6826 215.351 37.6191 215.67 37.6191C215.93 37.6191 216.165 37.6549 216.373 37.7266C216.581 37.7949 216.759 37.9056 216.905 38.0586C217.055 38.2116 217.169 38.4102 217.247 38.6543C217.325 38.8952 217.364 39.1898 217.364 39.5381V43H216.456V39.5283C216.456 39.2516 216.415 39.0303 216.334 38.8643C216.253 38.695 216.134 38.5729 215.978 38.498C215.821 38.4199 215.629 38.3809 215.401 38.3809C215.177 38.3809 214.972 38.4281 214.786 38.5225C214.604 38.6169 214.446 38.7471 214.312 38.9131C214.182 39.0791 214.08 39.2695 214.005 39.4844C213.933 39.696 213.897 39.9206 213.897 40.1582ZM218.497 40.417V40.3047C218.497 39.9238 218.552 39.5706 218.663 39.2451C218.774 38.9163 218.933 38.6315 219.142 38.3906C219.35 38.1465 219.602 37.9577 219.898 37.8242C220.195 37.6875 220.527 37.6191 220.895 37.6191C221.266 37.6191 221.599 37.6875 221.896 37.8242C222.195 37.9577 222.449 38.1465 222.657 38.3906C222.869 38.6315 223.03 38.9163 223.141 39.2451C223.251 39.5706 223.307 39.9238 223.307 40.3047V40.417C223.307 40.7979 223.251 41.151 223.141 41.4766C223.03 41.8021 222.869 42.0869 222.657 42.3311C222.449 42.5719 222.197 42.7607 221.9 42.8975C221.607 43.0309 221.275 43.0977 220.904 43.0977C220.533 43.0977 220.2 43.0309 219.903 42.8975C219.607 42.7607 219.353 42.5719 219.142 42.3311C218.933 42.0869 218.774 41.8021 218.663 41.4766C218.552 41.151 218.497 40.7979 218.497 40.417ZM219.4 40.3047V40.417C219.4 40.6807 219.431 40.9297 219.493 41.1641C219.555 41.3952 219.648 41.6003 219.771 41.7793C219.898 41.9583 220.056 42.0999 220.245 42.2041C220.434 42.305 220.654 42.3555 220.904 42.3555C221.152 42.3555 221.368 42.305 221.554 42.2041C221.743 42.0999 221.899 41.9583 222.022 41.7793C222.146 41.6003 222.239 41.3952 222.301 41.1641C222.366 40.9297 222.398 40.6807 222.398 40.417V40.3047C222.398 40.0443 222.366 39.7985 222.301 39.5674C222.239 39.333 222.145 39.1263 222.018 38.9473C221.894 38.765 221.738 38.6217 221.549 38.5176C221.363 38.4134 221.145 38.3613 220.895 38.3613C220.647 38.3613 220.429 38.4134 220.24 38.5176C220.055 38.6217 219.898 38.765 219.771 38.9473C219.648 39.1263 219.555 39.333 219.493 39.5674C219.431 39.7985 219.4 40.0443 219.4 40.3047ZM229.132 37.7168V38.4102H226.275V37.7168H229.132ZM227.242 36.4326H228.146V41.6914C228.146 41.8704 228.173 42.0055 228.229 42.0967C228.284 42.1878 228.355 42.248 228.443 42.2773C228.531 42.3066 228.626 42.3213 228.727 42.3213C228.801 42.3213 228.88 42.3148 228.961 42.3018C229.046 42.2855 229.109 42.2725 229.151 42.2627L229.156 43C229.085 43.0228 228.99 43.0439 228.873 43.0635C228.759 43.0863 228.621 43.0977 228.458 43.0977C228.237 43.0977 228.033 43.0537 227.848 42.9658C227.662 42.8779 227.514 42.7314 227.403 42.5264C227.296 42.318 227.242 42.0381 227.242 41.6865V36.4326ZM232.384 43.0977C232.016 43.0977 231.682 43.0358 231.383 42.9121C231.087 42.7852 230.831 42.6077 230.616 42.3799C230.405 42.152 230.242 41.8818 230.128 41.5693C230.014 41.2568 229.957 40.915 229.957 40.5439V40.3389C229.957 39.9092 230.021 39.5267 230.147 39.1914C230.274 38.8529 230.447 38.5664 230.665 38.332C230.883 38.0977 231.131 37.9202 231.407 37.7998C231.684 37.6794 231.97 37.6191 232.267 37.6191C232.644 37.6191 232.97 37.6842 233.243 37.8145C233.52 37.9447 233.746 38.127 233.922 38.3613C234.098 38.5924 234.228 38.8659 234.312 39.1816C234.397 39.4941 234.439 39.8359 234.439 40.207V40.6123H230.494V39.875H233.536V39.8066C233.523 39.5723 233.474 39.3444 233.39 39.123C233.308 38.9017 233.178 38.7194 232.999 38.5762C232.82 38.4329 232.576 38.3613 232.267 38.3613C232.062 38.3613 231.873 38.4053 231.7 38.4932C231.528 38.5778 231.38 38.7048 231.256 38.874C231.132 39.0433 231.036 39.25 230.968 39.4941C230.899 39.7383 230.865 40.0199 230.865 40.3389V40.5439C230.865 40.7946 230.899 41.0306 230.968 41.252C231.039 41.4701 231.142 41.6621 231.275 41.8281C231.412 41.9941 231.576 42.1243 231.769 42.2188C231.964 42.3132 232.185 42.3604 232.433 42.3604C232.752 42.3604 233.022 42.2952 233.243 42.165C233.465 42.0348 233.658 41.8607 233.824 41.6426L234.371 42.0771C234.257 42.2497 234.112 42.4141 233.937 42.5703C233.761 42.7266 233.544 42.8535 233.287 42.9512C233.033 43.0488 232.732 43.0977 232.384 43.0977ZM241.3 45.0312V38.7324L241.378 37.7168H242.208V45.0312H241.3ZM237.75 40.417V40.3145C237.75 39.9108 237.797 39.5446 237.892 39.2158C237.986 38.8838 238.124 38.599 238.307 38.3613C238.489 38.1237 238.709 37.9414 238.966 37.8145C239.226 37.6842 239.522 37.6191 239.854 37.6191C240.187 37.6191 240.478 37.6777 240.729 37.7949C240.982 37.9089 241.197 38.0765 241.373 38.2979C241.552 38.516 241.694 38.7796 241.798 39.0889C241.902 39.3981 241.974 39.748 242.013 40.1387V40.5879C241.977 40.9753 241.907 41.3236 241.803 41.6328C241.699 41.9421 241.557 42.2057 241.378 42.4238C241.202 42.6419 240.986 42.8096 240.729 42.9268C240.475 43.0407 240.18 43.0977 239.845 43.0977C239.519 43.0977 239.226 43.0309 238.966 42.8975C238.709 42.764 238.489 42.5768 238.307 42.3359C238.128 42.0951 237.989 41.8118 237.892 41.4863C237.797 41.1576 237.75 40.8011 237.75 40.417ZM238.658 40.3145V40.417C238.658 40.6807 238.686 40.9297 238.741 41.1641C238.797 41.3952 238.881 41.6003 238.995 41.7793C239.112 41.9583 239.259 42.0999 239.435 42.2041C239.614 42.305 239.825 42.3555 240.069 42.3555C240.369 42.3555 240.618 42.2904 240.816 42.1602C241.018 42.0299 241.179 41.859 241.3 41.6475C241.42 41.4326 241.513 41.2031 241.578 40.959V39.7822C241.542 39.6032 241.485 39.429 241.407 39.2598C241.332 39.0905 241.235 38.9391 241.114 38.8057C240.994 38.6689 240.847 38.5615 240.675 38.4834C240.506 38.402 240.307 38.3613 240.079 38.3613C239.832 38.3613 239.618 38.4134 239.439 38.5176C239.26 38.6217 239.112 38.765 238.995 38.9473C238.881 39.1263 238.797 39.333 238.741 39.5674C238.686 39.8018 238.658 40.0508 238.658 40.3145ZM246.891 41.7793V37.7168H247.799V43H246.935L246.891 41.7793ZM247.062 40.666L247.438 40.6562C247.438 41.0078 247.4 41.3333 247.325 41.6328C247.254 41.929 247.136 42.1862 246.974 42.4043C246.811 42.6224 246.598 42.7933 246.334 42.917C246.07 43.0374 245.75 43.0977 245.372 43.0977C245.115 43.0977 244.879 43.0602 244.664 42.9854C244.452 42.9105 244.27 42.7949 244.117 42.6387C243.964 42.4824 243.845 42.279 243.761 42.0283C243.679 41.7777 243.639 41.4766 243.639 41.125V37.7168H244.542V41.1348C244.542 41.3724 244.568 41.5693 244.62 41.7256C244.675 41.8786 244.749 42.0007 244.84 42.0918C244.934 42.1797 245.038 42.2415 245.152 42.2773C245.27 42.3132 245.39 42.3311 245.514 42.3311C245.898 42.3311 246.202 42.2578 246.427 42.1113C246.651 41.9616 246.812 41.7614 246.91 41.5107C247.011 41.2568 247.062 40.9753 247.062 40.666ZM251.368 43.0977C251 43.0977 250.667 43.0358 250.367 42.9121C250.071 42.7852 249.815 42.6077 249.601 42.3799C249.389 42.152 249.226 41.8818 249.112 41.5693C248.998 41.2568 248.941 40.915 248.941 40.5439V40.3389C248.941 39.9092 249.005 39.5267 249.132 39.1914C249.259 38.8529 249.431 38.5664 249.649 38.332C249.868 38.0977 250.115 37.9202 250.392 37.7998C250.668 37.6794 250.955 37.6191 251.251 37.6191C251.629 37.6191 251.954 37.6842 252.228 37.8145C252.504 37.9447 252.73 38.127 252.906 38.3613C253.082 38.5924 253.212 38.8659 253.297 39.1816C253.382 39.4941 253.424 39.8359 253.424 40.207V40.6123H249.479V39.875H252.521V39.8066C252.507 39.5723 252.459 39.3444 252.374 39.123C252.293 38.9017 252.162 38.7194 251.983 38.5762C251.804 38.4329 251.56 38.3613 251.251 38.3613C251.046 38.3613 250.857 38.4053 250.685 38.4932C250.512 38.5778 250.364 38.7048 250.24 38.874C250.117 39.0433 250.021 39.25 249.952 39.4941C249.884 39.7383 249.85 40.0199 249.85 40.3389V40.5439C249.85 40.7946 249.884 41.0306 249.952 41.252C250.024 41.4701 250.126 41.6621 250.26 41.8281C250.396 41.9941 250.561 42.1243 250.753 42.2188C250.948 42.3132 251.17 42.3604 251.417 42.3604C251.736 42.3604 252.006 42.2952 252.228 42.165C252.449 42.0348 252.643 41.8607 252.809 41.6426L253.355 42.0771C253.242 42.2497 253.097 42.4141 252.921 42.5703C252.745 42.7266 252.529 42.8535 252.271 42.9512C252.018 43.0488 251.716 43.0977 251.368 43.0977ZM255.377 38.7666V43H254.469V37.7168H255.328L255.377 38.7666ZM255.191 40.1582L254.771 40.1436C254.775 39.7822 254.822 39.4486 254.913 39.1426C255.004 38.8333 255.139 38.5648 255.318 38.3369C255.497 38.109 255.72 37.9333 255.987 37.8096C256.254 37.6826 256.563 37.6191 256.915 37.6191C257.162 37.6191 257.39 37.6549 257.599 37.7266C257.807 37.7949 257.988 37.904 258.141 38.0537C258.294 38.2035 258.412 38.3955 258.497 38.6299C258.582 38.8643 258.624 39.1475 258.624 39.4795V43H257.721V39.5234C257.721 39.2467 257.674 39.0254 257.579 38.8594C257.488 38.6934 257.358 38.5729 257.188 38.498C257.019 38.4199 256.821 38.3809 256.593 38.3809C256.326 38.3809 256.103 38.4281 255.924 38.5225C255.745 38.6169 255.602 38.7471 255.494 38.9131C255.387 39.0791 255.309 39.2695 255.26 39.4844C255.214 39.696 255.191 39.9206 255.191 40.1582ZM258.614 39.6602L258.009 39.8457C258.012 39.556 258.059 39.2777 258.15 39.0107C258.245 38.7438 258.38 38.5062 258.556 38.2979C258.735 38.0895 258.954 37.9251 259.215 37.8047C259.475 37.681 259.773 37.6191 260.108 37.6191C260.392 37.6191 260.642 37.6566 260.86 37.7314C261.082 37.8063 261.267 37.9219 261.417 38.0781C261.57 38.2311 261.686 38.4281 261.764 38.6689C261.842 38.9098 261.881 39.1963 261.881 39.5283V43H260.973V39.5186C260.973 39.2223 260.925 38.9928 260.831 38.8301C260.74 38.6641 260.61 38.5485 260.44 38.4834C260.274 38.415 260.076 38.3809 259.845 38.3809C259.646 38.3809 259.47 38.415 259.317 38.4834C259.164 38.5518 259.036 38.6462 258.932 38.7666C258.827 38.8838 258.748 39.0189 258.692 39.1719C258.64 39.3249 258.614 39.4876 258.614 39.6602ZM265.44 43.0977C265.073 43.0977 264.739 43.0358 264.439 42.9121C264.143 42.7852 263.888 42.6077 263.673 42.3799C263.461 42.152 263.299 41.8818 263.185 41.5693C263.071 41.2568 263.014 40.915 263.014 40.5439V40.3389C263.014 39.9092 263.077 39.5267 263.204 39.1914C263.331 38.8529 263.504 38.5664 263.722 38.332C263.94 38.0977 264.187 37.9202 264.464 37.7998C264.741 37.6794 265.027 37.6191 265.323 37.6191C265.701 37.6191 266.026 37.6842 266.3 37.8145C266.576 37.9447 266.803 38.127 266.979 38.3613C267.154 38.5924 267.285 38.8659 267.369 39.1816C267.454 39.4941 267.496 39.8359 267.496 40.207V40.6123H263.551V39.875H266.593V39.8066C266.58 39.5723 266.531 39.3444 266.446 39.123C266.365 38.9017 266.235 38.7194 266.056 38.5762C265.877 38.4329 265.632 38.3613 265.323 38.3613C265.118 38.3613 264.929 38.4053 264.757 38.4932C264.584 38.5778 264.436 38.7048 264.312 38.874C264.189 39.0433 264.093 39.25 264.024 39.4941C263.956 39.7383 263.922 40.0199 263.922 40.3389V40.5439C263.922 40.7946 263.956 41.0306 264.024 41.252C264.096 41.4701 264.199 41.6621 264.332 41.8281C264.469 41.9941 264.633 42.1243 264.825 42.2188C265.021 42.3132 265.242 42.3604 265.489 42.3604C265.808 42.3604 266.078 42.2952 266.3 42.165C266.521 42.0348 266.715 41.8607 266.881 41.6426L267.428 42.0771C267.314 42.2497 267.169 42.4141 266.993 42.5703C266.817 42.7266 266.601 42.8535 266.344 42.9512C266.09 43.0488 265.789 43.0977 265.44 43.0977ZM271.627 41.5986C271.627 41.4684 271.598 41.348 271.539 41.2373C271.484 41.1234 271.368 41.0208 271.192 40.9297C271.02 40.8353 270.759 40.7539 270.411 40.6855C270.118 40.6237 269.853 40.5505 269.615 40.4658C269.381 40.3812 269.181 40.2786 269.015 40.1582C268.852 40.0378 268.727 39.8962 268.639 39.7334C268.551 39.5706 268.507 39.3802 268.507 39.1621C268.507 38.9538 268.552 38.7568 268.644 38.5713C268.738 38.3857 268.87 38.2214 269.039 38.0781C269.212 37.9349 269.418 37.8226 269.659 37.7412C269.9 37.6598 270.169 37.6191 270.465 37.6191C270.888 37.6191 271.249 37.694 271.549 37.8438C271.848 37.9935 272.078 38.1937 272.237 38.4443C272.397 38.6917 272.477 38.9668 272.477 39.2695H271.573C271.573 39.123 271.529 38.9814 271.441 38.8447C271.357 38.7048 271.231 38.5892 271.065 38.498C270.903 38.4069 270.702 38.3613 270.465 38.3613C270.214 38.3613 270.011 38.4004 269.854 38.4785C269.701 38.5534 269.589 38.6494 269.518 38.7666C269.449 38.8838 269.415 39.0075 269.415 39.1377C269.415 39.2354 269.431 39.3232 269.464 39.4014C269.5 39.4762 269.562 39.5462 269.649 39.6113C269.737 39.6732 269.861 39.7318 270.021 39.7871C270.18 39.8424 270.383 39.8978 270.631 39.9531C271.064 40.0508 271.42 40.168 271.7 40.3047C271.98 40.4414 272.188 40.609 272.325 40.8076C272.462 41.0062 272.53 41.2471 272.53 41.5303C272.53 41.7614 272.481 41.973 272.384 42.165C272.289 42.3571 272.151 42.5231 271.969 42.6631C271.79 42.7998 271.575 42.9072 271.324 42.9854C271.077 43.0602 270.799 43.0977 270.489 43.0977C270.024 43.0977 269.63 43.0146 269.308 42.8486C268.985 42.6826 268.741 42.4678 268.575 42.2041C268.409 41.9404 268.326 41.6621 268.326 41.3691H269.234C269.247 41.6165 269.319 41.8135 269.449 41.96C269.579 42.1032 269.739 42.2057 269.928 42.2676C270.117 42.3262 270.304 42.3555 270.489 42.3555C270.737 42.3555 270.943 42.3229 271.109 42.2578C271.279 42.1927 271.407 42.1032 271.495 41.9893C271.583 41.8753 271.627 41.7451 271.627 41.5986ZM278.409 37.7168V38.4102H275.553V37.7168H278.409ZM276.52 36.4326H277.423V41.6914C277.423 41.8704 277.451 42.0055 277.506 42.0967C277.561 42.1878 277.633 42.248 277.721 42.2773C277.809 42.3066 277.903 42.3213 278.004 42.3213C278.079 42.3213 278.157 42.3148 278.238 42.3018C278.323 42.2855 278.386 42.2725 278.429 42.2627L278.434 43C278.362 43.0228 278.268 43.0439 278.15 43.0635C278.036 43.0863 277.898 43.0977 277.735 43.0977C277.514 43.0977 277.311 43.0537 277.125 42.9658C276.939 42.8779 276.791 42.7314 276.681 42.5264C276.573 42.318 276.52 42.0381 276.52 41.6865V36.4326ZM282.701 41.7793V37.7168H283.609V43H282.745L282.701 41.7793ZM282.872 40.666L283.248 40.6562C283.248 41.0078 283.211 41.3333 283.136 41.6328C283.064 41.929 282.947 42.1862 282.784 42.4043C282.621 42.6224 282.408 42.7933 282.145 42.917C281.881 43.0374 281.56 43.0977 281.183 43.0977C280.925 43.0977 280.689 43.0602 280.475 42.9854C280.263 42.9105 280.081 42.7949 279.928 42.6387C279.775 42.4824 279.656 42.279 279.571 42.0283C279.49 41.7777 279.449 41.4766 279.449 41.125V37.7168H280.353V41.1348C280.353 41.3724 280.379 41.5693 280.431 41.7256C280.486 41.8786 280.559 42.0007 280.65 42.0918C280.745 42.1797 280.849 42.2415 280.963 42.2773C281.08 42.3132 281.201 42.3311 281.324 42.3311C281.708 42.3311 282.013 42.2578 282.237 42.1113C282.462 41.9616 282.623 41.7614 282.721 41.5107C282.822 41.2568 282.872 40.9753 282.872 40.666ZM288.062 41.5986C288.062 41.4684 288.033 41.348 287.975 41.2373C287.919 41.1234 287.804 41.0208 287.628 40.9297C287.455 40.8353 287.195 40.7539 286.847 40.6855C286.554 40.6237 286.288 40.5505 286.051 40.4658C285.816 40.3812 285.616 40.2786 285.45 40.1582C285.287 40.0378 285.162 39.8962 285.074 39.7334C284.986 39.5706 284.942 39.3802 284.942 39.1621C284.942 38.9538 284.988 38.7568 285.079 38.5713C285.174 38.3857 285.305 38.2214 285.475 38.0781C285.647 37.9349 285.854 37.8226 286.095 37.7412C286.336 37.6598 286.604 37.6191 286.9 37.6191C287.324 37.6191 287.685 37.694 287.984 37.8438C288.284 37.9935 288.513 38.1937 288.673 38.4443C288.832 38.6917 288.912 38.9668 288.912 39.2695H288.009C288.009 39.123 287.965 38.9814 287.877 38.8447C287.792 38.7048 287.667 38.5892 287.501 38.498C287.338 38.4069 287.138 38.3613 286.9 38.3613C286.65 38.3613 286.446 38.4004 286.29 38.4785C286.137 38.5534 286.025 38.6494 285.953 38.7666C285.885 38.8838 285.851 39.0075 285.851 39.1377C285.851 39.2354 285.867 39.3232 285.899 39.4014C285.935 39.4762 285.997 39.5462 286.085 39.6113C286.173 39.6732 286.297 39.7318 286.456 39.7871C286.616 39.8424 286.819 39.8978 287.066 39.9531C287.499 40.0508 287.856 40.168 288.136 40.3047C288.416 40.4414 288.624 40.609 288.761 40.8076C288.897 41.0062 288.966 41.2471 288.966 41.5303C288.966 41.7614 288.917 41.973 288.819 42.165C288.725 42.3571 288.587 42.5231 288.404 42.6631C288.225 42.7998 288.01 42.9072 287.76 42.9854C287.512 43.0602 287.234 43.0977 286.925 43.0977C286.459 43.0977 286.065 43.0146 285.743 42.8486C285.421 42.6826 285.177 42.4678 285.011 42.2041C284.845 41.9404 284.762 41.6621 284.762 41.3691H285.67C285.683 41.6165 285.755 41.8135 285.885 41.96C286.015 42.1032 286.174 42.2057 286.363 42.2676C286.552 42.3262 286.739 42.3555 286.925 42.3555C287.172 42.3555 287.379 42.3229 287.545 42.2578C287.714 42.1927 287.843 42.1032 287.931 41.9893C288.019 41.8753 288.062 41.7451 288.062 41.5986ZM222.354 50.8447V55H221.451V49.7168H222.306L222.354 50.8447ZM222.14 52.1582L221.764 52.1436C221.767 51.7822 221.821 51.4486 221.925 51.1426C222.029 50.8333 222.175 50.5648 222.364 50.3369C222.553 50.109 222.778 49.9333 223.038 49.8096C223.302 49.6826 223.593 49.6191 223.912 49.6191C224.173 49.6191 224.407 49.6549 224.615 49.7266C224.824 49.7949 225.001 49.9056 225.147 50.0586C225.297 50.2116 225.411 50.4102 225.489 50.6543C225.567 50.8952 225.606 51.1898 225.606 51.5381V55H224.698V51.5283C224.698 51.2516 224.658 51.0303 224.576 50.8643C224.495 50.695 224.376 50.5729 224.22 50.498C224.063 50.4199 223.871 50.3809 223.644 50.3809C223.419 50.3809 223.214 50.4281 223.028 50.5225C222.846 50.6169 222.688 50.7471 222.555 50.9131C222.424 51.0791 222.322 51.2695 222.247 51.4844C222.175 51.696 222.14 51.9206 222.14 52.1582ZM229.171 55.0977C228.803 55.0977 228.469 55.0358 228.17 54.9121C227.874 54.7852 227.618 54.6077 227.403 54.3799C227.192 54.152 227.029 53.8818 226.915 53.5693C226.801 53.2568 226.744 52.915 226.744 52.5439V52.3389C226.744 51.9092 226.808 51.5267 226.935 51.1914C227.062 50.8529 227.234 50.5664 227.452 50.332C227.67 50.0977 227.918 49.9202 228.194 49.7998C228.471 49.6794 228.757 49.6191 229.054 49.6191C229.431 49.6191 229.757 49.6842 230.03 49.8145C230.307 49.9447 230.533 50.127 230.709 50.3613C230.885 50.5924 231.015 50.8659 231.1 51.1816C231.184 51.4941 231.227 51.8359 231.227 52.207V52.6123H227.281V51.875H230.323V51.8066C230.31 51.5723 230.261 51.3444 230.177 51.123C230.095 50.9017 229.965 50.7194 229.786 50.5762C229.607 50.4329 229.363 50.3613 229.054 50.3613C228.849 50.3613 228.66 50.4053 228.487 50.4932C228.315 50.5778 228.167 50.7048 228.043 50.874C227.919 51.0433 227.823 51.25 227.755 51.4941C227.687 51.7383 227.652 52.0199 227.652 52.3389V52.5439C227.652 52.7946 227.687 53.0306 227.755 53.252C227.826 53.4701 227.929 53.6621 228.062 53.8281C228.199 53.9941 228.364 54.1243 228.556 54.2188C228.751 54.3132 228.972 54.3604 229.22 54.3604C229.539 54.3604 229.809 54.2952 230.03 54.165C230.252 54.0348 230.445 53.8607 230.611 53.6426L231.158 54.0771C231.044 54.2497 230.899 54.4141 230.724 54.5703C230.548 54.7266 230.331 54.8535 230.074 54.9512C229.82 55.0488 229.519 55.0977 229.171 55.0977ZM235.514 53.7793V49.7168H236.422V55H235.558L235.514 53.7793ZM235.685 52.666L236.061 52.6562C236.061 53.0078 236.023 53.3333 235.948 53.6328C235.877 53.929 235.759 54.1862 235.597 54.4043C235.434 54.6224 235.221 54.7933 234.957 54.917C234.693 55.0374 234.373 55.0977 233.995 55.0977C233.738 55.0977 233.502 55.0602 233.287 54.9854C233.076 54.9105 232.893 54.7949 232.74 54.6387C232.587 54.4824 232.468 54.279 232.384 54.0283C232.302 53.7777 232.262 53.4766 232.262 53.125V49.7168H233.165V53.1348C233.165 53.3724 233.191 53.5693 233.243 53.7256C233.299 53.8786 233.372 54.0007 233.463 54.0918C233.557 54.1797 233.661 54.2415 233.775 54.2773C233.893 54.3132 234.013 54.3311 234.137 54.3311C234.521 54.3311 234.825 54.2578 235.05 54.1113C235.274 53.9616 235.436 53.7614 235.533 53.5107C235.634 53.2568 235.685 52.9753 235.685 52.666ZM238.702 50.5469V55H237.799V49.7168H238.678L238.702 50.5469ZM240.353 49.6875L240.348 50.5273C240.273 50.5111 240.201 50.5013 240.133 50.498C240.068 50.4915 239.993 50.4883 239.908 50.4883C239.7 50.4883 239.516 50.5208 239.356 50.5859C239.197 50.651 239.062 50.7422 238.951 50.8594C238.84 50.9766 238.753 51.1165 238.688 51.2793C238.626 51.4388 238.585 51.6146 238.565 51.8066L238.312 51.9531C238.312 51.6341 238.342 51.3346 238.404 51.0547C238.469 50.7747 238.569 50.5273 238.702 50.3125C238.836 50.0944 239.005 49.9251 239.21 49.8047C239.418 49.681 239.666 49.6191 239.952 49.6191C240.017 49.6191 240.092 49.6273 240.177 49.6436C240.261 49.6566 240.32 49.6712 240.353 49.6875ZM240.851 52.417V52.3047C240.851 51.9238 240.906 51.5706 241.017 51.2451C241.127 50.9163 241.287 50.6315 241.495 50.3906C241.703 50.1465 241.956 49.9577 242.252 49.8242C242.548 49.6875 242.88 49.6191 243.248 49.6191C243.619 49.6191 243.953 49.6875 244.249 49.8242C244.549 49.9577 244.802 50.1465 245.011 50.3906C245.222 50.6315 245.383 50.9163 245.494 51.2451C245.605 51.5706 245.66 51.9238 245.66 52.3047V52.417C245.66 52.7979 245.605 53.151 245.494 53.4766C245.383 53.8021 245.222 54.0869 245.011 54.3311C244.802 54.5719 244.55 54.7607 244.254 54.8975C243.961 55.0309 243.629 55.0977 243.258 55.0977C242.887 55.0977 242.553 55.0309 242.257 54.8975C241.961 54.7607 241.707 54.5719 241.495 54.3311C241.287 54.0869 241.127 53.8021 241.017 53.4766C240.906 53.151 240.851 52.7979 240.851 52.417ZM241.754 52.3047V52.417C241.754 52.6807 241.785 52.9297 241.847 53.1641C241.909 53.3952 242.001 53.6003 242.125 53.7793C242.252 53.9583 242.41 54.0999 242.599 54.2041C242.787 54.305 243.007 54.3555 243.258 54.3555C243.505 54.3555 243.722 54.305 243.907 54.2041C244.096 54.0999 244.252 53.9583 244.376 53.7793C244.5 53.6003 244.592 53.3952 244.654 53.1641C244.719 52.9297 244.752 52.6807 244.752 52.417V52.3047C244.752 52.0443 244.719 51.7985 244.654 51.5674C244.592 51.333 244.498 51.1263 244.371 50.9473C244.247 50.765 244.091 50.6217 243.902 50.5176C243.717 50.4134 243.499 50.3613 243.248 50.3613C243.001 50.3613 242.783 50.4134 242.594 50.5176C242.408 50.6217 242.252 50.765 242.125 50.9473C242.001 51.1263 241.909 51.333 241.847 51.5674C241.785 51.7985 241.754 52.0443 241.754 52.3047ZM247.696 50.8447V55H246.793V49.7168H247.647L247.696 50.8447ZM247.481 52.1582L247.105 52.1436C247.109 51.7822 247.162 51.4486 247.267 51.1426C247.371 50.8333 247.517 50.5648 247.706 50.3369C247.895 50.109 248.119 49.9333 248.38 49.8096C248.644 49.6826 248.935 49.6191 249.254 49.6191C249.514 49.6191 249.749 49.6549 249.957 49.7266C250.165 49.7949 250.343 49.9056 250.489 50.0586C250.639 50.2116 250.753 50.4102 250.831 50.6543C250.909 50.8952 250.948 51.1898 250.948 51.5381V55H250.04V51.5283C250.04 51.2516 249.999 51.0303 249.918 50.8643C249.837 50.695 249.718 50.5729 249.562 50.498C249.405 50.4199 249.213 50.3809 248.985 50.3809C248.761 50.3809 248.556 50.4281 248.37 50.5225C248.188 50.6169 248.03 50.7471 247.896 50.9131C247.766 51.0791 247.664 51.2695 247.589 51.4844C247.517 51.696 247.481 51.9206 247.481 52.1582ZM255.436 54.0967V51.377C255.436 51.1686 255.393 50.988 255.309 50.835C255.227 50.6787 255.104 50.5583 254.938 50.4736C254.771 50.389 254.566 50.3467 254.322 50.3467C254.094 50.3467 253.894 50.3857 253.722 50.4639C253.552 50.542 253.419 50.6445 253.321 50.7715C253.227 50.8984 253.18 51.0352 253.18 51.1816H252.276C252.276 50.9928 252.325 50.8057 252.423 50.6201C252.521 50.4346 252.66 50.2669 252.843 50.1172C253.028 49.9642 253.25 49.8438 253.507 49.7559C253.767 49.6647 254.057 49.6191 254.376 49.6191C254.76 49.6191 255.099 49.6842 255.392 49.8145C255.688 49.9447 255.919 50.1416 256.085 50.4053C256.254 50.6657 256.339 50.9928 256.339 51.3867V53.8477C256.339 54.0234 256.354 54.2106 256.383 54.4092C256.415 54.6077 256.463 54.7786 256.524 54.9219V55H255.582C255.536 54.8958 255.501 54.7575 255.475 54.585C255.449 54.4092 255.436 54.2464 255.436 54.0967ZM255.592 51.7969L255.602 52.4316H254.688C254.431 52.4316 254.202 52.4528 254 52.4951C253.798 52.5342 253.629 52.5944 253.492 52.6758C253.355 52.7572 253.251 52.8597 253.18 52.9834C253.108 53.1038 253.072 53.2454 253.072 53.4082C253.072 53.5742 253.11 53.7256 253.185 53.8623C253.259 53.999 253.372 54.1081 253.521 54.1895C253.674 54.2676 253.862 54.3066 254.083 54.3066C254.36 54.3066 254.604 54.248 254.815 54.1309C255.027 54.0137 255.195 53.8704 255.318 53.7012C255.445 53.5319 255.514 53.3675 255.523 53.208L255.909 53.6426C255.886 53.7793 255.825 53.9307 255.724 54.0967C255.623 54.2627 255.488 54.4222 255.318 54.5752C255.152 54.7249 254.954 54.8503 254.723 54.9512C254.495 55.0488 254.238 55.0977 253.951 55.0977C253.593 55.0977 253.279 55.0277 253.009 54.8877C252.742 54.7477 252.534 54.5605 252.384 54.3262C252.237 54.0885 252.164 53.8232 252.164 53.5303C252.164 53.2471 252.219 52.998 252.33 52.7832C252.441 52.5651 252.6 52.3844 252.809 52.2412C253.017 52.0947 253.268 51.984 253.561 51.9092C253.854 51.8343 254.181 51.7969 254.542 51.7969H255.592ZM260.836 53.5986C260.836 53.4684 260.807 53.348 260.748 53.2373C260.693 53.1234 260.577 53.0208 260.401 52.9297C260.229 52.8353 259.968 52.7539 259.62 52.6855C259.327 52.6237 259.062 52.5505 258.824 52.4658C258.59 52.3812 258.39 52.2786 258.224 52.1582C258.061 52.0378 257.936 51.8962 257.848 51.7334C257.76 51.5706 257.716 51.3802 257.716 51.1621C257.716 50.9538 257.761 50.7568 257.853 50.5713C257.947 50.3857 258.079 50.2214 258.248 50.0781C258.421 49.9349 258.627 49.8226 258.868 49.7412C259.109 49.6598 259.378 49.6191 259.674 49.6191C260.097 49.6191 260.458 49.694 260.758 49.8438C261.057 49.9935 261.287 50.1937 261.446 50.4443C261.606 50.6917 261.686 50.9668 261.686 51.2695H260.782C260.782 51.123 260.738 50.9814 260.65 50.8447C260.566 50.7048 260.44 50.5892 260.274 50.498C260.112 50.4069 259.911 50.3613 259.674 50.3613C259.423 50.3613 259.22 50.4004 259.063 50.4785C258.91 50.5534 258.798 50.6494 258.727 50.7666C258.658 50.8838 258.624 51.0075 258.624 51.1377C258.624 51.2354 258.64 51.3232 258.673 51.4014C258.709 51.4762 258.771 51.5462 258.858 51.6113C258.946 51.6732 259.07 51.7318 259.229 51.7871C259.389 51.8424 259.592 51.8978 259.84 51.9531C260.273 52.0508 260.629 52.168 260.909 52.3047C261.189 52.4414 261.397 52.609 261.534 52.8076C261.671 53.0062 261.739 53.2471 261.739 53.5303C261.739 53.7614 261.69 53.973 261.593 54.165C261.498 54.3571 261.36 54.5231 261.178 54.6631C260.999 54.7998 260.784 54.9072 260.533 54.9854C260.286 55.0602 260.007 55.0977 259.698 55.0977C259.233 55.0977 258.839 55.0146 258.517 54.8486C258.194 54.6826 257.95 54.4678 257.784 54.2041C257.618 53.9404 257.535 53.6621 257.535 53.3691H258.443C258.456 53.6165 258.528 53.8135 258.658 53.96C258.788 54.1032 258.948 54.2057 259.137 54.2676C259.326 54.3262 259.513 54.3555 259.698 54.3555C259.946 54.3555 260.152 54.3229 260.318 54.2578C260.488 54.1927 260.616 54.1032 260.704 53.9893C260.792 53.8753 260.836 53.7451 260.836 53.5986ZM236.52 59.8906L238.229 62.6152L239.938 59.8906H241.036L238.79 63.4111L241.09 67H239.981L238.229 64.2217L236.476 67H235.367L237.667 63.4111L235.421 59.8906H236.52ZM244.103 67H242.618L242.628 66.2334H244.103C244.61 66.2334 245.034 66.1276 245.372 65.916C245.711 65.7012 245.965 65.4017 246.134 65.0176C246.306 64.6302 246.393 64.1777 246.393 63.6602V63.2256C246.393 62.8187 246.344 62.4574 246.246 62.1416C246.148 61.8226 246.005 61.554 245.816 61.3359C245.628 61.1146 245.396 60.9469 245.123 60.833C244.853 60.7191 244.542 60.6621 244.19 60.6621H242.589V59.8906H244.19C244.656 59.8906 245.081 59.9688 245.465 60.125C245.849 60.278 246.179 60.501 246.456 60.7939C246.736 61.0837 246.951 61.4352 247.101 61.8486C247.25 62.2588 247.325 62.721 247.325 63.2354V63.6602C247.325 64.1745 247.25 64.6383 247.101 65.0518C246.951 65.4619 246.734 65.8118 246.451 66.1016C246.171 66.3913 245.833 66.6143 245.436 66.7705C245.042 66.9235 244.597 67 244.103 67ZM243.121 59.8906V67H242.179V59.8906H243.121Z" fill="black"/>
</g>
<defs>
<clipPath id="clip0_1620_3325">
<rect width="315" height="216.571" fill="white"/>
</clipPath>
</defs>
</svg>
