<svg width="419" height="205" viewBox="0 0 419 205" fill="none" xmlns="http://www.w3.org/2000/svg">
<g clip-path="url(#clip0_1721_3728)">
<path opacity="0.1" d="M404 135.078C404.021 146.361 400.941 157.432 395.096 167.083C395.096 178.885 389.593 189.583 380.668 197.38C378.435 199.332 376.029 201.079 373.482 202.599C373.38 202.664 373.274 202.725 373.168 202.786C372.977 202.899 372.786 203.011 372.592 203.127L372.411 203.233C363.963 207.941 354.442 210.386 344.771 210.331H88.0354C70.332 210.331 54.3058 204.167 42.6944 194.206C31.0831 184.244 23.9274 170.458 23.9274 155.253C17.4254 145.241 13.9762 133.554 14.0001 121.616C14.0001 87.8182 41.0138 60.4193 74.341 60.4193C75.5206 60.4193 76.6899 60.4602 77.8524 60.525C98.7638 24.8659 145.932 0 200.73 0C234.418 0 265.213 9.39204 288.8 24.9102C297.735 19.8593 307.827 17.2106 318.091 17.2227C351.412 17.2227 378.432 44.6216 378.432 78.4193C378.427 80.5578 378.313 82.6947 378.091 84.8216C386.123 90.5073 392.67 98.0413 397.179 106.788C401.688 115.535 404.028 125.238 404 135.078Z" fill="#2B22C6"/>
<path d="M128.856 135.214V150.263C128.856 158.49 125.858 165.579 119.861 171.532C113.931 177.418 106.823 180.361 98.5351 180.361H83.3746C75.0869 180.361 67.9783 177.451 62.0489 171.632C56.0521 165.747 53.0537 158.624 53.0537 150.263H68.2142C68.2142 154.41 69.6965 157.988 72.6612 160.998C75.6933 163.874 79.2645 165.312 83.3746 165.312H98.5351C102.713 165.312 106.25 163.874 109.147 160.998C112.18 157.988 113.696 154.41 113.696 150.263V135.214C113.696 131.135 112.18 127.623 109.147 124.68C106.25 121.671 102.713 120.166 98.5351 120.166H53.0537V75.0195H128.856V90.0682H68.2142V105.117H98.5351C106.823 105.117 113.931 108.093 119.861 114.046C125.858 119.932 128.856 126.988 128.856 135.214Z" fill="#007580"/>
<path d="M199.73 180.698C228.852 180.698 252.46 157.09 252.46 127.968C252.46 98.8461 228.852 75.238 199.73 75.238C170.608 75.238 147 98.8461 147 127.968C147 157.09 170.608 180.698 199.73 180.698Z" fill="#007580"/>
<path d="M199.739 160.292C202.413 160.292 204.581 158.125 204.581 155.451C204.581 152.777 202.413 150.609 199.739 150.609C197.066 150.609 194.898 152.777 194.898 155.451C194.898 158.125 197.066 160.292 199.739 160.292Z" fill="white"/>
<path d="M199.719 95.6439C199.274 98.5991 200.071 99.2175 200.076 111.958C200.08 124.698 202.723 141.78 199.735 141.781C196.747 141.782 195.653 106.529 185.276 103.409C173.075 99.7407 201.159 86.0774 199.719 95.6439Z" fill="white"/>
<path d="M318.73 179.698C347.852 179.698 371.46 156.09 371.46 126.968C371.46 97.8461 347.852 74.238 318.73 74.238C289.608 74.238 266 97.8461 266 126.968C266 156.09 289.608 179.698 318.73 179.698Z" fill="#007580"/>
<path d="M318.739 159.292C321.413 159.292 323.581 157.125 323.581 154.451C323.581 151.777 321.413 149.609 318.739 149.609C316.066 149.609 313.898 151.777 313.898 154.451C313.898 157.125 316.066 159.292 318.739 159.292Z" fill="white"/>
<path d="M318.719 94.6439C318.274 97.5991 319.071 98.2175 319.076 110.958C319.08 123.698 321.723 140.78 318.735 140.781C315.747 140.782 314.653 105.529 304.276 102.409C292.075 98.7407 320.159 85.0774 318.719 94.6439Z" fill="white"/>
</g>
<defs>
<clipPath id="clip0_1721_3728">
<rect width="419" height="205" fill="white"/>
</clipPath>
</defs>
</svg>
