<svg width="100" height="100" viewBox="0 0 100 100" fill="none" xmlns="http://www.w3.org/2000/svg">
<path d="M16.7997 76.4119L9.16374 57.5279C9.16374 57.5279 7.51174 52.1459 9.79974 47.1799C12.0877 42.2139 17.8997 24.7519 17.8997 24.7519C17.8997 24.7519 19.0837 22.5999 21.5997 23.3999C24.1157 24.1999 24.2797 25.9199 23.9517 27.3059C23.6237 28.6919 20.1317 43.7059 22.8857 49.8239C22.8857 49.8239 26.8677 46.8039 29.6637 51.0079C32.4597 55.2119 32.7997 62.1879 32.7997 62.1879C32.7997 62.1879 36.0757 67.6219 34.5777 72.7359L35.0457 76.2459L16.7997 76.4119Z" fill="#FFBEB3"/>
<path d="M37.888 76.4121H12.406V89.8921H37.888V76.4121Z" fill="#0099F5"/>
<path d="M21.196 76.4783H12.406V89.8923H21.196V76.4783Z" fill="#0064F4"/>
<path d="M49.3319 45.3355L49.3588 45.3259L49.3858 45.3355" stroke="#231F20" stroke-width="0.3" stroke-linejoin="round"/>
<path d="M22.886 49.8142C22.886 49.8142 20.706 51.7442 21.814 54.2442C22.922 56.7442 24.224 61.7482 23.524 63.8442C23.524 63.8442 22.622 60.9422 19.724 57.3402C16.826 53.7382 16.6 47.6622 21.856 44.2502C21.856 44.2502 22.248 47.6862 22.886 49.8142Z" fill="#EF978B"/>
<path opacity="0.26" d="M26.2723 51.8788L24.3421 52.7109C23.6949 52.9899 23.3964 53.7407 23.6754 54.3878L24.1505 55.4898C24.4294 56.1369 25.1802 56.4354 25.8273 56.1564L27.7576 55.3243C28.4048 55.0453 28.7032 54.2946 28.4243 53.6474L27.9492 52.5455C27.6702 51.8983 26.9195 51.5999 26.2723 51.8788Z" fill="white"/>
<path d="M83.1999 76.4119L90.8359 57.5279C90.8359 57.5279 92.4879 52.1459 90.2059 47.1799C87.9239 42.2139 82.1059 24.7519 82.1059 24.7519C82.1059 24.7519 80.9159 22.5999 78.3999 23.3999C75.8839 24.1999 75.7199 25.9199 76.0479 27.3059C76.3759 28.6919 79.8679 43.7059 77.1139 49.8239C77.1139 49.8239 73.1319 46.8039 70.3359 51.0079C67.5399 55.2119 67.1999 62.1879 67.1999 62.1879C67.1999 62.1879 63.9239 67.6219 65.4219 72.7359L64.9539 76.2459L83.1999 76.4119Z" fill="#FFBEB3"/>
<path d="M62.112 89.8945H87.594V76.4145H62.112V89.8945Z" fill="#0099F5"/>
<path d="M78.804 89.8945H87.594V76.4805H78.804V89.8945Z" fill="#0064F4"/>
<path d="M77.1139 49.8141C77.1139 49.8141 79.2938 51.7441 78.1858 54.2441C77.0778 56.7441 75.7759 61.7481 76.4759 63.8441C76.4759 63.8441 77.3779 60.9421 80.2759 57.3401C83.1739 53.7381 83.4078 47.6561 78.1418 44.2441C78.1438 44.2501 77.7519 47.6861 77.1139 49.8141Z" fill="#EF978B"/>
<path opacity="0.26" d="M72.251 55.3232L74.1813 56.1553C74.8284 56.4342 75.5792 56.1358 75.8582 55.4886L76.3332 54.3867C76.6122 53.7395 76.3137 52.9888 75.6666 52.7098L73.7363 51.8777C73.0891 51.5987 72.3384 51.8972 72.0594 52.5443L71.5843 53.6463C71.3054 54.2934 71.6038 55.0442 72.251 55.3232Z" fill="white"/>
<path d="M40.744 38.292C40.93 38.212 41.118 38.136 41.31 38.064L41.458 38.012C41.602 37.958 41.75 37.908 41.898 37.86L42.07 37.806C42.222 37.76 42.374 37.716 42.528 37.676L42.672 37.636C42.872 37.584 43.0719 37.536 43.2859 37.494C43.4859 37.454 43.686 37.418 43.886 37.386L44.066 37.36C44.2113 37.34 44.3573 37.322 44.504 37.306L44.714 37.284C44.858 37.27 45.004 37.26 45.148 37.252L45.338 37.24H45.412V36.64C44.054 35.896 42.878 34.756 42.302 33.63C42.1009 33.165 41.9624 32.6754 41.89 32.174C41.308 32.28 40.95 31.592 40.69 31.216C40.43 30.84 39.974 28.92 39.966 28.884C39.828 28.18 39.83 27.326 40.746 27.126C40.9689 27.0759 41.2006 27.0793 41.422 27.136C41.336 25.09 41.338 23.362 41.338 23.29C41.338 20.246 43.152 16.904 48.138 16.904C53.124 16.904 55.018 19.958 55.018 23.002C55.018 23.002 55.1139 24.902 55.0979 27.134C55.3395 27.0549 55.5979 27.0425 55.846 27.098C56.762 27.298 56.846 28.178 56.712 28.878C56.712 28.916 56.218 30.678 55.99 31.212C55.814 31.626 55.3579 32.322 54.7599 32.198C54.6889 32.6917 54.551 33.1735 54.35 33.63C53.6806 34.9466 52.621 36.0244 51.3159 36.716V37.272C52.9599 37.372 54.56 37.626 55.844 38.248C56.044 38.328 56.2439 38.414 56.43 38.508C58.196 39.3347 59.6811 40.6606 60.702 42.322C63.4868 39.8529 65.4574 36.5973 66.3536 32.985C67.2498 29.3727 67.0295 25.5736 65.7217 22.0891C64.414 18.6046 62.0803 15.5986 59.0287 13.4679C55.9772 11.3372 52.3512 10.182 48.6295 10.1548C44.9078 10.1276 41.2654 11.2296 38.183 13.3154C35.1006 15.4013 32.7232 18.3728 31.3646 21.8378C30.0061 25.3028 29.7302 29.0983 30.5735 32.7233C31.4168 36.3483 33.3395 39.6324 36.088 42.142C37.164 40.438 38.818 39.128 40.744 38.292Z" fill="#E34149"/>
<path d="M60.7261 42.3235C59.7053 40.6621 58.2201 39.3362 56.4541 38.5095C56.2541 38.4155 56.0641 38.3295 55.8681 38.2495C54.5841 37.6275 52.9841 37.3735 51.3401 37.2735V36.7175C52.6452 36.0259 53.7048 34.9481 54.3741 33.6315C54.5752 33.175 54.7131 32.6933 54.7841 32.1995C55.3841 32.3235 55.8381 31.6275 56.0141 31.2135C56.2421 30.6735 56.7301 28.9175 56.7361 28.8795C56.8761 28.1795 56.7861 27.2995 55.8701 27.0995C55.6221 27.044 55.3637 27.0564 55.1221 27.1355C55.1381 24.9035 55.0421 23.0035 55.0421 23.0035C55.0421 19.9595 53.1561 16.9055 48.1621 16.9055C43.1681 16.9055 41.3621 20.2475 41.3621 23.2915C41.3621 23.3635 41.3621 25.0915 41.4461 27.1375C41.2247 27.0808 40.9931 27.0774 40.7701 27.1275C39.8541 27.3275 39.8521 28.1815 39.9901 28.8855C39.9901 28.9215 40.4481 30.8175 40.7141 31.2175C40.9801 31.6175 41.3141 32.2815 41.9141 32.1755C41.9866 32.6769 42.1251 33.1665 42.3261 33.6315C42.9021 34.7575 44.0781 35.8975 45.4361 36.6415V37.2415H45.3621L45.1721 37.2535C45.0281 37.2535 44.8821 37.2715 44.7381 37.2855L44.5281 37.3075C44.3828 37.3235 44.2368 37.3415 44.0901 37.3615L43.9101 37.3875C43.7101 37.4195 43.5101 37.4555 43.3101 37.4955C43.1101 37.5375 42.9001 37.5855 42.6961 37.6375L42.5521 37.6775C42.3981 37.7175 42.2461 37.7615 42.0941 37.8075L41.9221 37.8615C41.7741 37.9095 41.6261 37.9595 41.4821 38.0135L41.3341 38.0655C41.1341 38.1375 40.9541 38.2135 40.7681 38.2935C38.8421 39.1295 37.1881 40.4395 36.1361 42.1455C39.4923 45.2101 43.8639 46.9241 48.4086 46.9573C52.9533 46.9906 57.3495 45.3407 60.7501 42.3255L60.7261 42.3235Z" fill="#FFC5DA"/>
</svg>
