<svg width="48" height="48" viewBox="0 0 48 48" fill="none" xmlns="http://www.w3.org/2000/svg">
<path d="M24 44C21.2333 44 18.6333 43.475 16.2 42.425C13.7667 41.375 11.65 39.95 9.85 38.15C8.05 36.35 6.625 34.2333 5.575 31.8C4.525 29.3667 4 26.7667 4 24C4 21.2333 4.525 18.6333 5.575 16.2C6.625 13.7667 8.05 11.65 9.85 9.85C11.65 8.05 13.7667 6.625 16.2 5.575C18.6333 4.525 21.2333 4 24 4C26.7667 4 29.3667 4.525 31.8 5.575C34.2333 6.625 36.35 8.05 38.15 9.85C39.95 11.65 41.375 13.7667 42.425 16.2C43.475 18.6333 44 21.2333 44 24C44 26.7667 43.475 29.3667 42.425 31.8C41.375 34.2333 39.95 36.35 38.15 38.15C36.35 39.95 34.2333 41.375 31.8 42.425C29.3667 43.475 26.7667 44 24 44ZM17.95 40L21.1 32.5C19.8333 32.0667 18.7083 31.375 17.725 30.425C16.7417 29.475 16 28.3167 15.5 26.95L8 29.95C9.03333 32.3167 10.4 34.3667 12.1 36.1C13.8 37.8333 15.75 39.1333 17.95 40ZM15.45 21.1C15.9833 19.7333 16.7333 18.5667 17.7 17.6C18.6667 16.6333 19.7833 15.9333 21.05 15.5L18.05 8C15.55 9.03333 13.4333 10.425 11.7 12.175C9.96667 13.925 8.73333 15.9 8 18.1L15.45 21.1ZM24 30C25.6667 30 27.0833 29.4167 28.25 28.25C29.4167 27.0833 30 25.6667 30 24C30 22.3333 29.4167 20.9167 28.25 19.75C27.0833 18.5833 25.6667 18 24 18C22.3333 18 20.9167 18.5833 19.75 19.75C18.5833 20.9167 18 22.3333 18 24C18 25.6667 18.5833 27.0833 19.75 28.25C20.9167 29.4167 22.3333 30 24 30ZM30.05 40C32.35 39.0667 34.35 37.7417 36.05 36.025C37.75 34.3083 39.0667 32.3167 40 30.05L32.5 26.95C32 28.35 31.2583 29.525 30.275 30.475C29.2917 31.425 28.1667 32.1 26.9 32.5L30.05 40ZM32.5 21.05L40 17.95C39.0667 15.6833 37.7417 13.6917 36.025 11.975C34.3083 10.2583 32.3167 8.93333 30.05 8L27 15.5C28.2667 15.9333 29.3667 16.625 30.3 17.575C31.2333 18.525 31.9667 19.6833 32.5 21.05Z" fill="#007580"/>
</svg>
