<svg width="48" height="48" viewBox="0 0 48 48" fill="none" xmlns="http://www.w3.org/2000/svg">
<path d="M21.5502 31.5C21.5835 29.1 21.8585 27.35 22.3752 26.25C22.8919 25.15 23.8669 23.95 25.3002 22.65C26.7002 21.3833 27.7752 20.2083 28.5252 19.125C29.2752 18.0417 29.6502 16.8833 29.6502 15.65C29.6502 14.15 29.1502 12.9 28.1502 11.9C27.1502 10.9 25.7502 10.4 23.9502 10.4C22.2169 10.4 20.8835 10.8917 19.9502 11.875C19.0169 12.8583 18.3335 13.8833 17.9002 14.95L13.7002 13.1C14.4335 11.1333 15.6752 9.45833 17.4252 8.075C19.1752 6.69167 21.3502 6 23.9502 6C27.2835 6 29.8502 6.925 31.6502 8.775C33.4502 10.625 34.3502 12.85 34.3502 15.45C34.3502 17.05 34.0085 18.5 33.3252 19.8C32.6419 21.1 31.5502 22.4667 30.0502 23.9C28.4169 25.4667 27.4335 26.6667 27.1002 27.5C26.7669 28.3333 26.5835 29.6667 26.5502 31.5H21.5502ZM23.9502 44C22.9835 44 22.1585 43.6583 21.4752 42.975C20.7919 42.2917 20.4502 41.4667 20.4502 40.5C20.4502 39.5333 20.7919 38.7083 21.4752 38.025C22.1585 37.3417 22.9835 37 23.9502 37C24.9169 37 25.7419 37.3417 26.4252 38.025C27.1085 38.7083 27.4502 39.5333 27.4502 40.5C27.4502 41.4667 27.1085 42.2917 26.4252 42.975C25.7419 43.6583 24.9169 44 23.9502 44Z" fill="#007580"/>
</svg>
