<svg width="314" height="245" viewBox="0 0 314 245" fill="none" xmlns="http://www.w3.org/2000/svg">
<g clip-path="url(#clip0_2142_3927)">
<path d="M309.23 37.7561H244.442V190.879H309.23V37.7561Z" fill="white"/>
<path d="M309.23 191.376H244.443C244.308 191.376 244.179 191.323 244.084 191.228C243.989 191.133 243.935 191.003 243.935 190.869V37.7561C243.935 37.6215 243.989 37.4924 244.084 37.3972C244.179 37.3021 244.308 37.2486 244.443 37.2486H309.23C309.365 37.2486 309.494 37.3021 309.589 37.3972C309.684 37.4924 309.738 37.6215 309.738 37.7561V190.869C309.738 191.003 309.684 191.133 309.589 191.228C309.494 191.323 309.365 191.376 309.23 191.376ZM244.95 190.361H308.743V38.2636H244.95V190.361Z" fill="#231F20"/>
<path d="M244.767 37.7561H226.193V190.879H244.767V37.7561Z" fill="#D1D3D4"/>
<path d="M244.798 191.376H226.223C226.089 191.376 225.96 191.323 225.864 191.228C225.769 191.133 225.716 191.003 225.716 190.869V37.7561C225.716 37.6215 225.769 37.4924 225.864 37.3972C225.96 37.3021 226.089 37.2486 226.223 37.2486H244.798C244.932 37.2486 245.061 37.3021 245.157 37.3972C245.252 37.4924 245.305 37.6215 245.305 37.7561V190.869C245.305 191.003 245.252 191.133 245.157 191.228C245.061 191.323 244.932 191.376 244.798 191.376ZM226.731 190.361H244.29V38.2636H226.731V190.361Z" fill="#231F20"/>
<path d="M309.23 46.1603H226.193C226.058 46.1603 225.929 46.1068 225.834 46.0116C225.739 45.9164 225.685 45.7874 225.685 45.6528C225.685 45.5182 225.739 45.3891 225.834 45.2939C225.929 45.1987 226.058 45.1453 226.193 45.1453H309.23C309.365 45.1453 309.494 45.1987 309.589 45.2939C309.684 45.3891 309.737 45.5182 309.737 45.6528C309.737 45.7874 309.684 45.9164 309.589 46.0116C309.494 46.1068 309.365 46.1603 309.23 46.1603Z" fill="#231F20"/>
<path d="M309.23 52.9303H226.193C226.058 52.9303 225.929 52.8769 225.834 52.7817C225.739 52.6865 225.685 52.5574 225.685 52.4228C225.688 52.2891 225.742 52.1615 225.837 52.0669C225.931 51.9722 226.059 51.9179 226.193 51.9153H309.23C309.364 51.9179 309.491 51.9722 309.586 52.0669C309.681 52.1615 309.735 52.2891 309.737 52.4228C309.737 52.5574 309.684 52.6865 309.589 52.7817C309.494 52.8769 309.365 52.9303 309.23 52.9303Z" fill="#231F20"/>
<path d="M309.23 59.7004H226.193C226.058 59.7004 225.929 59.6469 225.834 59.5517C225.739 59.4565 225.685 59.3275 225.685 59.1929C225.688 59.0591 225.742 58.9315 225.837 58.8369C225.931 58.7423 226.059 58.688 226.193 58.6854H309.23C309.364 58.688 309.491 58.7423 309.586 58.8369C309.681 58.9315 309.735 59.0591 309.737 59.1929C309.737 59.3275 309.684 59.4565 309.589 59.5517C309.494 59.6469 309.365 59.7004 309.23 59.7004Z" fill="#231F20"/>
<path d="M309.23 66.4806H226.193C226.059 66.478 225.931 66.4237 225.837 66.3291C225.742 66.2344 225.688 66.1069 225.685 65.9731C225.685 65.8385 225.739 65.7094 225.834 65.6142C225.929 65.519 226.058 65.4656 226.193 65.4656H309.23C309.365 65.4656 309.494 65.519 309.589 65.6142C309.684 65.7094 309.737 65.8385 309.737 65.9731C309.735 66.1069 309.681 66.2344 309.586 66.3291C309.491 66.4237 309.364 66.478 309.23 66.4806Z" fill="#231F20"/>
<path d="M309.23 73.2507H226.193C226.059 73.2481 225.931 73.1938 225.837 73.0991C225.742 73.0045 225.688 72.8769 225.685 72.7432C225.685 72.6086 225.739 72.4795 225.834 72.3843C225.929 72.2891 226.058 72.2357 226.193 72.2357H309.23C309.365 72.2357 309.494 72.2891 309.589 72.3843C309.684 72.4795 309.737 72.6086 309.737 72.7432C309.735 72.8769 309.681 73.0045 309.586 73.0991C309.491 73.1938 309.364 73.2481 309.23 73.2507Z" fill="#231F20"/>
<path d="M309.23 80.0207H226.193C226.058 80.0207 225.929 79.9672 225.834 79.872C225.739 79.7769 225.685 79.6478 225.685 79.5132C225.685 79.3786 225.739 79.2495 225.834 79.1543C225.929 79.0591 226.058 79.0057 226.193 79.0057H309.23C309.365 79.0057 309.494 79.0591 309.589 79.1543C309.684 79.2495 309.737 79.3786 309.737 79.5132C309.737 79.6478 309.684 79.7769 309.589 79.872C309.494 79.9672 309.365 80.0207 309.23 80.0207Z" fill="#231F20"/>
<path d="M309.23 86.7908H226.193C226.058 86.7908 225.929 86.7373 225.834 86.6421C225.739 86.5469 225.685 86.4179 225.685 86.2833C225.688 86.1495 225.742 86.0219 225.837 85.9273C225.931 85.8327 226.059 85.7784 226.193 85.7758H309.23C309.364 85.7784 309.491 85.8327 309.586 85.9273C309.681 86.0219 309.735 86.1495 309.737 86.2833C309.737 86.4179 309.684 86.5469 309.589 86.6421C309.494 86.7373 309.365 86.7908 309.23 86.7908Z" fill="#231F20"/>
<path d="M309.23 93.5608H226.193C226.058 93.5608 225.929 93.5073 225.834 93.4121C225.739 93.317 225.685 93.1879 225.685 93.0533C225.688 92.9195 225.742 92.7919 225.837 92.6973C225.931 92.6027 226.059 92.5484 226.193 92.5458H309.23C309.364 92.5484 309.491 92.6027 309.586 92.6973C309.681 92.7919 309.735 92.9195 309.737 93.0533C309.737 93.1879 309.684 93.317 309.589 93.4121C309.494 93.5073 309.365 93.5608 309.23 93.5608Z" fill="#231F20"/>
<path d="M309.23 100.331H226.193C226.058 100.331 225.929 100.277 225.834 100.182C225.739 100.087 225.685 99.958 225.685 99.8234C225.688 99.6896 225.742 99.562 225.837 99.4674C225.931 99.3728 226.059 99.3185 226.193 99.3159H309.23C309.364 99.3185 309.491 99.3728 309.586 99.4674C309.681 99.562 309.735 99.6896 309.737 99.8234C309.737 99.958 309.684 100.087 309.589 100.182C309.494 100.277 309.365 100.331 309.23 100.331Z" fill="#231F20"/>
<path d="M309.23 107.111H226.193C226.059 107.108 225.931 107.054 225.837 106.959C225.742 106.865 225.688 106.737 225.685 106.604C225.685 106.469 225.739 106.34 225.834 106.245C225.929 106.149 226.058 106.096 226.193 106.096H309.23C309.365 106.096 309.494 106.149 309.589 106.245C309.684 106.34 309.737 106.469 309.737 106.604C309.735 106.737 309.681 106.865 309.586 106.959C309.491 107.054 309.364 107.108 309.23 107.111Z" fill="#231F20"/>
<path d="M309.23 113.881H226.193C226.059 113.878 225.931 113.824 225.837 113.73C225.742 113.635 225.688 113.507 225.685 113.374C225.685 113.239 225.739 113.11 225.834 113.015C225.929 112.92 226.058 112.866 226.193 112.866H309.23C309.365 112.866 309.494 112.92 309.589 113.015C309.684 113.11 309.737 113.239 309.737 113.374C309.735 113.507 309.681 113.635 309.586 113.73C309.491 113.824 309.364 113.878 309.23 113.881Z" fill="#231F20"/>
<path d="M309.23 120.651H226.193C226.058 120.651 225.929 120.598 225.834 120.502C225.739 120.407 225.685 120.278 225.685 120.144C225.685 120.009 225.739 119.88 225.834 119.785C225.929 119.69 226.058 119.636 226.193 119.636H309.23C309.365 119.636 309.494 119.69 309.589 119.785C309.684 119.88 309.737 120.009 309.737 120.144C309.737 120.278 309.684 120.407 309.589 120.502C309.494 120.598 309.365 120.651 309.23 120.651Z" fill="#231F20"/>
<path d="M309.23 127.421H226.193C226.058 127.421 225.929 127.368 225.834 127.273C225.739 127.177 225.685 127.048 225.685 126.914C225.688 126.78 225.742 126.652 225.837 126.558C225.931 126.463 226.059 126.409 226.193 126.406H309.23C309.364 126.409 309.491 126.463 309.586 126.558C309.681 126.652 309.735 126.78 309.737 126.914C309.737 127.048 309.684 127.177 309.589 127.273C309.494 127.368 309.365 127.421 309.23 127.421Z" fill="#231F20"/>
<path d="M309.23 134.191H226.193C226.058 134.191 225.929 134.138 225.834 134.043C225.739 133.947 225.685 133.818 225.685 133.684C225.688 133.55 225.742 133.422 225.837 133.328C225.931 133.233 226.059 133.179 226.193 133.176H309.23C309.364 133.179 309.491 133.233 309.586 133.328C309.681 133.422 309.735 133.55 309.737 133.684C309.737 133.818 309.684 133.947 309.589 134.043C309.494 134.138 309.365 134.191 309.23 134.191Z" fill="#231F20"/>
<path d="M309.23 140.971H226.193C226.059 140.969 225.931 140.915 225.837 140.82C225.742 140.725 225.688 140.598 225.685 140.464C225.685 140.329 225.739 140.2 225.834 140.105C225.929 140.01 226.058 139.956 226.193 139.956H309.23C309.365 139.956 309.494 140.01 309.589 140.105C309.684 140.2 309.737 140.329 309.737 140.464C309.735 140.598 309.681 140.725 309.586 140.82C309.491 140.915 309.364 140.969 309.23 140.971Z" fill="#231F20"/>
<path d="M309.23 147.741H226.193C226.059 147.739 225.931 147.685 225.837 147.59C225.742 147.495 225.688 147.368 225.685 147.234C225.685 147.099 225.739 146.97 225.834 146.875C225.929 146.78 226.058 146.726 226.193 146.726H309.23C309.365 146.726 309.494 146.78 309.589 146.875C309.684 146.97 309.737 147.099 309.737 147.234C309.735 147.368 309.681 147.495 309.586 147.59C309.491 147.685 309.364 147.739 309.23 147.741Z" fill="#231F20"/>
<path d="M309.23 154.512H226.193C226.058 154.512 225.929 154.458 225.834 154.363C225.739 154.268 225.685 154.139 225.685 154.004C225.685 153.869 225.739 153.74 225.834 153.645C225.929 153.55 226.058 153.497 226.193 153.497H309.23C309.365 153.497 309.494 153.55 309.589 153.645C309.684 153.74 309.737 153.869 309.737 154.004C309.737 154.139 309.684 154.268 309.589 154.363C309.494 154.458 309.365 154.512 309.23 154.512Z" fill="#231F20"/>
<path d="M309.23 161.282H226.193C226.058 161.282 225.929 161.228 225.834 161.133C225.739 161.038 225.685 160.909 225.685 160.774C225.688 160.64 225.742 160.513 225.837 160.418C225.931 160.324 226.059 160.269 226.193 160.267H309.23C309.364 160.269 309.491 160.324 309.586 160.418C309.681 160.513 309.735 160.64 309.737 160.774C309.737 160.909 309.684 161.038 309.589 161.133C309.494 161.228 309.365 161.282 309.23 161.282Z" fill="#231F20"/>
<path d="M309.23 168.052H226.193C226.058 168.052 225.929 167.998 225.834 167.903C225.739 167.808 225.685 167.679 225.685 167.544C225.688 167.41 225.742 167.283 225.837 167.188C225.931 167.094 226.059 167.039 226.193 167.037H309.23C309.364 167.039 309.491 167.094 309.586 167.188C309.681 167.283 309.735 167.41 309.737 167.544C309.737 167.679 309.684 167.808 309.589 167.903C309.494 167.998 309.365 168.052 309.23 168.052Z" fill="#231F20"/>
<path d="M244.767 32.61H223.138V37.7561H244.767V32.61Z" fill="#231F20"/>
<path d="M244.798 38.2636H223.138C223.003 38.2636 222.874 38.2101 222.779 38.1149C222.684 38.0198 222.63 37.8907 222.63 37.7561V32.61C222.63 32.4754 222.684 32.3464 222.779 32.2512C222.874 32.156 223.003 32.1025 223.138 32.1025H244.798C244.932 32.1025 245.061 32.156 245.157 32.2512C245.252 32.3464 245.305 32.4754 245.305 32.61V37.7561C245.305 37.8907 245.252 38.0198 245.157 38.1149C245.061 38.2101 244.932 38.2636 244.798 38.2636ZM223.676 37.2486H244.29V33.1277H223.645L223.676 37.2486Z" fill="#231F20"/>
<path d="M312.985 32.61H244.767V37.7561H312.985V32.61Z" fill="#231F20"/>
<path d="M312.985 38.2636H244.798C244.664 38.261 244.536 38.2067 244.442 38.1121C244.347 38.0175 244.293 37.8899 244.29 37.7561V32.61C244.29 32.4754 244.344 32.3464 244.439 32.2512C244.534 32.156 244.663 32.1025 244.798 32.1025H313.016C313.151 32.1025 313.28 32.156 313.375 32.2512C313.47 32.3464 313.523 32.4754 313.523 32.61V37.7561C313.524 37.8254 313.509 37.894 313.482 37.9576C313.455 38.0212 313.415 38.0786 313.364 38.1262C313.314 38.1737 313.254 38.2104 313.189 38.2341C313.124 38.2577 313.055 38.2677 312.985 38.2636ZM245.275 37.2486H312.478V33.1277H245.275V37.2486Z" fill="#231F20"/>
<path d="M298.887 170.549H254.775V187.976H298.887V170.549Z" fill="#231F20"/>
<path d="M298.887 188.484H254.775C254.64 188.484 254.511 188.43 254.416 188.335C254.321 188.24 254.268 188.111 254.268 187.976V170.549C254.268 170.414 254.321 170.285 254.416 170.19C254.511 170.094 254.64 170.041 254.775 170.041H298.887C299.022 170.041 299.151 170.094 299.246 170.19C299.341 170.285 299.395 170.414 299.395 170.549V187.976C299.395 188.111 299.341 188.24 299.246 188.335C299.151 188.43 299.022 188.484 298.887 188.484ZM255.242 187.469H298.339V171.056H255.283L255.242 187.469Z" fill="#231F20"/>
<path d="M226.446 190.869H160.634V0.505615L226.446 28.7226V190.869Z" fill="white"/>
<path d="M226.447 191.376H160.634C160.499 191.376 160.37 191.323 160.275 191.228C160.18 191.133 160.127 191.003 160.127 190.869V0.505585C160.125 0.422977 160.145 0.341441 160.184 0.268643C160.223 0.195846 160.28 0.134178 160.35 0.0894356C160.421 0.0414112 160.502 0.0116415 160.587 0.00278596C160.672 -0.00606961 160.758 0.00626333 160.837 0.0386844L226.65 28.2557C226.74 28.2964 226.816 28.3619 226.87 28.4447C226.924 28.5274 226.953 28.6238 226.954 28.7226V190.869C226.954 191.003 226.901 191.133 226.805 191.228C226.71 191.323 226.581 191.376 226.447 191.376ZM161.142 190.361H225.939V29.0677L161.142 1.27699V190.361Z" fill="#231F20"/>
<path d="M161.385 190.869H143.592V5.39791L161.385 0.505615V190.869Z" fill="#D1D3D4"/>
<path d="M161.385 191.376H143.592C143.457 191.376 143.328 191.323 143.233 191.228C143.138 191.133 143.084 191.003 143.084 190.869V5.39788C143.085 5.28675 143.122 5.1789 143.19 5.09089C143.258 5.00288 143.353 4.93957 143.46 4.91068L161.243 0.0183757C161.319 -0.0021651 161.398 -0.00553349 161.475 0.00851388C161.553 0.0225612 161.626 0.0536703 161.689 0.0995756C161.75 0.148822 161.8 0.210541 161.835 0.280574C161.87 0.350607 161.89 0.42733 161.892 0.505577V190.869C161.892 191.003 161.839 191.133 161.744 191.228C161.649 191.323 161.52 191.376 161.385 191.376ZM144.13 190.361H160.908V1.17548L144.13 5.78358V190.361Z" fill="#231F20"/>
<path d="M178.295 164.733C178.16 164.733 178.031 164.679 177.936 164.584C177.841 164.489 177.787 164.36 177.787 164.225V8.07751C177.787 7.94291 177.841 7.81382 177.936 7.71865C178.031 7.62348 178.16 7.57001 178.295 7.57001C178.429 7.57001 178.559 7.62348 178.654 7.71865C178.749 7.81382 178.802 7.94291 178.802 8.07751V164.225C178.802 164.36 178.749 164.489 178.654 164.584C178.559 164.679 178.429 164.733 178.295 164.733Z" fill="#231F20"/>
<path d="M195.794 164.733C195.659 164.733 195.53 164.679 195.435 164.584C195.34 164.489 195.286 164.36 195.286 164.225V15.5784C195.286 15.4438 195.34 15.3147 195.435 15.2195C195.53 15.1243 195.659 15.0709 195.794 15.0709C195.927 15.0735 196.055 15.1278 196.15 15.2224C196.244 15.317 196.299 15.4446 196.301 15.5784V164.225C196.301 164.36 196.248 164.489 196.152 164.584C196.057 164.679 195.928 164.733 195.794 164.733Z" fill="#231F20"/>
<path d="M213.272 164.733C213.137 164.733 213.008 164.679 212.913 164.584C212.818 164.489 212.764 164.36 212.764 164.225V23.069C212.767 22.9352 212.821 22.8077 212.916 22.713C213.011 22.6184 213.138 22.5641 213.272 22.5615C213.407 22.5615 213.536 22.615 213.631 22.7102C213.726 22.8053 213.779 22.9344 213.779 23.069V164.225C213.779 164.36 213.726 164.489 213.631 164.584C213.536 164.679 213.407 164.733 213.272 164.733Z" fill="#231F20"/>
<path d="M226.446 164.733H161.385C161.25 164.733 161.121 164.679 161.026 164.584C160.931 164.489 160.877 164.36 160.877 164.225C160.877 164.09 160.931 163.961 161.026 163.866C161.121 163.771 161.25 163.718 161.385 163.718H226.446C226.581 163.718 226.71 163.771 226.805 163.866C226.9 163.961 226.954 164.09 226.954 164.225C226.954 164.36 226.9 164.489 226.805 164.584C226.71 164.679 226.581 164.733 226.446 164.733Z" fill="#231F20"/>
<path d="M225.797 33.1277H161.283C161.149 33.1277 161.02 33.0742 160.925 32.979C160.829 32.8839 160.776 32.7548 160.776 32.6202C160.776 32.4856 160.829 32.3565 160.925 32.2613C161.02 32.1661 161.149 32.1127 161.283 32.1127H225.797C225.931 32.1127 226.06 32.1661 226.156 32.2613C226.251 32.3565 226.304 32.4856 226.304 32.6202C226.304 32.7548 226.251 32.8839 226.156 32.979C226.06 33.0742 225.931 33.1277 225.797 33.1277Z" fill="#231F20"/>
<path d="M225.797 49.5504H161.283C161.15 49.5478 161.022 49.4935 160.927 49.3989C160.833 49.3043 160.778 49.1767 160.776 49.0429C160.776 48.9083 160.829 48.7792 160.925 48.684C161.02 48.5889 161.149 48.5354 161.283 48.5354H225.797C225.931 48.5354 226.06 48.5889 226.156 48.684C226.251 48.7792 226.304 48.9083 226.304 49.0429C226.304 49.1775 226.251 49.3066 226.156 49.4018C226.06 49.4969 225.931 49.5504 225.797 49.5504Z" fill="#231F20"/>
<path d="M225.797 65.9731H161.283C161.149 65.9731 161.02 65.9196 160.925 65.8244C160.829 65.7293 160.776 65.6002 160.776 65.4656C160.778 65.3318 160.833 65.2042 160.927 65.1096C161.022 65.015 161.15 64.9607 161.283 64.9581H225.797C225.931 64.9581 226.06 65.0115 226.156 65.1067C226.251 65.2019 226.304 65.331 226.304 65.4656C226.304 65.6002 226.251 65.7293 226.156 65.8244C226.06 65.9196 225.931 65.9731 225.797 65.9731Z" fill="#231F20"/>
<path d="M225.797 82.4059H161.283C161.15 82.4033 161.022 82.349 160.927 82.2544C160.833 82.1598 160.778 82.0322 160.776 81.8984C160.776 81.7638 160.829 81.6347 160.925 81.5396C161.02 81.4444 161.149 81.3909 161.283 81.3909H225.797C225.931 81.3909 226.06 81.4444 226.156 81.5396C226.251 81.6347 226.304 81.7638 226.304 81.8984C226.304 82.033 226.251 82.1621 226.156 82.2573C226.06 82.3525 225.931 82.4059 225.797 82.4059Z" fill="#231F20"/>
<path d="M225.797 98.8287H161.283C161.149 98.8287 161.02 98.7752 160.925 98.68C160.829 98.5848 160.776 98.4558 160.776 98.3212C160.778 98.1874 160.833 98.0598 160.927 97.9652C161.022 97.8706 161.15 97.8163 161.283 97.8137H225.797C225.931 97.8137 226.06 97.8671 226.156 97.9623C226.251 98.0575 226.304 98.1866 226.304 98.3212C226.304 98.4558 226.251 98.5848 226.156 98.68C226.06 98.7752 225.931 98.8287 225.797 98.8287Z" fill="#231F20"/>
<path d="M225.797 115.261H161.283C161.15 115.259 161.022 115.205 160.927 115.11C160.833 115.015 160.778 114.888 160.776 114.754C160.776 114.619 160.829 114.49 160.925 114.395C161.02 114.3 161.149 114.246 161.283 114.246H225.797C225.931 114.246 226.06 114.3 226.156 114.395C226.251 114.49 226.304 114.619 226.304 114.754C226.304 114.889 226.251 115.018 226.156 115.113C226.06 115.208 225.931 115.261 225.797 115.261Z" fill="#231F20"/>
<path d="M225.797 131.684H161.283C161.149 131.684 161.02 131.631 160.925 131.536C160.829 131.44 160.776 131.311 160.776 131.177C160.778 131.043 160.833 130.915 160.927 130.821C161.022 130.726 161.15 130.672 161.283 130.669H225.797C225.931 130.669 226.06 130.723 226.156 130.818C226.251 130.913 226.304 131.042 226.304 131.177C226.304 131.311 226.251 131.44 226.156 131.536C226.06 131.631 225.931 131.684 225.797 131.684Z" fill="#231F20"/>
<path d="M225.797 148.117H161.283C161.15 148.114 161.022 148.06 160.927 147.966C160.833 147.871 160.778 147.743 160.776 147.61C160.776 147.475 160.829 147.346 160.925 147.251C161.02 147.156 161.149 147.102 161.283 147.102H225.797C225.931 147.102 226.06 147.156 226.156 147.251C226.251 147.346 226.304 147.475 226.304 147.61C226.304 147.744 226.251 147.873 226.156 147.968C226.06 148.064 225.931 148.117 225.797 148.117Z" fill="#231F20"/>
<path d="M153.975 28.7226H109.082V190.869H153.975V28.7226Z" fill="white"/>
<path d="M153.975 191.376H109.082C108.947 191.376 108.818 191.323 108.723 191.228C108.628 191.133 108.574 191.003 108.574 190.869V28.7226C108.574 28.588 108.628 28.4589 108.723 28.3637C108.818 28.2686 108.947 28.2151 109.082 28.2151H153.975C154.11 28.2151 154.239 28.2686 154.334 28.3637C154.429 28.4589 154.483 28.588 154.483 28.7226V190.869C154.483 191.003 154.429 191.133 154.334 191.228C154.239 191.323 154.11 191.376 153.975 191.376ZM109.589 190.361H153.448V29.2301H109.589V190.361Z" fill="#231F20"/>
<path d="M82.5804 190.879H109.082L109.082 28.7327H82.5804L82.5804 190.879Z" fill="#D1D3D4"/>
<path d="M109.082 191.376H82.5805C82.4459 191.376 82.3168 191.323 82.2216 191.228C82.1265 191.133 82.073 191.003 82.073 190.869V28.7226C82.073 28.588 82.1265 28.4589 82.2216 28.3637C82.3168 28.2686 82.4459 28.2151 82.5805 28.2151H109.082C109.217 28.2151 109.346 28.2686 109.441 28.3637C109.536 28.4589 109.59 28.588 109.59 28.7226V190.869C109.59 190.935 109.577 191.001 109.551 191.063C109.526 191.125 109.488 191.181 109.441 191.228C109.394 191.275 109.338 191.312 109.276 191.338C109.215 191.363 109.149 191.376 109.082 191.376ZM83.088 190.361H108.575V29.2301H83.088V190.361Z" fill="#231F20"/>
<path d="M119.536 34.569H113.944V185.033H119.536V34.569Z" fill="#231F20"/>
<path d="M119.527 185.54H113.944C113.809 185.54 113.68 185.487 113.585 185.391C113.49 185.296 113.437 185.167 113.437 185.033V34.569C113.437 34.4344 113.49 34.3053 113.585 34.2101C113.68 34.1149 113.809 34.0615 113.944 34.0615H119.527C119.661 34.0615 119.79 34.1149 119.885 34.2101C119.981 34.3053 120.034 34.4344 120.034 34.569V185.033C120.034 185.167 119.981 185.296 119.885 185.391C119.79 185.487 119.661 185.54 119.527 185.54ZM114.452 184.525H119.019V35.0765H114.452V184.525Z" fill="#231F20"/>
<path d="M129.392 34.569H123.8V185.033H129.392V34.569Z" fill="#231F20"/>
<path d="M129.392 185.54H123.799C123.666 185.537 123.538 185.483 123.444 185.389C123.349 185.294 123.295 185.166 123.292 185.033V34.569C123.292 34.4344 123.345 34.3053 123.441 34.2101C123.536 34.1149 123.665 34.0615 123.799 34.0615H129.392C129.527 34.0615 129.656 34.1149 129.751 34.2101C129.846 34.3053 129.9 34.4344 129.9 34.569V185.033C129.9 185.167 129.846 185.296 129.751 185.391C129.656 185.487 129.527 185.54 129.392 185.54ZM124.317 184.525H128.895V35.0765H124.317V184.525Z" fill="#231F20"/>
<path d="M139.258 34.569H133.665V185.033H139.258V34.569Z" fill="#231F20"/>
<path d="M139.238 185.54H133.645C133.511 185.537 133.384 185.483 133.289 185.389C133.194 185.294 133.14 185.166 133.137 185.033V34.569C133.137 34.4344 133.191 34.3053 133.286 34.2101C133.381 34.1149 133.51 34.0615 133.645 34.0615H139.238C139.372 34.0615 139.501 34.1149 139.596 34.2101C139.692 34.3053 139.745 34.4344 139.745 34.569V185.033C139.745 185.167 139.692 185.296 139.596 185.391C139.501 185.487 139.372 185.54 139.238 185.54ZM134.163 184.525H138.74V35.0765H134.163V184.525Z" fill="#231F20"/>
<path d="M149.124 34.569H143.531V185.033H149.124V34.569Z" fill="#231F20"/>
<path d="M149.124 185.54H143.531C143.397 185.54 143.268 185.487 143.172 185.391C143.077 185.296 143.024 185.167 143.024 185.033V34.569C143.024 34.4344 143.077 34.3053 143.172 34.2101C143.268 34.1149 143.397 34.0615 143.531 34.0615H149.124C149.258 34.0615 149.388 34.1149 149.483 34.2101C149.578 34.3053 149.631 34.4344 149.631 34.569V185.033C149.629 185.166 149.574 185.294 149.48 185.389C149.385 185.483 149.258 185.537 149.124 185.54ZM144.049 184.525H148.626V35.0765H144.049V184.525Z" fill="#231F20"/>
<path d="M90.9236 34.569H87.0361V185.033H90.9236V34.569Z" fill="#231F20"/>
<path d="M90.9237 185.54H87.0363C86.9025 185.537 86.7749 185.483 86.6803 185.389C86.5857 185.294 86.5314 185.166 86.5288 185.033V34.569C86.5288 34.4344 86.5823 34.3053 86.6774 34.2101C86.7726 34.1149 86.9017 34.0615 87.0363 34.0615H90.9237C91.0583 34.0615 91.1874 34.1149 91.2826 34.2101C91.3778 34.3053 91.4312 34.4344 91.4312 34.569V185.033C91.4312 185.167 91.3778 185.296 91.2826 185.391C91.1874 185.487 91.0583 185.54 90.9237 185.54ZM87.5438 184.525H90.4162V35.0765H87.5438V184.525Z" fill="#231F20"/>
<path d="M97.7749 34.569H93.8875V185.033H97.7749V34.569Z" fill="#231F20"/>
<path d="M97.7748 185.54H93.8874C93.7536 185.537 93.626 185.483 93.5314 185.389C93.4368 185.294 93.3825 185.166 93.3799 185.033V34.569C93.3799 34.4344 93.4333 34.3053 93.5285 34.2101C93.6237 34.1149 93.7528 34.0615 93.8874 34.0615H97.7748C97.9094 34.0615 98.0385 34.1149 98.1337 34.2101C98.2289 34.3053 98.2823 34.4344 98.2823 34.569V185.033C98.2823 185.167 98.2289 185.296 98.1337 185.391C98.0385 185.487 97.9094 185.54 97.7748 185.54ZM94.3949 184.525H97.2673V35.0765H94.3949V184.525Z" fill="#231F20"/>
<path d="M104.636 34.569H100.749V185.033H104.636V34.569Z" fill="#231F20"/>
<path d="M104.626 185.54H100.749C100.614 185.54 100.485 185.487 100.39 185.391C100.295 185.296 100.241 185.167 100.241 185.033V34.569C100.241 34.4344 100.295 34.3053 100.39 34.2101C100.485 34.1149 100.614 34.0615 100.749 34.0615H104.626C104.761 34.0615 104.89 34.1149 104.985 34.2101C105.08 34.3053 105.134 34.4344 105.134 34.569V185.033C105.134 185.167 105.08 185.296 104.985 185.391C104.89 185.487 104.761 185.54 104.626 185.54ZM101.256 184.525H104.119V35.0765H101.256V184.525Z" fill="#231F20"/>
<path d="M148.007 22.3281H109.082V28.7226H148.007V22.3281Z" fill="white"/>
<path d="M148.007 29.2301H109.082C108.947 29.2301 108.818 29.1766 108.723 29.0814C108.628 28.9862 108.574 28.8572 108.574 28.7226V22.3281C108.574 22.1935 108.628 22.0644 108.723 21.9692C108.818 21.874 108.947 21.8206 109.082 21.8206H148.007C148.142 21.8206 148.271 21.874 148.366 21.9692C148.461 22.0644 148.515 22.1935 148.515 22.3281V28.7226C148.515 28.8572 148.461 28.9862 148.366 29.0814C148.271 29.1766 148.142 29.2301 148.007 29.2301ZM109.589 28.2151H147.5V22.8356H109.589V28.2151Z" fill="#231F20"/>
<path d="M109.092 22.3281H89.6245V28.7226H109.092V22.3281Z" fill="#D1D3D4"/>
<path d="M109.082 29.2301H89.6244C89.4898 29.2301 89.3608 29.1766 89.2656 29.0814C89.1704 28.9862 89.1169 28.8572 89.1169 28.7226V22.3281C89.1169 22.1935 89.1704 22.0644 89.2656 21.9692C89.3608 21.874 89.4898 21.8206 89.6244 21.8206H109.082C109.217 21.8206 109.346 21.874 109.441 21.9692C109.536 22.0644 109.589 22.1935 109.589 22.3281V28.7226C109.589 28.7892 109.576 28.8552 109.551 28.9168C109.525 28.9783 109.488 29.0343 109.441 29.0814C109.394 29.1285 109.338 29.1659 109.276 29.1914C109.215 29.2169 109.149 29.2301 109.082 29.2301ZM90.1319 28.2151H108.574V22.8356H90.1319V28.2151Z" fill="#231F20"/>
<path d="M109.082 19.7094H87.5234V22.3281H109.082V19.7094Z" fill="#D1D3D4"/>
<path d="M109.082 22.8356H87.5234C87.3888 22.8356 87.2597 22.7821 87.1645 22.687C87.0693 22.5918 87.0159 22.4627 87.0159 22.3281V19.7094C87.0159 19.5748 87.0693 19.4457 87.1645 19.3505C87.2597 19.2554 87.3888 19.2019 87.5234 19.2019H109.082C109.217 19.2019 109.346 19.2554 109.441 19.3505C109.536 19.4457 109.589 19.5748 109.589 19.7094V22.3281C109.589 22.3948 109.576 22.4607 109.551 22.5223C109.525 22.5839 109.488 22.6398 109.441 22.687C109.394 22.7341 109.338 22.7715 109.276 22.797C109.215 22.8225 109.149 22.8356 109.082 22.8356ZM88.0309 21.8206H108.574V20.2169H88.0309V21.8206Z" fill="#231F20"/>
<path d="M149.652 19.7094H109.082V22.3281H149.652V19.7094Z" fill="#D1D3D4"/>
<path d="M149.652 22.8356H109.052C108.917 22.8356 108.788 22.7821 108.693 22.687C108.598 22.5918 108.544 22.4627 108.544 22.3281V19.7094C108.544 19.5748 108.598 19.4457 108.693 19.3505C108.788 19.2554 108.917 19.2019 109.052 19.2019H149.652C149.786 19.2019 149.915 19.2554 150.011 19.3505C150.106 19.4457 150.159 19.5748 150.159 19.7094V22.3281C150.159 22.4627 150.106 22.5918 150.011 22.687C149.915 22.7821 149.786 22.8356 149.652 22.8356ZM109.59 21.8206H149.175V20.2169H109.59V21.8206Z" fill="#231F20"/>
<path d="M84.1131 74.6208H3.56274V190.869H84.1131V74.6208Z" fill="white"/>
<path d="M84.1029 191.376H3.56268C3.42808 191.376 3.29899 191.323 3.20382 191.228C3.10864 191.133 3.05518 191.003 3.05518 190.869V74.6209C3.05518 74.4863 3.10864 74.3572 3.20382 74.262C3.29899 74.1669 3.42808 74.1134 3.56268 74.1134H84.1029C84.2375 74.1134 84.3666 74.1669 84.4618 74.262C84.557 74.3572 84.6104 74.4863 84.6104 74.6209V190.869C84.6104 191.003 84.557 191.133 84.4618 191.228C84.3666 191.323 84.2375 191.376 84.1029 191.376ZM4.07018 190.361H83.5954V75.1284H4.07018V190.361Z" fill="#231F20"/>
<path d="M25.4662 191.376C25.3316 191.376 25.2026 191.323 25.1074 191.228C25.0122 191.133 24.9587 191.003 24.9587 190.869V111.699C24.9587 111.564 25.0122 111.435 25.1074 111.34C25.2026 111.245 25.3316 111.191 25.4662 111.191C25.6008 111.191 25.7299 111.245 25.8251 111.34C25.9203 111.435 25.9737 111.564 25.9737 111.699V190.869C25.9737 191.003 25.9203 191.133 25.8251 191.228C25.7299 191.323 25.6008 191.376 25.4662 191.376Z" fill="#231F20"/>
<path d="M76.186 172.112H36.4995V186.423H76.186V172.112Z" fill="#231F20"/>
<path d="M76.1859 186.92H36.4994C36.3648 186.92 36.2358 186.867 36.1406 186.772C36.0454 186.677 35.9919 186.548 35.9919 186.413V172.112C35.9919 171.977 36.0454 171.848 36.1406 171.753C36.2358 171.658 36.3648 171.604 36.4994 171.604H76.1859C76.3205 171.604 76.4496 171.658 76.5448 171.753C76.64 171.848 76.6934 171.977 76.6934 172.112V186.393C76.6962 186.461 76.6851 186.529 76.6608 186.593C76.6365 186.657 76.5996 186.715 76.5522 186.765C76.5048 186.814 76.4479 186.853 76.385 186.88C76.322 186.907 76.2543 186.921 76.1859 186.92ZM37.0069 185.905H75.6784V172.619H37.0069V185.905Z" fill="#231F20"/>
<path d="M25.4766 74.6208H3.56274V190.869H25.4766V74.6208Z" fill="#D1D3D4"/>
<path d="M25.4664 191.376H3.56268C3.42808 191.376 3.29899 191.323 3.20382 191.228C3.10864 191.133 3.05518 191.003 3.05518 190.869V74.6209C3.05518 74.4863 3.10864 74.3572 3.20382 74.262C3.29899 74.1669 3.42808 74.1134 3.56268 74.1134H25.4664C25.601 74.1134 25.7301 74.1669 25.8252 74.262C25.9204 74.3572 25.9739 74.4863 25.9739 74.6209V190.869C25.9739 191.003 25.9204 191.133 25.8252 191.228C25.7301 191.323 25.601 191.376 25.4664 191.376ZM4.07018 190.361H24.9589V75.1284H4.07018V190.361Z" fill="#231F20"/>
<path d="M86.3765 73.9307H15.9558V77.3208H86.3765V73.9307Z" fill="white"/>
<path d="M86.3866 77.7877H15.9557C15.822 77.7851 15.6944 77.7308 15.5998 77.6361C15.5051 77.5415 15.4508 77.4139 15.4482 77.2802V73.9307C15.4508 73.7969 15.5051 73.6693 15.5998 73.5747C15.6944 73.4801 15.822 73.4258 15.9557 73.4232H86.3866C86.5204 73.4258 86.6479 73.4801 86.7426 73.5747C86.8372 73.6693 86.8915 73.7969 86.8941 73.9307V77.3208C86.8816 77.4473 86.823 77.5649 86.7294 77.651C86.6358 77.7371 86.5138 77.7858 86.3866 77.7877ZM16.4226 76.7727H85.8385V74.4382H16.4226V76.7727Z" fill="#231F20"/>
<path d="M25.4765 73.9307H0.619141V77.3208H25.4765V73.9307Z" fill="#D1D3D4"/>
<path d="M25.4663 77.7877H0.619072C0.484475 77.7877 0.35539 77.7342 0.260215 77.639C0.16504 77.5438 0.111572 77.4148 0.111572 77.2802V73.9307C0.111572 73.7961 0.16504 73.667 0.260215 73.5718C0.35539 73.4766 0.484475 73.4232 0.619072 73.4232H25.4663C25.6009 73.4232 25.7299 73.4766 25.8251 73.5718C25.9203 73.667 25.9738 73.7961 25.9738 73.9307V77.3208C25.9635 77.4482 25.9056 77.5671 25.8115 77.6536C25.7174 77.7402 25.5941 77.7881 25.4663 77.7877ZM1.10627 76.7727H24.9588V74.4382H1.12657L1.10627 76.7727Z" fill="#231F20"/>
<path d="M84.1029 83.9691H15.9558V87.3592H84.1029V83.9691Z" fill="white"/>
<path d="M84.1028 87.8565H15.9557C15.8211 87.8565 15.6921 87.803 15.5969 87.7079C15.5017 87.6127 15.4482 87.4836 15.4482 87.349V83.969C15.4482 83.8345 15.5017 83.7054 15.5969 83.6102C15.6921 83.515 15.8211 83.4615 15.9557 83.4615H84.1028C84.2374 83.4615 84.3665 83.515 84.4617 83.6102C84.5569 83.7054 84.6103 83.8345 84.6103 83.969V87.349C84.6103 87.4836 84.5569 87.6127 84.4617 87.7079C84.3665 87.803 84.2374 87.8565 84.1028 87.8565ZM16.4632 86.8415H83.5953V84.4765H16.4226L16.4632 86.8415Z" fill="#231F20"/>
<path d="M25.4765 83.9691H0.619141V87.3592H25.4765V83.9691Z" fill="#D1D3D4"/>
<path d="M25.4663 87.8565H0.619072C0.484475 87.8565 0.35539 87.803 0.260215 87.7079C0.16504 87.6127 0.111572 87.4836 0.111572 87.349V83.969C0.111572 83.8345 0.16504 83.7054 0.260215 83.6102C0.35539 83.515 0.484475 83.4615 0.619072 83.4615H25.4663C25.6009 83.4615 25.7299 83.515 25.8251 83.6102C25.9203 83.7054 25.9738 83.8345 25.9738 83.969V87.349C25.9738 87.4836 25.9203 87.6127 25.8251 87.7079C25.7299 87.803 25.6009 87.8565 25.4663 87.8565ZM1.10627 86.8415H24.9588V84.4765H1.12657L1.10627 86.8415Z" fill="#231F20"/>
<path d="M84.1029 93.9973H15.9558V97.3873H84.1029V93.9973Z" fill="white"/>
<path d="M84.1028 97.8949H15.9557C15.822 97.8923 15.6944 97.838 15.5998 97.7433C15.5051 97.6487 15.4508 97.5211 15.4482 97.3874V94.0277C15.4482 93.8931 15.5017 93.764 15.5969 93.6688C15.6921 93.5737 15.8211 93.5202 15.9557 93.5202H84.1028C84.2374 93.5202 84.3665 93.5737 84.4617 93.6688C84.5569 93.764 84.6103 93.8931 84.6103 94.0277V97.4178C84.6026 97.547 84.5457 97.6684 84.4514 97.7571C84.357 97.8458 84.2323 97.8951 84.1028 97.8949ZM16.4632 96.8799H83.5953V94.5048H16.4226L16.4632 96.8799Z" fill="#231F20"/>
<path d="M25.4765 93.9973H0.619141V97.3873H25.4765V93.9973Z" fill="#D1D3D4"/>
<path d="M25.4663 97.8949H0.619072C0.484475 97.8949 0.35539 97.8414 0.260215 97.7462C0.16504 97.651 0.111572 97.5219 0.111572 97.3874V94.0277C0.111572 93.8931 0.16504 93.764 0.260215 93.6688C0.35539 93.5737 0.484475 93.5202 0.619072 93.5202H25.4663C25.6009 93.5202 25.7299 93.5737 25.8251 93.6688C25.9203 93.764 25.9738 93.8931 25.9738 94.0277V97.4178C25.966 97.547 25.9091 97.6684 25.8148 97.7571C25.7204 97.8458 25.5958 97.8951 25.4663 97.8949ZM1.10627 96.8799H24.9588V94.5048H1.12657L1.10627 96.8799Z" fill="#231F20"/>
<path d="M84.1029 104.025H15.9558V107.416H84.1029V104.025Z" fill="white"/>
<path d="M84.1028 107.923H15.9557C15.8211 107.923 15.6921 107.87 15.5969 107.774C15.5017 107.679 15.4482 107.55 15.4482 107.416V104.025C15.4508 103.892 15.5051 103.764 15.5998 103.669C15.6944 103.575 15.822 103.521 15.9557 103.518H84.1028C84.2374 103.518 84.3665 103.571 84.4617 103.667C84.5569 103.762 84.6103 103.891 84.6103 104.025V107.416C84.6103 107.55 84.5569 107.679 84.4617 107.774C84.3665 107.87 84.2374 107.923 84.1028 107.923ZM16.4632 106.908H83.5953V104.533H16.4226L16.4632 106.908Z" fill="#231F20"/>
<path d="M25.4765 104.025H0.619141V107.416H25.4765V104.025Z" fill="#D1D3D4"/>
<path d="M25.4663 107.923H0.619072C0.484475 107.923 0.35539 107.87 0.260215 107.774C0.16504 107.679 0.111572 107.55 0.111572 107.416V104.025C0.111572 103.891 0.16504 103.762 0.260215 103.667C0.35539 103.571 0.484475 103.518 0.619072 103.518H25.4663C25.6009 103.518 25.7299 103.571 25.8251 103.667C25.9203 103.762 25.9738 103.891 25.9738 104.025V107.416C25.9738 107.55 25.9203 107.679 25.8251 107.774C25.7299 107.87 25.6009 107.923 25.4663 107.923ZM1.10627 106.908H24.9588V104.533H1.12657L1.10627 106.908Z" fill="#231F20"/>
<path d="M84.1029 114.064H15.9558V117.454H84.1029V114.064Z" fill="white"/>
<path d="M84.1028 117.951H15.9557C15.8211 117.951 15.6921 117.898 15.5969 117.803C15.5017 117.707 15.4482 117.578 15.4482 117.444V114.064C15.4482 113.929 15.5017 113.8 15.5969 113.705C15.6921 113.61 15.8211 113.556 15.9557 113.556H84.1028C84.2374 113.556 84.3665 113.61 84.4617 113.705C84.5569 113.8 84.6103 113.929 84.6103 114.064V117.444C84.6103 117.578 84.5569 117.707 84.4617 117.803C84.3665 117.898 84.2374 117.951 84.1028 117.951ZM16.4632 116.936H83.5953V114.571H16.4226L16.4632 116.936Z" fill="#231F20"/>
<path d="M25.4765 114.064H0.619141V117.454H25.4765V114.064Z" fill="#D1D3D4"/>
<path d="M25.4663 117.951H0.619072C0.484475 117.951 0.35539 117.898 0.260215 117.803C0.16504 117.707 0.111572 117.578 0.111572 117.444V114.064C0.111572 113.929 0.16504 113.8 0.260215 113.705C0.35539 113.61 0.484475 113.556 0.619072 113.556H25.4663C25.6009 113.556 25.7299 113.61 25.8251 113.705C25.9203 113.8 25.9738 113.929 25.9738 114.064V117.444C25.9738 117.578 25.9203 117.707 25.8251 117.803C25.7299 117.898 25.6009 117.951 25.4663 117.951ZM1.10627 116.936H24.9588V114.571H1.12657L1.10627 116.936Z" fill="#231F20"/>
<path d="M84.1029 124.092H15.9558V127.482H84.1029V124.092Z" fill="white"/>
<path d="M84.1028 127.99H15.9557C15.822 127.987 15.6944 127.933 15.5998 127.838C15.5051 127.743 15.4508 127.616 15.4482 127.482V124.092C15.4508 123.958 15.5051 123.831 15.5998 123.736C15.6944 123.641 15.822 123.587 15.9557 123.584H84.1028C84.2374 123.584 84.3665 123.638 84.4617 123.733C84.5569 123.828 84.6103 123.957 84.6103 124.092V127.523C84.6001 127.65 84.5422 127.769 84.4481 127.856C84.354 127.942 84.2307 127.99 84.1028 127.99ZM16.4632 126.975H83.5953V124.599H16.4226L16.4632 126.975Z" fill="#231F20"/>
<path d="M25.4765 124.092H0.619141V127.482H25.4765V124.092Z" fill="#D1D3D4"/>
<path d="M25.4663 127.99H0.619072C0.484475 127.99 0.35539 127.936 0.260215 127.841C0.16504 127.746 0.111572 127.617 0.111572 127.482V124.092C0.111572 123.957 0.16504 123.828 0.260215 123.733C0.35539 123.638 0.484475 123.584 0.619072 123.584H25.4663C25.6009 123.584 25.7299 123.638 25.8251 123.733C25.9203 123.828 25.9738 123.957 25.9738 124.092V127.523C25.9635 127.65 25.9056 127.769 25.8115 127.856C25.7174 127.942 25.5941 127.99 25.4663 127.99ZM1.10627 126.975H24.9588V124.599H1.12657L1.10627 126.975Z" fill="#231F20"/>
<path d="M84.1029 134.13H15.9558V137.52H84.1029V134.13Z" fill="white"/>
<path d="M84.1028 138.018H15.9557C15.8211 138.018 15.6921 137.964 15.5969 137.869C15.5017 137.774 15.4482 137.645 15.4482 137.51V134.13C15.4482 133.996 15.5017 133.867 15.5969 133.771C15.6921 133.676 15.8211 133.623 15.9557 133.623H84.1028C84.2374 133.623 84.3665 133.676 84.4617 133.771C84.5569 133.867 84.6103 133.996 84.6103 134.13V137.51C84.6103 137.645 84.5569 137.774 84.4617 137.869C84.3665 137.964 84.2374 138.018 84.1028 138.018ZM16.4632 137.003H83.5953V134.628H16.4226L16.4632 137.003Z" fill="#231F20"/>
<path d="M25.4765 134.13H0.619141V137.52H25.4765V134.13Z" fill="#D1D3D4"/>
<path d="M25.4663 138.018H0.619072C0.484475 138.018 0.35539 137.964 0.260215 137.869C0.16504 137.774 0.111572 137.645 0.111572 137.51V134.13C0.111572 133.996 0.16504 133.867 0.260215 133.771C0.35539 133.676 0.484475 133.623 0.619072 133.623H25.4663C25.6009 133.623 25.7299 133.676 25.8251 133.771C25.9203 133.867 25.9738 133.996 25.9738 134.13V137.51C25.9738 137.645 25.9203 137.774 25.8251 137.869C25.7299 137.964 25.6009 138.018 25.4663 138.018ZM1.10627 137.003H24.9588V134.628H1.12657L1.10627 137.003Z" fill="#231F20"/>
<path d="M84.1029 144.159H15.9558V147.549H84.1029V144.159Z" fill="white"/>
<path d="M84.1028 148.056H15.9557C15.822 148.053 15.6944 147.999 15.5998 147.905C15.5051 147.81 15.4508 147.682 15.4482 147.549V144.159C15.4482 144.024 15.5017 143.895 15.5969 143.8C15.6921 143.704 15.8211 143.651 15.9557 143.651H84.1028C84.2374 143.651 84.3665 143.704 84.4617 143.8C84.5569 143.895 84.6103 144.024 84.6103 144.159V147.549C84.6103 147.683 84.5569 147.812 84.4617 147.907C84.3665 148.003 84.2374 148.056 84.1028 148.056ZM16.4632 147.041H83.5953V144.666H16.4226L16.4632 147.041Z" fill="#231F20"/>
<path d="M25.4765 144.159H0.619141V147.549H25.4765V144.159Z" fill="#D1D3D4"/>
<path d="M25.4663 148.056H0.619072C0.484475 148.056 0.35539 148.003 0.260215 147.907C0.16504 147.812 0.111572 147.683 0.111572 147.549V144.159C0.111572 144.024 0.16504 143.895 0.260215 143.8C0.35539 143.704 0.484475 143.651 0.619072 143.651H25.4663C25.6009 143.651 25.7299 143.704 25.8251 143.8C25.9203 143.895 25.9738 144.024 25.9738 144.159V147.549C25.9738 147.683 25.9203 147.812 25.8251 147.907C25.7299 148.003 25.6009 148.056 25.4663 148.056ZM1.10627 147.041H24.9588V144.666H1.12657L1.10627 147.041Z" fill="#231F20"/>
<path d="M84.1029 154.187H15.9558V157.577H84.1029V154.187Z" fill="white"/>
<path d="M84.1028 158.084H15.9557C15.8211 158.084 15.6921 158.031 15.5969 157.936C15.5017 157.84 15.4482 157.711 15.4482 157.577V154.187C15.4508 154.053 15.5051 153.925 15.5998 153.831C15.6944 153.736 15.822 153.682 15.9557 153.679H84.1028C84.2374 153.679 84.3665 153.733 84.4617 153.828C84.5569 153.923 84.6103 154.052 84.6103 154.187V157.577C84.6103 157.711 84.5569 157.84 84.4617 157.936C84.3665 158.031 84.2374 158.084 84.1028 158.084ZM16.4632 157.069H83.5953V154.694H16.4226L16.4632 157.069Z" fill="#231F20"/>
<path d="M25.4765 154.187H0.619141V157.577H25.4765V154.187Z" fill="#D1D3D4"/>
<path d="M25.4663 158.084H0.619072C0.484475 158.084 0.35539 158.031 0.260215 157.936C0.16504 157.84 0.111572 157.711 0.111572 157.577V154.187C0.111572 154.052 0.16504 153.923 0.260215 153.828C0.35539 153.733 0.484475 153.679 0.619072 153.679H25.4663C25.6009 153.679 25.7299 153.733 25.8251 153.828C25.9203 153.923 25.9738 154.052 25.9738 154.187V157.577C25.9738 157.711 25.9203 157.84 25.8251 157.936C25.7299 158.031 25.6009 158.084 25.4663 158.084ZM1.10627 157.069H24.9588V154.694H1.12657L1.10627 157.069Z" fill="#231F20"/>
<path d="M84.1029 164.225H15.9558V167.615H84.1029V164.225Z" fill="white"/>
<path d="M84.1028 168.123H15.9557C15.822 168.12 15.6944 168.066 15.5998 167.971C15.5051 167.877 15.4508 167.749 15.4482 167.615V164.225C15.4482 164.09 15.5017 163.961 15.5969 163.866C15.6921 163.771 15.8211 163.718 15.9557 163.718H84.1028C84.2374 163.718 84.3665 163.771 84.4617 163.866C84.5569 163.961 84.6103 164.09 84.6103 164.225V167.615C84.6103 167.75 84.5569 167.879 84.4617 167.974C84.3665 168.069 84.2374 168.123 84.1028 168.123ZM16.4226 167.108H83.5547V164.733H16.4226V167.108Z" fill="#231F20"/>
<path d="M25.4765 164.225H0.619141V167.615H25.4765V164.225Z" fill="#D1D3D4"/>
<path d="M25.4663 168.123H0.619072C0.484475 168.123 0.35539 168.069 0.260215 167.974C0.16504 167.879 0.111572 167.75 0.111572 167.615V164.225C0.111572 164.09 0.16504 163.961 0.260215 163.866C0.35539 163.771 0.484475 163.718 0.619072 163.718H25.4663C25.6009 163.718 25.7299 163.771 25.8251 163.866C25.9203 163.961 25.9738 164.09 25.9738 164.225V167.615C25.9738 167.75 25.9203 167.879 25.8251 167.974C25.7299 168.069 25.6009 168.123 25.4663 168.123ZM1.10627 167.108H24.9588V164.733H1.12657L1.10627 167.108Z" fill="#231F20"/>
<path d="M107.407 172.487C107.457 174.293 107.144 176.091 106.487 177.774C105.83 179.457 104.842 180.991 103.583 182.286C102.323 183.581 100.816 184.61 99.1518 185.313C97.4875 186.015 95.6992 186.377 93.8926 186.377C92.086 186.377 90.2977 186.015 88.6334 185.313C86.969 184.61 85.4624 183.581 84.2026 182.286C82.9427 180.991 81.9552 179.457 81.2983 177.774C80.6413 176.091 80.3284 174.293 80.3779 172.487C80.3779 165.027 86.4679 140.007 93.8875 140.007C101.307 140.007 107.407 165.078 107.407 172.487Z" fill="#007580"/>
<path d="M94.2936 196.238C94.0244 196.238 93.7662 196.131 93.5759 195.941C93.3855 195.751 93.2786 195.492 93.2786 195.223V164.864C93.2786 164.595 93.3855 164.337 93.5759 164.147C93.7662 163.956 94.0244 163.849 94.2936 163.849C94.5628 163.849 94.8209 163.956 95.0113 164.147C95.2016 164.337 95.3086 164.595 95.3086 164.864V195.223C95.3086 195.492 95.2016 195.751 95.0113 195.941C94.8209 196.131 94.5628 196.238 94.2936 196.238Z" fill="#231F20"/>
<path d="M226.782 173.715C226.782 177.298 225.358 180.735 222.825 183.268C220.291 185.802 216.855 187.225 213.272 187.225C209.689 187.225 206.253 185.802 203.719 183.268C201.186 180.735 199.762 177.298 199.762 173.715C199.762 166.255 205.852 141.235 213.272 141.235C220.692 141.235 226.782 166.255 226.782 173.715Z" fill="#007580"/>
<path d="M213.678 197.466C213.409 197.466 213.15 197.359 212.96 197.169C212.77 196.979 212.663 196.721 212.663 196.451V166.093C212.663 165.824 212.77 165.565 212.96 165.375C213.15 165.185 213.409 165.078 213.678 165.078C213.947 165.078 214.205 165.185 214.396 165.375C214.586 165.565 214.693 165.824 214.693 166.093V196.451C214.693 196.721 214.586 196.979 214.396 197.169C214.205 197.359 213.947 197.466 213.678 197.466Z" fill="#231F20"/>
<path d="M66.4216 195.233C65.5792 193.315 63.5796 190.047 58.7584 185.875C50.8819 179.075 45.0356 185.875 45.0356 185.875C32.9672 171.452 19.0008 184.363 19.0008 184.363C8.8508 181.845 1.99955 191.864 0 195.274L66.4216 195.233Z" fill="#007580"/>
<path d="M285.865 195.233C285.032 193.315 283.033 190.047 278.211 185.875C270.335 179.075 264.489 185.875 264.489 185.875C252.42 171.452 238.454 184.322 238.454 184.322C228.304 181.805 221.453 191.823 219.453 195.233H285.865Z" fill="#007580"/>
<path d="M176.265 195.233C175.433 193.315 173.423 190.047 168.602 185.875C160.735 179.075 154.889 185.875 154.889 185.875C142.821 171.452 128.844 184.322 128.844 184.322C118.694 181.805 111.853 191.823 109.854 195.233H176.265Z" fill="#007580"/>
<path d="M203.477 195.233C201.447 191.823 194.636 181.805 184.476 184.322C184.476 184.322 170.5 171.452 158.431 185.875C158.431 185.875 152.595 179.075 144.719 185.875C139.897 190.047 137.888 193.315 137.055 195.233H203.477Z" fill="#007580"/>
<path d="M312.985 209.078H0.619072C0.484475 209.078 0.35539 209.024 0.260215 208.929C0.16504 208.834 0.111572 208.705 0.111572 208.57C0.111572 208.436 0.16504 208.307 0.260215 208.212C0.35539 208.116 0.484475 208.063 0.619072 208.063H312.985C313.12 208.063 313.249 208.116 313.344 208.212C313.439 208.307 313.493 208.436 313.493 208.57C313.493 208.705 313.439 208.834 313.344 208.929C313.249 209.024 313.12 209.078 312.985 209.078Z" fill="#D1D3D4"/>
<path d="M312.985 244.897H0.619072C0.484475 244.897 0.35539 244.844 0.260215 244.749C0.16504 244.653 0.111572 244.524 0.111572 244.39C0.111572 244.255 0.16504 244.126 0.260215 244.031C0.35539 243.936 0.484475 243.882 0.619072 243.882H312.985C313.12 243.882 313.249 243.936 313.344 244.031C313.439 244.126 313.493 244.255 313.493 244.39C313.493 244.524 313.439 244.653 313.344 244.749C313.249 244.844 313.12 244.897 312.985 244.897Z" fill="#D1D3D4"/>
<path d="M12.7991 226.993H0.619072C0.484475 226.993 0.35539 226.939 0.260215 226.844C0.16504 226.749 0.111572 226.62 0.111572 226.485C0.111572 226.351 0.16504 226.221 0.260215 226.126C0.35539 226.031 0.484475 225.978 0.619072 225.978H12.7991C12.9329 225.98 13.0604 226.035 13.1551 226.129C13.2497 226.224 13.304 226.351 13.3066 226.485C13.3066 226.62 13.2531 226.749 13.1579 226.844C13.0628 226.939 12.9337 226.993 12.7991 226.993Z" fill="#D1D3D4"/>
<path d="M34.2358 226.993H22.0558C21.9212 226.993 21.7922 226.939 21.697 226.844C21.6018 226.749 21.5483 226.62 21.5483 226.485C21.5509 226.351 21.6052 226.224 21.6999 226.129C21.7945 226.035 21.9221 225.98 22.0558 225.978H34.2358C34.3704 225.978 34.4995 226.031 34.5947 226.126C34.6899 226.221 34.7433 226.351 34.7433 226.485C34.7433 226.62 34.6899 226.749 34.5947 226.844C34.4995 226.939 34.3704 226.993 34.2358 226.993Z" fill="#D1D3D4"/>
<path d="M55.6829 226.993H43.5029C43.3683 226.993 43.2392 226.939 43.144 226.844C43.0488 226.749 42.9954 226.62 42.9954 226.485C42.9954 226.351 43.0488 226.221 43.144 226.126C43.2392 226.031 43.3683 225.978 43.5029 225.978H55.6829C55.8166 225.98 55.9442 226.035 56.0388 226.129C56.1335 226.224 56.1878 226.351 56.1904 226.485C56.1904 226.62 56.1369 226.749 56.0417 226.844C55.9465 226.939 55.8175 226.993 55.6829 226.993Z" fill="#D1D3D4"/>
<path d="M77.1196 226.993H64.9396C64.805 226.993 64.6759 226.939 64.5808 226.844C64.4856 226.749 64.4321 226.62 64.4321 226.485C64.4347 226.351 64.489 226.224 64.5836 226.129C64.6783 226.035 64.8058 225.98 64.9396 225.978H77.1196C77.2542 225.978 77.3833 226.031 77.4785 226.126C77.5737 226.221 77.6271 226.351 77.6271 226.485C77.6271 226.62 77.5737 226.749 77.4785 226.844C77.3833 226.939 77.2542 226.993 77.1196 226.993Z" fill="#D1D3D4"/>
<path d="M98.5667 226.993H86.3867C86.2521 226.993 86.123 226.939 86.0278 226.844C85.9326 226.749 85.8792 226.62 85.8792 226.485C85.8792 226.351 85.9326 226.221 86.0278 226.126C86.123 226.031 86.2521 225.978 86.3867 225.978H98.5667C98.7004 225.98 98.828 226.035 98.9226 226.129C99.0173 226.224 99.0716 226.351 99.0742 226.485C99.0742 226.62 99.0207 226.749 98.9255 226.844C98.8303 226.939 98.7012 226.993 98.5667 226.993Z" fill="#D1D3D4"/>
<path d="M120.003 226.993H107.823C107.689 226.993 107.56 226.939 107.465 226.844C107.369 226.749 107.316 226.62 107.316 226.485C107.319 226.351 107.373 226.224 107.467 226.129C107.562 226.035 107.69 225.98 107.823 225.978H120.003C120.138 225.978 120.267 226.031 120.362 226.126C120.457 226.221 120.511 226.351 120.511 226.485C120.511 226.62 120.457 226.749 120.362 226.844C120.267 226.939 120.138 226.993 120.003 226.993Z" fill="#D1D3D4"/>
<path d="M141.45 226.993H129.27C129.136 226.993 129.007 226.939 128.912 226.844C128.816 226.749 128.763 226.62 128.763 226.485C128.763 226.351 128.816 226.221 128.912 226.126C129.007 226.031 129.136 225.978 129.27 225.978H141.45C141.584 225.98 141.712 226.035 141.806 226.129C141.901 226.224 141.955 226.351 141.958 226.485C141.958 226.62 141.904 226.749 141.809 226.844C141.714 226.939 141.585 226.993 141.45 226.993Z" fill="#D1D3D4"/>
<path d="M162.887 226.993H150.707C150.573 226.993 150.444 226.939 150.348 226.844C150.253 226.749 150.2 226.62 150.2 226.485C150.202 226.351 150.257 226.224 150.351 226.129C150.446 226.035 150.573 225.98 150.707 225.978H162.887C163.022 225.978 163.151 226.031 163.246 226.126C163.341 226.221 163.395 226.351 163.395 226.485C163.395 226.62 163.341 226.749 163.246 226.844C163.151 226.939 163.022 226.993 162.887 226.993Z" fill="#D1D3D4"/>
<path d="M184.334 226.993H172.154C172.02 226.993 171.891 226.939 171.795 226.844C171.7 226.749 171.647 226.62 171.647 226.485C171.647 226.351 171.7 226.221 171.795 226.126C171.891 226.031 172.02 225.978 172.154 225.978H184.334C184.468 225.98 184.596 226.035 184.69 226.129C184.785 226.224 184.839 226.351 184.842 226.485C184.842 226.62 184.788 226.749 184.693 226.844C184.598 226.939 184.469 226.993 184.334 226.993Z" fill="#D1D3D4"/>
<path d="M205.771 226.993H193.591C193.456 226.993 193.327 226.939 193.232 226.844C193.137 226.749 193.083 226.62 193.083 226.485C193.086 226.351 193.14 226.224 193.235 226.129C193.33 226.035 193.457 225.98 193.591 225.978H205.771C205.906 225.978 206.035 226.031 206.13 226.126C206.225 226.221 206.278 226.351 206.278 226.485C206.278 226.62 206.225 226.749 206.13 226.844C206.035 226.939 205.906 226.993 205.771 226.993Z" fill="#D1D3D4"/>
<path d="M227.218 226.993H215.038C214.903 226.993 214.774 226.939 214.679 226.844C214.584 226.749 214.53 226.62 214.53 226.485C214.53 226.351 214.584 226.221 214.679 226.126C214.774 226.031 214.903 225.978 215.038 225.978H227.218C227.352 225.978 227.481 226.031 227.577 226.126C227.672 226.221 227.725 226.351 227.725 226.485C227.725 226.62 227.672 226.749 227.577 226.844C227.481 226.939 227.352 226.993 227.218 226.993Z" fill="#D1D3D4"/>
<path d="M248.655 226.993H236.475C236.34 226.993 236.211 226.939 236.116 226.844C236.021 226.749 235.967 226.62 235.967 226.485C235.967 226.351 236.021 226.221 236.116 226.126C236.211 226.031 236.34 225.978 236.475 225.978H248.655C248.789 225.978 248.918 226.031 249.014 226.126C249.109 226.221 249.162 226.351 249.162 226.485C249.162 226.62 249.109 226.749 249.014 226.844C248.918 226.939 248.789 226.993 248.655 226.993Z" fill="#D1D3D4"/>
<path d="M270.102 226.993H257.922C257.787 226.993 257.658 226.939 257.563 226.844C257.468 226.749 257.414 226.62 257.414 226.485C257.414 226.351 257.468 226.221 257.563 226.126C257.658 226.031 257.787 225.978 257.922 225.978H270.102C270.236 225.978 270.365 226.031 270.46 226.126C270.556 226.221 270.609 226.351 270.609 226.485C270.609 226.62 270.556 226.749 270.46 226.844C270.365 226.939 270.236 226.993 270.102 226.993Z" fill="#D1D3D4"/>
<path d="M291.539 226.993H279.359C279.224 226.993 279.095 226.939 279 226.844C278.905 226.749 278.851 226.62 278.851 226.485C278.851 226.351 278.905 226.221 279 226.126C279.095 226.031 279.224 225.978 279.359 225.978H291.539C291.673 225.978 291.802 226.031 291.897 226.126C291.993 226.221 292.046 226.351 292.046 226.485C292.046 226.62 291.993 226.749 291.897 226.844C291.802 226.939 291.673 226.993 291.539 226.993Z" fill="#D1D3D4"/>
<path d="M312.985 226.993H300.805C300.671 226.993 300.542 226.939 300.447 226.844C300.351 226.749 300.298 226.62 300.298 226.485C300.298 226.351 300.351 226.221 300.447 226.126C300.542 226.031 300.671 225.978 300.805 225.978H312.985C313.12 225.978 313.249 226.031 313.344 226.126C313.439 226.221 313.493 226.351 313.493 226.485C313.493 226.62 313.439 226.749 313.344 226.844C313.249 226.939 313.12 226.993 312.985 226.993Z" fill="#D1D3D4"/>
<path d="M50.5775 233.255H22.0255C17.6306 233.255 7.71403 230.21 7.19638 229.195C6.67873 228.18 7.19638 222.892 7.19638 222.892H8.48543C8.48543 222.892 8.40422 217.025 9.00307 216.254C9.60192 215.483 16.4227 215.391 17.4174 215.127C18.4121 214.863 23.9236 209.697 37.1186 208.489C50.3136 207.281 62.4936 211.534 67.4468 216.254C67.4468 216.254 79.8196 217.117 84.3059 217.634C88.7922 218.152 93.3597 220.679 93.5323 221.258C93.7048 221.836 93.9687 223.958 93.9687 223.958C93.9687 223.958 95.2578 225.054 95.3491 225.744C95.4405 226.434 95.3491 230.748 95.3491 231.692C95.3491 232.636 94.0499 232.981 93.3191 233.245C92.5883 233.509 50.5775 233.255 50.5775 233.255Z" fill="#68E1FD"/>
<path d="M23.883 236.899C27.4539 236.899 30.3486 234.004 30.3486 230.434C30.3486 226.863 27.4539 223.968 23.883 223.968C20.3122 223.968 17.4175 226.863 17.4175 230.434C17.4175 234.004 20.3122 236.899 23.883 236.899Z" fill="#231F20"/>
<path d="M23.883 237.407C22.5038 237.407 21.1557 236.998 20.0089 236.231C18.8622 235.465 17.9685 234.376 17.4407 233.102C16.9129 231.828 16.7748 230.426 17.0439 229.073C17.313 227.72 17.9771 226.478 18.9523 225.503C19.9275 224.528 21.17 223.863 22.5226 223.594C23.8752 223.325 25.2773 223.463 26.5514 223.991C27.8256 224.519 28.9146 225.413 29.6808 226.559C30.4471 227.706 30.856 229.054 30.856 230.434C30.8533 232.282 30.1178 234.054 28.8107 235.361C27.5036 236.668 25.7315 237.404 23.883 237.407ZM23.883 224.475C22.7046 224.475 21.5527 224.825 20.5729 225.48C19.5931 226.134 18.8294 227.065 18.3784 228.153C17.9275 229.242 17.8095 230.44 18.0394 231.596C18.2693 232.752 18.8367 233.813 19.67 234.646C20.5032 235.48 21.5649 236.047 22.7206 236.277C23.8764 236.507 25.0743 236.389 26.163 235.938C27.2517 235.487 28.1822 234.723 28.8369 233.744C29.4916 232.764 29.841 231.612 29.841 230.434C29.841 228.853 29.2133 227.338 28.0959 226.221C26.9786 225.103 25.4631 224.475 23.883 224.475Z" fill="#231F20"/>
<path d="M23.8831 234.534C26.1478 234.534 27.9837 232.698 27.9837 230.434C27.9837 228.169 26.1478 226.333 23.8831 226.333C21.6184 226.333 19.7825 228.169 19.7825 230.434C19.7825 232.698 21.6184 234.534 23.8831 234.534Z" fill="white"/>
<path d="M23.883 235.042C22.9716 235.042 22.0807 234.771 21.3229 234.265C20.5651 233.759 19.9745 233.039 19.6257 232.197C19.2769 231.355 19.1856 230.428 19.3634 229.535C19.5413 228.641 19.9801 227.82 20.6246 227.175C21.269 226.531 22.0901 226.092 22.984 225.914C23.8779 225.736 24.8044 225.827 25.6464 226.176C26.4885 226.525 27.2082 227.116 27.7145 227.873C28.2208 228.631 28.4911 229.522 28.4911 230.434C28.4884 231.655 28.0021 232.825 27.1385 233.689C26.2749 234.553 25.1043 235.039 23.883 235.042ZM23.883 226.84C23.1724 226.84 22.4777 227.051 21.8868 227.446C21.2959 227.841 20.8354 228.402 20.5634 229.059C20.2915 229.715 20.2203 230.438 20.3589 231.135C20.4976 231.832 20.8398 232.472 21.3423 232.974C21.8448 233.477 22.485 233.819 23.182 233.958C23.879 234.096 24.6015 234.025 25.258 233.753C25.9146 233.481 26.4757 233.021 26.8706 232.43C27.2654 231.839 27.4761 231.144 27.4761 230.434C27.4734 229.481 27.094 228.569 26.4208 227.896C25.7475 227.223 24.8351 226.843 23.883 226.84Z" fill="#231F20"/>
<path d="M80.4084 236.899C83.9792 236.899 86.874 234.004 86.874 230.434C86.874 226.863 83.9792 223.968 80.4084 223.968C76.8376 223.968 73.9429 226.863 73.9429 230.434C73.9429 234.004 76.8376 236.899 80.4084 236.899Z" fill="#231F20"/>
<path d="M80.3676 237.407C78.9884 237.407 77.6403 236.998 76.4936 236.231C75.3469 235.465 74.4531 234.376 73.9253 233.102C73.3975 231.828 73.2595 230.426 73.5285 229.073C73.7976 227.72 74.4617 226.478 75.4369 225.503C76.4121 224.528 77.6546 223.863 79.0072 223.594C80.3598 223.325 81.7619 223.463 83.0361 223.991C84.3102 224.519 85.3992 225.413 86.1655 226.559C86.9317 227.706 87.3406 229.054 87.3406 230.434C87.3379 232.282 86.6024 234.054 85.2953 235.361C83.9882 236.668 82.2161 237.404 80.3676 237.407ZM80.3676 224.475C79.1892 224.475 78.0373 224.825 77.0575 225.48C76.0777 226.134 75.314 227.065 74.8631 228.153C74.4121 229.242 74.2941 230.44 74.524 231.596C74.7539 232.752 75.3214 233.813 76.1546 234.646C76.9879 235.48 78.0495 236.047 79.2052 236.277C80.361 236.507 81.5589 236.389 82.6476 235.938C83.7363 235.487 84.6668 234.723 85.3215 233.744C85.9762 232.764 86.3256 231.612 86.3256 230.434C86.3256 228.853 85.6979 227.338 84.5806 226.221C83.4632 225.103 81.9478 224.475 80.3676 224.475Z" fill="#231F20"/>
<path d="M80.4082 234.534C82.6729 234.534 84.5088 232.698 84.5088 230.434C84.5088 228.169 82.6729 226.333 80.4082 226.333C78.1435 226.333 76.3076 228.169 76.3076 230.434C76.3076 232.698 78.1435 234.534 80.4082 234.534Z" fill="white"/>
<path d="M80.3676 235.042C79.4562 235.042 78.5653 234.771 77.8075 234.265C77.0497 233.759 76.4591 233.039 76.1103 232.197C75.7615 231.355 75.6703 230.428 75.8481 229.535C76.0259 228.641 76.4647 227.82 77.1092 227.175C77.7537 226.531 78.5747 226.092 79.4686 225.914C80.3625 225.736 81.289 225.827 82.1311 226.176C82.9731 226.525 83.6928 227.116 84.1991 227.873C84.7055 228.631 84.9757 229.522 84.9757 230.434C84.973 231.655 84.4867 232.825 83.6231 233.689C82.7595 234.553 81.5889 235.039 80.3676 235.042ZM80.3676 226.84C79.657 226.84 78.9623 227.051 78.3714 227.446C77.7805 227.841 77.32 228.402 77.048 229.059C76.7761 229.715 76.7049 230.438 76.8436 231.135C76.9822 231.832 77.3244 232.472 77.8269 232.974C78.3294 233.477 78.9697 233.819 79.6666 233.958C80.3636 234.096 81.0861 234.025 81.7426 233.753C82.3992 233.481 82.9604 233.021 83.3552 232.43C83.75 231.839 83.9607 231.144 83.9607 230.434C83.958 229.481 83.5786 228.569 82.9054 227.896C82.2321 227.223 81.3198 226.843 80.3676 226.84Z" fill="#231F20"/>
<path d="M40.2549 217.584V209.464C40.2549 209.464 31.4244 210.337 27.9835 212.235C23.5175 214.701 20.2898 217.604 22.1067 217.604L40.2549 217.584Z" fill="#231F20"/>
<path d="M63.2245 217.584C63.0519 217.076 58.7585 213.3 54.8203 211.727C50.8236 210.289 46.6134 209.535 42.3662 209.494V217.614L63.2245 217.584Z" fill="#231F20"/>
<path d="M41.5238 231.763C41.4565 231.763 41.3919 231.736 41.3443 231.689C41.2967 231.641 41.27 231.577 41.27 231.509V218.517C41.27 218.45 41.2967 218.386 41.3443 218.338C41.3919 218.29 41.4565 218.264 41.5238 218.264C41.5911 218.264 41.6556 218.29 41.7032 218.338C41.7508 218.386 41.7775 218.45 41.7775 218.517V231.509C41.7775 231.577 41.7508 231.641 41.7032 231.689C41.6556 231.736 41.5911 231.763 41.5238 231.763Z" fill="#231F20"/>
<path d="M89.0662 226.059H94.7908V229.591H91.289C90.9984 229.591 90.7107 229.534 90.4422 229.423C90.1738 229.311 89.9299 229.148 89.7244 228.943C89.5189 228.737 89.3559 228.494 89.2447 228.225C89.1335 227.957 89.0763 227.669 89.0763 227.378V226.069L89.0662 226.059Z" fill="white"/>
<path d="M295.873 230.332C295.182 231.855 294.249 234.24 290.889 234.24C287.529 234.24 207.111 234.788 204.685 234.24C203.935 234.015 203.251 233.61 202.693 233.06C202.136 232.509 201.722 231.831 201.488 231.083C201.488 231.083 201.122 226.008 201.295 223.978C201.284 223.887 201.284 223.795 201.295 223.704C201.359 223.2 201.539 222.718 201.821 222.295C202.103 221.873 202.478 221.521 202.919 221.268C202.723 219.829 202.841 218.364 203.264 216.975C203.954 215.361 212.531 208.185 212.531 208.185C212.531 208.185 210.673 207.708 210.328 206.865C209.983 206.023 246.452 204.023 252.958 205.333C259.464 206.642 275.288 217.939 275.288 217.939C275.288 217.939 291.802 218.142 293.558 219.644C295.314 221.146 296.563 228.81 295.873 230.332Z" fill="#68E1FD"/>
<path d="M219.626 240.117C223.241 240.117 226.172 237.186 226.172 233.57C226.172 229.954 223.241 227.023 219.626 227.023C216.01 227.023 213.079 229.954 213.079 233.57C213.079 237.186 216.01 240.117 219.626 240.117Z" fill="#231F20"/>
<path d="M219.626 236.808C221.414 236.808 222.864 235.358 222.864 233.57C222.864 231.782 221.414 230.332 219.626 230.332C217.838 230.332 216.388 231.782 216.388 233.57C216.388 235.358 217.838 236.808 219.626 236.808Z" fill="white"/>
<path d="M219.626 237.325C218.883 237.327 218.155 237.109 217.537 236.697C216.918 236.286 216.435 235.7 216.149 235.014C215.863 234.328 215.787 233.573 215.931 232.843C216.075 232.114 216.432 231.444 216.956 230.918C217.481 230.392 218.15 230.033 218.879 229.887C219.608 229.742 220.364 229.815 221.05 230.099C221.737 230.383 222.324 230.865 222.737 231.482C223.151 232.1 223.371 232.827 223.371 233.57C223.371 234.564 222.977 235.518 222.275 236.222C221.573 236.926 220.62 237.323 219.626 237.325ZM219.626 230.84C219.083 230.838 218.552 230.997 218.099 231.297C217.647 231.598 217.294 232.025 217.086 232.527C216.877 233.028 216.822 233.58 216.927 234.112C217.033 234.645 217.294 235.134 217.678 235.518C218.062 235.902 218.551 236.163 219.083 236.268C219.616 236.374 220.168 236.319 220.669 236.11C221.17 235.901 221.598 235.548 221.898 235.096C222.199 234.644 222.358 234.113 222.356 233.57C222.353 232.847 222.065 232.154 221.553 231.642C221.042 231.131 220.349 230.842 219.626 230.84Z" fill="#231F20"/>
<path d="M276.75 240.117C280.366 240.117 283.297 237.186 283.297 233.57C283.297 229.954 280.366 227.023 276.75 227.023C273.134 227.023 270.203 229.954 270.203 233.57C270.203 237.186 273.134 240.117 276.75 240.117Z" fill="#231F20"/>
<path d="M276.75 236.808C278.538 236.808 279.988 235.358 279.988 233.57C279.988 231.782 278.538 230.332 276.75 230.332C274.962 230.332 273.512 231.782 273.512 233.57C273.512 235.358 274.962 236.808 276.75 236.808Z" fill="white"/>
<path d="M276.75 237.325C276.007 237.325 275.281 237.105 274.663 236.692C274.046 236.28 273.564 235.693 273.28 235.007C272.996 234.321 272.922 233.566 273.067 232.837C273.211 232.109 273.569 231.44 274.094 230.914C274.62 230.389 275.289 230.031 276.017 229.887C276.746 229.742 277.501 229.816 278.187 230.1C278.873 230.385 279.46 230.866 279.872 231.483C280.285 232.101 280.505 232.827 280.505 233.57C280.505 234.566 280.11 235.521 279.405 236.225C278.701 236.93 277.746 237.325 276.75 237.325ZM276.75 230.84C276.207 230.84 275.677 231.001 275.226 231.302C274.775 231.604 274.424 232.032 274.217 232.534C274.01 233.035 273.956 233.587 274.063 234.118C274.169 234.65 274.431 235.139 274.816 235.521C275.2 235.904 275.689 236.165 276.221 236.269C276.754 236.374 277.305 236.318 277.806 236.109C278.306 235.9 278.734 235.547 279.033 235.095C279.333 234.643 279.492 234.112 279.49 233.57C279.488 232.845 279.198 232.15 278.684 231.639C278.17 231.127 277.475 230.84 276.75 230.84Z" fill="#231F20"/>
<path d="M213.079 209.179C212.795 209.362 205.72 215.96 205.72 215.96C207.032 215.858 208.319 215.539 209.526 215.016C211.496 214.143 214.876 210.286 214.876 210.286L213.079 209.179Z" fill="#231F20"/>
<path d="M205.72 216.467C205.62 216.466 205.522 216.435 205.439 216.377C205.356 216.32 205.292 216.24 205.255 216.146C205.218 216.053 205.21 215.95 205.231 215.852C205.253 215.754 205.303 215.664 205.375 215.594C208.034 213.107 212.531 208.926 212.825 208.753C212.902 208.703 212.992 208.677 213.084 208.677C213.176 208.677 213.266 208.703 213.343 208.753L215.139 209.849C215.203 209.887 215.258 209.939 215.3 210.001C215.342 210.063 215.37 210.133 215.381 210.206C215.393 210.28 215.388 210.355 215.367 210.427C215.347 210.499 215.31 210.565 215.261 210.621C215.119 210.783 211.78 214.569 209.729 215.472C208.471 216.037 207.125 216.381 205.751 216.487L205.72 216.467ZM213.13 209.809C212.287 210.55 209.567 213.067 207.263 215.219C207.959 215.058 208.638 214.833 209.293 214.549C210.744 213.899 213.12 211.423 214.063 210.397L213.13 209.809Z" fill="#231F20"/>
<path d="M224.843 208.256C224.843 208.256 220.438 208.773 218.59 209.91C218.032 212.569 219.687 218.842 225.076 218.913L224.843 208.256Z" fill="#231F20"/>
<path d="M225.076 219.421C224.096 219.423 223.129 219.2 222.249 218.768C221.369 218.337 220.6 217.71 220.001 216.934C219.225 215.937 218.656 214.795 218.327 213.575C217.997 212.355 217.914 211.081 218.083 209.829C218.096 209.76 218.123 209.694 218.164 209.636C218.204 209.579 218.256 209.53 218.316 209.494C220.235 208.317 224.589 207.789 224.772 207.769C224.842 207.761 224.914 207.767 224.982 207.788C225.05 207.809 225.113 207.844 225.167 207.89C225.222 207.936 225.266 207.994 225.296 208.059C225.325 208.124 225.341 208.194 225.34 208.266L225.573 218.923C225.575 218.993 225.562 219.062 225.536 219.127C225.509 219.191 225.471 219.25 225.421 219.299C225.325 219.381 225.202 219.424 225.076 219.421ZM219.047 210.225C218.845 212.404 219.472 214.578 220.803 216.315C221.253 216.9 221.819 217.387 222.465 217.745C223.111 218.102 223.823 218.324 224.558 218.396L224.345 208.844C222.524 209.059 220.741 209.523 219.047 210.225Z" fill="#231F20"/>
<path d="M208.796 221.238C208.273 222.15 207.538 222.922 206.654 223.491C205.852 223.927 203.711 223.978 202.219 223.948C202.219 223.846 202.219 223.755 202.219 223.674C202.283 223.17 202.463 222.688 202.744 222.265C203.026 221.842 203.402 221.491 203.842 221.238H208.796Z" fill="white"/>
<path d="M291.995 230.586H203.345C203.278 230.586 203.213 230.559 203.166 230.511C203.118 230.464 203.091 230.399 203.091 230.332C203.091 230.265 203.118 230.2 203.166 230.153C203.213 230.105 203.278 230.078 203.345 230.078H291.995C292.062 230.078 292.127 230.105 292.175 230.153C292.222 230.2 292.249 230.265 292.249 230.332C292.249 230.399 292.222 230.464 292.175 230.511C292.127 230.559 292.062 230.586 291.995 230.586Z" fill="#231F20"/>
<path d="M227.543 219.116V208.256C227.543 208.256 238.708 208.043 241.458 208.317L241.103 219.208L227.543 219.116Z" fill="#231F20"/>
<path d="M241.062 219.715L227.543 219.624C227.408 219.624 227.279 219.57 227.184 219.475C227.089 219.38 227.035 219.251 227.035 219.116V208.256C227.038 208.124 227.091 207.998 227.183 207.903C227.275 207.809 227.4 207.753 227.532 207.748C227.989 207.748 238.698 207.535 241.509 207.809C241.637 207.824 241.755 207.887 241.84 207.985C241.924 208.082 241.969 208.208 241.966 208.337L241.611 219.228C241.608 219.296 241.592 219.364 241.562 219.426C241.533 219.488 241.492 219.543 241.441 219.589C241.389 219.634 241.329 219.669 241.264 219.691C241.199 219.712 241.131 219.721 241.062 219.715ZM228.01 218.619L240.575 218.7L240.89 208.784C237.977 208.601 230.07 208.723 228.01 208.784V218.619Z" fill="#231F20"/>
<path d="M244.199 219.208V208.256C244.199 208.256 253.506 207.982 255.668 208.682C257.83 209.382 270.436 219.238 270.213 219.208C269.99 219.177 244.199 219.208 244.199 219.208Z" fill="#231F20"/>
<path d="M270.173 219.715C269.706 219.715 252.989 219.715 244.229 219.715C244.092 219.715 243.961 219.66 243.864 219.563C243.772 219.468 243.721 219.34 243.722 219.208V208.256C243.722 208.125 243.772 207.999 243.863 207.904C243.954 207.809 244.078 207.754 244.209 207.748C244.595 207.748 253.638 207.474 255.851 208.195C257.059 208.581 260.997 211.433 264.093 213.747C270.853 218.822 270.812 218.974 270.741 219.319C270.712 219.444 270.638 219.553 270.533 219.626C270.428 219.699 270.299 219.731 270.173 219.715ZM244.706 208.723V218.67C254.156 218.67 264.935 218.67 268.802 218.67C265.757 216.274 257.16 209.677 255.516 209.139C253.872 208.601 247.579 208.723 244.706 208.723Z" fill="#231F20"/>
<path d="M294.198 225.064H287.996C288.33 225.867 288.895 226.553 289.62 227.033C290.838 227.835 294.695 227.318 294.695 227.318L294.198 225.064Z" fill="white"/>
</g>
<defs>
<clipPath id="clip0_2142_3927">
<rect width="313.523" height="244.897" fill="white"/>
</clipPath>
</defs>
</svg>
