<svg width="88" height="88" viewBox="0 0 88 88" fill="none" xmlns="http://www.w3.org/2000/svg">
<path d="M41.03 66H47.63V39.6H41.03V66ZM44 31.46C45.0267 31.46 45.8883 31.13 46.585 30.47C47.2817 29.81 47.63 28.9667 47.63 27.94C47.63 26.9133 47.2817 26.0333 46.585 25.3C45.8883 24.5667 45.0267 24.2 44 24.2C42.9733 24.2 42.1117 24.5667 41.415 25.3C40.7183 26.0333 40.37 26.9133 40.37 27.94C40.37 28.9667 40.7183 29.81 41.415 30.47C42.1117 31.13 42.9733 31.46 44 31.46ZM44 88C37.9867 88 32.3033 86.845 26.95 84.535C21.5967 82.225 16.9217 79.0717 12.925 75.075C8.92833 71.0783 5.775 66.4033 3.465 61.05C1.155 55.6967 0 49.9767 0 43.89C0 37.8767 1.155 32.1933 3.465 26.84C5.775 21.4867 8.92833 16.83 12.925 12.87C16.9217 8.91 21.5967 5.775 26.95 3.465C32.3033 1.155 38.0233 0 44.11 0C50.1233 0 55.8067 1.155 61.16 3.465C66.5133 5.775 71.17 8.91 75.13 12.87C79.09 16.83 82.225 21.4867 84.535 26.84C86.845 32.1933 88 37.9133 88 44C88 50.0133 86.845 55.6967 84.535 61.05C82.225 66.4033 79.09 71.0783 75.13 75.075C71.17 79.0717 66.5133 82.225 61.16 84.535C55.8067 86.845 50.0867 88 44 88ZM44.11 81.4C54.45 81.4 63.25 77.7517 70.51 70.455C77.77 63.1583 81.4 54.3033 81.4 43.89C81.4 33.55 77.77 24.75 70.51 17.49C63.25 10.23 54.4133 6.6 44 6.6C33.66 6.6 24.8417 10.23 17.545 17.49C10.2483 24.75 6.6 33.5867 6.6 44C6.6 54.34 10.2483 63.1583 17.545 70.455C24.8417 77.7517 33.6967 81.4 44.11 81.4Z" fill="#F8CE86"/>
</svg>
