<svg width="42" height="34" viewBox="0 0 42 34" fill="none" xmlns="http://www.w3.org/2000/svg">
<path d="M12 34L9.85 31.85L14.15 27.55C10.55 27.7833 7.29167 26.6083 4.375 24.025C1.45833 21.4417 0 18.1 0 14C0 10.1 1.35833 6.79167 4.075 4.075C6.79167 1.35833 10.1 0 14 0H20V3H14C10.9667 3 8.375 4.075 6.225 6.225C4.075 8.375 3 10.9667 3 14C3 17.1333 4.09167 19.7 6.275 21.7C8.45833 23.7 11.1333 24.6667 14.3 24.6L9.85 20.15L12 18L20 26L12 34ZM24 32V18H42V32H24ZM24 14V0H42V14H24ZM27 11H39V3H27V11Z" fill="#007580"/>
</svg>
