<svg width="207" height="247" viewBox="0 0 207 247" fill="none" xmlns="http://www.w3.org/2000/svg">
<g clip-path="url(#clip0_2224_3489)">
<path d="M85.7554 104.286C85.7554 104.286 51.8544 91.0299 40.3646 100.145C28.8748 109.259 -5.59462 207.796 0.779579 224.299C7.15378 240.803 54.6761 232.49 54.6761 232.49C54.6761 232.49 188.128 240.428 201.689 235.332C221.857 227.74 177.075 108.833 170.396 102.52C163.718 96.2064 132.841 107.097 132.841 107.097" fill="#007580"/>
<path d="M57.8023 205.258C57.7004 205.257 57.6012 205.225 57.5181 205.167C41.6232 194.316 21.2217 197.097 20.9781 197.128C20.8449 197.145 20.7102 197.109 20.6037 197.027C20.4971 196.945 20.4274 196.825 20.4097 196.691C20.3922 196.56 20.4271 196.426 20.5068 196.32C20.5865 196.214 20.7047 196.143 20.836 196.123C21.0491 196.123 41.8262 193.251 58.0459 204.324C58.1016 204.362 58.1492 204.41 58.186 204.466C58.2229 204.523 58.2482 204.586 58.2604 204.652C58.2727 204.718 58.2717 204.786 58.2576 204.852C58.2434 204.917 58.2163 204.98 58.1778 205.035C58.1364 205.098 58.081 205.151 58.0159 205.19C57.9508 205.228 57.8778 205.252 57.8023 205.258V205.258Z" fill="#231F20"/>
<path d="M156.186 205.258C156.075 205.262 155.966 205.23 155.875 205.166C155.784 205.102 155.716 205.01 155.683 204.904C155.649 204.797 155.652 204.683 155.689 204.579C155.727 204.474 155.798 204.385 155.892 204.324C172.132 193.251 192.899 196.093 193.112 196.123C193.243 196.143 193.361 196.214 193.441 196.32C193.521 196.427 193.556 196.56 193.538 196.691C193.518 196.825 193.446 196.946 193.338 197.028C193.23 197.109 193.094 197.145 192.96 197.128C192.757 197.128 172.355 194.316 156.47 205.167C156.387 205.224 156.288 205.256 156.186 205.258V205.258Z" fill="#231F20"/>
<path d="M47.5 190.601C47.4333 190.597 47.368 190.58 47.3079 190.551C47.2478 190.522 47.1941 190.481 47.1498 190.431C47.1054 190.381 47.0714 190.323 47.0497 190.26C47.0279 190.197 47.0188 190.13 47.0229 190.063L50.5856 129.651C50.5895 129.584 50.6065 129.519 50.6356 129.459C50.6648 129.398 50.7055 129.345 50.7555 129.3C50.8055 129.256 50.8637 129.222 50.9269 129.2C50.99 129.179 51.0569 129.169 51.1235 129.174C51.1907 129.176 51.2566 129.192 51.3174 129.221C51.3781 129.25 51.4325 129.29 51.477 129.341C51.5216 129.391 51.5556 129.45 51.5768 129.513C51.598 129.577 51.6061 129.645 51.6006 129.712L48.0379 190.124C48.0275 190.258 47.9656 190.383 47.8653 190.471C47.765 190.56 47.634 190.607 47.5 190.601V190.601Z" fill="#231F20"/>
<path d="M156.186 190.601C156.052 190.601 155.923 190.548 155.827 190.453C155.732 190.358 155.679 190.229 155.679 190.094V132.239C155.679 132.104 155.732 131.975 155.827 131.88C155.923 131.785 156.052 131.731 156.186 131.731C156.321 131.731 156.45 131.785 156.545 131.88C156.64 131.975 156.694 132.104 156.694 132.239V190.094C156.694 190.229 156.64 190.358 156.545 190.453C156.45 190.548 156.321 190.601 156.186 190.601Z" fill="#231F20"/>
<path d="M74.022 100.459C74.022 100.459 85.6539 161.268 107.517 190.094C107.517 190.094 137.135 137.03 142.9 103.971C142.9 103.971 120.428 108.285 112.115 108.366C103.802 108.447 74.022 100.459 74.022 100.459Z" fill="#231F20"/>
<path d="M107.466 190.601C107.387 190.603 107.309 190.585 107.238 190.55C107.167 190.515 107.106 190.463 107.06 190.398C85.4001 161.806 73.6159 101.17 73.4941 100.561C73.4788 100.476 73.4848 100.39 73.5113 100.308C73.5379 100.227 73.5843 100.153 73.6464 100.094C73.7085 100.034 73.7851 99.9912 73.8688 99.9698C73.9524 99.9485 74.0402 99.9492 74.1234 99.9721C74.4178 100.053 103.558 107.859 111.922 107.859H112.054C120.235 107.777 142.504 103.525 142.758 103.474C142.838 103.459 142.921 103.464 142.999 103.489C143.077 103.514 143.147 103.557 143.204 103.616C143.264 103.672 143.308 103.743 143.333 103.821C143.357 103.899 143.362 103.982 143.346 104.063C137.632 136.827 108.197 189.81 107.903 190.338C107.863 190.412 107.805 190.476 107.734 190.522C107.663 190.568 107.581 190.596 107.497 190.601H107.466ZM74.6817 101.16C76.1331 108.356 87.5519 162.313 107.426 189.16C110.866 182.887 136.637 135.213 142.25 104.611C138.271 105.362 119.626 108.792 112.095 108.874H111.963C104.167 108.833 79.5232 102.439 74.6817 101.16Z" fill="#231F20"/>
<path d="M100.524 122.952L105.223 131.102L93.3882 166.14L107.497 190.094L120.367 165.024L111.049 131.254L115.952 122.952L108.177 115.238L100.524 122.952Z" fill="#D1D3D4"/>
<path d="M107.466 190.601C107.376 190.603 107.287 190.58 107.209 190.535C107.13 190.491 107.065 190.426 107.02 190.348L92.9215 166.394C92.8893 166.329 92.8726 166.258 92.8726 166.186C92.8726 166.113 92.8893 166.042 92.9215 165.978L104.675 131.163L100.087 123.216C100.032 123.119 100.011 123.007 100.025 122.897C100.04 122.787 100.09 122.685 100.169 122.607L107.812 114.893C107.853 114.837 107.909 114.793 107.973 114.766C108.038 114.739 108.108 114.73 108.177 114.74C108.243 114.74 108.309 114.753 108.371 114.779C108.432 114.805 108.487 114.844 108.532 114.893L116.307 122.607C116.389 122.685 116.442 122.789 116.457 122.902C116.472 123.014 116.447 123.129 116.388 123.226L111.597 131.346L120.864 164.912C120.905 165.03 120.905 165.159 120.864 165.277L107.984 190.348C107.942 190.427 107.879 190.495 107.802 190.543C107.726 190.591 107.638 190.618 107.548 190.622L107.466 190.601ZM93.9466 166.079L107.466 189.018L119.829 164.952L110.562 131.366C110.535 131.304 110.521 131.236 110.521 131.168C110.521 131.1 110.535 131.033 110.562 130.97L115.262 123.013L108.157 115.908L101.143 123.013L105.65 130.828C105.677 130.894 105.691 130.965 105.691 131.036C105.691 131.108 105.677 131.178 105.65 131.244L93.9466 166.079Z" fill="#231F20"/>
<path d="M84.0501 98.2466L128.629 98.3887L127.847 115.41H96.3621L81.0762 108.092L84.0501 98.2466Z" fill="#231F20"/>
<path d="M127.848 115.938H96.3827C96.3123 115.952 96.2399 115.952 96.1695 115.938L80.8735 108.62C80.7651 108.565 80.6793 108.475 80.6311 108.363C80.5828 108.252 80.5752 108.127 80.6096 108.011L83.5835 98.1755C83.6127 98.0692 83.6765 97.9757 83.7646 97.9095C83.8528 97.8434 83.9605 97.8084 84.0707 97.8101V97.8101L128.66 97.9522C128.798 97.9563 128.929 98.0147 129.025 98.1146C129.07 98.1636 129.106 98.2211 129.128 98.2839C129.151 98.3467 129.161 98.4134 129.157 98.48L128.375 115.502C128.358 115.627 128.294 115.741 128.196 115.822C128.099 115.903 127.974 115.944 127.848 115.938ZM96.4841 114.923H127.36L128.101 98.9165L84.4564 98.7744L81.6855 107.818L96.4841 114.923Z" fill="#231F20"/>
<path d="M140.231 55.0379C142.616 49.7701 143.276 42.6955 144.179 37.0521C144.585 34.5045 145.894 31.155 145.539 28.587C145.285 26.7905 144.057 25.339 143.945 23.309C143.854 21.5023 143.864 19.5738 142.859 18.0716C141.855 16.5694 139.368 15.93 138.282 17.3713C139.722 12.8611 140.575 8.184 140.819 3.45563C136.98 5.21595 132.739 5.91686 128.538 5.48563C130.24 4.1131 131.678 2.44142 132.78 0.552734C129.106 3.35413 123.96 2.42033 119.372 1.83163C108.908 0.491835 97.8543 1.83164 88.7193 7.14009C85.7859 8.84529 82.8323 11.3422 82.4973 14.7323C81.3356 14.5061 80.1347 14.5916 79.0169 14.9803C77.899 15.369 76.904 16.0469 76.1333 16.945C74.6086 18.7659 73.5837 20.952 73.1593 23.2887C70.1143 36.707 75.1893 48.2374 76.4885 61.473C86.3949 62.082 96.3927 62.9245 106.39 62.7722C114.338 62.6098 135.988 64.3556 140.231 55.0379Z" fill="white"/>
<path d="M114.571 63.3001C113.049 63.3001 111.608 63.3001 110.278 63.3001C108.796 63.3001 107.487 63.3001 106.431 63.3001C98.3111 63.4321 90.0997 62.884 82.1624 62.3663L76.4886 62.0009C76.3676 61.9943 76.2531 61.9445 76.1656 61.8608C76.0781 61.777 76.0234 61.6647 76.0115 61.5442C75.5852 57.271 74.7529 53.1298 73.9815 49.1206C72.2459 40.5032 70.6117 32.3629 72.7229 23.1975C73.139 20.7776 74.1897 18.5115 75.7679 16.6304C76.5405 15.7299 77.5182 15.0284 78.6187 14.585C79.7193 14.1416 80.9103 13.9693 82.0914 14.0828C82.5887 11.3321 84.7405 8.83524 88.4859 6.66314C96.9713 1.73024 107.974 -0.177963 119.464 1.28364L120.479 1.41559C124.803 1.98399 129.279 2.58284 132.517 0.116386C132.606 0.0412078 132.719 0 132.836 0C132.953 0 133.066 0.0412078 133.156 0.116386C133.245 0.194471 133.303 0.301082 133.322 0.417823C133.341 0.534563 133.318 0.654111 133.258 0.755837C132.323 2.34458 131.156 3.78484 129.796 5.02899C133.514 5.23451 137.226 4.53806 140.616 2.99899C140.696 2.96209 140.783 2.94636 140.871 2.95333C140.958 2.96031 141.042 2.98975 141.114 3.03879C141.187 3.08783 141.246 3.1548 141.285 3.2332C141.324 3.3116 141.342 3.39875 141.337 3.48619C141.114 7.78447 140.392 12.0422 139.185 16.1737C139.496 16.0904 139.817 16.0528 140.139 16.062C140.763 16.0878 141.372 16.2568 141.919 16.5561C142.467 16.8553 142.938 17.2767 143.296 17.7875C144.127 19.3162 144.523 21.0433 144.443 22.7813V23.2787C144.543 24.2524 144.815 25.2008 145.245 26.0801C145.611 26.8543 145.874 27.6733 146.026 28.5161C146.134 30.5458 145.873 32.5783 145.255 34.5147C145.021 35.4485 144.798 36.3316 144.666 37.1334C144.504 38.1484 144.341 39.2751 144.179 40.3916C143.468 45.3143 142.656 50.8968 140.677 55.241C137.389 62.4881 124.417 63.3001 114.571 63.3001ZM107.375 62.2141H110.288C119.362 62.3359 136.262 62.5592 139.794 54.7538C141.712 50.5314 142.514 45.0301 143.215 40.1784C143.377 39.0518 143.539 37.9556 143.712 36.9C143.844 36.0575 144.067 35.1542 144.301 34.2001C144.866 32.4063 145.11 30.5267 145.021 28.648C144.882 27.8924 144.643 27.1586 144.311 26.4658C143.83 25.4786 143.531 24.4127 143.428 23.3193V22.8219C143.496 21.266 143.145 19.7202 142.413 18.3458C142.146 17.9698 141.797 17.6593 141.393 17.4377C140.988 17.2162 140.539 17.0894 140.078 17.0669C139.812 17.0438 139.544 17.0862 139.298 17.1906C139.052 17.2951 138.836 17.4582 138.667 17.6657C138.596 17.7629 138.493 17.8315 138.376 17.8594C138.259 17.8873 138.135 17.8726 138.028 17.818C137.923 17.7604 137.84 17.6687 137.794 17.558C137.748 17.4473 137.741 17.3242 137.774 17.209C139.12 13.0048 139.949 8.65217 140.241 4.24744C136.52 5.80261 132.468 6.39938 128.457 5.98308C128.356 5.9736 128.262 5.93339 128.185 5.86797C128.109 5.80255 128.055 5.71513 128.03 5.61769C128 5.5221 127.999 5.41958 128.028 5.32358C128.057 5.22758 128.115 5.14258 128.193 5.07974C129.295 4.18945 130.284 3.16675 131.136 2.03474C127.837 3.42529 123.859 2.89749 120.286 2.42044L119.271 2.29864C108.004 0.857338 97.2352 2.71479 88.9426 7.53604C85.2379 9.68784 83.2282 12.1137 82.9643 14.7425C82.9578 14.8154 82.9353 14.8859 82.8985 14.949C82.8616 15.0122 82.8113 15.0664 82.7511 15.1079C82.6909 15.149 82.6226 15.1765 82.5508 15.1888C82.479 15.201 82.4054 15.1977 82.335 15.179C81.2634 14.9701 80.1557 15.0479 79.1238 15.4043C78.0918 15.7607 77.1723 16.3833 76.4581 17.209C74.9918 18.955 74.0085 21.0547 73.606 23.299C71.576 32.2614 73.1594 40.2901 74.8747 48.7958C75.6563 52.6934 76.4581 56.7229 76.9047 60.8946L82.1523 61.2295C90.0794 61.7472 98.2705 62.2445 106.34 62.1633L107.375 62.2141Z" fill="#231F20"/>
<path d="M85.7554 110.528C85.7554 110.528 94.0073 114.75 108.177 115.238C122.346 115.725 124.721 111.878 124.721 111.878L124.376 104.296L123.605 86.6755L122.833 70.263L90.4954 69.1465L88.9526 82.443L88.4756 86.7872L85.7554 110.528Z" fill="white"/>
<path d="M110.582 115.786C109.811 115.786 109.009 115.786 108.156 115.786C94.0378 115.298 85.6133 111.066 85.5321 111.025C85.4384 110.981 85.3612 110.908 85.3119 110.816C85.2626 110.725 85.2438 110.621 85.2581 110.518L89.988 69.0754C89.9931 69.0113 90.0108 68.9489 90.0402 68.8917C90.0695 68.8346 90.1099 68.7837 90.1589 68.7422C90.208 68.7007 90.2648 68.6693 90.326 68.6499C90.3873 68.6304 90.4518 68.6232 90.5158 68.6288L122.854 69.7453C122.981 69.7503 123.102 69.8032 123.193 69.8935C123.283 69.9838 123.336 70.1049 123.341 70.2325L125.208 111.847C125.213 111.952 125.185 112.055 125.127 112.142C125.036 112.314 122.691 115.786 110.582 115.786ZM86.3035 110.234C87.9377 110.975 95.8344 114.294 108.197 114.73C120.377 115.146 123.635 112.314 124.183 111.685L122.356 70.6791L90.9421 69.5829L86.3035 110.234Z" fill="#231F20"/>
<path d="M88.4756 86.8278C90.7796 90.8878 94.7178 94.0648 98.7778 96.5109C105.599 100.571 115.87 105.301 124.356 104.306L123.584 86.6857C117.367 87.2451 111.105 87.0679 104.929 86.1579C99.4883 85.4982 93.8855 84.7572 88.9526 82.4836L88.4756 86.8278Z" fill="#231F20"/>
<path d="M121.94 104.946C113.231 104.946 103.67 100.053 98.5139 96.9473C93.6317 94.0038 90.0995 90.6848 88.0289 87.0815C87.9786 86.9884 87.9573 86.8823 87.968 86.777L88.4451 82.4328C88.4546 82.3533 88.4825 82.277 88.5266 82.2101C88.5706 82.1432 88.6296 82.0874 88.6988 82.0471C88.771 82.0097 88.851 81.9902 88.9323 81.9902C89.0135 81.9902 89.0936 82.0097 89.1657 82.0471C94.1697 84.3512 99.9146 85.0921 104.99 85.6808C111.125 86.5854 117.347 86.7591 123.523 86.1985C123.592 86.1915 123.662 86.1984 123.728 86.2187C123.794 86.2391 123.855 86.2725 123.908 86.317C123.961 86.3614 124.005 86.4161 124.036 86.4777C124.068 86.5392 124.087 86.6065 124.092 86.6755L124.863 104.306C124.869 104.433 124.826 104.558 124.743 104.654C124.66 104.75 124.543 104.811 124.417 104.824C123.594 104.916 122.767 104.956 121.94 104.946ZM88.9932 86.6755C91.0232 90.0758 94.3625 93.2223 99.0417 96.0338C104.502 99.3123 114.916 104.621 123.828 103.809L123.097 87.2033C117.005 87.7025 110.876 87.5084 104.827 86.6248C99.9044 86.0158 94.3422 85.3357 89.3484 83.1941L88.9932 86.6755Z" fill="#231F20"/>
<path d="M132.313 33.2256C133.917 33.388 133.491 37.8844 133.501 40.2494V52.2467C133.501 56.9461 133.663 61.676 133.501 66.3653C133.442 68.0451 133.214 69.7147 132.821 71.349C131.474 76.8954 128.257 81.8078 123.71 85.258C119.163 88.7082 113.566 90.485 107.862 90.2889L104.969 90.1772C98.4023 89.9418 92.1973 87.1093 87.7174 82.3019C83.2374 77.4946 80.8487 71.1056 81.0762 64.5383C81.1676 61.808 81.0762 59.0472 81.0762 56.3067C81.0762 52.8252 79.2391 44.3297 83.3498 42.7564C84.71 42.381 86.1109 42.1731 87.5215 42.1373C89.5292 41.9036 91.4688 41.266 93.2236 40.263C94.9784 39.26 96.5121 37.9123 97.7324 36.301L97.0726 40.1276C104.132 40.7628 111.243 39.7876 117.87 37.2754C121.118 36.0371 124.478 34.2304 125.807 30.9824L125.685 38.0874C127.37 37.8438 128.538 36.3518 129.674 35.0424C130.811 33.7331 131.735 33.1647 132.313 33.2256Z" fill="white"/>
<path d="M108.755 90.8065H107.882L104.989 90.6949C101.668 90.5835 98.4013 89.8183 95.3761 88.4428C92.3509 87.0674 89.6266 85.1089 87.3592 82.6794C85.0918 80.2498 83.3259 77.397 82.1624 74.2841C80.9989 71.1712 80.4607 67.8594 80.5787 64.5383C80.6396 62.7215 80.5787 60.864 80.5787 59.0675C80.5787 58.1438 80.5787 57.2303 80.5787 56.3168C80.5787 55.6165 80.4975 54.703 80.4061 53.6474C80.0509 49.4351 79.5637 43.6801 83.1872 42.2997C84.2169 41.9598 85.2905 41.7718 86.3743 41.7414L87.4705 41.6399C89.4059 41.4065 91.2747 40.7867 92.9659 39.8173C94.6572 38.8479 96.1365 37.5486 97.316 35.9965C97.3848 35.9077 97.481 35.8441 97.5897 35.8158C97.6985 35.7876 97.8135 35.7962 97.9168 35.8403C98.0201 35.8844 98.1058 35.9615 98.1606 36.0596C98.2154 36.1577 98.236 36.2711 98.2194 36.3822L97.6611 39.6708C104.472 40.1896 111.314 39.1984 117.697 36.7679C121.869 35.1845 124.305 33.2763 125.35 30.7591C125.392 30.6478 125.472 30.5555 125.577 30.4994C125.682 30.4433 125.803 30.4274 125.919 30.4546C126.035 30.4784 126.139 30.5421 126.214 30.6349C126.288 30.7276 126.327 30.8434 126.325 30.9621L126.213 37.3668C127.319 36.8172 128.276 36.0096 129.004 35.012L129.299 34.677C130.578 33.2357 131.532 32.647 132.344 32.647C134.15 32.8399 134.079 36.0574 134.008 38.8994C134.008 39.3663 134.008 39.8028 134.008 40.1783V52.1756C134.008 53.7387 134.008 55.3018 134.008 56.8751C134.008 59.9708 134.089 63.1681 134.008 66.3146C133.792 72.8739 131.031 79.0913 126.309 83.6498C121.588 88.2082 115.277 90.7496 108.714 90.7355L108.755 90.8065ZM96.9303 38.0265C94.4337 40.5891 91.1345 42.2191 87.5822 42.6448L86.4555 42.7463C85.4658 42.7637 84.4841 42.9279 83.5425 43.2335C80.6396 44.3398 81.0963 49.6686 81.4211 53.5459C81.5125 54.6319 81.5937 55.5759 81.5937 56.3067C81.5937 57.2202 81.5937 58.1235 81.5937 59.0472C81.5937 60.8539 81.5937 62.7215 81.5937 64.5586C81.4811 67.7461 81.998 70.9245 83.1147 73.9121C84.2313 76.8997 85.926 79.6379 88.1017 81.97C90.2774 84.3022 92.8914 86.1827 95.7944 87.5038C98.6974 88.825 101.832 89.561 105.02 89.6697L107.923 89.7814C111.111 89.898 114.291 89.384 117.281 88.2688C120.27 87.1536 123.01 85.4591 125.343 83.2827C127.676 81.1062 129.556 78.4905 130.876 75.5857C132.196 72.6809 132.929 69.5441 133.034 66.3552C133.135 63.229 133.095 60.0419 133.034 56.9563C133.034 55.383 133.034 53.8199 133.034 52.2467V40.2494C133.034 39.8637 133.034 39.4171 133.034 38.9502C133.034 37.2856 133.156 33.8244 132.283 33.7331C132.08 33.7331 131.461 33.8244 130.08 35.3774L129.796 35.7529C128.73 36.9709 127.533 38.3513 125.807 38.5949C125.734 38.608 125.659 38.6048 125.587 38.5855C125.515 38.5662 125.448 38.5313 125.391 38.4833C125.336 38.4332 125.292 38.372 125.262 38.3038C125.233 38.2356 125.218 38.1619 125.218 38.0874L125.31 33.0124C123.889 34.9409 121.544 36.4939 118.093 37.8032C111.393 40.3346 104.207 41.32 97.0724 40.6858C97.0027 40.6798 96.935 40.6594 96.8736 40.6259C96.8121 40.5924 96.7583 40.5466 96.7154 40.4913C96.6725 40.436 96.6415 40.3725 96.6243 40.3047C96.6072 40.2368 96.6042 40.1662 96.6157 40.0971L96.9303 38.0265Z" fill="#231F20"/>
<path d="M107.588 49.1206C107.588 49.1206 115.708 67.0963 112.125 67.3906C108.542 67.685 103.406 65.0561 103.406 65.0561" fill="white"/>
<path d="M111.526 67.959C107.903 67.959 103.406 65.6144 103.203 65.5129C103.143 65.4819 103.091 65.4394 103.048 65.3878C103.004 65.3362 102.972 65.2765 102.952 65.2123C102.932 65.1481 102.926 65.0806 102.932 65.0137C102.939 64.9468 102.958 64.8819 102.99 64.8227C103.053 64.7049 103.159 64.6165 103.286 64.5767C103.414 64.5368 103.551 64.5486 103.67 64.6095C103.721 64.6095 108.745 67.2181 112.105 66.9136C112.164 66.9121 112.222 66.8943 112.272 66.8621C112.323 66.8299 112.363 66.7845 112.389 66.7309C113.475 64.8633 109.75 55.0685 107.151 49.3338C107.106 49.2129 107.108 49.0792 107.157 48.9599C107.207 48.8406 107.3 48.7446 107.418 48.6915C107.535 48.6385 107.669 48.6323 107.791 48.6743C107.913 48.7163 108.015 48.8033 108.075 48.9176C108.786 50.4807 114.967 64.3152 113.262 67.1876C113.157 67.383 113.004 67.5487 112.817 67.6693C112.631 67.79 112.417 67.8617 112.196 67.8778C111.952 67.9489 111.719 67.959 111.526 67.959Z" fill="#231F20"/>
<path d="M98.1486 57.7786C99.0903 57.7786 99.8538 56.3108 99.8538 54.5001C99.8538 52.6895 99.0903 51.2217 98.1486 51.2217C97.2068 51.2217 96.4434 52.6895 96.4434 54.5001C96.4434 56.3108 97.2068 57.7786 98.1486 57.7786Z" fill="#231F20"/>
<path d="M119.636 57.7786C120.578 57.7786 121.341 56.3108 121.341 54.5001C121.341 52.6895 120.578 51.2217 119.636 51.2217C118.694 51.2217 117.931 52.6895 117.931 54.5001C117.931 56.3108 118.694 57.7786 119.636 57.7786Z" fill="#231F20"/>
<path d="M128.629 98.3887C128.02 98.3887 107.984 115.238 107.984 115.238L120.367 129.681L133.562 104.438L128.629 98.3887Z" fill="white"/>
<path d="M120.367 130.148C120.294 130.146 120.221 130.128 120.155 130.097C120.089 130.065 120.03 130.02 119.981 129.965L107.598 115.532C107.511 115.427 107.467 115.293 107.476 115.156C107.483 115.09 107.502 115.025 107.533 114.966C107.565 114.906 107.607 114.854 107.659 114.811C127.827 97.8406 128.396 97.8406 128.629 97.8406C128.704 97.8411 128.778 97.8576 128.847 97.8891C128.915 97.9207 128.976 97.9664 129.025 98.0233L133.998 104.113C134.061 104.191 134.099 104.285 134.108 104.385C134.117 104.484 134.096 104.584 134.049 104.672L120.854 129.915C120.814 129.987 120.757 130.049 120.688 130.095C120.619 130.141 120.541 130.169 120.458 130.178L120.367 130.148ZM108.705 115.258L120.265 128.737L132.993 104.458L128.517 99.0078C126.497 100.439 115.962 109.198 108.705 115.299V115.258Z" fill="#231F20"/>
<path d="M84.05 98.2466C84.7098 98.2466 108.177 115.238 108.177 115.238L93.8651 129.681L79.5435 102.114L84.05 98.2466Z" fill="white"/>
<path d="M93.8654 130.148H93.7842C93.7052 130.137 93.6301 130.107 93.5648 130.061C93.4996 130.015 93.4461 129.954 93.4086 129.884L79.0971 102.317C79.0445 102.215 79.028 102.098 79.0501 101.986C79.0722 101.873 79.1317 101.772 79.2189 101.697L83.7154 97.8303C83.8086 97.7506 83.9276 97.7073 84.0503 97.7085C84.2533 97.7085 84.8725 97.7085 108.471 114.801C108.532 114.842 108.584 114.896 108.62 114.959C108.657 115.022 108.679 115.093 108.684 115.167C108.69 115.239 108.681 115.312 108.656 115.38C108.632 115.448 108.593 115.51 108.542 115.562L94.2714 130.036C94.2153 130.082 94.1502 130.116 94.0802 130.135C94.0103 130.154 93.9371 130.159 93.8654 130.148V130.148ZM80.1831 102.235L93.9872 128.828L107.395 115.298C98.7272 109.026 86.0803 100.013 84.1315 98.8453L80.1831 102.235Z" fill="#231F20"/>
<path d="M107.953 82.9911H107.222C97.5495 82.311 95.5094 71.278 95.4891 71.1663C95.4748 71.0954 95.4765 71.0221 95.494 70.9519C95.5116 70.8816 95.5446 70.8162 95.5906 70.7603C95.6382 70.7042 95.6972 70.6589 95.7637 70.6274C95.8303 70.5959 95.9027 70.5789 95.9763 70.5776L121.767 69.7047C121.852 69.699 121.938 69.7156 122.014 69.753C122.091 69.7904 122.156 69.8473 122.204 69.9179C122.244 69.991 122.265 70.073 122.265 70.1564C122.265 70.2398 122.244 70.3218 122.204 70.3949C122.052 70.9024 117.129 82.9911 107.953 82.9911ZM96.6158 71.5419C97.174 73.7343 99.6608 81.428 107.294 81.9558C114.926 82.4836 119.748 73.3892 120.996 70.7299L96.6158 71.5419Z" fill="#231F20"/>
<path d="M76.2345 36.6157H81.076V69.0957H76.2447C73.7896 69.0957 71.4351 68.1205 69.6991 66.3845C67.9631 64.6485 66.9878 62.294 66.9878 59.8389V45.903C66.9838 44.6856 67.22 43.4795 67.6828 42.3535C68.1455 41.2276 68.8258 40.204 69.6847 39.3413C70.5436 38.4787 71.5642 37.7939 72.6881 37.3262C73.812 36.8585 75.0172 36.6171 76.2345 36.6157V36.6157Z" fill="white"/>
<path d="M81.0761 69.6034H76.2345C73.6447 69.598 71.1628 68.5661 69.3325 66.7339C67.5022 64.9017 66.4729 62.4187 66.4702 59.8289V45.9031C66.4729 43.3133 67.5022 40.8303 69.3325 38.9981C71.1628 37.1659 73.6447 36.134 76.2345 36.1287H81.0761C81.2098 36.1313 81.3374 36.1856 81.432 36.2802C81.5267 36.3748 81.581 36.5024 81.5836 36.6362V69.1162C81.5759 69.2464 81.5194 69.3689 81.4253 69.4592C81.3312 69.5496 81.2065 69.601 81.0761 69.6034V69.6034ZM76.2345 37.1234C73.9104 37.1287 71.6835 38.0564 70.043 39.7027C68.4025 41.3489 67.4825 43.579 67.4852 45.9031V59.8289C67.4879 62.1495 68.4102 64.3744 70.0502 66.0162C71.6901 67.6581 73.9139 68.583 76.2345 68.5884H80.5686V37.1234H76.2345Z" fill="#231F20"/>
<path d="M138.444 68.2432H133.612V35.7632H138.444C139.66 35.7632 140.863 36.0026 141.986 36.4678C143.109 36.933 144.13 37.6148 144.989 38.4744C145.849 39.334 146.531 40.3545 146.996 41.4775C147.461 42.6006 147.701 43.8043 147.701 45.02V58.9762C147.702 60.1927 147.464 61.3975 146.999 62.5218C146.534 63.646 145.853 64.6677 144.993 65.5283C144.133 66.389 143.112 67.0717 141.989 67.5376C140.865 68.0034 139.66 68.2432 138.444 68.2432V68.2432Z" fill="white"/>
<path d="M138.434 68.7406H133.603C133.468 68.7406 133.339 68.6871 133.244 68.592C133.149 68.4968 133.095 68.3677 133.095 68.2331V35.7531C133.095 35.6185 133.149 35.4894 133.244 35.3942C133.339 35.2991 133.468 35.2456 133.603 35.2456H138.434C141.025 35.2456 143.509 36.274 145.342 38.1049C147.175 39.9358 148.206 42.4193 148.209 45.0099V58.9763C148.203 61.5661 147.171 64.0481 145.339 65.8784C143.507 67.7086 141.024 68.7379 138.434 68.7406V68.7406ZM134.11 67.7256H138.434C140.755 67.7229 142.98 66.8006 144.621 65.1606C146.263 63.5207 147.188 61.2969 147.194 58.9763V45.0201C147.188 42.6995 146.263 40.4757 144.621 38.8357C142.98 37.1958 140.755 36.2734 138.434 36.2708H134.11V67.7256Z" fill="#231F20"/>
<path d="M138.718 44.7357C138.449 44.7357 138.191 44.6288 138 44.4385C137.81 44.2481 137.703 43.9899 137.703 43.7207C137.703 26.7702 127.096 12.9865 114.074 12.9865H100.879C87.8565 12.9865 77.2497 26.7702 77.2497 43.7207C77.2497 43.9899 77.1428 44.2481 76.9524 44.4385C76.7621 44.6288 76.5039 44.7357 76.2347 44.7357C75.9655 44.7357 75.7074 44.6288 75.517 44.4385C75.3267 44.2481 75.2197 43.9899 75.2197 43.7207C75.2197 25.6537 86.7298 10.9565 100.879 10.9565H114.074C128.223 10.9565 139.733 25.6537 139.733 43.7207C139.733 43.9899 139.626 44.2481 139.436 44.4385C139.245 44.6288 138.987 44.7357 138.718 44.7357Z" fill="#231F20"/>
<path d="M86.9634 78.9515C82.0812 78.9515 78.1329 78.6977 77.4528 77.9365C75.6969 75.9065 75.1488 66.6294 75.0879 65.5738C75.0822 65.4398 75.1288 65.3088 75.2177 65.2085C75.3067 65.1081 75.4312 65.0462 75.5649 65.0358C75.6327 65.0303 75.7009 65.0387 75.7653 65.0605C75.8298 65.0824 75.889 65.1172 75.9394 65.1629C75.9899 65.2086 76.0304 65.2641 76.0585 65.326C76.0866 65.388 76.1017 65.455 76.1029 65.523C76.2551 68.294 76.925 75.8151 78.2141 77.2666C79.3103 78.2816 94.1902 78.0177 107.954 77.0941C108.087 77.0909 108.217 77.1383 108.316 77.2268C108.416 77.3153 108.479 77.4383 108.492 77.5711C108.496 77.6378 108.487 77.7046 108.465 77.7678C108.443 77.8309 108.409 77.8891 108.365 77.9391C108.32 77.9891 108.267 78.0298 108.207 78.059C108.146 78.0882 108.081 78.1052 108.014 78.1091C105.061 78.3019 94.8093 78.9515 86.9634 78.9515Z" fill="#231F20"/>
<path d="M106.563 75.7441H95.611C94.3834 75.7441 93.3882 76.7393 93.3882 77.967C93.3882 79.1946 94.3834 80.1898 95.611 80.1898H106.563C107.791 80.1898 108.786 79.1946 108.786 77.967C108.786 76.7393 107.791 75.7441 106.563 75.7441Z" fill="#231F20"/>
<path d="M106.563 80.6973H95.6112C94.8871 80.6973 94.1926 80.4096 93.6805 79.8976C93.1685 79.3855 92.8809 78.6911 92.8809 77.9669C92.8809 77.2428 93.1685 76.5483 93.6805 76.0363C94.1926 75.5242 94.8871 75.2366 95.6112 75.2366H106.563C107.287 75.2366 107.982 75.5242 108.494 76.0363C109.006 76.5483 109.293 77.2428 109.293 77.9669C109.293 78.6911 109.006 79.3855 108.494 79.8976C107.982 80.4096 107.287 80.6973 106.563 80.6973V80.6973ZM95.6112 76.2516C95.1563 76.2516 94.72 76.4323 94.3983 76.754C94.0766 77.0757 93.8959 77.512 93.8959 77.9669C93.8959 78.4219 94.0766 78.8582 94.3983 79.1799C94.72 79.5015 95.1563 79.6823 95.6112 79.6823H106.563C107.018 79.6823 107.454 79.5015 107.776 79.1799C108.098 78.8582 108.278 78.4219 108.278 77.9669C108.278 77.512 108.098 77.0757 107.776 76.754C107.454 76.4323 107.018 76.2516 106.563 76.2516H95.6112Z" fill="#231F20"/>
<path d="M101.376 58.7935H90.3838C88.6385 58.7908 86.9656 58.0956 85.7324 56.8605C84.4993 55.6255 83.8066 53.9515 83.8066 52.2062V46.4511C83.8066 46.3165 83.8601 46.1874 83.9553 46.0922C84.0505 45.9971 84.1795 45.9436 84.3141 45.9436H107.466C107.601 45.9436 107.73 45.9971 107.825 46.0922C107.92 46.1874 107.974 46.3165 107.974 46.4511V52.2062C107.971 53.9542 107.275 55.6296 106.038 56.8647C104.801 58.0998 103.124 58.7935 101.376 58.7935V58.7935ZM84.8216 46.918V52.1656C84.8216 53.6417 85.4073 55.0575 86.4502 56.1022C87.493 57.1469 88.9077 57.7352 90.3838 57.7379H101.376C102.853 57.7352 104.269 57.1473 105.314 56.1028C106.358 55.0584 106.946 53.6426 106.949 52.1656V46.918H84.8216Z" fill="#231F20"/>
<path d="M128.355 58.7935H117.322C115.575 58.7908 113.902 58.0959 112.667 56.8611C111.432 55.6264 110.737 53.9524 110.734 52.2062V46.4511C110.734 46.3165 110.788 46.1874 110.883 46.0922C110.978 45.9971 111.107 45.9436 111.242 45.9436H134.424C134.559 45.9436 134.688 45.9971 134.783 46.0922C134.879 46.1874 134.932 46.3165 134.932 46.4511V52.2062C134.932 53.9515 134.239 55.6255 133.006 56.8605C131.773 58.0956 130.1 58.7908 128.355 58.7935ZM111.749 46.918V52.1656C111.752 53.6426 112.34 55.0584 113.384 56.1028C114.429 57.1473 115.845 57.7352 117.322 57.7379H128.355C129.831 57.7352 131.246 57.1469 132.288 56.1022C133.331 55.0575 133.917 53.6417 133.917 52.1656V46.918H111.749Z" fill="#231F20"/>
<path d="M111.242 49.6282C111.144 49.6311 111.048 49.6027 110.968 49.547C110.645 49.2652 110.267 49.053 109.859 48.9238C109.45 48.7945 109.019 48.751 108.593 48.7959C108.475 48.8344 108.367 48.8979 108.276 48.982C108.185 49.066 108.113 49.1687 108.065 49.2831C108.021 49.409 107.929 49.5127 107.81 49.5715C107.69 49.6304 107.552 49.6398 107.426 49.5977C107.363 49.5781 107.304 49.5462 107.254 49.5039C107.203 49.4615 107.162 49.4096 107.132 49.351C107.101 49.2925 107.083 49.2285 107.078 49.1628C107.072 49.0971 107.08 49.0311 107.101 48.9684C107.194 48.7078 107.345 48.4713 107.542 48.2764C107.738 48.0815 107.976 47.933 108.238 47.8418C109.11 47.5373 110.268 47.8418 111.526 48.7045C111.614 48.766 111.681 48.8539 111.716 48.9555C111.751 49.0572 111.752 49.1673 111.721 49.27C111.689 49.3727 111.626 49.4627 111.54 49.5271C111.454 49.5915 111.349 49.6269 111.242 49.6282Z" fill="#231F20"/>
<path d="M84.3142 49.628H81.0763C80.9418 49.628 80.8127 49.5746 80.7175 49.4794C80.6223 49.3842 80.5688 49.2551 80.5688 49.1205C80.5688 48.9859 80.6223 48.8569 80.7175 48.7617C80.8127 48.6665 80.9418 48.613 81.0763 48.613H84.3142C84.448 48.6156 84.5756 48.6699 84.6702 48.7646C84.7648 48.8592 84.8191 48.9868 84.8217 49.1205C84.8217 49.2551 84.7682 49.3842 84.673 49.4794C84.5779 49.5746 84.4488 49.628 84.3142 49.628Z" fill="#231F20"/>
<path d="M169.148 239.23H38.781L27.0273 154.031H180.911L169.148 239.23Z" fill="#231F20"/>
<path d="M169.148 239.768H38.7809C38.6589 239.769 38.5409 239.725 38.4492 239.644C38.3575 239.564 38.2985 239.453 38.2836 239.332L26.5197 154.102C26.507 153.959 26.5507 153.817 26.6415 153.706C26.69 153.651 26.7492 153.606 26.8155 153.575C26.8818 153.543 26.9539 153.526 27.0272 153.523H180.911C180.983 153.525 181.054 153.542 181.119 153.573C181.184 153.605 181.241 153.65 181.287 153.706C181.336 153.758 181.373 153.821 181.394 153.89C181.415 153.958 181.42 154.031 181.409 154.102L169.655 239.301C169.645 239.429 169.587 239.547 169.493 239.634C169.399 239.721 169.275 239.768 169.148 239.768V239.768ZM39.2275 238.753H168.711L180.323 154.508H27.6058L39.2275 238.753Z" fill="#231F20"/>
<path d="M170.335 239.23H37.3196C35.5707 239.23 34.1528 240.648 34.1528 242.397V242.407C34.1528 244.156 35.5707 245.574 37.3196 245.574H170.335C172.084 245.574 173.502 244.156 173.502 242.407V242.397C173.502 240.648 172.084 239.23 170.335 239.23Z" fill="#231F20"/>
<path d="M170.396 246.081H37.4315C36.932 246.108 36.4325 246.032 35.9633 245.859C35.494 245.686 35.0649 245.419 34.7021 245.075C34.3393 244.731 34.0504 244.316 33.853 243.857C33.6555 243.397 33.5537 242.902 33.5537 242.402C33.5537 241.902 33.6555 241.407 33.853 240.947C34.0504 240.488 34.3393 240.073 34.7021 239.729C35.0649 239.385 35.494 239.118 35.9633 238.945C36.4325 238.772 36.932 238.696 37.4315 238.723H170.396C171.339 238.772 172.226 239.181 172.876 239.866C173.525 240.551 173.888 241.458 173.888 242.402C173.888 243.346 173.525 244.253 172.876 244.938C172.226 245.623 171.339 246.032 170.396 246.081ZM37.33 239.768C36.9663 239.746 36.6018 239.798 36.259 239.922C35.9163 240.045 35.6025 240.238 35.337 240.488C35.0715 240.737 34.8599 241.038 34.7153 241.373C34.5706 241.707 34.496 242.068 34.496 242.432C34.496 242.797 34.5706 243.157 34.7153 243.492C34.8599 243.826 35.0715 244.128 35.337 244.377C35.6025 244.627 35.9163 244.82 36.259 244.943C36.6018 245.067 36.9663 245.119 37.33 245.097H170.396C171.075 245.055 171.711 244.756 172.177 244.261C172.642 243.766 172.901 243.112 172.901 242.432C172.901 241.753 172.642 241.099 172.177 240.604C171.711 240.109 171.075 239.81 170.396 239.768H37.33Z" fill="#231F20"/>
<path d="M164.398 239.768H37.3298C37.1952 239.768 37.0661 239.714 36.9709 239.619C36.8757 239.524 36.8223 239.395 36.8223 239.26C36.8223 239.126 36.8757 238.997 36.9709 238.902C37.0661 238.806 37.1952 238.753 37.3298 238.753H164.398C164.532 238.753 164.661 238.806 164.756 238.902C164.852 238.997 164.905 239.126 164.905 239.26C164.905 239.395 164.852 239.524 164.756 239.619C164.661 239.714 164.532 239.768 164.398 239.768Z" fill="white"/>
<path d="M72.1749 55.0379H68.257C68.1224 55.0379 67.9933 54.9845 67.8982 54.8893C67.803 54.7941 67.7495 54.665 67.7495 54.5304C67.7495 54.3959 67.803 54.2668 67.8982 54.1716C67.9933 54.0764 68.1224 54.0229 68.257 54.0229H72.1749C72.3095 54.0229 72.4386 54.0764 72.5338 54.1716C72.629 54.2668 72.6824 54.3959 72.6824 54.5304C72.6824 54.665 72.629 54.7941 72.5338 54.8893C72.4386 54.9845 72.3095 55.0379 72.1749 55.0379Z" fill="#D1D3D4"/>
<path d="M72.1749 58.7936H68.257C68.1224 58.7936 67.9933 58.7401 67.8982 58.6449C67.803 58.5497 67.7495 58.4207 67.7495 58.2861C67.7495 58.1515 67.803 58.0224 67.8982 57.9272C67.9933 57.832 68.1224 57.7786 68.257 57.7786H72.1749C72.3095 57.7786 72.4386 57.832 72.5338 57.9272C72.629 58.0224 72.6824 58.1515 72.6824 58.2861C72.6824 58.4207 72.629 58.5497 72.5338 58.6449C72.4386 58.7401 72.3095 58.7936 72.1749 58.7936Z" fill="#D1D3D4"/>
<path d="M103.406 195.25C103.169 194.929 102.845 194.683 102.472 194.54C102.117 194.398 101.738 194.323 101.356 194.316C100.917 194.314 100.482 194.4 100.077 194.57C99.7026 194.737 99.3659 194.977 99.0868 195.277C98.8078 195.577 98.5921 195.931 98.4528 196.316C98.2999 196.735 98.2242 197.179 98.2295 197.625C98.2238 198.084 98.2958 198.54 98.4427 198.975C98.582 199.35 98.7922 199.695 99.0618 199.99C99.3325 200.281 99.6609 200.513 100.026 200.67C100.424 200.837 100.853 200.92 101.285 200.914C101.732 200.921 102.174 200.82 102.574 200.619C102.931 200.446 103.241 200.188 103.477 199.868L104.766 200.772C104.376 201.269 103.876 201.669 103.304 201.939C102.667 202.227 101.974 202.369 101.274 202.355C100.608 202.36 99.9473 202.239 99.3257 202C98.753 201.771 98.2344 201.426 97.8032 200.985C97.3668 200.558 97.0215 200.047 96.7882 199.483C96.547 198.869 96.4264 198.214 96.433 197.554C96.4251 196.883 96.5529 196.216 96.8085 195.595C97.0418 195.034 97.3872 194.526 97.8235 194.103C98.2735 193.689 98.8014 193.368 99.3764 193.159C99.9988 192.939 100.655 192.829 101.315 192.834C101.618 192.833 101.921 192.86 102.218 192.916C102.528 192.968 102.831 193.053 103.122 193.169C103.411 193.281 103.686 193.424 103.944 193.596C104.191 193.764 104.41 193.969 104.594 194.205L103.406 195.25Z" fill="white"/>
<path d="M110.369 195.017C110.176 194.78 109.929 194.592 109.648 194.469C109.359 194.323 109.039 194.247 108.715 194.245C108.523 194.244 108.332 194.268 108.146 194.316C107.965 194.356 107.793 194.428 107.639 194.529C107.487 194.629 107.359 194.761 107.263 194.915C107.161 195.087 107.112 195.284 107.121 195.484C107.115 195.664 107.157 195.843 107.243 196.001C107.337 196.148 107.457 196.275 107.598 196.377C107.766 196.487 107.947 196.575 108.136 196.641L108.836 196.874C109.131 196.965 109.425 197.067 109.74 197.189C110.043 197.308 110.329 197.465 110.592 197.656C110.855 197.855 111.073 198.108 111.232 198.397C111.405 198.743 111.488 199.126 111.475 199.513C111.488 199.951 111.397 200.385 111.212 200.782C111.041 201.127 110.799 201.432 110.501 201.675C110.199 201.916 109.855 202.099 109.486 202.213C109.074 202.336 108.647 202.398 108.217 202.396C107.63 202.394 107.049 202.284 106.502 202.071C105.961 201.859 105.485 201.509 105.122 201.056L106.269 199.98C106.5 200.291 106.803 200.542 107.152 200.711C107.493 200.878 107.867 200.968 108.248 200.975C108.44 200.976 108.631 200.952 108.816 200.904C109.005 200.863 109.183 200.784 109.34 200.673C109.497 200.561 109.629 200.419 109.73 200.254C109.838 200.066 109.891 199.852 109.882 199.635C109.887 199.426 109.826 199.22 109.709 199.046C109.594 198.878 109.441 198.74 109.263 198.64C109.058 198.509 108.836 198.406 108.603 198.336L107.801 198.072C107.524 197.977 107.25 197.876 106.979 197.767C106.712 197.648 106.465 197.487 106.248 197.29C106.026 197.088 105.846 196.843 105.72 196.57C105.576 196.233 105.507 195.87 105.517 195.504C105.505 195.09 105.603 194.68 105.802 194.316C105.994 193.994 106.249 193.715 106.553 193.494C106.864 193.281 107.207 193.117 107.568 193.007C107.962 192.906 108.368 192.855 108.776 192.855C109.253 192.858 109.726 192.941 110.176 193.098C110.632 193.249 111.051 193.495 111.404 193.819L110.369 195.017Z" fill="white"/>
<path d="M103.965 209.237C101.673 209.231 99.4354 208.546 97.5332 207.268C95.631 205.991 94.1501 204.179 93.2774 202.06C92.4048 199.942 92.1796 197.612 92.6303 195.366C93.0809 193.119 94.1873 191.056 95.8096 189.438C97.4319 187.82 99.4973 186.72 101.745 186.275C103.993 185.83 106.322 186.061 108.438 186.939C110.554 187.818 112.363 189.303 113.635 191.209C114.907 193.114 115.586 195.354 115.586 197.645C115.585 199.17 115.283 200.679 114.698 202.087C114.114 203.494 113.257 204.773 112.178 205.85C111.098 206.926 109.817 207.779 108.408 208.36C106.999 208.942 105.489 209.239 103.965 209.237V209.237ZM103.965 187.069C101.874 187.075 99.8324 187.701 98.0971 188.866C96.3618 190.032 95.011 191.686 94.2152 193.619C93.4194 195.552 93.2142 197.678 93.6258 199.727C94.0373 201.777 95.047 203.659 96.5273 205.135C98.0076 206.611 99.8922 207.615 101.943 208.021C103.994 208.426 106.119 208.215 108.049 207.414C109.98 206.612 111.63 205.257 112.791 203.518C113.952 201.78 114.571 199.736 114.571 197.645C114.566 194.837 113.446 192.145 111.457 190.162C109.468 188.179 106.773 187.066 103.965 187.069V187.069Z" fill="white"/>
</g>
<defs>
<clipPath id="clip0_2224_3489">
<rect width="206.868" height="246.086" fill="white"/>
</clipPath>
</defs>
</svg>
