<svg width="174" height="176" viewBox="0 0 174 176" fill="none" xmlns="http://www.w3.org/2000/svg">
<g clip-path="url(#clip0_1867_3295)">
<path d="M80.2575 61.3022L78.0825 57.2458" stroke="white" stroke-width="1.57687" stroke-miterlimit="10"/>
<path d="M64.2276 128.455C51.5218 128.455 39.1015 124.687 28.5379 117.626C17.9743 110.566 9.74213 100.531 4.88281 88.7914C0.0235009 77.0515 -1.2446 64.1341 1.23893 51.6734C3.72246 39.2127 9.84602 27.7686 18.8349 18.7888C27.8239 9.809 39.2742 3.69706 51.7374 1.2262C64.2007 -1.24466 77.1168 0.0365696 88.8517 4.90781C100.587 9.77905 110.613 18.0214 117.663 28.5922C124.712 39.1629 128.468 51.5871 128.455 64.2929C128.418 81.3096 121.637 97.6177 109.598 109.644C97.5593 121.671 81.2443 128.435 64.2276 128.455ZM64.2276 7.61251C53.033 7.61252 42.0896 10.9313 32.7807 17.1494C23.4718 23.3674 16.2153 32.2056 11.9283 42.5469C7.64134 52.8882 6.51637 64.2682 8.69559 75.2487C10.8748 86.2292 16.2604 96.3171 24.1716 104.237C32.0829 112.158 42.1646 117.555 53.1426 119.747C64.1205 121.939 75.5019 120.827 85.8481 116.552C96.1943 112.277 105.041 105.03 111.27 95.7287C117.498 86.427 120.83 75.4875 120.843 64.2929C120.837 49.2764 114.871 34.8761 104.256 24.2548C93.6409 13.6334 79.2441 7.65955 64.2276 7.64514V7.61251Z" fill="#68E1FD"/>
<path d="M151.217 159.394C150.35 159.395 149.493 159.223 148.694 158.889C147.895 158.555 147.17 158.065 146.562 157.448L104.476 114.742C103.872 114.132 103.394 113.409 103.07 112.614C102.746 111.819 102.582 110.968 102.588 110.11C102.593 109.251 102.768 108.402 103.102 107.612C103.436 106.821 103.922 106.104 104.534 105.501C105.146 104.899 105.87 104.423 106.666 104.102C107.462 103.78 108.313 103.618 109.171 103.626C110.03 103.634 110.878 103.811 111.668 104.147C112.458 104.483 113.173 104.972 113.774 105.585L155.86 148.291C156.762 149.207 157.374 150.369 157.618 151.632C157.862 152.894 157.727 154.201 157.231 155.387C156.735 156.573 155.899 157.586 154.829 158.299C153.759 159.012 152.502 159.393 151.217 159.394V159.394Z" fill="#68E1FD"/>
<path d="M171.379 172.966C170.661 173.677 169.809 174.239 168.873 174.619C167.938 175 166.936 175.193 165.926 175.186C164.915 175.179 163.916 174.972 162.986 174.578C162.056 174.184 161.212 173.611 160.504 172.89L110.957 122.604C110.681 122.331 110.43 122.032 110.207 121.713C110.077 121.539 109.957 121.365 109.848 121.191C109.495 120.596 109.335 119.907 109.39 119.217C109.444 118.528 109.711 117.873 110.153 117.341C111.115 116.195 112.166 115.126 113.296 114.144C114.593 112.991 115.998 111.968 117.493 111.088C118.103 110.722 118.813 110.557 119.522 110.618C120.23 110.678 120.902 110.961 121.441 111.425V111.425C121.59 111.543 121.732 111.67 121.865 111.805L171.498 162.102C172.205 162.823 172.762 163.676 173.138 164.612C173.514 165.549 173.702 166.55 173.691 167.559C173.68 168.568 173.47 169.565 173.073 170.493C172.676 171.421 172.101 172.261 171.379 172.966V172.966Z" fill="#473F47"/>
</g>
<defs>
<clipPath id="clip0_1867_3295">
<rect width="173.691" height="175.186" fill="white"/>
</clipPath>
</defs>
</svg>
