<svg width="173" height="132" viewBox="0 0 173 132" fill="none" xmlns="http://www.w3.org/2000/svg">
<g clip-path="url(#clip0_1868_3296)">
<path d="M160.967 113.79L161.262 107.154C164.338 105.509 167.77 104.641 171.258 104.624C166.457 108.549 167.057 116.115 163.802 121.393C162.774 123.032 161.391 124.418 159.755 125.449C158.118 126.481 156.271 127.13 154.349 127.35L150.332 129.81C149.78 126.737 149.902 123.581 150.688 120.559C151.474 117.537 152.906 114.721 154.884 112.306C156.008 110.962 157.296 109.765 158.719 108.743C159.681 111.28 160.967 113.79 160.967 113.79Z" fill="#F2F2F2"/>
<path d="M100.042 131.462C97.9956 131.316 97.4619 131.72 94.3659 131.462H88.6899L89.4283 117.879L98.364 121.459L142.769 122.549L142.743 122.625C142.723 122.683 140.752 128.45 142.293 130.633L142.357 130.724L142.232 130.725L101.497 131.099C101.052 131.103 100.483 131.493 100.042 131.462Z" fill="#F2F2F2"/>
<path d="M102.346 131.64C98.3926 131.358 94.2994 132.895 90.8833 131.16L88.1524 131.326L88.1447 131.303C88.1235 131.24 86.8335 121.089 89.4413 117.154L89.5562 116.981L89.6459 117.913L88.7861 130.557L90.6916 129.921C95.3194 132.099 100.823 130.661 106.12 130.641L142.166 130.507C142.921 130.505 143.55 131.021 143.57 131.658L143.572 131.72L104.523 131.717C103.795 131.717 103.069 131.691 102.346 131.64Z" fill="#CCCCCC"/>
<path d="M140.266 125.289L99.7011 124.483L99.6596 124.467L90.0757 120.875L90.2568 120.392L99.7994 123.969L140.276 124.773L140.266 125.289Z" fill="#E6E6E6"/>
<path d="M140.05 127.461L99.4853 126.655L99.444 126.639L89.8599 123.047L90.041 122.564L99.5839 126.141L140.06 126.945L140.05 127.461Z" fill="#E6E6E6"/>
<path d="M139.833 129.633L99.2685 128.827L99.2272 128.811L89.6431 125.219L89.8242 124.736L99.3671 128.313L139.843 129.117L139.833 129.633Z" fill="#E6E6E6"/>
<path d="M102.626 122.69C98.8647 122.435 95.1977 121.401 91.8585 119.651L89.0469 118.16L89.1203 117.423C89.1408 117.315 89.2006 117.218 89.2882 117.151C89.3757 117.084 89.4849 117.052 89.5946 117.061L89.8428 117.064L127.673 117.621C130.149 117.652 132.602 118.097 134.931 118.938L143.174 121.931L143.169 121.974C143.1 122.669 142.4 123.206 141.575 123.196L104.311 122.759C103.747 122.753 103.186 122.729 102.626 122.69Z" fill="#E6E6E6"/>
<path d="M143.094 122.091L143.086 122.09L97.7208 121.051L97.6894 121.036L89.5103 117.249L89.5933 117.122L89.8418 117.125L97.7967 120.811L142.741 121.84L143.101 121.848L143.094 122.091Z" fill="#CCCCCC"/>
<path d="M107.827 117.39L107.251 117.382L94.2503 117.19L93.6343 117.181C96.6048 120.344 103.173 121.135 112.801 119.909L107.827 117.39Z" fill="#CCCCCC"/>
<path d="M144.38 41.748L145.173 43.593L143.877 50.1449L130.653 48.3064L130.758 40.3169L131.024 38.5671L144.38 41.748Z" fill="#FFB6B6"/>
<path d="M151.212 126.663H148.295L146.906 115.41H151.212V126.663Z" fill="#FFB6B6"/>
<path d="M142.534 130.472C142.534 130.802 142.666 131.119 142.9 131.353C143.133 131.586 143.45 131.718 143.781 131.718H149.331L150.288 129.743L150.659 131.718H152.751L152.163 124.664L151.212 124.608L148.017 124.418L147.502 124.386V126.384L143.073 129.445C142.906 129.559 142.771 129.713 142.677 129.892C142.583 130.071 142.534 130.27 142.534 130.472Z" fill="#2F2E41"/>
<path d="M124.246 113.763H121.329L119.613 97.1965L125.095 96.8691L124.246 113.763Z" fill="#FFB6B6"/>
<path d="M115.568 117.572C115.569 117.902 115.7 118.219 115.934 118.453C116.167 118.686 116.484 118.818 116.815 118.818H122.365L123.322 116.843L123.694 118.818H125.786L125.197 111.764L124.349 111.714L121.098 111.518L120.536 111.486V113.484L116.107 116.545C115.941 116.66 115.805 116.813 115.711 116.992C115.617 117.171 115.568 117.37 115.568 117.572Z" fill="#2F2E41"/>
<path d="M152.45 116.959H152.439L151.878 98.6623C152.241 97.962 152.425 97.1827 152.414 96.3938C152.403 95.605 152.198 94.8311 151.815 94.1411L151.735 93.9957L151.943 93.0302C152.211 91.7898 152.088 90.497 151.592 89.3291L151.068 72.2614C152.938 60.1421 144.026 52.2383 144.026 52.2383L144.845 45.8862L130.431 46.2138L130.676 52.2383L127.81 62.0857C126.302 76.7813 116.15 86.0182 117.693 100.071C117.696 100.112 117.69 100.152 117.675 100.19C117.519 100.666 117.464 101.17 117.513 101.668C117.563 102.167 117.717 102.65 117.965 103.085C118.029 103.196 118.073 103.318 118.095 103.444C118.413 105.908 118.455 102.792 118.876 105.234L118.794 105.275C118.499 105.377 118.372 105.786 118.511 106.188C118.65 106.591 119.002 106.834 119.297 106.733L127.003 106.815C127.298 106.713 127.425 106.304 127.286 105.902C127.147 105.499 126.795 105.255 126.5 105.357L126.02 105.6L126.822 102.976L127.104 102.713C127.238 102.588 127.343 102.433 127.409 102.261C127.476 102.089 127.503 101.905 127.488 101.721C127.473 101.537 127.416 101.359 127.323 101.2C127.23 101.042 127.101 100.906 126.948 100.804L127.747 96.5396L127.634 93.3146L127.867 89.6559L137.978 75.0053L142.069 95.2423L146.247 117.163C146.15 117.251 146.076 117.362 146.034 117.487C145.992 117.611 145.983 117.744 146.007 117.873C146.046 118.053 146.146 118.215 146.29 118.329C146.434 118.444 146.614 118.505 146.798 118.501H152.471C152.59 118.501 152.707 118.474 152.813 118.421C152.92 118.368 153.013 118.291 153.085 118.196C153.157 118.102 153.206 117.992 153.229 117.875C153.251 117.758 153.246 117.638 153.215 117.523C153.167 117.358 153.066 117.214 152.928 117.112C152.79 117.01 152.622 116.956 152.45 116.959Z" fill="#2F2E41"/>
<path d="M147.406 10.6143C147.407 11.7825 147.12 12.9329 146.572 13.9646C146.024 14.9963 145.231 15.8777 144.263 16.5315C143.295 17.1852 142.181 17.5913 141.02 17.7141C139.858 17.8369 138.684 17.6726 137.6 17.2357C136.517 16.7988 135.557 16.1027 134.806 15.2083C134.054 14.314 133.534 13.2488 133.29 12.1064C133.046 10.9639 133.087 9.77906 133.408 8.65584C133.729 7.53262 134.32 6.50538 135.131 5.66428L135.165 5.63006C135.222 5.57009 135.28 5.51015 135.339 5.45304C135.34 5.45304 135.34 5.45297 135.341 5.45283C135.341 5.45269 135.341 5.45248 135.342 5.45221C135.342 5.45194 135.342 5.45163 135.342 5.45128C135.342 5.45093 135.342 5.45055 135.342 5.45018C135.424 5.39042 135.5 5.32252 135.568 5.24751C136.531 3.90125 137.624 2.77239 140.269 3.47763C144.079 4.49295 147.406 6.67199 147.406 10.6143Z" fill="#2F2E41"/>
<path d="M108.203 7.55896C108.187 7.94079 108.255 8.32152 108.401 8.67434C108.548 9.02716 108.771 9.34348 109.053 9.60102C109.336 9.85857 109.671 10.0511 110.036 10.165C110.401 10.2789 110.786 10.3114 111.165 10.2603L129.57 25.3653L132.381 20.424L113.405 7.13006C113.277 6.4995 112.922 5.93783 112.408 5.55147C111.893 5.16512 111.255 4.98093 110.614 5.03379C109.972 5.08666 109.373 5.37292 108.929 5.83833C108.484 6.30374 108.226 6.91596 108.203 7.55898V7.55896Z" fill="#FFB6B6"/>
<path d="M137.341 29.8199C137.341 29.8199 137.335 29.2759 134.41 29.2969C130.778 29.3228 120.775 24.1087 121.65 19.1981C121.235 19.3858 120.769 19.43 120.326 19.3237C119.882 19.2174 119.487 18.9666 119.202 18.6109L124.071 13.9226C125.6 14.0258 125.615 15.0483 125.484 15.6354L129.398 17.1904L139.59 23.0463L137.79 28.9284L137.341 29.8199Z" fill="#007580"/>
<path d="M138.511 18.2498C141.816 18.2498 144.496 15.5705 144.496 12.2654C144.496 8.96032 141.816 6.28101 138.511 6.28101C135.206 6.28101 132.527 8.96032 132.527 12.2654C132.527 15.5705 135.206 18.2498 138.511 18.2498Z" fill="#FFB7B7"/>
<path d="M130.286 42.0309C129.956 42.4721 129.787 43.0135 129.808 43.5644C129.83 44.1152 130.04 44.642 130.403 45.0563C130.406 45.2318 130.433 45.4015 130.681 46.0306C130.714 46.0916 130.752 46.1494 130.795 46.2032C130.803 46.2164 130.812 46.2291 130.822 46.2413C131.084 46.5801 131.448 46.8253 131.86 46.9406L142.815 49.9981L144.263 50.4019L144.518 50.4721L144.658 48.4942C144.984 48.2242 145.202 47.8465 145.274 47.4295C145.345 47.0125 145.265 46.5837 145.047 46.2208L144.845 45.8872L146.022 42.7244L146.136 42.4113L149.135 34.3388L149.138 33.8004L149.143 33.2445L149.173 29.3648C149.174 28.1421 148.892 26.9356 148.349 25.8401C147.806 24.7446 147.016 23.7899 146.042 23.0508C145.155 22.3728 144.132 21.8938 143.043 21.6464L143.02 21.6434L141.835 20.0488L137.027 20.5287L136.63 21.345L136.147 22.3281L132.662 24.4025L131.471 27.1704L130.667 29.043C129.42 29.9383 128.677 31.0882 128.463 32.4575C128.007 35.3658 130.043 38.2771 130.286 38.6106L130.348 41.949L130.286 42.0309Z" fill="#007580"/>
<path d="M144.775 13.8342C144.721 13.8257 144.666 13.8142 144.612 13.8057C143.679 13.6401 142.745 13.4774 141.814 13.3089L141.729 11.1994L140.601 13.0891C138.029 13.9427 135.623 13.4602 133.359 12.3955C132.612 12.041 131.888 11.6416 131.189 11.1994C130.959 7.63159 132.402 5.34753 135.086 5.58707C135.184 5.59582 135.254 5.49574 135.34 5.45288C135.34 5.45288 135.341 5.45281 135.341 5.45267C135.342 5.45253 135.342 5.45232 135.342 5.45205C135.342 5.45178 135.343 5.45147 135.343 5.45112C135.343 5.45077 135.343 5.45039 135.343 5.45002C135.489 5.38151 135.637 5.31586 135.785 5.25592C136.948 4.80175 138.215 4.68673 139.44 4.92424C140.665 5.16174 141.797 5.74201 142.705 6.59761C144.532 8.34184 145.354 11.2222 144.775 13.8342Z" fill="#2F2E41"/>
<path d="M144.612 13.8058C144.612 13.8058 142.839 7.18865 135.24 5.66137C135.232 5.65855 135.203 5.64712 135.166 5.63001C135.143 5.61572 135.114 5.60143 135.086 5.58718C135.172 5.53864 135.254 5.49585 135.34 5.45299C135.34 5.45299 135.341 5.45292 135.341 5.45278C135.341 5.45264 135.342 5.45243 135.342 5.45216C135.342 5.45189 135.343 5.45158 135.343 5.45123C135.343 5.45088 135.343 5.4505 135.343 5.45013C135.417 5.38162 135.491 5.31311 135.568 5.24746L135.785 5.25603C135.785 5.25603 143.41 4.04851 144.612 13.8058Z" fill="#FD6584"/>
<path d="M147.535 55.5185C147.394 55.6387 147.223 55.718 147.04 55.7476C146.857 55.7772 146.67 55.7559 146.499 55.6862C146.157 55.5414 145.854 55.3198 145.613 55.0385C144.629 54.0059 143.926 52.7383 143.57 51.3566L143.899 50.7726C143.77 50.0524 143.891 49.3098 144.242 48.668C144.594 48.0262 145.154 47.5239 145.83 47.2444C146.215 47.0812 146.641 47.0441 147.048 47.1384C147.25 47.1886 147.435 47.2923 147.582 47.4387C147.73 47.585 147.836 47.7686 147.888 47.97C148.014 48.5948 147.494 49.1588 146.967 49.5175C146.049 50.1406 144.987 50.5204 143.882 50.6212C145.234 51.3831 146.402 52.4317 147.306 53.6935C147.514 53.9567 147.668 54.259 147.759 54.5826C147.802 54.7449 147.804 54.9155 147.765 55.0789C147.726 55.2422 147.647 55.3933 147.535 55.5185Z" fill="#2F2E41"/>
<path d="M71.8911 131.931H172.325C172.411 131.931 172.493 131.897 172.553 131.836C172.613 131.776 172.647 131.694 172.647 131.609C172.647 131.524 172.613 131.442 172.553 131.381C172.493 131.321 172.411 131.287 172.325 131.287H71.8911C71.8057 131.287 71.7239 131.321 71.6636 131.381C71.6032 131.442 71.5693 131.524 71.5693 131.609C71.5693 131.694 71.6032 131.776 71.6636 131.836C71.7239 131.897 71.8057 131.931 71.8911 131.931Z" fill="#CCCCCC"/>
<path d="M98.5637 49.2184V49.3865C98.202 48.9626 97.8329 48.5423 97.4674 48.1221C97.314 47.9467 97.1605 47.7713 97.007 47.5959C96.3565 46.8577 95.7024 46.1219 95.0446 45.3886C94.3832 44.6578 93.7217 43.9269 93.0529 43.1997C92.8922 43.0243 92.7314 42.8489 92.567 42.6735C92.4353 42.5261 92.2924 42.3892 92.1394 42.2642C91.985 42.1357 91.8077 42.0378 91.6168 41.9755C91.3971 41.9146 91.1654 41.9121 90.9445 41.9682C90.6922 42.0267 90.4511 42.118 90.2063 42.1948C89.9541 42.2788 89.7056 42.3592 89.4535 42.4396C88.9491 42.6041 88.4485 42.7685 87.9442 42.933C87.9381 42.9354 87.9316 42.9367 87.925 42.9366C87.9185 42.9366 87.912 42.9352 87.9059 42.9327C87.8999 42.9301 87.8944 42.9264 87.8898 42.9217C87.8852 42.9171 87.8816 42.9116 87.8791 42.9055L87.8784 42.9037C87.8755 42.8968 87.8742 42.8893 87.8746 42.8818C87.8749 42.8743 87.8769 42.867 87.8804 42.8604C87.8839 42.8538 87.8888 42.848 87.8948 42.8435C87.9007 42.839 87.9077 42.8358 87.915 42.8343C88.0393 42.7941 88.1671 42.7539 88.2951 42.7137C88.803 42.5456 89.3072 42.3812 89.8152 42.2167C90.0674 42.1326 90.3195 42.0523 90.5717 41.9719C90.8056 41.883 91.0525 41.8336 91.3026 41.8257C91.7108 41.855 92.0936 42.0347 92.3769 42.33C92.5341 42.4762 92.6766 42.6296 92.8191 42.7868C92.9872 42.9695 93.1553 43.1522 93.3234 43.3349C93.9994 44.0731 94.6706 44.8137 95.3369 45.5568C96.0057 46.3022 96.6683 47.049 97.3249 47.7969C97.3724 47.8517 97.4199 47.9065 97.4674 47.9613C97.8365 48.3779 98.1983 48.7982 98.5637 49.2184Z" fill="white"/>
<path d="M92.0827 42.9375C91.9447 42.7596 91.7607 42.6229 91.5505 42.542L91.3428 42.5493C92.9738 45.0873 95.1106 47.2617 97.6197 48.9367C95.774 46.937 93.9284 44.9372 92.0827 42.9375Z" fill="white"/>
<path d="M126.121 69.313L117.843 24.9861C117.701 24.2554 117.315 23.5945 116.749 23.1118C116.182 22.629 115.469 22.3531 114.725 22.3292C114.658 22.3278 114.591 22.3278 114.524 22.3292L108.884 22.5315L108.277 22.5539L105.463 22.655L104.856 22.6758L103.045 22.7413L66.539 24.0519C66.4839 24.0549 66.4274 24.0549 66.3723 24.0534L58.1919 23.8823L55.1646 23.8198L55.0679 23.8183L52.8334 23.7707L33.3634 23.3661L28.2013 23.2575L25.656 23.2054L25.0461 23.192L22.1437 23.1325L21.5353 23.1191L18.5659 23.0581L17.9575 23.0448L14.6951 22.9763L14.1834 22.9659L11.2736 22.9049L10.8139 22.896H10.747C9.97448 22.8991 9.22798 23.1753 8.63942 23.6757C8.05087 24.176 7.65816 24.8683 7.53073 25.6303L0.0434903 71.6277C-0.032542 72.0937 -0.00636501 72.5706 0.120202 73.0254C0.246769 73.4802 0.470696 73.9021 0.776484 74.2618C1.08227 74.6215 1.4626 74.9104 1.89113 75.1086C2.31966 75.3067 2.78614 75.4093 3.25825 75.4093H46.2566C46.8895 75.411 47.5054 75.6142 48.015 75.9894L48.8302 76.5934C49.3921 77.0069 50.071 77.231 50.7686 77.2331C59.0732 75.0412 67.8043 75.0412 76.1089 77.2331C76.537 77.2342 76.9612 77.1503 77.3567 76.9864C77.7523 76.8225 78.1114 76.5817 78.4132 76.278C78.9294 75.762 79.6182 75.4552 80.3471 75.4167L123.09 73.1644C123.553 73.1402 124.006 73.0172 124.418 72.8037C124.83 72.5902 125.192 72.291 125.479 71.9263C125.766 71.5616 125.972 71.1398 126.083 70.6891C126.194 70.2384 126.207 69.7692 126.121 69.313V69.313Z" fill="#CCCCCC"/>
<path d="M114.408 62.4008C114.353 63.9029 113.704 65.3218 112.603 66.3455C111.502 67.3692 110.04 67.914 108.538 67.86C106.056 67.7723 103.094 67.7285 99.8796 67.7955C89.3815 68.02 76.1926 69.4648 68.2591 74.6609C67.262 75.3154 66.0838 75.6386 64.8922 75.5846C64.8045 75.5794 64.7194 75.5742 64.6316 75.5665C63.3963 75.4536 62.2324 74.9378 61.3189 74.0985C56.9484 70.0995 46.9251 65.2568 23.9812 64.9163C23.8857 64.9163 23.7929 64.9111 23.7 64.906C22.9569 64.8592 22.2302 64.6664 21.5616 64.3387C20.893 64.011 20.2956 63.5547 19.8035 62.9959C19.3113 62.4372 18.9341 61.7869 18.6934 61.0823C18.4527 60.3776 18.3532 59.6325 18.4007 58.8894L20.6556 23.1023L20.9936 17.7384L21.587 8.35499C21.6468 7.41001 22.0642 6.52325 22.7542 5.87488C23.4443 5.22651 24.3553 4.86517 25.3022 4.86426H25.3254L38.9942 4.94424C44.7528 5.20482 49.5223 5.9384 53.3029 7.14497C54.5942 7.54543 55.8506 8.05108 57.0594 8.65686C58.7103 9.45726 60.1936 10.5649 61.4299 11.9206C62.2 12.7866 63.2504 13.3538 64.3969 13.5227C64.5747 13.5493 64.7538 13.5657 64.9335 13.5718C65.9909 13.6155 67.0341 13.3169 67.9082 12.7204C76.8376 6.73735 95.0343 6.28327 105.083 6.54127C106.489 6.57404 107.832 7.12879 108.85 8.09745C109.869 9.06611 110.491 10.3793 110.594 11.7812L111.002 17.1193L111.407 22.4418L113.744 53.2031L114.395 61.761C114.411 61.9738 114.415 62.1874 114.408 62.4008Z" fill="#F2F2F2"/>
<path d="M27.382 17.4573C35.6192 14.8292 44.8089 15.525 52.6124 19.2274C54.839 20.2783 56.9418 21.5734 58.8822 23.089C59.4311 23.5198 60.2122 22.7492 59.6574 22.3138C52.49 16.7545 43.4842 14.1136 34.4495 14.9217C31.9501 15.1453 29.4824 15.6411 27.0905 16.4001C26.4209 16.6137 26.7071 17.6726 27.382 17.4573H27.382Z" fill="#3F3D56"/>
<path d="M72.708 23.5141C80.3664 19.4888 89.5372 18.611 97.864 20.8959C100.238 21.5458 102.532 22.458 104.704 23.6156C105.326 23.9476 105.881 23.0016 105.257 22.669C97.3214 18.4343 87.7949 17.4595 79.1287 19.8201C76.7111 20.4798 74.3726 21.401 72.1547 22.5675C71.5299 22.8959 72.0834 23.8424 72.708 23.5141Z" fill="#3F3D56"/>
<path d="M72.708 30.8227C80.3664 26.7974 89.5372 25.9196 97.864 28.2045C100.238 28.8544 102.532 29.7666 104.704 30.9242C105.326 31.2562 105.881 30.3102 105.257 29.9775C97.3214 25.7429 87.7949 24.7681 79.1287 27.1287C76.7111 27.7883 74.3726 28.7096 72.1547 29.8761C71.5299 30.2045 72.0834 31.151 72.708 30.8227L72.708 30.8227Z" fill="#3F3D56"/>
<path d="M105.526 37.739C105.532 37.6449 105.509 37.5513 105.461 37.4703C105.413 37.3892 105.341 37.3245 105.256 37.2846C98.8985 33.9557 91.6901 32.6055 84.5587 33.4078C84.514 33.4114 84.4729 33.4186 84.4246 33.4221H84.4228C84.3789 33.4261 84.3353 33.4326 84.2922 33.4418C80.0505 33.9299 75.9358 35.1982 72.1554 37.1827C72.073 37.2318 72.0047 37.3014 71.9574 37.3849C71.91 37.4683 71.8852 37.5626 71.8853 37.6586V51.2927C71.8866 51.3766 71.907 51.4591 71.945 51.534C71.9829 51.6088 72.0374 51.674 72.1043 51.7247C72.1712 51.7754 72.2487 51.8102 72.331 51.8265C72.4133 51.8428 72.4983 51.8401 72.5794 51.8187C72.7476 51.7704 72.9157 51.7239 73.0875 51.6792C76.9093 50.6447 80.8326 50.031 84.7877 49.849C84.8718 49.8454 84.9559 49.8418 85.0436 49.8383C88.2649 49.6999 91.4922 49.8159 94.6954 50.1853C94.7625 50.1891 94.8293 50.1963 94.8957 50.2068C95.0603 50.2247 95.2285 50.2443 95.3931 50.2658C95.4593 50.273 95.5219 50.2801 95.5827 50.2909C96.2232 50.3713 96.8583 50.4626 97.4952 50.561C98.4147 50.7077 99.3343 50.8711 100.254 51.0512C100.311 51.0619 100.37 51.0763 100.429 51.087C101.905 51.3804 103.374 51.7203 104.836 52.096C104.917 52.117 105.002 52.1192 105.084 52.1026C105.167 52.0859 105.244 52.0508 105.311 51.9998C105.378 51.9488 105.432 51.8833 105.47 51.8082C105.508 51.7332 105.528 51.6505 105.53 51.5664V37.7605C105.53 37.7532 105.529 37.7458 105.526 37.739Z" fill="#3F3D56"/>
<path d="M77.5336 37.7981L77.3857 37.9051C77.4358 37.8676 77.4877 37.8325 77.5412 37.7993L77.5336 37.7981Z" fill="white"/>
<path d="M27.382 24.7659C35.6192 22.1378 44.8089 22.8336 52.6124 26.536C54.839 27.5869 56.9418 28.882 58.8822 30.3976C59.4311 30.8284 60.2122 30.0578 59.6574 29.6224C52.49 24.0631 43.4842 21.4222 34.4495 22.2303C31.9501 22.4539 29.4824 22.9497 27.0905 23.7087C26.4209 23.9223 26.7071 24.9812 27.382 24.7659L27.382 24.7659Z" fill="#3F3D56"/>
<path d="M27.382 32.0742C35.6192 29.4462 44.8089 30.1419 52.6124 33.8443C54.839 34.8952 56.9418 36.1904 58.8822 37.706C59.4311 38.1368 60.2122 37.3662 59.6574 36.9308C52.49 31.3715 43.4842 28.7305 34.4495 29.5386C31.9501 29.7623 29.4825 30.258 27.0905 31.0171C26.4209 31.2307 26.7071 32.2895 27.382 32.0742L27.382 32.0742Z" fill="#3F3D56"/>
<path d="M27.382 39.3828C35.6192 36.7547 44.8089 37.4505 52.6124 41.1529C54.839 42.2038 56.9418 43.499 58.8822 45.0146C59.4311 45.4453 60.2122 44.6748 59.6574 44.2393C52.49 38.6801 43.4842 36.0391 34.4495 36.8472C31.9501 37.0709 29.4824 37.5666 27.0905 38.3257C26.4209 38.5393 26.7071 39.5981 27.382 39.3828L27.382 39.3828Z" fill="#3F3D56"/>
<path d="M27.382 46.6914C35.6192 44.0633 44.8089 44.7591 52.6124 48.4615C54.839 49.5124 56.9418 50.8076 58.8822 52.3231C59.4311 52.7539 60.2122 51.9834 59.6574 51.5479C52.49 45.9886 43.4842 43.3477 34.4495 44.1558C31.9501 44.3795 29.4824 44.8752 27.0905 45.6343C26.4209 45.8479 26.7071 46.9067 27.382 46.6914L27.382 46.6914Z" fill="#3F3D56"/>
<path d="M27.382 54C35.6192 51.3719 44.8089 52.0677 52.6124 55.7701C54.839 56.821 56.9418 58.1162 58.8822 59.6317C59.4311 60.0625 60.2122 59.292 59.6574 58.8565C52.49 53.2972 43.4842 50.6563 34.4495 51.4644C31.9501 51.6881 29.4825 52.1838 27.0905 52.9428C26.4209 53.1565 26.7071 54.2153 27.382 54H27.382Z" fill="#3F3D56"/>
<path d="M57.0592 8.6569V26.1828C57.0592 26.5311 56.4503 26.8227 55.6299 26.9026C55.6229 26.9022 55.6159 26.9031 55.6093 26.9052C55.4725 26.9155 55.328 26.9233 55.181 26.9233C54.7286 26.9316 54.2785 26.8582 53.8523 26.7066C53.8136 26.6911 53.7749 26.673 53.7362 26.6575C53.7001 26.6369 53.6614 26.6188 53.6252 26.5982C53.4214 26.4769 53.3027 26.335 53.3027 26.1828V7.14502C54.5941 7.54547 55.8505 8.05112 57.0592 8.6569Z" fill="#007580"/>
<path d="M64.9332 12.7214H64.3965V75.2179H64.9332V12.7214Z" fill="#E6E6E6"/>
<path d="M123.298 55.5049C123.679 55.4701 124.047 55.3523 124.377 55.1597C124.707 54.9672 124.991 54.7046 125.209 54.3904C125.427 54.0763 125.573 53.7183 125.637 53.3415C125.701 52.9648 125.682 52.5786 125.581 52.21L136.721 47.0099L143.428 36.1613L138.156 34.033L133.632 42.7751L122.18 50.406C121.573 50.6169 121.063 51.0434 120.749 51.6048C120.434 52.1662 120.337 52.8234 120.475 53.4519C120.612 54.0804 120.976 54.6366 121.496 55.015C122.017 55.3933 122.658 55.5677 123.298 55.5049V55.5049Z" fill="#FFB6B6"/>
<path d="M147.565 25.7683C147.565 25.7683 148.878 26.1968 147.437 28.7433C146.283 30.782 140.664 42.5251 138.37 44.8308C138.611 45.2175 138.717 45.6735 138.671 46.127C138.624 46.5804 138.429 47.0056 138.114 47.3354L132.819 43.1337C132.718 41.6055 133.729 41.4539 134.328 41.5055L135.547 37.1882L139.795 26.5383L146.621 25.4417L147.565 25.7683Z" fill="#007580"/>
<path d="M147.679 5.80711C147.929 4.79492 149.745 4.04755 146.634 2.63441C145.879 2.29145 145.91 1.11038 145.272 0.581455C144.633 0.0525293 143.698 -0.192687 142.955 0.177011C142.293 0.50715 141.919 1.25427 141.839 1.99052C141.801 2.73154 141.887 3.47374 142.093 4.18664L142.032 4.27475C143.265 5.21777 144.497 6.16077 145.729 7.10375C146.182 7.45028 146.774 7.81313 147.282 7.55312C147.856 7.25877 147.524 6.43377 147.679 5.80711Z" fill="#2F2E41"/>
</g>
<defs>
<clipPath id="clip0_1868_3296">
<rect width="172.647" height="132" fill="white"/>
</clipPath>
</defs>
</svg>
