<svg width="392" height="267" viewBox="0 0 392 267" fill="none" xmlns="http://www.w3.org/2000/svg">
<g clip-path="url(#clip0_2196_3489)">
<path d="M190.032 263.108L7.61607 155.305C1.81027 152.047 -3.17338 146.688 2.49032 143.186L185.566 37.6261C188.317 35.9209 192.488 34.8044 195.279 36.4284L386.769 147.601C392.575 150.971 393.621 160.39 387.784 163.77L214.108 262.946C210.456 265.066 206.314 266.196 202.091 266.225C197.869 266.253 193.712 265.179 190.032 263.108V263.108Z" fill="#007580"/>
<path style="mix-blend-mode:multiply" opacity="0.5" d="M219.071 148.829L139.475 200.483L194.904 248.198L282.884 198.158L219.071 148.829Z" fill="url(#paint0_linear_2196_3489)"/>
<path style="mix-blend-mode:multiply" opacity="0.5" d="M131.913 90.7104L96.7939 113.71L115.795 128.814L165.408 100.901L131.913 90.7104Z" fill="url(#paint1_linear_2196_3489)"/>
<path d="M126.26 31.9928L182.704 0L203.105 12.8093L177.588 38.5294L144.844 53.389" fill="#68E1FD"/>
<path opacity="0.5" d="M126.26 31.9928L182.704 0L203.105 12.8093L177.588 38.5294L144.844 53.389" fill="white"/>
<path d="M148.61 44.8021L203.105 12.8093V20.909V24.9386V79.7181L148.61 110.046V109.782L148.143 110.046L126.26 96.7194V43.442V31.9928L148.61 44.8021Z" fill="#68E1FD"/>
<path d="M144.712 49.6639V77.6779L128.919 68.3906V40.7014L144.712 49.6639Z" fill="#FFECB3"/>
<path opacity="0.2" d="M148.61 44.8021V110.046L203.105 79.7181V12.8093L148.61 44.8021Z" fill="black"/>
<path d="M136.818 90.2197C138.751 89.7689 139.781 87.1022 139.118 84.2634C138.456 81.4247 136.353 79.4889 134.42 79.9396C132.488 80.3904 131.458 83.0571 132.12 85.8959C132.782 88.7346 134.886 90.6705 136.818 90.2197Z" fill="#FFECB3"/>
<path d="M187.241 167.079L192.569 169.718L195.686 166.744L200.131 161.649L191.473 160.015L187.241 167.079Z" fill="#467EC1"/>
<path d="M257.692 49.8263L228.318 63.7419L224.106 76.4903L180.867 100.018C180.227 100.366 179.707 100.899 179.376 101.548C179.044 102.196 178.916 102.929 179.009 103.652L187.251 167.089L267.436 120.227L262.625 66.0967C262.513 63.8434 261.397 55.8554 260.777 51.4706C260.728 51.134 260.6 50.8138 260.404 50.5356C260.209 50.2575 259.95 50.0292 259.65 49.8692C259.35 49.7092 259.016 49.622 258.676 49.6145C258.336 49.6071 257.999 49.6796 257.692 49.8263Z" fill="#2C2CB5"/>
<path d="M269.872 55.1347L237.991 71.6183L233.738 82.0931L194.518 104.646C193.925 104.986 193.432 105.477 193.09 106.069C192.748 106.661 192.568 107.333 192.569 108.016V169.728L272.754 122.866V58.809L272.653 56.7181C272.637 56.3996 272.541 56.0902 272.374 55.8186C272.206 55.547 271.973 55.3219 271.696 55.1641C271.419 55.0063 271.107 54.9209 270.788 54.9158C270.469 54.9106 270.154 54.9859 269.872 55.1347V55.1347Z" fill="#68E1FD"/>
<path d="M212.91 178.853L218.239 181.492L221.355 178.518L225.811 173.423L217.142 171.779L212.91 178.853Z" fill="#467EC1"/>
<path d="M283.361 61.6309L253.926 75.5465L249.714 88.2949L206.475 111.823C205.85 112.176 205.344 112.707 205.022 113.349C204.701 113.991 204.577 114.714 204.668 115.426L212.91 178.863L293.095 132.001L288.294 77.8709C288.182 75.6176 287.066 67.6295 286.447 63.2447C286.393 62.9108 286.262 62.594 286.065 62.3196C285.867 62.0451 285.608 61.8206 285.309 61.6639C285.009 61.5071 284.677 61.4225 284.339 61.4168C284.001 61.4111 283.666 61.4844 283.361 61.6309V61.6309Z" fill="#2C2CB5"/>
<path d="M295.541 66.8985L263.66 83.3821L259.407 93.8569L220.198 116.441C219.605 116.781 219.112 117.271 218.77 117.863C218.427 118.455 218.248 119.127 218.249 119.81V181.522L298.434 134.66V70.583L298.332 68.4921C298.319 68.1712 298.224 67.8591 298.057 67.5848C297.89 67.3106 297.656 67.0832 297.377 66.924C297.098 66.7648 296.783 66.679 296.462 66.6745C296.141 66.67 295.824 66.7471 295.541 66.8985V66.8985Z" fill="#68E1FD"/>
<path style="mix-blend-mode:multiply" opacity="0.5" d="M58.9954 136.853L23.8662 159.852L42.8772 174.956L92.4802 147.043L58.9954 136.853Z" fill="url(#paint2_linear_2196_3489)"/>
<path d="M59.1172 107.631V144.008C59.1172 144.008 94.0839 145.947 94.0839 144.008V107.631" fill="#68E1FD"/>
<path d="M76.5954 151.692C86.254 151.692 94.0838 148.115 94.0838 143.704C94.0838 139.292 86.254 135.716 76.5954 135.716C66.9368 135.716 59.1069 139.292 59.1069 143.704C59.1069 148.115 66.9368 151.692 76.5954 151.692Z" fill="#68E1FD"/>
<path d="M76.5954 115.619C86.254 115.619 94.0838 112.042 94.0838 107.631C94.0838 103.219 86.254 99.6426 76.5954 99.6426C66.9368 99.6426 59.1069 103.219 59.1069 107.631C59.1069 112.042 66.9368 115.619 76.5954 115.619Z" fill="#3129A3"/>
<path d="M65.7045 113.842L65.8263 113.903C66.4962 114.137 67.1762 114.35 67.8563 114.522L63.0959 74.6836C62.6879 74.5279 62.245 74.4872 61.8154 74.566C61.3859 74.6447 60.9862 74.8399 60.6599 75.1302L65.5421 113.761L65.7045 113.842Z" fill="#F78B72"/>
<path d="M71.1347 115.07L72.6166 77.6779C72.2378 77.4602 71.8065 77.3508 71.3698 77.3616C70.9331 77.3723 70.5077 77.5028 70.1401 77.7388L68.9626 114.766C69.6804 114.908 70.4056 115.01 71.1347 115.07Z" fill="#F78B72"/>
<path d="M76.5955 115.619L81.4066 76.6326L91.1404 81.7786L87.2327 114.523C83.7823 115.528 80.1783 115.899 76.5955 115.619V115.619Z" fill="#FCB749"/>
<path d="M231.129 195.875L236.468 198.514L239.584 195.54L244.03 190.444L235.362 188.81L231.129 195.875Z" fill="#467EC1"/>
<path d="M301.58 78.6219L272.145 92.5376L267.984 105.276L224.745 128.804C224.105 129.151 223.586 129.685 223.254 130.333C222.923 130.981 222.795 131.715 222.887 132.437L231.129 195.875L311.314 149.012L306.473 94.9025C306.361 92.6492 305.245 84.6612 304.625 80.2764C304.575 79.9443 304.449 79.6284 304.256 79.3534C304.064 79.0784 303.81 78.8518 303.515 78.6915C303.22 78.5312 302.891 78.4415 302.556 78.4294C302.22 78.4173 301.886 78.4832 301.58 78.6219V78.6219Z" fill="#2C2CB5"/>
<path d="M313.76 83.9608L281.879 100.444L277.626 110.919L238.407 133.473C237.814 133.813 237.321 134.303 236.979 134.895C236.637 135.487 236.457 136.159 236.458 136.842V198.554L316.643 151.692V87.6047L316.542 85.5138C316.521 85.1979 316.421 84.8922 316.252 84.6246C316.083 84.357 315.849 84.1359 315.573 83.9816C315.297 83.8272 314.986 83.7445 314.669 83.7408C314.353 83.7372 314.04 83.8128 313.76 83.9608Z" fill="#68E1FD"/>
<path d="M256.799 207.649L262.137 210.288L265.254 207.314L269.699 202.218L261.041 200.584L256.799 207.649Z" fill="#467EC1"/>
<path d="M327.25 90.396L297.815 104.312L293.602 117.06L250.363 140.588C249.724 140.936 249.204 141.469 248.873 142.117C248.541 142.766 248.413 143.499 248.506 144.221L256.748 207.659L336.933 160.796L332.132 106.677C332.02 104.423 330.904 96.4352 330.284 92.0504C330.234 91.7197 330.108 91.4051 329.916 91.1312C329.723 90.8573 329.471 90.6314 329.177 90.4713C328.883 90.3111 328.556 90.221 328.222 90.208C327.888 90.1949 327.555 90.2592 327.25 90.396V90.396Z" fill="#2C2CB5"/>
<path d="M339.43 95.7043L307.549 112.188L303.296 122.663L264.076 145.216C263.483 145.556 262.991 146.047 262.648 146.639C262.306 147.23 262.126 147.902 262.127 148.586V210.298L342.312 163.435V99.3786L342.211 97.2877C342.195 96.9692 342.099 96.6598 341.932 96.3882C341.764 96.1166 341.532 95.8915 341.254 95.7337C340.977 95.5759 340.665 95.4905 340.346 95.4854C340.027 95.4802 339.712 95.5555 339.43 95.7043V95.7043Z" fill="#68E1FD"/>
<path d="M215.529 87.7874C218.736 86.1567 221.896 84.438 225.009 82.6313C225.563 81.4361 226.18 80.2706 226.856 79.1397C227.952 77.3431 229.657 76.0947 231.84 76.4905C232.233 76.5654 232.586 76.7788 232.836 77.0919C233.085 77.405 233.215 77.7972 233.2 78.1973C233.185 78.5974 233.028 78.979 232.756 79.2729C232.484 79.5668 232.116 79.7536 231.718 79.7994L231.464 80.1039C235.331 80.2764 242.304 80.855 240.731 84.6613C240.871 84.7744 241 84.9001 241.117 85.0368C241.513 85.5195 241.709 86.1352 241.665 86.7579C241.622 87.3806 241.342 87.9632 240.883 88.3863C240.539 88.7178 240.117 88.9567 239.655 89.081C239.194 89.2052 238.708 89.2106 238.244 89.0968C237.944 89.6996 237.425 90.1659 236.794 90.4014C236.163 90.6369 235.466 90.6241 234.844 90.3656L233.89 90.0712C233.921 90.31 233.895 90.5528 233.813 90.7793C233.731 91.0057 233.596 91.2091 233.419 91.3723C233.241 91.5355 233.028 91.6537 232.795 91.717C232.563 91.7802 232.319 91.7867 232.083 91.7358C231.068 91.5227 229.952 91.3197 228.896 91.1167C221.649 93.4309 218.046 94.2632 215.315 96.1206C214.189 96.892 215.315 97.1356 215.315 96.1206C215.188 95.9572 215.096 95.7694 215.044 95.5689C214.992 95.3683 214.982 95.1592 215.014 94.9546C215.047 94.75 215.121 94.5542 215.232 94.3794C215.343 94.2046 215.489 94.0545 215.661 93.9384L215.975 93.7151C215.804 93.5898 215.661 93.4306 215.554 93.2476C215.448 93.0645 215.38 92.8614 215.355 92.6509C215.33 92.4405 215.349 92.2272 215.41 92.0243C215.472 91.8215 215.574 91.6334 215.711 91.4719C215.833 91.3197 215.965 91.1776 216.097 91.0253C214.615 91.0659 213.874 88.6299 215.529 87.7874Z" fill="#FF7D09"/>
<path d="M178.4 199.143L176.634 224.031L179.76 226.731L183.221 225.827C183.221 225.827 182.775 219.23 183.993 217.778C185.211 216.327 187.291 223.493 188.469 223.452C189.646 223.412 203.775 219.697 203.958 217.941C204.232 215.637 201.055 213.008 195.066 214.459C188.58 216.033 187.444 208.725 186.429 201.721" fill="#F8997C"/>
<path d="M188.54 204.127C188.54 204.127 182.389 206.735 171.802 199.975C171.802 199.975 175.456 166.917 175.142 161.213C174.827 155.508 168.463 114.401 176.319 105.388C184.175 96.3744 198.264 183.543 197.634 183.989" fill="#A1C3FC"/>
<path d="M183.404 218.793L183.993 217.778C183.993 217.778 185.728 216.175 187.423 216.956C189.118 217.738 188.875 223.665 188.875 223.665L182.988 221.463C182.936 220.553 183.078 219.644 183.404 218.793V218.793Z" fill="#9E005D"/>
<path d="M197.604 211.364L198.213 236.343L201.572 238.738L204.942 237.51C204.942 237.51 203.876 230.983 204.942 229.39C206.008 227.796 208.769 234.769 209.936 234.617C211.103 234.465 224.816 229.37 224.857 227.624C224.907 225.299 221.497 222.985 215.722 225.005C209.418 227.187 207.602 220.021 205.906 213.15" fill="#F8997C"/>
<path d="M204.445 230.456L204.942 229.441C204.942 229.441 206.515 227.675 208.282 228.304C210.048 228.933 210.362 234.841 210.362 234.841L204.272 233.206C204.13 232.288 204.189 231.349 204.445 230.456V230.456Z" fill="#9E005D"/>
<path d="M199.654 115.091C199.654 115.091 210.108 143.287 212.484 155.508C214.859 167.729 214.95 213.515 214.097 214.754C213.245 215.992 203.085 218.154 196.233 218.032C189.382 217.91 190.316 163.892 190.316 163.892C190.316 163.892 171.64 116.573 176.634 111.376C181.628 106.179 199.654 115.091 199.654 115.091Z" fill="#A1C3FC"/>
<path d="M200.07 115.629C190.58 118.674 178.532 115.03 172.726 106.88C173.822 93.5323 176.116 71.4662 179.537 68.1573C184.49 63.3767 195.218 70.1873 199.106 76.8457C201.136 80.2967 204.891 92.5579 204.891 92.5579L219.507 84.2349L223.943 94.6285C223.943 94.6285 213.935 113.497 200.395 109.204L200.07 115.629Z" fill="#F8997C"/>
<path d="M190.935 91.1369C190.935 90.9888 190.994 90.8468 191.099 90.7421C191.203 90.6374 191.345 90.5786 191.494 90.5786C191.642 90.5786 191.784 90.6374 191.888 90.7421C191.993 90.8468 192.052 90.9888 192.052 91.1369C192.052 95.3796 192.184 99.9065 194.234 103.733C195.909 106.859 198.964 109.488 202.628 109.671C203.339 109.671 203.349 110.818 202.628 110.787C198.72 110.594 195.411 108.006 193.493 104.697C191.128 100.637 190.905 95.7348 190.935 91.1369Z" fill="white"/>
<path d="M196.051 43.8987C196.822 44.0611 198.081 45.2893 199.908 49.6436C201.735 53.998 197.319 59.6008 195.391 60.7173C193.462 61.8338 190.661 66.4216 190.661 66.4216C190.661 66.4216 183.556 68.1369 178.816 59.4587C174.076 50.7804 184.551 41.3917 196.051 43.8987Z" fill="#FFB468"/>
<path d="M198.05 48.7504C198.05 48.7504 201.623 63.2548 196.365 66.5738C191.108 69.8929 184.003 61.0928 183.323 57.5809C182.643 54.069 186.489 46.4058 198.05 48.7504Z" fill="#FF7D09"/>
<path d="M198.05 48.7505C198.05 48.7505 198.933 58.2306 193.99 60.3114C189.047 62.3921 188.986 65.3864 188.986 65.3864C188.986 65.3864 180.014 60.5854 179.08 56.3427C178.146 52.1 191.179 44.9443 198.05 48.7505Z" fill="#FFB468"/>
<path d="M181.557 60.1387C183.343 74.3487 179.75 92.5375 185.617 105.875C185.982 106.687 186.764 110.391 187.373 110.381L173.041 102.566C167.296 99.003 163.114 96.7091 165.164 87.6858C167.215 78.6624 178.776 59.4485 178.776 59.4485L181.557 60.1387Z" fill="#FFB468"/>
<path d="M203.42 85.4529C204.329 89.2223 205.037 93.0373 205.541 96.8818C205.632 97.5923 204.526 97.5923 204.414 96.8818C203.92 93.1258 203.225 89.3989 202.334 85.7168C202.161 85.0469 203.247 84.7525 203.42 85.4529Z" fill="white"/>
<path d="M183.241 66.5536L184.581 63.6609C187.232 65.0295 189.976 66.2098 192.793 67.1931C196.162 68.2081 195.218 72.1158 195.218 72.1158C195.218 72.1158 187.373 72.126 183.241 66.5536Z" fill="#5FAD00"/>
<path d="M300.058 166.074L300.322 165.151L303.275 163.537V158.462C303.275 158.36 300.413 160.147 300.413 160.147L300.281 159.862C300.119 159.093 299.823 158.358 299.408 157.69L301.489 153.843L298.84 151.813L296.86 155.772C296.144 155.593 295.395 155.593 294.678 155.772V151.966L290.892 154.067V158.046C290.145 158.756 289.466 159.534 288.862 160.37L286.579 158.908L284 163.811L286.03 165.435L285.858 166.257C285.595 167.126 285.385 168.011 285.229 168.906L282.184 170.581V175.595L285.066 173.869C285.192 174.782 285.51 175.657 286 176.437L283.838 180.112L286.579 182.142L288.507 178.356H290.902V182.142L294.506 179.939V176.224C295.336 175.412 296.068 174.506 296.688 173.524L298.86 175.006L301.479 170.002L299.368 168.561L299.581 167.81C299.763 167.191 299.926 166.643 300.058 166.074Z" fill="white"/>
<path d="M296.679 169.414C298.258 166.112 297.779 162.594 295.609 161.557C293.44 160.519 290.401 162.356 288.822 165.658C287.243 168.961 287.722 172.479 289.892 173.516C292.062 174.553 295.101 172.717 296.679 169.414Z" fill="#68E1FD"/>
<path d="M327.23 139.542L327.544 138.446L331.046 136.538V130.58C331.046 130.458 327.656 132.61 327.656 132.61L327.493 132.275C327.308 131.363 326.964 130.49 326.478 129.697L328.945 125.149L325.819 122.764L323.474 127.453C322.628 127.242 321.742 127.242 320.896 127.453V122.947L316.42 125.434V130.143C315.538 130.984 314.737 131.905 314.024 132.894L311.324 131.168L308.279 136.974L310.695 138.893L310.492 139.908C310.179 140.937 309.928 141.984 309.741 143.044L306.148 145.023V150.951L309.568 148.921C309.717 150.003 310.094 151.041 310.675 151.966L308.107 156.32L311.355 158.776L313.639 154.3H316.481V158.776L320.754 156.168V151.763C321.735 150.801 322.6 149.728 323.332 148.565L325.9 150.321L329.006 144.394L326.428 142.496L326.681 141.603C326.874 140.902 327.067 140.212 327.23 139.542Z" fill="white"/>
<path d="M323.226 143.502C325.095 139.593 324.528 135.428 321.958 134.2C319.389 132.971 315.791 135.145 313.923 139.054C312.054 142.964 312.621 147.129 315.191 148.357C317.76 149.585 321.358 147.412 323.226 143.502Z" fill="#68E1FD"/>
</g>
<defs>
<linearGradient id="paint0_linear_2196_3489" x1="178.735" y1="224.366" x2="265.172" y2="157.66" gradientUnits="userSpaceOnUse">
<stop stop-color="white" stop-opacity="0"/>
<stop offset="1"/>
</linearGradient>
<linearGradient id="paint1_linear_2196_3489" x1="113.562" y1="120.846" x2="160.282" y2="84.7828" gradientUnits="userSpaceOnUse">
<stop stop-color="white" stop-opacity="0"/>
<stop offset="1"/>
</linearGradient>
<linearGradient id="paint2_linear_2196_3489" x1="40.634" y1="166.988" x2="87.3646" y2="130.925" gradientUnits="userSpaceOnUse">
<stop stop-color="white" stop-opacity="0"/>
<stop offset="1"/>
</linearGradient>
<clipPath id="clip0_2196_3489">
<rect width="391.677" height="266.225" fill="white"/>
</clipPath>
</defs>
</svg>
