<svg width="96" height="96" viewBox="0 0 96 96" fill="none" xmlns="http://www.w3.org/2000/svg">
<g clip-path="url(#clip0_1364_2263)">
<ellipse cx="47.52" cy="79.68" rx="8.64" ry="8.16" fill="#EB6464"/>
<path d="M44.16 27.8399L41.52 28.5599V29.2799L41.28 29.9999L40.8 30.4799H40.08L39.36 30.7199L38.64 31.1999L37.92 31.6799L37.44 32.1599L36.48 32.6399L34.8 34.3199L34.08 34.7999L33.36 35.7599L33.12 36.4799L32.88 36.9599L32.16 37.9199L31.68 39.1199L31.44 40.0799L31.2 41.0399L30.96 41.9999V42.9599L30.72 43.9199V44.6399L30.48 45.5999L30.72 46.7999V47.7599V48.7199V49.4399V50.6399L30.96 51.8399L31.2 52.7999L30.96 53.5199L30.48 53.9999L30 54.2399L30.24 55.1999L30.48 55.9199L30.96 56.6399L31.44 57.8399L31.68 58.7999L32.4 59.7599L33.12 60.9599L34.08 62.1599L35.04 63.1199L36 64.3199L36.96 65.2799L37.92 66.2399L39.12 67.1999L40.32 68.1599L41.76 69.1199L42.72 70.0799L43.68 70.7999L45.12 71.5199L46.56 72.4799L47.76 72.9599L49.92 74.1599H54.24H75.6H76.08L76.32 73.6799L76.56 73.4399V72.9599L76.32 72.2399L76.08 71.9999L75.6 71.2799L75.12 70.5599L74.4 69.3599L73.44 67.9199L72.72 66.4799L72 65.0399L71.52 63.3599L71.04 61.9199L70.56 60.4799L70.32 59.0399L70.08 57.8399V48.7199H69.84H69.12H68.4L67.68 48.4799L66.96 48.2399L66 47.9999L65.04 47.7599L64.08 47.2799L63.36 47.0399L62.4 46.5599L61.44 45.8399L60.48 45.1199L59.52 43.9199L59.04 43.4399L58.56 42.9599L58.32 42.4799L57.84 41.7599L57.36 41.0399L57.12 40.5599L56.88 40.0799L56.64 39.5999L56.4 39.1199V38.6399L56.16 38.1599V37.9199V37.6799L55.92 37.4399V36.9599L55.68 36.4799V35.9999V35.5199V35.0399V34.3199V34.0799V33.5999V32.8799V32.6399V32.1599L55.92 31.6799V31.1999L56.16 30.7199V30.2399V29.9999L56.4 29.5199L56.64 29.0399L56.16 28.7999L55.44 28.5599L54.96 28.3199H54.48L53.76 28.0799L53.28 27.8399H52.8L52.56 27.5999H52.08H51.84L51.12 27.3599H50.64H50.16H49.44H48.96H48.48H48H47.28H46.8H46.32L45.6 27.5999H44.88L44.16 27.8399Z" fill="#EB6464" stroke="#EB6464" stroke-width="0.48"/>
<ellipse cx="47.7599" cy="16.0801" rx="4.08" ry="5.52" fill="#EB6464"/>
<path d="M63.1372 34.0896C63.1373 31.3052 64.051 28.5978 65.7379 26.3827C67.4248 24.1675 69.7919 22.567 72.476 21.8265C70.587 21.3044 68.6029 21.2257 66.6785 21.5967C64.754 21.9677 62.9413 22.7782 61.3818 23.9652C59.8222 25.1521 58.558 26.6833 57.6877 28.4394C56.8174 30.1954 56.3646 32.1288 56.3646 34.0886C56.3646 36.0485 56.8174 37.9818 57.6877 39.7379C58.558 41.4939 59.8222 43.0251 61.3818 44.2121C62.9413 45.399 64.754 46.2096 66.6785 46.5806C68.6029 46.9515 70.587 46.8729 72.476 46.3507C69.7921 45.6107 67.4251 44.0105 65.7381 41.7956C64.0511 39.5808 63.1374 36.8737 63.1372 34.0896Z" fill="#EBFA44"/>
<path d="M55.3382 76.7788C55.3382 76.7788 39.287 75.5595 41.6525 86.8664C41.6525 86.8664 33.2832 83.2184 34.0185 75.7708L55.3382 76.7788Z" fill="#E34149"/>
<path d="M50.0007 74.133C50.0007 74.133 29.6065 64.7884 29.5086 50.4728C29.4106 36.1573 38.2522 25.0367 52.5485 27.9013L58.8231 29.7868L61.8778 22.4293L51.2737 19.2709C51.2737 19.2709 45.4887 21.55 44.6554 16.844C43.8221 12.1381 48.0001 10.5695 48.0001 10.5695C48.0001 10.5695 40.587 8.60916 40.1953 13.7068C39.8036 18.8044 40.1953 19.2748 40.1953 19.2748C40.1953 19.2748 22.1473 24.0748 21.1757 36.4895C20.2042 48.9042 21.0778 56.7512 19.1156 61.0655C17.1533 65.3797 12.363 72.8216 13.7242 74.7071C15.0855 76.5925 50.0007 74.133 50.0007 74.133Z" fill="#E34149"/>
<path d="M75.3082 76.7788H16.2951C15.546 76.7855 14.8114 76.5729 14.1816 76.1673C13.5519 75.7617 13.0545 75.1807 12.7508 74.496C12.4348 73.8055 12.3277 73.0377 12.4427 72.2872C12.5577 71.5367 12.8897 70.8362 13.3978 70.272C18.3898 64.6444 19.1137 56.4345 19.1578 55.8144V43.2192C19.1594 37.4842 21.0988 31.918 24.6614 27.4237C28.224 22.9295 33.2007 19.771 38.7841 18.4608C38.3154 17.3105 38.1362 16.0627 38.2624 14.827C38.3885 13.5914 38.8161 12.4055 39.5075 11.3737C40.1989 10.3418 41.1331 9.4955 42.228 8.90898C43.3229 8.32246 44.5451 8.0137 45.7872 8.0098C47.0293 8.00591 48.2533 8.30699 49.3519 8.88662C50.4505 9.46626 51.3899 10.3067 52.0878 11.3342C52.7857 12.3617 53.2207 13.5448 53.3546 14.7797C53.4885 16.0145 53.3172 17.2634 52.8557 18.4166C56.2057 19.1742 59.3676 20.6027 62.1505 22.6156C62.2918 22.7183 62.4115 22.8477 62.5028 22.9966C62.5941 23.1455 62.6552 23.3109 62.6825 23.4834C62.7099 23.6559 62.703 23.8321 62.6623 24.0019C62.6216 24.1718 62.5478 24.3319 62.4452 24.4732C62.3426 24.6146 62.2131 24.7343 62.0642 24.8256C61.9153 24.9169 61.7499 24.978 61.5774 25.0053C61.4049 25.0327 61.2287 25.0258 61.0589 24.9851C60.889 24.9444 60.7289 24.8706 60.5876 24.768C57.6332 22.6319 54.2093 21.2361 50.6036 20.6976C50.3759 20.6637 50.161 20.5712 49.98 20.429C49.7989 20.2869 49.6581 20.1 49.5713 19.8868C49.4844 19.6737 49.4547 19.4416 49.4848 19.2134C49.515 18.9852 49.6041 18.7688 49.7434 18.5856C50.3995 17.728 50.7539 16.6778 50.7514 15.598C50.7514 14.2873 50.2307 13.0303 49.3039 12.1035C48.3771 11.1766 47.1201 10.656 45.8093 10.656C44.4986 10.656 43.2416 11.1766 42.3148 12.1035C41.3879 13.0303 40.8673 14.2873 40.8673 15.598C40.8638 16.6869 41.2239 17.7458 41.8906 18.6067C42.0296 18.7888 42.1191 19.0038 42.1502 19.2308C42.1813 19.4578 42.153 19.6889 42.0681 19.9017C41.9832 20.1145 41.8445 20.3016 41.6657 20.4448C41.4868 20.588 41.2739 20.6824 41.0477 20.7187C35.6755 21.5384 30.7769 24.2618 27.2453 28.3922C23.7138 32.5226 21.7845 37.7848 21.8093 43.2192V55.8604C21.8093 55.8892 21.8093 55.9161 21.8093 55.9449C21.7863 56.3289 21.1354 65.5296 15.385 72.0249C15.2169 72.2085 15.1066 72.4375 15.068 72.6834C15.0295 72.9293 15.0642 73.1811 15.1681 73.4073C15.2626 73.6273 15.4209 73.814 15.6224 73.9433C15.8239 74.0727 16.0595 74.1387 16.2989 74.1331H75.3082C75.5476 74.1387 75.7832 74.0727 75.9848 73.9433C76.1863 73.814 76.3445 73.6273 76.4391 73.4073C76.5424 73.181 76.5769 72.9293 76.5384 72.6835C76.4998 72.4377 76.3898 72.2087 76.2221 72.0249C72.0404 67.3017 70.5485 61.1308 70.0321 57.8745C70.0206 57.806 70.0148 57.7366 70.0148 57.6672V47.6044C70.0278 47.2621 70.173 46.938 70.4198 46.7004C70.6667 46.4628 70.996 46.3301 71.3386 46.3301C71.6812 46.3301 72.0105 46.4628 72.2574 46.7004C72.5042 46.938 72.6494 47.2621 72.6625 47.6044V57.5616C73.1482 60.5587 74.5095 66.0979 78.2036 70.27C78.712 70.834 79.0444 71.5344 79.1597 72.285C79.275 73.0355 79.1682 73.8034 78.8525 74.494C78.5491 75.1791 78.0519 75.7605 77.4221 76.1665C76.7923 76.5725 76.0575 76.7853 75.3082 76.7788Z" fill="#E34149"/>
<path d="M45.2755 88.7691C41.8986 88.7651 38.6612 87.4218 36.2734 85.034C33.8855 82.6462 32.5423 79.4088 32.5382 76.0319C32.5382 75.681 32.6776 75.3445 32.9257 75.0964C33.1738 74.8484 33.5102 74.709 33.8611 74.709C34.2119 74.709 34.5484 74.8484 34.7965 75.0964C35.0446 75.3445 35.184 75.681 35.184 76.0319C35.184 78.7083 36.2472 81.2751 38.1397 83.1676C40.0322 85.0602 42.599 86.1234 45.2755 86.1234C47.9519 86.1234 50.5187 85.0602 52.4113 83.1676C54.3038 81.2751 55.367 78.7083 55.367 76.0319C55.38 75.6895 55.5252 75.3655 55.7721 75.1279C56.0189 74.8902 56.3482 74.7575 56.6909 74.7575C57.0335 74.7575 57.3628 74.8902 57.6096 75.1279C57.8565 75.3655 58.0016 75.6895 58.0147 76.0319C58.0101 79.4089 56.6664 82.6463 54.2783 85.0341C51.8902 87.4219 48.6526 88.7651 45.2755 88.7691Z" fill="#E34149"/>
<path d="M29.8638 54.2899C29.5626 54.2895 29.2706 54.1863 29.036 53.9974C28.8014 53.8085 28.6382 53.5453 28.5735 53.2511C27.9039 49.77 27.8099 46.2027 28.2951 42.6911C29.3991 35.1724 33.4196 30.0825 39.9207 27.9705C40.2516 27.8735 40.6072 27.9093 40.912 28.0703C41.2169 28.2313 41.447 28.5048 41.5534 28.8327C41.6599 29.1606 41.6344 29.5171 41.4822 29.8264C41.3301 30.1358 41.0634 30.3737 40.7387 30.4895C35.1822 32.2886 31.8721 36.5241 30.9121 43.0732C30.4778 46.2656 30.5601 49.507 31.1559 52.6732C31.1992 52.8668 31.1983 53.0676 31.1533 53.2608C31.1083 53.454 31.0204 53.6346 30.8961 53.7891C30.7718 53.9437 30.6143 54.0683 30.4352 54.1536C30.2562 54.239 30.0602 54.2829 29.8619 54.2822L29.8638 54.2899Z" fill="#E34149"/>
<path d="M70.32 48.9273C67.3873 48.9273 64.5204 48.0577 62.0819 46.4283C59.6434 44.799 57.7429 42.4831 56.6206 39.7737C55.4982 37.0642 55.2046 34.0827 55.7767 31.2063C56.3489 28.33 57.7611 25.6878 59.8349 23.6141C61.9086 21.5403 64.5508 20.1281 67.4272 19.5559C70.3035 18.9838 73.285 19.2774 75.9945 20.3997C78.704 21.522 81.0198 23.4226 82.6491 25.8611C84.2785 28.2996 85.1481 31.1664 85.1481 34.0992C85.1436 38.0304 83.5799 41.7994 80.8 44.5792C78.0202 47.359 74.2513 48.9228 70.32 48.9273ZM70.32 21.9187C67.9104 21.9183 65.5548 22.6325 63.5511 23.971C61.5474 25.3095 59.9857 27.2121 59.0634 29.4382C58.1411 31.6643 57.8997 34.1139 58.3697 36.4773C58.8397 38.8406 60 41.0115 61.7038 42.7153C63.4077 44.4192 65.5785 45.5795 67.9419 46.0495C70.3052 46.5195 72.7548 46.2781 74.981 45.3558C77.2071 44.4335 79.1097 42.8717 80.4482 40.8681C81.7866 38.8644 82.5008 36.5088 82.5005 34.0992C82.4964 30.8699 81.2118 27.7742 78.9284 25.4908C76.645 23.2073 73.5492 21.9227 70.32 21.9187Z" fill="#EBFA44"/>
<path d="M70.8326 40.8767C70.6583 40.8772 70.4856 40.8433 70.3245 40.7769C70.1633 40.7106 70.0168 40.6131 69.8934 40.49C69.7699 40.367 69.672 40.2207 69.6052 40.0598C69.5384 39.8988 69.504 39.7262 69.504 39.5519V31.3631L69.0643 31.772C68.937 31.8903 68.7876 31.9823 68.6247 32.0428C68.4618 32.1034 68.2886 32.1312 68.1149 32.1248C67.9413 32.1184 67.7706 32.0778 67.6126 32.0054C67.4547 31.933 67.3125 31.8303 67.1942 31.7029C67.076 31.5756 66.984 31.4262 66.9234 31.2633C66.8629 31.1004 66.8351 30.9272 66.8415 30.7536C66.8479 30.5799 66.8885 30.4092 66.9608 30.2512C67.0332 30.0933 67.136 29.9511 67.2633 29.8328L69.9283 27.358C70.1167 27.1841 70.3515 27.0686 70.6042 27.0255C70.8569 26.9823 71.1167 27.0135 71.3521 27.1151C71.5875 27.2168 71.7883 27.3845 71.9302 27.598C72.0721 27.8115 72.1491 28.0616 72.1517 28.318V39.5519C72.1517 39.9022 72.0129 40.2383 71.7657 40.4866C71.5185 40.7349 71.183 40.8752 70.8326 40.8767Z" fill="#EBFA44"/>
<path d="M81.7421 80.7793C81.9113 80.8301 82.0888 80.847 82.2645 80.8292C82.4403 80.8113 82.6108 80.759 82.7663 80.6752C82.9218 80.5913 83.0592 80.4777 83.1708 80.3407C83.2823 80.2038 83.3657 80.0461 83.4163 79.8769C86.5133 69.5569 82.0397 64.2366 81.8477 64.0158C81.7321 63.8824 81.5913 63.7731 81.4335 63.6941C81.2756 63.6151 81.1038 63.568 80.9277 63.5554C80.7517 63.5428 80.5748 63.5651 80.4074 63.6208C80.2399 63.6766 80.0851 63.7648 79.9517 63.8804C79.8183 63.996 79.709 64.1368 79.63 64.2946C79.551 64.4525 79.5039 64.6243 79.4913 64.8004C79.4788 64.9764 79.501 65.1532 79.5568 65.3207C79.6125 65.4882 79.7007 65.643 79.8163 65.7764C79.8528 65.8186 83.5181 70.1924 80.8416 79.105C80.7908 79.2741 80.7737 79.4515 80.7915 79.6272C80.8092 79.8028 80.8614 79.9732 80.945 80.1287C81.0286 80.2842 81.1421 80.4217 81.2788 80.5333C81.4156 80.6449 81.573 80.7285 81.7421 80.7793Z" fill="#E34149"/>
<path d="M86.7228 86.689C86.8911 86.7742 87.0678 86.8026 87.2426 86.7727C87.4175 86.7427 87.5871 86.6549 87.7418 86.5143C87.8965 86.3737 88.0333 86.1831 88.1443 85.9534C88.2552 85.7236 88.3383 85.4592 88.3886 85.1753C97.056 70.9442 87.0189 58.9405 86.8279 58.5701C86.7128 58.3464 86.5728 58.1631 86.4157 58.0306C86.2587 57.8981 86.0877 57.819 85.9125 57.798C85.7374 57.7769 85.5614 57.8142 85.3948 57.9077C85.2282 58.0012 85.0741 58.1492 84.9414 58.3431C84.8087 58.537 84.7 58.7731 84.6214 59.0379C84.5428 59.3026 84.4959 59.5909 84.4834 59.8862C84.4709 60.1816 84.493 60.4781 84.5485 60.759C84.604 61.04 84.6917 61.2997 84.8067 61.5234C84.843 61.5943 94.272 71.6162 85.8268 83.8807C85.7763 84.1642 85.7593 84.4618 85.777 84.7565C85.7946 85.0511 85.8465 85.3369 85.9297 85.5977C86.0129 85.8585 86.1258 86.0891 86.2619 86.2764C86.3979 86.4636 86.5546 86.6038 86.7228 86.689Z" fill="#E34149"/>
<path d="M4.80309 57.6953C4.63476 57.6101 4.45812 57.5816 4.28327 57.6116C4.10842 57.6416 3.93878 57.7294 3.78406 57.8699C3.62935 58.0105 3.4926 58.2011 3.38162 58.4309C3.27064 58.6607 3.18761 58.9251 3.13729 59.2089C-5.5301 73.44 4.50699 85.4438 4.69802 85.8141C4.81304 86.0379 4.95308 86.2212 5.11013 86.3537C5.26718 86.4862 5.43818 86.5652 5.61335 86.5863C5.78853 86.6074 5.96445 86.5701 6.13107 86.4766C6.2977 86.383 6.45176 86.2351 6.58446 86.0412C6.71717 85.8473 6.82593 85.6112 6.90452 85.3464C6.98311 85.0816 7.03 84.7934 7.0425 84.498C7.05501 84.2027 7.03289 83.9061 6.97741 83.6252C6.92193 83.3443 6.83417 83.0846 6.71915 82.8609C6.68285 82.79 -2.7461 72.768 5.69903 60.5036C5.74962 60.22 5.76656 59.9224 5.74891 59.6278C5.73125 59.3332 5.67935 59.0473 5.59615 58.7865C5.51295 58.5258 5.40009 58.2951 5.26401 58.1079C5.12794 57.9207 4.97132 57.7805 4.80309 57.6953Z" fill="#E34149"/>
<path d="M9.47828 80.8381C9.68763 80.8382 9.8941 80.7893 10.0812 80.6955C10.2684 80.6016 10.431 80.4653 10.5561 80.2975C10.6813 80.1296 10.7654 79.9349 10.802 79.7287C10.8385 79.5226 10.8264 79.3108 10.7666 79.1101C8.12852 70.3146 11.6325 65.9716 11.7996 65.7738C12.0323 65.5037 12.1481 65.1522 12.1217 64.7966C12.0952 64.441 11.9286 64.1105 11.6584 63.8778C11.3883 63.6451 11.0368 63.5292 10.6812 63.5557C10.3256 63.5822 9.99515 63.7488 9.76244 64.0189C9.57044 64.2417 5.09684 69.562 8.19188 79.882C8.27518 80.1584 8.44526 80.4006 8.67695 80.5728C8.90863 80.745 9.1896 80.8381 9.47828 80.8381Z" fill="#E34149"/>
</g>
<defs>
<clipPath id="clip0_1364_2263">
<rect width="96" height="96" fill="white"/>
</clipPath>
</defs>
</svg>
