<svg width="196" height="251" viewBox="0 0 196 251" fill="none" xmlns="http://www.w3.org/2000/svg">
<g clip-path="url(#clip0_1625_2966)">
<path d="M194.418 1.85107V249.144H1.5835V31.5511L34.5505 1.85107H194.418Z" fill="white"/>
<path d="M194.417 250.508H1.58291C1.22487 250.508 0.881489 250.366 0.628315 250.112C0.375141 249.859 0.23291 249.516 0.23291 249.158V31.5512C0.233355 31.3628 0.27322 31.1766 0.349945 31.0046C0.426671 30.8325 0.538563 30.6784 0.678413 30.5522L33.6454 0.852218C33.893 0.627177 34.2153 0.502094 34.5499 0.501221H194.417C194.775 0.501221 195.118 0.643451 195.372 0.896626C195.625 1.1498 195.767 1.49318 195.767 1.85122V249.158C195.767 249.516 195.625 249.859 195.372 250.112C195.118 250.366 194.775 250.508 194.417 250.508ZM2.93291 247.808H193.067V3.18772H35.1169L2.9869 32.1587L2.93291 247.808Z" fill="#093F68"/>
<path d="M194.418 122.365H1.5835V249.144H194.418V122.365Z" fill="#68E1FD"/>
<path d="M194.417 250.508H1.58291C1.22487 250.508 0.881489 250.365 0.628315 250.112C0.375141 249.859 0.23291 249.516 0.23291 249.158V122.366C0.23291 122.008 0.375141 121.664 0.628315 121.411C0.881489 121.158 1.22487 121.016 1.58291 121.016H194.417C194.775 121.016 195.118 121.158 195.372 121.411C195.625 121.664 195.767 122.008 195.767 122.366V249.158C195.767 249.516 195.625 249.859 195.372 250.112C195.118 250.365 194.775 250.508 194.417 250.508ZM2.93291 247.808H193.067V123.716H2.93291V247.808Z" fill="#093F68"/>
<path d="M1.59619 31.5511H34.5632V1.85107L1.59619 31.5511Z" fill="#68E1FD"/>
<path d="M34.5496 32.9011H1.58261C1.31157 32.8977 1.04782 32.8128 0.82571 32.6574C0.603595 32.5021 0.433401 32.2834 0.337268 32.03C0.241135 31.7766 0.223518 31.5 0.286717 31.2365C0.349917 30.9729 0.491002 30.7344 0.691608 30.5521L33.6586 0.852099C33.8519 0.679117 34.0909 0.56548 34.3471 0.52478C34.6033 0.48408 34.8657 0.518041 35.1031 0.622601C35.3446 0.727992 35.55 0.901745 35.6939 1.12244C35.8378 1.34313 35.914 1.60112 35.9131 1.8646V31.5646C35.9113 31.7419 35.8747 31.9171 35.8052 32.0802C35.7357 32.2433 35.6348 32.3912 35.5082 32.5153C35.3816 32.6394 35.2317 32.7373 35.0673 32.8035C34.9028 32.8697 34.7269 32.9029 34.5496 32.9011ZM5.0926 30.2011H33.1996V4.8751L5.0926 30.2011Z" fill="#093F68"/>
<path d="M169.253 209.144H100.16C95.4555 209.144 91.6416 212.958 91.6416 217.662V218.918C91.6416 223.622 95.4555 227.436 100.16 227.436H169.253C173.958 227.436 177.772 223.622 177.772 218.918V217.662C177.772 212.958 173.958 209.144 169.253 209.144Z" fill="#FFBC0E"/>
<path d="M169.239 228.773H100.146C98.8518 228.773 97.5704 228.518 96.3747 228.023C95.179 227.527 94.0926 226.801 93.1775 225.886C92.2624 224.971 91.5364 223.885 91.0412 222.689C90.5459 221.493 90.291 220.212 90.291 218.918V217.662C90.291 215.047 91.3289 212.539 93.1767 210.689C95.0244 208.839 97.5311 207.797 100.146 207.794H169.239C171.855 207.797 174.363 208.838 176.213 210.688C178.063 212.538 179.104 215.046 179.108 217.662V218.918C179.104 221.533 178.063 224.039 176.212 225.887C174.362 227.735 171.854 228.773 169.239 228.773ZM100.146 210.548C98.2472 210.551 96.4273 211.308 95.0858 212.652C93.7444 213.996 92.991 215.817 92.991 217.716V218.972C92.9946 220.868 93.7496 222.686 95.0906 224.027C96.4317 225.368 98.2495 226.123 100.146 226.127H169.239C171.138 226.127 172.959 225.373 174.303 224.032C175.647 222.69 176.404 220.871 176.408 218.972V217.716C176.408 216.775 176.222 215.843 175.862 214.973C175.502 214.103 174.974 213.313 174.308 212.647C173.642 211.982 172.852 211.454 171.982 211.093C171.113 210.733 170.18 210.548 169.239 210.548H100.146Z" fill="#093F68"/>
<path d="M50.3583 199.559C66.7164 199.559 79.9772 186.298 79.9772 169.94C79.9772 153.582 66.7164 140.321 50.3583 140.321C34.0001 140.321 20.7393 153.582 20.7393 169.94C20.7393 186.298 34.0001 199.559 50.3583 199.559Z" fill="white"/>
<path d="M50.3589 200.909C44.2343 200.906 38.2481 199.087 33.1571 195.683C28.066 192.278 24.0987 187.441 21.7568 181.782C19.4149 176.123 18.8036 169.896 20 163.89C21.1965 157.883 24.1471 152.366 28.4787 148.037C32.8103 143.707 38.3285 140.759 44.3356 139.565C50.3426 138.371 56.5687 138.985 62.2268 141.329C67.8848 143.674 72.7207 147.643 76.1231 152.736C79.5254 157.828 81.3413 163.815 81.3413 169.94C81.32 178.149 78.0484 186.016 72.2423 191.819C66.4362 197.623 58.5681 200.891 50.3589 200.909ZM50.3589 141.671C44.7683 141.673 39.3041 143.334 34.6571 146.441C30.0101 149.549 26.3889 153.965 24.2513 159.131C22.1138 164.297 21.5559 169.98 22.6482 175.463C23.7405 180.946 26.4339 185.982 30.3879 189.934C34.3419 193.886 39.379 196.577 44.8623 197.667C50.3456 198.756 56.0288 198.196 61.1935 196.056C66.3582 193.916 70.7725 190.292 73.8781 185.644C76.9837 180.995 78.6413 175.53 78.6413 169.94C78.6128 162.451 75.6226 155.278 70.3237 149.987C65.0247 144.695 57.8474 141.715 50.3589 141.698V141.671Z" fill="#093F68"/>
<path d="M163.044 151.256H144.535C144.177 151.256 143.834 151.113 143.58 150.86C143.327 150.607 143.185 150.264 143.185 149.906C143.185 149.548 143.327 149.204 143.58 148.951C143.834 148.698 144.177 148.556 144.535 148.556H163.044C163.402 148.556 163.745 148.698 163.998 148.951C164.251 149.204 164.394 149.548 164.394 149.906C164.394 150.264 164.251 150.607 163.998 150.86C163.745 151.113 163.402 151.256 163.044 151.256Z" fill="white"/>
<path d="M127.416 151.256H96.5419C96.1839 151.256 95.8405 151.113 95.5873 150.86C95.3341 150.607 95.1919 150.264 95.1919 149.906C95.1919 149.548 95.3341 149.204 95.5873 148.951C95.8405 148.698 96.1839 148.556 96.5419 148.556H127.416C127.774 148.556 128.118 148.698 128.371 148.951C128.624 149.204 128.766 149.548 128.766 149.906C128.766 150.264 128.624 150.607 128.371 150.86C128.118 151.113 127.774 151.256 127.416 151.256Z" fill="white"/>
<path d="M172.857 169.764H96.5419C96.1839 169.764 95.8405 169.622 95.5873 169.369C95.3341 169.116 95.1919 168.772 95.1919 168.414C95.1919 168.056 95.3341 167.713 95.5873 167.459C95.8405 167.206 96.1839 167.064 96.5419 167.064H172.857C173.215 167.064 173.559 167.206 173.812 167.459C174.065 167.713 174.207 168.056 174.207 168.414C174.207 168.772 174.065 169.116 173.812 169.369C173.559 169.622 173.215 169.764 172.857 169.764Z" fill="white"/>
<path d="M151.622 188.273H96.5419C96.1839 188.273 95.8405 188.13 95.5873 187.877C95.3341 187.624 95.1919 187.281 95.1919 186.923C95.1919 186.565 95.3341 186.221 95.5873 185.968C95.8405 185.715 96.1839 185.573 96.5419 185.573H151.622C151.98 185.573 152.323 185.715 152.576 185.968C152.83 186.221 152.972 186.565 152.972 186.923C152.972 187.281 152.83 187.624 152.576 187.877C152.323 188.13 151.98 188.273 151.622 188.273Z" fill="white"/>
<path d="M44.364 185.694L26.112 165.606C25.769 165.237 25.5031 164.804 25.33 164.331C25.1568 163.858 25.08 163.355 25.1039 162.852C25.1278 162.349 25.2519 161.856 25.4691 161.401C25.6863 160.947 25.9921 160.541 26.3685 160.206L31.4445 155.603C31.8124 155.258 32.2457 154.99 32.7188 154.816C33.1919 154.642 33.6952 154.565 34.1988 154.589C34.7023 154.613 35.196 154.737 35.6505 154.956C36.1049 155.174 36.511 155.481 36.8445 155.859L47.8335 168.009L78.1005 139.875C78.4626 139.537 78.8881 139.273 79.3523 139.099C79.8166 138.925 80.3106 138.845 80.806 138.862C81.3014 138.88 81.7885 138.995 82.2393 139.201C82.6901 139.408 83.0957 139.701 83.433 140.064L88.104 145.086C88.7843 145.819 89.1464 146.792 89.111 147.791C89.0756 148.791 88.6455 149.736 87.915 150.419L49.6695 185.924C49.3079 186.26 48.8829 186.522 48.4192 186.693C47.9555 186.864 47.4624 186.941 46.9687 186.92C46.4749 186.898 45.9904 186.779 45.5432 186.569C45.096 186.358 44.6952 186.061 44.364 185.694Z" fill="#70CC40"/>
<path d="M47.1327 188.273H46.9167C46.2444 188.245 45.5842 188.084 44.9747 187.799C44.3652 187.514 43.8184 187.111 43.3662 186.612L25.1007 166.524C24.1887 165.515 23.7137 164.186 23.7795 162.827C23.8452 161.468 24.4465 160.191 25.4517 159.275L30.5277 154.671C31.5329 153.758 32.8591 153.281 34.2155 153.345C35.5718 153.408 36.8478 154.006 37.7637 155.009L47.8347 166.106L77.1027 138.89C78.1015 137.968 79.4247 137.478 80.7832 137.529C82.1416 137.58 83.4248 138.166 84.3522 139.16L89.0097 144.182C89.4705 144.674 89.8294 145.252 90.066 145.883C90.3026 146.514 90.4121 147.186 90.3882 147.86C90.3644 148.534 90.2077 149.196 89.9271 149.809C89.6465 150.422 89.2476 150.973 88.7532 151.431L50.5752 186.909C49.6403 187.781 48.411 188.268 47.1327 188.273ZM45.3507 184.79C45.5612 185.025 45.8166 185.215 46.1018 185.349C46.387 185.484 46.6962 185.56 47.0112 185.573C47.6484 185.598 48.2695 185.37 48.7392 184.938L86.9172 149.447C87.3871 149.008 87.6638 148.4 87.6866 147.757C87.7094 147.115 87.4764 146.489 87.0387 146.018L82.3677 140.996C81.9286 140.526 81.3211 140.249 80.6783 140.226C80.0356 140.204 79.41 140.437 78.9387 140.874L48.6717 169.008C48.5418 169.13 48.389 169.225 48.2221 169.288C48.0553 169.35 47.8778 169.379 47.6997 169.373C47.5205 169.365 47.3446 169.322 47.1824 169.245C47.0201 169.169 46.8747 169.061 46.7547 168.927L35.7657 156.777C35.552 156.54 35.2934 156.348 35.0049 156.211C34.7165 156.075 34.4038 155.997 34.085 155.982C33.7662 155.967 33.4475 156.015 33.1474 156.124C32.8474 156.232 32.5718 156.399 32.3367 156.615L27.2607 161.219C26.7883 161.654 26.5064 162.258 26.4761 162.9C26.4458 163.542 26.6695 164.17 27.0987 164.648L45.3507 184.79Z" fill="#093F68"/>
<path d="M34.5505 112.187H15.6505C15.1134 112.187 14.5984 111.973 14.2186 111.593C13.8388 111.214 13.6255 110.699 13.6255 110.162V91.2616C13.6255 90.7245 13.8388 90.2094 14.2186 89.8297C14.5984 89.4499 15.1134 89.2366 15.6505 89.2366H34.5505C35.0865 89.2401 35.5995 89.4546 35.9785 89.8336C36.3575 90.2126 36.572 90.7256 36.5755 91.2616V110.162C36.5755 110.699 36.3621 111.214 35.9824 111.593C35.6026 111.973 35.0876 112.187 34.5505 112.187ZM17.7295 108.137H32.5795V93.2866H17.7295V108.137Z" fill="#DFEAEF"/>
<path d="M182.861 109.905H144.534C143.997 109.905 143.482 109.692 143.102 109.312C142.723 108.932 142.509 108.417 142.509 107.88C142.509 107.343 142.723 106.828 143.102 106.448C143.482 106.068 143.997 105.855 144.534 105.855H182.861C183.398 105.855 183.913 106.068 184.293 106.448C184.672 106.828 184.886 107.343 184.886 107.88C184.886 108.417 184.672 108.932 184.293 109.312C183.913 109.692 183.398 109.905 182.861 109.905Z" fill="#DFEAEF"/>
<path d="M176.57 16.1475H162.57C162.033 16.1475 161.518 15.9342 161.139 15.5544C160.759 15.1747 160.545 14.6596 160.545 14.1225C160.545 13.5855 160.759 13.0704 161.139 12.6906C161.518 12.3109 162.033 12.0975 162.57 12.0975H176.57C177.107 12.0975 177.622 12.3109 178.002 12.6906C178.382 13.0704 178.595 13.5855 178.595 14.1225C178.595 14.6596 178.382 15.1747 178.002 15.5544C177.622 15.9342 177.107 16.1475 176.57 16.1475Z" fill="#DFEAEF"/>
<path d="M152.877 16.1475H144.534C143.997 16.1475 143.482 15.9342 143.102 15.5544C142.723 15.1747 142.509 14.6596 142.509 14.1225C142.509 13.5855 142.723 13.0704 143.102 12.6906C143.482 12.3109 143.997 12.0975 144.534 12.0975H152.877C153.414 12.0975 153.929 12.3109 154.309 12.6906C154.689 13.0704 154.902 13.5855 154.902 14.1225C154.902 14.6596 154.689 15.1747 154.309 15.5544C153.929 15.9342 153.414 16.1475 152.877 16.1475Z" fill="#DFEAEF"/>
<path d="M91.0359 115.423C112.4 115.423 129.72 113.563 129.72 111.269C129.72 108.974 112.4 107.114 91.0359 107.114C69.6714 107.114 52.3521 108.974 52.3521 111.269C52.3521 113.563 69.6714 115.423 91.0359 115.423Z" fill="#D1D3D4"/>
<path d="M78.9051 84.5075L74.8857 31.5164L118.547 29.715L121.921 84.7887L78.9051 84.5075Z" fill="#68E1FD"/>
<path d="M139.134 98.8876H70.5336C69.4958 98.8862 68.4741 98.6297 67.5587 98.1406C66.6433 97.6515 65.8622 96.9448 65.2841 96.0829C64.706 95.2209 64.3487 94.23 64.2436 93.1974C64.1386 92.1649 64.289 91.1224 64.6816 90.1616L67.0349 84.4866L57.3197 25.1853L42.8042 21.5616C42.7378 21.5446 42.6754 21.5147 42.6206 21.4735C42.5658 21.4324 42.5197 21.3808 42.4849 21.3218C42.45 21.2628 42.4272 21.1975 42.4177 21.1297C42.4081 21.0618 42.4121 20.9927 42.4293 20.9264C42.4438 20.8597 42.4718 20.7967 42.5115 20.7412C42.5513 20.6857 42.6021 20.6389 42.6606 20.6038C42.7191 20.5687 42.7842 20.5459 42.8519 20.5369C42.9196 20.528 42.9884 20.5329 43.0541 20.5515L57.9132 24.2585C58.0123 24.284 58.1016 24.3381 58.1702 24.414C58.2387 24.4899 58.2833 24.5843 58.2985 24.6855L68.0866 84.4241C68.1078 84.5202 68.1078 84.6197 68.0866 84.7157L65.6812 90.5261C65.3538 91.3283 65.2283 92.1986 65.316 93.0606C65.4037 93.9226 65.7018 94.7499 66.184 95.4697C66.6663 96.1895 67.318 96.7799 68.0819 97.1888C68.8458 97.5978 69.6984 97.8128 70.5649 97.8151H139.165C139.303 97.8151 139.435 97.8699 139.533 97.9676C139.631 98.0652 139.686 98.1976 139.686 98.3357C139.686 98.4738 139.631 98.6062 139.533 98.7039C139.435 98.8015 139.303 98.8564 139.165 98.8564L139.134 98.8876Z" fill="#231F20"/>
<path d="M125.482 112.403C128.404 112.403 130.772 110.035 130.772 107.114C130.772 104.192 128.404 101.824 125.482 101.824C122.561 101.824 120.192 104.192 120.192 107.114C120.192 110.035 122.561 112.403 125.482 112.403Z" fill="#231F20"/>
<path d="M74.8859 112.403C77.8074 112.403 80.1757 110.035 80.1757 107.114C80.1757 104.192 77.8074 101.824 74.8859 101.824C71.9645 101.824 69.5962 104.192 69.5962 107.114C69.5962 110.035 71.9645 112.403 74.8859 112.403Z" fill="#231F20"/>
<path d="M136.04 85.3093L71.9595 84.9552C71.8307 84.9536 71.7068 84.9052 71.611 84.819C71.5152 84.7327 71.454 84.6146 71.4389 84.4867L66.472 41.2212C66.4623 41.1476 66.4694 41.0729 66.4929 41.0025C66.5163 40.9322 66.5555 40.8681 66.6073 40.8151C66.6531 40.7573 66.7119 40.7112 66.7788 40.6805C66.8457 40.6497 66.919 40.6352 66.9926 40.638L150.483 41.9917C150.565 41.9923 150.646 42.0125 150.719 42.0505C150.792 42.0885 150.855 42.1433 150.903 42.2103C150.951 42.2774 150.982 42.3549 150.994 42.4363C151.006 42.5178 150.999 42.601 150.972 42.679L136.53 84.9552C136.495 85.0578 136.429 85.147 136.342 85.2105C136.254 85.2739 136.149 85.3085 136.04 85.3093ZM72.4281 83.9139L135.665 84.2992L149.775 43.0538L67.5966 41.721L72.4281 83.9139Z" fill="#231F20"/>
<path d="M83.2057 84.9552C83.0736 84.953 82.947 84.9017 82.8508 84.8112C82.7545 84.7207 82.6954 84.5975 82.6851 84.4658L80.6025 41.419C80.5968 41.2799 80.646 41.144 80.7395 41.0408C80.833 40.9376 80.9633 40.8752 81.1023 40.8671C81.1707 40.8643 81.239 40.8751 81.3032 40.8987C81.3674 40.9223 81.4264 40.9583 81.4767 41.0048C81.527 41.0512 81.5676 41.1071 81.5963 41.1692C81.625 41.2314 81.6411 41.2986 81.6438 41.3669L83.7264 84.4138C83.7321 84.5501 83.684 84.6833 83.5924 84.7846C83.5009 84.8859 83.3732 84.9472 83.237 84.9552H83.2057Z" fill="#231F20"/>
<path d="M96.6696 85.0698C96.5315 85.0698 96.3991 85.0149 96.3014 84.9173C96.2038 84.8197 96.1489 84.6872 96.1489 84.5492V41.669C96.1516 41.5317 96.2073 41.4008 96.3044 41.3038C96.4014 41.2067 96.5323 41.151 96.6696 41.1483C96.8077 41.1483 96.9401 41.2032 97.0377 41.3008C97.1354 41.3984 97.1902 41.5309 97.1902 41.669V84.5492C97.1902 84.6872 97.1354 84.8197 97.0377 84.9173C96.9401 85.0149 96.8077 85.0698 96.6696 85.0698Z" fill="#231F20"/>
<path d="M112.185 85.0281C112.116 85.0255 112.049 85.0093 111.987 84.9806C111.925 84.952 111.869 84.9113 111.823 84.861C111.776 84.8107 111.74 84.7518 111.717 84.6875C111.693 84.6233 111.682 84.555 111.685 84.4867L113.861 41.9292C113.865 41.8608 113.883 41.7939 113.913 41.7322C113.943 41.6706 113.984 41.6154 114.036 41.5699C114.087 41.5245 114.147 41.4896 114.211 41.4673C114.276 41.4449 114.345 41.4356 114.413 41.4398C114.481 41.4425 114.548 41.4587 114.609 41.4875C114.671 41.5163 114.726 41.5571 114.772 41.6075C114.817 41.658 114.853 41.717 114.875 41.7812C114.897 41.8454 114.907 41.9134 114.903 41.9813L112.705 84.5387C112.7 84.6722 112.642 84.7983 112.545 84.8898C112.448 84.9813 112.318 85.031 112.185 85.0281Z" fill="#231F20"/>
<path d="M125.482 85.0698H125.419C125.282 85.0515 125.157 84.9804 125.071 84.8714C124.986 84.7625 124.946 84.6244 124.961 84.4866L130.251 42.1583C130.259 42.0899 130.281 42.0239 130.314 41.9638C130.348 41.9038 130.393 41.851 130.447 41.8085C130.502 41.7659 130.564 41.7345 130.63 41.7159C130.696 41.6973 130.766 41.6919 130.834 41.7001C130.902 41.7084 130.968 41.7299 131.028 41.7637C131.088 41.7974 131.141 41.8427 131.184 41.8968C131.226 41.951 131.258 42.013 131.276 42.0793C131.295 42.1456 131.3 42.2149 131.292 42.2833L126.002 84.6116C125.985 84.7377 125.923 84.8533 125.827 84.9374C125.732 85.0215 125.609 85.0685 125.482 85.0698Z" fill="#231F20"/>
<path d="M109.603 34.2341C109.534 34.2314 109.467 34.2152 109.405 34.1866C109.343 34.1579 109.287 34.1173 109.24 34.067C109.194 34.0167 109.158 33.9577 109.134 33.8935C109.111 33.8292 109.1 33.761 109.103 33.6926C109.103 33.578 109.394 21.395 106.27 13.6478C105.813 12.5374 105.07 11.5674 104.118 10.836C103.165 10.1047 102.036 9.63781 100.845 9.48266C95.868 8.51426 89.0996 10.9821 86.361 13.8144C82.3937 17.9796 85.7883 32.4326 85.8195 32.5576C85.8365 32.624 85.8399 32.6931 85.8296 32.7608C85.8193 32.8285 85.7954 32.8934 85.7595 32.9517C85.7235 33.01 85.6762 33.0605 85.6203 33.1001C85.5645 33.1397 85.5012 33.1677 85.4343 33.1824C85.3004 33.2137 85.1595 33.1907 85.0424 33.1185C84.9254 33.0464 84.8416 32.9308 84.8095 32.7971C84.6637 32.1827 81.2483 17.6151 85.6113 13.0751C88.5373 10.0345 95.5868 7.38968 101.043 8.43096C102.404 8.62394 103.691 9.16944 104.776 10.0133C105.861 10.8572 106.706 11.9702 107.228 13.2417C110.446 21.1867 110.154 33.1928 110.144 33.703C110.144 33.7736 110.13 33.8435 110.103 33.9087C110.075 33.9738 110.035 34.0328 109.985 34.0822C109.934 34.1317 109.875 34.1706 109.809 34.1967C109.743 34.2227 109.673 34.2354 109.603 34.2341Z" fill="#231F20"/>
<path d="M67.5753 85.0282C67.5083 85.0296 67.4416 85.0177 67.3792 84.9933C67.3168 84.969 67.2598 84.9325 67.2114 84.8861C67.1631 84.8397 67.1243 84.7842 67.0974 84.7228C67.0705 84.6614 67.056 84.5954 67.0546 84.5283C67.0518 84.46 67.0626 84.3917 67.0862 84.3275C67.1098 84.2632 67.1459 84.2043 67.1923 84.154C67.2387 84.1037 67.2946 84.0631 67.3567 84.0344C67.4189 84.0057 67.4861 83.9896 67.5545 83.9869L71.9487 83.8828C72.0166 83.88 72.0843 83.8908 72.1479 83.9145C72.2116 83.9382 72.2698 83.9744 72.3193 84.021C72.3688 84.0676 72.4084 84.1235 72.436 84.1856C72.4635 84.2477 72.4784 84.3147 72.4797 84.3826C72.4825 84.4518 72.4715 84.5209 72.4472 84.5858C72.4229 84.6507 72.386 84.7101 72.3384 84.7605C72.2909 84.811 72.2338 84.8514 72.1705 84.8795C72.1071 84.9076 72.0388 84.9227 71.9695 84.924L67.5857 85.0282H67.5753Z" fill="#231F20"/>
<path d="M142.903 55.2368C152.294 55.2368 159.907 47.6238 159.907 38.2326C159.907 28.8414 152.294 21.2284 142.903 21.2284C133.511 21.2284 125.898 28.8414 125.898 38.2326C125.898 47.6238 133.511 55.2368 142.903 55.2368Z" fill="white"/>
<path d="M142.903 55.7993C139.437 55.7993 136.049 54.7714 133.167 52.8458C130.285 50.9201 128.039 48.1831 126.712 44.9809C125.386 41.7786 125.039 38.2549 125.715 34.8555C126.391 31.456 128.06 28.3333 130.511 25.8824C132.962 23.4315 136.085 21.7625 139.484 21.0863C142.884 20.4101 146.408 20.7571 149.61 22.0835C152.812 23.4099 155.549 25.6561 157.475 28.5381C159.4 31.42 160.428 34.8083 160.428 38.2744C160.423 42.9206 158.575 47.3749 155.289 50.6602C152.004 53.9456 147.549 55.7937 142.903 55.7993ZM142.903 21.7908C139.643 21.7908 136.456 22.7576 133.745 24.5688C131.035 26.38 128.922 28.9544 127.674 31.9664C126.427 34.9784 126.1 38.2927 126.736 41.4902C127.372 44.6877 128.942 47.6248 131.248 49.93C133.553 52.2353 136.49 53.8052 139.688 54.4412C142.885 55.0773 146.199 54.7508 149.211 53.5032C152.223 52.2556 154.798 50.1429 156.609 47.4322C158.42 44.7215 159.387 41.5345 159.387 38.2744C159.39 36.107 158.965 33.9603 158.139 31.9568C157.312 29.9534 156.098 28.1324 154.568 26.5979C153.037 25.0634 151.219 23.8454 149.218 23.0134C147.216 22.1815 145.071 21.7519 142.903 21.7492V21.7908Z" fill="#231F20"/>
<path d="M153.399 33.0366C153.299 33.2062 153.184 33.3665 153.055 33.5156L140.757 45.782C140.331 46.2089 140.008 46.2089 139.591 45.782L132.677 38.6387C132.589 38.5762 132.517 38.4935 132.468 38.3974C132.418 38.3014 132.392 38.1949 132.392 38.0869C132.392 37.9788 132.418 37.8723 132.468 37.7763C132.517 37.6803 132.589 37.5975 132.677 37.535L134.416 35.9731C134.477 35.8932 134.556 35.8284 134.646 35.7839C134.737 35.7393 134.836 35.7161 134.937 35.7161C135.037 35.7161 135.137 35.7393 135.227 35.7839C135.317 35.8284 135.396 35.8932 135.457 35.9731L139.55 40.1382C139.611 40.2372 139.697 40.3188 139.799 40.3754C139.901 40.4321 140.016 40.4617 140.133 40.4617C140.249 40.4617 140.364 40.4321 140.466 40.3754C140.568 40.3188 140.654 40.2372 140.716 40.1382L150.264 30.6208C150.327 30.5263 150.412 30.4488 150.512 30.3952C150.612 30.3415 150.724 30.3135 150.837 30.3135C150.951 30.3135 151.062 30.3415 151.162 30.3952C151.262 30.4488 151.347 30.5263 151.41 30.6208C151.941 31.1623 152.451 31.6621 153.024 32.2452C153.143 32.3918 153.254 32.5448 153.357 32.7034L153.399 33.0366Z" fill="#68E1FD"/>
</g>
<defs>
<clipPath id="clip0_1625_2966">
<rect width="195.534" height="250.007" fill="white" transform="translate(0.23291 0.501221)"/>
</clipPath>
</defs>
</svg>
