<svg width="217" height="281" viewBox="0 0 217 281" fill="none" xmlns="http://www.w3.org/2000/svg">
<g clip-path="url(#clip0_1611_3222)">
<path d="M214.841 6.24561V279.493H1.76855V39.0628L38.1956 6.24561H214.841Z" fill="white"/>
<path d="M214.841 281H1.7683C1.37268 281 0.993261 280.843 0.713516 280.563C0.43377 280.283 0.276611 279.904 0.276611 279.508V39.063C0.277103 38.8548 0.321151 38.6491 0.40593 38.459C0.490709 38.2689 0.614344 38.0986 0.768871 37.9591L37.1959 5.14199C37.4695 4.89333 37.8256 4.75512 38.1953 4.75415H214.841C215.237 4.75415 215.616 4.91131 215.896 5.19105C216.176 5.4708 216.333 5.85022 216.333 6.24584V279.508C216.333 279.904 216.176 280.283 215.896 280.563C215.616 280.843 215.237 281 214.841 281ZM3.25999 278.017H213.349V7.72261H38.8218L3.31965 39.7342L3.25999 278.017Z" fill="#093F68"/>
<path d="M214.841 139.409H1.76855V279.493H214.841V139.409Z" fill="#68E1FD"/>
<path d="M214.841 281H1.7683C1.37268 281 0.993261 280.843 0.713516 280.563C0.43377 280.283 0.276611 279.904 0.276611 279.508V139.409C0.276611 139.013 0.43377 138.634 0.713516 138.354C0.993261 138.074 1.37268 137.917 1.7683 137.917H214.841C215.237 137.917 215.616 138.074 215.896 138.354C216.176 138.634 216.333 139.013 216.333 139.409V279.508C216.333 279.904 216.176 280.283 215.896 280.563C215.616 280.843 215.237 281 214.841 281ZM3.25999 278.017H213.349V140.9H3.25999V278.017Z" fill="#093F68"/>
<path d="M1.78345 39.0628H38.2105V6.24561L1.78345 39.0628Z" fill="#68E1FD"/>
<path d="M38.1952 40.5547H1.76818C1.4687 40.5509 1.17727 40.4571 0.931839 40.2854C0.686412 40.1138 0.498355 39.8722 0.392133 39.5921C0.28591 39.3121 0.266444 39.0066 0.336276 38.7153C0.406109 38.4241 0.562001 38.1606 0.783662 37.9591L37.2107 5.14199C37.4243 4.95085 37.6884 4.82529 37.9714 4.78032C38.2545 4.73535 38.5445 4.77287 38.8068 4.88841C39.0736 5.00486 39.3005 5.19685 39.4596 5.44071C39.6186 5.68456 39.7028 5.96963 39.7018 6.26076V39.0779C39.6999 39.2738 39.6594 39.4674 39.5826 39.6476C39.5058 39.8279 39.3943 39.9912 39.2544 40.1283C39.1145 40.2655 38.9489 40.3737 38.7672 40.4469C38.5855 40.52 38.3911 40.5567 38.1952 40.5547ZM5.64656 37.5713H36.7035V9.58723L5.64656 37.5713Z" fill="#093F68"/>
<path d="M187.036 235.295H110.691C105.493 235.295 101.279 239.509 101.279 244.707V246.094C101.279 251.293 105.493 255.507 110.691 255.507H187.036C192.234 255.507 196.449 251.293 196.449 246.094V244.707C196.449 239.509 192.234 235.295 187.036 235.295Z" fill="#FFBC0E"/>
<path d="M187.021 256.984H110.676C109.246 256.984 107.83 256.702 106.509 256.155C105.188 255.608 103.987 254.806 102.976 253.794C101.965 252.783 101.163 251.583 100.616 250.262C100.068 248.94 99.7866 247.524 99.7866 246.094V244.707C99.7866 241.818 100.933 239.047 102.975 237.002C105.017 234.958 107.787 233.807 110.676 233.803H187.021C189.911 233.807 192.683 234.957 194.727 237.001C196.771 239.045 197.921 241.816 197.925 244.707V246.094C197.921 248.984 196.77 251.754 194.726 253.795C192.681 255.837 189.91 256.984 187.021 256.984ZM110.676 236.846C108.578 236.85 106.567 237.686 105.085 239.171C103.602 240.656 102.77 242.669 102.77 244.767V246.154C102.774 248.25 103.608 250.258 105.09 251.74C106.572 253.222 108.58 254.056 110.676 254.06H187.021C189.119 254.06 191.131 253.228 192.616 251.745C194.101 250.263 194.937 248.252 194.941 246.154V244.767C194.941 243.727 194.737 242.697 194.339 241.736C193.94 240.775 193.357 239.902 192.621 239.166C191.886 238.43 191.013 237.847 190.052 237.449C189.091 237.051 188.061 236.846 187.021 236.846H110.676Z" fill="#093F68"/>
<path d="M55.6632 224.703C73.7382 224.703 88.3908 210.051 88.3908 191.976C88.3908 173.901 73.7382 159.248 55.6632 159.248C37.5882 159.248 22.9355 173.901 22.9355 191.976C22.9355 210.051 37.5882 224.703 55.6632 224.703Z" fill="white"/>
<path d="M55.6632 226.195C48.8959 226.192 42.2814 224.183 36.656 220.421C31.0306 216.659 26.647 211.314 24.0593 205.061C21.4716 198.808 20.796 191.928 22.1181 185.291C23.4401 178.654 26.7004 172.558 31.4866 167.774C36.2729 162.99 42.3702 159.732 49.0077 158.413C55.6452 157.094 62.5248 157.772 68.7767 160.363C75.0286 162.953 80.372 167.339 84.1315 172.966C87.8909 178.593 89.8974 185.209 89.8974 191.976C89.8738 201.047 86.2589 209.739 79.8434 216.152C73.4279 222.564 64.734 226.175 55.6632 226.195ZM55.6632 160.74C49.4859 160.743 43.4482 162.577 38.3135 166.011C33.1787 169.445 29.1774 174.325 26.8156 180.033C24.4537 185.741 23.8372 192.021 25.0442 198.079C26.2511 204.137 29.2272 209.701 33.5962 214.068C37.9652 218.435 43.531 221.409 49.5898 222.613C55.6485 223.817 61.9283 223.197 67.635 220.833C73.3418 218.468 78.2193 214.464 81.6509 209.328C85.0825 204.192 86.9141 198.153 86.9141 191.976C86.8826 183.701 83.5785 175.776 77.7234 169.929C71.8682 164.082 63.9377 160.789 55.6632 160.77V160.74Z" fill="#093F68"/>
<path d="M180.174 171.331H159.723C159.328 171.331 158.948 171.174 158.669 170.894C158.389 170.614 158.232 170.235 158.232 169.839C158.232 169.444 158.389 169.064 158.669 168.785C158.948 168.505 159.328 168.348 159.723 168.348H180.174C180.57 168.348 180.949 168.505 181.229 168.785C181.509 169.064 181.666 169.444 181.666 169.839C181.666 170.235 181.509 170.614 181.229 170.894C180.949 171.174 180.57 171.331 180.174 171.331Z" fill="white"/>
<path d="M140.808 171.331H106.694C106.298 171.331 105.919 171.174 105.639 170.894C105.359 170.614 105.202 170.235 105.202 169.839C105.202 169.444 105.359 169.064 105.639 168.785C105.919 168.505 106.298 168.348 106.694 168.348H140.808C141.204 168.348 141.584 168.505 141.863 168.785C142.143 169.064 142.3 169.444 142.3 169.839C142.3 170.235 142.143 170.614 141.863 170.894C141.584 171.174 141.204 171.331 140.808 171.331Z" fill="white"/>
<path d="M191.019 191.782H106.694C106.298 191.782 105.919 191.625 105.639 191.345C105.359 191.065 105.202 190.686 105.202 190.29C105.202 189.895 105.359 189.515 105.639 189.236C105.919 188.956 106.298 188.799 106.694 188.799H191.019C191.414 188.799 191.794 188.956 192.074 189.236C192.353 189.515 192.51 189.895 192.51 190.29C192.51 190.686 192.353 191.065 192.074 191.345C191.794 191.625 191.414 191.782 191.019 191.782Z" fill="white"/>
<path d="M167.554 212.233H106.694C106.298 212.233 105.919 212.076 105.639 211.796C105.359 211.516 105.202 211.137 105.202 210.741C105.202 210.346 105.359 209.966 105.639 209.687C105.919 209.407 106.298 209.25 106.694 209.25H167.554C167.95 209.25 168.33 209.407 168.609 209.687C168.889 209.966 169.046 210.346 169.046 210.741C169.046 211.137 168.889 211.516 168.609 211.796C168.33 212.076 167.95 212.233 167.554 212.233Z" fill="white"/>
<path d="M49.0397 209.384L28.8721 187.188C28.493 186.78 28.1992 186.301 28.008 185.779C27.8167 185.256 27.7317 184.7 27.7581 184.145C27.7845 183.589 27.9217 183.044 28.1617 182.542C28.4017 182.04 28.7395 181.591 29.1555 181.221L34.7642 176.134C35.1707 175.753 35.6495 175.458 36.1723 175.265C36.695 175.073 37.2511 174.987 37.8076 175.014C38.364 175.04 38.9095 175.178 39.4116 175.419C39.9138 175.66 40.3624 176 40.731 176.418L52.8733 189.843L86.317 158.756C86.7171 158.382 87.1872 158.091 87.7002 157.899C88.2132 157.707 88.759 157.618 89.3064 157.637C89.8538 157.657 90.392 157.784 90.8901 158.012C91.3883 158.239 91.8365 158.563 92.2092 158.965L97.3704 164.514C98.1221 165.324 98.5223 166.399 98.4831 167.503C98.444 168.608 97.9688 169.651 97.1616 170.406L54.902 209.638C54.5025 210.01 54.0328 210.299 53.5205 210.488C53.0082 210.677 52.4633 210.762 51.9178 210.738C51.3722 210.715 50.8368 210.583 50.3426 210.35C49.8485 210.118 49.4056 209.789 49.0397 209.384Z" fill="#70CC40"/>
<path d="M52.0976 212.233H51.8589C51.116 212.203 50.3866 212.025 49.7131 211.71C49.0396 211.395 48.4354 210.949 47.9357 210.398L27.7532 188.202C26.7455 187.087 26.2206 185.618 26.2933 184.117C26.366 182.616 27.0303 181.204 28.141 180.192L33.7498 175.105C34.8605 174.096 36.3258 173.569 37.8246 173.639C39.3233 173.709 40.7332 174.37 41.7452 175.478L52.8732 187.74L85.213 157.667C86.3167 156.648 87.7788 156.108 89.2798 156.164C90.7808 156.22 92.1986 156.867 93.2234 157.965L98.3697 163.515C98.8788 164.058 99.2755 164.697 99.5369 165.395C99.7983 166.092 99.9193 166.834 99.8929 167.579C99.8666 168.323 99.6935 169.055 99.3834 169.732C99.0734 170.409 98.6326 171.019 98.0863 171.525L55.9014 210.727C54.8683 211.69 53.51 212.228 52.0976 212.233ZM50.1285 208.385C50.3611 208.644 50.6433 208.854 50.9584 209.003C51.2735 209.151 51.6152 209.235 51.9633 209.25C52.6673 209.277 53.3536 209.025 53.8727 208.549L96.0576 169.332C96.5768 168.847 96.8826 168.176 96.9077 167.465C96.9329 166.755 96.6755 166.064 96.1919 165.543L91.0306 159.994C90.5454 159.475 89.8741 159.169 89.1639 159.144C88.4537 159.119 87.7625 159.376 87.2417 159.86L53.7981 190.947C53.6545 191.081 53.4857 191.186 53.3013 191.255C53.117 191.325 52.9208 191.357 52.7241 191.349C52.526 191.341 52.3317 191.293 52.1524 191.208C51.9731 191.124 51.8125 191.005 51.6799 190.857L39.5375 177.432C39.3014 177.17 39.0157 176.958 38.6969 176.807C38.3782 176.656 38.0327 176.569 37.6804 176.553C37.3281 176.536 36.976 176.589 36.6445 176.71C36.3129 176.83 36.0084 177.015 35.7486 177.253L30.1399 182.34C29.6179 182.821 29.3065 183.488 29.273 184.197C29.2395 184.907 29.4866 185.6 29.9609 186.129L50.1285 208.385Z" fill="#093F68"/>
<path d="M38.1954 128.161H17.3118C16.7183 128.161 16.1492 127.925 15.7296 127.506C15.31 127.086 15.0742 126.517 15.0742 125.924V105.04C15.0742 104.447 15.31 103.877 15.7296 103.458C16.1492 103.038 16.7183 102.802 17.3118 102.802H38.1954C38.7876 102.806 39.3545 103.043 39.7733 103.462C40.192 103.881 40.429 104.448 40.4329 105.04V125.924C40.4329 126.517 40.1972 127.086 39.7776 127.506C39.3579 127.925 38.7888 128.161 38.1954 128.161ZM19.6089 123.686H36.0175V107.278H19.6089V123.686Z" fill="#DFEAEF"/>
<path d="M202.072 125.64H159.723C159.13 125.64 158.561 125.405 158.141 124.985C157.722 124.566 157.486 123.996 157.486 123.403C157.486 122.81 157.722 122.24 158.141 121.821C158.561 121.401 159.13 121.165 159.723 121.165H202.072C202.666 121.165 203.235 121.401 203.655 121.821C204.074 122.24 204.31 122.81 204.31 123.403C204.31 123.996 204.074 124.566 203.655 124.985C203.235 125.405 202.666 125.64 202.072 125.64Z" fill="#DFEAEF"/>
<path d="M195.121 22.0427H179.652C179.059 22.0427 178.49 21.807 178.07 21.3873C177.65 20.9677 177.415 20.3986 177.415 19.8052C177.415 19.2117 177.65 18.6426 178.07 18.223C178.49 17.8034 179.059 17.5676 179.652 17.5676H195.121C195.714 17.5676 196.283 17.8034 196.703 18.223C197.123 18.6426 197.358 19.2117 197.358 19.8052C197.358 20.3986 197.123 20.9677 196.703 21.3873C196.283 21.807 195.714 22.0427 195.121 22.0427Z" fill="#DFEAEF"/>
<path d="M168.942 22.0427H159.723C159.13 22.0427 158.561 21.807 158.141 21.3873C157.722 20.9677 157.486 20.3986 157.486 19.8052C157.486 19.2117 157.722 18.6426 158.141 18.223C158.561 17.8034 159.13 17.5676 159.723 17.5676H168.942C169.535 17.5676 170.105 17.8034 170.524 18.223C170.944 18.6426 171.18 19.2117 171.18 19.8052C171.18 20.3986 170.944 20.9677 170.524 21.3873C170.105 21.807 169.535 22.0427 168.942 22.0427Z" fill="#DFEAEF"/>
<path d="M150.395 60.8052V49.0691C150.395 47.6573 149.379 46.4492 147.99 46.2053L139.514 44.7247C138.535 44.5525 137.712 43.8925 137.33 42.9743L137.319 42.9456C136.937 42.0274 137.052 40.9772 137.623 40.1622L142.567 33.1206C143.379 31.9642 143.241 30.3946 142.243 29.396L133.944 21.0975C132.946 20.0989 131.373 19.964 130.22 20.7732L123.178 25.7173C122.363 26.2883 121.316 26.4031 120.394 26.0215L120.366 26.01C119.448 25.6312 118.785 24.8077 118.615 23.8263L117.135 15.3499C116.891 13.9582 115.683 12.9453 114.271 12.9453H102.535C101.123 12.9453 99.9151 13.9611 99.6712 15.3499L98.1905 23.8263C98.0183 24.8048 97.3584 25.6284 96.4401 26.01L96.4114 26.0215C95.4932 26.4031 94.443 26.2883 93.6281 25.7173L86.5864 20.7732C85.43 19.9612 83.8604 20.0989 82.8618 21.0975L74.5633 29.396C73.5647 30.3946 73.4299 31.967 74.239 33.1206L79.1831 40.1622C79.7542 40.9772 79.8689 42.0245 79.4873 42.9456L79.4758 42.9743C79.0971 43.8925 78.2735 44.5554 77.2922 44.7247L68.8157 46.2053C67.4241 46.4492 66.4111 47.6573 66.4111 49.0691V60.8052C66.4111 62.217 67.4269 63.425 68.8157 63.6689L77.2922 65.1496C78.2707 65.3217 79.0942 65.9817 79.4758 66.9L79.4873 66.9286C79.8689 67.8469 79.7542 68.8971 79.1831 69.712L74.239 76.7537C73.427 77.9101 73.5647 79.4797 74.5633 80.4783L82.8618 88.7768C83.8604 89.7754 85.4328 89.9102 86.5864 89.101L93.6281 84.157C94.443 83.5859 95.4903 83.4711 96.4114 83.8528L96.4401 83.8643C97.3584 84.243 98.0183 85.0666 98.1905 86.0479L99.6712 94.5243C99.9151 95.916 101.123 96.929 102.535 96.929H114.271C115.683 96.929 116.891 95.9132 117.135 94.5243L118.615 86.0479C118.788 85.0694 119.448 84.2459 120.366 83.8643L120.394 83.8528C121.313 83.4711 122.363 83.5859 123.178 84.157L130.22 89.101C131.376 89.9131 132.946 89.7754 133.944 88.7768L142.243 80.4783C143.241 79.4797 143.376 77.9072 142.567 76.7537L137.623 69.712C137.052 68.8971 136.937 67.8498 137.319 66.9286L137.33 66.9C137.709 65.9817 138.532 65.3217 139.514 65.1496L147.99 63.6689C149.382 63.425 150.395 62.217 150.395 60.8052ZM107.915 69.8641C100.096 69.6145 93.7256 63.2443 93.476 55.4249C93.2005 46.7907 100.257 39.7318 108.894 40.0073C116.713 40.2569 123.083 46.6272 123.333 54.4465C123.608 63.0807 116.552 70.1396 107.915 69.8641Z" fill="#D6D5D5"/>
<path d="M110.4 12.9459H114.274C115.686 12.9459 116.894 13.9617 117.138 15.3505L118.618 23.8269C118.736 24.4955 119.086 25.0895 119.585 25.5199L119.307 25.715C118.492 26.286 117.445 26.4008 116.523 26.0192C116.515 26.0163 116.503 26.0106 116.495 26.0077C115.577 25.6289 114.914 24.8054 114.744 23.824L113.264 15.3476C113.02 13.9559 111.812 12.943 110.4 12.943V12.9459ZM106.466 69.747C99.321 68.8116 93.7083 62.757 93.4759 55.4255C93.2262 47.6148 98.9767 41.0954 106.469 40.1255C105.993 40.0624 105.508 40.025 105.02 40.0078C96.3855 39.7324 89.3266 46.7884 89.6021 55.4255C89.8517 63.2448 96.222 69.615 104.041 69.8647C104.865 69.8905 105.674 69.8503 106.466 69.747ZM89.7542 25.7179C90.5691 26.2889 91.6165 26.4037 92.5376 26.022C92.5462 26.0192 92.5577 26.0134 92.5663 26.0106C92.8561 25.89 93.1172 25.7207 93.3496 25.5227L86.5863 20.7738C85.4815 19.999 83.998 20.0908 82.9966 20.9718L89.7542 25.7179ZM92.5663 83.8619L92.5376 83.8505C91.6193 83.4688 90.5691 83.5836 89.7542 84.1546L82.9966 88.9007C83.998 89.7845 85.4815 89.8764 86.5863 89.0987L93.3496 84.3497C93.1172 84.1489 92.8561 83.9825 92.5663 83.8619ZM147.987 46.2059L139.511 44.7252C138.532 44.5531 137.709 43.8931 137.327 42.9749L137.316 42.9462C136.934 42.0279 137.049 40.9777 137.62 40.1628L142.564 33.1211C143.376 31.9647 143.238 30.3951 142.24 29.3965L133.941 21.098C132.943 20.0995 131.37 19.9646 130.217 20.7738L129.933 20.9718C129.978 21.0119 130.024 21.0521 130.067 21.0952L138.366 29.3937C139.364 30.3922 139.499 31.9647 138.69 33.1182L133.746 40.1599C133.175 40.9748 133.06 42.0222 133.442 42.9433L133.453 42.972C133.832 43.8902 134.656 44.5502 135.637 44.7224L144.113 46.203C145.505 46.4469 146.518 47.655 146.518 49.0667V60.8029C146.518 62.2147 145.502 63.4227 144.113 63.6666L135.637 65.1473C134.659 65.3194 133.835 65.9794 133.453 66.8976L133.442 66.9263C133.06 67.8446 133.175 68.8948 133.746 69.7097L138.69 76.7514C139.502 77.9078 139.364 79.4774 138.366 80.476L130.067 88.7745C130.024 88.8175 129.978 88.8577 129.933 88.8979L130.217 89.0959C131.373 89.9079 132.943 89.7702 133.941 88.7716L142.24 80.4731C143.238 79.4745 143.373 77.9021 142.564 76.7485L137.62 69.7068C137.049 68.8919 136.934 67.8446 137.316 66.9235L137.327 66.8948C137.706 65.9765 138.529 65.3166 139.511 65.1444L147.987 63.6637C149.379 63.4198 150.392 62.2118 150.392 60.8V49.0639C150.392 47.6521 149.376 46.444 147.987 46.2001V46.2059ZM119.304 84.1546C118.489 83.5836 117.442 83.4688 116.521 83.8505L116.492 83.8619C115.574 84.2407 114.914 85.0642 114.742 86.0456L113.261 94.522C113.017 95.9137 111.809 96.9266 110.397 96.9266H114.271C115.683 96.9266 116.891 95.9108 117.135 94.522L118.615 86.0456C118.733 85.377 119.083 84.783 119.582 84.3526L119.304 84.1575V84.1546Z" fill="#C3C7C9"/>
<path d="M158.028 81.0328V80.4704C158.028 76.6999 154.972 73.6411 151.201 73.6411L130.329 73.6353L130.113 73.5263V53.5031C130.113 49.4486 126.825 46.1602 122.77 46.1602H122.165C118.11 46.1602 114.822 49.4486 114.822 53.5031V53.5605C114.822 62.8232 110.607 71.5837 103.367 77.3599L98.6754 81.1046H85.3266C84.8273 81.1017 84.4227 81.5063 84.4227 82.0056V85.4862L84.417 105.134V123.237C84.4141 123.736 84.8187 124.141 85.318 124.141H96.6151C100.122 128.052 105.209 130.511 110.876 130.514L137.551 130.52H150.532C154.303 130.523 157.362 127.467 157.362 123.696V123.134C157.362 119.363 154.306 116.304 150.535 116.304H150.931C154.702 116.304 157.761 113.248 157.761 109.475V108.913C157.761 105.142 154.705 102.083 150.934 102.083H150.383C154.154 102.083 157.213 99.0273 157.213 95.2568V94.6944C157.213 90.9239 154.157 87.865 150.386 87.865H151.198C154.969 87.865 158.028 84.8091 158.03 81.0386L158.028 81.0328Z" fill="#FFBEB3"/>
<path d="M87.636 119.92H99.3406C102.982 123.839 108.176 126.29 113.946 126.293L140.11 126.299H152.529C154.348 126.301 156.007 125.619 157.267 124.494C156.747 127.908 153.797 130.528 150.236 130.525H137.817L111.653 130.517C105.883 130.517 100.689 128.063 97.0479 124.146H85.3433C84.8239 124.146 84.4021 123.722 84.4021 123.202L84.4107 82.0485C84.4107 81.5291 84.8325 81.1073 85.3519 81.1073H86.7034L86.6948 118.979C86.6948 119.498 87.1166 119.92 87.636 119.92Z" fill="#FCB3A9"/>
<path d="M149.166 84.034C153.224 84.034 156.558 80.9493 156.957 76.998C157.634 78.0884 158.027 79.374 158.027 80.7513C158.027 84.6796 154.842 87.8619 150.914 87.8619H142.759C142.759 85.7471 144.472 84.034 146.586 84.034H149.166Z" fill="#FCB3A9"/>
<path d="M148.876 97.6095C152.512 97.6095 155.571 95.1303 156.451 91.7701C156.939 92.7343 157.215 93.8218 157.215 94.9725C157.215 98.9008 154.03 102.083 150.101 102.083H141.599C141.599 99.6124 143.602 97.6095 146.073 97.6095H148.879H148.876Z" fill="#FCB3A9"/>
<path d="M149.424 111.831C153.06 111.831 156.119 109.351 157 105.991C157.487 106.955 157.763 108.043 157.763 109.194C157.763 113.122 154.578 116.304 150.649 116.304H142.147C142.147 113.833 144.15 111.831 146.621 111.831H149.427H149.424Z" fill="#FCB3A9"/>
<path d="M92.902 76.8805H61.6362C61.2115 76.8805 60.8672 77.2248 60.8672 77.6495V126.712C60.8672 127.136 61.2115 127.481 61.6362 127.481H92.902C93.3267 127.481 93.671 127.136 93.671 126.712V77.6495C93.671 77.2248 93.3267 76.8805 92.902 76.8805Z" fill="#0099F5"/>
<path opacity="0.09" d="M92.6982 76.8805H86.5403V121.308C86.5403 121.845 86.1042 122.281 85.5676 122.281H60.8672V126.511C60.8672 127.047 61.3033 127.484 61.8399 127.484H92.6982C93.2348 127.484 93.671 127.047 93.671 126.511V77.8561C93.671 77.3195 93.2348 76.8834 92.6982 76.8834V76.8805Z" fill="black"/>
</g>
<defs>
<clipPath id="clip0_1611_3222">
<rect width="216.056" height="281.001" fill="white" transform="translate(0.276611 -0.00109863)"/>
</clipPath>
</defs>
</svg>
