<svg width="100" height="129" viewBox="0 0 100 129" fill="none" xmlns="http://www.w3.org/2000/svg">
<path d="M3.67871 12.2658L10.4227 128.18H88.9253L95.0614 12.8801L3.67871 12.2658Z" fill="#4A9575"/>
<path d="M99.5072 0H0V13.184H99.5072V0Z" fill="#3B7F59"/>
<path d="M64.0264 45.6818L68.9467 42.8829C68.939 43.0073 68.9177 43.1304 68.8834 43.2502C66.8317 46.8027 64.7863 50.3615 62.7156 53.9076C62.6477 54.0223 62.5561 54.1211 62.4469 54.1976C62.3377 54.274 62.2134 54.3263 62.0824 54.3509C57.827 54.3509 53.5717 54.3509 49.2656 54.1925L54.1479 51.3683L51.539 46.8786L45.2889 57.6437L35.708 52.1219C35.841 51.8432 35.955 51.5709 36.1006 51.324C37.8863 48.2338 39.6974 45.1562 41.4452 42.047C41.8556 41.2378 42.4942 40.5666 43.282 40.1164C44.0698 39.6662 44.9723 39.4568 45.8778 39.5141C49.6308 39.5394 53.3901 39.5394 57.1558 39.5141C58.1718 39.4479 59.1847 39.6838 60.067 40.192C60.9492 40.7002 61.6615 41.458 62.1141 42.37C62.703 43.4655 63.3425 44.5103 64.0264 45.6818ZM44.719 55.8643C44.8456 55.7757 44.9216 55.7503 44.947 55.706C46.8467 52.4638 48.7464 49.2216 50.5955 45.9668C50.6439 45.8604 50.669 45.7449 50.669 45.628C50.669 45.5111 50.6439 45.3956 50.5955 45.2892C50.119 44.3284 49.5663 43.4072 48.9427 42.5346C46.967 40.0017 43.9338 40.2676 42.3633 42.9969L38.336 49.9625C38.0257 50.5008 37.7027 51.0454 37.3924 51.6469L44.719 55.8643Z" fill="white"/>
<path d="M31.3135 59.5751L26.2476 56.6305C26.6275 56.6305 26.8175 56.5672 27.0074 56.5672C30.9272 56.5672 34.8406 56.5672 38.754 56.5672C38.9575 56.5708 39.158 56.6172 39.3424 56.7034C39.5267 56.7896 39.6909 56.9136 39.8242 57.0675C41.9076 60.5629 43.9402 64.0901 45.9793 67.6046C46.061 67.7755 46.1329 67.951 46.1946 68.1301L41.1287 65.2426L38.5387 69.7639H51.0009V80.8393C50.6969 80.8393 50.3676 80.8962 50.0953 80.8962C46.5555 80.8962 43.0221 80.8962 39.4823 80.8962C38.5768 80.9527 37.6747 80.7429 36.887 80.2928C36.0994 79.8428 35.4606 79.172 35.0496 78.3633C33.1499 74.9818 31.1805 71.6383 29.2428 68.2821C28.7705 67.5089 28.5207 66.6204 28.5207 65.7143C28.5207 64.8083 28.7705 63.9198 29.2428 63.1466C29.914 61.9561 30.5916 60.8289 31.3135 59.5751ZM44.0986 79.6868C45.745 79.6868 47.3851 79.6868 49.0252 79.6868C49.5824 79.6868 49.8294 79.5094 49.823 78.9269C49.823 76.5585 49.823 74.1902 49.823 71.8219C49.823 71.2583 49.6331 71.0494 49.0568 71.0557C45.517 71.0557 41.9835 71.0557 38.4437 71.0557C38.2962 71.0548 38.1502 71.0847 38.015 71.1436C37.8797 71.2025 37.7583 71.2891 37.6585 71.3977C37.0528 72.282 36.5312 73.2212 36.1008 74.2029C34.9483 77.1665 36.6833 79.6488 39.8369 79.6488L44.0986 79.6868Z" fill="white"/>
<path d="M59.6257 63.8558V69.3966H64.7866L58.6125 58.6822L68.2061 53.0907C68.396 53.3947 68.5733 53.6416 68.7253 53.9076C70.4984 56.9661 72.2461 60.0437 74.0445 63.0832C74.537 63.8229 74.803 64.6902 74.8097 65.5788C74.8164 66.4674 74.5637 67.3387 74.0825 68.0858C72.1068 71.4293 70.1755 74.7918 68.2377 78.1606C67.8164 78.9804 67.1691 79.6624 66.3723 80.1259C65.5755 80.5894 64.6627 80.8149 63.7417 80.7759C62.4246 80.7759 61.1011 80.7759 59.6953 80.7759V86.7157C59.4041 86.3167 59.2584 86.1521 59.1508 85.9621C57.2067 82.606 55.2753 79.2371 53.306 75.8873C53.1589 75.6753 53.0801 75.4234 53.0801 75.1654C53.0801 74.9074 53.1589 74.6555 53.306 74.4435C55.3767 70.9037 57.403 67.3386 59.4484 63.7861L59.6257 63.8558ZM60.3286 59.1381L64.8689 67.003C66.338 69.5359 66.3444 69.5359 69.3016 69.4789H69.5865C72.7907 69.2573 74.4118 66.3127 72.8287 63.5328C71.3385 60.9365 69.8419 58.3424 68.3391 55.7503C68.1681 55.4654 67.9781 55.193 67.7691 54.8701L60.3286 59.1381Z" fill="white"/>
</svg>
