<svg width="59" height="59" viewBox="0 0 59 59" fill="none" xmlns="http://www.w3.org/2000/svg">
<path d="M32.1448 6.33911L14.4023 45.2107L19.5861 40.4258L33.9384 9.12981L32.1448 6.33911Z" fill="#3FE2FD"/>
<circle cx="29.5" cy="29.5" r="27.0956" fill="#00A5CB"/>
<path d="M51.2179 47.6814C51.1804 47.4657 51.0588 47.2736 50.8798 47.1475C50.7008 47.0214 50.479 46.9715 50.2633 47.0088C48.8308 47.2566 47.3971 47.3794 46.6159 46.6041C46.498 46.4803 46.3876 46.3494 46.2855 46.2123C46.0538 45.8849 45.7714 45.5965 45.4489 45.358C44.7503 44.8778 43.8264 44.7763 42.7738 45.063C41.1997 45.4925 39.9678 46.5073 38.7772 47.4879L38.5754 47.6543C37.4768 48.5558 36.2933 49.4514 34.9681 49.6273C33.866 49.7748 32.5007 49.1612 32.3226 48.1216C32.2541 47.7275 32.3296 47.2496 32.4099 46.7445C32.5503 45.8513 32.7261 44.7385 32.0075 43.8193C31.2889 42.9001 30.0463 42.624 28.2999 42.9933C26.7742 43.306 25.134 44.309 23.397 45.3686C21.2931 46.6525 19.1302 47.9646 17.4664 47.8325C17.9384 47.4277 18.5744 46.8554 19.4558 46.0448C20.6712 44.9273 21.8607 43.8028 22.1333 43.542C22.2338 43.4638 22.3146 43.3632 22.3693 43.2482L36.8313 13.2832C36.8491 13.2555 36.8652 13.2267 36.8797 13.1971L37.2337 12.4749C37.6238 11.6586 37.6747 10.721 37.3753 9.86716C37.0759 9.01337 36.4505 8.3129 35.636 7.91897L35.459 7.83401H35.4472C34.6324 7.44083 33.6948 7.3874 32.8406 7.68548C31.9865 7.98356 31.2857 8.60872 30.8924 9.42347L30.5868 10.0571C30.5691 10.0849 30.5529 10.1137 30.5384 10.1433L16.0763 40.1153C16.0123 40.2184 15.972 40.3345 15.9583 40.4551L15.0497 47.908C15.0312 48.0618 15.0564 48.2178 15.1223 48.358C15.1883 48.4982 15.2923 48.6171 15.4226 48.701C15.4991 48.8377 15.6128 48.9498 15.7506 49.0243C18.316 50.4061 21.3368 48.5641 24.2573 46.7823C25.8691 45.7982 27.3913 44.8695 28.6386 44.6087C29.3796 44.4541 30.339 44.3727 30.7048 44.8376C30.9632 45.1692 30.9054 45.6825 30.7779 46.4896C30.6847 47.0796 30.5809 47.7416 30.6942 48.4036C31.0092 50.2361 32.8866 51.3028 34.6401 51.3028C34.8224 51.303 35.0045 51.2911 35.1852 51.2675C36.9411 51.0315 38.3972 49.94 39.6244 48.9322L39.8274 48.7647C40.8894 47.895 41.9761 46.9947 43.2092 46.6596C43.7603 46.5085 44.2358 46.5321 44.5143 46.7221C44.6944 46.869 44.8533 47.0401 44.9863 47.2307C45.1311 47.4236 45.2888 47.6065 45.4583 47.7782C46.7705 49.0821 48.6809 48.9582 50.55 48.6396C50.7656 48.6011 50.9571 48.4785 51.0824 48.2988C51.2076 48.1191 51.2564 47.8971 51.2179 47.6814ZM33.394 9.23939C33.6099 9.16252 33.8389 9.12919 34.0678 9.14134C34.2967 9.1535 34.5208 9.21088 34.7274 9.31019H34.7404L34.9268 9.40105C35.342 9.60325 35.6612 9.9604 35.8157 10.3956C35.9702 10.8308 35.9476 11.3093 35.7528 11.728L32.3945 10.1138C32.5998 9.70223 32.9588 9.3881 33.394 9.23939ZM17.464 41.7944L20.1898 43.1113C19.0098 44.2205 17.8298 45.3144 16.9401 46.1014L17.464 41.7944ZM31.67 11.5994L35.0283 13.216L21.24 41.7873L17.8864 40.1672L31.67 11.5994Z" fill="white"/>
</svg>
