<svg width="189" height="129" viewBox="0 0 189 129" fill="none" xmlns="http://www.w3.org/2000/svg">
<g clip-path="url(#clip0_1868_3351)">
<path d="M96.3862 128.718C102.063 128.718 106.664 124.117 106.664 118.44C106.664 112.764 102.063 108.163 96.3862 108.163C90.7099 108.163 86.1084 112.764 86.1084 118.44C86.1084 124.117 90.7099 128.718 96.3862 128.718Z" fill="#007580"/>
<path d="M157.787 128.141C163.537 126.414 169.649 124.613 174.21 120.508C178.284 116.84 181.035 111.238 179.347 105.737C177.663 100.247 172.617 96.5858 167.407 94.765C164.452 93.7324 161.361 93.1594 158.27 92.7094C154.911 92.2201 151.537 91.8193 148.165 91.4336C134.509 89.8717 120.802 88.9176 107.043 88.5712C100.255 88.4002 93.4669 88.4043 86.6771 88.5029C80.6133 88.5909 74.227 88.5887 68.6017 86.0115C64.2273 84.0074 60.257 80.3612 59.0381 75.5698C57.6311 70.0388 60.2263 64.4063 63.9491 60.4006C65.9114 58.2891 68.2049 56.512 70.5708 54.878C73.1374 53.1052 75.7936 51.458 78.5073 49.9204C83.852 46.8936 89.4397 44.3175 95.2125 42.2191C98.0602 41.1836 100.95 40.2903 103.865 39.4661C106.327 38.7702 108.796 38.0733 111.175 37.1251C115.774 35.2921 120.148 32.1873 121.318 27.0972C122.426 22.273 120.557 17.0359 117.281 13.4521C113.491 9.30591 107.777 7.48834 102.298 7.19426C96.1474 6.86411 90.1385 8.40347 84.3573 10.3571C78.1914 12.4408 72.1583 14.8367 65.8621 16.5245C59.6185 18.1966 53.2541 19.3796 46.8267 20.0629C43.6803 20.398 40.4388 20.7763 37.2736 20.5198C34.6209 20.3048 31.9818 19.5247 30.0268 17.6421C28.3505 16.0278 27.352 13.8093 27.6953 11.4681C27.7576 11.0429 28.4036 11.2237 28.3416 11.6463C27.9237 14.4962 29.8609 17.1223 32.2481 18.4675C35.0071 20.0222 38.3643 20.0243 41.436 19.8465C48.0963 19.4443 54.7114 18.488 61.2129 16.9876C67.6014 15.5285 73.7617 13.4426 79.915 11.2143C85.759 9.09811 91.7337 7.03265 97.9772 6.57428C103.395 6.17656 109.093 6.96578 113.813 9.79686C117.96 12.285 121.01 16.4344 121.982 21.1959C122.932 25.8488 121.617 30.532 118.095 33.7789C114.448 37.1407 109.448 38.578 104.788 39.9018C98.8776 41.5807 93.0941 43.5433 87.496 46.0915C81.8216 48.6671 76.3796 51.7266 71.2302 55.2361C66.2596 58.6328 61.3543 62.9066 59.7823 68.9662C59.05 71.7888 59.1852 74.7826 60.4105 77.4487C61.5 79.8193 63.2942 81.8133 65.3845 83.3514C70.3716 87.0211 76.6572 87.7746 82.6812 87.8496C89.447 87.9337 96.2131 87.7054 102.981 87.8165C116.774 88.0429 130.539 88.8824 144.275 90.3352C147.717 90.6995 151.155 91.1022 154.588 91.5433C157.677 91.9401 160.775 92.3343 163.811 93.0391C169.21 94.2921 174.463 96.7015 177.819 101.279C179.308 103.263 180.23 105.614 180.488 108.081C180.723 110.656 180.092 113.236 178.928 115.526C176.352 120.596 171.525 123.821 166.4 125.939C163.655 127.074 160.807 127.934 157.965 128.787C157.551 128.911 157.374 128.265 157.787 128.141L157.787 128.141Z" fill="#F2F2F2"/>
<path d="M28.129 16.8907C31.0905 16.8907 33.4913 14.4899 33.4913 11.5284C33.4913 8.56682 31.0905 6.16602 28.129 6.16602C25.1674 6.16602 22.7666 8.56682 22.7666 11.5284C22.7666 14.4899 25.1674 16.8907 28.129 16.8907Z" fill="#F2F2F2"/>
<path d="M65.3296 27.057C68.2912 27.057 70.692 24.6562 70.692 21.6946C70.692 18.7331 68.2912 16.3323 65.3296 16.3323C62.3681 16.3323 59.9673 18.7331 59.9673 21.6946C59.9673 24.6562 62.3681 27.057 65.3296 27.057Z" fill="#F2F2F2"/>
<path d="M96.8335 6.7247C99.7951 6.7247 102.196 4.32389 102.196 1.36235C102.196 -1.59919 99.7951 -4 96.8335 -4C93.872 -4 91.4712 -1.59919 91.4712 1.36235C91.4712 4.32389 93.872 6.7247 96.8335 6.7247Z" fill="#F2F2F2"/>
<path d="M116.496 29.5147C119.457 29.5147 121.858 27.1139 121.858 24.1524C121.858 21.1908 119.457 18.79 116.496 18.79C113.534 18.79 111.133 21.1908 111.133 24.1524C111.133 27.1139 113.534 29.5147 116.496 29.5147Z" fill="#F2F2F2"/>
<path d="M89.9073 55.8795C92.8688 55.8795 95.2696 53.4787 95.2696 50.5171C95.2696 47.5556 92.8688 45.1548 89.9073 45.1548C86.9457 45.1548 84.5449 47.5556 84.5449 50.5171C84.5449 53.4787 86.9457 55.8795 89.9073 55.8795Z" fill="#F2F2F2"/>
<path d="M56.1685 68.6148C59.13 68.6148 61.5309 66.214 61.5309 63.2525C61.5309 60.2909 59.13 57.8901 56.1685 57.8901C53.207 57.8901 50.8062 60.2909 50.8062 63.2525C50.8062 66.214 53.207 68.6148 56.1685 68.6148Z" fill="#F2F2F2"/>
<path d="M91.918 88.5003C94.8796 88.5003 97.2804 86.0995 97.2804 83.138C97.2804 80.1764 94.8796 77.7756 91.918 77.7756C88.9565 77.7756 86.5557 80.1764 86.5557 83.138C86.5557 86.0995 88.9565 88.5003 91.918 88.5003Z" fill="#F2F2F2"/>
<path d="M130.348 99.672C133.31 99.672 135.711 97.2712 135.711 94.3096C135.711 91.3481 133.31 88.9473 130.348 88.9473C127.387 88.9473 124.986 91.3481 124.986 94.3096C124.986 97.2712 127.387 99.672 130.348 99.672Z" fill="#F2F2F2"/>
<path d="M175.258 97.2144C178.219 97.2144 180.62 94.8136 180.62 91.8521C180.62 88.8906 178.219 86.4897 175.258 86.4897C172.296 86.4897 169.896 88.8906 169.896 91.8521C169.896 94.8136 172.296 97.2144 175.258 97.2144Z" fill="#F2F2F2"/>
<path d="M95.2855 11.1941C79.2226 11.3076 66.0705 24.3609 65.8423 40.4226C65.8402 40.5709 65.8392 41.6136 65.8394 42.9774C65.8395 44.9769 66.6338 46.8946 68.0477 48.3086C69.4616 49.7226 71.3792 50.517 73.3788 50.5173H73.3788C74.37 50.517 75.3515 50.3215 76.2671 49.9418C77.1828 49.5622 78.0146 49.0058 78.7151 48.3045C79.4157 47.6032 79.9711 46.7708 80.3498 45.8547C80.7285 44.9387 80.923 43.957 80.9221 42.9658C80.9213 42.0381 80.9209 41.396 80.9209 41.3566C80.9204 38.8743 81.566 36.4346 82.7944 34.2775C84.0227 32.1204 85.7915 30.3202 87.9266 29.0541C90.0617 27.7879 92.4896 27.0993 94.9716 27.0561C97.4535 27.0129 99.9039 27.6165 102.082 28.8075C104.26 29.9986 106.09 31.7361 107.393 33.8491C108.696 35.9621 109.426 38.3778 109.512 40.8587C109.598 43.3395 109.036 45.7999 107.883 47.998C106.729 50.1961 105.024 52.056 102.933 53.3949L102.936 53.3981C102.936 53.3981 92.205 60.3065 88.9334 69.7835L88.9361 69.7842C88.3609 71.7256 88.0694 73.7401 88.0707 75.765C88.0707 76.5974 88.1196 83.8803 88.2143 89.7915C88.2473 91.8311 89.0809 93.7759 90.5351 95.2064C91.9893 96.6368 93.9476 97.4383 95.9874 97.4378H95.9875C97.0124 97.4378 98.0273 97.2351 98.9736 96.8413C99.9199 96.4476 100.779 95.8706 101.502 95.1436C102.224 94.4166 102.796 93.5539 103.184 92.6051C103.571 91.6564 103.768 90.6403 103.761 89.6153C103.729 84.2018 103.711 77.8982 103.711 77.4407C103.711 71.6215 109.325 65.8235 113.936 62.0424C119.246 57.6884 123.067 51.755 124.602 45.0619C124.941 43.6839 125.129 42.2727 125.16 40.8539C125.16 36.9408 124.386 33.0663 122.882 29.4538C121.378 25.8413 119.174 22.5621 116.397 19.8051C113.62 17.0481 110.325 14.8679 106.702 13.39C103.078 11.9122 99.1985 11.1659 95.2855 11.1941Z" fill="#007580"/>
<path d="M188.461 129H0.265755C0.195331 129 0.127863 128.972 0.0781383 128.922C0.0284132 128.872 0.000488281 128.804 0.000488281 128.734C0.000488281 128.664 0.0284132 128.596 0.0781383 128.546C0.127863 128.496 0.195331 128.468 0.265755 128.468H188.461C188.531 128.468 188.599 128.496 188.649 128.546C188.699 128.596 188.727 128.664 188.727 128.734C188.727 128.805 188.699 128.872 188.649 128.922C188.599 128.972 188.531 129 188.461 129Z" fill="#3F3D56"/>
<path d="M140.415 56.9957C144.117 56.9957 147.118 53.9947 147.118 50.2928C147.118 46.5909 144.117 43.5898 140.415 43.5898C136.713 43.5898 133.712 46.5909 133.712 50.2928C133.712 53.9947 136.713 56.9957 140.415 56.9957Z" fill="#2F2E41"/>
<path d="M128.029 126.066H125.29L123.987 115.5H128.03L128.029 126.066Z" fill="#A0616A"/>
<path d="M123.333 125.283H128.615V128.609H120.006C120.006 128.172 120.092 127.74 120.26 127.336C120.427 126.933 120.672 126.566 120.981 126.257C121.289 125.948 121.656 125.703 122.06 125.536C122.463 125.369 122.896 125.283 123.333 125.283Z" fill="#2F2E41"/>
<path d="M149.255 126.066H146.516L145.213 115.5H149.256L149.255 126.066Z" fill="#A0616A"/>
<path d="M144.56 125.283H149.842V128.609H141.233C141.233 128.172 141.319 127.74 141.487 127.336C141.654 126.933 141.899 126.566 142.208 126.257C142.516 125.948 142.883 125.703 143.287 125.536C143.69 125.369 144.123 125.283 144.56 125.283Z" fill="#2F2E41"/>
<path d="M139.396 57.035C142.427 57.035 144.884 54.578 144.884 51.5473C144.884 48.5165 142.427 46.0596 139.396 46.0596C136.366 46.0596 133.909 48.5165 133.909 51.5473C133.909 54.578 136.366 57.035 139.396 57.035Z" fill="#A0616A"/>
<path d="M142.667 74.7384L145.123 69.0968C145.719 67.7733 145.89 66.2974 145.612 64.8727C145.334 63.4479 144.62 62.1446 143.57 61.1426C143.354 60.9294 143.125 60.7301 142.884 60.5461C141.672 59.5983 140.179 59.0817 138.641 59.0781C137.607 59.0821 136.585 59.3093 135.647 59.744C135.566 59.7797 135.488 59.8177 135.408 59.8557C135.254 59.9294 135.102 60.0098 134.954 60.0925C133.992 60.6448 133.174 61.4154 132.564 62.3422C131.955 63.269 131.572 64.326 131.446 65.428L130.363 74.5083C130.09 75.221 120.366 100.96 123.767 120.611C123.803 120.821 123.906 121.014 124.059 121.161C124.213 121.309 124.409 121.403 124.621 121.431L128.068 121.9C128.32 121.935 128.575 121.872 128.783 121.726C128.991 121.58 129.135 121.36 129.187 121.112L134.972 93.5379C135.008 93.3666 135.101 93.2123 135.235 93.0997C135.369 92.9871 135.537 92.9227 135.712 92.9168C135.887 92.9109 136.058 92.9638 136.2 93.0671C136.341 93.1703 136.444 93.318 136.491 93.4865L144.665 122.483C144.723 122.694 144.848 122.88 145.022 123.012C145.196 123.145 145.409 123.216 145.628 123.216C145.693 123.216 145.758 123.21 145.822 123.198L150.034 122.387C150.278 122.342 150.497 122.206 150.647 122.007C150.797 121.808 150.868 121.561 150.845 121.313C150.226 114.411 146.937 79.8394 142.667 74.7384Z" fill="#2F2E41"/>
<path d="M118.07 56.1141C118.032 56.4404 118.066 56.771 118.169 57.0827C118.273 57.3944 118.443 57.6797 118.669 57.9183C118.895 58.157 119.17 58.3433 119.475 58.464C119.781 58.5848 120.109 58.6371 120.437 58.6173L123.504 65.9888L125.825 62.5492L122.556 56.0764C122.486 55.5279 122.218 55.0239 121.801 54.6601C121.385 54.2963 120.849 54.098 120.296 54.1026C119.743 54.1073 119.211 54.3146 118.801 54.6853C118.39 55.056 118.13 55.5644 118.07 56.1141L118.07 56.1141Z" fill="#A0616A"/>
<path d="M139.092 82.161C139.418 82.122 139.732 82.012 140.011 81.8387C140.29 81.6654 140.528 81.433 140.707 81.158C140.887 80.8829 141.004 80.5718 141.05 80.2466C141.096 79.9214 141.071 79.59 140.975 79.2758L147.429 74.5752L143.543 73.1201L138.01 77.807C137.493 78.0027 137.066 78.3813 136.809 78.8711C136.552 79.3609 136.484 79.9279 136.617 80.4646C136.751 81.0013 137.076 81.4704 137.533 81.783C137.989 82.0957 138.544 82.2302 139.092 82.161Z" fill="#A0616A"/>
<path d="M128.572 70.9033C128.324 70.903 128.077 70.8787 127.835 70.8306C127.248 70.7189 126.697 70.4645 126.232 70.0898C125.766 69.7151 125.4 69.2316 125.165 68.6821L120.868 63.4419C120.777 63.3311 120.711 63.2022 120.674 63.0637C120.637 62.9253 120.63 62.7806 120.653 62.6393C120.677 62.4979 120.73 62.3632 120.81 62.2442C120.89 62.1252 120.994 62.0246 121.116 61.9492L124.173 60.0566C124.286 59.9867 124.412 59.9399 124.543 59.9188C124.674 59.8977 124.808 59.9028 124.937 59.9337C125.066 59.9647 125.188 60.0209 125.295 60.0991C125.402 60.1774 125.493 60.2761 125.562 60.3896L128.591 65.3797L134.392 61.0928C134.853 60.8506 135.387 60.7827 135.895 60.9015C136.403 61.0202 136.851 61.3177 137.157 61.7395C137.464 62.1614 137.608 62.6794 137.565 63.1991C137.521 63.7187 137.292 64.2052 136.919 64.5697L131.129 69.8509C130.449 70.5253 129.53 70.9035 128.572 70.9033Z" fill="#2F2E41"/>
<path d="M144.245 78.7844C144.237 78.7844 144.229 78.7844 144.222 78.7842C144.081 78.7808 143.942 78.7478 143.815 78.6873C143.687 78.6269 143.574 78.5403 143.482 78.4333L140.764 75.2621C140.671 75.1541 140.602 75.0277 140.562 74.8912C140.522 74.7547 140.511 74.6113 140.531 74.4704C140.55 74.3294 140.599 74.1942 140.675 74.0737C140.751 73.9532 140.851 73.8501 140.969 73.7712L146.059 70.3778L141.448 64.8339C141.18 64.3867 141.081 63.8579 141.171 63.3442C141.26 62.8304 141.532 62.366 141.935 62.0358C142.339 61.7055 142.848 61.5315 143.369 61.5455C143.89 61.5594 144.389 61.7605 144.774 62.1119L150.379 67.5888C150.82 67.9918 151.157 68.4958 151.36 69.0575C151.563 69.6192 151.628 70.2219 151.547 70.8139C151.466 71.4058 151.243 71.9693 150.896 72.456C150.55 72.9428 150.09 73.3381 149.558 73.6082L144.977 78.4687C144.883 78.5683 144.769 78.6477 144.644 78.702C144.518 78.7563 144.382 78.7843 144.245 78.7844Z" fill="#2F2E41"/>
<path d="M138.001 67.099C137.958 67.0989 137.914 67.0962 137.871 67.0907C137.682 67.0676 137.503 66.9908 137.356 66.8693C137.209 66.7477 137.1 66.5866 137.042 66.405L134.999 60.1424C134.948 59.984 134.956 59.8125 135.021 59.6595C135.087 59.5066 135.205 59.3825 135.355 59.3102L135.422 59.2789C135.482 59.2503 135.541 59.222 135.602 59.195C136.555 58.7532 137.591 58.5228 138.641 58.5195C140.004 58.522 141.337 58.9225 142.476 59.6717C142.628 59.7733 142.735 59.9308 142.773 60.1103C142.81 60.2897 142.776 60.4768 142.677 60.6312L138.845 66.6343C138.755 66.7768 138.631 66.8942 138.483 66.9755C138.336 67.0568 138.17 67.0993 138.001 67.099Z" fill="#E6E6E6"/>
<path d="M145.7 47.3005C146.911 47.3005 147.893 46.3185 147.893 45.1072C147.893 43.8958 146.911 42.9138 145.7 42.9138C144.488 42.9138 143.506 43.8958 143.506 45.1072C143.506 46.3185 144.488 47.3005 145.7 47.3005Z" fill="#2F2E41"/>
<path d="M138.181 42.696C136.64 42.696 135.163 43.3081 134.073 44.3975C132.984 45.487 132.372 46.9645 132.372 48.5052V50.963H135.394L136.84 48.5053L137.274 50.963H146.448L143.99 48.5052C143.99 46.9645 143.378 45.487 142.289 44.3975C141.199 43.3081 139.721 42.696 138.181 42.696Z" fill="#2F2E41"/>
<path d="M146.827 43.6046C147.069 42.8462 147.571 42.1975 148.245 41.7727C148.918 41.3479 149.72 41.1741 150.509 41.2819C151.907 41.5156 153.012 42.6391 153.67 43.894C154.329 45.149 154.633 46.5534 155.076 47.8997C155.518 49.246 156.146 50.5996 157.264 51.471C158.381 52.3425 160.096 52.5789 161.194 51.6824C161.068 52.6167 160.652 53.4879 160.005 54.1729C159.357 54.8578 158.51 55.3218 157.585 55.4992C156.659 55.6766 155.701 55.5584 154.846 55.1614C153.991 54.7644 153.282 54.1087 152.82 53.2869C152.241 52.2565 152.092 51.0489 151.92 49.8794C151.748 48.7099 151.525 47.4999 150.834 46.5412C150.142 45.5826 148.848 44.9564 147.749 45.3931L146.827 43.6046Z" fill="#2F2E41"/>
<path d="M75.5077 46.9506C73.5081 46.9504 71.5905 46.1559 70.1766 44.7419C68.7627 43.328 67.9683 41.4103 67.9682 39.4107C67.9681 38.0469 67.9691 37.0042 67.9712 36.8559C68.0347 32.1848 69.2111 27.596 71.4028 23.4705C67.8019 28.4 65.8219 34.3268 65.7368 40.4308C65.7348 40.5791 65.7338 41.6218 65.7339 42.9856C65.734 44.9852 66.5284 46.9029 67.9423 48.3168C69.3562 49.7308 71.2738 50.5253 73.2734 50.5255C74.9165 50.5249 76.5145 49.988 77.8247 48.9963C79.1348 48.0046 80.0854 46.6124 80.5322 45.0312C79.1516 46.2692 77.362 46.9529 75.5077 46.9506Z" fill="#3F3D56"/>
<path d="M95.7967 27.0811C98.1084 27.1915 100.359 27.8613 102.355 29.033C104.35 30.2046 106.032 31.8432 107.255 33.8079C108.478 35.7726 109.206 38.0048 109.376 40.3129C109.547 42.6209 109.154 44.9358 108.233 47.0587C109.565 45.4935 110.545 43.6593 111.105 41.6812C111.664 39.7031 111.791 37.6276 111.476 35.5961C111.16 33.5647 110.411 31.6251 109.278 29.9096C108.145 28.1941 106.656 26.743 104.911 25.6553C103.167 24.5676 101.209 23.8688 99.1697 23.6066C97.1307 23.3443 95.0592 23.5248 93.0963 24.1358C91.1335 24.7467 89.3254 25.7737 87.7954 27.1467C86.2654 28.5198 85.0495 30.2066 84.2305 32.0921C85.646 30.427 87.425 29.1092 89.4304 28.2404C91.4357 27.3716 93.6138 26.9749 95.7967 27.0811Z" fill="#3F3D56"/>
<path d="M98.1164 93.8715C96.0765 93.8719 94.1183 93.0705 92.6641 91.64C91.2099 90.2095 90.3763 88.2647 90.3432 86.2251C90.2486 80.314 90.1996 73.031 90.1996 72.1986C90.1983 70.1737 90.4898 68.1593 91.0651 66.2178L91.0624 66.2172C91.4021 65.2427 91.8124 64.2942 92.29 63.3794C90.8239 65.3331 89.6571 67.4944 88.8281 69.7921L88.8308 69.7927C88.2555 71.7342 87.964 73.7486 87.9653 75.7735C87.9653 76.6059 88.0143 83.8889 88.1089 89.8C88.142 91.8396 88.9756 93.7844 90.4298 95.2149C91.884 96.6454 93.8422 97.4468 95.8821 97.4464C97.564 97.4461 99.2004 96.9005 100.546 95.8914C101.892 94.8823 102.874 93.4642 103.345 91.8497C101.916 93.153 100.051 93.8742 98.1164 93.8715Z" fill="#3F3D56"/>
<path d="M28.2736 126.168L31.0127 126.168L32.3159 115.602L28.2729 115.602L28.2736 126.168Z" fill="#FFB8B8"/>
<path d="M36.2954 128.711L27.6865 128.711L27.6863 125.385L32.9691 125.385C33.8512 125.385 34.6973 125.735 35.3211 126.359C35.9449 126.983 36.2954 127.829 36.2954 128.711L36.2954 128.711Z" fill="#2F2E41"/>
<path d="M18.4421 126.168L21.1811 126.168L22.4844 115.602L18.4414 115.602L18.4421 126.168Z" fill="#FFB8B8"/>
<path d="M26.4639 128.711L17.8549 128.711L17.8548 125.385L23.1375 125.385C24.0197 125.385 24.8657 125.735 25.4895 126.359C26.1134 126.983 26.4638 127.829 26.4639 128.711L26.4639 128.711Z" fill="#2F2E41"/>
<path d="M20.8359 122.918L18.1603 122.778C18.0223 122.77 17.8872 122.736 17.7627 122.676C17.6381 122.616 17.5267 122.532 17.4349 122.429C17.3431 122.326 17.2727 122.205 17.2277 122.074C17.1828 121.944 17.1642 121.806 17.1731 121.668L20.3709 86.2615L35.0975 90.2353L36.5164 89.8483L32.0794 121.192C32.0416 121.428 31.9245 121.644 31.7475 121.804C31.5704 121.964 31.344 122.059 31.1056 122.074L28.2214 122.208C28.0772 122.216 27.9329 122.194 27.7976 122.143C27.6623 122.093 27.539 122.015 27.4354 121.914C27.3319 121.813 27.2503 121.692 27.196 121.558C27.1416 121.425 27.1156 121.281 27.1195 121.137L27.6422 102.324C27.6446 102.237 27.6144 102.153 27.5574 102.087C27.5005 102.021 27.421 101.979 27.3345 101.969C27.2481 101.959 27.161 101.981 27.0904 102.032C27.0199 102.083 26.9709 102.159 26.9533 102.244L21.9134 122.087C21.8658 122.323 21.738 122.535 21.5519 122.686C21.3657 122.838 21.1327 122.921 20.8925 122.92C20.8737 122.92 20.8549 122.919 20.8359 122.918Z" fill="#2F2E41"/>
<path d="M28.7646 57.2916C31.7953 57.2916 34.2523 54.8346 34.2523 51.8039C34.2523 48.7731 31.7953 46.3162 28.7646 46.3162C25.7338 46.3162 23.2769 48.7731 23.2769 51.8039C23.2769 54.8346 25.7338 57.2916 28.7646 57.2916Z" fill="#FFB8B8"/>
<path d="M19.6283 67.9266L20.2317 80.9454L20.4498 85.6818C20.4585 85.888 20.5285 86.0869 20.6508 86.2531C20.7732 86.4193 20.9424 86.5452 21.1367 86.6147L35.2879 91.741C35.4022 91.7835 35.5234 91.8047 35.6453 91.8037C35.7847 91.8043 35.9228 91.7769 36.0513 91.723C36.1799 91.6691 36.2963 91.5899 36.3935 91.4901C36.4908 91.3902 36.5669 91.2718 36.6174 91.1419C36.6679 91.0119 36.6917 90.8732 36.6873 90.7338L36.1072 67.3256C36.0691 65.4051 35.3621 63.558 34.1082 62.1029C32.8542 60.6477 31.1319 59.6756 29.2381 59.3542C29.1012 59.3333 28.9619 59.3124 28.8227 59.2939C27.6483 59.1481 26.4563 59.2614 25.3305 59.6259C24.2047 59.9903 23.1724 60.597 22.3063 61.4033C21.4094 62.2282 20.7047 63.24 20.242 64.3672C19.7792 65.4944 19.5697 66.7095 19.6283 67.9266L19.6283 67.9266Z" fill="#CCCCCC"/>
<path d="M42.0477 89.1431C41.713 89.0392 41.4072 88.8586 41.1547 88.6155C40.9023 88.3725 40.7101 88.0738 40.5936 87.7433C40.477 87.4128 40.4394 87.0596 40.4836 86.712C40.5278 86.3643 40.6526 86.0318 40.8482 85.741L36.0493 79.3598L40.1904 79.1035L44.1126 85.2025C44.5325 85.5271 44.8247 85.9893 44.9379 86.5078C45.0512 87.0263 44.9782 87.5682 44.7319 88.0383C44.4855 88.5084 44.0815 88.8768 43.5907 89.0788C43.0999 89.2808 42.5536 89.3036 42.0477 89.1431H42.0477Z" fill="#FFB8B8"/>
<path d="M38.6736 84.5863C38.5465 84.5347 38.4309 84.4583 38.3334 84.3618C38.236 84.2652 38.1586 84.1502 38.1059 84.0235L30.876 66.7983C30.7342 66.461 30.6602 66.0991 30.6582 65.7332C30.6563 65.3674 30.7265 65.0047 30.8648 64.666C31.0031 64.3272 31.2068 64.0191 31.4642 63.7591C31.7217 63.4991 32.0278 63.2924 32.3652 63.1508C32.7026 63.0092 33.0645 62.9355 33.4304 62.9339C33.7963 62.9322 34.1589 63.0027 34.4975 63.1413C34.8361 63.2798 35.1441 63.4837 35.4039 63.7414C35.6637 63.999 35.8701 64.3054 36.0115 64.6428L43.2413 81.8683C43.3482 82.1237 43.3493 82.4111 43.2446 82.6674C43.1399 82.9236 42.9378 83.1279 42.6826 83.2353L39.4729 84.5824C39.3466 84.6359 39.2109 84.6638 39.0737 84.6644C38.9365 84.6651 38.8005 84.6385 38.6736 84.5863L38.6736 84.5863Z" fill="#CCCCCC"/>
<path d="M27.0007 83.9786L33.9448 70.6824C34.0787 70.4267 34.3086 70.2346 34.584 70.1482C34.8594 70.0617 35.1578 70.0881 35.4138 70.2214L45.4931 75.4855C45.7488 75.6194 45.941 75.8493 46.0274 76.1247C46.1139 76.4001 46.0875 76.6985 45.9542 76.9545L39.0101 90.2506C38.8762 90.5063 38.6463 90.6985 38.3709 90.7849C38.0955 90.8714 37.7971 90.845 37.541 90.7117L27.4617 85.4476C27.206 85.3137 27.0139 85.0838 26.9275 84.8084C26.841 84.533 26.8674 84.2346 27.0007 83.9786Z" fill="#3F3D56"/>
<path d="M31.6581 77.9041C31.5346 77.5762 31.3362 77.2816 31.0787 77.0439C30.8212 76.8062 30.5117 76.632 30.1749 76.5352C29.8381 76.4384 29.4833 76.4216 29.1389 76.4863C28.7944 76.5509 28.4699 76.6952 28.1911 76.9076L21.5377 72.4939L21.5264 76.6429L27.8463 80.1982C28.1952 80.5981 28.6737 80.8625 29.1981 80.9449C29.7224 81.0274 30.259 80.9225 30.7137 80.6488C31.1685 80.3752 31.5124 79.9501 31.685 79.4482C31.8577 78.9464 31.8482 78.3997 31.6581 77.9041Z" fill="#FFB8B8"/>
<path d="M23.2456 78.8372L17.808 74.5299C17.2197 74.3324 16.6882 73.9951 16.259 73.5469C15.8299 73.0988 15.5158 72.5532 15.3439 71.9569C15.172 71.3607 15.1474 70.7317 15.2721 70.1238C15.3968 69.5159 15.6672 68.9474 16.06 68.4671L20.9972 61.9966C21.3403 61.5774 21.8228 61.2956 22.3565 61.2028C22.8903 61.11 23.4396 61.2124 23.904 61.4912C24.3685 61.7701 24.7171 62.2068 24.8861 62.7215C25.0551 63.2362 25.0332 63.7945 24.8245 64.2945L20.918 70.6846L26.6589 73.4075C26.7924 73.4708 26.9109 73.5617 27.0067 73.6743C27.1024 73.7868 27.1732 73.9183 27.2143 74.0602C27.2555 74.2022 27.2661 74.3512 27.2453 74.4975C27.2246 74.6438 27.1731 74.784 27.0941 74.9089L24.7768 78.5763C24.6984 78.7001 24.595 78.806 24.4731 78.8873C24.3512 78.9685 24.2136 79.0233 24.0692 79.048C24.0635 79.049 24.0577 79.0499 24.052 79.0507C23.9101 79.0722 23.7653 79.0643 23.6266 79.0275C23.4879 78.9908 23.3582 78.926 23.2456 78.8372Z" fill="#CCCCCC"/>
<path d="M24.6184 55.4784C24.5948 55.4095 24.5874 55.3362 24.5966 55.264C24.6057 55.1918 24.6313 55.1226 24.6714 55.0618C24.7114 55.001 24.7648 54.9502 24.8275 54.9132C24.8902 54.8763 24.9606 54.8541 25.0332 54.8486C25.1818 54.8566 25.3272 54.8948 25.4607 54.9606C25.5942 55.0265 25.713 55.1187 25.8098 55.2317C26.0084 55.4607 26.2396 55.6593 26.496 55.8209C26.7615 55.9548 27.1215 55.9357 27.2729 55.6806C27.415 55.441 27.3176 55.1202 27.2316 54.8419C27.0126 54.134 26.8901 53.3997 26.8674 52.659C26.8426 51.8322 26.9592 50.9694 27.417 50.3246C28.0077 49.4924 29.064 49.1764 30.0636 49.1993C31.0632 49.2222 32.0467 49.5308 33.0368 49.7259C33.3787 49.7932 33.7805 49.8276 34.0091 49.5627C34.2522 49.281 34.1629 48.8251 34.0595 48.4447C33.7912 47.4577 33.5065 46.4373 32.8831 45.6402C32.209 44.8119 31.2461 44.2698 30.1883 44.123C29.1728 43.9972 28.1419 44.1143 27.1804 44.4645C25.6139 44.9582 24.2355 45.9185 23.2295 47.2169C22.1925 48.5976 21.7444 50.3328 21.9832 52.043C22.2165 53.5326 23.0058 54.8783 24.192 55.8089L24.6184 55.4784Z" fill="#2F2E41"/>
<path d="M94.1223 126.211C92.6622 125.575 91.37 124.609 90.3475 123.388C89.3249 122.167 88.6002 120.725 88.2303 119.176C87.8604 117.627 87.8556 116.014 88.2162 114.462C88.5768 112.911 89.293 111.465 90.3082 110.238C89.1312 111.098 88.1504 112.198 87.4309 113.465C86.7114 114.733 86.2698 116.139 86.1352 117.59C86.0006 119.041 86.1763 120.504 86.6505 121.882C87.1246 123.26 87.8865 124.522 88.8855 125.583C89.8844 126.644 91.0977 127.481 92.4447 128.037C93.7917 128.594 95.2417 128.857 96.6984 128.81C98.155 128.764 99.5851 128.408 100.894 127.766C102.202 127.124 103.359 126.211 104.288 125.088C102.839 126.147 101.138 126.808 99.3549 127.005C97.5713 127.202 95.7672 126.928 94.1223 126.211Z" fill="#007580"/>
</g>
<defs>
<clipPath id="clip0_1868_3351">
<rect width="188.727" height="133" fill="white" transform="translate(0 -4)"/>
</clipPath>
</defs>
</svg>
