<svg width="285" height="198" viewBox="0 0 285 198" fill="none" xmlns="http://www.w3.org/2000/svg">
<g clip-path="url(#clip0_1620_3262)">
<path d="M44.3828 179.088L18.0315 197.115L17.4622 0.830688L44.9428 15.3253L44.3828 179.088Z" fill="#68E1FD"/>
<path d="M18.0054 197.647C17.9286 197.64 17.8538 197.618 17.785 197.581C17.7063 197.536 17.6405 197.469 17.5946 197.388C17.5486 197.306 17.5241 197.214 17.5235 197.119L16.9531 0.855978C16.9521 0.765135 16.9733 0.675533 17.0146 0.595703C17.056 0.515873 17.1161 0.448473 17.1893 0.399918C17.2676 0.360368 17.3542 0.342138 17.441 0.346909C17.5278 0.351681 17.612 0.379299 17.686 0.427218L45.1666 14.9218C45.2507 14.9685 45.3212 15.0382 45.3706 15.1235C45.42 15.2088 45.4465 15.3065 45.4473 15.4063L44.8879 179.158C44.8875 179.246 44.8668 179.333 44.8275 179.41C44.7882 179.488 44.7315 179.554 44.6623 179.604L18.3516 197.634C18.2423 197.686 18.1179 197.69 18.0054 197.647ZM17.9882 1.70173L18.5385 196.13L43.8795 178.793L44.4386 15.66L17.9882 1.70173Z" fill="#231F20"/>
<path d="M18.0318 197.115L4.42056 195.93L5.15893 5.61242L17.4625 0.830703L18.0318 197.115Z" fill="#68E1FD"/>
<path d="M18.0051 197.647L4.40402 196.462C4.27572 196.455 4.15497 196.397 4.06704 196.298C3.97911 196.2 3.93084 196.07 3.93232 195.935L4.65094 5.60583C4.65189 5.49826 4.6839 5.39353 4.74273 5.30542C4.80157 5.21731 4.88447 5.14996 4.98052 5.11226L17.284 0.330544C17.358 0.295359 17.439 0.279321 17.5202 0.283781C17.6013 0.28824 17.6802 0.313067 17.7503 0.356172C17.8178 0.403107 17.8734 0.466628 17.9122 0.541216C17.951 0.615803 17.9718 0.699199 17.9729 0.78415L18.5412 197.09C18.5352 197.238 18.4775 197.379 18.3791 197.486C18.3302 197.538 18.2719 197.579 18.2077 197.606C18.1434 197.634 18.0746 197.648 18.0051 197.647ZM4.90207 195.445L17.4917 196.531L16.977 1.59288L5.68916 5.9827L4.90207 195.445Z" fill="#231F20"/>
<path d="M21.6338 11.3257L21.7357 172.012L41.6507 158.918L41.1118 20.8072L21.6338 11.3257Z" fill="white"/>
<path d="M21.6337 11.3257L41.1117 20.8072L41.6404 158.917L21.6748 172.008L21.5729 11.3224M21.626 10.2593C21.4159 10.246 21.2071 10.3016 21.0285 10.4183C20.8855 10.5158 20.7681 10.6496 20.6874 10.8073C20.6067 10.9649 20.5652 11.1414 20.5667 11.3203L20.6687 172.006C20.668 172.197 20.7161 172.384 20.808 172.549C20.8999 172.713 21.0322 172.849 21.1911 172.941C21.3266 173.019 21.4773 173.064 21.6318 173.072C21.8419 173.085 22.0506 173.03 22.2293 172.913L42.1949 159.822C42.3413 159.725 42.4616 159.59 42.5443 159.43C42.627 159.271 42.6694 159.091 42.6673 158.91L42.128 20.8097C42.1273 20.6085 42.0723 20.4115 41.9692 20.2417C41.8662 20.0718 41.7193 19.9361 41.5457 19.8503L22.0682 10.3582C21.9482 10.3006 21.8187 10.2682 21.6868 10.2626L21.626 10.2593Z" fill="#231F20"/>
<path d="M59.8145 80.3589C59.8145 80.3589 69.254 82.8287 74.5218 80.4228C79.7897 78.0169 81.2208 72.8006 87.1789 72.3109C93.1369 71.8212 108.534 71.1186 108.534 71.1186L109.458 56.7045C109.458 56.7045 99.8359 45.1115 90.102 44.1534C80.3682 43.1953 65.1635 58.2694 59.8145 60.3027V80.3589Z" fill="white"/>
<path d="M68.4317 82.0196C65.4778 81.9733 62.5375 81.5914 59.6621 80.8805C59.5512 80.8518 59.4528 80.7847 59.3828 80.69C59.3128 80.5953 59.2753 80.4787 59.2764 80.3589V60.3027C59.2764 60.1933 59.3086 60.0866 59.3685 59.9971C59.4285 59.9075 59.5133 59.8396 59.6113 59.8024C61.3064 59.1636 64.1179 57.0984 67.3761 54.7138C74.1461 49.753 83.4232 43.0037 90.173 43.6211C99.988 44.5899 109.458 55.8742 109.854 56.3958C109.898 56.4476 109.931 56.5084 109.952 56.5743C109.973 56.6401 109.981 56.7098 109.976 56.779L109.062 71.1931C109.053 71.3225 109 71.4442 108.912 71.536C108.824 71.6278 108.709 71.6836 108.585 71.6934C108.423 71.6934 93.0657 72.4173 87.1889 72.8857C83.9003 73.1519 82.1139 74.8977 80.0839 76.9204C78.5487 78.5942 76.7362 79.9613 74.7348 80.955C72.7231 81.7497 70.5795 82.1117 68.4317 82.0196ZM60.3117 79.8905C62.1184 80.3163 69.8527 81.9344 74.3085 79.8905C76.2038 78.9347 77.9221 77.6335 79.3835 76.0475C81.4947 73.9822 83.4943 72.0234 87.1381 71.7892C92.4567 71.3528 105.51 70.7247 108.108 70.6076L108.981 56.8961C107.783 55.4909 98.902 45.548 90.1019 44.6857C83.7379 44.0576 74.6333 50.7217 67.9851 55.5867C65.5757 57.509 63.0117 59.208 60.3218 60.6647L60.3117 79.8905Z" fill="#231F20"/>
<path d="M31.7497 94.6452L61.1847 86.842C61.1847 86.842 57.8656 70.0966 61.1847 57.7797H28.7757C28.7757 57.7797 25.345 64.7525 26.7457 77.1226C28.1464 89.4928 31.7497 94.6452 31.7497 94.6452Z" fill="#231F20"/>
<path d="M31.7497 95.1775C31.6706 95.1792 31.5924 95.1608 31.5216 95.1237C31.4509 95.0866 31.3898 95.032 31.3437 94.9646C31.1915 94.7517 27.5882 89.546 26.2687 77.1759C24.9492 64.8058 28.1871 57.8223 28.3495 57.5349C28.3936 57.4503 28.458 57.3793 28.5364 57.3289C28.6147 57.2785 28.7042 57.2504 28.7961 57.2474H61.1746C61.2532 57.2482 61.3307 57.2678 61.401 57.3047C61.4713 57.3416 61.5328 57.3948 61.5806 57.4604C61.6278 57.5265 61.6598 57.6032 61.6739 57.6845C61.688 57.7658 61.6838 57.8494 61.6618 57.9288C58.4138 69.9795 61.6618 86.5759 61.6618 86.7356C61.6893 86.8709 61.6655 87.0122 61.5954 87.1295C61.5253 87.2467 61.4144 87.3307 61.2862 87.3637L31.8512 95.1562L31.7497 95.1775ZM29.1006 58.312C28.5017 59.7385 26.0556 66.392 27.2228 77.0588C28.3799 87.5127 31.2219 92.7929 31.973 94.0917L60.5656 86.5014C60.0581 83.6697 57.7642 69.3834 60.4945 58.3652L29.1006 58.312Z" fill="#231F20"/>
<path d="M134.691 52.7444H87.0063C84.8705 52.7444 83.1392 54.5603 83.1392 56.8003V85.4368C83.1392 87.6768 84.8705 89.4927 87.0063 89.4927H134.691C136.827 89.4927 138.558 87.6768 138.558 85.4368V56.8003C138.558 54.5603 136.827 52.7444 134.691 52.7444Z" fill="white"/>
<path d="M134.691 52.7444C135.199 52.743 135.703 52.8469 136.173 53.0503C136.642 53.2536 137.069 53.5523 137.429 53.9292C137.788 54.3061 138.073 54.7538 138.267 55.2465C138.46 55.7392 138.56 56.2673 138.558 56.8003V85.4262C138.56 85.9597 138.461 86.4883 138.267 86.9816C138.073 87.4749 137.788 87.9233 137.429 88.301C137.07 88.6788 136.643 88.9785 136.173 89.183C135.703 89.3875 135.2 89.4928 134.691 89.4928H86.9861C85.9595 89.49 84.9759 89.0603 84.251 88.2979C83.526 87.5356 83.1189 86.5029 83.1189 85.4262V56.7577C83.1189 55.682 83.5264 54.6504 84.2516 53.8897C84.9768 53.1291 85.9605 52.7018 86.9861 52.7018H134.691M134.691 51.6372H86.9861C85.6991 51.6512 84.4693 52.1966 83.563 53.155C82.6568 54.1135 82.1471 55.4079 82.1445 56.7577V85.3836C82.1445 86.7426 82.6586 88.0461 83.5739 89.0081C84.4891 89.9701 85.7309 90.5119 87.0267 90.5147H134.732C136.027 90.5119 137.269 89.9701 138.184 89.0081C139.1 88.0461 139.614 86.7426 139.614 85.3836V56.7577C139.611 55.4006 139.096 54.0998 138.181 53.1401C137.266 52.1804 136.026 51.6401 134.732 51.6372H134.691Z" fill="#231F20"/>
<path d="M138.558 60.0046H83.1392V69.0108H138.558V60.0046Z" fill="#E6E7E8"/>
<path d="M76.7244 74.1206C76.7244 74.1206 89.6758 74.8019 95.1568 73.1519C100.638 71.5018 101.683 67.1478 99.2878 64.5077C96.8924 61.8676 91.2693 64.3906 84.6312 63.4431C77.9931 62.4957 76.7244 61.9953 76.7244 61.9953" fill="white"/>
<path d="M82.8854 74.7913C79.5664 74.7913 76.9375 74.6635 76.7041 74.6422C76.6374 74.6395 76.5719 74.623 76.5113 74.5937C76.4508 74.5644 76.3963 74.5228 76.351 74.4714C76.3058 74.42 76.2706 74.3597 76.2476 74.2941C76.2246 74.2284 76.2141 74.1586 76.2169 74.0887C76.2179 74.0177 76.233 73.9478 76.2612 73.8834C76.2894 73.8189 76.3302 73.7613 76.3808 73.7142C76.4314 73.6672 76.4907 73.6317 76.5551 73.61C76.6195 73.5883 76.6876 73.5809 76.7548 73.5883C76.8766 73.5883 89.6758 74.2484 95.0248 72.6409C97.6232 71.8638 99.3995 70.3521 99.8765 68.5104C100.035 67.8699 100.029 67.1968 99.8596 66.5594C99.6903 65.922 99.3635 65.3428 98.9123 64.8803C97.6943 63.5283 95.3293 63.7199 92.3452 63.9648C89.7583 64.2686 87.1471 64.2686 84.5602 63.9648C77.9424 63.0067 76.6026 62.517 76.5518 62.4957C76.4874 62.4734 76.4279 62.4378 76.3768 62.3909C76.3257 62.3441 76.2841 62.2869 76.2544 62.2229C76.2248 62.1589 76.2076 62.0893 76.2041 62.0183C76.2005 61.9472 76.2105 61.8761 76.2336 61.8092C76.2567 61.7423 76.2924 61.6809 76.3384 61.6286C76.3845 61.5764 76.4401 61.5344 76.502 61.5051C76.5638 61.4758 76.6306 61.4598 76.6985 61.4581C76.7663 61.4564 76.8338 61.4689 76.8969 61.495C79.4635 62.1602 82.0718 62.6333 84.7023 62.9109C87.2151 63.2042 89.7512 63.2042 92.264 62.9109C95.5222 62.6554 98.0901 62.4425 99.6532 64.1564C100.225 64.7529 100.637 65.4971 100.847 66.3139C101.058 67.1306 101.059 67.9911 100.851 68.8085C100.283 71.0121 98.2627 72.7899 95.2989 73.6735C92.3351 74.5571 87.0266 74.7913 82.8854 74.7913Z" fill="#231F20"/>
<path d="M121.963 86.5014C120.758 86.5014 119.581 86.1268 118.579 85.4249C117.578 84.7231 116.797 83.7255 116.336 82.5584C115.875 81.3912 115.755 80.107 115.99 78.8679C116.225 77.6289 116.805 76.4908 117.657 75.5975C118.508 74.7042 119.593 74.0959 120.775 73.8494C121.956 73.603 123.181 73.7295 124.293 74.2129C125.406 74.6964 126.357 75.515 127.026 76.5654C127.696 77.6158 128.053 78.8507 128.053 80.114C128.053 81.8081 127.411 83.4327 126.269 84.6306C125.127 85.8284 123.578 86.5014 121.963 86.5014ZM121.963 74.7913C120.959 74.7913 119.978 75.1034 119.143 75.6883C118.309 76.2732 117.658 77.1045 117.274 78.0771C116.89 79.0497 116.79 80.1199 116.985 81.1525C117.181 82.185 117.664 83.1334 118.374 83.8778C119.084 84.6222 119.988 85.1292 120.973 85.3345C121.957 85.5399 122.978 85.4345 123.905 85.0316C124.832 84.6288 125.625 83.9465 126.183 83.0712C126.74 82.1959 127.038 81.1668 127.038 80.114C127.038 78.7024 126.503 77.3485 125.551 76.3503C124.6 75.3521 123.309 74.7913 121.963 74.7913Z" fill="#E6E7E8"/>
<path d="M129.596 86.5014C128.391 86.5014 127.214 86.1268 126.212 85.4249C125.211 84.7231 124.43 83.7255 123.969 82.5584C123.508 81.3912 123.388 80.107 123.623 78.8679C123.858 77.6289 124.438 76.4908 125.289 75.5975C126.141 74.7042 127.226 74.0959 128.408 73.8494C129.589 73.603 130.813 73.7295 131.926 74.2129C133.039 74.6964 133.99 75.515 134.659 76.5654C135.328 77.6158 135.686 78.8507 135.686 80.114C135.686 81.8081 135.044 83.4327 133.902 84.6306C132.76 85.8284 131.211 86.5014 129.596 86.5014ZM129.596 74.7913C128.592 74.7913 127.611 75.1034 126.776 75.6883C125.942 76.2732 125.291 77.1045 124.907 78.0771C124.523 79.0497 124.422 80.1199 124.618 81.1525C124.814 82.185 125.297 83.1334 126.007 83.8778C126.717 84.6222 127.621 85.1292 128.606 85.3345C129.59 85.5399 130.61 85.4345 131.538 85.0316C132.465 84.6288 133.258 83.9465 133.815 83.0712C134.373 82.1959 134.671 81.1668 134.671 80.114C134.671 78.7024 134.136 77.3485 133.184 76.3503C132.232 75.3521 130.942 74.7913 129.596 74.7913Z" fill="#E6E7E8"/>
<path d="M91.7564 79.8373H87.9501C87.8155 79.8373 87.6864 79.7812 87.5913 79.6814C87.4961 79.5815 87.4426 79.4462 87.4426 79.305C87.4426 79.1638 87.4961 79.0284 87.5913 78.9286C87.6864 78.8288 87.8155 78.7727 87.9501 78.7727H91.7564C91.891 78.7727 92.0201 78.8288 92.1152 78.9286C92.2104 79.0284 92.2639 79.1638 92.2639 79.305C92.2639 79.4462 92.2104 79.5815 92.1152 79.6814C92.0201 79.7812 91.891 79.8373 91.7564 79.8373Z" fill="#E6E7E8"/>
<path d="M98.0292 79.8373H94.2128C94.0782 79.8373 93.9491 79.7812 93.854 79.6814C93.7588 79.5815 93.7053 79.4462 93.7053 79.305C93.7079 79.1647 93.7622 79.0309 93.8568 78.9316C93.9515 78.8324 94.079 78.7754 94.2128 78.7727H98.0292C98.163 78.7754 98.2906 78.8324 98.3852 78.9316C98.4798 79.0309 98.5341 79.1647 98.5367 79.305C98.5367 79.4462 98.4833 79.5815 98.3881 79.6814C98.2929 79.7812 98.1638 79.8373 98.0292 79.8373Z" fill="#E6E7E8"/>
<path d="M104.292 79.8373H100.486C100.351 79.8373 100.222 79.7812 100.127 79.6814C100.031 79.5815 99.978 79.4462 99.978 79.305C99.978 79.1638 100.031 79.0284 100.127 78.9286C100.222 78.8288 100.351 78.7727 100.486 78.7727H104.292C104.426 78.7727 104.555 78.8288 104.651 78.9286C104.746 79.0284 104.799 79.1638 104.799 79.305C104.799 79.4462 104.746 79.5815 104.651 79.6814C104.555 79.7812 104.426 79.8373 104.292 79.8373Z" fill="#E6E7E8"/>
<path d="M110.564 79.8373H106.758C106.624 79.8373 106.495 79.7812 106.399 79.6814C106.304 79.5815 106.251 79.4462 106.251 79.305C106.251 79.1638 106.304 79.0284 106.399 78.9286C106.495 78.8288 106.624 78.7727 106.758 78.7727H110.564C110.698 78.7754 110.826 78.8324 110.92 78.9316C111.015 79.0309 111.069 79.1647 111.072 79.305C111.072 79.4462 111.019 79.5815 110.923 79.6814C110.828 79.7812 110.699 79.8373 110.564 79.8373Z" fill="#E6E7E8"/>
<path d="M100.485 85.0323H87.9501C87.8155 85.0323 87.6864 84.9762 87.5913 84.8764C87.4961 84.7766 87.4426 84.6412 87.4426 84.5C87.4426 84.3588 87.4961 84.2234 87.5913 84.1236C87.6864 84.0238 87.8155 83.9677 87.9501 83.9677H100.485C100.62 83.9677 100.749 84.0238 100.844 84.1236C100.939 84.2234 100.993 84.3588 100.993 84.5C100.993 84.6412 100.939 84.7766 100.844 84.8764C100.749 84.9762 100.62 85.0323 100.485 85.0323Z" fill="#E6E7E8"/>
<path d="M239.677 179.087L266.028 197.115L266.597 0.830408L239.117 15.325L239.677 179.087Z" fill="#68E1FD"/>
<path d="M266.054 197.647C265.948 197.654 265.842 197.622 265.755 197.556L239.384 179.53C239.314 179.48 239.258 179.414 239.218 179.336C239.179 179.258 239.158 179.172 239.158 179.084L238.599 15.3321C238.599 15.2323 238.626 15.1346 238.675 15.0493C238.725 14.964 238.795 14.8944 238.879 14.8476L266.36 0.35307C266.434 0.305151 266.518 0.277529 266.605 0.272758C266.692 0.267987 266.778 0.286221 266.857 0.325771C266.93 0.374325 266.99 0.441726 267.031 0.521556C267.073 0.601386 267.094 0.690987 267.093 0.781831L266.524 197.066C266.523 197.161 266.498 197.253 266.452 197.335C266.407 197.416 266.341 197.483 266.262 197.529C266.201 197.582 266.13 197.622 266.054 197.647ZM240.181 178.814L265.521 196.13L266.072 1.70144L239.621 15.6597L240.181 178.814Z" fill="#231F20"/>
<path d="M266.028 197.115L279.639 195.93L278.901 5.6121L266.597 0.830387L266.028 197.115Z" fill="#68E1FD"/>
<path d="M266.055 197.647C265.918 197.654 265.783 197.604 265.682 197.507C265.583 197.4 265.526 197.259 265.52 197.111L266.089 0.826355C266.09 0.741403 266.111 0.658011 266.15 0.583423C266.188 0.508836 266.244 0.445313 266.312 0.398378C266.382 0.355273 266.461 0.330449 266.542 0.325989C266.623 0.321529 266.704 0.337563 266.778 0.372748L279.081 5.15447C279.177 5.19217 279.26 5.25952 279.319 5.34763C279.378 5.43574 279.41 5.54047 279.411 5.64804L280.148 195.934C280.149 196.069 280.101 196.199 280.013 196.297C279.925 196.395 279.804 196.454 279.676 196.461L266.075 197.645L266.055 197.647ZM267.083 1.59257L266.538 196.533L279.127 195.446L278.391 5.98127L267.083 1.59257Z" fill="#231F20"/>
<path d="M262.426 11.3254L262.324 172.011L242.409 158.917L242.948 20.8069L262.426 11.3254Z" fill="white"/>
<path d="M262.426 11.3254L262.324 172.011L242.419 158.917L242.958 20.8063L262.436 11.3248M262.383 10.2617C262.251 10.2673 262.122 10.2998 262.002 10.3573L242.524 19.8495C242.35 19.9353 242.204 20.071 242.101 20.2408C241.997 20.4106 241.942 20.6076 241.942 20.8089L241.402 158.909C241.4 159.09 241.443 159.27 241.525 159.429C241.608 159.589 241.728 159.724 241.875 159.821L261.79 172.915C261.968 173.032 262.177 173.087 262.387 173.074C262.542 173.066 262.693 173.021 262.828 172.943C262.987 172.851 263.119 172.715 263.211 172.551C263.303 172.386 263.351 172.199 263.35 172.008L263.452 11.3223C263.454 11.1433 263.412 10.9669 263.332 10.8092C263.251 10.6515 263.134 10.5178 262.991 10.4202C262.812 10.3035 262.603 10.248 262.393 10.2612L262.383 10.2617Z" fill="#231F20"/>
<path d="M218.297 91.8242H150.972V160.722H218.297V91.8242Z" fill="white"/>
<path d="M218.297 91.8241V160.722H150.972V91.8241H218.297ZM218.297 90.7596H150.972C150.702 90.7596 150.444 90.8717 150.254 91.0714C150.063 91.271 149.957 91.5418 149.957 91.8241V160.722C149.957 161.004 150.063 161.275 150.254 161.475C150.444 161.674 150.702 161.787 150.972 161.787H218.297C218.566 161.787 218.824 161.674 219.014 161.475C219.205 161.275 219.312 161.004 219.312 160.722V91.8241C219.312 91.5418 219.205 91.271 219.014 91.0714C218.824 90.8717 218.566 90.7596 218.297 90.7596Z" fill="#231F20"/>
<path d="M212.978 53.5641C210.765 50.8707 207.324 49.6997 203.995 49.061C200.666 48.4223 197.215 48.1987 194.069 46.868C191.775 45.8993 189.623 44.345 187.156 44.1321C184.69 43.9192 181.807 45.9525 182.295 48.4968C182.725 49.8433 183.609 50.9789 184.781 51.6904C187.014 53.4152 189.328 55.0212 191.714 56.5022C189.582 56.1403 187.126 55.8848 185.522 57.3965C184.162 58.6846 183.929 60.7924 183.888 62.7192C183.763 68.5107 184.625 74.2791 186.436 79.7521C186.903 81.6257 187.905 83.3047 189.308 84.5639C190.993 85.82 193.206 85.852 195.266 85.8413L227.746 85.6071C229.106 85.6071 228.203 63.2515 226.325 61.0053C224.63 59.0039 222.834 59.5469 220.54 59.2914C216.531 58.8017 215.404 56.5129 212.978 53.5641Z" fill="white"/>
<path d="M194.708 86.3417C192.932 86.3417 190.709 86.2352 189.014 84.9684C187.525 83.6487 186.462 81.8789 185.969 79.9011C184.132 74.3791 183.259 68.5553 183.391 62.7086C183.391 60.6966 183.685 58.4504 185.187 57.0132C185.789 56.5084 186.48 56.1336 187.22 55.9107C187.961 55.6878 188.736 55.6211 189.501 55.7145C187.786 54.586 186.111 53.3831 184.487 52.1269C183.204 51.3419 182.248 50.0808 181.807 48.5926C181.707 48.0365 181.735 47.4634 181.889 46.9209C182.042 46.3784 182.317 45.8821 182.69 45.4735C183.263 44.8282 183.965 44.3251 184.747 44.0009C185.528 43.6768 186.369 43.5397 187.207 43.5998C188.975 43.8574 190.68 44.4642 192.231 45.3883C192.901 45.7289 193.581 46.0802 194.261 46.3677C196.56 47.2186 198.944 47.7901 201.366 48.071C202.28 48.2094 203.183 48.3584 204.097 48.5287C208.492 49.3697 211.445 50.8494 213.374 53.2128C213.749 53.6599 214.095 54.107 214.389 54.5222C216.196 56.8429 217.383 58.3652 220.591 58.7271C221.118 58.791 221.606 58.8017 222.103 58.823C223.727 58.823 225.27 58.9188 226.701 60.6221C228.619 62.8789 229.573 82.8712 228.436 85.5539C228.391 85.7082 228.301 85.844 228.18 85.943C228.058 86.042 227.91 86.0994 227.756 86.1075L195.276 86.3417H194.708ZM189.024 56.7577C187.879 56.6868 186.75 57.0664 185.857 57.8223C184.639 58.9826 184.436 61.0159 184.396 62.7512C184.268 68.4706 185.121 74.1676 186.913 79.5711C187.351 81.3389 188.293 82.9246 189.613 84.1168C191.095 85.1813 193.043 85.3197 195.266 85.2984H195.378L227.564 85.0642C228.406 82.9351 227.675 63.358 225.97 61.3459C224.813 59.994 223.676 59.962 222.093 59.9088C221.585 59.9088 221.078 59.9088 220.499 59.813C216.886 59.3978 215.424 57.5561 213.628 55.2248C213.303 54.8096 212.958 54.3731 212.613 53.926C210.836 51.7969 208.076 50.3917 203.924 49.5933C203.031 49.4229 202.128 49.2846 201.224 49.1462C198.728 48.8589 196.271 48.2658 193.906 47.379C193.186 47.0703 192.475 46.7083 191.795 46.3145C190.356 45.4506 188.776 44.8765 187.136 44.6218C186.453 44.5776 185.769 44.691 185.133 44.954C184.496 45.217 183.922 45.6233 183.452 46.1441C183.186 46.4318 182.989 46.7817 182.878 47.1649C182.767 47.5481 182.744 47.9536 182.812 48.3477C183.218 49.5687 184.029 50.5962 185.096 51.2433C187.309 52.9466 189.633 54.5541 191.998 56.0232C192.098 56.0876 192.174 56.1864 192.212 56.3028C192.251 56.4191 192.249 56.5459 192.209 56.6614C192.168 56.7769 192.09 56.8741 191.989 56.9363C191.888 56.9985 191.769 57.0219 191.653 57.0026C190.784 56.851 189.905 56.7691 189.024 56.7577Z" fill="#231F20"/>
<path d="M200.828 98.5308C200.762 98.5323 200.696 98.5198 200.635 98.4942C200.573 98.4686 200.517 98.4305 200.47 98.3819C200.423 98.3333 200.385 98.2753 200.36 98.2113C200.334 98.1473 200.321 98.0786 200.321 98.0092C200.321 97.5834 199.661 56.2787 184.639 56.2787C169.617 56.2787 168.957 97.5834 168.957 98.0092C168.955 98.1485 168.9 98.2812 168.805 98.3787C168.71 98.4762 168.583 98.5309 168.45 98.5308C168.383 98.5295 168.317 98.5143 168.256 98.4863C168.195 98.4582 168.14 98.4179 168.094 98.3674C168.048 98.317 168.011 98.2576 167.987 98.1924C167.963 98.1273 167.951 98.0578 167.952 97.9879C167.952 96.242 168.633 55.2141 184.649 55.2141C191.429 55.2141 196.301 62.4637 199.123 76.7607C200.42 83.7602 201.163 90.8601 201.346 97.9879C201.347 98.0587 201.335 98.1291 201.31 98.1949C201.285 98.2607 201.248 98.3206 201.201 98.3712C201.154 98.4218 201.097 98.4619 201.035 98.4893C200.973 98.5167 200.906 98.5309 200.839 98.5308H200.828Z" fill="#231F20"/>
<path d="M251.335 93.3678L224.366 86.842C224.366 86.842 227.685 70.0966 224.366 57.7797L254.299 56.5023C254.299 56.5023 257.739 63.4751 256.329 75.8346C254.918 88.194 251.335 93.3678 251.335 93.3678Z" fill="#231F20"/>
<path d="M251.335 93.9H251.223L224.245 87.3637C224.114 87.3331 224.001 87.25 223.929 87.1325C223.857 87.015 223.832 86.8724 223.859 86.7356C223.859 86.5759 227.117 69.9689 223.859 57.9287C223.838 57.851 223.835 57.7694 223.849 57.6901C223.863 57.6108 223.894 57.5358 223.94 57.471C223.985 57.4068 224.043 57.3536 224.11 57.315C224.176 57.2764 224.25 57.2533 224.326 57.2474L254.258 55.97C254.354 55.9706 254.449 55.9974 254.533 56.0478C254.616 56.0981 254.686 56.1704 254.735 56.2574C254.877 56.5555 258.227 63.5177 256.846 75.8984C255.466 88.2792 251.873 93.4636 251.721 93.6871C251.674 93.7484 251.615 93.7989 251.549 93.8355C251.482 93.8721 251.41 93.8941 251.335 93.9ZM224.945 86.4481L251.091 92.7716C251.842 91.5474 254.684 86.2672 255.852 75.792C257.029 65.1464 254.583 58.5143 253.974 57.0665L225.016 58.3013C227.756 69.2982 225.463 83.5739 224.955 86.4375L224.945 86.4481Z" fill="#231F20"/>
<path d="M204.899 81.6257H204.756C195.266 78.6024 193.794 72.7261 193.794 72.4812C193.764 72.3458 193.785 72.203 193.853 72.0836C193.921 71.9642 194.031 71.8776 194.16 71.8425C194.292 71.8102 194.43 71.8333 194.546 71.907C194.662 71.9806 194.745 72.0988 194.779 72.2364C194.779 72.2364 196.19 77.7827 205.081 80.5825C205.209 80.6242 205.315 80.7169 205.378 80.8404C205.44 80.9639 205.454 81.1084 205.416 81.2425C205.386 81.3595 205.318 81.4618 205.223 81.5318C205.129 81.6017 205.014 81.6349 204.899 81.6257Z" fill="#231F20"/>
<path d="M185.441 56.6087C188.467 56.1748 191.523 56.0039 194.576 56.0977C196.606 56.1509 199.052 56.6726 199.651 58.6952C199.791 59.3227 199.772 59.9779 199.593 60.5948C199.415 61.2116 199.085 61.7682 198.636 62.2083C197.75 63.0758 196.717 63.7618 195.591 64.2309C197.408 64.2309 199.651 64.5929 200.27 66.36C200.441 66.9913 200.427 67.6619 200.23 68.2847C200.033 68.9075 199.661 69.4535 199.164 69.8518C198.162 70.6254 197.023 71.1826 195.814 71.4912C197.844 71.8744 200.341 72.7686 200.504 74.919C200.666 77.0694 198.534 78.2937 196.667 78.9218C197.235 79.9863 198.91 79.7734 199.813 80.6144C200.195 81.0809 200.387 81.6861 200.347 82.2996C200.307 82.913 200.039 83.4855 199.6 83.8932C198.686 84.672 197.559 85.1267 196.383 85.192C194.027 85.5065 191.647 85.5742 189.278 85.3942C187.781 85.4497 186.316 84.9312 185.157 83.9358C184.142 82.8074 184.253 80.5292 185.674 80.0715C184.823 80.0104 184.007 79.6913 183.326 79.1531C182.644 78.6149 182.126 77.8807 181.835 77.0396C181.543 76.1985 181.491 75.2868 181.685 74.4153C181.878 73.5437 182.308 72.7498 182.924 72.1299C182.271 71.8486 181.701 71.3912 181.271 70.8041C180.842 70.217 180.568 69.5212 180.478 68.7872C180.43 68.0673 180.547 67.346 180.819 66.6832C181.091 66.0203 181.51 65.4351 182.041 64.9761C176.539 62.0805 181.503 57.1836 185.441 56.6087Z" fill="white"/>
<path d="M192.099 86.033C191.186 86.033 190.242 86.001 189.267 85.9372C187.641 85.994 186.052 85.4134 184.812 84.3084C184.46 83.9013 184.21 83.4092 184.084 82.876C183.959 82.3428 183.961 81.7852 184.091 81.2531C184.173 80.9367 184.307 80.6377 184.487 80.3695C183.735 80.1157 183.052 79.6748 182.497 79.0846C181.942 78.4944 181.532 77.7723 181.301 76.9797C181.069 76.1872 181.024 75.3478 181.169 74.533C181.314 73.7182 181.644 72.9522 182.132 72.3002C181.551 71.9325 181.056 71.4309 180.687 70.8333C180.318 70.2357 180.083 69.5579 180 68.8511C179.942 68.171 180.022 67.4857 180.233 66.84C180.445 66.1943 180.784 65.6027 181.229 65.1038C179.199 63.8051 178.985 62.2934 179.199 61.2182C179.615 58.6633 182.812 56.4597 185.41 56.0871C188.477 55.642 191.573 55.4675 194.667 55.5654C197.712 55.6506 199.661 56.6832 200.229 58.5249C200.409 59.2395 200.403 59.9914 200.212 60.7028C200.021 61.4141 199.652 62.0589 199.143 62.5702C198.675 63.079 198.138 63.513 197.55 63.8583C198.247 63.9081 198.919 64.1499 199.498 64.5592C200.077 64.9686 200.543 65.531 200.849 66.1897C201.05 66.9225 201.038 67.7015 200.816 68.4276C200.594 69.1536 200.17 69.7939 199.6 70.2669C199.034 70.7482 198.4 71.136 197.722 71.4166C200.331 72.3002 201.021 73.7374 201.112 74.8871C201.244 76.6117 199.986 78.1659 197.722 79.1453C197.996 79.2748 198.282 79.3747 198.575 79.4434C199.185 79.5683 199.759 79.8418 200.25 80.2418C200.478 80.4609 200.659 80.7274 200.783 81.0244C200.908 81.3213 200.971 81.6422 200.97 81.9664C200.974 82.3992 200.895 82.8284 200.738 83.2288C200.581 83.6292 200.35 83.9926 200.057 84.2977C199.062 85.1581 197.832 85.6651 196.545 85.7455C195.071 85.9494 193.586 86.0455 192.099 86.033ZM185.512 57.141C183.259 57.4603 180.498 59.3552 180.163 61.3992C179.96 62.5915 180.681 63.6454 182.294 64.5183C182.367 64.5572 182.429 64.6146 182.476 64.6852C182.522 64.7559 182.55 64.8376 182.558 64.9229C182.568 65.0072 182.558 65.0928 182.53 65.1724C182.502 65.2521 182.456 65.3235 182.396 65.3806C181.927 65.7835 181.556 66.2979 181.314 66.881C181.072 67.4642 180.966 68.0994 181.005 68.734C181.082 69.3736 181.32 69.9802 181.694 70.4911C182.069 71.002 182.567 71.3987 183.137 71.6402C183.216 71.6735 183.286 71.7269 183.341 71.7956C183.396 71.8644 183.434 71.9463 183.451 72.0341C183.466 72.1225 183.459 72.2133 183.433 72.2986C183.406 72.3839 183.361 72.4612 183.299 72.5238C182.756 73.0738 182.376 73.7771 182.206 74.5486C182.036 75.3201 182.083 76.1268 182.34 76.8711C182.598 77.6155 183.056 78.2656 183.658 78.7428C184.261 79.2201 184.982 79.5041 185.735 79.5605C185.87 79.545 186.005 79.5861 186.11 79.675C186.216 79.7638 186.284 79.893 186.299 80.0342C186.313 80.1754 186.274 80.3169 186.189 80.4277C186.105 80.5385 185.981 80.6095 185.847 80.625C185.652 80.6943 185.478 80.8165 185.342 80.9791C185.207 81.1418 185.115 81.3392 185.075 81.5512C184.992 81.9079 184.991 82.2804 185.072 82.6377C185.153 82.9951 185.314 83.3269 185.542 83.6058C186.611 84.5096 187.957 84.9716 189.328 84.9045C191.676 85.0929 194.037 85.0287 196.372 84.7129C197.442 84.6562 198.467 84.2505 199.306 83.5526C199.501 83.3516 199.656 83.1113 199.761 82.846C199.865 82.5807 199.918 82.296 199.915 82.009C199.916 81.8327 199.883 81.6581 199.818 81.4954C199.754 81.3327 199.659 81.1851 199.539 81.0615C199.16 80.7795 198.727 80.5871 198.27 80.4973C197.865 80.4472 197.475 80.3074 197.125 80.0872C196.775 79.867 196.473 79.5713 196.24 79.2198C196.211 79.1476 196.195 79.0697 196.195 78.9909C196.195 78.9122 196.211 78.8343 196.24 78.7621C196.27 78.6919 196.313 78.6291 196.367 78.5777C196.422 78.5263 196.486 78.4876 196.555 78.464C197.418 78.1659 200.199 77.0694 200.037 75.0042C199.905 73.2051 197.641 72.4067 195.763 72.0554C195.651 72.036 195.548 71.9768 195.473 71.8877C195.397 71.7986 195.353 71.6849 195.347 71.5657C195.34 71.4465 195.371 71.3282 195.435 71.2297C195.5 71.1312 195.594 71.0583 195.703 71.0228C196.847 70.7353 197.927 70.2144 198.879 69.4898C199.301 69.1654 199.623 68.7177 199.803 68.2026C199.984 67.6875 200.016 67.1281 199.894 66.5942C199.478 65.4338 198.098 64.8377 195.672 64.7951C195.556 64.7947 195.444 64.752 195.355 64.6742C195.266 64.5965 195.206 64.4887 195.185 64.3693C195.16 64.2508 195.175 64.1272 195.227 64.0188C195.279 63.9104 195.364 63.8237 195.469 63.7731C196.555 63.342 197.551 62.695 198.402 61.8676C198.783 61.4938 199.062 61.0212 199.211 60.4977C199.361 59.9741 199.376 59.4184 199.255 58.8868C198.717 57.141 196.443 56.7577 194.627 56.6619C191.59 56.5657 188.552 56.7366 185.542 57.1729L185.512 57.141Z" fill="#231F20"/>
<path d="M184.406 65.4871C184.271 65.4871 184.142 65.431 184.047 65.3312C183.952 65.2313 183.898 65.0959 183.898 64.9548C183.898 64.8136 183.952 64.6782 184.047 64.5784C184.142 64.4786 184.271 64.4225 184.406 64.4225L195.652 63.688C195.719 63.6836 195.785 63.6932 195.849 63.716C195.912 63.7388 195.97 63.7745 196.02 63.821C196.07 63.8675 196.111 63.9238 196.14 63.9869C196.169 64.0499 196.186 64.1184 196.19 64.1883C196.193 64.3282 196.146 64.4641 196.057 64.5688C195.969 64.6735 195.846 64.7391 195.713 64.7525L184.477 65.4764L184.406 65.4871Z" fill="#231F20"/>
<path d="M185.928 72.5876C185.8 72.5878 185.676 72.5357 185.584 72.4425C185.491 72.3492 185.436 72.2219 185.431 72.0873C185.427 72.0174 185.436 71.9473 185.458 71.881C185.479 71.8148 185.513 71.7537 185.558 71.7013C185.602 71.6489 185.656 71.6062 185.716 71.5756C185.776 71.545 185.841 71.5272 185.908 71.5231L195.845 70.9695C195.912 70.9637 195.979 70.9722 196.043 70.9945C196.107 71.0167 196.165 71.0523 196.216 71.0991C196.266 71.1459 196.307 71.2028 196.335 71.2665C196.364 71.3303 196.38 71.3994 196.383 71.4699C196.385 71.5398 196.375 71.6096 196.352 71.6752C196.329 71.7409 196.294 71.8012 196.249 71.8526C196.203 71.904 196.149 71.9456 196.088 71.9749C196.028 72.0042 195.962 72.0207 195.896 72.0234L185.959 72.5876H185.928Z" fill="#231F20"/>
<path d="M188.09 80.1779C187.955 80.1779 187.826 80.1218 187.731 80.022C187.636 79.9222 187.583 79.7868 187.583 79.6456C187.583 79.5045 187.636 79.3691 187.731 79.2693C187.826 79.1695 187.955 79.1134 188.09 79.1134L196.728 78.4001C196.795 78.3928 196.862 78.3998 196.927 78.4207C196.991 78.4417 197.05 78.4761 197.102 78.5218C197.153 78.5676 197.195 78.6239 197.225 78.6871C197.255 78.7504 197.272 78.8193 197.276 78.8898C197.281 78.9597 197.274 79.0302 197.253 79.097C197.233 79.1638 197.2 79.2257 197.156 79.2791C197.113 79.3325 197.06 79.3764 197 79.4083C196.941 79.4401 196.876 79.4593 196.809 79.4647L188.171 80.1673L188.09 80.1779Z" fill="#231F20"/>
<path d="M172.55 110.209H159.721C159.586 110.209 159.457 110.153 159.362 110.053C159.267 109.953 159.213 109.818 159.213 109.677C159.216 109.536 159.27 109.403 159.365 109.303C159.46 109.204 159.587 109.147 159.721 109.144H172.55C172.684 109.147 172.812 109.204 172.906 109.303C173.001 109.403 173.055 109.536 173.058 109.677C173.058 109.818 173.005 109.953 172.909 110.053C172.814 110.153 172.685 110.209 172.55 110.209Z" fill="#E6E7E8"/>
</g>
<defs>
<clipPath id="clip0_1620_3262">
<rect width="284.059" height="197.095" fill="white" transform="translate(0 0.79126)"/>
</clipPath>
</defs>
</svg>
