<svg width="390" height="223" viewBox="0 0 390 223" fill="none" xmlns="http://www.w3.org/2000/svg">
<g clip-path="url(#clip0_1609_2966)">
<path opacity="0.1" d="M140.796 166.111C214.601 166.111 274.432 164.509 274.432 162.532C274.432 160.555 214.601 158.952 140.796 158.952C66.9902 158.952 7.15918 160.555 7.15918 162.532C7.15918 164.509 66.9902 166.111 140.796 166.111Z" fill="#6C63FF"/>
<g opacity="0.7">
<path d="M91.0228 136.111H48.4092V159.634H91.0228V136.111Z" fill="#65617D"/>
<path opacity="0.1" d="M76.3637 140.202H63.4092V142.929H76.3637V140.202Z" fill="black"/>
<path opacity="0.1" d="M74.7442 140.543H65.0283V142.589H74.7442V140.543Z" fill="black"/>
<path d="M134.318 136.111H91.7046V159.634H134.318V136.111Z" fill="#65617D"/>
<path opacity="0.1" d="M119.659 140.202H106.705V142.929H119.659V140.202Z" fill="black"/>
<path opacity="0.1" d="M118.04 140.543H108.324V142.589H118.04V140.543Z" fill="black"/>
<path d="M91.0228 111.907H48.4092V135.429H91.0228V111.907Z" fill="#65617D"/>
<path opacity="0.1" d="M76.3637 115.998H63.4092V118.725H76.3637V115.998Z" fill="black"/>
<path opacity="0.1" d="M74.7442 116.339H65.0283V118.384H74.7442V116.339Z" fill="black"/>
<path d="M134.318 111.907H91.7046V135.429H134.318V111.907Z" fill="#65617D"/>
<path opacity="0.1" d="M119.659 115.998H106.705V118.725H119.659V115.998Z" fill="black"/>
<path opacity="0.1" d="M118.04 116.339H108.324V118.384H118.04V116.339Z" fill="black"/>
<path d="M91.0228 87.3613H48.4092V110.884H91.0228V87.3613Z" fill="#65617D"/>
<path opacity="0.1" d="M76.3637 91.4521H63.4092V94.1794H76.3637V91.4521Z" fill="black"/>
<path opacity="0.1" d="M74.7442 91.7932H65.0283V93.8387H74.7442V91.7932Z" fill="black"/>
<path d="M134.318 87.3613H91.7046V110.884H134.318V87.3613Z" fill="#65617D"/>
<path opacity="0.1" d="M119.659 91.4521H106.705V94.1794H119.659V91.4521Z" fill="black"/>
<path opacity="0.1" d="M118.04 91.7932H108.324V93.8387H118.04V91.7932Z" fill="black"/>
<path d="M134.318 62.8158H91.7046V86.3385H134.318V62.8158Z" fill="#65617D"/>
<path opacity="0.1" d="M119.659 66.9067H106.705V69.634H119.659V66.9067Z" fill="black"/>
<path opacity="0.1" d="M118.04 67.2477H108.324V69.2931H118.04V67.2477Z" fill="black"/>
</g>
<g opacity="0.7">
<path d="M177.614 135.77H135V159.293H177.614V135.77Z" fill="#65617D"/>
<path opacity="0.1" d="M162.955 139.861H150V142.589H162.955V139.861Z" fill="black"/>
<path opacity="0.1" d="M161.335 140.202H151.619V142.248H161.335V140.202Z" fill="black"/>
<path d="M220.909 135.77H178.295V159.293H220.909V135.77Z" fill="#65617D"/>
<path opacity="0.1" d="M206.25 139.861H193.296V142.589H206.25V139.861Z" fill="black"/>
<path opacity="0.1" d="M204.631 140.202H194.915V142.248H204.631V140.202Z" fill="black"/>
<path d="M177.614 111.566H135V135.089H177.614V111.566Z" fill="#65617D"/>
<path opacity="0.1" d="M162.955 115.657H150V118.384H162.955V115.657Z" fill="black"/>
<path opacity="0.1" d="M161.335 115.998H151.619V118.043H161.335V115.998Z" fill="black"/>
<path d="M220.909 111.566H178.295V135.089H220.909V111.566Z" fill="#65617D"/>
<path opacity="0.1" d="M206.25 115.657H193.296V118.384H206.25V115.657Z" fill="black"/>
<path opacity="0.1" d="M204.631 115.998H194.915V118.043H204.631V115.998Z" fill="black"/>
<path d="M177.614 87.0204H135V110.543H177.614V87.0204Z" fill="#65617D"/>
<path opacity="0.1" d="M162.955 91.1113H150V93.8386H162.955V91.1113Z" fill="black"/>
<path opacity="0.1" d="M161.335 91.4521H151.619V93.4976H161.335V91.4521Z" fill="black"/>
<path d="M220.909 87.0204H178.295V110.543H220.909V87.0204Z" fill="#65617D"/>
<path opacity="0.1" d="M206.25 91.1113H193.296V93.8386H206.25V91.1113Z" fill="black"/>
<path opacity="0.1" d="M204.631 91.4521H194.915V93.4976H204.631V91.4521Z" fill="black"/>
<path d="M220.909 62.475H178.295V85.9977H220.909V62.475Z" fill="#65617D"/>
<path opacity="0.1" d="M206.25 66.5659H193.296V69.2932H206.25V66.5659Z" fill="black"/>
<path opacity="0.1" d="M204.631 66.9067H194.915V68.9522H204.631V66.9067Z" fill="black"/>
</g>
<path opacity="0.1" d="M299.417 0.0374971C299.417 0.0374971 270.716 -1.69432 274.091 18.4193C274.091 18.4193 273.409 21.975 276.641 23.5875C276.641 23.5875 276.692 22.0977 279.586 22.6057C280.617 22.7765 281.664 22.8268 282.706 22.7557C284.113 22.6585 285.451 22.1056 286.517 21.1807C286.517 21.1807 294.586 17.8466 297.723 4.66022C297.723 4.66022 300.044 1.78295 299.952 1.04318L295.108 3.1125C295.108 3.1125 296.765 6.60682 295.449 9.51136C295.449 9.51136 295.292 3.23863 294.361 3.375C294.174 3.40568 291.845 4.58523 291.845 4.58523C291.845 4.58523 294.692 10.6704 292.544 15.0954C292.544 15.0954 293.359 7.59545 290.956 5.025L287.547 7.0159C287.547 7.0159 290.874 13.3023 288.617 18.433C288.617 18.433 289.197 10.5648 286.827 7.49999L283.739 9.91022C283.739 9.91022 286.865 16.108 284.959 20.3625C284.959 20.3625 284.71 11.2023 283.07 10.5102C283.07 10.5102 280.367 12.8966 279.955 13.8716C279.955 13.8716 282.095 18.3716 280.766 20.7443C280.766 20.7443 279.951 14.642 279.283 14.608C279.283 14.608 276.59 18.6511 276.31 21.4261C276.31 21.4261 276.426 17.3011 278.632 14.2227C278.632 14.2227 276.027 14.6693 274.507 16.3602C274.507 16.3602 274.926 13.5 279.297 13.2511C279.297 13.2511 281.523 10.183 282.116 9.99545C282.116 9.99545 277.773 9.63409 275.137 10.8C275.137 10.8 277.456 8.10341 282.914 9.33068L285.965 6.83863C285.965 6.83863 280.244 6.05795 277.817 6.92045C277.817 6.92045 280.609 4.53409 286.786 6.27613L290.114 4.30568C290.114 4.30568 285.235 3.25568 282.331 3.62386C282.331 3.62386 285.399 1.97045 291.089 3.76363L293.475 2.69659C293.475 2.69659 289.902 1.99431 288.856 1.88181C287.809 1.76931 287.755 1.48295 287.755 1.48295C290.018 1.10551 292.342 1.36398 294.467 2.22954C294.467 2.22954 299.506 0.354543 299.417 0.0374971Z" fill="#6C63FF"/>
<path opacity="0.1" d="M264.017 5.15454C264.017 5.15454 251.062 4.37045 252.579 13.4625C252.579 13.4625 252.276 15.0682 253.728 15.7977C253.728 15.7977 253.752 15.1159 255.061 15.3511C255.526 15.4294 255.999 15.4523 256.469 15.4193C257.105 15.3761 257.71 15.1258 258.191 14.7068C258.191 14.7068 261.838 13.2034 263.257 7.24431C263.257 7.24431 264.303 5.94204 264.262 5.60795L262.074 6.54204C262.074 6.54204 262.824 8.12386 262.234 9.43636C262.234 9.43636 262.162 6.59999 261.743 6.66817C261.658 6.66817 260.604 7.21363 260.604 7.21363C260.604 7.21363 261.893 9.96477 260.921 11.9659C260.921 11.9659 261.29 8.57726 260.202 7.41476L258.661 8.31476C258.661 8.31476 260.168 11.1545 259.145 13.4727C259.145 13.4727 259.408 9.91704 258.337 8.53295L256.943 9.62045C256.943 9.62045 258.354 12.4227 257.495 14.3454C257.495 14.3454 257.383 10.2034 256.64 9.89318C256.64 9.89318 255.419 10.9704 255.232 11.4136C255.232 11.4136 256.2 13.4591 255.6 14.5159C255.6 14.5159 255.232 11.7579 254.918 11.7477C254.918 11.7477 253.704 13.575 253.575 14.8159C253.636 13.6578 253.998 12.5356 254.625 11.5602C253.923 11.6933 253.274 12.0286 252.76 12.525C252.76 12.525 252.951 11.2364 254.925 11.1204C254.925 11.1204 255.948 9.73635 256.2 9.65113C256.2 9.65113 254.236 9.48749 253.046 10.0159C253.046 10.0159 254.093 8.79545 256.561 9.35113L257.925 8.22613C257.925 8.22613 255.341 7.88522 254.243 8.26363C254.243 8.26363 255.504 7.18636 258.296 7.97045L259.796 7.07386C259.796 7.07386 257.594 6.59658 256.278 6.77045C256.278 6.77045 257.666 6.02045 260.236 6.83181L261.31 6.35113C261.31 6.35113 259.694 6.03067 259.22 5.98295C258.746 5.93522 258.723 5.80227 258.723 5.80227C259.746 5.63202 260.797 5.75006 261.757 6.14318C261.757 6.14318 264.058 5.29772 264.017 5.15454Z" fill="#6C63FF"/>
<path d="M76.4284 219.805C83.9991 219.805 90.1364 218.767 90.1364 217.486C90.1364 216.206 83.9991 215.168 76.4284 215.168C68.8577 215.168 62.7205 216.206 62.7205 217.486C62.7205 218.767 68.8577 219.805 76.4284 219.805Z" fill="#007580"/>
<path d="M82.0979 213.695C82.7238 213.186 83.1793 212.497 83.4036 211.722C83.574 210.941 83.2399 210.017 82.4899 209.714C81.6513 209.393 80.7547 209.976 80.0763 210.562C79.3979 211.149 78.6172 211.82 77.7309 211.694C78.1876 211.279 78.5294 210.753 78.7229 210.167C78.9164 209.581 78.9552 208.955 78.8354 208.35C78.7966 208.099 78.6906 207.864 78.5286 207.668C78.0615 207.17 77.2195 207.382 76.6604 207.774C74.8877 209.022 74.3934 211.432 74.3831 213.597C74.2059 212.816 74.3559 212.001 74.3524 211.21C74.349 210.419 74.1274 209.506 73.449 209.086C73.0307 208.861 72.5602 208.751 72.0854 208.766C71.2911 208.735 70.4013 208.817 69.8593 209.4C69.1774 210.123 69.3581 211.336 69.9445 212.127C70.5309 212.918 71.4274 213.426 72.2524 213.975C72.9124 214.368 73.4752 214.906 73.899 215.547C73.9501 215.636 73.9913 215.731 74.0218 215.829H79.0195C80.1372 215.26 81.1728 214.542 82.0979 213.695Z" fill="#007580"/>
<path d="M244.555 116.594C244.527 116.336 244.434 116.089 244.286 115.876C244.138 115.663 243.938 115.49 243.706 115.374C243.51 115.29 243.3 115.247 243.087 115.247C242.874 115.247 242.664 115.289 242.468 115.372C242.272 115.454 242.095 115.576 241.946 115.728C241.798 115.881 241.682 116.062 241.606 116.26L234.034 132.191L232.33 194.918H235.057L236.08 132.331L244.411 117.583C244.562 117.277 244.612 116.931 244.555 116.594Z" fill="#3F3D56"/>
<path opacity="0.1" d="M366.668 209.086C364.435 211.038 362.029 212.785 359.482 214.306C359.442 214.362 359.398 214.414 359.349 214.462C359.078 214.692 358.757 214.853 358.411 214.933C349.963 219.641 340.442 222.086 330.77 222.031H143.332C121.855 219.821 108.75 216.893 108.75 213.678C108.75 211.186 116.618 208.865 130.166 206.921C131.57 206.717 133.035 206.519 134.56 206.328C135.499 206.21 136.459 206.096 137.441 205.987L139.108 205.793C140.344 205.652 141.614 205.515 142.916 205.381H143.022L144.385 205.244C145.537 205.125 146.714 205.012 147.914 204.903L148.786 204.825L151.013 204.627C152.458 204.498 153.935 204.374 155.444 204.256C156.697 204.158 157.969 204.06 159.263 203.962C172.374 202.991 187.49 202.258 203.939 201.784L208.636 201.624L210.218 201.59L213.559 201.515L214.899 201.487L216.307 201.46L217.309 201.443L222.014 201.368L224.431 201.334H224.925C230.641 201.266 236.464 201.231 242.393 201.228C254.114 201.228 265.48 201.368 276.31 201.634C282.528 201.784 288.557 201.975 294.395 202.207H294.45C311.284 202.868 326.352 203.843 338.823 205.053L339.051 205.077C342.252 205.387 345.283 205.718 348.126 206.059C350.802 206.379 353.315 206.717 355.647 207.061C356.455 207.181 357.239 207.303 358.002 207.423L358.197 207.457C361.428 207.978 364.265 208.51 366.668 209.086Z" fill="#6C63FF"/>
<path d="M359.482 214.306C359.442 214.362 359.398 214.414 359.349 214.462C359.079 214.692 358.757 214.853 358.411 214.933C357.722 215.126 357.013 215.241 356.298 215.274H356.083C355.675 215.287 355.266 215.274 354.859 215.233C354.562 215.19 354.263 215.171 353.963 215.175H353.922C353.486 215.236 353.057 215.342 352.643 215.492C351.721 215.745 350.77 215.88 349.814 215.894H349.473C348.402 215.894 347.318 215.857 346.244 215.864C346.071 215.864 345.904 215.864 345.723 215.864C343.882 215.911 342.051 216.205 340.21 216.235H339.621C337.817 216.191 335.973 215.806 334.538 214.715C334.248 214.523 334.013 214.26 333.856 213.951C333.734 213.625 333.693 213.274 333.737 212.928C333.771 212.311 333.89 211.64 334.354 211.224C334.645 211 334.979 210.839 335.335 210.75C335.959 210.549 336.587 210.355 337.21 210.16C337.834 209.966 338.547 209.758 339.218 209.56L339.348 209.519L339.723 209.407L339.965 209.325C340.258 209.231 340.54 209.103 340.804 208.943C341.151 208.723 341.446 208.428 341.666 208.081C341.704 208.019 341.744 207.955 341.779 207.89C341.813 207.825 341.779 207.784 341.755 207.73C341.697 207.303 341.652 206.867 341.577 206.451C340.618 206.229 339.743 205.734 339.058 205.026C338.47 204.443 337.974 203.772 337.589 203.039C336.74 201.443 336.304 199.66 335.669 197.966C334.698 195.389 333.283 193.009 331.858 190.65C330.556 188.475 329.247 186.293 327.767 184.237C326.782 182.874 325.722 181.575 324.747 180.208C321.989 176.393 320.01 172.072 318.924 167.492C318.758 166.613 318.522 165.749 318.218 164.908C317.632 163.476 316.558 162.31 315.726 161.001C314.832 159.59 314.22 158.019 313.923 156.375C313.752 155.441 313.466 154.432 312.535 154.33L312.436 154.524C310.507 158.274 308.526 162.092 305.618 165.153C305.153 165.603 304.728 166.093 304.347 166.616C304.041 167.123 303.768 167.649 303.529 168.191C303.068 169.164 302.457 170.058 301.718 170.84C301.498 171.062 301.259 171.264 301.002 171.443C300.662 171.691 300.283 171.881 299.881 172.006C299.722 172.054 299.561 172.091 299.397 172.115C299.397 172.156 299.414 172.193 299.417 172.234C299.421 172.275 299.438 172.323 299.444 172.367C299.946 175.095 299.731 177.905 298.821 180.525C298.797 180.607 298.769 180.685 298.739 180.767C298.598 181.149 298.444 181.524 298.279 181.892C297.863 182.795 297.368 183.661 296.98 184.578C296.915 184.735 296.85 184.892 296.792 185.049C295.429 188.7 295.769 192.777 295.592 196.701C295.577 197.559 295.475 198.413 295.289 199.251C295.057 200.195 294.685 201.17 294.481 202.145C294.294 202.876 294.279 203.641 294.436 204.378L294.355 204.409C293.99 204.545 293.618 204.668 293.247 204.784V204.835C293.38 205.599 293.509 206.362 293.642 207.123C293.755 207.777 293.888 208.486 294.344 208.95C294.469 209.052 294.583 209.167 294.685 209.291C294.955 209.714 294.716 210.273 294.767 210.774C294.842 211.483 295.497 212.086 295.394 212.792C295.348 213.003 295.252 213.199 295.113 213.364C294.974 213.53 294.797 213.658 294.597 213.74C294.429 213.816 294.253 213.872 294.072 213.907L293.959 213.931C293.755 213.968 293.55 213.989 293.346 214.009C290.806 214.261 288.232 214.514 285.716 214.084C285.218 213.999 284.724 213.886 284.219 213.845C283.582 213.817 282.943 213.843 282.31 213.924C277.643 214.366 272.949 214.457 268.268 214.197C267.051 214.128 265.654 213.931 265.009 212.891C264.474 212.028 264.668 210.914 264.938 209.928C265.015 209.566 265.154 209.22 265.35 208.906C265.372 208.872 265.397 208.84 265.425 208.81C266.052 208.03 267.232 207.982 268.248 208.012L271.568 208.111C271.895 208.138 272.224 208.113 272.543 208.036C273.082 207.88 273.491 207.45 273.996 207.208C274.63 206.905 275.427 206.867 275.884 206.349L275.942 206.274C276.023 206.164 276.098 206.05 276.167 205.933C276.167 205.909 276.198 205.885 276.215 205.861C276.227 205.84 276.241 205.82 276.256 205.8C276.675 205.248 277.408 205.064 278.005 204.712C278.095 204.66 278.181 204.599 278.26 204.532L278.329 204.47C277.686 204.012 277.126 203.449 276.672 202.803C276.496 202.615 276.367 202.389 276.293 202.142C276.252 201.957 276.266 201.763 276.334 201.586C276.349 201.543 276.367 201.501 276.389 201.46L276.406 201.426C276.638 200.969 277.115 200.557 277.377 200.09C277.387 200.075 277.395 200.059 277.401 200.042C277.763 199.36 277.834 198.303 277.299 197.755C277.572 193.265 278.806 188.891 279.079 184.387C279.188 182.605 279.143 180.815 279.225 179.025C279.307 177.235 279.498 175.5 279.699 173.744C280.149 169.732 281.24 165.801 281.086 161.772C281.073 161.396 281.089 161.02 281.134 160.647C281.133 160.619 281.133 160.592 281.134 160.565C281.243 159.739 281.501 158.94 281.894 158.206C282.389 157.376 282.948 156.587 283.568 155.847C285.665 153.119 288.184 150.392 288.931 147.037C289.316 145.306 290.168 143.72 291.017 142.162C291.518 141.235 292.04 140.284 292.841 139.602C293.275 139.302 293.678 138.959 294.044 138.58C294.604 137.857 294.624 136.858 294.955 135.999C295.125 135.552 295.388 135.143 295.517 134.683C295.517 134.635 295.541 134.591 295.551 134.543C295.627 134.079 295.667 133.609 295.671 133.139C295.671 133.002 295.691 132.869 295.708 132.736C295.907 131.389 296.299 130.076 296.871 128.84C296.942 128.683 297.01 128.523 297.079 128.366C295.506 127.448 294.118 126.245 292.988 124.817C292.604 124.355 292.272 123.853 291.996 123.32C291.293 121.926 291.133 120.337 290.802 118.81C290.011 115.169 288.201 111.74 287.949 108.017C287.874 106.882 287.949 105.709 287.554 104.635C287.445 104.345 287.316 104.062 287.168 103.79C287.107 103.674 287.049 103.558 286.988 103.449L286.919 103.319L286.746 102.978L286.466 103.197C279.492 108.658 272.169 113.659 264.546 118.169L263.891 118.558C263.55 118.722 263.253 118.965 263.025 119.267C262.998 119.311 262.974 119.356 262.95 119.4C262.793 119.724 262.752 120.082 262.609 120.423C262.302 121.203 261.515 121.701 260.71 121.933C259.255 122.307 257.711 122.108 256.398 121.377C256.231 121.292 256.057 121.203 255.907 121.105C255.508 121.325 255.088 121.505 254.652 121.64C253.289 122.035 251.86 122.018 250.449 122.015C249.038 122.011 247.596 122.015 246.259 122.478C245.366 122.782 244.5 123.283 243.573 123.331C243.466 123.337 243.359 123.337 243.252 123.331C242.724 123.27 242.209 123.119 241.732 122.884L241.452 122.758C241.308 122.689 241.166 122.613 241.03 122.53C240.88 122.437 240.742 122.329 240.617 122.206C240.437 122.025 240.305 121.8 240.235 121.555C240.189 121.377 240.189 121.19 240.235 121.012C240.249 120.933 240.29 120.86 240.351 120.808C240.412 120.772 240.482 120.754 240.552 120.757C240.943 120.753 241.334 120.786 241.718 120.856C241.944 120.887 242.172 120.899 242.4 120.893H242.523C242.724 120.872 242.918 120.809 243.094 120.709C243.27 120.61 243.424 120.475 243.546 120.314C243.583 120.264 243.613 120.209 243.634 120.15C243.675 120.054 243.696 119.951 243.696 119.847C243.697 119.82 243.697 119.794 243.696 119.768C243.552 119.703 243.409 119.639 243.273 119.56C243.201 119.523 243.133 119.482 243.065 119.441L243.024 119.414C242.902 119.33 242.787 119.236 242.683 119.131C242.617 119.065 242.558 118.992 242.509 118.912C242.419 118.789 242.351 118.65 242.308 118.503C242.027 118.445 241.736 118.453 241.459 118.527C241.088 118.63 240.713 118.848 240.344 118.923C240.159 118.969 239.963 118.961 239.782 118.899C239.25 118.708 239.063 118.06 238.95 117.505C238.93 117.399 238.906 117.29 238.889 117.181C238.85 116.971 238.85 116.756 238.889 116.547C239.054 116.07 239.368 115.66 239.785 115.377L240.904 114.44L240.985 114.372C240.985 114.28 240.948 114.187 240.934 114.095C240.895 113.885 240.895 113.669 240.934 113.458C241.099 112.983 241.414 112.573 241.831 112.292L244.306 110.209C244.769 109.82 245.274 109.411 245.877 109.37C246.774 109.309 247.49 110.052 248.161 110.649C249.007 111.399 250.033 112.012 251.161 112.087C251.699 112.112 252.236 112.038 252.747 111.869L253.036 111.774C252.975 111.648 252.914 111.522 252.856 111.395C252.757 111.187 252.658 110.976 252.563 110.765C254.015 110.673 255.334 109.875 256.435 108.92C257.536 107.966 258.481 106.837 259.592 105.9C260.792 104.877 262.169 104.117 263.386 103.132C266.216 100.837 268.094 97.4659 271.122 95.4443C272.172 94.7386 273.385 94.1761 274.101 93.1261C274.323 92.7852 274.49 92.4443 274.718 92.1034C275.444 91.0807 276.689 90.6102 277.715 89.9011C278.741 89.192 279.634 88.1522 280.469 87.1534C281.063 86.4409 281.659 85.7284 282.225 84.9954C282.747 84.0238 283.187 83.0079 283.732 82.05C284.195 81.2407 284.735 80.478 285.344 79.7727C285.484 79.5 285.627 79.2272 285.781 78.9613C285.934 78.6954 286.047 78.5147 286.19 78.2795C286.289 78.1261 286.391 77.9795 286.497 77.8295C286.186 77.2807 285.89 76.8068 285.75 76.5988L285.682 76.5068C285.381 76.1865 285.06 75.8858 284.721 75.6068C284.364 75.5528 284.011 75.4777 283.664 75.3818C281.56 74.8052 279.704 73.5527 278.382 71.8173C277.06 70.0819 276.345 67.96 276.348 65.7784C276.346 65.7682 276.346 65.7579 276.348 65.7477C276.349 64.1854 276.721 62.6455 277.432 61.2545C277.575 60.975 277.729 60.7057 277.896 60.4432C277.74 60.394 277.588 60.3324 277.442 60.2591C277.193 60.1365 276.976 59.958 276.808 59.7375C276.669 59.5411 276.579 59.3143 276.546 59.0761C276.488 58.5142 276.572 57.9469 276.791 57.4261C276.884 57.1754 276.99 56.9296 277.108 56.6898C277.117 56.6757 277.125 56.6609 277.132 56.6454C278.656 53.5773 281.905 51.692 285.15 51.5591C288.651 51.4193 292.06 53.0625 294.822 55.4148C295.646 56.0908 296.383 56.866 297.017 57.7227C298.459 59.7273 299.11 62.2909 299.301 64.8307C299.373 65.6162 299.359 66.4072 299.26 67.1897C299.224 67.4686 299.167 67.7444 299.09 68.0148C299.046 68.175 298.988 68.3352 298.926 68.4954C298.865 68.6557 298.827 68.7273 298.773 68.8363V68.8534C298.722 68.9625 298.664 69.0648 298.606 69.167L298.575 69.2113L298.531 69.2829C298.558 69.3477 298.589 69.4159 298.619 69.4807C298.65 69.5454 298.677 69.6068 298.711 69.6682H298.752C299.434 69.7227 300.065 69.8182 300.76 69.8727C301.087 69.8882 301.412 69.9385 301.729 70.0227C302.41 70.2272 302.925 70.725 303.498 71.1273C304.916 72.1295 306.661 72.5966 308.056 73.6329C310.101 75.1602 311.124 77.6829 312.365 79.9432C314.001 82.9704 316.667 85.5477 317.843 88.7863C318.375 90.2568 318.909 91.725 319.446 93.1909C320.492 96.0648 321.539 98.9522 322.96 101.662C324.938 105.433 327.614 108.822 329.199 112.783C329.356 113.18 329.652 113.507 330.031 113.703C332.191 116.754 334.111 119.967 335.775 123.314C336.651 125.083 337.48 126.92 337.735 128.881C337.935 130.626 337.79 132.393 337.309 134.083C337.037 135.087 336.704 136.073 336.31 137.035C336.157 137.372 336.043 137.726 335.969 138.089C335.969 138.126 335.969 138.164 335.969 138.201C335.901 138.856 336.15 139.503 336.218 140.158C336.275 140.685 336.216 141.218 336.044 141.719C336.017 141.798 335.986 141.876 335.956 141.955C335.744 142.353 335.565 142.768 335.421 143.195C335.408 143.247 335.399 143.299 335.393 143.352C335.281 144.092 335.574 144.839 335.734 145.578C336.334 148.251 336.225 151.033 336.075 153.76C335.997 155.124 337.098 156.218 338.018 157.224C339.723 159.109 341.056 161.315 342.341 163.51C343.042 164.625 343.633 165.805 344.104 167.035C344.591 168.44 344.785 169.926 345.055 171.382C345.924 175.882 348.764 179.857 349.534 184.367C349.892 186.432 350.802 188.362 352.169 189.951C352.581 190.377 352.961 190.832 353.305 191.315C353.542 191.699 353.731 192.111 353.867 192.542C354.202 193.545 354.36 194.598 354.334 195.655C354.28 196.16 354.309 196.672 354.419 197.168C354.74 198.215 355.885 198.791 356.359 199.776C356.833 200.761 356.506 202.023 356.7 203.141C356.853 204.042 357.34 204.853 358.064 205.411C357.791 205.65 357.505 205.868 357.211 206.093C357.483 206.304 357.721 206.554 357.917 206.836C358.051 207.025 358.166 207.227 358.258 207.44C358.708 208.486 358.722 209.731 359.09 210.849C359.247 211.312 359.468 211.803 359.332 212.274C359.274 212.409 359.235 212.551 359.216 212.697C359.216 213.003 359.536 213.205 359.659 213.484C359.704 213.625 359.711 213.774 359.68 213.918C359.649 214.063 359.581 214.196 359.482 214.306Z" fill="url(#paint0_linear_1609_2966)"/>
<path d="M287.332 81.3511C289.418 80.7886 291.276 79.6125 293.096 78.45L299.441 74.4102C297.719 74.2738 296.233 73.0466 295.35 71.5602C294.467 70.0738 294.102 68.3454 293.802 66.6477C291.075 67.7113 288.712 69.5148 286.51 71.4204C285.637 72.1738 283.783 73.3125 283.514 74.4886C283.244 75.6648 284.962 76.6193 285.627 77.4068C285.856 77.6693 288.007 81.1636 287.332 81.3511Z" fill="#FBBEBE"/>
<path opacity="0.1" d="M287.332 81.3511C289.418 80.7886 291.276 79.6125 293.096 78.45L299.441 74.4102C297.719 74.2738 296.233 73.0466 295.35 71.5602C294.467 70.0738 294.102 68.3454 293.802 66.6477C291.075 67.7113 288.712 69.5148 286.51 71.4204C285.637 72.1738 283.783 73.3125 283.514 74.4886C283.244 75.6648 284.962 76.6193 285.627 77.4068C285.856 77.6693 288.007 81.1636 287.332 81.3511Z" fill="black"/>
<path d="M252.665 114.719C251.547 115.292 250.357 115.878 249.106 115.797C247.981 115.725 246.955 115.115 246.109 114.368C245.427 113.775 244.725 113.035 243.828 113.097C243.228 113.138 242.724 113.543 242.26 113.928L239.789 115.998C239.373 116.277 239.058 116.684 238.892 117.157C238.843 117.478 238.863 117.805 238.95 118.118C239.063 118.67 239.25 119.315 239.782 119.502C240.314 119.69 240.893 119.288 241.456 119.134C241.799 119.046 242.16 119.053 242.5 119.153C242.841 119.253 243.148 119.443 243.389 119.703C243.59 119.901 243.711 120.165 243.73 120.447C243.73 121.064 243.048 121.469 242.42 121.5C241.793 121.531 241.193 121.326 240.573 121.364C240.535 121.359 240.497 121.362 240.461 121.372C240.425 121.382 240.391 121.399 240.361 121.423C240.332 121.446 240.307 121.476 240.289 121.509C240.271 121.542 240.26 121.578 240.256 121.616C240.217 121.831 240.234 122.053 240.303 122.26C240.373 122.468 240.494 122.654 240.655 122.802C240.978 123.098 241.356 123.329 241.766 123.484C242.243 123.72 242.758 123.87 243.286 123.927C244.333 123.995 245.294 123.416 246.286 123.078C247.623 122.628 249.061 122.615 250.473 122.618C251.884 122.622 253.316 122.642 254.669 122.247C256.023 121.851 257.308 120.975 257.836 119.669C257.899 119.548 257.919 119.408 257.894 119.274C257.842 119.13 257.74 119.01 257.608 118.933C255.706 117.525 254.935 115.814 252.794 114.801L252.665 114.719Z" fill="#FBBEBE"/>
<path opacity="0.1" d="M252.665 114.719C251.547 115.292 250.357 115.878 249.106 115.797C247.981 115.725 246.955 115.115 246.109 114.368C245.427 113.775 244.725 113.035 243.828 113.097C243.228 113.138 242.724 113.543 242.26 113.928L239.789 115.998C239.373 116.277 239.058 116.684 238.892 117.157C238.843 117.478 238.863 117.805 238.95 118.118C239.063 118.67 239.25 119.315 239.782 119.502C240.314 119.69 240.893 119.288 241.456 119.134C241.799 119.046 242.16 119.053 242.5 119.153C242.841 119.253 243.148 119.443 243.389 119.703C243.59 119.901 243.711 120.165 243.73 120.447C243.73 121.064 243.048 121.469 242.42 121.5C241.793 121.531 241.193 121.326 240.573 121.364C240.535 121.359 240.497 121.362 240.461 121.372C240.425 121.382 240.391 121.399 240.361 121.423C240.332 121.446 240.307 121.476 240.289 121.509C240.271 121.542 240.26 121.578 240.256 121.616C240.217 121.831 240.234 122.053 240.303 122.26C240.373 122.468 240.494 122.654 240.655 122.802C240.978 123.098 241.356 123.329 241.766 123.484C242.243 123.72 242.758 123.87 243.286 123.927C244.333 123.995 245.294 123.416 246.286 123.078C247.623 122.628 249.061 122.615 250.473 122.618C251.884 122.622 253.316 122.642 254.669 122.247C256.023 121.851 257.308 120.975 257.836 119.669C257.899 119.548 257.919 119.408 257.894 119.274C257.842 119.13 257.74 119.01 257.608 118.933C255.706 117.525 254.935 115.814 252.794 114.801L252.665 114.719Z" fill="black"/>
<path d="M292.585 78.3614C292.056 78.02 291.456 77.8047 290.831 77.732C290.205 77.6593 289.572 77.7312 288.978 77.9421C287.791 78.3699 286.725 79.0801 285.873 80.0114C285.022 80.879 284.285 81.8516 283.681 82.9057C283.101 83.9284 282.658 84.9989 282.078 86.0182C281.056 87.8421 279.719 89.4512 278.376 91.0466C277.541 92.0387 276.695 93.0444 275.625 93.7739C274.555 94.5034 273.358 94.95 272.632 95.9625C272.403 96.283 272.24 96.6443 272.015 96.9682C271.302 98.0114 270.092 98.5705 269.039 99.2693C266.018 101.281 264.14 104.628 261.317 106.909C260.1 107.891 258.726 108.661 257.53 109.664C256.415 110.594 255.484 111.709 254.373 112.664C253.261 113.618 251.956 114.406 250.507 114.494C251.475 116.652 252.631 118.769 254.291 120.45C255.951 122.131 258.44 123.205 260.707 122.547C261.511 122.315 262.299 121.824 262.606 121.047C262.702 120.647 262.837 120.258 263.008 119.884C263.236 119.584 263.531 119.342 263.87 119.178C272.971 113.866 281.646 107.856 289.817 101.202C292.009 99.4159 294.184 97.8171 296.434 96.0887C297.241 95.5165 297.987 94.8631 298.66 94.1387C299.599 93.0181 300.185 91.6451 300.345 90.1924C300.505 88.7396 300.232 87.2719 299.56 85.9739C298.957 84.9809 298.266 84.0441 297.494 83.175C296.091 81.3486 294.439 79.7282 292.585 78.3614Z" fill="#44A6BC"/>
<path opacity="0.1" d="M292.471 79.0172C291.942 78.6758 291.342 78.4604 290.716 78.3877C290.091 78.315 289.457 78.3869 288.864 78.5978C287.676 79.0257 286.611 79.7358 285.758 80.6672C284.908 81.5348 284.171 82.5074 283.566 83.5615C282.987 84.5842 282.544 85.6547 281.964 86.674C280.941 88.4978 279.605 90.1069 278.262 91.7024C277.427 92.6944 276.581 93.7001 275.511 94.4297C274.44 95.1592 273.244 95.6058 272.518 96.6183C272.289 96.9387 272.126 97.3001 271.901 97.624C271.188 98.6672 269.978 99.2262 268.924 99.9251C265.904 101.936 264.026 105.284 261.203 107.565C259.986 108.547 258.612 109.317 257.415 110.319C256.301 111.25 255.37 112.365 254.258 113.319C253.147 114.274 251.841 115.061 250.393 115.15C251.361 117.308 252.516 119.425 254.177 121.106C255.837 122.786 258.326 123.86 260.593 123.202C261.397 122.971 262.185 122.48 262.491 121.702C262.588 121.303 262.723 120.914 262.894 120.54C263.121 120.24 263.417 119.998 263.756 119.834C272.857 114.522 281.532 108.512 289.703 101.858C291.895 100.072 294.07 98.4728 296.32 96.7444C297.127 96.1723 297.873 95.5188 298.546 94.7944C299.484 93.6739 300.07 92.3009 300.231 90.8481C300.391 89.3954 300.118 87.9277 299.446 86.6297C298.843 85.6366 298.151 84.6999 297.38 83.8308C295.977 82.0043 294.325 80.384 292.471 79.0172Z" fill="#44A6BC"/>
<path d="M277.936 204.828C277.34 205.169 276.607 205.36 276.188 205.912C276.051 206.09 275.959 206.298 275.813 206.468C275.359 207 274.555 207.024 273.924 207.327C273.419 207.566 273.01 208.009 272.475 208.149C272.155 208.225 271.825 208.25 271.497 208.224L268.183 208.125C267.133 208.094 265.902 208.149 265.292 209.004C265.094 209.318 264.953 209.664 264.876 210.027C264.621 211.006 264.413 212.114 264.948 212.973C265.589 213.995 266.993 214.203 268.204 214.272C272.879 214.53 277.567 214.439 282.229 213.999C282.859 213.918 283.496 213.892 284.131 213.92C284.635 213.961 285.13 214.074 285.627 214.159C288.14 214.585 290.71 214.336 293.247 214.084C293.675 214.063 294.098 213.974 294.498 213.818C294.697 213.737 294.873 213.608 295.012 213.444C295.15 213.279 295.246 213.084 295.292 212.874C295.398 212.172 294.74 211.575 294.668 210.869C294.617 210.372 294.856 209.816 294.583 209.393C294.481 209.269 294.367 209.154 294.242 209.052C293.785 208.578 293.652 207.886 293.54 207.239L292.943 203.737C292.927 203.491 292.825 203.257 292.657 203.076C292.532 202.986 292.387 202.926 292.234 202.902C289.636 202.316 286.974 202.851 284.393 203.178C283.065 203.373 281.722 203.44 280.381 203.379C279.801 203.342 279.576 203.274 279.143 203.652C278.71 204.031 278.479 204.511 277.936 204.828Z" fill="#3F3D56"/>
<path d="M340.667 209.042C340.211 209.297 339.723 209.488 339.215 209.611C337.876 210.002 336.54 210.41 335.206 210.835C334.851 210.923 334.518 211.083 334.227 211.306C333.764 211.715 333.644 212.383 333.61 213.01C333.566 213.356 333.607 213.707 333.73 214.033C333.889 214.339 334.124 214.599 334.411 214.79C335.939 215.945 337.933 216.303 339.849 216.303C341.765 216.303 343.667 215.98 345.583 215.928C347.898 215.867 350.274 216.194 352.5 215.547C352.925 215.389 353.366 215.282 353.816 215.226C354.115 215.222 354.413 215.241 354.709 215.284C355.903 215.402 357.109 215.292 358.261 214.96C358.608 214.883 358.931 214.723 359.202 214.493C359.336 214.377 359.432 214.223 359.477 214.052C359.522 213.88 359.514 213.699 359.455 213.532C359.332 213.256 359.018 213.055 359.015 212.751C359.031 212.605 359.069 212.463 359.127 212.328C359.267 211.861 359.042 211.374 358.885 210.914C358.445 209.598 358.517 208.084 357.73 206.942C356.942 205.8 355.497 205.33 354.123 205.149C353.006 204.991 351.871 205.023 350.765 205.244C349.52 205.51 348.358 206.066 347.138 206.42C345.721 206.828 344.241 206.968 342.774 206.833C341.799 206.751 342.133 206.905 341.802 207.723C341.568 208.268 341.172 208.729 340.667 209.042Z" fill="#3F3D56"/>
<path d="M286.193 76.6227C291.653 76.6227 296.08 72.1964 296.08 66.7363C296.08 61.2763 291.653 56.85 286.193 56.85C280.733 56.85 276.307 61.2763 276.307 66.7363C276.307 72.1964 280.733 76.6227 286.193 76.6227Z" fill="#FBBEBE"/>
<path d="M357.866 205.507C354.798 208.142 350.656 209.294 346.616 209.335C344.911 209.352 343.142 209.168 341.69 208.285C341.588 207.726 341.547 207.123 341.444 206.564C339.682 206.195 338.315 204.76 337.462 203.172C336.61 201.583 336.177 199.817 335.543 198.133C334.575 195.569 333.157 193.207 331.739 190.861C330.436 188.7 329.131 186.532 327.648 184.49C326.666 183.126 325.602 181.844 324.631 180.484C321.878 176.698 319.903 172.404 318.818 167.85C318.652 166.977 318.416 166.118 318.112 165.283C317.526 163.858 316.452 162.699 315.624 161.4C314.73 159.998 314.118 158.436 313.82 156.801C313.653 155.874 313.367 154.872 312.436 154.776C310.48 158.577 308.485 162.44 305.526 165.532C305.061 165.978 304.636 166.464 304.255 166.984C303.949 167.489 303.676 168.013 303.436 168.552C302.977 169.52 302.367 170.408 301.63 171.184C301.011 171.846 300.196 172.29 299.305 172.452C299.962 175.728 299.571 179.127 298.186 182.168C297.774 183.068 297.28 183.927 296.891 184.838C295.302 188.588 295.67 192.818 295.503 196.885C295.489 197.738 295.388 198.586 295.203 199.418C294.791 201.082 293.939 202.851 294.351 204.515C290.076 206.148 285.327 206.046 280.8 205.357C279.914 205.276 279.055 205.015 278.274 204.59C277.632 204.135 277.072 203.575 276.617 202.933C276.442 202.746 276.312 202.521 276.239 202.275C276.061 201.498 276.92 200.911 277.319 200.23C277.718 199.548 277.79 198.467 277.241 197.908C277.514 193.446 278.748 189.089 279.02 184.613C279.13 182.84 279.085 181.06 279.167 179.284C279.249 177.508 279.44 175.78 279.637 174.034C280.087 170.049 281.178 166.142 281.025 162.136C280.978 160.904 281.262 159.681 281.847 158.594C282.339 157.769 282.898 156.985 283.517 156.249C285.61 153.546 288.126 150.835 288.873 147.498C289.258 145.776 290.11 144.201 290.956 142.653C291.457 141.73 291.978 140.785 292.776 140.107C293.21 139.807 293.613 139.464 293.98 139.084C294.539 138.365 294.559 137.38 294.89 136.521C295.06 136.077 295.323 135.668 295.449 135.211C295.553 134.707 295.604 134.193 295.602 133.677C295.711 132.027 296.345 130.432 297.014 128.922C295.442 128.012 294.055 126.816 292.923 125.397C292.542 124.936 292.211 124.436 291.934 123.907C291.232 122.523 291.072 120.944 290.741 119.427C289.953 115.807 288.143 112.401 287.891 108.702C287.816 107.574 287.891 106.408 287.499 105.341C287.318 104.889 287.106 104.451 286.865 104.028C286.627 103.613 286.446 103.169 286.326 102.706C286.108 101.7 286.408 100.66 286.326 99.6376C286.244 98.7341 285.859 97.8887 285.668 97.0057C285.473 95.8569 285.44 94.6865 285.569 93.5285C285.655 92.1648 285.951 90.7569 285.835 89.4103C285.647 87.182 285.931 84.9392 286.668 82.8281C287.406 80.7169 288.58 78.7849 290.114 77.158L290.192 77.0796C290.843 76.3978 291.556 75.7944 292.142 75.0716C292.94 74.1034 293.506 72.9648 294.348 72.0239C294.716 71.6046 295.132 71.2296 295.497 70.8069C295.831 70.3635 296.202 69.9484 296.605 69.566C296.808 69.3767 297.055 69.2402 297.324 69.1683C297.592 69.0964 297.874 69.0913 298.145 69.1535C298.214 69.6619 298.373 70.1538 298.616 70.6057C299.325 70.6603 299.956 70.7591 300.661 70.8137C300.988 70.8292 301.313 70.8795 301.63 70.9637C302.294 71.1648 302.826 71.6455 303.395 72.058C304.814 73.0569 306.556 73.5205 307.95 74.55C309.995 76.0671 311.018 78.5728 312.252 80.8194C313.885 83.8296 316.548 86.3898 317.707 89.608L319.306 93.9853C320.352 96.8421 321.399 99.7091 322.817 102.402C324.791 106.152 327.464 109.531 329.049 113.455C329.207 113.848 329.501 114.172 329.877 114.368C332.036 117.396 333.954 120.587 335.615 123.914C336.491 125.673 337.319 127.5 337.572 129.447C337.943 132.198 337.193 134.98 336.15 137.55C335.981 137.918 335.867 138.308 335.809 138.709C335.741 139.36 335.99 140.001 336.058 140.652C336.124 141.26 336.033 141.875 335.795 142.439C335.583 142.835 335.404 143.247 335.26 143.673C335.076 144.457 335.403 145.255 335.581 146.039C336.181 148.694 336.072 151.446 335.922 154.166C335.843 155.53 336.944 156.61 337.861 157.609C339.566 159.481 340.895 161.669 342.181 163.855C342.879 164.963 343.469 166.137 343.94 167.359C344.427 168.753 344.622 170.23 344.891 171.678C345.757 176.148 348.593 180.099 349.364 184.582C349.72 186.636 350.63 188.553 351.995 190.128C352.407 190.555 352.786 191.01 353.131 191.492C353.366 191.875 353.554 192.284 353.69 192.713C354.025 193.708 354.183 194.755 354.157 195.805C354.103 196.307 354.132 196.815 354.242 197.308C354.562 198.348 355.708 198.921 356.178 199.899C356.649 200.877 356.325 202.132 356.519 203.243C356.666 204.141 357.147 204.95 357.866 205.507Z" fill="#407A88"/>
<path d="M254.71 111.651C253.592 112.224 252.402 112.81 251.151 112.728C250.026 112.657 249 112.047 248.155 111.3C247.473 110.707 246.77 109.967 245.874 110.028C245.274 110.069 244.769 110.475 244.306 110.86L241.834 112.93C241.418 113.209 241.104 113.616 240.938 114.089C240.889 114.41 240.908 114.737 240.995 115.05C241.108 115.602 241.295 116.247 241.827 116.434C242.359 116.622 242.939 116.219 243.501 116.066C243.845 115.978 244.206 115.985 244.546 116.085C244.886 116.185 245.193 116.375 245.434 116.635C245.635 116.833 245.756 117.097 245.775 117.378C245.775 117.995 245.093 118.401 244.466 118.432C243.839 118.462 243.239 118.258 242.618 118.295C242.581 118.291 242.543 118.293 242.506 118.304C242.47 118.314 242.436 118.331 242.406 118.355C242.377 118.378 242.352 118.407 242.334 118.441C242.316 118.474 242.305 118.51 242.301 118.548C242.263 118.763 242.279 118.985 242.349 119.192C242.418 119.399 242.539 119.586 242.7 119.734C243.024 120.03 243.401 120.261 243.811 120.416C244.288 120.652 244.803 120.802 245.332 120.859C246.378 120.927 247.34 120.348 248.332 120.01C249.668 119.56 251.107 119.547 252.518 119.55C253.93 119.553 255.361 119.574 256.715 119.178C258.068 118.783 259.353 117.907 259.882 116.601C259.944 116.479 259.965 116.34 259.94 116.206C259.887 116.062 259.786 115.941 259.653 115.865C257.751 114.457 256.981 112.745 254.84 111.733L254.71 111.651Z" fill="#FBBEBE"/>
<path d="M281.383 60.6613C280.793 60.7568 280.292 61.1556 279.733 61.3772C279.358 61.523 278.956 61.5874 278.554 61.5663C278.152 61.5451 277.759 61.4389 277.401 61.2545C277.151 61.1332 276.933 60.9559 276.764 60.7363C276.307 60.1022 276.467 59.1818 276.746 58.4386C278.069 54.9238 281.601 52.7488 285.099 52.609C288.596 52.4693 291.999 54.1022 294.757 56.4375C295.577 57.1113 296.313 57.8816 296.949 58.7318C298.387 60.7261 299.039 63.2727 299.229 65.7954C299.344 66.854 299.273 67.9245 299.021 68.959C298.9 69.4618 298.679 69.935 298.371 70.3503C298.063 70.7656 297.674 71.1145 297.228 71.3761C296.253 71.8738 295.084 71.717 294.099 71.2397C293.114 70.7624 292.268 70.009 291.423 69.2897C291.04 68.9204 290.586 68.6318 290.09 68.4409C289.842 68.3526 289.574 68.3379 289.318 68.3984C289.062 68.4588 288.83 68.592 288.648 68.7818C288.191 69.3306 288.307 70.2306 287.891 70.8272C287.475 71.4238 286.609 71.509 285.879 71.509C285.15 71.509 284.41 71.4477 283.974 70.8681C283.575 70.3431 283.633 69.5761 283.783 68.9147C283.933 68.2534 284.189 67.5988 284.124 66.9204C283.984 65.5568 282.791 64.7181 282.419 63.4636C282.177 62.642 282.709 62.2943 282.654 61.5511C282.614 60.8965 281.911 60.5761 281.383 60.6613Z" fill="#3F3D56"/>
<path opacity="0.1" d="M312.443 154.691V154.776C310.486 158.577 308.492 162.44 305.533 165.532C305.068 165.978 304.642 166.464 304.261 166.984C303.956 167.489 303.683 168.013 303.443 168.552C302.984 169.52 302.374 170.408 301.636 171.184L299.168 172.418L307.009 131.509L312.443 154.691Z" fill="#6EAEBD"/>
<path opacity="0.1" d="M301.047 92.775C300.373 93.4994 299.627 94.1528 298.82 94.725C296.57 96.4295 294.389 98.0386 292.203 99.8386C290.442 101.273 288.656 102.677 286.844 104.052C286.607 103.637 286.426 103.192 286.306 102.729C286.088 101.724 286.388 100.684 286.306 99.6613C286.224 98.7579 285.839 97.9124 285.648 97.0295C285.453 95.8807 285.42 94.7103 285.549 93.5522C285.634 92.1886 285.931 90.7806 285.815 89.434C285.626 87.2004 285.912 84.9522 286.652 82.8366C287.393 80.721 288.573 78.7858 290.114 77.1579L290.192 77.0795C290.559 76.8662 290.948 76.6925 291.351 76.5613C291.946 76.3529 292.58 76.2838 293.205 76.3595C293.831 76.4351 294.43 76.6535 294.958 76.9977C296.812 78.3645 298.464 79.9849 299.867 81.8113C300.638 82.6804 301.33 83.6171 301.933 84.6102C302.607 85.9069 302.882 87.3738 302.724 88.8266C302.566 90.2793 301.983 91.653 301.047 92.775Z" fill="black"/>
<path d="M294.631 75.2932C294.102 74.9518 293.502 74.7364 292.876 74.6637C292.251 74.591 291.617 74.6629 291.024 74.8738C289.836 75.3017 288.771 76.0118 287.918 76.9432C287.068 77.8108 286.331 78.7834 285.726 79.8375C285.147 80.8602 284.704 81.9307 284.124 82.95C283.101 84.7738 281.765 86.3829 280.422 87.9784C279.587 88.9704 278.741 89.9761 277.671 90.7057C276.6 91.4352 275.404 91.8818 274.677 92.8943C274.449 93.2147 274.285 93.5761 274.06 93.9C273.348 94.9432 272.138 95.5022 271.084 96.2011C268.064 98.2125 266.185 101.56 263.363 103.841C262.146 104.823 260.772 105.593 259.575 106.595C258.46 107.526 257.53 108.641 256.418 109.595C255.307 110.55 254.001 111.337 252.552 111.426C253.521 113.584 254.676 115.701 256.337 117.382C257.997 119.062 260.485 120.136 262.752 119.478C263.557 119.247 264.345 118.756 264.651 117.978C264.748 117.579 264.883 117.19 265.054 116.816C265.281 116.516 265.577 116.274 265.916 116.11C275.017 110.798 283.692 104.788 291.863 98.1341C294.055 96.3477 296.23 94.7488 298.48 93.0204C299.287 92.4483 300.032 91.7948 300.706 91.0704C301.644 89.9499 302.23 88.5769 302.391 87.1241C302.551 85.6714 302.278 84.2037 301.606 82.9057C301.003 81.9126 300.311 80.9759 299.54 80.1068C298.137 78.2803 296.485 76.66 294.631 75.2932Z" fill="#44A6BC"/>
<g opacity="0.1">
<path d="M286.561 70.1352C285.88 70.1352 285.092 70.0739 284.656 69.4943C284.26 68.9693 284.315 68.2023 284.465 67.5409C284.615 66.8795 284.871 66.225 284.806 65.5466C284.666 64.183 283.473 63.3443 283.101 62.0898C282.859 61.2682 283.391 60.9205 283.336 60.1773C283.289 59.533 282.59 59.2125 282.061 59.2977C281.472 59.3932 280.971 59.792 280.411 60.0136C280.036 60.1594 279.634 60.2239 279.232 60.2027C278.83 60.1815 278.438 60.0753 278.08 59.8909C277.83 59.7696 277.612 59.5923 277.442 59.3727C276.985 58.7386 277.146 57.8182 277.425 57.075C277.425 57.0477 277.449 57.0239 277.459 56.9966C277.174 57.4527 276.934 57.9357 276.743 58.4386C276.464 59.1818 276.304 60.1023 276.76 60.7364C276.93 60.9559 277.148 61.1333 277.398 61.2545C277.756 61.4389 278.149 61.5452 278.551 61.5663C278.953 61.5875 279.354 61.523 279.73 61.3773C280.289 61.1557 280.79 60.7568 281.38 60.6614C281.908 60.5761 282.607 60.8966 282.655 61.5409C282.709 62.2841 282.177 62.6318 282.419 63.4534C282.784 64.7079 283.977 65.5602 284.124 66.9102C284.192 67.592 283.943 68.2466 283.783 68.9045C283.623 69.5625 283.579 70.3329 283.974 70.8579C284.41 71.4375 285.191 71.492 285.88 71.4989C286.568 71.5057 287.455 71.4579 287.891 70.817C288.079 70.4951 288.203 70.1397 288.256 69.7704C287.792 70.1011 287.144 70.142 286.561 70.1352Z" fill="black"/>
<path d="M297.91 70.0125C296.935 70.5102 295.766 70.3534 294.781 69.8761C293.795 69.3988 292.95 68.6454 292.104 67.9261C291.721 67.5568 291.268 67.2681 290.771 67.0773C290.524 66.989 290.256 66.9743 290 67.0347C289.744 67.0952 289.511 67.2284 289.329 67.4182C289.098 67.7604 288.952 68.1532 288.903 68.5636C289.081 68.4592 289.278 68.3939 289.483 68.3721C289.687 68.3503 289.894 68.3726 290.09 68.4375C290.586 68.6284 291.04 68.917 291.423 69.2863C292.268 70.0057 293.127 70.7625 294.099 71.2363C295.07 71.7102 296.253 71.8704 297.228 71.3727C298.091 70.868 298.719 70.0436 298.977 69.0784C298.697 69.4667 298.332 69.7862 297.91 70.0125Z" fill="black"/>
</g>
<path d="M213.068 216.566C218.716 216.566 223.295 211.987 223.295 206.339C223.295 200.69 218.716 196.111 213.068 196.111C207.42 196.111 202.841 200.69 202.841 206.339C202.841 211.987 207.42 216.566 213.068 216.566Z" fill="#3F3D56"/>
<path opacity="0.1" d="M213.068 216.566C218.716 216.566 223.295 211.987 223.295 206.339C223.295 200.69 218.716 196.111 213.068 196.111C207.42 196.111 202.841 200.69 202.841 206.339C202.841 211.987 207.42 216.566 213.068 216.566Z" fill="black"/>
<path d="M213.068 212.816C216.645 212.816 219.545 209.916 219.545 206.339C219.545 202.761 216.645 199.861 213.068 199.861C209.491 199.861 206.591 202.761 206.591 206.339C206.591 209.916 209.491 212.816 213.068 212.816Z" fill="#65617D"/>
<path opacity="0.1" d="M213.068 212.816C216.645 212.816 219.545 209.916 219.545 206.339C219.545 202.761 216.645 199.861 213.068 199.861C209.491 199.861 206.591 202.761 206.591 206.339C206.591 209.916 209.491 212.816 213.068 212.816Z" fill="black"/>
<path d="M205.227 190.316L211.936 205.486C212.036 205.714 212.199 205.908 212.406 206.046C212.612 206.184 212.854 206.26 213.102 206.265C213.351 206.27 213.595 206.204 213.807 206.074C214.019 205.945 214.19 205.757 214.299 205.534L222.273 189.293L205.227 190.316Z" fill="#3F3D56"/>
<path opacity="0.1" d="M205.227 190.316L211.936 205.486C212.036 205.714 212.199 205.908 212.406 206.046C212.612 206.184 212.854 206.26 213.102 206.265C213.351 206.27 213.595 206.204 213.807 206.074C214.019 205.945 214.19 205.757 214.299 205.534L222.273 189.293L205.227 190.316Z" fill="black"/>
<path d="M149.318 216.566C154.966 216.566 159.545 211.987 159.545 206.339C159.545 200.69 154.966 196.111 149.318 196.111C143.67 196.111 139.091 200.69 139.091 206.339C139.091 211.987 143.67 216.566 149.318 216.566Z" fill="#3F3D56"/>
<path opacity="0.1" d="M149.318 216.566C154.966 216.566 159.545 211.987 159.545 206.339C159.545 200.69 154.966 196.111 149.318 196.111C143.67 196.111 139.091 200.69 139.091 206.339C139.091 211.987 143.67 216.566 149.318 216.566Z" fill="black"/>
<path d="M149.318 212.816C152.896 212.816 155.796 209.916 155.796 206.339C155.796 202.761 152.896 199.861 149.318 199.861C145.741 199.861 142.841 202.761 142.841 206.339C142.841 209.916 145.741 212.816 149.318 212.816Z" fill="#65617D"/>
<path opacity="0.1" d="M149.318 212.816C152.896 212.816 155.796 209.916 155.796 206.339C155.796 202.761 152.896 199.861 149.318 199.861C145.741 199.861 142.841 202.761 142.841 206.339C142.841 209.916 145.741 212.816 149.318 212.816Z" fill="black"/>
<path d="M141.477 190.316L148.186 205.486C148.286 205.714 148.449 205.908 148.655 206.046C148.862 206.184 149.104 206.26 149.352 206.265C149.6 206.27 149.845 206.204 150.057 206.074C150.269 205.945 150.44 205.757 150.549 205.534L158.523 189.293L141.477 190.316Z" fill="#3F3D56"/>
<path opacity="0.1" d="M141.477 190.316L148.186 205.486C148.286 205.714 148.449 205.908 148.655 206.046C148.862 206.184 149.104 206.26 149.352 206.265C149.6 206.27 149.845 206.204 150.057 206.074C150.269 205.945 150.44 205.757 150.549 205.534L158.523 189.293L141.477 190.316Z" fill="black"/>
<path d="M246.259 117.276C246.231 117.018 246.139 116.771 245.99 116.558C245.842 116.344 245.642 116.172 245.41 116.056C245.214 115.972 245.004 115.929 244.791 115.929C244.579 115.928 244.368 115.971 244.172 116.053C243.976 116.136 243.799 116.257 243.651 116.41C243.503 116.563 243.387 116.744 243.31 116.942L237.443 131.509L235.739 196.964H238.466L239.489 131.649L246.116 118.265C246.267 117.959 246.317 117.612 246.259 117.276Z" fill="#3F3D56"/>
<path d="M125.625 191.85L134.83 186.055L234.205 185.202L236.761 191.85H125.625Z" fill="#75DEFF"/>
<path d="M125.625 197.986V191.85L238.561 190.759L238.452 194.918H127.67V197.986H125.625Z" fill="#3F3D56"/>
<path d="M139.943 220.145C145.591 220.145 150.17 215.567 150.17 209.918C150.17 204.27 145.591 199.691 139.943 199.691C134.295 199.691 129.716 204.27 129.716 209.918C129.716 215.567 134.295 220.145 139.943 220.145Z" fill="#3F3D56"/>
<path d="M139.943 216.395C143.52 216.395 146.42 213.495 146.42 209.918C146.42 206.341 143.52 203.441 139.943 203.441C136.366 203.441 133.466 206.341 133.466 209.918C133.466 213.495 136.366 216.395 139.943 216.395Z" fill="#65617D"/>
<path d="M132.102 193.895L138.811 209.066C138.911 209.293 139.074 209.487 139.281 209.625C139.487 209.763 139.729 209.839 139.977 209.844C140.226 209.849 140.47 209.783 140.682 209.654C140.894 209.524 141.065 209.337 141.174 209.114L149.148 192.873L132.102 193.895Z" fill="#3F3D56"/>
<path d="M219.375 220.145C225.023 220.145 229.602 215.567 229.602 209.918C229.602 204.27 225.023 199.691 219.375 199.691C213.727 199.691 209.148 204.27 209.148 209.918C209.148 215.567 213.727 220.145 219.375 220.145Z" fill="#3F3D56"/>
<path d="M219.375 216.395C222.952 216.395 225.852 213.495 225.852 209.918C225.852 206.341 222.952 203.441 219.375 203.441C215.798 203.441 212.898 206.341 212.898 209.918C212.898 213.495 215.798 216.395 219.375 216.395Z" fill="#65617D"/>
<path d="M211.534 193.895L218.243 209.066C218.343 209.293 218.506 209.487 218.713 209.625C218.919 209.763 219.161 209.839 219.409 209.844C219.658 209.849 219.902 209.783 220.114 209.654C220.326 209.524 220.497 209.337 220.606 209.114L228.58 192.873L211.534 193.895Z" fill="#3F3D56"/>
<path d="M181.023 165.089H138.409V188.611H181.023V165.089Z" fill="#65617D"/>
<path opacity="0.1" d="M166.364 169.18H153.409V171.907H166.364V169.18Z" fill="black"/>
<path opacity="0.1" d="M164.744 169.521H155.029V171.566H164.744V169.521Z" fill="black"/>
<path d="M224.318 165.089H181.704V188.611H224.318V165.089Z" fill="#65617D"/>
<path opacity="0.1" d="M209.659 169.18H196.704V171.907H209.659V169.18Z" fill="black"/>
<path opacity="0.1" d="M208.04 169.521H198.324V171.566H208.04V169.521Z" fill="black"/>
<path d="M181.023 140.884H138.409V164.407H181.023V140.884Z" fill="#65617D"/>
<path opacity="0.1" d="M166.364 144.975H153.409V147.702H166.364V144.975Z" fill="black"/>
<path opacity="0.1" d="M164.744 145.316H155.029V147.361H164.744V145.316Z" fill="black"/>
<path d="M224.318 140.884H181.704V164.407H224.318V140.884Z" fill="#65617D"/>
<path opacity="0.1" d="M209.659 144.975H196.704V147.702H209.659V144.975Z" fill="black"/>
<path opacity="0.1" d="M208.04 145.316H198.324V147.361H208.04V145.316Z" fill="black"/>
<path d="M181.023 116.339H138.409V139.861H181.023V116.339Z" fill="#65617D"/>
<path opacity="0.1" d="M166.364 120.43H153.409V123.157H166.364V120.43Z" fill="black"/>
<path opacity="0.1" d="M164.744 120.771H155.029V122.816H164.744V120.771Z" fill="black"/>
<path d="M224.318 116.339H181.704V139.861H224.318V116.339Z" fill="#65617D"/>
<path opacity="0.1" d="M209.659 120.43H196.704V123.157H209.659V120.43Z" fill="black"/>
<path opacity="0.1" d="M208.04 120.771H198.324V122.816H208.04V120.771Z" fill="black"/>
<path d="M224.318 91.7932H181.704V115.316H224.318V91.7932Z" fill="#65617D"/>
<path opacity="0.1" d="M209.659 95.884H196.704V98.6113H209.659V95.884Z" fill="black"/>
<path opacity="0.1" d="M208.04 96.2251H198.324V98.2706H208.04V96.2251Z" fill="black"/>
</g>
<defs>
<linearGradient id="paint0_linear_1609_2966" x1="299.26" y1="216.273" x2="299.26" y2="51.5659" gradientUnits="userSpaceOnUse">
<stop stop-color="#808080" stop-opacity="0.25"/>
<stop offset="0.54" stop-color="#808080" stop-opacity="0.12"/>
<stop offset="1" stop-color="#808080" stop-opacity="0.1"/>
</linearGradient>
<clipPath id="clip0_1609_2966">
<rect width="390" height="222.02" fill="white"/>
</clipPath>
</defs>
</svg>
