<svg width="342" height="233" viewBox="0 0 342 233" fill="none" xmlns="http://www.w3.org/2000/svg">
<g clip-path="url(#clip0_2327_3662)">
<path d="M77.5453 6.04658C79.215 6.04658 80.5686 4.69301 80.5686 3.02329C80.5686 1.35357 79.215 0 77.5453 0C75.8755 0 74.522 1.35357 74.522 3.02329C74.522 4.69301 75.8755 6.04658 77.5453 6.04658Z" fill="#E6E6E6"/>
<path d="M92.849 6.04658C94.5187 6.04658 95.8723 4.69301 95.8723 3.02329C95.8723 1.35357 94.5187 0 92.849 0C91.1793 0 89.8257 1.35357 89.8257 3.02329C89.8257 4.69301 91.1793 6.04658 92.849 6.04658Z" fill="#E6E6E6"/>
<path d="M108.153 6.04658C109.822 6.04658 111.176 4.69301 111.176 3.02329C111.176 1.35357 109.822 0 108.153 0C106.483 0 105.129 1.35357 105.129 3.02329C105.129 4.69301 106.483 6.04658 108.153 6.04658Z" fill="#E6E6E6"/>
<path d="M123.456 6.04658C125.126 6.04658 126.48 4.69301 126.48 3.02329C126.48 1.35357 125.126 0 123.456 0C121.787 0 120.433 1.35357 120.433 3.02329C120.433 4.69301 121.787 6.04658 123.456 6.04658Z" fill="#E6E6E6"/>
<path d="M138.761 6.04658C140.43 6.04658 141.784 4.69301 141.784 3.02329C141.784 1.35357 140.43 0 138.761 0C137.091 0 135.737 1.35357 135.737 3.02329C135.737 4.69301 137.091 6.04658 138.761 6.04658Z" fill="#E6E6E6"/>
<path d="M77.5453 21.5426C79.215 21.5426 80.5686 20.189 80.5686 18.5193C80.5686 16.8495 79.215 15.496 77.5453 15.496C75.8755 15.496 74.522 16.8495 74.522 18.5193C74.522 20.189 75.8755 21.5426 77.5453 21.5426Z" fill="#E6E6E6"/>
<path d="M92.849 21.5426C94.5187 21.5426 95.8723 20.189 95.8723 18.5193C95.8723 16.8495 94.5187 15.496 92.849 15.496C91.1793 15.496 89.8257 16.8495 89.8257 18.5193C89.8257 20.189 91.1793 21.5426 92.849 21.5426Z" fill="#E6E6E6"/>
<path d="M108.153 21.5426C109.822 21.5426 111.176 20.189 111.176 18.5193C111.176 16.8495 109.822 15.496 108.153 15.496C106.483 15.496 105.129 16.8495 105.129 18.5193C105.129 20.189 106.483 21.5426 108.153 21.5426Z" fill="#E6E6E6"/>
<path d="M123.456 21.5426C125.126 21.5426 126.48 20.189 126.48 18.5193C126.48 16.8495 125.126 15.496 123.456 15.496C121.787 15.496 120.433 16.8495 120.433 18.5193C120.433 20.189 121.787 21.5426 123.456 21.5426Z" fill="#007580"/>
<path d="M138.761 21.5426C140.43 21.5426 141.784 20.189 141.784 18.5193C141.784 16.8495 140.43 15.496 138.761 15.496C137.091 15.496 135.737 16.8495 135.737 18.5193C135.737 20.189 137.091 21.5426 138.761 21.5426Z" fill="#E6E6E6"/>
<path d="M169.368 21.5426C171.038 21.5426 172.391 20.189 172.391 18.5193C172.391 16.8495 171.038 15.496 169.368 15.496C167.698 15.496 166.345 16.8495 166.345 18.5193C166.345 20.189 167.698 21.5426 169.368 21.5426Z" fill="#E6E6E6"/>
<path d="M77.5453 37.0384C79.215 37.0384 80.5686 35.6848 80.5686 34.0151C80.5686 32.3454 79.215 30.9918 77.5453 30.9918C75.8755 30.9918 74.522 32.3454 74.522 34.0151C74.522 35.6848 75.8755 37.0384 77.5453 37.0384Z" fill="#E6E6E6"/>
<path d="M92.849 37.0384C94.5187 37.0384 95.8723 35.6848 95.8723 34.0151C95.8723 32.3454 94.5187 30.9918 92.849 30.9918C91.1793 30.9918 89.8257 32.3454 89.8257 34.0151C89.8257 35.6848 91.1793 37.0384 92.849 37.0384Z" fill="#E6E6E6"/>
<path d="M108.153 37.0384C109.822 37.0384 111.176 35.6848 111.176 34.0151C111.176 32.3454 109.822 30.9918 108.153 30.9918C106.483 30.9918 105.129 32.3454 105.129 34.0151C105.129 35.6848 106.483 37.0384 108.153 37.0384Z" fill="#E6E6E6"/>
<path d="M123.456 37.0384C125.126 37.0384 126.48 35.6848 126.48 34.0151C126.48 32.3454 125.126 30.9918 123.456 30.9918C121.787 30.9918 120.433 32.3454 120.433 34.0151C120.433 35.6848 121.787 37.0384 123.456 37.0384Z" fill="#E6E6E6"/>
<path d="M138.761 37.0384C140.43 37.0384 141.784 35.6848 141.784 34.0151C141.784 32.3454 140.43 30.9918 138.761 30.9918C137.091 30.9918 135.737 32.3454 135.737 34.0151C135.737 35.6848 137.091 37.0384 138.761 37.0384Z" fill="#E6E6E6"/>
<path d="M77.5453 52.5344C79.215 52.5344 80.5686 51.1808 80.5686 49.5111C80.5686 47.8414 79.215 46.4878 77.5453 46.4878C75.8755 46.4878 74.522 47.8414 74.522 49.5111C74.522 51.1808 75.8755 52.5344 77.5453 52.5344Z" fill="#E6E6E6"/>
<path d="M92.849 52.5344C94.5187 52.5344 95.8723 51.1808 95.8723 49.5111C95.8723 47.8414 94.5187 46.4878 92.849 46.4878C91.1793 46.4878 89.8257 47.8414 89.8257 49.5111C89.8257 51.1808 91.1793 52.5344 92.849 52.5344Z" fill="#E6E6E6"/>
<path d="M108.153 52.5344C109.822 52.5344 111.176 51.1808 111.176 49.5111C111.176 47.8414 109.822 46.4878 108.153 46.4878C106.483 46.4878 105.129 47.8414 105.129 49.5111C105.129 51.1808 106.483 52.5344 108.153 52.5344Z" fill="#E6E6E6"/>
<path d="M123.456 52.5344C125.126 52.5344 126.48 51.1808 126.48 49.5111C126.48 47.8414 125.126 46.4878 123.456 46.4878C121.787 46.4878 120.433 47.8414 120.433 49.5111C120.433 51.1808 121.787 52.5344 123.456 52.5344Z" fill="#E6E6E6"/>
<path d="M138.761 52.5344C140.43 52.5344 141.784 51.1808 141.784 49.5111C141.784 47.8414 140.43 46.4878 138.761 46.4878C137.091 46.4878 135.737 47.8414 135.737 49.5111C135.737 51.1808 137.091 52.5344 138.761 52.5344Z" fill="#E6E6E6"/>
<path d="M154.064 52.5344C155.734 52.5344 157.088 51.1808 157.088 49.5111C157.088 47.8414 155.734 46.4878 154.064 46.4878C152.395 46.4878 151.041 47.8414 151.041 49.5111C151.041 51.1808 152.395 52.5344 154.064 52.5344Z" fill="#E6E6E6"/>
<path d="M169.368 52.5344C171.038 52.5344 172.391 51.1808 172.391 49.5111C172.391 47.8414 171.038 46.4878 169.368 46.4878C167.698 46.4878 166.345 47.8414 166.345 49.5111C166.345 51.1808 167.698 52.5344 169.368 52.5344Z" fill="#E6E6E6"/>
<path d="M184.672 52.5344C186.342 52.5344 187.696 51.1808 187.696 49.5111C187.696 47.8414 186.342 46.4878 184.672 46.4878C183.003 46.4878 181.649 47.8414 181.649 49.5111C181.649 51.1808 183.003 52.5344 184.672 52.5344Z" fill="#E6E6E6"/>
<path d="M199.976 52.5344C201.646 52.5344 202.999 51.1808 202.999 49.5111C202.999 47.8414 201.646 46.4878 199.976 46.4878C198.306 46.4878 196.953 47.8414 196.953 49.5111C196.953 51.1808 198.306 52.5344 199.976 52.5344Z" fill="#E6E6E6"/>
<path d="M215.28 52.5344C216.949 52.5344 218.303 51.1808 218.303 49.5111C218.303 47.8414 216.949 46.4878 215.28 46.4878C213.61 46.4878 212.256 47.8414 212.256 49.5111C212.256 51.1808 213.61 52.5344 215.28 52.5344Z" fill="#E6E6E6"/>
<path d="M138.761 68.0304C140.43 68.0304 141.784 66.6768 141.784 65.0071C141.784 63.3373 140.43 61.9838 138.761 61.9838C137.091 61.9838 135.737 63.3373 135.737 65.0071C135.737 66.6768 137.091 68.0304 138.761 68.0304Z" fill="#E6E6E6"/>
<path d="M154.064 68.0304C155.734 68.0304 157.088 66.6768 157.088 65.0071C157.088 63.3373 155.734 61.9838 154.064 61.9838C152.395 61.9838 151.041 63.3373 151.041 65.0071C151.041 66.6768 152.395 68.0304 154.064 68.0304Z" fill="#007580"/>
<path d="M169.368 68.0304C171.038 68.0304 172.391 66.6768 172.391 65.0071C172.391 63.3373 171.038 61.9838 169.368 61.9838C167.698 61.9838 166.345 63.3373 166.345 65.0071C166.345 66.6768 167.698 68.0304 169.368 68.0304Z" fill="#E6E6E6"/>
<path d="M184.672 68.0304C186.342 68.0304 187.696 66.6768 187.696 65.0071C187.696 63.3373 186.342 61.9838 184.672 61.9838C183.003 61.9838 181.649 63.3373 181.649 65.0071C181.649 66.6768 183.003 68.0304 184.672 68.0304Z" fill="#E6E6E6"/>
<path d="M199.976 68.0304C201.646 68.0304 202.999 66.6768 202.999 65.0071C202.999 63.3373 201.646 61.9838 199.976 61.9838C198.306 61.9838 196.953 63.3373 196.953 65.0071C196.953 66.6768 198.306 68.0304 199.976 68.0304Z" fill="#E6E6E6"/>
<path d="M215.28 68.0304C216.949 68.0304 218.303 66.6768 218.303 65.0071C218.303 63.3373 216.949 61.9838 215.28 61.9838C213.61 61.9838 212.256 63.3373 212.256 65.0071C212.256 66.6768 213.61 68.0304 215.28 68.0304Z" fill="#E6E6E6"/>
<path d="M138.761 83.5263C140.43 83.5263 141.784 82.1727 141.784 80.503C141.784 78.8333 140.43 77.4797 138.761 77.4797C137.091 77.4797 135.737 78.8333 135.737 80.503C135.737 82.1727 137.091 83.5263 138.761 83.5263Z" fill="#E6E6E6"/>
<path d="M154.064 83.5263C155.734 83.5263 157.088 82.1727 157.088 80.503C157.088 78.8333 155.734 77.4797 154.064 77.4797C152.395 77.4797 151.041 78.8333 151.041 80.503C151.041 82.1727 152.395 83.5263 154.064 83.5263Z" fill="#E6E6E6"/>
<path d="M169.368 83.5263C171.038 83.5263 172.391 82.1727 172.391 80.503C172.391 78.8333 171.038 77.4797 169.368 77.4797C167.698 77.4797 166.345 78.8333 166.345 80.503C166.345 82.1727 167.698 83.5263 169.368 83.5263Z" fill="#E6E6E6"/>
<path d="M184.672 83.5263C186.342 83.5263 187.696 82.1727 187.696 80.503C187.696 78.8333 186.342 77.4797 184.672 77.4797C183.003 77.4797 181.649 78.8333 181.649 80.503C181.649 82.1727 183.003 83.5263 184.672 83.5263Z" fill="#E6E6E6"/>
<path d="M199.976 83.5263C201.646 83.5263 202.999 82.1727 202.999 80.503C202.999 78.8333 201.646 77.4797 199.976 77.4797C198.306 77.4797 196.953 78.8333 196.953 80.503C196.953 82.1727 198.306 83.5263 199.976 83.5263Z" fill="#007580"/>
<path d="M215.28 83.5263C216.949 83.5263 218.303 82.1727 218.303 80.503C218.303 78.8333 216.949 77.4797 215.28 77.4797C213.61 77.4797 212.256 78.8333 212.256 80.503C212.256 82.1727 213.61 83.5263 215.28 83.5263Z" fill="#E6E6E6"/>
<path d="M138.761 99.0223C140.43 99.0223 141.784 97.6687 141.784 95.999C141.784 94.3293 140.43 92.9757 138.761 92.9757C137.091 92.9757 135.737 94.3293 135.737 95.999C135.737 97.6687 137.091 99.0223 138.761 99.0223Z" fill="#E6E6E6"/>
<path d="M154.064 99.0223C155.734 99.0223 157.088 97.6687 157.088 95.999C157.088 94.3293 155.734 92.9757 154.064 92.9757C152.395 92.9757 151.041 94.3293 151.041 95.999C151.041 97.6687 152.395 99.0223 154.064 99.0223Z" fill="#E6E6E6"/>
<path d="M169.368 99.0223C171.038 99.0223 172.391 97.6687 172.391 95.999C172.391 94.3293 171.038 92.9757 169.368 92.9757C167.698 92.9757 166.345 94.3293 166.345 95.999C166.345 97.6687 167.698 99.0223 169.368 99.0223Z" fill="#E6E6E6"/>
<path d="M184.672 99.0223C186.342 99.0223 187.696 97.6687 187.696 95.999C187.696 94.3293 186.342 92.9757 184.672 92.9757C183.003 92.9757 181.649 94.3293 181.649 95.999C181.649 97.6687 183.003 99.0223 184.672 99.0223Z" fill="#E6E6E6"/>
<path d="M199.976 99.0223C201.646 99.0223 202.999 97.6687 202.999 95.999C202.999 94.3293 201.646 92.9757 199.976 92.9757C198.306 92.9757 196.953 94.3293 196.953 95.999C196.953 97.6687 198.306 99.0223 199.976 99.0223Z" fill="#E6E6E6"/>
<path d="M215.28 99.0223C216.949 99.0223 218.303 97.6687 218.303 95.999C218.303 94.3293 216.949 92.9757 215.28 92.9757C213.61 92.9757 212.256 94.3293 212.256 95.999C212.256 97.6687 213.61 99.0223 215.28 99.0223Z" fill="#E6E6E6"/>
<path d="M77.5453 114.518C79.215 114.518 80.5686 113.165 80.5686 111.495C80.5686 109.825 79.215 108.472 77.5453 108.472C75.8755 108.472 74.522 109.825 74.522 111.495C74.522 113.165 75.8755 114.518 77.5453 114.518Z" fill="#E6E6E6"/>
<path d="M92.849 114.518C94.5187 114.518 95.8723 113.165 95.8723 111.495C95.8723 109.825 94.5187 108.472 92.849 108.472C91.1793 108.472 89.8257 109.825 89.8257 111.495C89.8257 113.165 91.1793 114.518 92.849 114.518Z" fill="#E6E6E6"/>
<path d="M108.153 114.518C109.822 114.518 111.176 113.165 111.176 111.495C111.176 109.825 109.822 108.472 108.153 108.472C106.483 108.472 105.129 109.825 105.129 111.495C105.129 113.165 106.483 114.518 108.153 114.518Z" fill="#E6E6E6"/>
<path d="M123.456 114.518C125.126 114.518 126.48 113.165 126.48 111.495C126.48 109.825 125.126 108.472 123.456 108.472C121.787 108.472 120.433 109.825 120.433 111.495C120.433 113.165 121.787 114.518 123.456 114.518Z" fill="#E6E6E6"/>
<path d="M138.761 114.518C140.43 114.518 141.784 113.165 141.784 111.495C141.784 109.825 140.43 108.472 138.761 108.472C137.091 108.472 135.737 109.825 135.737 111.495C135.737 113.165 137.091 114.518 138.761 114.518Z" fill="#E6E6E6"/>
<path d="M154.064 114.518C155.734 114.518 157.088 113.165 157.088 111.495C157.088 109.825 155.734 108.472 154.064 108.472C152.395 108.472 151.041 109.825 151.041 111.495C151.041 113.165 152.395 114.518 154.064 114.518Z" fill="#E6E6E6"/>
<path d="M169.368 114.518C171.038 114.518 172.391 113.165 172.391 111.495C172.391 109.825 171.038 108.472 169.368 108.472C167.698 108.472 166.345 109.825 166.345 111.495C166.345 113.165 167.698 114.518 169.368 114.518Z" fill="#E6E6E6"/>
<path d="M184.672 114.518C186.342 114.518 187.696 113.165 187.696 111.495C187.696 109.825 186.342 108.472 184.672 108.472C183.003 108.472 181.649 109.825 181.649 111.495C181.649 113.165 183.003 114.518 184.672 114.518Z" fill="#E6E6E6"/>
<path d="M199.976 114.518C201.646 114.518 202.999 113.165 202.999 111.495C202.999 109.825 201.646 108.472 199.976 108.472C198.306 108.472 196.953 109.825 196.953 111.495C196.953 113.165 198.306 114.518 199.976 114.518Z" fill="#E6E6E6"/>
<path d="M215.28 114.518C216.949 114.518 218.303 113.165 218.303 111.495C218.303 109.825 216.949 108.472 215.28 108.472C213.61 108.472 212.256 109.825 212.256 111.495C212.256 113.165 213.61 114.518 215.28 114.518Z" fill="#E6E6E6"/>
<path d="M77.5433 130.014C79.213 130.014 80.5666 128.66 80.5666 126.99C80.5666 125.321 79.213 123.967 77.5433 123.967C75.8736 123.967 74.52 125.321 74.52 126.99C74.52 128.66 75.8736 130.014 77.5433 130.014Z" fill="#E6E6E6"/>
<path d="M92.849 130.014C94.5187 130.014 95.8723 128.661 95.8723 126.991C95.8723 125.321 94.5187 123.968 92.849 123.968C91.1793 123.968 89.8257 125.321 89.8257 126.991C89.8257 128.661 91.1793 130.014 92.849 130.014Z" fill="#E6E6E6"/>
<path d="M77.5433 145.509C79.213 145.509 80.5666 144.156 80.5666 142.486C80.5666 140.816 79.213 139.463 77.5433 139.463C75.8736 139.463 74.52 140.816 74.52 142.486C74.52 144.156 75.8736 145.509 77.5433 145.509Z" fill="#E6E6E6"/>
<path d="M92.849 145.51C94.5187 145.51 95.8723 144.156 95.8723 142.487C95.8723 140.817 94.5187 139.463 92.849 139.463C91.1793 139.463 89.8257 140.817 89.8257 142.487C89.8257 144.156 91.1793 145.51 92.849 145.51Z" fill="#E6E6E6"/>
<path d="M123.456 145.51C125.126 145.51 126.48 144.156 126.48 142.487C126.48 140.817 125.126 139.463 123.456 139.463C121.787 139.463 120.433 140.817 120.433 142.487C120.433 144.156 121.787 145.51 123.456 145.51Z" fill="#E6E6E6"/>
<path d="M276.001 35.6687H156.193C155.605 35.668 155.041 35.4341 154.625 35.0181C154.209 34.6022 153.975 34.0383 153.975 33.4501V3.73098C153.975 3.14277 154.209 2.57885 154.625 2.16292C155.041 1.74699 155.605 1.51302 156.193 1.51233H276.001C276.589 1.51302 277.153 1.74699 277.569 2.16292C277.985 2.57885 278.219 3.14277 278.219 3.73098V33.4501C278.219 34.0383 277.985 34.6022 277.569 35.0182C277.153 35.4341 276.589 35.668 276.001 35.6687ZM156.193 2.39979C155.84 2.40018 155.502 2.54055 155.252 2.79011C155.003 3.03968 154.862 3.37805 154.862 3.73098V33.4501C154.862 33.803 155.003 34.1414 155.252 34.391C155.502 34.6405 155.84 34.7809 156.193 34.7813H276.001C276.354 34.7809 276.692 34.6405 276.942 34.391C277.191 34.1414 277.332 33.803 277.332 33.4501V3.73098C277.332 3.37805 277.191 3.03968 276.942 2.79011C276.692 2.54055 276.354 2.40018 276.001 2.39979H156.193Z" fill="#E6E6E6"/>
<path d="M171.724 27.9088C176.87 27.9088 181.042 23.7368 181.042 18.5904C181.042 13.4441 176.87 9.27209 171.724 9.27209C166.577 9.27209 162.405 13.4441 162.405 18.5904C162.405 23.7368 166.577 27.9088 171.724 27.9088Z" fill="#007580"/>
<path d="M193.244 12.3783C192.833 12.3783 192.438 12.5419 192.146 12.8332C191.855 13.1244 191.691 13.5195 191.691 13.9314C191.691 14.3432 191.855 14.7383 192.146 15.0295C192.438 15.3208 192.833 15.4844 193.244 15.4844H234.511C234.923 15.4844 235.318 15.3208 235.61 15.0295C235.901 14.7383 236.064 14.3432 236.064 13.9314C236.064 13.5195 235.901 13.1244 235.61 12.8332C235.318 12.5419 234.923 12.3783 234.511 12.3783H193.244Z" fill="#E6E6E6"/>
<path d="M193.244 21.6967C192.833 21.6967 192.438 21.8603 192.146 22.1515C191.855 22.4428 191.691 22.8378 191.691 23.2497C191.691 23.6616 191.855 24.0566 192.146 24.3479C192.438 24.6391 192.833 24.8028 193.244 24.8028H266.46C266.872 24.8028 267.267 24.6391 267.558 24.3479C267.849 24.0566 268.013 23.6616 268.013 23.2497C268.013 22.8378 267.849 22.4428 267.558 22.1515C267.267 21.8603 266.872 21.6967 266.46 21.6967H193.244Z" fill="#E6E6E6"/>
<path d="M122.026 96.0161H2.21865C1.63044 96.0155 1.06652 95.7815 0.650592 95.3655C0.234663 94.9496 0.000689347 94.3857 0 93.7975V64.0784C0.000689347 63.4902 0.234663 62.9263 0.650592 62.5103C1.06652 62.0944 1.63044 61.8604 2.21865 61.8597H122.026C122.614 61.8604 123.178 62.0944 123.594 62.5103C124.01 62.9263 124.244 63.4902 124.245 64.0784V93.7975C124.244 94.3857 124.01 94.9496 123.594 95.3656C123.178 95.7815 122.614 96.0155 122.026 96.0161ZM2.21865 62.7472C1.86572 62.7476 1.52735 62.888 1.27778 63.1375C1.02822 63.3871 0.887847 63.7255 0.887461 64.0784V93.7975C0.887847 94.1505 1.02822 94.4888 1.27778 94.7384C1.52735 94.9879 1.86572 95.1283 2.21865 95.1287H122.026C122.379 95.1283 122.717 94.9879 122.967 94.7384C123.217 94.4888 123.357 94.1505 123.357 93.7975V64.0784C123.357 63.7255 123.217 63.3871 122.967 63.1375C122.717 62.888 122.379 62.7476 122.026 62.7472H2.21865Z" fill="#E6E6E6"/>
<path d="M17.749 88.2562C22.8954 88.2562 27.0674 84.0842 27.0674 78.9379C27.0674 73.7915 22.8954 69.6195 17.749 69.6195C12.6026 69.6195 8.43066 73.7915 8.43066 78.9379C8.43066 84.0842 12.6026 88.2562 17.749 88.2562Z" fill="#007580"/>
<path d="M39.2703 72.7256C38.8584 72.7256 38.4634 72.8892 38.1722 73.1805C37.8809 73.4717 37.7173 73.8667 37.7173 74.2786C37.7173 74.6905 37.8809 75.0856 38.1722 75.3768C38.4634 75.6681 38.8584 75.8317 39.2703 75.8317H82.3122C82.7241 75.8317 83.1191 75.6681 83.4104 75.3768C83.7017 75.0856 83.8653 74.6905 83.8653 74.2786C83.8653 73.8667 83.7017 73.4717 83.4104 73.1805C83.1191 72.8892 82.7241 72.7256 82.3122 72.7256H39.2703Z" fill="#E6E6E6"/>
<path d="M39.2703 82.0439C38.8584 82.0439 38.4634 82.2076 38.1722 82.4988C37.8809 82.7901 37.7173 83.1851 37.7173 83.597C37.7173 84.0089 37.8809 84.4039 38.1722 84.6952C38.4634 84.9864 38.8584 85.1501 39.2703 85.1501H112.486C112.898 85.1501 113.293 84.9864 113.584 84.6952C113.875 84.4039 114.039 84.0089 114.039 83.597C114.039 83.1851 113.875 82.7901 113.584 82.4988C113.293 82.2076 112.898 82.0439 112.486 82.0439H39.2703Z" fill="#E6E6E6"/>
<path d="M230.297 161.245H110.489C109.901 161.244 109.337 161.01 108.921 160.594C108.505 160.178 108.271 159.614 108.271 159.026V129.307C108.271 128.719 108.505 128.155 108.921 127.739C109.337 127.323 109.901 127.089 110.489 127.088H230.297C230.885 127.089 231.449 127.323 231.865 127.739C232.281 128.155 232.515 128.719 232.515 129.307V159.026C232.515 159.614 232.281 160.178 231.865 160.594C231.449 161.01 230.885 161.244 230.297 161.245ZM110.489 127.976C110.136 127.976 109.798 128.116 109.548 128.366C109.299 128.616 109.158 128.954 109.158 129.307V159.026C109.158 159.379 109.299 159.717 109.548 159.967C109.798 160.216 110.136 160.357 110.489 160.357H230.297C230.65 160.357 230.988 160.216 231.238 159.967C231.487 159.717 231.627 159.379 231.628 159.026V129.307C231.627 128.954 231.487 128.616 231.238 128.366C230.988 128.116 230.65 127.976 230.297 127.976H110.489Z" fill="#3F3D56"/>
<path d="M126.02 153.485C131.166 153.485 135.338 149.313 135.338 144.166C135.338 139.02 131.166 134.848 126.02 134.848C120.873 134.848 116.701 139.02 116.701 144.166C116.701 149.313 120.873 153.485 126.02 153.485Z" fill="#007580"/>
<path d="M147.54 137.954C147.128 137.954 146.733 138.118 146.442 138.409C146.151 138.7 145.987 139.095 145.987 139.507C145.987 139.919 146.151 140.314 146.442 140.605C146.733 140.896 147.128 141.06 147.54 141.06H187.032C187.444 141.06 187.839 140.896 188.131 140.605C188.422 140.314 188.585 139.919 188.585 139.507C188.585 139.095 188.422 138.7 188.131 138.409C187.839 138.118 187.444 137.954 187.032 137.954H147.54Z" fill="#E6E6E6"/>
<path d="M147.54 147.272C147.128 147.272 146.733 147.436 146.442 147.727C146.151 148.018 145.987 148.413 145.987 148.825C145.987 149.237 146.151 149.632 146.442 149.924C146.733 150.215 147.128 150.378 147.54 150.378H220.756C221.168 150.378 221.563 150.215 221.854 149.924C222.145 149.632 222.309 149.237 222.309 148.825C222.309 148.413 222.145 148.018 221.854 147.727C221.563 147.436 221.168 147.272 220.756 147.272H147.54Z" fill="#E6E6E6"/>
<path d="M294.748 153.707C289.545 169.317 268.259 152.761 268.259 152.761L273.935 93.6355C282.45 87.0133 291.437 92.6894 291.437 92.6894L294.748 153.707Z" fill="#E6E6E6"/>
<path d="M293.63 206.094L300.883 206.171L299.071 227.077L293.631 227.077L293.63 206.094Z" fill="#FFB8B8"/>
<path d="M292.244 225.301H302.957C304.767 225.303 306.503 226.023 307.783 227.303C309.063 228.583 309.783 230.318 309.785 232.128V232.35H292.244V225.301Z" fill="#2F2E41"/>
<path d="M273.969 206.094L265.94 206.094L268.528 227.077L273.968 227.077L273.969 206.094Z" fill="#FFB8B8"/>
<path d="M257.814 232.35V232.128C257.814 230.317 258.533 228.581 259.814 227.3C261.094 226.02 262.831 225.301 264.642 225.301L275.355 225.301L275.355 232.351L257.814 232.35Z" fill="#2F2E41"/>
<path d="M293.141 223.455L283.639 168.068L274.836 222.742L265.916 223.237L263.538 149.983L263.717 149.943C265.192 149.613 299.898 141.99 305.587 152.895L305.616 152.95L300.867 223.705L293.141 223.455Z" fill="#2F2E41"/>
<path d="M283.071 86.7065C289.09 86.7065 293.969 81.8271 293.969 75.808C293.969 69.789 289.09 64.9095 283.071 64.9095C277.052 64.9095 272.172 69.789 272.172 75.808C272.172 81.8271 277.052 86.7065 283.071 86.7065Z" fill="#FFB8B8"/>
<path d="M292.226 158.378C290.949 158.025 290.028 156.557 289.329 153.761C289.209 153.279 277.893 105.079 287.462 96.3462L289.668 90.2191L292.687 92.2315C293.755 92.2415 304.677 92.5179 305.61 99.5188C306.524 106.372 309.012 152.284 306.511 155.14C306.462 155.203 306.4 155.254 306.329 155.29C306.258 155.326 306.179 155.346 306.1 155.348C303.566 155.348 302.796 152.537 302.616 151.64C302.013 151.89 300.219 152.807 297.269 155.756C295.443 157.583 294.01 158.459 292.827 158.459C292.624 158.459 292.422 158.432 292.226 158.378Z" fill="#2F2E41"/>
<path d="M268.576 155.756C265.626 152.806 263.831 151.889 263.229 151.64C263.049 152.537 262.279 155.348 259.745 155.348C259.666 155.346 259.588 155.326 259.516 155.29C259.445 155.254 259.383 155.203 259.334 155.14C256.834 152.284 259.321 106.372 260.235 99.5188C261.168 92.5179 272.09 92.2415 273.158 92.2315L276.177 90.2191L278.383 96.3462C287.951 105.078 276.636 153.279 276.516 153.761C275.817 156.558 274.896 158.025 273.619 158.378C273.423 158.432 273.221 158.459 273.018 158.459C271.835 158.459 270.402 157.583 268.576 155.756Z" fill="#2F2E41"/>
<path d="M292.069 82.0334C293.913 80.7072 295.309 78.8511 296.072 76.712C296.835 74.5729 296.929 72.2522 296.341 70.0585C295.753 67.8648 294.511 65.9022 292.78 64.4316C291.049 62.961 288.912 62.0521 286.652 61.8259C285.649 61.7255 284.568 61.7404 283.736 61.1706C282.997 60.6645 282.599 59.7865 281.92 59.2024C281.489 58.8687 280.993 58.6276 280.464 58.4943C279.936 58.361 279.385 58.3383 278.847 58.4277C277.773 58.6128 276.732 58.9548 275.757 59.4427C273.341 60.5202 270.772 61.8462 269.672 64.2528C268.72 66.3373 269.14 68.9078 270.489 70.761C271.906 72.5952 273.974 73.8158 276.264 74.1714C278.541 74.5116 280.867 74.3022 283.047 73.5607C284.485 73.1081 285.905 72.4913 287.412 72.4409C288.588 72.4016 289.75 72.7131 290.749 73.3357C291.747 73.9583 292.538 74.8639 293.021 75.9373C293.504 77.0107 293.656 78.2034 293.459 79.3637C293.262 80.524 292.724 81.5995 291.914 82.4533" fill="#2F2E41"/>
<path d="M232.667 146.867C233.296 146.852 233.916 146.714 234.492 146.459C235.067 146.205 235.587 145.84 236.022 145.385C236.457 144.929 236.797 144.393 237.025 143.806C237.252 143.219 237.361 142.593 237.347 141.964L243.703 131.241L238.792 126.739L232.097 137.304C230.862 137.423 229.721 138.016 228.914 138.959C228.107 139.902 227.697 141.121 227.771 142.36C227.845 143.599 228.396 144.761 229.309 145.601C230.222 146.442 231.426 146.895 232.667 146.867V146.867Z" fill="#FFB8B8"/>
<path d="M306.402 158.614C306.929 158.27 307.384 157.826 307.739 157.307C308.095 156.788 308.344 156.203 308.474 155.587C308.604 154.972 308.611 154.336 308.495 153.718C308.38 153.099 308.143 152.509 307.799 151.982L307.556 139.519L301.011 138.277L300.883 150.785C299.895 151.536 299.237 152.641 299.048 153.868C298.858 155.094 299.152 156.346 299.867 157.361C300.582 158.375 301.663 159.072 302.882 159.306C304.1 159.54 305.362 159.292 306.402 158.614V158.614Z" fill="#FFB8B8"/>
<path d="M234.6 129.624L234.526 129.506L234.599 129.388C244.132 114.08 264.142 94.9579 264.344 94.7665L264.407 94.7062L266.878 94.6809L269.55 101.337C268.718 102.937 246.3 134.222 243.34 136.297C243.104 136.46 242.837 136.572 242.555 136.625C242.274 136.678 241.984 136.671 241.705 136.605C241.212 136.491 240.743 136.291 240.319 136.014C237.587 134.322 234.74 129.846 234.6 129.624Z" fill="#2F2E41"/>
<path d="M299.765 147.093C299.5 147.002 299.256 146.857 299.049 146.667C298.842 146.478 298.677 146.247 298.564 145.99C297.137 142.66 303.254 100.595 303.515 98.8064L303.565 98.468L305.633 99.7784L305.653 99.8677C305.714 100.136 311.737 126.934 310.105 144.74L310.093 144.868L309.977 144.922C309.728 145.037 304.711 147.341 301.367 147.341C300.822 147.355 300.28 147.271 299.765 147.093V147.093Z" fill="#2F2E41"/>
<path d="M340.968 232.681H222.935C222.818 232.681 222.705 232.634 222.622 232.551C222.538 232.468 222.492 232.355 222.492 232.237C222.492 232.12 222.538 232.007 222.622 231.924C222.705 231.84 222.818 231.794 222.935 231.794H340.968C341.085 231.794 341.198 231.84 341.282 231.924C341.365 232.007 341.412 232.12 341.412 232.237C341.412 232.355 341.365 232.468 341.282 232.551C341.198 232.634 341.085 232.681 340.968 232.681Z" fill="#3F3D56"/>
</g>
<defs>
<clipPath id="clip0_2327_3662">
<rect width="341.411" height="232.681" fill="white"/>
</clipPath>
</defs>
</svg>
