<svg width="406" height="306" viewBox="0 0 406 306" fill="none" xmlns="http://www.w3.org/2000/svg">
<path d="M186.608 215.625C167.479 220.115 148.019 223.058 128.418 224.426C123.444 224.73 118.39 224.913 113.355 224.913C108.321 224.913 103.266 224.73 98.3027 224.426C78.6981 223.058 59.2353 220.115 40.1026 215.625C40.1026 215.625 39.3617 191.073 54.9825 174.315C70.6034 157.557 97.3588 156.096 113.355 156.096C129.352 156.096 156.117 157.588 171.738 174.315C187.359 191.042 186.608 215.625 186.608 215.625Z" fill="#68E1FD"/>
<path d="M128.418 164.287V224.426C123.444 224.73 118.39 224.913 113.355 224.913C108.321 224.913 103.266 224.73 98.3027 224.426V164.287H128.418Z" fill="#231F20"/>
<path d="M113.741 143.114C128.871 143.114 141.136 129.058 141.136 111.72C141.136 94.3816 128.871 80.326 113.741 80.326C98.6112 80.326 86.3461 94.3816 86.3461 111.72C86.3461 129.058 98.6112 143.114 113.741 143.114Z" fill="white"/>
<path d="M113.741 143.642C98.3535 143.642 85.8284 129.32 85.8284 111.72C85.8284 93.0236 87.8584 79.7982 113.741 79.7982C139.623 79.7982 141.664 92.9932 141.664 111.72C141.664 129.32 129.138 143.642 113.741 143.642ZM113.741 80.8436C88.7414 80.8436 86.8738 93.0236 86.8738 111.72C86.8738 128.741 98.932 142.596 113.741 142.596C128.55 142.596 140.618 128.741 140.618 111.72C140.618 93.115 138.74 80.8436 113.741 80.8436Z" fill="#231F20"/>
<path d="M131.036 122.55C132.376 114.186 146.261 112.126 145.571 121.982C145.467 125.408 144.155 128.687 141.867 131.238C139.491 133.654 135.655 134.801 132.559 133.411" fill="white"/>
<path d="M135.462 134.497C134.389 134.503 133.327 134.281 132.346 133.847C132.283 133.819 132.227 133.779 132.179 133.729C132.132 133.679 132.095 133.621 132.071 133.557C132.046 133.492 132.035 133.424 132.037 133.356C132.039 133.287 132.054 133.219 132.082 133.157C132.11 133.094 132.15 133.038 132.2 132.99C132.25 132.943 132.308 132.906 132.372 132.882C132.436 132.857 132.505 132.846 132.573 132.848C132.642 132.849 132.709 132.865 132.772 132.893C134.264 133.462 135.892 133.573 137.447 133.211C139.002 132.85 140.414 132.032 141.501 130.863C143.691 128.396 144.945 125.238 145.043 121.941C145.389 117.049 142.059 116.135 140.618 115.963C136.913 115.547 132.275 118.175 131.554 122.631C131.558 122.71 131.545 122.789 131.514 122.862C131.484 122.936 131.437 123.001 131.378 123.054C131.319 123.106 131.249 123.145 131.173 123.167C131.097 123.189 131.017 123.193 130.939 123.18C130.861 123.167 130.786 123.136 130.722 123.09C130.657 123.045 130.604 122.985 130.565 122.915C130.527 122.846 130.505 122.769 130.5 122.69C130.496 122.611 130.509 122.532 130.539 122.459C131.351 117.384 136.568 114.45 140.75 114.927C143.562 115.242 146.444 117.282 146.109 122.032C145.916 124.813 145.094 128.731 142.262 131.614C141.374 132.518 140.316 133.238 139.149 133.732C137.982 134.227 136.729 134.487 135.462 134.497V134.497Z" fill="#231F20"/>
<path d="M96.425 122.55C95.0852 114.186 81.2 112.126 81.8902 121.982C81.9957 125.405 83.3038 128.683 85.5848 131.238C87.9701 133.654 91.7966 134.801 94.9025 133.411" fill="white"/>
<path d="M92.0301 134.497C89.4738 134.455 87.0386 133.4 85.26 131.563C82.8898 128.921 81.5244 125.529 81.403 121.982C81.0782 117.242 83.9608 115.201 86.7622 114.877C90.9542 114.4 96.1713 117.374 96.9833 122.408C97.004 122.546 96.97 122.687 96.8885 122.801C96.807 122.915 96.6845 122.992 96.5468 123.017C96.4097 123.037 96.27 123.003 96.158 122.921C96.0459 122.84 95.9705 122.717 95.948 122.58C95.2273 118.125 90.5989 115.475 86.884 115.912C85.4427 116.084 82.1135 116.998 82.4485 121.89C82.6312 124.499 83.3924 128.163 86.001 130.812C88.4065 133.258 91.9895 134.111 94.7198 132.842C94.7831 132.813 94.8515 132.797 94.921 132.795C94.9905 132.793 95.0598 132.804 95.1249 132.828C95.19 132.853 95.2496 132.89 95.3002 132.938C95.3509 132.985 95.3917 133.043 95.4202 133.106C95.4753 133.233 95.4785 133.376 95.4292 133.505C95.3798 133.634 95.2819 133.739 95.1563 133.796C94.1759 134.249 93.1101 134.488 92.0301 134.497Z" fill="#231F20"/>
<path d="M98.3027 164.287C98.3027 164.287 102.058 172.468 113.01 172.468C116.066 172.552 119.092 171.842 121.792 170.408C124.493 168.975 126.775 166.866 128.418 164.287L126.946 132.162H99.7643L98.3027 164.287Z" fill="white"/>
<path d="M113.01 172.995C101.845 172.995 97.8663 164.591 97.7851 164.51C97.7661 164.43 97.7661 164.347 97.7851 164.267L99.2467 132.132C99.2545 131.997 99.3135 131.87 99.4117 131.778C99.5098 131.685 99.6397 131.634 99.7745 131.634H126.956C127.091 131.634 127.221 131.685 127.319 131.778C127.417 131.87 127.476 131.997 127.484 132.132L128.905 164.267C128.91 164.362 128.889 164.457 128.844 164.541C127.147 167.185 124.801 169.351 122.029 170.831C119.257 172.311 116.152 173.056 113.01 172.995V172.995ZM98.8001 164.175C99.2975 165.19 103.073 171.95 113.01 171.95C115.946 172.017 118.852 171.339 121.454 169.977C124.057 168.615 126.271 166.616 127.89 164.165L126.459 132.7H100.262L98.8001 164.175Z" fill="#231F20"/>
<path d="M99.7643 145.895C101.862 148.94 104.684 151.416 107.976 153.102C113.365 156.075 121.414 159.425 127.951 158.43L126.875 144.88C122.091 145.479 117.254 145.513 112.462 144.982C108.24 144.606 103.885 144.2 100.018 142.566C99.3583 142.241 98.932 144.596 99.7643 145.895Z" fill="#231F20"/>
<path d="M125.464 159.09C118.877 159.09 111.701 155.71 107.732 153.508C104.355 151.802 101.467 149.266 99.3381 146.139C98.9912 145.557 98.803 144.895 98.7924 144.218C98.7817 143.541 98.9488 142.874 99.2771 142.282C99.3875 142.142 99.5407 142.043 99.7131 141.999C99.8854 141.955 100.067 141.968 100.231 142.038C104.088 143.662 108.564 144.068 112.503 144.403C117.256 144.94 122.057 144.909 126.804 144.312C126.872 144.304 126.942 144.309 127.008 144.329C127.074 144.348 127.136 144.38 127.19 144.423C127.245 144.465 127.291 144.519 127.325 144.58C127.358 144.641 127.378 144.709 127.382 144.778L128.458 158.359C128.467 158.487 128.427 158.614 128.346 158.714C128.265 158.814 128.149 158.879 128.022 158.897C127.176 159.028 126.32 159.093 125.464 159.09V159.09ZM99.9775 143.073C99.8372 143.493 99.7837 143.938 99.8203 144.379C99.857 144.821 99.983 145.25 100.191 145.641V145.641C102.237 148.621 105.002 151.037 108.229 152.665C112.503 155.03 120.602 158.816 127.413 158.004L126.398 145.428C121.744 145.95 117.045 145.95 112.391 145.428C108.453 145.103 103.966 144.707 99.9775 143.073Z" fill="#231F20"/>
<path d="M112.665 148.057H114.898C119.966 148.035 124.82 146.007 128.396 142.416C131.972 138.824 133.98 133.962 133.98 128.894V98.5453C133.98 98.5453 127.322 100.464 113.68 100.464C100.038 100.464 93.38 98.5453 93.38 98.5453V128.894C93.3813 131.42 93.8819 133.921 94.853 136.254C95.8241 138.586 97.2466 140.704 99.0388 142.484C100.831 144.265 102.957 145.674 105.296 146.631C107.634 147.587 110.139 148.072 112.665 148.057Z" fill="white"/>
<path d="M133.98 98.5453V128.894C133.98 133.976 131.961 138.85 128.367 142.444C124.773 146.038 119.899 148.057 114.817 148.057H112.665C107.583 148.054 102.711 146.034 99.1175 142.441C95.5243 138.848 93.5044 133.975 93.5017 128.894V98.5453C93.5017 98.5453 100.17 100.464 113.802 100.464C127.433 100.464 134.102 98.5453 134.102 98.5453M134.102 97.5303C134.008 97.5154 133.912 97.5154 133.818 97.5303C133.757 97.5303 127.098 99.408 113.822 99.408C100.546 99.408 93.8976 97.5506 93.8367 97.5303C93.7391 97.516 93.6399 97.516 93.5423 97.5303C93.2731 97.5303 93.015 97.6372 92.8246 97.8275C92.6343 98.0179 92.5273 98.2761 92.5273 98.5453V128.894C92.5327 134.239 94.6537 139.366 98.4271 143.152C102.2 146.939 107.319 149.078 112.665 149.102H114.898C120.257 149.097 125.395 146.967 129.185 143.178C132.976 139.39 135.109 134.253 135.117 128.894V98.5453C135.117 98.2761 135.01 98.0179 134.819 97.8275C134.629 97.6372 134.371 97.5303 134.102 97.5303Z" fill="#231F20"/>
<path d="M71.6895 219.919C71.559 219.919 71.4331 219.87 71.3371 219.782C71.2411 219.693 71.1821 219.572 71.1719 219.442L67.0002 178.842C66.986 178.703 67.027 178.565 67.1145 178.456C67.202 178.348 67.3287 178.279 67.4671 178.263C67.6046 178.254 67.7404 178.297 67.8476 178.384C67.9548 178.47 68.0255 178.594 68.0457 178.73L72.2072 219.33C72.2142 219.398 72.2076 219.467 72.1879 219.533C72.1681 219.598 72.1356 219.659 72.0922 219.712C72.0488 219.765 71.9954 219.808 71.9349 219.84C71.8745 219.873 71.8084 219.892 71.7403 219.899L71.6895 219.919Z" fill="#231F20"/>
<path d="M155.031 219.919H154.97C154.902 219.913 154.836 219.893 154.776 219.861C154.715 219.829 154.662 219.785 154.618 219.732C154.575 219.679 154.542 219.618 154.523 219.553C154.503 219.487 154.496 219.419 154.503 219.351L158.675 178.751C158.717 178.642 158.793 178.55 158.893 178.489C158.993 178.428 159.11 178.402 159.226 178.415C159.342 178.427 159.45 178.478 159.534 178.559C159.618 178.64 159.673 178.747 159.69 178.862L155.518 219.462C155.502 219.583 155.445 219.694 155.356 219.777C155.267 219.861 155.153 219.911 155.031 219.919V219.919Z" fill="#231F20"/>
<path d="M320.649 111.771C320.649 129.137 363.675 197.163 293.244 197.163C222.813 197.163 265.839 129.158 265.839 111.771C265.839 94.3837 266.996 80.3057 293.244 80.3057C319.492 80.3057 320.649 94.3939 320.649 111.771Z" fill="white"/>
<path d="M293.213 197.66C275.573 197.66 263.494 193.316 257.323 184.739C246.919 170.275 254.816 146.687 260.581 129.462C263.088 121.992 265.25 115.536 265.25 111.75C265.25 93.0236 267.28 79.7779 293.213 79.7779C319.146 79.7779 321.176 93.0236 321.176 111.75C321.176 115.536 323.328 121.992 325.835 129.462C331.601 146.717 339.507 170.275 329.093 184.739C322.922 193.336 310.844 197.66 293.213 197.66ZM293.213 80.8233C268.163 80.8233 266.295 93.0642 266.295 111.75C266.295 115.709 264.113 122.235 261.576 129.797C255.882 146.798 248.076 170.093 258.175 184.12C264.144 192.412 275.928 196.615 293.213 196.615C310.499 196.615 322.283 192.412 328.241 184.12C338.34 170.093 330.535 146.798 324.841 129.797C322.313 122.235 320.121 115.709 320.121 111.75C320.121 93.115 318.253 80.8436 293.213 80.8436V80.8233Z" fill="#231F20"/>
<path d="M365.897 215.625C346.768 220.115 327.309 223.058 307.707 224.426C302.734 224.73 297.679 224.913 292.645 224.913C287.61 224.913 282.556 224.73 277.592 224.426C257.988 223.058 238.525 220.115 219.392 215.625C219.392 215.625 218.651 191.073 234.272 174.345C249.893 157.618 276.648 156.126 292.645 156.126C308.641 156.126 335.417 157.618 351.028 174.345C366.638 191.073 365.897 215.625 365.897 215.625Z" fill="#68E1FD"/>
<path d="M307.707 164.287V224.426C302.734 224.73 297.679 224.913 292.645 224.913C287.61 224.913 282.556 224.73 277.592 224.426V164.287H307.707Z" fill="#231F20"/>
<path d="M250.979 219.919C250.849 219.919 250.723 219.87 250.627 219.782C250.531 219.693 250.472 219.572 250.461 219.442L246.29 178.842C246.276 178.703 246.317 178.565 246.404 178.456C246.492 178.348 246.618 178.279 246.757 178.263C246.894 178.254 247.03 178.297 247.137 178.384C247.244 178.47 247.315 178.594 247.335 178.73L251.497 219.33C251.505 219.399 251.5 219.468 251.48 219.534C251.461 219.6 251.429 219.661 251.385 219.715C251.342 219.768 251.288 219.812 251.226 219.843C251.165 219.875 251.098 219.894 251.03 219.899L250.979 219.919Z" fill="#231F20"/>
<path d="M334.321 219.919H334.26C334.192 219.913 334.126 219.893 334.065 219.861C334.005 219.829 333.951 219.785 333.908 219.732C333.864 219.679 333.832 219.618 333.812 219.553C333.792 219.487 333.786 219.419 333.793 219.351L337.965 178.751C337.982 178.613 338.052 178.488 338.16 178.401C338.268 178.314 338.405 178.272 338.543 178.284C338.682 178.299 338.808 178.368 338.896 178.477C338.983 178.585 339.024 178.724 339.01 178.862L334.838 219.462C334.821 219.588 334.76 219.703 334.665 219.787C334.57 219.871 334.447 219.918 334.321 219.919V219.919Z" fill="#231F20"/>
<path d="M310.529 122.55C311.869 114.176 325.754 112.116 325.084 121.992C324.982 125.421 323.669 128.704 321.379 131.259C319.004 133.685 315.158 134.832 312.052 133.441" fill="white"/>
<path d="M314.954 134.578C313.882 134.586 312.82 134.368 311.838 133.938C311.768 133.915 311.703 133.877 311.648 133.827C311.593 133.777 311.55 133.716 311.52 133.648C311.49 133.58 311.475 133.507 311.476 133.432C311.477 133.358 311.493 133.285 311.524 133.218C311.555 133.15 311.599 133.09 311.655 133.041C311.711 132.992 311.776 132.955 311.847 132.933C311.918 132.911 311.993 132.904 312.067 132.913C312.14 132.922 312.211 132.946 312.275 132.984C315.005 134.212 318.598 133.36 321.004 130.954C323.612 128.295 324.384 124.621 324.567 122.012C324.901 117.11 321.572 116.186 320.121 116.024C316.386 115.607 311.767 118.236 311.047 122.702C311.001 122.813 310.919 122.905 310.814 122.963C310.71 123.021 310.588 123.042 310.47 123.021C310.352 123.001 310.245 122.942 310.165 122.852C310.085 122.763 310.038 122.649 310.032 122.53C310.844 117.455 316.071 114.501 320.263 114.978C323.074 115.303 325.957 117.343 325.632 122.083C325.439 124.874 324.617 128.802 321.775 131.685C319.974 133.514 317.521 134.555 314.954 134.578V134.578Z" fill="#231F20"/>
<path d="M275.887 122.55C274.547 114.176 260.662 112.116 261.332 121.992C261.439 125.42 262.751 128.701 265.037 131.259C267.422 133.685 271.259 134.832 274.365 133.441" fill="white"/>
<path d="M271.462 134.578C268.896 134.536 266.452 133.482 264.661 131.644C261.829 128.762 261.007 124.834 260.814 122.043C260.479 117.302 263.362 115.262 266.174 114.938C270.366 114.46 275.603 117.445 276.405 122.489C276.418 122.557 276.417 122.628 276.401 122.695C276.386 122.763 276.357 122.827 276.316 122.883C276.275 122.939 276.223 122.986 276.164 123.022C276.104 123.057 276.037 123.079 275.968 123.088C275.833 123.109 275.694 123.076 275.582 122.996C275.471 122.917 275.394 122.797 275.369 122.662C274.659 118.196 270 115.557 266.295 115.983C264.844 116.145 261.515 117.069 261.86 121.971C261.959 125.277 263.216 128.442 265.412 130.914C266.502 132.082 267.916 132.9 269.472 133.261C271.029 133.623 272.658 133.512 274.151 132.944C274.278 132.887 274.422 132.883 274.551 132.933C274.681 132.982 274.785 133.081 274.842 133.208C274.898 133.334 274.902 133.478 274.853 133.607C274.803 133.737 274.704 133.841 274.578 133.898C273.599 134.343 272.537 134.575 271.462 134.578V134.578Z" fill="#231F20"/>
<path d="M277.745 164.429C277.745 164.429 281.5 172.62 292.482 172.62C301.232 172.62 307.9 164.429 307.9 164.429L306.439 132.243H279.206L277.745 164.429Z" fill="white"/>
<path d="M292.482 173.138C281.317 173.138 277.257 164.723 277.257 164.642C277.22 164.566 277.203 164.483 277.207 164.398L278.678 132.213C278.686 132.08 278.744 131.955 278.84 131.863C278.936 131.77 279.063 131.718 279.196 131.715H306.428C306.562 131.718 306.689 131.77 306.785 131.863C306.881 131.955 306.938 132.08 306.946 132.213L308.418 164.398C308.42 164.527 308.376 164.653 308.296 164.754C308.032 165.099 301.384 173.138 292.482 173.138ZM278.272 164.317C278.77 165.332 282.546 172.092 292.482 172.092C300.237 172.092 306.418 165.342 307.372 164.246L305.931 132.781H279.704L278.272 164.317Z" fill="#231F20"/>
<path d="M279.206 146.017C281.31 149.064 284.139 151.541 287.438 153.223C292.828 156.207 300.897 159.567 307.443 158.562L306.368 144.961C301.573 145.556 296.726 145.587 291.924 145.053C287.692 144.677 283.337 144.271 279.46 142.637C278.8 142.342 278.374 144.697 279.206 146.017Z" fill="#231F20"/>
<path d="M304.947 159.252C298.359 159.252 291.163 155.872 287.194 153.67C283.809 151.959 280.914 149.416 278.78 146.281C278.433 145.699 278.245 145.037 278.234 144.36C278.223 143.683 278.391 143.016 278.719 142.424C278.829 142.284 278.983 142.185 279.155 142.141C279.327 142.097 279.509 142.111 279.673 142.18C283.54 143.814 288.016 144.21 291.965 144.545C296.728 145.087 301.54 145.056 306.297 144.454C306.435 144.44 306.573 144.48 306.682 144.565C306.735 144.609 306.779 144.663 306.81 144.724C306.841 144.785 306.86 144.852 306.865 144.921L307.941 158.522C307.953 158.65 307.915 158.778 307.836 158.88C307.757 158.982 307.642 159.05 307.515 159.07C306.664 159.192 305.806 159.253 304.947 159.252ZM279.419 143.175C279.279 143.595 279.225 144.039 279.262 144.481C279.299 144.922 279.425 145.351 279.632 145.743V145.743C281.686 148.723 284.453 151.141 287.681 152.777C291.965 155.142 300.085 158.938 306.895 158.116L305.88 145.519C301.219 146.042 296.514 146.042 291.853 145.519C287.905 145.205 283.408 144.809 279.419 143.175Z" fill="#231F20"/>
<path d="M313.523 106.889V128.975C313.523 134.061 311.504 138.939 307.908 142.536C304.313 146.133 299.436 148.156 294.35 148.158H292.117C289.596 148.16 287.1 147.665 284.771 146.701C282.442 145.738 280.325 144.325 278.542 142.544C276.759 140.763 275.344 138.647 274.378 136.319C273.412 133.991 272.915 131.496 272.913 128.975V108.025L284.992 107.01L286.382 97.4288L289.427 108.269L297.994 107.132C298.877 103.306 297.994 95.0334 297.872 94.6578L304.013 106.31L313.523 106.889Z" fill="white"/>
<path d="M294.35 148.686H292.117C286.888 148.684 281.874 146.607 278.175 142.911C274.476 139.216 272.393 134.204 272.385 128.975V108.025C272.385 107.893 272.436 107.766 272.526 107.67C272.617 107.573 272.741 107.515 272.873 107.508L284.535 106.493L285.865 97.3577C285.881 97.2398 285.937 97.131 286.024 97.0496C286.111 96.9683 286.223 96.9194 286.342 96.9111C286.463 96.8958 286.586 96.9271 286.686 96.9986C286.786 97.0701 286.855 97.1766 286.88 97.2968L289.793 107.701L297.537 106.686C298.258 102.839 297.425 95.1856 297.344 94.7898C297.32 94.7231 297.31 94.6524 297.313 94.5816C297.316 94.5109 297.334 94.4415 297.364 94.3774C297.394 94.3133 297.436 94.2558 297.489 94.2081C297.541 94.1604 297.602 94.1235 297.669 94.0996C297.736 94.0756 297.806 94.0649 297.877 94.0683C297.948 94.0716 298.017 94.0888 298.081 94.119C298.145 94.1492 298.203 94.1917 298.251 94.244C298.298 94.2964 298.335 94.3577 298.359 94.4244L304.398 105.772L313.615 106.381C313.747 106.389 313.871 106.447 313.961 106.543C314.052 106.639 314.102 106.767 314.102 106.899V128.985C314.094 134.216 312.009 139.231 308.305 142.925C304.601 146.619 299.581 148.692 294.35 148.686ZM273.441 108.513V128.975C273.446 133.926 275.416 138.672 278.918 142.171C282.419 145.671 287.166 147.638 292.117 147.641H294.35C299.299 147.635 304.043 145.667 307.543 142.168C311.042 138.668 313.01 133.924 313.016 128.975V107.386L303.992 106.787C303.904 106.78 303.819 106.751 303.745 106.703C303.671 106.656 303.609 106.59 303.566 106.513L298.643 97.2562C298.877 100.159 299.08 104.676 298.491 107.264C298.468 107.369 298.412 107.464 298.332 107.535C298.252 107.606 298.151 107.65 298.045 107.66L289.478 108.797C289.353 108.814 289.225 108.786 289.119 108.717C289.013 108.648 288.935 108.543 288.899 108.421L286.545 99.9663L285.53 107.071C285.514 107.189 285.457 107.298 285.37 107.379C285.284 107.461 285.171 107.51 285.053 107.518L273.441 108.513Z" fill="#231F20"/>
<path d="M276.791 180.466C257.049 159.313 223.229 157.436 203 157.436C182.771 157.436 148.951 159.313 129.21 180.466C109.468 201.618 110.412 232.637 110.412 232.637C110.412 232.637 157.416 244.35 203 244.35C248.584 244.35 295.588 232.606 295.588 232.606C295.588 232.606 296.522 201.618 276.791 180.466Z" fill="#68E1FD"/>
<path d="M222.031 167.748L208.552 214.326L203 233.52L197.438 214.296L183.969 167.748C193.094 165.038 212.906 165.038 222.031 167.748Z" fill="#231F20"/>
<path d="M203.487 140.993C222.608 140.993 238.109 123.224 238.109 101.306C238.109 79.3878 222.608 61.6196 203.487 61.6196C184.366 61.6196 168.865 79.3878 168.865 101.306C168.865 123.224 184.366 140.993 203.487 140.993Z" fill="white"/>
<path d="M203.487 141.51C184.111 141.51 168.338 123.474 168.338 101.306C168.338 77.758 170.865 61.0918 203.487 61.0918C236.109 61.0918 238.637 77.758 238.637 101.306C238.637 123.474 222.874 141.51 203.487 141.51ZM203.487 62.1372C171.758 62.1372 169.383 77.6464 169.383 101.306C169.383 122.895 184.689 140.465 203.487 140.465C222.285 140.465 237.591 122.895 237.591 101.306C237.591 77.6464 235.216 62.1372 203.487 62.1372V62.1372Z" fill="#231F20"/>
<path d="M225.33 114.938C227.015 104.371 244.564 101.743 243.691 114.227C243.397 118.5 242.027 122.865 239.022 125.92C236.018 128.975 231.166 130.426 227.248 128.681" fill="white"/>
<path d="M230.933 129.96C229.598 129.967 228.277 129.694 227.056 129.158C226.929 129.098 226.831 128.992 226.782 128.861C226.733 128.73 226.736 128.585 226.792 128.457C226.849 128.332 226.954 128.234 227.083 128.184C227.212 128.135 227.355 128.138 227.482 128.193C230.994 129.777 235.602 128.681 238.647 125.554C241.966 122.174 242.94 117.505 243.174 114.186C243.478 109.812 241.337 106.929 237.449 106.483C232.689 105.934 226.761 109.314 225.848 115.019C225.823 115.156 225.745 115.279 225.632 115.36C225.518 115.442 225.377 115.476 225.239 115.455C225.171 115.445 225.105 115.422 225.047 115.386C224.988 115.35 224.937 115.303 224.897 115.247C224.857 115.191 224.829 115.128 224.815 115.06C224.8 114.993 224.799 114.924 224.812 114.856C225.827 108.563 232.364 104.859 237.561 105.447C241.052 105.843 244.666 108.37 244.219 114.257C243.976 117.759 242.94 122.682 239.398 126.285C237.172 128.579 234.129 129.9 230.933 129.96V129.96Z" fill="#231F20"/>
<path d="M181.685 114.938C179.99 104.371 162.451 101.743 163.314 114.227C163.618 118.5 164.988 122.865 167.993 125.92C170.997 128.975 175.849 130.426 179.757 128.681" fill="white"/>
<path d="M176.042 129.96C172.841 129.906 169.793 128.585 167.566 126.285C164.024 122.682 162.989 117.759 162.745 114.257C162.329 108.37 165.912 105.843 169.393 105.447C174.61 104.859 181.137 108.563 182.152 114.856C182.182 114.93 182.195 115.009 182.19 115.089C182.185 115.168 182.162 115.245 182.124 115.315C182.085 115.384 182.03 115.444 181.965 115.489C181.9 115.535 181.825 115.565 181.747 115.577C181.668 115.59 181.588 115.584 181.512 115.562C181.436 115.539 181.366 115.499 181.307 115.445C181.248 115.392 181.203 115.325 181.173 115.251C181.144 115.178 181.131 115.098 181.137 115.019C180.223 109.314 174.296 105.884 169.535 106.483C165.638 106.929 163.506 109.812 163.811 114.186C164.034 117.505 165.009 122.174 168.338 125.554C171.383 128.681 176.011 129.767 179.503 128.193C179.565 128.165 179.633 128.149 179.702 128.147C179.77 128.144 179.839 128.156 179.903 128.18C179.968 128.205 180.026 128.242 180.076 128.29C180.126 128.337 180.165 128.394 180.193 128.457C180.222 128.521 180.238 128.589 180.24 128.658C180.243 128.728 180.231 128.797 180.207 128.862C180.182 128.927 180.145 128.987 180.097 129.038C180.05 129.088 179.993 129.129 179.929 129.158C178.704 129.695 177.379 129.969 176.042 129.96V129.96Z" fill="#231F20"/>
<path d="M183.969 167.748C183.969 167.748 188.719 178.091 202.564 178.091C216.408 178.091 222.031 167.748 222.031 167.748L220.184 127.148H185.816L183.969 167.748Z" fill="white"/>
<path d="M202.564 178.619C188.546 178.619 183.542 168.073 183.492 167.971C183.472 167.891 183.472 167.808 183.492 167.728L185.339 127.128C185.344 126.994 185.401 126.867 185.498 126.775C185.594 126.682 185.723 126.63 185.857 126.63H220.225C220.358 126.63 220.487 126.682 220.584 126.775C220.68 126.867 220.737 126.994 220.742 127.128L222.59 167.728C222.6 167.823 222.579 167.92 222.529 168.002C220.392 171.336 217.433 174.064 213.936 175.924C210.439 177.783 206.523 178.711 202.564 178.619V178.619ZM184.497 167.636C185.055 168.722 189.988 177.563 202.564 177.563C206.305 177.646 210.006 176.777 213.319 175.037C216.632 173.297 219.448 170.743 221.503 167.616L219.676 127.625H186.324L184.497 167.636Z" fill="#231F20"/>
<path d="M185.816 144.525C188.201 148.361 192.16 151.376 196.2 153.66C203.01 157.425 213.191 161.658 221.443 160.399L220.093 143.226C214.028 143.982 207.896 144.022 201.823 143.347C196.494 142.88 190.993 142.332 186.1 140.302C185.298 139.886 184.73 142.85 185.816 144.525Z" fill="#231F20"/>
<path d="M218.296 161.12C210.014 161.12 200.96 156.857 195.966 154.096C190.972 151.335 187.552 148.27 185.4 144.819C184.497 143.388 184.588 140.952 185.319 140.099C185.435 139.95 185.598 139.843 185.781 139.795C185.965 139.748 186.159 139.762 186.334 139.835C191.236 141.865 196.89 142.393 201.894 142.83C207.913 143.509 213.991 143.472 220.001 142.718C220.138 142.7 220.277 142.737 220.387 142.82C220.49 142.911 220.556 143.038 220.57 143.175L221.93 160.349C221.941 160.476 221.904 160.603 221.824 160.703C221.745 160.803 221.63 160.869 221.503 160.887C220.442 161.045 219.37 161.123 218.296 161.12V161.12ZM186.039 140.82C185.812 141.379 185.713 141.981 185.748 142.584C185.783 143.186 185.952 143.773 186.242 144.301C188.272 147.61 191.733 150.615 196.453 153.233C201.904 156.278 212.236 161.069 220.905 159.973L219.626 143.814C213.71 144.486 207.738 144.486 201.823 143.814C196.778 143.368 191.074 142.85 186.039 140.82Z" fill="#231F20"/>
<path d="M202.076 147.235H204.898C211.324 147.235 217.486 144.682 222.03 140.139C226.573 135.595 229.126 129.432 229.126 123.007V84.66C229.126 84.66 220.702 87.0859 203.487 87.0859C186.273 87.0859 177.858 84.66 177.858 84.66V123.007C177.858 129.431 180.41 135.592 184.951 140.135C189.492 144.678 195.652 147.232 202.076 147.235Z" fill="white"/>
<path d="M229.126 84.6601V123.007C229.126 129.432 226.574 135.595 222.03 140.139C217.486 144.682 211.324 147.235 204.898 147.235H202.076C195.652 147.232 189.493 144.678 184.951 140.135C180.41 135.592 177.858 129.431 177.858 123.007V84.6601C177.858 84.6601 186.283 87.0859 203.487 87.0859C220.691 87.0859 229.126 84.6601 229.126 84.6601ZM177.858 83.6451C177.633 83.6457 177.413 83.7166 177.229 83.8481C177.097 83.9445 176.99 84.0715 176.918 84.2182C176.845 84.3649 176.809 84.5269 176.813 84.6905V123.037C176.818 129.737 179.481 136.16 184.218 140.899C188.954 145.637 195.377 148.303 202.076 148.311H204.898C211.599 148.303 218.022 145.637 222.76 140.899C227.498 136.161 230.163 129.738 230.172 123.037V84.6601C230.175 84.4965 230.139 84.3345 230.067 84.1878C229.994 84.0411 229.888 83.9141 229.755 83.8176C229.572 83.6862 229.352 83.6152 229.126 83.6146C229.029 83.6003 228.929 83.6003 228.832 83.6146C228.751 83.6146 220.316 85.9897 203.457 85.9897C186.598 85.9897 178.193 83.6349 178.082 83.6146C177.988 83.5998 177.892 83.5998 177.798 83.6146L177.858 83.6451Z" fill="#231F20"/>
<path d="M203 188.809L196.474 183.775L203 178.74L209.526 183.775L203 188.809Z" fill="white"/>
<path d="M208.552 214.326L203 233.52L197.448 214.296L200.798 186.079L200.869 185.49H205.132L205.192 186.099L208.552 214.326Z" fill="white"/>
<path d="M150.332 237.925C150.203 237.926 150.078 237.878 149.982 237.792C149.887 237.705 149.827 237.586 149.814 237.458L144.546 186.13C144.538 186.061 144.543 185.991 144.562 185.924C144.581 185.858 144.613 185.795 144.657 185.741C144.701 185.688 144.755 185.643 144.816 185.61C144.877 185.577 144.944 185.557 145.013 185.551C145.149 185.542 145.284 185.585 145.389 185.672C145.495 185.759 145.564 185.882 145.581 186.018L150.849 237.347C150.863 237.485 150.822 237.624 150.735 237.732C150.647 237.84 150.521 237.91 150.382 237.925H150.332Z" fill="#231F20"/>
<path d="M255.668 237.925C255.53 237.91 255.403 237.84 255.316 237.732C255.228 237.624 255.187 237.485 255.201 237.347L260.469 186.018C260.487 185.882 260.556 185.759 260.661 185.672C260.767 185.585 260.901 185.542 261.038 185.551C261.107 185.557 261.174 185.577 261.235 185.61C261.296 185.643 261.35 185.688 261.394 185.741C261.437 185.795 261.47 185.858 261.489 185.924C261.508 185.991 261.513 186.061 261.505 186.13L256.237 237.458C256.23 237.526 256.211 237.592 256.179 237.653C256.147 237.713 256.103 237.767 256.05 237.81C255.997 237.854 255.936 237.886 255.871 237.906C255.805 237.925 255.736 237.932 255.668 237.925V237.925Z" fill="#231F20"/>
<path d="M110.462 232.332C110.393 232.33 110.326 232.314 110.263 232.284C110.201 232.255 110.145 232.214 110.098 232.163C110.052 232.112 110.016 232.052 109.994 231.987C109.971 231.922 109.961 231.853 109.965 231.784C109.965 231.388 111.995 191.641 133.574 175.624C153.174 161.049 183.634 157.72 183.938 157.689C184.053 157.708 184.159 157.764 184.238 157.849C184.318 157.933 184.367 158.042 184.379 158.158C184.391 158.274 184.364 158.39 184.302 158.489C184.241 158.588 184.149 158.663 184.04 158.704C183.745 158.704 153.59 162.034 134.193 176.436C113.061 192.159 111.021 231.409 111.01 231.805C111.011 231.876 110.996 231.946 110.968 232.011C110.941 232.077 110.9 232.136 110.849 232.185C110.798 232.234 110.737 232.273 110.671 232.298C110.604 232.324 110.533 232.335 110.462 232.332V232.332Z" fill="#231F20"/>
<path d="M295.598 232.332C295.464 232.333 295.334 232.281 295.236 232.189C295.137 232.096 295.078 231.97 295.071 231.835C295.071 231.439 293.041 192.189 271.878 176.467C252.512 162.064 222.336 158.765 222.031 158.735C221.951 158.747 221.87 158.74 221.793 158.715C221.716 158.691 221.646 158.649 221.588 158.593C221.53 158.537 221.485 158.468 221.458 158.392C221.43 158.316 221.421 158.235 221.429 158.155C221.438 158.075 221.465 157.998 221.509 157.929C221.552 157.861 221.61 157.804 221.679 157.762C221.748 157.72 221.826 157.694 221.906 157.687C221.987 157.68 222.068 157.691 222.143 157.72C222.447 157.72 252.908 161.079 272.507 175.655C294.045 191.672 296.096 231.419 296.116 231.815C296.119 231.952 296.069 232.086 295.977 232.188C295.884 232.29 295.756 232.352 295.619 232.363L295.598 232.332Z" fill="#231F20"/>
<path d="M336.369 86.0833H339.994V76.0542H350.083V72.4292H339.994V61.9167H336.369V72.4292H325.917V76.0542H336.369V86.0833ZM338 98.1667C334.697 98.1667 331.576 97.5323 328.635 96.2635C325.695 94.9948 323.127 93.2628 320.932 91.0677C318.737 88.8726 317.005 86.3049 315.736 83.3646C314.468 80.4243 313.833 77.2826 313.833 73.9396C313.833 70.6368 314.468 67.5153 315.736 64.575C317.005 61.6347 318.737 59.0771 320.932 56.9021C323.127 54.7271 325.695 53.0052 328.635 51.7365C331.576 50.4677 334.717 49.8333 338.06 49.8333C341.363 49.8333 344.485 50.4677 347.425 51.7365C350.365 53.0052 352.923 54.7271 355.098 56.9021C357.273 59.0771 358.995 61.6347 360.264 64.575C361.532 67.5153 362.167 70.6569 362.167 74C362.167 77.3028 361.532 80.4243 360.264 83.3646C358.995 86.3049 357.273 88.8726 355.098 91.0677C352.923 93.2628 350.365 94.9948 347.425 96.2635C344.485 97.5323 341.343 98.1667 338 98.1667Z" fill="#007580"/>
</svg>
