<svg width="185" height="167" viewBox="0 0 185 167" fill="none" xmlns="http://www.w3.org/2000/svg">
<path d="M76.0132 167C109.288 167 136.263 164.103 136.263 160.529C136.263 156.955 109.288 154.058 76.0132 154.058C42.738 154.058 15.7632 156.955 15.7632 160.529C15.7632 164.103 42.738 167 76.0132 167Z" fill="#D1D3D4"/>
<path d="M57.1195 118.849L50.8594 36.315L118.862 33.5093L124.116 119.287L57.1195 118.849Z" fill="#68E1FD"/>
<path d="M150.925 141.246H44.0807C42.4642 141.244 40.8731 140.844 39.4473 140.082C38.0215 139.321 36.8049 138.22 35.9045 136.877C35.0042 135.535 34.4477 133.992 34.2841 132.383C34.1204 130.775 34.3547 129.151 34.9662 127.655L38.6315 118.816L23.5 26.4545L0.892078 20.8107C0.788689 20.7842 0.691542 20.7376 0.606203 20.6735C0.520864 20.6094 0.449021 20.5291 0.394779 20.4372C0.340538 20.3453 0.304964 20.2436 0.290113 20.1379C0.275262 20.0322 0.281429 19.9246 0.30824 19.8213C0.330791 19.7174 0.374385 19.6193 0.436342 19.5328C0.498298 19.4464 0.577303 19.3736 0.668479 19.3189C0.759654 19.2642 0.861065 19.2288 0.966467 19.2148C1.07187 19.2008 1.17902 19.2085 1.28132 19.2375L24.4245 25.0111C24.5787 25.0508 24.7179 25.135 24.8246 25.2532C24.9313 25.3715 25.0009 25.5185 25.0245 25.6761L40.2695 118.719C40.3025 118.869 40.3025 119.023 40.2695 119.173L36.5231 128.223C36.0131 129.472 35.8177 130.828 35.9543 132.17C36.0908 133.513 36.5551 134.801 37.3062 135.922C38.0574 137.044 39.0724 137.963 40.2622 138.6C41.4519 139.237 42.7799 139.572 44.1294 139.575H150.974C151.189 139.575 151.395 139.661 151.547 139.813C151.699 139.965 151.785 140.171 151.785 140.386C151.785 140.601 151.699 140.808 151.547 140.96C151.395 141.112 151.189 141.197 150.974 141.197L150.925 141.246Z" fill="#231F20"/>
<path d="M129.663 162.297C134.213 162.297 137.902 158.608 137.902 154.058C137.902 149.508 134.213 145.819 129.663 145.819C125.113 145.819 121.424 149.508 121.424 154.058C121.424 158.608 125.113 162.297 129.663 162.297Z" fill="#231F20"/>
<path d="M50.8594 162.297C55.4095 162.297 59.0981 158.608 59.0981 154.058C59.0981 149.508 55.4095 145.819 50.8594 145.819C46.3092 145.819 42.6206 149.508 42.6206 154.058C42.6206 158.608 46.3092 162.297 50.8594 162.297Z" fill="#231F20"/>
<path d="M146.108 120.097L46.302 119.546C46.1013 119.543 45.9083 119.468 45.7591 119.334C45.6099 119.199 45.5147 119.016 45.4911 118.816L37.7551 51.4302C37.74 51.3157 37.7511 51.1993 37.7876 51.0897C37.8242 50.9801 37.8851 50.8803 37.9659 50.7977C38.0372 50.7078 38.1287 50.636 38.233 50.5881C38.3372 50.5402 38.4513 50.5176 38.566 50.522L168.602 52.6304C168.73 52.6313 168.857 52.6627 168.97 52.7219C169.084 52.7811 169.182 52.8664 169.257 52.9709C169.331 53.0753 169.38 53.196 169.398 53.3229C169.417 53.4497 169.405 53.5793 169.364 53.7008L146.87 119.546C146.816 119.706 146.714 119.845 146.577 119.944C146.44 120.042 146.276 120.096 146.108 120.097ZM47.0318 117.924L145.524 118.524L167.499 54.2846L39.5066 52.2087L47.0318 117.924Z" fill="#231F20"/>
<path d="M63.8174 119.546C63.6116 119.543 63.4145 119.463 63.2646 119.322C63.1146 119.181 63.0226 118.989 63.0065 118.784L59.7629 51.7385C59.754 51.5217 59.8307 51.3102 59.9763 51.1494C60.1219 50.9886 60.3248 50.8915 60.5414 50.8789C60.6479 50.8746 60.7542 50.8913 60.8542 50.928C60.9543 50.9648 61.0461 51.021 61.1244 51.0933C61.2028 51.1656 61.2661 51.2526 61.3107 51.3494C61.3554 51.4462 61.3805 51.5509 61.3847 51.6574L64.6283 118.703C64.6372 118.915 64.5623 119.123 64.4197 119.28C64.2771 119.438 64.0783 119.533 63.8661 119.546H63.8174Z" fill="#231F20"/>
<path d="M84.788 119.724C84.5729 119.724 84.3666 119.639 84.2146 119.487C84.0625 119.335 83.9771 119.129 83.9771 118.914V52.1277C83.9812 51.9139 84.068 51.7101 84.2191 51.5589C84.3703 51.4077 84.5742 51.3209 84.788 51.3168C85.003 51.3168 85.2093 51.4022 85.3613 51.5543C85.5134 51.7064 85.5989 51.9126 85.5989 52.1277V118.914C85.5989 119.129 85.5134 119.335 85.3613 119.487C85.2093 119.639 85.003 119.724 84.788 119.724Z" fill="#231F20"/>
<path d="M108.953 119.66C108.846 119.655 108.742 119.63 108.645 119.586C108.548 119.541 108.461 119.478 108.389 119.399C108.317 119.321 108.26 119.229 108.224 119.129C108.187 119.029 108.17 118.923 108.175 118.816L111.564 52.5332C111.57 52.4266 111.597 52.3224 111.644 52.2263C111.691 52.1303 111.756 52.0444 111.836 51.9736C111.915 51.9028 112.008 51.8484 112.109 51.8136C112.21 51.7789 112.317 51.7644 112.424 51.7709C112.529 51.7751 112.633 51.8003 112.729 51.8451C112.825 51.89 112.911 51.9536 112.982 52.0322C113.053 52.1107 113.108 52.2027 113.143 52.3027C113.178 52.4026 113.192 52.5086 113.186 52.6143L109.764 118.897C109.755 119.105 109.666 119.302 109.514 119.444C109.362 119.587 109.161 119.664 108.953 119.66Z" fill="#231F20"/>
<path d="M129.662 119.724H129.565C129.351 119.696 129.157 119.585 129.023 119.415C128.89 119.246 128.828 119.031 128.851 118.816L137.09 52.8898C137.103 52.7834 137.137 52.6804 137.189 52.5869C137.242 52.4934 137.312 52.4112 137.396 52.3449C137.481 52.2787 137.577 52.2297 137.681 52.2007C137.784 52.1718 137.892 52.1635 137.998 52.1762C138.105 52.189 138.208 52.2226 138.301 52.2752C138.395 52.3278 138.477 52.3982 138.543 52.4826C138.61 52.5669 138.659 52.6635 138.687 52.7667C138.716 52.87 138.725 52.978 138.712 53.0844L130.473 119.011C130.446 119.207 130.349 119.387 130.2 119.518C130.051 119.649 129.861 119.722 129.662 119.724Z" fill="#231F20"/>
<path d="M104.93 40.5479C104.824 40.5438 104.719 40.5186 104.622 40.474C104.526 40.4293 104.439 40.366 104.366 40.2877C104.294 40.2093 104.238 40.1175 104.201 40.0175C104.164 39.9174 104.148 39.8111 104.152 39.7046C104.152 39.5262 104.606 20.5511 99.7407 8.48487C99.0281 6.75536 97.8715 5.24467 96.3878 4.10556C94.9041 2.96644 93.1459 2.2393 91.2911 1.99765C83.5388 0.489377 72.9971 4.33306 68.7318 8.74436C62.5527 15.2316 67.8398 37.7422 67.8884 37.9368C67.9149 38.0402 67.9202 38.1478 67.9041 38.2533C67.888 38.3588 67.8509 38.4599 67.7949 38.5507C67.7389 38.6415 67.6652 38.7201 67.5782 38.7818C67.4911 38.8435 67.3926 38.8871 67.2884 38.9099C67.0798 38.9587 66.8604 38.923 66.6781 38.8105C66.4958 38.6981 66.3653 38.5181 66.3153 38.3098C66.0882 37.353 60.7687 14.6639 67.5641 7.59288C72.1213 2.85722 83.1009 -1.26216 91.5992 0.359642C93.7188 0.660208 95.723 1.50982 97.4129 2.82417C99.1028 4.13853 100.42 5.87193 101.233 7.85237C106.244 20.2267 105.79 38.9261 105.774 39.7208C105.774 39.8308 105.752 39.9397 105.709 40.0411C105.667 40.1426 105.604 40.2345 105.526 40.3115C105.447 40.3885 105.354 40.4491 105.252 40.4897C105.15 40.5303 105.04 40.5501 104.93 40.5479Z" fill="#231F20"/>
<path d="M39.4732 119.66C39.3688 119.662 39.2651 119.643 39.1678 119.606C39.0706 119.568 38.9818 119.511 38.9065 119.438C38.8312 119.366 38.7708 119.28 38.729 119.184C38.6871 119.089 38.6644 118.986 38.6623 118.881C38.6579 118.775 38.6746 118.668 38.7114 118.568C38.7482 118.468 38.8044 118.377 38.8767 118.298C38.949 118.22 39.036 118.157 39.1328 118.112C39.2296 118.067 39.3342 118.042 39.4408 118.038L46.2848 117.876C46.3905 117.871 46.496 117.888 46.5951 117.925C46.6942 117.962 46.785 118.019 46.862 118.091C46.939 118.164 47.0008 118.251 47.0437 118.347C47.0867 118.444 47.1098 118.548 47.1119 118.654C47.1162 118.762 47.099 118.87 47.0612 118.971C47.0234 119.072 46.9658 119.164 46.8918 119.243C46.8178 119.321 46.7288 119.384 46.6302 119.428C46.5315 119.472 46.4251 119.495 46.3172 119.498L39.4894 119.66H39.4732Z" fill="#231F20"/>
<path d="M156.796 73.2597C171.422 73.2597 183.28 61.4024 183.28 46.7756C183.28 32.1489 171.422 20.2916 156.796 20.2916C142.169 20.2916 130.312 32.1489 130.312 46.7756C130.312 61.4024 142.169 73.2597 156.796 73.2597Z" fill="white"/>
<path d="M156.797 74.1356C151.398 74.1356 146.121 72.5348 141.633 69.5356C137.144 66.5364 133.646 62.2735 131.58 57.286C129.514 52.2985 128.973 46.8104 130.026 41.5157C131.08 36.221 133.679 31.3575 137.496 27.5402C141.314 23.723 146.177 21.1234 151.472 20.0702C156.767 19.017 162.255 19.5575 167.242 21.6234C172.23 23.6893 176.493 27.1878 179.492 31.6764C182.491 36.1651 184.092 41.4422 184.092 46.8407C184.083 54.0771 181.205 61.0147 176.088 66.1316C170.971 71.2486 164.033 74.1271 156.797 74.1356ZM156.797 21.1675C151.719 21.1675 146.756 22.6732 142.534 25.4942C138.312 28.3152 135.021 32.3248 133.078 37.016C131.135 41.7071 130.626 46.8692 131.617 51.8493C132.608 56.8294 135.053 61.4039 138.643 64.9943C142.234 68.5848 146.808 71.0299 151.788 72.0205C156.768 73.0111 161.93 72.5027 166.622 70.5596C171.313 68.6164 175.322 65.3259 178.143 61.1039C180.964 56.882 182.47 51.9184 182.47 46.8407C182.474 43.465 181.814 40.1215 180.526 37.0011C179.238 33.8807 177.348 31.0446 174.964 28.6546C172.58 26.2646 169.749 24.3675 166.632 23.0718C163.514 21.776 160.173 21.1069 156.797 21.1027V21.1675Z" fill="#231F20"/>
<path d="M173.144 38.6829C172.988 38.9471 172.809 39.1967 172.608 39.429L153.455 58.5338C152.79 59.1988 152.287 59.1988 151.638 58.5338L140.87 47.4082C140.732 47.3108 140.621 47.1819 140.543 47.0324C140.466 46.8829 140.426 46.717 140.426 46.5487C140.426 46.3804 140.466 46.2145 140.543 46.065C140.621 45.9154 140.732 45.7866 140.87 45.6891L143.578 43.2564C143.673 43.132 143.796 43.0311 143.937 42.9618C144.077 42.8924 144.232 42.8563 144.389 42.8563C144.546 42.8563 144.7 42.8924 144.841 42.9618C144.982 43.0311 145.104 43.132 145.2 43.2564L151.574 49.7436C151.67 49.8978 151.804 50.025 151.962 50.1131C152.121 50.2013 152.3 50.2476 152.482 50.2476C152.663 50.2476 152.842 50.2013 153.001 50.1131C153.16 50.025 153.294 49.8978 153.39 49.7436L168.262 34.9203C168.36 34.7732 168.492 34.6524 168.648 34.5689C168.803 34.4854 168.977 34.4416 169.154 34.4416C169.331 34.4416 169.504 34.4854 169.66 34.5689C169.816 34.6524 169.948 34.7732 170.046 34.9203C170.873 35.7637 171.668 36.5421 172.56 37.4504C172.746 37.6786 172.919 37.9168 173.079 38.164L173.144 38.6829Z" fill="#68E1FD"/>
</svg>
