<svg width="225" height="208" viewBox="0 0 225 208" fill="none" xmlns="http://www.w3.org/2000/svg">
<g clip-path="url(#clip0_1618_3224)">
<path d="M178.728 85.81C177.607 85.8113 176.516 85.4485 175.62 84.7761C174.723 84.1037 174.07 83.1582 173.757 82.0821L158.386 27.5554C157.462 24.0943 155.439 21.0264 152.623 18.8127C149.806 16.5989 146.347 15.3586 142.766 15.2782H62.5292C58.9402 15.3452 55.4704 16.578 52.6436 18.7905C49.8169 21.003 47.7867 24.0751 46.8596 27.543L31.538 82.0324C31.1174 83.292 30.2282 84.3415 29.0547 84.9631C27.8812 85.5848 26.5135 85.7311 25.2351 85.3715C23.9567 85.012 22.8658 84.1742 22.1884 83.032C21.511 81.8898 21.2992 80.5306 21.5969 79.2365L36.9185 24.7471C38.4631 19.1174 41.7969 14.143 46.4168 10.5744C51.0367 7.0058 56.692 5.03673 62.5292 4.96436H142.766C148.596 5.05022 154.24 7.02675 158.85 10.5966C163.459 14.1665 166.785 19.1367 168.327 24.7595L183.648 79.2489C184.015 80.5671 183.845 81.977 183.174 83.1697C182.503 84.3623 181.387 85.2403 180.07 85.6112C179.634 85.7394 179.182 85.8063 178.728 85.81Z" fill="white"/>
<path d="M178.728 87.0528C177.324 87.0598 175.956 86.6068 174.834 85.7631C173.712 84.9193 172.897 83.7312 172.514 82.3805L157.23 27.8911C156.381 24.6824 154.51 21.8373 151.9 19.786C149.291 17.7347 146.084 16.5886 142.766 16.521H62.5292C59.2106 16.5872 56.0036 17.731 53.3922 19.7798C50.7808 21.8286 48.9066 24.6712 48.0525 27.8787L32.7309 82.3805C32.2287 83.9673 31.1291 85.2965 29.6647 86.0874C28.2003 86.8783 26.4857 87.0688 24.8834 86.6186C23.2811 86.1684 21.9167 85.1128 21.0784 83.675C20.2402 82.2371 19.9939 80.5297 20.3915 78.9136L35.7256 24.4242C37.3373 18.5298 40.8251 13.3208 45.6613 9.58546C50.4975 5.85014 56.4188 3.79179 62.5292 3.72192H142.766C148.875 3.79585 154.795 5.85571 159.63 9.59042C164.465 13.3251 167.954 18.5318 169.569 24.4242L184.891 78.9136C185.123 79.7208 185.192 80.5662 185.094 81.4004C184.996 82.2346 184.733 83.0409 184.32 83.7722C183.758 84.7624 182.946 85.5869 181.964 86.1629C180.982 86.7388 179.866 87.0458 178.728 87.0528ZM62.5292 14.0358H142.766C146.627 14.1043 150.361 15.4279 153.403 17.8066C156.445 20.1852 158.631 23.4895 159.628 27.2201L174.95 81.7095C175.245 82.7039 175.917 83.5437 176.822 84.0498C177.728 84.5558 178.795 84.6881 179.796 84.4184C180.793 84.1318 181.637 83.4634 182.144 82.5583C182.652 81.6533 182.781 80.5847 182.505 79.5846L167.171 25.0952C165.706 19.7237 162.532 14.9751 158.129 11.5674C153.726 8.15974 148.333 6.27817 142.766 6.20719H62.5292C56.9608 6.27954 51.5672 8.16141 47.1624 11.5687C42.7576 14.976 39.5807 19.7237 38.1115 25.0952L22.7898 79.5846C22.6467 80.0784 22.6048 80.596 22.6667 81.1063C22.7287 81.6167 22.8931 82.1093 23.1502 82.5545C23.3983 83.0055 23.7338 83.4027 24.137 83.7227C24.5402 84.0427 25.0031 84.2792 25.4988 84.4184C26.4989 84.6978 27.5691 84.5697 28.475 84.062C29.3809 83.5543 30.0488 82.7085 30.3326 81.7095L45.6667 27.2201C46.6645 23.4895 48.8498 20.1852 51.892 17.8066C54.9342 15.4279 58.6681 14.1043 62.5292 14.0358Z" fill="#093F68"/>
<path d="M169.445 197.945H35.8499C33.2813 197.945 30.8008 197.008 28.8727 195.311C26.9445 193.614 25.7009 191.272 25.3746 188.725L12.9482 90.855H192.297L179.871 188.725C179.551 191.266 178.316 193.604 176.397 195.301C174.478 196.998 172.007 197.938 169.445 197.945Z" fill="#68E1FD"/>
<path d="M169.445 199.187H35.8373C32.9695 199.184 30.2012 198.136 28.0494 196.24C25.8975 194.345 24.5094 191.73 24.1441 188.886L11.7551 91.0785C11.7355 90.9042 11.7531 90.7277 11.8066 90.5606C11.8602 90.3936 11.9485 90.2397 12.0657 90.1093C12.1822 89.9767 12.3255 89.8705 12.4862 89.7976C12.6469 89.7248 12.8213 89.687 12.9977 89.6868H192.297C192.473 89.687 192.648 89.7248 192.809 89.7976C192.969 89.8705 193.113 89.9767 193.229 90.1093C193.344 90.2408 193.43 90.3951 193.481 90.5621C193.533 90.7291 193.548 90.9051 193.527 91.0785L181.101 188.961C180.722 191.786 179.333 194.379 177.19 196.259C175.047 198.139 172.296 199.18 169.445 199.187ZM14.4019 92.1472L26.6666 188.613C26.9508 190.859 28.0437 192.924 29.7409 194.422C31.4381 195.92 33.6231 196.749 35.887 196.752H169.445C171.71 196.749 173.897 195.921 175.596 194.423C177.295 192.925 178.391 190.86 178.678 188.613L190.88 92.1472H14.4019Z" fill="#093F68"/>
<path d="M193.627 78.0559H11.6681C5.91017 78.0559 1.24243 82.7236 1.24243 88.4816V89.3887C1.24243 95.1466 5.91017 99.8144 11.6681 99.8144H193.627C199.385 99.8144 204.052 95.1466 204.052 89.3887V88.4816C204.052 82.7236 199.385 78.0559 193.627 78.0559Z" fill="#68E1FD"/>
<path d="M193.614 101.02H11.6683C8.57355 101.013 5.60761 99.7799 3.42044 97.5904C1.23328 95.4009 0.00328182 92.4337 0 89.3389V88.4566C0.00328182 85.3618 1.23328 82.3946 3.42044 80.2051C5.60761 78.0156 8.57355 76.7825 11.6683 76.7759H193.614C196.711 76.7792 199.68 78.0109 201.87 80.2007C204.06 82.3906 205.292 85.3597 205.295 88.4566V89.3389C205.292 92.4358 204.06 95.4049 201.87 97.5948C199.68 99.7846 196.711 101.016 193.614 101.02ZM11.6683 79.2984C9.23268 79.305 6.89887 80.2763 5.17778 81.9997C3.45669 83.7231 2.48854 86.0583 2.48526 88.4939V89.3762C2.48854 91.8118 3.45669 94.1469 5.17778 95.8703C6.89887 97.5937 9.23268 98.5651 11.6683 98.5716H193.614C196.052 98.5683 198.389 97.5985 200.113 95.8747C201.837 94.1509 202.807 91.8139 202.81 89.3762V88.4939C202.807 86.0561 201.837 83.7191 200.113 81.9953C198.389 80.2716 196.052 79.3017 193.614 79.2984H11.6683Z" fill="#093F68"/>
<path d="M50.9978 107.606H50.9854C46.5382 107.606 42.9331 111.211 42.9331 115.658V175.404C42.9331 179.851 46.5382 183.456 50.9854 183.456H50.9978C55.4449 183.456 59.05 179.851 59.05 175.404V115.658C59.05 111.211 55.4449 107.606 50.9978 107.606Z" fill="#093F68"/>
<path d="M50.9975 184.699C48.5312 184.699 46.1657 183.72 44.4206 181.977C42.6755 180.234 41.6935 177.87 41.6902 175.404V115.67C41.6902 113.199 42.6721 110.828 44.4199 109.08C46.1677 107.332 48.5382 106.351 51.0099 106.351C53.4817 106.351 55.8522 107.332 57.6 109.08C59.3478 110.828 60.3297 113.199 60.3297 115.67V175.404C60.328 176.627 60.0853 177.838 59.6152 178.967C59.1452 180.097 58.4572 181.122 57.5904 181.986C56.7237 182.849 55.6953 183.533 54.564 183.998C53.4327 184.464 52.2208 184.702 50.9975 184.699ZM50.9975 108.898C50.1016 108.898 49.2145 109.074 48.3868 109.417C47.5591 109.76 46.8071 110.263 46.1736 110.896C45.5401 111.53 45.0376 112.282 44.6948 113.109C44.3519 113.937 44.1754 114.824 44.1754 115.72V175.453C44.1754 177.266 44.8955 179.004 46.1772 180.286C47.4589 181.568 49.1973 182.288 51.0099 182.288C52.8225 182.288 54.5609 181.568 55.8426 180.286C57.1243 179.004 57.8444 177.266 57.8444 175.453V115.67C57.8444 114.772 57.6671 113.883 57.3227 113.054C56.9783 112.225 56.4736 111.471 55.8375 110.838C55.2014 110.204 54.4464 109.702 53.6158 109.36C52.7853 109.019 51.8955 108.845 50.9975 108.848V108.898Z" fill="#093F68"/>
<path d="M85.4309 107.606H85.4185C80.9713 107.606 77.3662 111.211 77.3662 115.658V175.404C77.3662 179.851 80.9713 183.456 85.4185 183.456H85.4309C89.878 183.456 93.4831 179.851 93.4831 175.404V115.658C93.4831 111.211 89.878 107.606 85.4309 107.606Z" fill="#093F68"/>
<path d="M85.4311 184.699C82.9648 184.699 80.5993 183.72 78.8542 181.977C77.1091 180.234 76.1271 177.87 76.1238 175.404V115.67C76.1238 113.199 77.1057 110.828 78.8535 109.08C80.6013 107.332 82.9718 106.351 85.4435 106.351C87.9153 106.351 90.2858 107.332 92.0336 109.08C93.7814 110.828 94.7633 113.199 94.7633 115.67V175.404C94.7616 176.627 94.5189 177.838 94.0488 178.967C93.5788 180.097 92.8908 181.122 92.024 181.986C91.1573 182.849 90.1289 183.533 88.9976 183.998C87.8663 184.464 86.6544 184.702 85.4311 184.699ZM85.4311 108.898C84.5352 108.898 83.6481 109.074 82.8204 109.417C81.9927 109.76 81.2407 110.263 80.6072 110.896C79.9737 111.53 79.4712 112.282 79.1283 113.109C78.7855 113.937 78.609 114.824 78.609 115.72V175.453C78.609 177.266 79.3291 179.004 80.6108 180.286C81.8925 181.568 83.6309 182.288 85.4435 182.288C87.2561 182.288 88.9945 181.568 90.2762 180.286C91.5579 179.004 92.278 177.266 92.278 175.453V115.67C92.278 114.772 92.1007 113.883 91.7563 113.054C91.4119 112.225 90.9072 111.471 90.2711 110.838C89.635 110.204 88.88 109.702 88.0494 109.36C87.2188 109.019 86.3291 108.845 85.4311 108.848V108.898Z" fill="#093F68"/>
<path d="M119.876 107.606H119.864C115.417 107.606 111.812 111.211 111.812 115.658V175.404C111.812 179.851 115.417 183.456 119.864 183.456H119.876C124.324 183.456 127.929 179.851 127.929 175.404V115.658C127.929 111.211 124.324 107.606 119.876 107.606Z" fill="#093F68"/>
<path d="M119.864 184.699C117.399 184.699 115.035 183.719 113.292 181.976C111.549 180.233 110.569 177.869 110.569 175.404V115.67C110.569 113.199 111.551 110.828 113.299 109.08C115.047 107.332 117.417 106.351 119.889 106.351C122.361 106.351 124.731 107.332 126.479 109.08C128.227 110.828 129.209 113.199 129.209 115.67V175.404C129.207 176.628 128.964 177.84 128.493 178.97C128.022 180.1 127.333 181.127 126.465 181.99C125.597 182.854 124.567 183.537 123.435 184.002C122.302 184.467 121.089 184.703 119.864 184.699ZM119.864 108.898C118.057 108.901 116.325 109.621 115.048 110.9C113.772 112.18 113.055 113.913 113.055 115.72V175.453C113.055 177.266 113.775 179.004 115.056 180.286C116.338 181.568 118.076 182.288 119.889 182.288C121.702 182.288 123.44 181.568 124.722 180.286C126.003 179.004 126.724 177.266 126.724 175.453V115.67C126.724 114.771 126.546 113.881 126.201 113.051C125.856 112.221 125.35 111.467 124.712 110.833C124.075 110.199 123.318 109.697 122.486 109.357C121.654 109.016 120.763 108.843 119.864 108.848V108.898Z" fill="#093F68"/>
<path d="M154.31 107.606H154.298C149.85 107.606 146.245 111.211 146.245 115.658V175.404C146.245 179.851 149.85 183.456 154.298 183.456H154.31C158.757 183.456 162.362 179.851 162.362 175.404V115.658C162.362 111.211 158.757 107.606 154.31 107.606Z" fill="#093F68"/>
<path d="M154.298 184.699C151.832 184.699 149.468 183.719 147.725 181.976C145.982 180.233 145.003 177.869 145.003 175.404V115.67C145.003 113.199 145.985 110.828 147.732 109.08C149.48 107.332 151.851 106.351 154.322 106.351C156.794 106.351 159.165 107.332 160.912 109.08C162.66 110.828 163.642 113.199 163.642 115.67V175.404C163.642 176.628 163.4 177.841 162.93 178.972C162.46 180.103 161.771 181.13 160.902 181.994C160.034 182.858 159.003 183.541 157.87 184.005C156.736 184.469 155.522 184.705 154.298 184.699ZM154.298 108.898C152.49 108.901 150.758 109.621 149.482 110.9C148.205 112.18 147.488 113.913 147.488 115.72V175.453C147.488 177.266 148.208 179.004 149.49 180.286C150.771 181.568 152.51 182.288 154.322 182.288C156.135 182.288 157.873 181.568 159.155 180.286C160.437 179.004 161.157 177.266 161.157 175.453V115.67C161.157 114.771 160.979 113.881 160.634 113.051C160.289 112.221 159.783 111.467 159.146 110.833C158.508 110.199 157.752 109.697 156.92 109.357C156.088 109.016 155.197 108.843 154.298 108.848V108.898Z" fill="#093F68"/>
<path d="M126.798 1.24878H78.497C73.5489 1.24878 69.5376 5.26003 69.5376 10.2082V10.2206C69.5376 15.1687 73.5489 19.18 78.497 19.18H126.798C131.746 19.18 135.757 15.1687 135.757 10.2206V10.2082C135.757 5.26003 131.746 1.24878 126.798 1.24878Z" fill="#68E1FD"/>
<path d="M126.786 20.4227H78.4969C75.8512 20.3303 73.3446 19.2144 71.5055 17.3101C69.6665 15.4057 68.6387 12.8618 68.6387 10.2144C68.6387 7.56708 69.6665 5.02312 71.5055 3.11879C73.3446 1.21447 75.8512 0.0985368 78.4969 0.00621359H126.786C128.156 -0.0416109 129.522 0.187029 130.802 0.678506C132.083 1.16998 133.251 1.91424 134.237 2.86688C135.224 3.81952 136.008 4.96105 136.544 6.2234C137.08 7.48575 137.356 8.84307 137.356 10.2144C137.356 11.5858 137.08 12.9431 136.544 14.2055C136.008 15.4678 135.224 16.6093 134.237 17.562C133.251 18.5146 132.083 19.2589 130.802 19.7504C129.522 20.2418 128.156 20.4705 126.786 20.4227ZM78.4969 2.49148C76.5023 2.5715 74.6159 3.42017 73.2329 4.85975C71.8499 6.29933 71.0776 8.21818 71.0776 10.2144C71.0776 12.2107 71.8499 14.1295 73.2329 15.5691C74.6159 17.0087 76.5023 17.8574 78.4969 17.9374H126.786C127.826 17.9791 128.864 17.8103 129.837 17.441C130.811 17.0717 131.699 16.5095 132.45 15.7883C133.201 15.067 133.798 14.2015 134.206 13.2437C134.614 12.2859 134.825 11.2555 134.825 10.2144C134.825 9.17334 134.614 8.14297 134.206 7.18517C133.798 6.22737 133.201 5.36188 132.45 4.64062C131.699 3.91936 130.811 3.3572 129.837 2.9879C128.864 2.61859 127.826 2.44974 126.786 2.49148H78.4969Z" fill="#093F68"/>
<path d="M179.312 205.749C203.757 205.749 223.574 185.932 223.574 161.486C223.574 137.041 203.757 117.224 179.312 117.224C154.866 117.224 135.049 137.041 135.049 161.486C135.049 185.932 154.866 205.749 179.312 205.749Z" fill="white"/>
<path d="M179.312 207.004C170.309 207.006 161.507 204.339 154.02 199.339C146.533 194.339 140.697 187.231 137.25 178.914C133.803 170.597 132.9 161.444 134.655 152.614C136.41 143.783 140.744 135.672 147.109 129.305C153.474 122.938 161.585 118.601 170.415 116.844C179.245 115.087 188.397 115.987 196.715 119.432C205.033 122.877 212.143 128.711 217.145 136.197C222.147 143.682 224.817 152.483 224.817 161.486C224.804 173.552 220.006 185.12 211.475 193.653C202.944 202.186 191.378 206.987 179.312 207.004ZM179.312 118.466C170.8 118.464 162.478 120.986 155.4 125.713C148.321 130.441 142.804 137.161 139.545 145.025C136.286 152.889 135.433 161.542 137.093 169.891C138.753 178.239 142.852 185.908 148.871 191.927C154.89 197.946 162.559 202.045 170.907 203.705C179.256 205.365 187.909 204.511 195.773 201.253C203.636 197.994 210.357 192.477 215.085 185.398C219.812 178.32 222.334 169.998 222.332 161.486C222.332 150.072 217.801 139.125 209.734 131.049C201.668 122.973 190.726 118.43 179.312 118.417V118.466Z" fill="#093F68"/>
<path d="M167.47 185.071L149.849 165.637C149.199 164.919 148.86 163.974 148.906 163.007C148.953 162.04 149.381 161.131 150.098 160.48L154.994 156.031C155.711 155.381 156.657 155.042 157.623 155.088C158.59 155.135 159.499 155.563 160.15 156.28L170.763 167.96L199.989 140.784C200.698 140.126 201.639 139.776 202.606 139.811C203.573 139.846 204.486 140.263 205.146 140.97L209.644 145.817C209.972 146.167 210.227 146.579 210.395 147.028C210.562 147.477 210.64 147.955 210.623 148.434C210.605 148.913 210.493 149.384 210.294 149.82C210.094 150.256 209.81 150.648 209.458 150.974L172.602 185.245C172.254 185.573 171.845 185.828 171.399 185.997C170.952 186.165 170.476 186.244 169.999 186.227C169.522 186.211 169.053 186.101 168.619 185.902C168.185 185.704 167.794 185.422 167.47 185.071Z" fill="#70CC40"/>
<path d="M170.141 187.495H169.93C169.289 187.472 168.66 187.321 168.079 187.049C167.498 186.778 166.978 186.393 166.55 185.916L148.929 166.506C148.497 166.031 148.162 165.475 147.945 164.871C147.728 164.266 147.632 163.624 147.663 162.982C147.694 162.34 147.852 161.711 148.127 161.13C148.401 160.549 148.788 160.029 149.265 159.597L154.161 155.149C155.12 154.277 156.387 153.821 157.682 153.882C158.977 153.942 160.196 154.514 161.07 155.472L170.837 166.221L199.144 139.914C199.614 139.476 200.165 139.135 200.767 138.911C201.368 138.686 202.008 138.582 202.65 138.605C203.292 138.629 203.923 138.778 204.507 139.045C205.091 139.312 205.616 139.692 206.053 140.163L210.564 145.009C211.001 145.479 211.341 146.031 211.565 146.634C211.788 147.236 211.891 147.876 211.866 148.518C211.842 149.159 211.692 149.79 211.423 150.374C211.155 150.957 210.774 151.482 210.303 151.918L173.446 186.19C172.551 187.03 171.369 187.496 170.141 187.495ZM157.454 156.367C156.856 156.362 156.279 156.584 155.838 156.988L150.93 161.437C150.466 161.871 150.185 162.467 150.147 163.102C150.132 163.416 150.179 163.731 150.286 164.027C150.393 164.323 150.556 164.596 150.768 164.829L168.389 184.276C168.815 184.745 169.409 185.027 170.042 185.059C170.353 185.073 170.665 185.024 170.957 184.915C171.25 184.806 171.517 184.64 171.744 184.425L208.613 150.153C209.081 149.718 209.356 149.115 209.38 148.477C209.403 147.838 209.172 147.217 208.737 146.749L204.239 141.902C203.794 141.452 203.194 141.188 202.561 141.165C201.928 141.142 201.311 141.361 200.834 141.778L171.607 168.954C171.487 169.066 171.346 169.153 171.192 169.21C171.037 169.267 170.874 169.292 170.709 169.285C170.545 169.278 170.384 169.239 170.236 169.169C170.087 169.1 169.953 169.001 169.843 168.88L159.231 157.199C159.01 156.943 158.738 156.736 158.431 156.593C158.125 156.449 157.792 156.372 157.454 156.367Z" fill="#093F68"/>
</g>
<defs>
<clipPath id="clip0_1618_3224">
<rect width="224.817" height="207.004" fill="white"/>
</clipPath>
</defs>
</svg>
