<svg width="355" height="273" viewBox="0 0 355 273" fill="none" xmlns="http://www.w3.org/2000/svg">
<g clip-path="url(#clip0_1675_3204)">
<path opacity="0.1" d="M53.4999 23.5C39.9999 31.1513 31.8062 29.5 26.4999 38.0387C12.8521 60 8.99978 74 3.99957 95C3.99965 106 2.37219 108.814 4.00011 119C4.87669 124.47 1.14279 139.545 3.9999 144C3.99957 155.5 2.66667 156.5 7 169.5C10 178.5 10.0411 169.151 12.8521 182C14.5855 189.909 14.3418 184.662 20 189.5C36.5 196.5 30.6102 189.911 39.9999 196.5C46.2941 200.916 56.6643 199.44 63.9999 200C70.4588 200.494 76.8671 202.422 82.9999 200C88.3582 197.881 83.673 204.244 87.9999 200C108.5 197.056 95.2204 202.267 98.3576 200C105.726 194.675 118.55 197.72 127 200C153.5 197.5 151 200 174 200C203.101 186.324 243.381 189.468 271.847 174.059C284.086 167.432 297.399 163.32 308.732 154.784C315.117 149.925 320.604 143.987 324.945 137.24C333.513 124.022 338.147 107.169 336.809 90.6726C335.471 74.1759 327.974 58.2789 316.199 48.9662C303.595 38.9976 287.675 37.1357 273.333 31.1513C258.53 24.9625 245.355 14.3316 230.694 7.70458C218.823 2.35072 205.904 -0.276939 192.884 0.0144551C179.865 0.305849 151.5 0.0145078 139 0.0144024C123.034 8.08811 116.14 6.27438 98.3576 7.70458C85.6901 8.6932 66.9999 15.8487 53.4999 23.5Z" fill="#6C63FF"/>
<path d="M286.083 114.376C286.083 114.376 281.285 98.0807 286.982 86.0888C289.406 81.0735 290.137 75.4074 289.065 69.9414C288.536 67.3504 287.77 64.8133 286.778 62.362" stroke="#535461" stroke-width="0.659078" stroke-miterlimit="10"/>
<path d="M290.34 54.7859C290.34 56.7829 286.715 62.5729 286.715 62.5729C286.715 62.5729 283.09 56.7829 283.09 54.7859C283.054 54.2887 283.12 53.7892 283.285 53.3187C283.45 52.8483 283.71 52.4169 284.049 52.0516C284.389 51.6862 284.8 51.3948 285.257 51.1956C285.714 50.9963 286.207 50.8934 286.705 50.8934C287.204 50.8934 287.697 50.9963 288.154 51.1956C288.611 51.3948 289.022 51.6862 289.362 52.0516C289.701 52.4169 289.961 52.8483 290.126 53.3187C290.291 53.7892 290.357 54.2887 290.321 54.7859H290.34Z" fill="#68E1FD"/>
<path d="M296.302 65.8452C295.218 67.5226 289.022 70.4193 289.022 70.4193C289.022 70.4193 289.135 63.5945 290.219 61.9171C290.77 61.184 291.579 60.6872 292.482 60.5269C293.386 60.3667 294.316 60.5549 295.086 61.0536C295.856 61.5523 296.408 62.3244 296.632 63.2143C296.855 64.1041 296.732 65.0455 296.289 65.8485L296.302 65.8452Z" fill="#68E1FD"/>
<path d="M296.041 84.7509C294.258 85.6506 287.473 85.0277 287.473 85.0277C287.473 85.0277 291.016 79.1916 292.799 78.2919C293.644 77.941 294.591 77.9228 295.449 78.241C296.307 78.5592 297.013 79.1903 297.425 80.0075C297.837 80.8247 297.925 81.7675 297.671 82.6468C297.416 83.526 296.839 84.2765 296.054 84.7476L296.041 84.7509Z" fill="#68E1FD"/>
<path d="M292.624 99.0232C291.019 100.21 284.211 100.747 284.211 100.747C284.211 100.747 286.715 94.3965 288.324 93.2068C289.097 92.7366 290.019 92.573 290.908 92.7483C291.796 92.9237 292.587 93.4252 293.124 94.1542C293.661 94.8831 293.906 95.7868 293.811 96.6873C293.715 97.5878 293.286 98.4199 292.608 99.0199L292.624 99.0232Z" fill="#68E1FD"/>
<path d="M281.443 70.8048C282.876 72.1954 289.549 73.6388 289.549 73.6388C289.549 73.6388 287.902 67.0118 286.481 65.6178C286.15 65.2463 285.746 64.9471 285.293 64.7387C284.841 64.5304 284.351 64.4174 283.853 64.4068C283.356 64.3963 282.861 64.4883 282.4 64.6773C281.94 64.8662 281.523 65.1481 281.176 65.5052C280.829 65.8623 280.56 66.287 280.384 66.7528C280.209 67.2187 280.131 67.7158 280.156 68.213C280.181 68.7102 280.308 69.1969 280.529 69.6428C280.751 70.0887 281.062 70.4843 281.443 70.8048Z" fill="#68E1FD"/>
<path d="M277.656 87.5322C279.439 88.4319 286.224 87.809 286.224 87.809C286.224 87.809 282.682 81.9729 280.899 81.0733C280.054 80.7223 279.107 80.7041 278.249 81.0223C277.391 81.3405 276.685 81.9716 276.273 82.7888C275.86 83.606 275.773 84.5488 276.027 85.4281C276.281 86.3073 276.859 87.0578 277.643 87.5289L277.656 87.5322Z" fill="#68E1FD"/>
<path d="M276.207 104.296C277.811 105.482 284.62 106.019 284.62 106.019C284.62 106.019 282.115 99.6692 280.507 98.4795C280.13 98.1461 279.688 97.8949 279.209 97.7417C278.729 97.5886 278.223 97.537 277.723 97.5901C277.222 97.6432 276.738 97.7999 276.302 98.0503C275.865 98.3006 275.486 98.6391 275.187 99.0442C274.889 99.4493 274.678 99.9121 274.568 100.403C274.458 100.894 274.452 101.403 274.549 101.897C274.646 102.39 274.846 102.858 275.134 103.271C275.422 103.683 275.793 104.031 276.223 104.293L276.207 104.296Z" fill="#6C63FF"/>
<path opacity="0.1" d="M276.207 104.296C277.811 105.482 284.62 106.019 284.62 106.019C284.62 106.019 282.115 99.6692 280.507 98.4795C280.13 98.1461 279.688 97.8949 279.209 97.7417C278.729 97.5886 278.223 97.537 277.723 97.5901C277.222 97.6432 276.738 97.7999 276.302 98.0503C275.865 98.3006 275.486 98.6391 275.187 99.0442C274.889 99.4493 274.678 99.9121 274.568 100.403C274.458 100.894 274.452 101.403 274.549 101.897C274.646 102.39 274.846 102.858 275.134 103.271C275.422 103.683 275.793 104.031 276.223 104.293L276.207 104.296Z" fill="#6C63FF"/>
<path d="M306.184 140.41C306.184 140.41 301.386 124.114 307.084 112.122C309.507 107.107 310.238 101.441 309.167 95.975C308.638 93.384 307.872 90.8469 306.88 88.3956" stroke="#535461" stroke-width="0.659078" stroke-miterlimit="10"/>
<path d="M310.442 80.8195C310.442 82.8165 306.817 88.6065 306.817 88.6065C306.817 88.6065 303.193 82.8165 303.193 80.8195C303.156 80.3223 303.222 79.8228 303.387 79.3523C303.552 78.8818 303.812 78.4504 304.151 78.0851C304.491 77.7198 304.902 77.4284 305.359 77.2291C305.816 77.0299 306.309 76.927 306.808 76.927C307.306 76.927 307.799 77.0299 308.256 77.2291C308.713 77.4284 309.124 77.7198 309.464 78.0851C309.803 78.4504 310.063 78.8818 310.228 79.3523C310.393 79.8228 310.459 80.3223 310.423 80.8195H310.442Z" fill="#68E1FD"/>
<path d="M316.404 91.8788C315.319 93.5562 309.137 96.4495 309.137 96.4495C309.137 96.4495 309.249 89.6248 310.333 87.9474C310.574 87.512 310.901 87.1307 311.296 86.8273C311.69 86.5238 312.142 86.3048 312.625 86.1838C313.107 86.0628 313.609 86.0424 314.1 86.1238C314.591 86.2053 315.06 86.3869 315.477 86.6573C315.895 86.9277 316.252 87.2812 316.527 87.6956C316.802 88.1101 316.989 88.5768 317.076 89.0666C317.163 89.5564 317.148 90.0588 317.032 90.5426C316.917 91.0264 316.703 91.4813 316.404 91.8788Z" fill="#68E1FD"/>
<path d="M316.144 110.785C314.361 111.684 307.576 111.061 307.576 111.061C307.576 111.061 311.118 105.225 312.901 104.326C313.328 104.069 313.804 103.903 314.298 103.839C314.793 103.774 315.295 103.813 315.774 103.951C316.253 104.09 316.698 104.325 317.082 104.644C317.465 104.962 317.779 105.356 318.004 105.801C318.228 106.246 318.358 106.733 318.386 107.23C318.414 107.728 318.339 108.226 318.166 108.694C317.992 109.161 317.725 109.588 317.379 109.947C317.033 110.306 316.617 110.59 316.157 110.781L316.144 110.785Z" fill="#6C63FF"/>
<path d="M312.726 125.057C311.121 126.243 304.313 126.78 304.313 126.78C304.313 126.78 306.817 120.43 308.426 119.24C309.2 118.77 310.121 118.607 311.01 118.782C311.898 118.957 312.689 119.459 313.226 120.188C313.763 120.917 314.008 121.82 313.913 122.721C313.817 123.621 313.388 124.454 312.71 125.054L312.726 125.057Z" fill="#6C63FF"/>
<path d="M301.544 96.8384C302.978 98.229 309.651 99.6724 309.651 99.6724C309.651 99.6724 308.003 93.0454 306.583 91.6514C305.882 91.0614 304.983 90.7589 304.067 90.8049C303.152 90.851 302.288 91.2421 301.649 91.8995C301.011 92.557 300.645 93.4319 300.625 94.3483C300.606 95.2647 300.934 96.1544 301.544 96.8384Z" fill="#68E1FD"/>
<path d="M297.759 113.566C299.541 114.465 306.327 113.843 306.327 113.843C306.327 113.843 302.784 108.006 301.001 107.107C300.156 106.756 299.209 106.738 298.351 107.056C297.493 107.374 296.787 108.005 296.375 108.822C295.963 109.64 295.875 110.582 296.129 111.462C296.383 112.341 296.961 113.091 297.745 113.562L297.759 113.566Z" fill="#6C63FF"/>
<path d="M296.309 130.329C297.913 131.516 304.722 132.053 304.722 132.053C304.722 132.053 302.217 125.703 300.609 124.513C300.232 124.18 299.79 123.928 299.311 123.775C298.831 123.622 298.325 123.571 297.825 123.624C297.324 123.677 296.841 123.833 296.404 124.084C295.967 124.334 295.588 124.673 295.289 125.078C294.991 125.483 294.78 125.946 294.67 126.437C294.56 126.928 294.554 127.436 294.651 127.93C294.749 128.424 294.948 128.892 295.236 129.304C295.524 129.717 295.895 130.065 296.325 130.326L296.309 130.329Z" fill="#6C63FF"/>
<path opacity="0.1" d="M316.144 110.785C314.361 111.684 307.576 111.061 307.576 111.061C307.576 111.061 311.118 105.225 312.901 104.326C313.328 104.069 313.804 103.903 314.298 103.839C314.793 103.774 315.295 103.813 315.774 103.951C316.253 104.09 316.698 104.325 317.082 104.644C317.465 104.962 317.779 105.356 318.004 105.801C318.228 106.246 318.358 106.733 318.386 107.23C318.414 107.728 318.339 108.226 318.166 108.694C317.992 109.161 317.725 109.588 317.379 109.947C317.033 110.306 316.617 110.59 316.157 110.781L316.144 110.785Z" fill="#6C63FF"/>
<path opacity="0.1" d="M312.726 125.057C311.121 126.243 304.313 126.78 304.313 126.78C304.313 126.78 306.817 120.43 308.426 119.24C309.2 118.77 310.121 118.607 311.01 118.782C311.898 118.957 312.689 119.459 313.226 120.188C313.763 120.917 314.008 121.82 313.913 122.721C313.817 123.621 313.388 124.454 312.71 125.054L312.726 125.057Z" fill="#6C63FF"/>
<path opacity="0.1" d="M297.759 113.566C299.541 114.465 306.327 113.843 306.327 113.843C306.327 113.843 302.784 108.006 301.001 107.107C300.156 106.756 299.209 106.738 298.351 107.056C297.493 107.374 296.787 108.005 296.375 108.822C295.963 109.64 295.875 110.582 296.129 111.462C296.383 112.341 296.961 113.091 297.745 113.562L297.759 113.566Z" fill="#6C63FF"/>
<path opacity="0.1" d="M296.309 130.329C297.913 131.516 304.722 132.053 304.722 132.053C304.722 132.053 302.217 125.703 300.609 124.513C300.232 124.18 299.79 123.928 299.311 123.775C298.831 123.622 298.325 123.571 297.825 123.624C297.324 123.677 296.841 123.833 296.404 124.084C295.967 124.334 295.588 124.673 295.289 125.078C294.991 125.483 294.78 125.946 294.67 126.437C294.56 126.928 294.554 127.436 294.651 127.93C294.749 128.424 294.948 128.892 295.236 129.304C295.524 129.717 295.895 130.065 296.325 130.326L296.309 130.329Z" fill="#6C63FF"/>
<path opacity="0.1" d="M177.932 194.893C267.441 186.164 338.863 167.408 337.458 153C336.053 138.592 262.353 133.988 172.844 142.717C83.3354 151.446 11.9135 170.203 13.3186 184.611C14.7236 199.018 88.4237 203.622 177.932 194.893Z" fill="#6C63FF"/>
<path d="M323.354 155.295C329.447 142.806 328.188 122.477 327.539 115.576C327.397 114.067 327.285 113.2 327.285 113.2C327.285 113.2 321.914 112.353 323.894 105.851C324.863 102.668 321.423 100.908 317.666 99.9427C314.98 99.3003 312.239 98.913 309.48 98.786L257.449 95.573C250.315 84.25 236.276 86.0691 236.276 86.0691C236.276 86.0691 223.754 84.7674 214.876 84.6323C213.529 83.4452 212.052 82.4139 210.473 81.5577C209.533 80.9925 208.531 80.5359 207.488 80.1967C206.219 79.8306 204.882 79.7666 203.584 80.0098C202.287 80.253 201.064 80.7967 200.014 81.5972C199.502 81.9654 199.085 82.4499 198.798 83.0109C198.687 83.266 198.604 83.5323 198.551 83.8051C198.417 84.2705 198.307 84.7423 198.221 85.2189C198.144 85.4482 198.033 85.6648 197.892 85.8615C197.536 86.3657 196.923 86.7446 196.844 87.3543C196.842 87.3894 196.842 87.4246 196.844 87.4597C196.778 87.5762 196.735 87.7034 196.715 87.8354C196.691 88.1067 196.75 88.3789 196.883 88.6164C196.903 88.656 196.926 88.6922 196.949 88.7285C196.511 89.3628 196.153 90.0491 195.885 90.7716C195.763 90.8379 195.645 90.9117 195.532 90.9924L195.433 91.0649V91.2659L195.377 91.3087L195.255 94.5547L195.324 94.6074C195.424 96.1216 195.881 97.5907 196.658 98.8944C197.434 100.198 198.509 101.299 199.793 102.108C199.836 102.315 199.875 102.526 199.915 102.747C200.096 103.811 200.178 104.89 200.159 105.97H200.103C198.554 105.311 195.904 106.28 193.627 107.41H164.127C169.881 100.009 176.92 94.268 176.92 94.268V87.7629C171.891 87.5124 127.713 108.735 118.028 113.421L117.599 113.628L67.8224 115.171C58.8062 115.115 50.9236 116.439 44.0956 118.598C32.6855 122.182 22.4322 128.732 14.3843 137.579C8.50537 144.032 5.92837 149.364 5.92837 149.364L5.98439 149.812L5.92837 149.927L6.00746 149.996L7.34868 160.581L8.27139 167.864C1.85856 172.01 10.1662 173.67 10.1662 173.67C18.0752 180.452 30.7987 180.172 30.7987 180.172C33.9062 184.413 42.9521 183.847 42.9521 183.847H90.4354C91.1749 179.487 92.1652 175.174 93.4012 170.929C95.4279 185.524 106.945 196.705 120.845 196.705C121.876 196.705 122.906 196.642 123.93 196.517C124.953 196.642 125.983 196.705 127.014 196.705C141.076 196.705 152.695 185.26 154.524 170.421H156.847C156.414 173.737 155.66 177.002 154.597 180.172C197.275 167.735 276.697 161.8 276.697 161.8C277.027 158.67 277.39 155.645 277.782 152.741C281.054 160.865 288.472 166.536 297.106 166.536C297.89 166.535 298.674 166.486 299.452 166.391C300.231 166.486 301.014 166.535 301.798 166.536C312.05 166.536 320.582 158.538 322.507 147.933C322.762 149.805 322.907 151.69 322.942 153.578C322.576 155.378 322.256 156.528 322.213 156.689C322.47 156.219 322.714 155.738 322.945 155.246C322.945 155.437 322.945 155.635 322.945 155.833C322.866 156.162 322.81 156.347 322.793 156.409L322.938 156.139C322.938 156.284 322.938 156.426 322.938 156.571C322.905 156.584 323.08 156.109 323.354 155.295Z" fill="url(#paint0_linear_1675_3204)"/>
<path d="M318.374 110.419H220.534V149.888H318.374V110.419Z" fill="#6F7D95"/>
<path d="M195.657 91.9349L209.554 123.066L237.074 121.399L238.184 108.613L239.018 93.6024L200.106 90.821L195.657 91.9349Z" fill="#4B5C7A"/>
<path d="M195.657 91.9348C195.657 91.9348 200.93 86.9324 207.333 85.8186C213.736 84.7047 235.129 86.9291 235.129 86.9291L238.188 92.2017L237.614 94.7128L195.657 91.9348Z" fill="#FF4D52"/>
<path d="M248.051 107.917H149.377V136.825H248.051V107.917Z" fill="#4B5C7A"/>
<path d="M223.773 127.584C226.38 118.868 221.183 113.141 221.183 113.141L212.569 107.13C212.562 107.15 212.553 107.17 212.543 107.189C211.422 105.876 210.621 104.322 210.2 102.648C210.173 102.543 210.15 102.434 210.124 102.319C210.911 101.734 211.601 101.027 212.167 100.226C213.571 99.366 214.197 97.9819 214.434 96.6011C215.337 95.2609 216.057 93.8057 216.573 92.2743C216.658 92.0266 216.731 91.7747 216.79 91.5197C216.956 91.0448 217.03 90.5426 217.008 90.04C216.938 89.4804 216.752 88.9416 216.461 88.4582C215.011 85.8219 212.401 83.9864 209.755 82.4903C208.83 81.9347 207.845 81.4859 206.819 81.1524C205.571 80.7927 204.257 80.73 202.981 80.9692C201.705 81.2084 200.502 81.7429 199.47 82.5298C198.966 82.8919 198.556 83.3686 198.274 83.9205C198.165 84.1713 198.083 84.4332 198.03 84.7015C197.902 85.1594 197.797 85.6236 197.717 86.0922C197.645 86.316 197.541 86.5281 197.407 86.7216C197.054 87.2159 196.455 87.5883 196.376 88.1913C196.374 88.2264 196.374 88.2616 196.376 88.2968C196.312 88.4113 196.269 88.5363 196.25 88.6659C196.226 88.9326 196.283 89.2004 196.415 89.4337C196.435 89.4732 196.458 89.5095 196.481 89.5457C196.05 90.1697 195.698 90.845 195.433 91.5559C195.312 91.6212 195.196 91.6938 195.084 91.7734L194.988 91.8426V92.0403L194.932 92.0832L194.81 95.2764L194.876 95.3291C194.973 96.8185 195.422 98.2637 196.186 99.5462C196.949 100.829 198.006 101.912 199.269 102.708C199.312 102.912 199.351 103.119 199.388 103.337C199.587 104.487 199.666 105.654 199.625 106.82C199.612 106.72 199.612 106.618 199.625 106.517C197.242 105.439 192.045 108.418 189.953 109.737C189.636 109.887 189.34 110.079 189.073 110.307L189.037 110.333C187.597 111.5 184.753 114.742 182.495 123.076C179.365 134.706 179.691 137.342 177.411 140.038C175.13 142.733 172.866 161.725 172.866 161.725L177.457 162.96L178.043 161.075C183.5 166.052 198.781 168.447 198.781 168.447L199.249 166.994C201.592 167.838 205.51 166.556 205.51 166.556C211.238 164.532 213.383 159.398 217.539 152.626C221.694 145.854 223.773 127.584 223.773 127.584ZM200.673 162.624L211.251 129.812C212.21 134.907 207.979 142.931 207.603 148.177C207.369 151.552 203.441 158.258 200.673 162.624Z" fill="url(#paint1_linear_1675_3204)"/>
<path d="M213.907 93.0586C213.907 93.0586 215.749 100.074 210.282 101.297C204.815 102.52 208.417 98.1434 208.417 98.1434L213.69 93.0059L213.907 93.0586Z" fill="#472727"/>
<path d="M191.05 109.779C191.05 109.779 186.984 111.427 183.995 122.526C181.006 133.625 181.302 136.129 179.15 138.71C176.999 141.29 174.794 159.395 174.794 159.395L179.098 160.555L182.845 148.454L193.149 116.489L191.05 109.779Z" fill="#DDE0E4"/>
<path opacity="0.05" d="M191.05 109.779C191.05 109.779 186.984 111.427 183.995 122.526C181.006 133.625 181.302 136.129 179.15 138.71C176.999 141.29 174.794 159.395 174.794 159.395L179.098 160.555L182.845 148.454L193.149 116.489L191.05 109.779Z" fill="black"/>
<path d="M213.63 108.527C213.63 108.527 196.606 117.181 199.098 111.536C200.33 108.748 200.284 105.858 199.925 103.627C199.72 102.313 199.36 101.027 198.854 99.7976C198.854 99.7976 210.427 90.643 209.748 98.117C209.586 99.7257 209.697 101.35 210.078 102.922C211.08 106.886 213.63 108.527 213.63 108.527Z" fill="#DB8B8B"/>
<path opacity="0.1" d="M210.078 102.935C208.983 103.814 207.696 104.422 206.321 104.708C204.947 104.994 203.524 104.951 202.169 104.583C201.377 104.369 200.617 104.049 199.912 103.63C199.707 102.316 199.347 101.031 198.841 99.8009C198.841 99.8009 210.414 90.6463 209.735 98.1203C209.576 99.733 209.692 101.361 210.078 102.935Z" fill="black"/>
<path d="M213.226 97.8528C214.505 93.1008 211.69 88.2113 206.938 86.9318C202.186 85.6522 197.296 88.4672 196.017 93.2193C194.737 97.9713 197.552 102.861 202.304 104.14C207.057 105.42 211.946 102.605 213.226 97.8528Z" fill="#DB8B8B"/>
<path opacity="0.1" d="M200.145 91.1901C199.901 91.3394 199.629 91.4378 199.345 91.4793C199.062 91.5209 198.773 91.5047 198.496 91.4317C198.219 91.3588 197.959 91.2306 197.733 91.0549C197.507 90.8791 197.319 90.6595 197.179 90.4091C197.057 90.1857 197.004 89.931 197.028 89.6775C197.104 89.1041 197.67 88.7482 198.017 88.2737C198.554 87.5058 198.451 86.4546 198.84 85.6011C199.108 85.0798 199.494 84.6284 199.967 84.2829C200.93 83.5301 202.058 83.0158 203.258 82.7821C204.458 82.5484 205.696 82.602 206.871 82.9384C207.833 83.2521 208.755 83.6756 209.62 84.2006C212.098 85.6143 214.54 87.3444 215.881 89.8588C216.153 90.3201 216.325 90.833 216.388 91.3647C216.403 91.9392 216.302 92.5107 216.092 93.0454C215.596 94.5222 214.906 95.9264 214.039 97.2207C213.749 96.8605 213.385 96.5672 212.971 96.3606C212.762 96.2619 212.528 96.2313 212.301 96.2733C212.073 96.3153 211.865 96.4277 211.706 96.5945C211.419 96.9603 211.244 97.6589 210.809 97.4942C210.526 97.3887 210.529 96.9966 210.542 96.6934C210.602 95.3752 209.883 94.1329 208.918 93.2431C207.952 92.3534 206.756 91.7668 205.576 91.1901C204.729 90.7749 203.599 89.8225 202.67 89.6544C201.516 89.4402 200.972 90.6793 200.145 91.1901Z" fill="black"/>
<path d="M200.267 90.7386C200.023 90.888 199.751 90.9863 199.467 91.0279C199.184 91.0694 198.895 91.0532 198.618 90.9803C198.341 90.9073 198.082 90.7791 197.855 90.6034C197.629 90.4276 197.441 90.208 197.302 89.9576C197.179 89.7343 197.127 89.4795 197.15 89.226C197.226 88.6526 197.793 88.2967 198.139 87.8222C198.676 87.0544 198.574 86.0031 198.962 85.1496C199.23 84.6284 199.616 84.1769 200.089 83.8315C201.053 83.0786 202.18 82.5643 203.38 82.3306C204.58 82.0969 205.818 82.1505 206.993 82.487C207.955 82.8007 208.877 83.2242 209.742 83.7491C212.22 85.1628 214.662 86.8929 216.003 89.4073C216.275 89.8687 216.447 90.3815 216.51 90.9133C216.525 91.4877 216.424 92.0593 216.214 92.5939C215.718 94.0708 215.028 95.4749 214.161 96.7692C213.871 96.4091 213.507 96.1157 213.093 95.9091C212.884 95.8104 212.65 95.7799 212.423 95.8219C212.195 95.8639 211.987 95.9762 211.828 96.1431C211.541 96.5088 211.366 97.2075 210.931 97.0427C210.648 96.9372 210.651 96.5451 210.664 96.2419C210.724 94.9238 210.005 93.6814 209.04 92.7916C208.074 91.9019 206.878 91.3153 205.698 90.7386C204.851 90.3234 203.721 89.371 202.792 89.203C201.638 88.9855 201.095 90.2278 200.267 90.7386Z" fill="#472727"/>
<path d="M204.934 109.707C204.934 109.707 211.982 108.326 212.289 107.196L220.349 112.887C220.349 112.887 225.2 118.321 222.719 126.639C222.719 126.639 220.699 144.068 216.771 150.537C212.843 157.006 210.585 165.386 205.204 167.343C205.204 167.343 200.03 164.008 198.323 164.048C198.323 164.048 207.085 151.351 207.461 146.352C207.837 141.353 211.841 133.687 210.964 128.837L199.101 165.712C199.101 165.712 179.987 162.746 178.05 156.403C178.05 156.403 179.698 153.928 179.391 151.42C179.085 148.912 186.601 130.046 186.601 130.046L190.2 110.373C190.2 110.373 197.318 105.4 200.152 106.692C200.139 106.672 199.625 109.127 204.934 109.707Z" fill="#DDE0E4"/>
<g opacity="0.1">
<path d="M207.501 94.4097C205.761 92.037 202.442 93.9846 201.898 94.324L201.045 94.2383C200.3 93.4277 198.016 91.2725 195.871 92.8576L195.779 92.9268L195.65 95.9684L195.743 96.0409C196.362 96.5193 197.065 96.8791 197.815 97.102C198.291 97.2417 198.792 97.2666 199.279 97.1745C199.639 97.0915 199.976 96.9304 200.267 96.7026C200.558 96.4748 200.795 96.186 200.963 95.8564L201.407 95.886L201.737 95.8234C201.803 96.1739 201.943 96.5062 202.147 96.7983C202.352 97.0904 202.617 97.3355 202.923 97.5173C204.396 98.351 206.548 97.5173 206.637 97.5008L206.749 97.4579L207.54 94.5152L207.501 94.4097ZM206.383 97.0856C205.945 97.2338 204.291 97.7216 203.18 97.0856C202.904 96.9122 202.671 96.6777 202.499 96.4C202.328 96.1223 202.223 95.8089 202.192 95.484L202.152 95.2434L201.431 95.3917L200.706 95.3654L200.636 95.5038C200.504 95.8031 200.305 96.0681 200.054 96.2784C199.803 96.4886 199.508 96.6385 199.19 96.7165C197.947 96.9834 196.51 96.0211 196.135 95.7476L196.244 93.1772C198.109 91.9217 200.165 93.9582 200.758 94.6239L200.821 94.6931L202.024 94.8117L202.096 94.7623C202.129 94.7425 205.118 92.7356 206.822 94.3504C206.906 94.4287 206.985 94.5136 207.056 94.6041L206.383 97.0856Z" fill="black"/>
<path d="M212.898 95.9387L207.296 95.4741L206.835 95.3851L207.043 94.6074C206.971 94.5168 206.893 94.432 206.809 94.3536L207.487 94.4195L212.071 94.8677L212.898 95.9387Z" fill="black"/>
</g>
<path d="M207.56 94.1988C205.82 91.8261 202.502 93.7737 201.958 94.1131L201.105 94.0274C200.36 93.2167 198.076 91.0616 195.931 92.6466L195.838 92.7158L195.71 95.7575L195.802 95.83C196.422 96.3084 197.125 96.6681 197.875 96.8911C198.35 97.0308 198.852 97.0556 199.338 96.9636C199.698 96.8805 200.036 96.7194 200.327 96.4917C200.618 96.2639 200.855 95.975 201.022 95.6454L201.467 95.6751L201.797 95.6125C201.862 95.9629 202.002 96.2953 202.207 96.5874C202.412 96.8795 202.676 97.1246 202.983 97.3063C204.456 98.1401 206.608 97.3063 206.697 97.2898L206.809 97.247L207.6 94.3042L207.56 94.1988ZM206.443 96.8746C206.005 97.0229 204.35 97.5106 203.24 96.8746C202.963 96.7013 202.73 96.4667 202.559 96.189C202.388 95.9113 202.282 95.5979 202.251 95.2731L202.212 95.0325L201.49 95.1808L200.775 95.1347L200.706 95.2731C200.576 95.5741 200.378 95.8413 200.129 96.0538C199.879 96.2664 199.584 96.4187 199.266 96.4989C198.023 96.7659 196.587 95.8036 196.211 95.5301L196.32 92.9597C198.185 91.7042 200.241 93.7407 200.834 94.4064L200.897 94.4756L202.1 94.5942L202.172 94.5448C202.205 94.525 205.194 92.5181 206.898 94.1329C206.982 94.2112 207.061 94.296 207.132 94.3866L206.443 96.8746Z" fill="#472727"/>
<path d="M212.951 95.7278L207.369 95.2632L206.908 95.1742L207.115 94.3965C207.044 94.3059 206.966 94.2211 206.881 94.1428L207.56 94.2087L212.144 94.6568L212.951 95.7278Z" fill="#472727"/>
<path d="M174.669 130.432H76.8286V169.901H174.669V130.432Z" fill="#6F7D95"/>
<path d="M121.607 195.75C136.685 195.75 148.909 182.372 148.909 165.87C148.909 149.368 136.685 135.991 121.607 135.991C106.528 135.991 94.3042 149.368 94.3042 165.87C94.3042 182.372 106.528 195.75 121.607 195.75Z" fill="#4B5C7A"/>
<path opacity="0.05" d="M121.607 195.75C136.685 195.75 148.909 182.372 148.909 165.87C148.909 149.368 136.685 135.991 121.607 135.991C106.528 135.991 94.3042 149.368 94.3042 165.87C94.3042 182.372 106.528 195.75 121.607 195.75Z" fill="black"/>
<path d="M127.673 195.75C142.752 195.75 154.976 182.372 154.976 165.87C154.976 149.368 142.752 135.991 127.673 135.991C112.595 135.991 100.371 149.368 100.371 165.87C100.371 182.372 112.595 195.75 127.673 195.75Z" fill="#4B5C7A"/>
<path opacity="0.05" d="M127.067 178.155C133.768 178.155 139.201 172.723 139.201 166.022C139.201 159.321 133.768 153.888 127.067 153.888C120.366 153.888 114.934 159.321 114.934 166.022C114.934 172.723 120.366 178.155 127.067 178.155Z" fill="black"/>
<path d="M127.067 169.663C129.078 169.663 130.709 168.033 130.709 166.022C130.709 164.011 129.078 162.38 127.067 162.38C125.056 162.38 123.426 164.011 123.426 166.022C123.426 168.033 125.056 169.663 127.067 169.663Z" stroke="#6F7D95" stroke-width="0.659078" stroke-miterlimit="10"/>
<path d="M127.067 160.561C127.57 160.561 127.977 160.154 127.977 159.652C127.977 159.15 127.57 158.742 127.067 158.742C126.565 158.742 126.158 159.15 126.158 159.652C126.158 160.154 126.565 160.561 127.067 160.561Z" fill="#6F7D95"/>
<path d="M132.629 162.105C133.013 161.782 133.064 161.208 132.741 160.824C132.418 160.439 131.844 160.389 131.459 160.712C131.075 161.034 131.024 161.608 131.347 161.993C131.67 162.378 132.244 162.428 132.629 162.105Z" fill="#6F7D95"/>
<path d="M134.8 166.509C134.887 166.015 134.557 165.543 134.062 165.456C133.567 165.368 133.096 165.699 133.009 166.193C132.921 166.688 133.252 167.16 133.746 167.247C134.241 167.334 134.713 167.004 134.8 166.509Z" fill="#6F7D95"/>
<path d="M131.759 171.741C132.194 171.489 132.343 170.933 132.092 170.498C131.841 170.063 131.285 169.914 130.85 170.165C130.415 170.416 130.266 170.973 130.517 171.408C130.768 171.843 131.324 171.992 131.759 171.741Z" fill="#6F7D95"/>
<path d="M126.971 172.233C127.142 171.761 126.899 171.239 126.427 171.067C125.955 170.895 125.433 171.139 125.261 171.611C125.089 172.083 125.333 172.605 125.805 172.777C126.277 172.948 126.799 172.705 126.971 172.233Z" fill="#6F7D95"/>
<path d="M122.347 169.424C122.819 169.252 123.062 168.73 122.891 168.258C122.719 167.786 122.197 167.543 121.725 167.715C121.253 167.886 121.009 168.408 121.181 168.88C121.353 169.352 121.875 169.596 122.347 169.424Z" fill="#6F7D95"/>
<path d="M122.771 163.742C123.022 163.307 122.873 162.751 122.438 162.499C122.003 162.248 121.447 162.397 121.196 162.832C120.945 163.267 121.094 163.824 121.529 164.075C121.964 164.326 122.52 164.177 122.771 163.742Z" fill="#6F7D95"/>
<path d="M323.851 142.779C322.919 149.219 320.325 156.268 320.325 156.268C320.343 155.828 320.354 155.394 320.358 154.966C320.358 154.412 320.358 153.865 320.358 153.318C320.029 135.569 310.357 124.619 304.119 119.376C302.497 117.994 300.753 116.763 298.909 115.698H315.863C315.863 115.698 322.533 129.318 323.924 135.988C324.326 137.859 324.214 140.275 323.851 142.779Z" fill="#FF4D52"/>
<path opacity="0.05" d="M323.851 142.779C322.919 149.219 320.325 156.268 320.325 156.268C320.343 155.828 320.354 155.394 320.358 154.966C320.358 154.412 320.358 153.865 320.358 153.318C320.029 135.569 310.357 124.619 304.119 119.376C302.497 117.994 300.753 116.763 298.909 115.698H315.863C315.863 115.698 322.533 129.318 323.924 135.988C324.326 137.859 324.214 140.275 323.851 142.779Z" fill="black"/>
<path d="M294.944 166.081C306.412 166.081 315.708 155.907 315.708 143.356C315.708 130.805 306.412 120.631 294.944 120.631C283.476 120.631 274.18 130.805 274.18 143.356C274.18 155.907 283.476 166.081 294.944 166.081Z" fill="#4B5C7A"/>
<path opacity="0.05" d="M294.944 166.081C306.412 166.081 315.708 155.907 315.708 143.356C315.708 130.805 306.412 120.631 294.944 120.631C283.476 120.631 274.18 130.805 274.18 143.356C274.18 155.907 283.476 166.081 294.944 166.081Z" fill="black"/>
<path d="M299.558 166.081C311.026 166.081 320.322 155.907 320.322 143.356C320.322 130.805 311.026 120.631 299.558 120.631C288.09 120.631 278.793 130.805 278.793 143.356C278.793 155.907 288.09 166.081 299.558 166.081Z" fill="#4B5C7A"/>
<path opacity="0.05" d="M299.096 152.699C304.192 152.699 308.323 148.567 308.323 143.471C308.323 138.375 304.192 134.244 299.096 134.244C294 134.244 289.869 138.375 289.869 143.471C289.869 148.567 294 152.699 299.096 152.699Z" fill="black"/>
<path d="M299.096 146.24C300.625 146.24 301.864 145 301.864 143.471C301.864 141.943 300.625 140.703 299.096 140.703C297.567 140.703 296.328 141.943 296.328 143.471C296.328 145 297.567 146.24 299.096 146.24Z" stroke="#6F7D95" stroke-width="0.659078" stroke-miterlimit="10"/>
<path d="M299.096 139.319C299.479 139.319 299.788 139.009 299.788 138.627C299.788 138.245 299.479 137.935 299.096 137.935C298.714 137.935 298.404 138.245 298.404 138.627C298.404 139.009 298.714 139.319 299.096 139.319Z" fill="#6F7D95"/>
<path d="M303.328 140.493C303.621 140.247 303.659 139.81 303.414 139.518C303.168 139.225 302.732 139.187 302.439 139.432C302.146 139.678 302.108 140.114 302.354 140.407C302.599 140.7 303.036 140.738 303.328 140.493Z" fill="#6F7D95"/>
<path d="M304.977 143.845C305.044 143.469 304.792 143.11 304.416 143.043C304.04 142.977 303.681 143.228 303.614 143.605C303.548 143.981 303.799 144.34 304.176 144.406C304.552 144.473 304.911 144.221 304.977 143.845Z" fill="#6F7D95"/>
<path d="M302.667 147.823C302.998 147.632 303.112 147.209 302.921 146.878C302.73 146.547 302.306 146.433 301.975 146.624C301.644 146.815 301.531 147.239 301.722 147.57C301.913 147.901 302.336 148.014 302.667 147.823Z" fill="#6F7D95"/>
<path d="M299.025 148.196C299.155 147.837 298.97 147.44 298.611 147.309C298.252 147.179 297.855 147.364 297.724 147.723C297.593 148.082 297.778 148.479 298.138 148.61C298.497 148.741 298.894 148.555 299.025 148.196Z" fill="#6F7D95"/>
<path d="M295.507 146.057C295.866 145.926 296.051 145.529 295.921 145.17C295.79 144.811 295.393 144.626 295.034 144.757C294.674 144.887 294.489 145.284 294.62 145.644C294.751 146.003 295.148 146.188 295.507 146.057Z" fill="#6F7D95"/>
<path d="M295.834 141.737C296.025 141.406 295.911 140.983 295.58 140.791C295.249 140.6 294.826 140.714 294.635 141.045C294.444 141.376 294.557 141.799 294.888 141.99C295.219 142.181 295.643 142.068 295.834 141.737Z" fill="#6F7D95"/>
<path d="M11.0956 168.928L8.58447 149.192H38.3254L53.6127 162.812L46.1091 180.324C46.1091 180.324 15.8343 175.321 11.0956 168.928Z" fill="#FF4D52"/>
<path opacity="0.05" d="M53.6227 162.812L46.1191 180.324C46.1191 180.324 15.8345 175.321 11.0957 168.928L10.9869 168.068L8.68016 149.818L8.6571 149.637L8.60107 149.196H38.342L53.6227 162.812Z" fill="black"/>
<path d="M176.758 88.5999V94.9929C176.758 94.9929 161.389 107.515 157.731 119.329C157.092 121.248 156.851 123.276 157.022 125.291C158.413 138.354 117.003 114.726 117.003 114.726L118.845 113.829C128.365 109.239 171.812 88.3494 176.758 88.5999Z" fill="#7597CE"/>
<path d="M211.782 119.455C211.782 119.455 226.176 112.383 228.486 107.15C228.796 106.448 229.089 105.739 229.432 105.051C230.859 102.18 233.857 95.4477 232.348 92.215C230.404 88.0463 237.074 92.7719 237.074 92.7719L233.182 112.501L223.731 117.774L211.501 119.455" fill="#FF4D52"/>
<path opacity="0.05" d="M211.782 119.455C211.782 119.455 226.176 112.383 228.486 107.15C228.796 106.448 229.089 105.739 229.432 105.051C230.859 102.18 233.857 95.4477 232.348 92.215C230.404 88.0463 237.074 92.7719 237.074 92.7719L233.182 112.501L223.731 117.774L211.501 119.455" fill="black"/>
<path opacity="0.05" d="M53.6223 162.812L46.1187 180.324C46.1187 180.324 15.8341 175.321 11.0953 168.928L10.9866 168.068C11.1085 167.986 11.237 167.9 11.3721 167.818C11.3721 167.818 20.5432 175.045 41.3931 176.715C41.3931 176.715 53.9156 166.707 33.6094 155.592C33.6094 155.592 15.9461 156.146 8.66991 149.822L8.59082 149.756L8.64684 149.64C8.69518 149.546 8.77317 149.399 8.88082 149.199H38.3317L53.6223 162.812Z" fill="black"/>
<path opacity="0.05" d="M157.022 125.288C158.413 138.354 117.003 114.726 117.003 114.726L118.845 113.829C120.064 115.128 124.932 119.507 134.663 119.033C140.924 118.726 150.431 119.007 157.747 119.326C157.103 121.243 156.856 123.272 157.022 125.288Z" fill="black"/>
<path opacity="0.05" d="M174.672 130.432V169.901H156.495C157.694 160.72 157.002 147.337 145.343 139.665C140.995 136.823 135.946 135.237 130.753 135.082C125.56 134.928 120.425 136.21 115.915 138.789C108.273 143.152 99.7284 152.023 94.2976 169.901H76.832V130.432H174.672Z" fill="black"/>
<path opacity="0.05" d="M323.851 142.779C323.166 147.136 322.065 151.367 320.362 154.972C320.142 155.458 319.903 155.931 319.643 156.393C319.686 156.231 319.999 155.104 320.362 153.331C322.128 144.697 325.15 120.806 304.903 119.441C304.639 119.425 304.379 119.409 304.119 119.399C302.498 118.009 300.754 116.77 298.909 115.698H315.863C315.863 115.698 322.533 129.318 323.924 135.988C324.326 137.859 324.214 140.275 323.851 142.779Z" fill="black"/>
<path d="M320.193 156.122C320.457 155.17 329.849 120.819 305.453 119.175C280.715 117.507 277.656 136.129 274.878 161.425C274.878 161.425 196.778 167.261 154.801 179.493C154.801 179.493 164.878 151.878 145.903 139.388C141.555 136.546 136.506 134.96 131.313 134.805C126.12 134.651 120.986 135.933 116.476 138.512C107.117 143.857 96.3967 155.978 91.7074 183.105H45.0051C45.0051 183.105 36.1076 183.662 33.0527 179.48C33.0527 179.48 20.5303 179.757 12.763 173.087C12.763 173.087 4.42568 171.42 11.0956 167.251C11.0956 167.251 20.5467 174.478 41.3934 176.149C41.3934 176.149 53.9159 166.14 33.6097 155.025C33.6097 155.025 15.8146 155.582 8.59435 149.189C8.59435 149.189 11.1285 143.946 16.9119 137.602C24.8222 128.901 34.9014 122.456 46.119 118.927C53.6776 116.591 61.556 115.454 69.4668 115.56L118.525 114.03C118.525 114.03 123.264 120.147 134.646 119.59C146.029 119.033 168.279 120.424 168.279 120.424H168.5L214.279 118.351C215.594 118.165 216.894 117.89 218.171 117.527C224.808 115.724 237.397 110.257 235.126 94.9897L307.117 99.4385C309.831 99.5632 312.526 99.9438 315.168 100.575C318.865 101.524 322.246 103.258 321.294 106.388C319.35 112.782 324.629 113.615 324.629 113.615C324.629 113.615 324.741 114.469 324.879 115.952C325.538 122.944 326.834 143.969 320.193 156.122Z" fill="#FF4D52"/>
<path opacity="0.05" d="M100.041 125.568C100.041 125.568 70.0202 125.844 50.2808 143.363H61.3994C61.3994 143.363 92.531 135.302 100.035 128.909L100.041 125.568Z" fill="black"/>
<path d="M99.7614 125.287C99.7614 125.287 69.7404 125.564 50.001 143.083H61.1196C61.1196 143.083 92.2512 135.022 99.7548 128.629L99.7614 125.287Z" fill="#FFEC9F"/>
<path opacity="0.05" d="M46.3957 119.208V126.678L21.1068 138.354L17.1919 137.883C25.1013 129.182 35.1793 122.737 46.3957 119.208Z" fill="black"/>
<path d="M46.1157 118.931V126.401L20.8236 138.074L16.9087 137.602C24.8194 128.902 34.8985 122.459 46.1157 118.931Z" fill="#FFEC9F"/>
<path opacity="0.05" d="M81.9729 152.807C81.9729 152.807 68.3531 161.145 66.9624 179.5H74.7461C74.7461 179.5 77.8042 159.487 86.6985 152.807H81.9729Z" fill="black"/>
<path opacity="0.05" d="M242.913 153.364L172.31 161.702C172.31 161.702 167.64 131.977 168.503 120.414L214.283 118.341C215.596 118.158 216.895 117.886 218.172 117.527V120.285L252.638 111.948C252.638 111.948 258.478 120.562 242.913 153.364Z" fill="black"/>
<path d="M235.129 86.9292C235.129 86.9292 250.14 84.9849 256.81 97.771L235.344 96.9439L235.129 86.9292Z" fill="#FF4D52"/>
<path opacity="0.05" d="M255.769 102.253C255.179 104.101 255.624 106.135 259.041 107.542C261.885 108.715 265.22 107.357 266.192 104.441C266.759 102.74 266.37 100.816 263.305 99.2506C260.24 97.6853 256.8 99.0233 255.769 102.253Z" fill="black"/>
<path d="M9.12158 153.358C9.12158 153.358 26.9365 162.585 39.7226 159.092" stroke="#FF4D52" stroke-width="0.329539" stroke-miterlimit="10"/>
<path d="M9.75098 158.34C9.75098 158.34 21.2618 167.218 44.5272 165.155" stroke="#FF4D52" stroke-width="0.329539" stroke-miterlimit="10"/>
<path d="M10.2817 162.522C10.2817 162.522 21.7003 172.431 45.1635 169.291" stroke="#FF4D52" stroke-width="0.329539" stroke-miterlimit="10"/>
<path opacity="0.05" d="M255.95 96.2782C255.95 96.2782 246.663 104.296 238.188 107.921C238.188 107.921 251.059 110.211 255.95 96.2782Z" fill="black"/>
<path opacity="0.1" d="M157.569 119.876C157.569 119.876 201.635 124.039 218.31 120.147C218.31 120.147 219.199 120.737 213.89 118.357L157.569 119.876Z" fill="black"/>
<path opacity="0.05" d="M324.883 115.952C322.138 114.149 317.785 110.409 318.378 106.247C318.674 104.161 317.198 102.21 315.171 100.572C318.869 101.521 322.25 103.255 321.298 106.385C319.353 112.778 324.632 113.612 324.632 113.612C324.632 113.612 324.741 114.469 324.883 115.952Z" fill="black"/>
<path d="M103.403 144.964C103.429 143.864 103.403 142.72 103.32 141.669C103.32 141.468 103.287 141.273 103.268 141.082C103.887 141.55 104.256 141.906 104.256 141.906L103.713 113.289L100.714 98.2983C100.714 87.6673 94.9896 84.6718 94.9896 84.6718C94.9896 84.6718 91.9908 83.3075 91.1736 81.4028C90.3563 79.4981 83.1131 75.4711 83.1098 75.4711C83.0524 74.7773 83.0304 74.0811 83.0439 73.3851C83.0439 73.2039 83.0438 73.016 83.0603 72.8282C84.8762 71.6242 86.1934 69.802 86.7674 67.7002C87.3413 65.5983 87.133 63.3596 86.1811 61.3998C86.5831 61.3998 86.9093 61.2317 87.0609 60.6353C87.5421 58.747 87.0774 55.9031 85.9833 54.3938C85.7494 54.0781 85.4857 53.7857 85.1957 53.5205C84.8562 53.1798 84.4987 52.8575 84.1247 52.555C83.1889 51.7772 82.1475 50.96 80.9875 51.0259C80.3295 51.112 79.6971 51.3366 79.1322 51.685C76.2345 53.2096 73.3444 54.7475 70.462 56.2985C69.3976 56.8752 68.3003 57.4816 67.5555 58.5163C66.8108 59.5511 66.5109 60.8758 66.3033 62.1775C66.1287 63.0594 66.0876 63.9625 66.1813 64.8567C66.2685 65.6703 66.6409 66.4268 67.2326 66.9921C67.3519 67.1362 67.4879 67.2657 67.6379 67.3776C68.2245 67.806 68.9791 67.9115 69.5921 68.2575C70.0554 69.6029 70.8313 70.8193 71.856 71.8066C71.856 71.9747 71.8329 72.1362 71.8198 72.3207C71.7835 72.792 71.7275 73.3093 71.655 73.8333C71.655 73.8333 69.6415 73.7806 66.6427 77.8668C63.6439 81.9531 57.1025 82.5002 57.1025 82.5002C57.1025 82.5002 54.6508 81.4094 51.9255 93.6748C49.2002 105.94 48.3829 114.106 49.7439 115.477C50.3219 115.976 50.9732 116.383 51.675 116.683C53.9853 117.849 56.4711 118.629 59.0336 118.99C59.0663 119.088 59.1216 119.177 59.1951 119.25L59.3895 121.626C59.5543 126.642 59.7454 136.703 58.7305 138.934C57.3662 141.933 59.004 143.841 59.004 143.841L59.3335 143.818C59.3944 143.921 59.4627 144.02 59.5378 144.114L60.856 144.025C60.7604 149.627 60.5034 157.398 59.8245 159.105C58.7337 161.83 59.8245 176.821 59.8245 176.821L57.9165 203.804C57.9165 203.804 56.8719 217.888 57.8506 219.519C57.3167 222.449 56.3578 228.031 56.5555 229.422C56.829 231.33 63.0969 234.055 63.0969 234.055C63.0969 234.055 70.4555 235.703 73.998 235.146C75.85 234.859 76.5849 233.607 76.5915 232.51C78.9938 232.895 82.1211 233.264 84.0819 232.961C87.6244 232.417 87.0807 228.328 85.1727 228.601C83.2646 228.875 81.0831 225.039 79.4618 223.131C78.6379 222.169 77.9525 220.449 77.4845 218.976C77.8292 218.924 78.1456 218.755 78.3809 218.498C79.1981 217.133 80.5624 204.598 80.5624 204.598L84.105 182.795C84.105 182.795 86.013 172.164 87.6475 169.713C88.8833 167.861 90.4288 154.04 91.111 147.383H91.1703H91.1901L91.2626 147.149L92.2874 143.841C92.8345 144.806 94.2119 145.284 95.8168 145.488C95.6454 146.187 95.5037 146.757 95.4213 147.083C95.0127 148.731 100.971 151.443 102.408 150.082C103.011 149.512 103.324 147.446 103.396 145.185H103.446L103.403 144.964ZM67.5951 219.289C67.5028 219.819 67.4105 220.373 67.3182 220.936C67.1106 220.277 66.9459 219.684 66.8338 219.246C67.104 219.256 67.3578 219.269 67.5951 219.289Z" fill="url(#paint2_linear_1675_3204)"/>
<path d="M76.7333 213.607C76.7333 213.607 77.7845 218.333 79.3696 220.168C80.9547 222.004 83.0439 225.678 84.8795 225.418C86.715 225.158 87.2423 229.092 83.8282 229.616C80.4142 230.14 73.3291 228.565 73.3291 228.565C73.3291 228.565 67.292 225.929 67.0316 224.103C66.7713 222.277 68.6068 212.816 68.6068 212.816L76.7333 213.607Z" fill="#53526B"/>
<path opacity="0.05" d="M76.7333 213.607C76.7333 213.607 77.7845 218.333 79.3696 220.168C80.9547 222.004 83.0439 225.678 84.8795 225.418C86.715 225.158 87.2423 229.092 83.8282 229.616C80.4142 230.14 73.3291 228.565 73.3291 228.565C73.3291 228.565 67.292 225.929 67.0316 224.103C66.7713 222.277 68.6068 212.816 68.6068 212.816L76.7333 213.607Z" fill="black"/>
<path d="M67.0218 215.706C67.0218 215.706 68.0731 220.432 69.6581 222.268C71.2432 224.103 73.3325 227.777 75.168 227.517C77.0036 227.257 77.5308 231.191 74.1168 231.715C70.7028 232.239 63.6177 230.667 63.6177 230.667C63.6177 230.667 57.5805 228.031 57.3202 226.206C57.0599 224.38 58.8954 214.919 58.8954 214.919L67.0218 215.706Z" fill="#53526B"/>
<path d="M90.9067 143.794C90.9067 143.794 88.8076 166.365 87.2324 168.727C85.6572 171.09 83.8216 181.326 83.8216 181.326L80.4109 202.321C80.4109 202.321 79.0927 214.395 78.3117 215.706C77.5307 217.018 67.7896 216.455 67.7896 216.455L73.8333 146.945L90.9067 143.794Z" fill="#5F5D7E"/>
<path opacity="0.05" d="M90.9067 143.794C90.9067 143.794 88.8076 166.365 87.2324 168.727C85.6572 171.09 83.8216 181.326 83.8216 181.326L80.4109 202.321C80.4109 202.321 79.0927 214.395 78.3117 215.706C77.5307 217.018 67.7896 216.455 67.7896 216.455L73.8333 146.945L90.9067 143.794Z" fill="black"/>
<path d="M95.1049 133.035L94.4195 135.213L90.7122 146.981L90.6397 147.205H90.6199C90.1223 147.317 79.6166 149.733 77.3493 150.474C77.227 150.512 77.1071 150.557 76.9901 150.609C75.9389 151.133 74.6273 170.029 74.6273 170.029C74.6273 170.029 73.8397 187.877 73.3092 189.188C72.7786 190.5 70.6729 217.529 69.3712 216.744C68.0695 215.96 58.6117 216.744 58.6117 216.744C57.5605 215.693 58.6117 201.523 58.6117 201.523L60.4473 175.539C60.4473 175.539 59.3961 161.105 60.4473 158.479C61.4985 155.852 61.4985 138.271 61.4985 138.271L82.9943 134.943L85.0704 134.613L95.1049 133.035Z" fill="#5F5D7E"/>
<path opacity="0.02" d="M94.4197 135.213L90.7124 146.981L90.6234 147.212C90.1258 147.324 79.6201 149.739 77.3529 150.481H77.1255L82.9946 134.943L83.1626 134.495L85.0707 134.617L94.4197 135.213Z" fill="black"/>
<path opacity="0.1" d="M69.9083 80.546C69.9083 80.546 79.6198 91.0451 85.6569 82.3815L91.4304 86.3195L90.3792 92.3566L93.79 138.024C93.79 138.024 84.866 137.761 78.5685 139.86C76.8146 140.482 74.9194 140.59 73.1061 140.171C71.2928 139.753 69.6368 138.825 68.3331 137.497L69.3843 97.3426L67.0215 85.0079L69.9083 80.546Z" fill="black"/>
<path d="M69.9084 79.7584C69.9084 79.7584 79.6199 90.2575 85.657 81.5939L91.4306 85.5319L90.3793 91.569L93.7934 137.25C93.7934 137.25 84.8694 136.986 78.572 139.085C76.818 139.707 74.9229 139.816 73.1095 139.397C71.2962 138.978 69.6402 138.05 68.3365 136.722L69.3877 96.5681L67.0249 84.2335L69.9084 79.7584Z" fill="#53526B"/>
<path d="M89.292 126.513V128.164H89.8226V127.064H91.7504V128.164H92.2809V126.517L89.292 126.513Z" fill="#E82127"/>
<path d="M89.7662 125.98H91.8027C91.9361 125.948 92.0583 125.88 92.1559 125.783C92.2535 125.687 92.3228 125.566 92.3563 125.432H89.2158C89.2497 125.565 89.3191 125.687 89.4167 125.783C89.5142 125.879 89.6362 125.947 89.7694 125.98" fill="#E82127"/>
<path d="M87.6903 128.164C87.8057 128.12 87.9084 128.047 87.9894 127.954C88.0704 127.86 88.1273 127.748 88.1549 127.627H85.779V125.432H85.2451V128.164H87.687" fill="#E82127"/>
<path d="M81.2907 125.97H83.1723C83.3063 125.936 83.4296 125.869 83.531 125.775C83.6323 125.681 83.7084 125.563 83.7523 125.432H80.7535V127.034H83.1987V127.601H81.2808C81.1344 127.64 80.9979 127.709 80.8803 127.805C80.7627 127.9 80.6667 128.019 80.5986 128.154H83.7194V126.507H81.2775V125.966" fill="#E82127"/>
<path d="M76.6475 125.976H78.6841C78.8175 125.944 78.9396 125.876 79.0372 125.78C79.1348 125.684 79.2041 125.562 79.2377 125.429H76.0972C76.131 125.562 76.2005 125.683 76.298 125.78C76.3956 125.876 76.5175 125.944 76.6508 125.976" fill="#E82127"/>
<path d="M76.6475 127.054H78.6841C78.8176 127.022 78.94 126.954 79.0376 126.858C79.1353 126.761 79.2045 126.64 79.2377 126.507H76.0972C76.131 126.64 76.2005 126.761 76.298 126.857C76.3956 126.954 76.5175 127.022 76.6508 127.054" fill="#E82127"/>
<path d="M76.6475 128.164H78.6841C78.8175 128.132 78.9396 128.065 79.0372 127.968C79.1348 127.872 79.2041 127.75 79.2377 127.617H76.0972C76.131 127.75 76.2005 127.871 76.298 127.968C76.3956 128.064 76.5175 128.132 76.6508 128.164" fill="#E82127"/>
<path d="M71.3521 125.436C71.3868 125.567 71.4562 125.687 71.553 125.783C71.6498 125.878 71.7704 125.946 71.9024 125.98H72.7592L72.802 125.996V128.158H73.3359V125.996L73.3853 125.98H74.2421C74.3736 125.945 74.4938 125.877 74.5904 125.782C74.687 125.686 74.7567 125.567 74.7924 125.436H71.3521Z" fill="#E82127"/>
<path d="M81.8544 120.031L84.5269 104.994C87.0743 104.994 87.8783 105.275 87.997 106.415C87.997 106.415 89.7073 105.779 90.5674 104.484C88.4388 103.528 86.1517 102.975 83.8217 102.852L81.8445 105.255L79.8672 102.852C77.5373 102.975 75.2501 103.528 73.1216 104.484C73.9817 105.779 75.692 106.415 75.692 106.415C75.8073 105.275 76.6114 104.994 79.1423 104.991L81.8379 120.031" fill="#E82127"/>
<path d="M81.854 102.157C84.9543 102.119 88.0278 102.735 90.8735 103.966C91.0833 103.613 91.263 103.243 91.4106 102.859C85.2814 100.376 78.4266 100.376 72.2974 102.859C72.4548 103.24 72.6376 103.61 72.8444 103.966C75.6901 102.735 78.7636 102.119 81.8639 102.157" fill="#E82127"/>
<path d="M90.1191 134.083C90.1191 134.083 90.1191 140.908 91.6943 143.794C93.2695 146.681 102.454 145.113 102.454 145.113L100.618 135.401L90.1191 134.083Z" fill="#D39999"/>
<path d="M101.455 149.832C100.071 151.15 94.3335 148.513 94.729 146.945C95.0058 145.834 95.9746 141.86 96.5249 139.606L96.9072 138.021C96.9072 138.021 100.269 136.97 101.455 138.021C101.887 138.403 102.19 139.909 102.331 141.728C102.575 144.889 102.335 148.998 101.455 149.832Z" fill="#FDC2CC"/>
<path d="M88.8039 84.4807L79.6197 91.5658C79.6197 91.5658 65.9735 90.7782 69.3842 84.217C70.8693 81.3314 71.7655 78.1791 72.0205 74.9438C72.1315 73.7502 72.1315 72.5488 72.0205 71.3551C72.0205 71.3551 84.6188 59.8213 83.0436 72.9303C82.9195 73.9365 82.8469 74.9484 82.8261 75.9621C82.6514 85.8021 88.8039 84.4807 88.8039 84.4807Z" fill="#FDC2CC"/>
<path opacity="0.1" d="M83.0305 72.9336C82.9064 73.9399 82.8338 74.9518 82.813 75.9654C81.3993 76.9018 79.7403 77.3994 78.0446 77.3956C75.695 77.3956 73.9649 75.1086 72.4029 73.5894C72.5776 71.4112 72.0107 71.3584 72.0107 71.3584C72.0107 71.3584 84.6057 59.8081 83.0305 72.9336Z" fill="black"/>
<path d="M78.0446 76.8684C82.8275 76.8684 86.7048 72.991 86.7048 68.2081C86.7048 63.4251 82.8275 59.5478 78.0446 59.5478C73.2616 59.5478 69.3843 63.4251 69.3843 68.2081C69.3843 72.991 73.2616 76.8684 78.0446 76.8684Z" fill="#FDC2CC"/>
<path opacity="0.1" d="M71.8789 76.4762C71.8789 76.4762 70.4355 76.608 67.5487 80.5427C64.662 84.4774 58.3447 85.0047 58.3447 85.0047C58.3447 85.0047 55.9819 83.9534 53.3588 95.7641C50.7356 107.575 49.948 115.447 51.2596 116.759C52.5712 118.071 57.8207 119.909 60.4439 119.909C60.4439 119.909 61.2315 136.442 59.9199 139.329C58.6083 142.216 60.1835 144.055 60.1835 144.055L71.7174 143.267C71.7174 143.267 75.6554 138.281 76.443 129.621C77.2306 120.961 79.8537 96.2881 78.5422 93.4013C77.2306 90.5146 71.4571 83.1658 71.7174 82.3782C71.9777 81.5906 71.8789 76.4762 71.8789 76.4762Z" fill="black"/>
<path d="M71.8561 76.3971C71.8561 76.3971 69.9151 76.3443 67.0283 80.2823C64.1416 84.2203 57.8441 84.7443 57.8441 84.7443C57.8441 84.7443 55.4813 83.6931 52.8582 95.5038C50.235 107.314 49.4474 115.187 50.7656 116.489C52.0837 117.79 57.3267 119.639 59.9498 119.639C59.9498 119.639 60.7374 136.172 59.4259 139.059C58.1143 141.946 59.6895 143.785 59.6895 143.785L71.2234 142.997C71.2234 142.997 75.1614 138.011 75.949 129.351C76.7366 120.69 79.3597 96.0178 78.0481 93.1311C76.7366 90.2443 70.963 82.8956 71.2234 82.108C71.4837 81.3204 71.8561 76.3971 71.8561 76.3971Z" fill="#68E1FD"/>
<path d="M64.9355 110.201C64.9355 110.201 78.0677 95.1413 76.2223 105.476C74.9041 112.824 69.9248 116.762 67.562 117.55C65.1992 118.338 64.9355 110.201 64.9355 110.201Z" fill="#FDC2CC"/>
<path opacity="0.1" d="M102.332 141.728C101.076 140.769 98.7069 139.276 96.5254 139.606L96.9077 138.021C96.9077 138.021 100.269 136.97 101.455 138.021C101.89 138.403 102.19 139.909 102.332 141.728Z" fill="black"/>
<path opacity="0.1" d="M82.8985 78.0513C82.8985 78.0513 89.5914 82.3815 90.379 84.2203C91.1666 86.0591 94.0534 87.3707 94.0534 87.3707C94.0534 87.3707 99.5633 90.2575 99.5633 100.493L102.45 114.927L89.3212 133.295C89.3212 133.295 87.746 114.923 86.9584 110.462C86.1708 106 85.1229 97.6095 85.1229 97.6095C85.1229 97.6095 81.1849 92.6236 81.7122 91.312C82.2394 90.0004 82.8985 78.0513 82.8985 78.0513Z" fill="black"/>
<path d="M82.8757 77.9723C82.8757 77.9723 89.8554 81.8576 90.6397 83.6931C91.424 85.5286 94.3173 86.8303 94.3173 86.8303C94.3173 86.8303 99.8272 89.7171 99.8272 99.9526L102.714 114.386L103.238 141.942C103.238 141.942 98.5124 137.48 95.1016 139.58C91.6909 141.679 89.5917 132.755 89.5917 132.755C89.5917 132.755 88.0165 114.383 87.2289 109.921C86.4413 105.459 85.3934 97.0691 85.3934 97.0691C85.3934 97.0691 81.4554 92.1029 81.9827 90.7848C82.5099 89.4666 82.8757 77.9723 82.8757 77.9723Z" fill="#68E1FD"/>
<path opacity="0.1" d="M85.6473 57.676C85.2029 57.1107 84.6892 56.6036 84.1182 56.1667C83.2152 55.4153 82.2168 54.631 81.0963 54.6969C80.4624 54.7813 79.8537 54.9992 79.3102 55.3362C76.5201 56.806 73.7377 58.2911 70.963 59.7916C69.9381 60.3452 68.8803 60.9318 68.1652 61.927C67.4501 62.9222 67.1601 64.2008 66.9591 65.4531C66.7909 66.3013 66.7509 67.17 66.8405 68.0301C66.9222 68.8733 67.3316 69.6507 67.9807 70.1952C68.7287 70.7389 69.7536 70.7422 70.3797 71.454C70.7422 71.8659 70.9004 72.4426 71.1574 72.9435C71.4145 73.4444 71.8593 73.9321 72.3668 73.8432C72.8743 73.7542 73.1808 73.217 73.2533 72.6733C73.2856 72.1222 73.2535 71.5693 73.1577 71.0256C73.0589 70.037 73.1841 68.989 73.7575 68.2542C74.1529 67.7533 74.7197 67.4501 75.102 66.936C76.0181 65.697 75.5996 63.6406 76.6047 62.4774C76.8965 62.1733 77.2638 61.9521 77.6691 61.8363C78.0743 61.7205 78.503 61.7143 78.9115 61.8183C79.7254 61.9896 80.4702 62.4312 81.2182 62.8069C82.2288 63.3167 83.2874 63.7251 84.3785 64.0262C85.2946 64.2766 86.3558 64.8764 86.6688 63.6571C87.1467 61.8677 86.6853 59.1292 85.6473 57.676Z" fill="black"/>
<path d="M85.3836 57.4124C84.9392 56.8471 84.4255 56.34 83.8545 55.9031C82.9516 55.1517 81.9531 54.3674 80.8326 54.4333C80.1988 54.5177 79.59 54.7356 79.0465 55.0726C76.2586 56.5424 73.942 55.1517 70.6993 59.528C70.0073 60.4639 68.6166 60.6682 67.9015 61.6634C67.1864 62.6586 66.8964 63.9372 66.6954 65.1895C66.5272 66.0377 66.4872 66.9064 66.5768 67.7665C66.6585 68.6097 67.0679 69.3871 67.717 69.9316C68.465 70.4753 69.4899 70.4786 70.116 71.1904C70.4785 71.6023 70.6367 72.179 70.8937 72.6799C71.1508 73.1808 71.5957 73.6685 72.1031 73.5796C72.6106 73.4906 72.9171 72.9534 72.9896 72.4097C73.0219 71.8586 72.9898 71.3056 72.894 70.762C72.7952 69.7734 72.9204 68.7254 73.4938 67.9906C73.8893 67.4897 74.4561 67.1865 74.8383 66.6724C75.7544 65.4333 75.3359 63.377 76.341 62.2137C76.6329 61.9097 77.0002 61.6885 77.4054 61.5727C77.8106 61.4569 78.2394 61.4507 78.6478 61.5547C79.4618 61.726 80.2065 62.1676 80.9546 62.5433C81.9651 63.0531 83.0237 63.4615 84.1149 63.7626C85.031 64.013 86.0921 64.6128 86.4051 63.3935C86.8863 61.6041 86.4381 58.8656 85.3836 57.4124Z" fill="#865A61"/>
<path d="M61.7723 96.2913C61.7723 96.2913 61.5086 106.003 60.1971 107.314C58.8855 108.626 60.9847 110.201 60.9847 110.201L66.2342 108.883C66.2342 108.883 64.9161 117.543 70.4326 116.495C70.4326 116.495 66.7582 119.906 63.0838 120.433C59.4095 120.961 59.6632 119.649 59.6632 119.649L54.1533 113.088L61.7723 96.2913Z" fill="#68E1FD"/>
<path opacity="0.1" d="M61.7289 97.4711C61.7289 97.4711 58.2292 106.395 60.8556 110.069L66.6291 108.751C66.6291 108.751 61.3796 110.326 62.1672 107.176C62.9548 104.026 61.7289 97.4711 61.7289 97.4711Z" fill="black"/>
<path opacity="0.1" d="M59.8047 119.517C59.8047 119.517 67.417 120.041 69.5162 118.466C66.7536 120.582 63.4891 121.945 60.042 122.421L59.8047 119.517Z" fill="black"/>
<path opacity="0.1" d="M92.6167 102.721C92.6167 102.721 96.5547 114.795 96.2911 116.63C96.0274 118.466 95.5035 138.677 95.5035 138.677L94.7159 138.413L94.9795 116.367L92.6167 102.721Z" fill="black"/>
<path d="M258.415 136.864C258.415 136.864 264.182 148.184 259.482 154.376C254.783 160.568 259.911 177.444 259.911 177.444" stroke="#68E1FD" stroke-width="0.329539" stroke-miterlimit="10"/>
<path d="M260.122 133.341C260.122 135.523 258.52 137.296 258.52 137.296C258.52 137.296 256.918 135.526 256.918 133.341C256.918 131.157 258.52 129.387 258.52 129.387C258.52 129.387 260.122 131.16 260.122 133.341Z" fill="#68E1FD"/>
<path d="M261.404 136.864C261.404 136.864 255.637 148.184 260.336 154.376C265.035 160.568 259.907 177.444 259.907 177.444" stroke="#68E1FD" stroke-width="0.329539" stroke-miterlimit="10"/>
<path d="M259.693 133.341C259.693 135.523 261.295 137.296 261.295 137.296C261.295 137.296 262.896 135.526 262.896 133.341C262.896 131.157 261.295 129.387 261.295 129.387C261.295 129.387 259.693 131.16 259.693 133.341Z" fill="#68E1FD"/>
<path d="M263.753 136.864C263.753 136.864 269.52 148.184 264.821 154.376C260.122 160.568 265.249 177.444 265.249 177.444" stroke="#68E1FD" stroke-width="0.329539" stroke-miterlimit="10"/>
<path d="M265.46 133.341C265.46 135.523 263.858 137.296 263.858 137.296C263.858 137.296 262.257 135.526 262.257 133.341C262.257 131.157 263.858 129.387 263.858 129.387C263.858 129.387 265.46 131.16 265.46 133.341Z" fill="#68E1FD"/>
<path d="M264.564 142.41C263.051 143.982 260.668 144.147 260.668 144.147C260.668 144.147 260.741 141.761 262.254 140.193C263.766 138.624 266.149 138.456 266.149 138.456C266.149 138.456 266.076 140.838 264.564 142.41Z" fill="#68E1FD"/>
<path d="M264.712 150.22C263.199 151.792 260.817 151.957 260.817 151.957C260.817 151.957 260.889 149.571 262.402 148.003C263.915 146.434 266.284 146.263 266.284 146.263C266.284 146.263 266.225 148.645 264.712 150.22Z" fill="#68E1FD"/>
<path d="M256.51 154.514C257.94 156.162 257.891 158.548 257.891 158.548C257.891 158.548 255.522 158.261 254.091 156.614C252.661 154.966 252.711 152.58 252.711 152.58C252.711 152.58 255.08 152.867 256.51 154.514Z" fill="#68E1FD"/>
<path d="M257.838 137.863C259.657 139.069 260.247 141.382 260.247 141.382C260.247 141.382 257.884 141.738 256.069 140.545C254.253 139.352 253.66 137.026 253.66 137.026C253.66 137.026 256.019 136.657 257.838 137.863Z" fill="#68E1FD"/>
<path d="M266.742 136.864C266.742 136.864 260.975 148.184 265.675 154.376C270.374 160.568 265.246 177.444 265.246 177.444" stroke="#68E1FD" stroke-width="0.329539" stroke-miterlimit="10"/>
<path d="M265.035 133.341C265.035 135.523 266.637 137.296 266.637 137.296C266.637 137.296 268.238 135.526 268.238 133.341C268.238 131.157 266.637 129.387 266.637 129.387C266.637 129.387 265.035 131.16 265.035 133.341Z" fill="#68E1FD"/>
<path d="M265.497 142.578C263.964 144.134 263.849 146.533 263.849 146.533C263.849 146.533 266.232 146.398 267.764 144.842C269.296 143.287 269.412 140.888 269.412 140.888C269.412 140.888 267.026 141.023 265.497 142.578Z" fill="#68E1FD"/>
<path d="M268.499 153.397C266.966 154.953 266.851 157.352 266.851 157.352C266.851 157.352 269.234 157.217 270.766 155.661C272.298 154.106 272.414 151.707 272.414 151.707C272.414 151.707 270.031 151.835 268.499 153.397Z" fill="#68E1FD"/>
<path d="M264.08 151.015C264.08 151.015 267.55 145.544 272.424 145.412" stroke="#68E1FD" stroke-width="0.329539" stroke-miterlimit="10"/>
<path d="M261.377 147.709C261.377 147.709 257.907 142.239 253.033 142.107" stroke="#68E1FD" stroke-width="0.329539" stroke-miterlimit="10"/>
<path d="M260.926 155.519C260.926 155.519 264.396 150.049 269.27 149.917" stroke="#68E1FD" stroke-width="0.329539" stroke-miterlimit="10"/>
<path d="M272.262 146.282C272.759 146.282 273.162 145.88 273.162 145.383C273.162 144.886 272.759 144.483 272.262 144.483C271.765 144.483 271.362 144.886 271.362 145.383C271.362 145.88 271.765 146.282 272.262 146.282Z" fill="#68E1FD"/>
<path d="M253.115 143.053C253.612 143.053 254.015 142.65 254.015 142.153C254.015 141.656 253.612 141.254 253.115 141.254C252.619 141.254 252.216 141.656 252.216 142.153C252.216 142.65 252.619 143.053 253.115 143.053Z" fill="#68E1FD"/>
<path d="M263.48 157.322C263.48 157.322 260.01 151.852 255.136 151.72" stroke="#68E1FD" stroke-width="0.329539" stroke-miterlimit="10"/>
<path d="M255.218 152.666C255.715 152.666 256.118 152.263 256.118 151.766C256.118 151.269 255.715 150.866 255.218 150.866C254.722 150.866 254.319 151.269 254.319 151.766C254.319 152.263 254.722 152.666 255.218 152.666Z" fill="#68E1FD"/>
<path d="M269.336 150.863C269.833 150.863 270.235 150.46 270.235 149.963C270.235 149.467 269.833 149.064 269.336 149.064C268.839 149.064 268.436 149.467 268.436 149.963C268.436 150.46 268.839 150.863 269.336 150.863Z" fill="#68E1FD"/>
<path d="M282.666 170.863C282.666 170.863 274.302 169.189 272.071 166.958C269.84 164.727 259.802 160.835 258.688 163.613C257.575 166.391 243.632 175.892 253.103 177.562C262.574 179.233 275.409 179.793 278.197 178.676C280.985 177.559 282.666 170.863 282.666 170.863Z" fill="#A8A8A8"/>
<path opacity="0.2" d="M253.103 176.528C262.583 178.202 275.409 178.758 278.197 177.641C280.319 176.791 281.796 172.698 282.379 170.813L282.659 170.873C282.659 170.873 280.985 177.566 278.197 178.679C275.409 179.793 262.583 179.236 253.103 177.566C250.367 177.081 249.583 175.948 249.88 174.514C250.12 175.447 251.073 176.168 253.103 176.528Z" fill="black"/>
<path d="M37.3433 198.762C37.3433 198.762 40.1048 202.386 36.068 207.824C32.0311 213.261 28.7028 217.878 30.0506 221.282C30.0506 221.282 36.1405 211.156 41.0967 211.014C46.053 210.872 42.7939 204.851 37.3433 198.762Z" fill="#68E1FD"/>
<path opacity="0.1" d="M37.3433 198.762C37.584 199.111 37.7737 199.492 37.9068 199.895C42.7445 205.576 45.3182 210.879 40.6717 211.014C36.3415 211.139 31.148 218.88 29.9023 220.837C29.9434 220.988 29.993 221.137 30.0506 221.282C30.0506 221.282 36.1405 211.156 41.0968 211.014C46.0531 210.872 42.7939 204.851 37.3433 198.762Z" fill="black"/>
<path d="M42.4774 203.362C42.4774 204.634 42.3357 205.669 42.1479 205.669C41.9601 205.669 41.8184 204.637 41.8184 203.362C41.8184 202.087 41.9963 202.703 42.171 202.703C42.3456 202.703 42.4774 202.093 42.4774 203.362Z" fill="#FFD037"/>
<path d="M44.2373 204.881C43.1202 205.491 42.1481 205.87 42.0657 205.702C41.9833 205.534 42.817 204.927 43.9342 204.321C45.0513 203.714 44.6097 204.156 44.6954 204.321C44.7811 204.486 45.3545 204.271 44.2373 204.881Z" fill="#FFD037"/>
<path d="M22.7547 198.762C22.7547 198.762 19.9931 202.386 24.03 207.824C28.0668 213.261 31.3952 217.878 30.0474 221.279C30.0474 221.279 23.9575 211.152 19.0012 211.011C14.0449 210.869 17.3041 204.851 22.7547 198.762Z" fill="#68E1FD"/>
<path opacity="0.1" d="M22.7547 198.762C22.514 199.111 22.3243 199.492 22.1911 199.895C17.3535 205.576 14.7798 210.879 19.4263 211.014C23.7565 211.139 28.95 218.88 30.1957 220.837C30.1545 220.988 30.105 221.137 30.0474 221.282C30.0474 221.282 23.9575 211.156 19.0012 211.014C14.0449 210.872 17.3041 204.851 22.7547 198.762Z" fill="black"/>
<path d="M17.6206 203.362C17.6206 204.634 17.7623 205.669 17.9501 205.669C18.138 205.669 18.2797 204.637 18.2797 203.362C18.2797 202.087 18.1017 202.703 17.9271 202.703C17.7524 202.703 17.6206 202.093 17.6206 203.362Z" fill="#FFD037"/>
<path d="M15.8608 204.881C16.9779 205.491 17.9501 205.87 18.0324 205.702C18.1148 205.534 17.2811 204.927 16.164 204.321C15.0468 203.714 15.4884 204.156 15.4027 204.321C15.317 204.486 14.7436 204.271 15.8608 204.881Z" fill="#FFD037"/>
<path d="M18.5005 220.804C18.5005 220.804 26.2216 220.567 28.5481 218.91C30.8747 217.252 40.4115 215.285 41.0014 217.921C41.5913 220.557 52.6045 231.139 43.8882 231.208C35.1719 231.277 23.6347 229.85 21.3115 228.437C18.9882 227.023 18.5005 220.804 18.5005 220.804Z" fill="#A8A8A8"/>
<path opacity="0.2" d="M44.046 230.295C35.3297 230.364 23.7925 228.937 21.4693 227.524C19.6996 226.446 18.9944 222.581 18.7605 220.798H18.5034C18.5034 220.798 18.9911 227.026 21.3144 228.44C23.6376 229.854 35.1748 231.284 43.8911 231.211C46.4088 231.192 47.2755 230.295 47.2293 228.97C46.8767 229.781 45.9178 230.279 44.046 230.295Z" fill="black"/>
<g clip-path="url(#clip1_1675_3204)">
<path d="M266.317 198.696C267.998 197.78 276.066 191.93 276.066 191.93L273.982 182.937C273.982 182.937 230.714 196.191 228.344 199.654C225.974 203.117 227.016 225.07 227.016 225.07L263.266 209.697C263.266 209.697 264.619 199.612 266.317 198.696Z" fill="#F56132"/>
<path d="M227.016 225.91C227.128 225.91 227.24 225.887 227.343 225.843L263.593 210.479C263.729 210.423 263.848 210.332 263.938 210.216C264.028 210.099 264.086 209.961 264.106 209.815C264.711 205.26 265.913 199.998 266.728 199.427C268.468 198.485 276.234 192.854 276.562 192.611C276.69 192.516 276.79 192.387 276.848 192.238C276.906 192.089 276.92 191.927 276.889 191.77L274.805 182.727C274.778 182.614 274.729 182.508 274.659 182.416C274.59 182.323 274.502 182.246 274.402 182.189C274.302 182.131 274.192 182.095 274.077 182.082C273.963 182.069 273.848 182.08 273.738 182.113C266.468 184.34 230.033 195.636 227.654 199.158C225.276 202.679 226.066 222.851 226.175 225.128C226.175 225.351 226.264 225.565 226.421 225.723C226.579 225.88 226.793 225.969 227.016 225.969V225.91ZM262.5 209.101L227.806 223.801C227.444 215.06 227.486 202.335 229.041 200.066C230.596 197.796 256.693 189.072 273.368 183.945L275.124 191.56C272.242 193.653 267.157 197.267 265.879 197.939C264.131 198.906 262.971 205.739 262.5 209.117V209.101Z" fill="#093F68"/>
<path d="M294.338 255.688C276.731 255.688 262.458 241.415 262.458 223.809C262.458 206.203 276.731 191.93 294.338 191.93C311.944 191.93 326.217 206.203 326.217 223.809C326.217 241.415 311.944 255.688 294.338 255.688Z" fill="#093F68"/>
<path d="M294.338 256.529C300.81 256.529 307.136 254.61 312.517 251.014C317.897 247.419 322.091 242.309 324.567 236.33C327.044 230.352 327.692 223.773 326.429 217.426C325.167 211.079 322.051 205.249 317.475 200.673C312.899 196.097 307.069 192.981 300.722 191.718C294.375 190.456 287.796 191.104 281.817 193.58C275.838 196.056 270.728 200.25 267.133 205.631C263.538 211.012 261.619 217.338 261.619 223.809C261.634 232.482 265.087 240.795 271.219 246.928C277.352 253.061 285.665 256.513 294.338 256.529ZM294.338 192.77C300.477 192.77 306.478 194.591 311.583 198.001C316.687 201.412 320.665 206.259 323.014 211.931C325.364 217.603 325.978 223.843 324.781 229.864C323.583 235.885 320.627 241.416 316.286 245.757C311.945 250.098 306.415 253.054 300.394 254.251C294.373 255.449 288.132 254.834 282.46 252.485C276.789 250.136 271.941 246.158 268.531 241.053C265.12 235.949 263.3 229.948 263.3 223.809C263.315 215.582 266.59 207.696 272.408 201.879C278.225 196.061 286.111 192.786 294.338 192.77Z" fill="#093F68"/>
<path d="M294.338 242.081C284.247 242.081 276.066 233.9 276.066 223.809C276.066 213.718 284.247 205.537 294.338 205.537C304.429 205.537 312.61 213.718 312.61 223.809C312.61 233.9 304.429 242.081 294.338 242.081Z" fill="white"/>
<path d="M294.339 242.921C298.119 242.921 301.814 241.8 304.957 239.7C308.1 237.6 310.55 234.615 311.996 231.123C313.443 227.631 313.821 223.788 313.084 220.08C312.346 216.373 310.526 212.967 307.853 210.294C305.18 207.622 301.775 205.801 298.067 205.064C294.36 204.326 290.517 204.705 287.025 206.151C283.532 207.598 280.548 210.048 278.447 213.191C276.347 216.334 275.226 220.029 275.226 223.809C275.231 228.877 277.246 233.735 280.829 237.319C284.412 240.902 289.271 242.917 294.339 242.921ZM294.339 206.378C297.786 206.378 301.157 207.4 304.023 209.315C306.89 211.231 309.124 213.953 310.443 217.138C311.763 220.323 312.108 223.828 311.435 227.21C310.763 230.591 309.102 233.697 306.665 236.135C304.227 238.573 301.121 240.233 297.739 240.905C294.358 241.578 290.853 241.233 287.668 239.914C284.483 238.594 281.76 236.36 279.845 233.493C277.93 230.627 276.907 227.257 276.907 223.809C276.912 219.187 278.75 214.756 282.018 211.488C285.286 208.22 289.717 206.382 294.339 206.378Z" fill="#093F68"/>
<path d="M231.177 225.448C231.177 225.448 240.658 206.386 243.406 203.108C246.155 199.83 256.551 200.864 256.551 200.864C256.551 200.864 295.533 216.665 299.785 220.195C304.374 223.977 298.634 230.861 293.818 229.827C291.708 229.373 251.971 221.422 251.971 221.422L253.5 234.206L231.177 225.448Z" fill="#68E1FD"/>
<path d="M253.5 235.046C253.619 235.047 253.737 235.022 253.847 234.974C253.956 234.926 254.053 234.854 254.133 234.765C254.212 234.676 254.272 234.571 254.308 234.457C254.344 234.344 254.355 234.223 254.34 234.105L252.937 222.439C259.459 223.75 291.758 230.213 293.649 230.617C297.011 231.331 300.373 228.936 301.667 226.171C302.273 225.083 302.47 223.815 302.223 222.594C301.977 221.374 301.303 220.282 300.323 219.514C296.019 215.967 258.467 200.721 256.87 200.074C256.798 200.043 256.722 200.023 256.643 200.015C255.534 199.897 245.717 199.007 242.759 202.537C239.977 205.898 230.815 224.296 230.42 225.078C230.374 225.184 230.35 225.299 230.35 225.414C230.35 225.53 230.374 225.644 230.42 225.75C230.462 225.858 230.525 225.957 230.606 226.039C230.687 226.121 230.784 226.186 230.891 226.23L253.214 234.945C253.302 234.997 253.399 235.031 253.5 235.046ZM251.97 220.565C251.851 220.564 251.733 220.588 251.623 220.637C251.514 220.685 251.417 220.756 251.337 220.845C251.258 220.934 251.198 221.039 251.162 221.153C251.127 221.267 251.115 221.388 251.13 221.506L252.5 232.911L232.328 225.044C234.177 221.363 241.708 206.47 244.045 203.654C246.036 201.259 253.483 201.419 256.341 201.696C269.788 207.159 295.969 218.127 299.205 220.825C299.889 221.358 300.357 222.12 300.524 222.971C300.691 223.822 300.545 224.705 300.113 225.456C299.087 227.566 296.448 229.524 293.952 228.986C291.859 228.541 253.71 220.909 252.088 220.582L251.97 220.565Z" fill="#093F68"/>
<path d="M240.044 226.515C240.96 225.835 269.393 212.757 269.393 212.757L272.562 219.548L248.987 231.315L240.044 226.515Z" fill="white"/>
<path d="M248.986 232.172C249.117 232.174 249.247 232.145 249.365 232.088L272.898 220.321C273.092 220.223 273.241 220.054 273.313 219.849C273.385 219.643 273.375 219.418 273.284 219.22L270.116 212.429C270.023 212.228 269.854 212.072 269.646 211.995C269.438 211.918 269.208 211.926 269.006 212.017C264.241 214.211 240.43 225.162 239.497 225.868C239.383 225.953 239.293 226.065 239.234 226.195C239.175 226.324 239.15 226.466 239.161 226.608C239.172 226.747 239.218 226.882 239.294 226.999C239.371 227.117 239.475 227.213 239.598 227.28L248.549 232.096C248.686 232.16 248.837 232.186 248.986 232.172ZM271.452 219.161L249.003 230.39L241.834 226.532C246.036 224.456 259.391 218.287 268.99 213.875L271.452 219.161Z" fill="#093F68"/>
<path d="M181.176 183.861L212.728 194.897L225.209 203.108C225.209 203.108 312.358 169.649 312.206 166.127C312.055 162.606 275.822 162.152 273.065 163.219C270.309 164.287 269.704 174.229 265.837 176.373C261.971 178.516 180.916 183.777 181.176 183.861Z" fill="#093F68"/>
<path d="M225.209 203.949C225.313 203.949 225.416 203.929 225.512 203.89C225.73 203.806 247.558 195.435 269.082 186.736C313.165 168.884 313.098 167.203 313.047 166.127C313.023 165.845 312.927 165.575 312.77 165.339C312.613 165.104 312.399 164.913 312.148 164.782C307.349 161.639 275.218 161.521 272.763 162.471C271.082 163.118 270.242 165.64 269.275 168.573C268.309 171.506 267.208 174.683 265.426 175.675C262.468 177.305 207.181 181.197 189.019 182.483L183.236 182.895C180.437 183.096 180.437 183.096 180.345 183.786C180.318 183.978 180.359 184.173 180.46 184.338C180.561 184.504 180.717 184.629 180.9 184.693L212.358 195.687L224.747 203.78C224.883 203.877 225.043 203.935 225.209 203.949ZM311.207 166.127C308.484 168.455 284.169 179.575 225.31 202.141L213.191 194.199C213.133 194.163 213.071 194.134 213.006 194.115L185.27 184.407L189.153 184.13C225.655 181.558 263.367 178.709 266.258 177.121C268.611 175.818 269.822 172.237 270.881 169.086C271.629 166.875 272.478 164.371 273.402 164.043C274.327 163.715 282.563 163.387 292.733 163.799C305.34 164.27 310.156 165.446 311.207 166.127Z" fill="#093F68"/>
<path d="M183.547 175.759L212.728 194.897C223.049 194.174 230.546 192.728 234.362 189.971C239.514 186.265 238.976 180.037 238.976 180.037C238.363 174.078 235.614 171.935 231.025 169.338C226.436 166.741 204.491 166.127 196.011 168.884C187.531 171.641 183.312 175.667 183.547 175.759Z" fill="#68E1FD"/>
<path d="M212.729 195.737H212.788C224.134 194.939 231.152 193.325 234.859 190.694C240.33 186.752 239.834 180.281 239.809 180.012C239.145 173.49 235.918 171.187 231.404 168.649C226.361 165.774 203.98 165.446 195.718 168.128C188.153 170.565 182.674 174.599 182.665 175.776C182.663 175.919 182.697 176.061 182.764 176.188C182.832 176.314 182.931 176.421 183.052 176.499L212.233 195.645C212.387 195.721 212.558 195.753 212.729 195.737ZM212.872 167.909C220.629 167.909 228.219 168.75 230.606 170.069C234.901 172.498 237.548 174.389 238.17 180.155C238.17 180.373 238.59 185.946 233.909 189.316C230.497 191.77 223.823 193.283 212.989 194.065L184.859 175.574C186.22 174.406 189.977 171.716 196.298 169.691C200.055 168.455 206.518 167.909 212.872 167.909Z" fill="#093F68"/>
<path d="M159.694 255.688C142.088 255.688 127.815 241.415 127.815 223.809C127.815 206.203 142.088 191.93 159.694 191.93C177.3 191.93 191.573 206.203 191.573 223.809C191.573 241.415 177.3 255.688 159.694 255.688Z" fill="#093F68"/>
<path d="M159.695 256.529C166.167 256.534 172.495 254.619 177.88 251.027C183.264 247.434 187.461 242.326 189.942 236.348C192.422 230.369 193.073 223.79 191.814 217.441C190.554 211.093 187.44 205.26 182.865 200.682C178.29 196.103 172.46 192.984 166.112 191.72C159.765 190.455 153.185 191.102 147.204 193.578C141.224 196.053 136.113 200.247 132.516 205.628C128.92 211.01 127 217.337 127 223.809C127.016 232.478 130.464 240.787 136.592 246.919C142.719 253.051 151.026 256.506 159.695 256.529ZM159.695 192.77C165.834 192.765 171.838 194.581 176.946 197.989C182.053 201.397 186.035 206.242 188.389 211.914C190.742 217.585 191.36 223.826 190.165 229.849C188.97 235.871 186.016 241.404 181.676 245.748C177.337 250.091 171.806 253.05 165.784 254.249C159.763 255.449 153.521 254.836 147.848 252.487C142.175 250.139 137.325 246.161 133.914 241.056C130.502 235.951 128.681 229.949 128.681 223.809C128.697 215.586 131.968 207.704 137.78 201.887C143.592 196.071 151.472 192.793 159.695 192.77Z" fill="#093F68"/>
<path d="M159.694 242.081C149.603 242.081 141.422 233.9 141.422 223.809C141.422 213.718 149.603 205.537 159.694 205.537C169.786 205.537 177.966 213.718 177.966 223.809C177.966 233.9 169.786 242.081 159.694 242.081Z" fill="white"/>
<path d="M159.694 242.921C163.474 242.921 167.169 241.8 170.312 239.7C173.455 237.6 175.905 234.615 177.351 231.123C178.798 227.631 179.176 223.788 178.439 220.08C177.701 216.373 175.881 212.967 173.208 210.294C170.535 207.622 167.13 205.801 163.422 205.064C159.715 204.326 155.872 204.705 152.38 206.151C148.887 207.598 145.902 210.048 143.802 213.191C141.702 216.334 140.581 220.029 140.581 223.809C140.586 228.877 142.601 233.735 146.184 237.319C149.767 240.902 154.626 242.917 159.694 242.921ZM159.694 206.378C163.141 206.378 166.512 207.4 169.378 209.315C172.245 211.231 174.479 213.953 175.798 217.138C177.118 220.323 177.463 223.828 176.79 227.21C176.118 230.591 174.457 233.697 172.02 236.135C169.582 238.573 166.476 240.233 163.094 240.905C159.713 241.578 156.208 241.233 153.023 239.914C149.838 238.594 147.115 236.36 145.2 233.493C143.285 230.627 142.262 227.257 142.262 223.809C142.269 219.188 144.108 214.758 147.375 211.49C150.643 208.223 155.073 206.384 159.694 206.378Z" fill="#093F68"/>
<path d="M171.814 196.905L154.735 221.178C153.904 222.357 153.534 223.8 153.697 225.233C153.86 226.667 154.543 227.99 155.618 228.953C156.56 229.8 157.75 230.321 159.011 230.437C160.273 230.554 161.538 230.26 162.619 229.6L189.069 213.53L171.814 196.905Z" fill="#68E1FD"/>
<path d="M159.568 231.314C160.806 231.313 162.018 230.969 163.073 230.323L189.506 214.244C189.616 214.179 189.71 214.088 189.78 213.98C189.85 213.873 189.894 213.75 189.909 213.623C189.924 213.495 189.908 213.365 189.865 213.244C189.821 213.123 189.75 213.014 189.657 212.925L172.386 196.3C172.299 196.215 172.194 196.15 172.079 196.11C171.965 196.069 171.843 196.054 171.722 196.065C171.6 196.076 171.482 196.113 171.376 196.174C171.27 196.235 171.178 196.318 171.108 196.418L154.046 220.699C153.331 221.707 152.908 222.892 152.822 224.125C152.736 225.357 152.992 226.589 153.561 227.686C154.13 228.783 154.99 229.702 156.046 230.342C157.103 230.982 158.316 231.319 159.552 231.314H159.568ZM187.699 213.379L162.199 228.886C161.208 229.48 160.043 229.717 158.899 229.555C157.755 229.394 156.701 228.844 155.913 227.999C155.126 227.153 154.652 226.063 154.573 224.91C154.493 223.757 154.812 222.612 155.475 221.666L171.974 198.191L187.699 213.379Z" fill="#093F68"/>
<path d="M168.376 172.893C168.376 172.893 167.342 171.288 169.864 168.993C172.385 166.699 189.707 157.983 191.649 155.008C193.59 152.032 178.579 140.442 178.579 140.442C178.579 140.442 158.736 149.612 152.592 160.32C145.868 172.036 141.237 186.5 143.414 188.45C145.591 190.4 153.5 188.719 156.567 189.862C159.635 191.005 177.512 210.311 182.706 217.497C187.9 224.683 189.741 227.742 187.909 233.55L196.927 243.795L203.483 243.451C214.526 242.863 272.519 238.98 276.537 237.568C277.545 237.215 278.68 236.668 278.898 235.626C279.117 234.584 278.402 233.752 277.755 233.004C274.276 229.02 270.275 224.759 265.014 224.238C263.249 224.125 261.477 224.267 259.752 224.658C255.979 225.372 252.289 227.179 248.557 226.381C245.12 225.683 241.354 224.885 238.203 223.305C232.084 220.254 240.951 207.1 237.278 202.209C233.605 197.317 183.269 174.036 175.823 173.465L168.376 172.893Z" fill="#68E1FD"/>
<path d="M196.927 244.636H196.969L203.533 244.291C212.442 243.821 272.561 239.862 276.823 238.358C277.52 238.114 279.386 237.458 279.731 235.794C280.033 234.332 278.966 233.105 278.394 232.432C274.654 228.146 270.544 223.918 265.106 223.38C263.26 223.263 261.406 223.41 259.601 223.817C258.45 224.036 257.298 224.347 256.189 224.658C253.6 225.372 251.146 226.036 248.734 225.549C244.918 224.776 241.523 224.019 238.581 222.548C235.858 221.187 236.9 216.976 237.909 212.513C238.875 208.445 239.875 204.243 237.959 201.696C233.874 196.241 182.757 173.12 175.89 172.616L169.007 172.086C169.007 171.632 169.15 170.767 170.435 169.607C171.377 168.766 174.856 166.741 178.546 164.623C185.883 160.42 191.153 157.269 192.355 155.453C194.498 152.184 183.799 143.434 179.109 139.778C178.991 139.689 178.85 139.632 178.703 139.614C178.555 139.597 178.405 139.618 178.269 139.677C177.428 140.056 158.097 149.082 151.903 159.899C148.651 165.582 145.971 171.573 143.902 177.785C141.876 184.055 141.532 187.87 142.902 189.072C144.271 190.274 147.44 190.341 150.693 190.282C152.861 190.24 155.114 190.207 156.315 190.652C158.913 191.61 176.487 210.269 182.068 217.993C187.287 225.196 188.791 227.978 187.11 233.298C187.062 233.441 187.052 233.595 187.083 233.742C187.114 233.89 187.185 234.027 187.287 234.138L196.305 244.384C196.386 244.466 196.483 244.531 196.59 244.575C196.697 244.618 196.812 244.639 196.927 244.636ZM263.888 225.019C264.232 225.019 264.585 225.019 264.938 225.07C269.771 225.549 273.461 229.356 277.125 233.558C277.697 234.206 278.201 234.886 278.083 235.45C277.966 236.013 277.403 236.374 276.268 236.769C272.528 238.089 216.838 241.904 203.449 242.61L197.289 242.938L188.884 233.348C190.624 227.322 188.43 223.918 183.421 217.01C178.235 209.832 160.325 190.35 156.887 189.072C155.391 188.517 153.088 188.559 150.659 188.602C148.003 188.602 144.986 188.702 144.011 187.82C142.624 186.584 145.994 173.532 153.349 160.74C158.786 151.276 175.52 142.871 178.512 141.409C187.497 148.402 191.599 153.587 190.985 154.529C189.926 156.142 182.883 160.193 177.739 163.16C173.806 165.421 170.419 167.363 169.334 168.354C166.317 171.094 167.653 173.238 167.704 173.33C167.773 173.439 167.867 173.531 167.978 173.598C168.089 173.665 168.214 173.706 168.343 173.717L175.798 174.288C183.253 174.86 233.295 198.225 236.648 202.696C238.094 204.613 237.186 208.428 236.312 212.118C235.152 217.018 233.95 222.086 237.867 224.044C240.985 225.608 244.498 226.389 248.431 227.188C251.247 227.759 254.004 227.003 256.668 226.272C257.744 225.977 258.862 225.675 259.954 225.431C261.25 225.175 262.567 225.037 263.888 225.019Z" fill="#093F68"/>
<path d="M159.695 226.44C158.242 226.44 157.064 225.262 157.064 223.809C157.064 222.356 158.242 221.178 159.695 221.178C161.147 221.178 162.325 222.356 162.325 223.809C162.325 225.262 161.147 226.44 159.695 226.44Z" fill="#68E1FD"/>
<path d="M159.695 227.28C160.381 227.28 161.053 227.077 161.623 226.695C162.194 226.314 162.639 225.772 162.902 225.137C163.165 224.503 163.233 223.805 163.099 223.132C162.965 222.458 162.635 221.84 162.149 221.355C161.664 220.869 161.045 220.538 160.372 220.405C159.699 220.271 159.001 220.339 158.366 220.602C157.732 220.865 157.19 221.31 156.809 221.881C156.427 222.451 156.224 223.122 156.224 223.809C156.226 224.729 156.592 225.611 157.243 226.261C157.893 226.912 158.775 227.278 159.695 227.28ZM159.695 222.019C160.049 222.019 160.395 222.124 160.689 222.32C160.984 222.517 161.213 222.797 161.349 223.124C161.484 223.451 161.52 223.811 161.451 224.158C161.382 224.506 161.211 224.824 160.961 225.075C160.71 225.325 160.391 225.496 160.044 225.565C159.697 225.634 159.337 225.598 159.01 225.463C158.683 225.327 158.403 225.098 158.206 224.804C158.01 224.509 157.905 224.163 157.905 223.809C157.907 223.335 158.096 222.881 158.431 222.546C158.767 222.21 159.221 222.021 159.695 222.019Z" fill="#093F68"/>
<path d="M225.974 217.749C221.922 217.749 218.637 214.464 218.637 210.412C218.637 206.359 221.922 203.074 225.974 203.074C230.026 203.074 233.312 206.359 233.312 210.412C233.312 214.464 230.026 217.749 225.974 217.749Z" fill="#093F68"/>
<path d="M225.974 218.59C227.591 218.59 229.173 218.11 230.517 217.211C231.862 216.313 232.91 215.036 233.529 213.541C234.148 212.047 234.31 210.403 233.995 208.816C233.679 207.23 232.9 205.773 231.757 204.629C230.613 203.486 229.156 202.707 227.569 202.391C225.983 202.076 224.339 202.238 222.845 202.857C221.35 203.476 220.073 204.524 219.174 205.869C218.276 207.213 217.796 208.794 217.796 210.412C217.796 212.581 218.658 214.661 220.191 216.194C221.725 217.728 223.805 218.59 225.974 218.59ZM225.974 203.915C227.259 203.915 228.515 204.296 229.584 205.01C230.652 205.724 231.485 206.738 231.976 207.926C232.468 209.113 232.597 210.419 232.346 211.679C232.095 212.94 231.477 214.097 230.568 215.006C229.659 215.914 228.502 216.533 227.242 216.784C225.981 217.035 224.675 216.906 223.488 216.414C222.301 215.922 221.286 215.09 220.572 214.021C219.858 212.953 219.477 211.697 219.477 210.412C219.488 208.695 220.177 207.053 221.394 205.842C222.611 204.631 224.257 203.951 225.974 203.949V203.915Z" fill="#093F68"/>
<path d="M156.567 190.703C156.67 190.702 156.772 190.685 156.87 190.652C157.45 190.425 171.158 185.114 175.764 179.987C175.912 179.822 175.99 179.604 175.979 179.382C175.968 179.16 175.869 178.951 175.705 178.802C175.622 178.727 175.526 178.67 175.421 178.633C175.316 178.596 175.205 178.58 175.094 178.586C174.983 178.592 174.874 178.621 174.774 178.669C174.674 178.718 174.585 178.786 174.511 178.869C170.191 183.693 156.399 189.022 156.265 189.081C156.083 189.152 155.932 189.285 155.838 189.456C155.743 189.626 155.711 189.825 155.747 190.016C155.783 190.208 155.884 190.382 156.034 190.507C156.184 190.632 156.372 190.701 156.567 190.703Z" fill="#093F68"/>
<path d="M178.496 174.053L185.346 163.261L189.817 165.152L185.379 176.457L178.496 174.053Z" fill="#093F68"/>
<path d="M185.38 177.297C185.549 177.297 185.714 177.245 185.854 177.149C185.993 177.053 186.1 176.917 186.161 176.759L190.599 165.463C190.68 165.259 190.678 165.031 190.593 164.829C190.508 164.626 190.347 164.465 190.145 164.379L185.674 162.488C185.491 162.411 185.288 162.401 185.099 162.459C184.909 162.518 184.747 162.641 184.64 162.807L177.79 173.599C177.722 173.706 177.679 173.826 177.664 173.952C177.649 174.078 177.663 174.205 177.704 174.324C177.746 174.444 177.813 174.553 177.902 174.643C177.991 174.732 178.099 174.801 178.219 174.843L185.094 177.247C185.185 177.28 185.282 177.297 185.38 177.297ZM188.741 165.606L184.892 175.373L179.774 173.591L185.657 164.295L188.741 165.606Z" fill="#093F68"/>
<path d="M186.992 166.245L195.7 171.481L193.792 174.767L184.849 169.859C184.849 169.859 184.311 166.245 186.992 166.245Z" fill="#68E1FD"/>
<path d="M193.793 175.608C193.941 175.608 194.087 175.57 194.215 175.496C194.344 175.422 194.45 175.316 194.524 175.188L196.432 171.901C196.543 171.71 196.574 171.483 196.519 171.269C196.464 171.056 196.327 170.872 196.138 170.758L187.422 165.522C187.292 165.445 187.144 165.404 186.994 165.404C186.586 165.389 186.18 165.463 185.806 165.623C185.431 165.783 185.096 166.024 184.825 166.329C183.707 167.623 183.985 169.741 183.985 169.977C184.004 170.105 184.053 170.227 184.127 170.334C184.201 170.44 184.299 170.528 184.413 170.59L193.398 175.499C193.518 175.569 193.654 175.607 193.793 175.608ZM194.566 171.775L193.482 173.633L185.649 169.338C185.583 168.67 185.739 167.999 186.094 167.43C186.18 167.332 186.284 167.252 186.401 167.194C186.518 167.136 186.645 167.102 186.775 167.094L194.566 171.775Z" fill="#093F68"/>
<path d="M193.792 174.767C193.513 174.428 193.36 174.001 193.36 173.561C193.36 173.121 193.513 172.695 193.792 172.355C194.725 170.893 195.7 171.515 195.7 171.515C195.947 171.758 196.122 172.065 196.204 172.403C196.285 172.74 196.271 173.093 196.162 173.423C195.86 174.692 194.364 175.373 193.792 174.767Z" fill="#68E1FD"/>
<path d="M194.355 175.818C194.56 175.815 194.764 175.784 194.96 175.725C195.456 175.578 195.904 175.303 196.258 174.926C196.612 174.55 196.861 174.086 196.977 173.582C197.123 173.099 197.13 172.584 196.998 172.097C196.866 171.609 196.6 171.169 196.229 170.826L196.137 170.758C195.557 170.405 194.17 170.204 193.086 171.91C192.707 172.41 192.511 173.025 192.531 173.652C192.551 174.279 192.785 174.881 193.195 175.356C193.349 175.505 193.53 175.623 193.729 175.702C193.928 175.782 194.141 175.821 194.355 175.818ZM195.229 172.196C195.317 172.345 195.374 172.511 195.394 172.683C195.414 172.855 195.398 173.03 195.347 173.196C195.308 173.368 195.236 173.532 195.133 173.676C195.031 173.821 194.901 173.943 194.75 174.036C194.634 174.112 194.501 174.158 194.363 174.171C194.246 173.962 194.197 173.723 194.221 173.485C194.245 173.248 194.342 173.023 194.498 172.843C194.851 172.263 195.128 172.196 195.229 172.196Z" fill="#093F68"/>
<path d="M294.338 226.44C292.885 226.44 291.707 225.262 291.707 223.809C291.707 222.356 292.885 221.178 294.338 221.178C295.791 221.178 296.969 222.356 296.969 223.809C296.969 225.262 295.791 226.44 294.338 226.44Z" fill="#68E1FD"/>
<path d="M294.339 227.28C295.025 227.28 295.697 227.077 296.267 226.695C296.838 226.314 297.283 225.772 297.546 225.137C297.809 224.503 297.877 223.805 297.743 223.132C297.609 222.458 297.279 221.84 296.793 221.355C296.308 220.869 295.689 220.538 295.016 220.405C294.343 220.271 293.645 220.339 293.011 220.602C292.376 220.865 291.834 221.31 291.453 221.881C291.071 222.451 290.868 223.122 290.868 223.809C290.868 224.73 291.233 225.613 291.884 226.263C292.535 226.914 293.418 227.28 294.339 227.28ZM294.339 222.019C294.693 222.019 295.039 222.124 295.333 222.32C295.628 222.517 295.857 222.797 295.993 223.124C296.128 223.451 296.164 223.811 296.095 224.158C296.026 224.506 295.855 224.824 295.605 225.075C295.354 225.325 295.035 225.496 294.688 225.565C294.341 225.634 293.981 225.598 293.654 225.463C293.327 225.327 293.047 225.098 292.85 224.804C292.654 224.509 292.549 224.163 292.549 223.809C292.549 223.334 292.737 222.879 293.073 222.543C293.409 222.207 293.864 222.019 294.339 222.019Z" fill="#093F68"/>
<path d="M267.605 210.1L298.221 194.413C299.84 193.583 301.825 194.223 302.655 195.843L305.476 201.348C306.306 202.967 305.666 204.953 304.046 205.783L273.431 221.47C271.811 222.299 269.826 221.659 268.996 220.04L266.175 214.535C265.346 212.915 265.986 210.93 267.605 210.1Z" fill="#F56132"/>
<path d="M271.923 222.683C272.577 222.682 273.223 222.527 273.806 222.229L304.432 206.537C305.407 206.036 306.143 205.169 306.479 204.126C306.815 203.082 306.722 201.949 306.223 200.973L303.399 195.46C302.898 194.485 302.03 193.749 300.987 193.413C299.944 193.077 298.81 193.17 297.835 193.67L267.208 209.353C266.725 209.601 266.297 209.941 265.946 210.355C265.596 210.769 265.33 211.248 265.165 211.765C264.995 212.281 264.93 212.825 264.973 213.366C265.017 213.907 265.168 214.435 265.418 214.917L268.2 220.43C268.548 221.107 269.075 221.675 269.725 222.072C270.374 222.47 271.12 222.681 271.881 222.683H271.923ZM299.717 194.897C300.168 194.897 300.611 195.021 300.996 195.255C301.381 195.489 301.695 195.824 301.903 196.225L304.727 201.738C305.023 202.318 305.077 202.992 304.878 203.612C304.779 203.919 304.621 204.204 304.412 204.449C304.202 204.694 303.947 204.895 303.659 205.041L273.041 220.758C272.459 221.048 271.787 221.102 271.166 220.909C270.548 220.707 270.035 220.269 269.738 219.691L266.914 214.177C266.619 213.597 266.566 212.924 266.766 212.306C266.966 211.687 267.403 211.172 267.981 210.874L298.6 195.191C298.943 195.004 299.327 194.903 299.717 194.897Z" fill="#093F68"/>
<path d="M299.667 205.386C299.872 205.388 300.071 205.314 300.225 205.179C300.38 205.045 300.48 204.858 300.507 204.655L301.196 199.729C301.227 199.509 301.17 199.285 301.036 199.107C300.902 198.929 300.703 198.811 300.482 198.78C300.261 198.749 300.037 198.806 299.859 198.94C299.681 199.074 299.563 199.273 299.532 199.494L298.843 204.428C298.812 204.648 298.87 204.872 299.004 205.05C299.138 205.229 299.337 205.346 299.557 205.377L299.667 205.386Z" fill="#093F68"/>
<path d="M296.28 207.311C296.484 207.313 296.682 207.24 296.836 207.107C296.991 206.974 297.092 206.79 297.12 206.588L297.81 201.654C297.841 201.433 297.783 201.209 297.649 201.031C297.515 200.853 297.316 200.736 297.095 200.704C296.985 200.689 296.873 200.696 296.766 200.724C296.659 200.752 296.558 200.801 296.47 200.868C296.381 200.935 296.307 201.019 296.252 201.115C296.196 201.211 296.16 201.317 296.145 201.427L295.456 206.352C295.425 206.573 295.483 206.797 295.617 206.975C295.751 207.153 295.95 207.271 296.171 207.302L296.28 207.311Z" fill="#093F68"/>
<path d="M292.901 209.193C293.106 209.195 293.305 209.122 293.46 208.987C293.615 208.852 293.715 208.665 293.742 208.462L294.431 203.537C294.462 203.314 294.403 203.088 294.268 202.908C294.132 202.728 293.931 202.61 293.708 202.579C293.485 202.547 293.259 202.606 293.079 202.742C292.9 202.877 292.781 203.079 292.75 203.302L292.061 208.235C292.045 208.345 292.052 208.457 292.08 208.564C292.108 208.672 292.157 208.772 292.224 208.861C292.291 208.949 292.375 209.023 292.471 209.079C292.567 209.134 292.673 209.17 292.783 209.185L292.901 209.193Z" fill="#093F68"/>
<path d="M221.796 182.516C225.8 182.578 229.788 181.991 233.605 180.777C233.814 180.7 233.985 180.543 234.078 180.34C234.172 180.138 234.182 179.906 234.105 179.697C234.028 179.487 233.871 179.317 233.668 179.223C233.466 179.129 233.234 179.12 233.025 179.197C224.887 181.557 216.22 181.36 208.197 178.633C207.986 178.564 207.757 178.581 207.559 178.68C207.36 178.779 207.209 178.953 207.138 179.163C207.103 179.268 207.088 179.379 207.095 179.489C207.103 179.6 207.132 179.708 207.181 179.807C207.23 179.906 207.299 179.994 207.382 180.067C207.466 180.14 207.563 180.195 207.668 180.23C212.225 181.74 216.995 182.511 221.796 182.516Z" fill="#093F68"/>
<path d="M146.776 184.618C146.776 184.618 154.652 177.457 157.064 178.373C159.476 179.289 157.215 182.458 153.702 184.618C150.189 186.778 146.625 186.156 146.776 184.618Z" fill="#FFBC0E"/>
<path d="M149.213 186.87C150.955 186.821 152.651 186.301 154.122 185.366C156.442 183.945 159.089 181.542 158.896 179.482C158.848 179.057 158.677 178.656 158.404 178.327C158.131 177.999 157.767 177.757 157.358 177.633C154.677 176.616 148.154 182.281 146.213 184.038C146.06 184.178 145.964 184.369 145.944 184.576C145.915 184.927 145.987 185.279 146.153 185.591C146.318 185.902 146.57 186.16 146.877 186.332C147.592 186.721 148.4 186.907 149.213 186.87ZM156.509 179.146C156.595 179.145 156.68 179.159 156.761 179.188C157.198 179.348 157.215 179.533 157.223 179.625C157.299 180.466 155.803 182.365 153.239 183.928C150.819 185.408 148.55 185.382 147.776 184.895C151.088 181.937 155.105 179.146 156.509 179.146Z" fill="#093F68"/>
<path d="M210.904 239.022C211.112 239.021 211.313 238.943 211.467 238.803C211.633 238.655 211.733 238.447 211.746 238.224C211.758 238.002 211.682 237.784 211.534 237.618L168.183 189.299C168.033 189.133 167.824 189.033 167.601 189.021C167.378 189.009 167.16 189.087 166.993 189.236C166.827 189.385 166.727 189.595 166.716 189.818C166.704 190.041 166.781 190.259 166.93 190.425L210.282 238.744C210.361 238.831 210.457 238.901 210.564 238.949C210.671 238.996 210.787 239.021 210.904 239.022Z" fill="#093F68"/>
</g>
</g>
<path opacity="0.1" d="M231.232 268.654C299.118 266.399 353.856 255.713 353.493 244.786C353.13 233.858 297.803 226.828 229.918 229.083C162.032 231.338 107.294 242.025 107.657 252.952C108.02 263.879 163.347 270.91 231.232 268.654Z" fill="#6C63FF"/>
<defs>
<linearGradient id="paint0_linear_1675_3204" x1="166.974" y1="196.718" x2="166.974" y2="79.8704" gradientUnits="userSpaceOnUse">
<stop stop-color="#808080" stop-opacity="0.25"/>
<stop offset="0.54" stop-color="#808080" stop-opacity="0.12"/>
<stop offset="1" stop-color="#808080" stop-opacity="0.1"/>
</linearGradient>
<linearGradient id="paint1_linear_1675_3204" x1="192.121" y1="167.089" x2="214.686" y2="83.283" gradientUnits="userSpaceOnUse">
<stop stop-color="#808080" stop-opacity="0.25"/>
<stop offset="0.54" stop-color="#808080" stop-opacity="0.12"/>
<stop offset="1" stop-color="#808080" stop-opacity="0.1"/>
</linearGradient>
<linearGradient id="paint2_linear_1675_3204" x1="76.6837" y1="235.235" x2="76.6837" y2="51.0193" gradientUnits="userSpaceOnUse">
<stop stop-color="#808080" stop-opacity="0.25"/>
<stop offset="0.54" stop-color="#808080" stop-opacity="0.12"/>
<stop offset="1" stop-color="#808080" stop-opacity="0.1"/>
</linearGradient>
<clipPath id="clip0_1675_3204">
<rect width="337.478" height="258.682" fill="white"/>
</clipPath>
<clipPath id="clip1_1675_3204">
<rect width="200.058" height="116.92" fill="white" transform="matrix(-1 0 0 1 327.058 139.608)"/>
</clipPath>
</defs>
</svg>
