<svg width="123" height="127" viewBox="0 0 123 127" fill="none" xmlns="http://www.w3.org/2000/svg">
<g clip-path="url(#clip0_1868_3398)">
<path d="M73.8446 42.5632C68.7658 39.8596 63.3734 37.7916 57.7892 36.4059C53.1118 35.2443 47.5602 33.0274 43.0764 35.3317C36.0635 38.9412 31.3612 45.4608 30.6555 53.2294C30.2246 57.9567 30.2308 62.6528 29.4627 67.3426C28.7134 71.9201 28.0764 76.1603 30.9365 80.3381C32.2852 82.1652 33.9833 83.7063 35.9324 84.8718C46.5485 91.7411 60.0498 92.7091 72.5457 90.7919C79.415 89.7365 86.659 87.5384 90.8305 81.9867C92.1622 80.2095 93.1086 78.1741 93.6094 76.0104C94.0688 74.2311 94.0559 72.3627 93.572 70.59C91.9296 65.2569 85.2601 63.0962 82.7185 58.1003C80.9325 54.597 81.4695 50.1569 79.2713 46.8597C77.9912 44.9363 75.9116 43.6623 73.8446 42.5632Z" fill="#725858"/>
<path d="M61.5605 92.2843C53.1862 92.2843 43.8002 90.6794 35.607 85.415C33.5878 84.2002 31.825 82.6029 30.4176 80.7127C27.3701 76.2601 28.1195 71.6827 28.8439 67.2614C29.2825 64.2851 29.5618 61.2874 29.6807 58.2813C29.7806 56.614 29.8805 54.8904 30.0304 53.1856C30.7486 45.2984 35.401 38.5977 42.7886 34.7946C46.7665 32.7526 51.4751 34.0515 55.6217 35.2005C56.4147 35.4191 57.1891 35.6314 57.9385 35.825C63.5744 37.2325 69.0152 39.3299 74.1375 42.0698C76.2795 43.2064 78.4464 44.5677 79.8078 46.5973C81.0568 48.4707 81.4564 50.6814 81.8499 52.8421C82.0831 54.5885 82.5669 56.2921 83.2862 57.9004C84.3977 60.0736 86.4086 61.7472 88.357 63.3646C90.755 65.363 93.2404 67.4237 94.1834 70.4899C94.7068 72.3673 94.7219 74.3501 94.2271 76.2352C93.7066 78.4821 92.724 80.596 91.342 82.4425C87.8137 87.1386 81.6937 90.0986 72.6513 91.485C68.9801 92.0337 65.2724 92.3009 61.5605 92.2843ZM47.6033 34.9445C46.1326 34.9133 44.6761 35.2368 43.3568 35.8875C36.3564 39.4907 31.9538 45.8292 31.2794 53.2855C31.1233 54.9653 31.0233 56.6827 30.9297 58.3375C30.8046 61.3873 30.5211 64.4284 30.0804 67.4487C29.3622 71.8201 28.6815 75.9479 31.448 79.9883C32.7501 81.7545 34.3938 83.241 36.2815 84.3597C48.0717 91.9534 62.4597 91.7223 72.4577 90.1861C81.2878 88.8309 86.9706 86.1082 90.3428 81.6244C91.6186 79.9162 92.5265 77.9621 93.0093 75.8855C93.4585 74.2166 93.4585 72.4586 93.0093 70.7897C92.1725 68.0794 89.9431 66.2247 87.5764 64.2576C85.5343 62.559 83.4173 60.798 82.1933 58.4C81.4209 56.6851 80.8993 54.868 80.6446 53.0045C80.2512 50.8937 79.889 48.9079 78.7712 47.2468C77.6534 45.5856 75.8611 44.3554 73.5568 43.1252C68.5238 40.442 63.1797 38.3887 57.645 37.0115C56.8831 36.8242 56.0963 36.6056 55.2969 36.387C52.7116 35.6751 50.0763 34.9445 47.6033 34.9445Z" fill="#093F68"/>
<path d="M84.9657 36.0752C84.4689 36.0752 83.9923 35.8778 83.641 35.5265C83.2897 35.1751 83.0923 34.6986 83.0923 34.2017V28.1692C83.0857 22.0615 80.6564 16.2057 76.3376 11.8869C72.0187 7.56799 66.163 5.13875 60.0552 5.13214H54.5223C48.4145 5.13875 42.5587 7.56799 38.2399 11.8869C33.921 16.2057 31.4918 22.0615 31.4852 28.1692V34.2017C31.4852 34.6986 31.2878 35.1751 30.9365 35.5265C30.5851 35.8778 30.1086 36.0752 29.6117 36.0752C29.1149 36.0752 28.6383 35.8778 28.287 35.5265C27.9357 35.1751 27.7383 34.6986 27.7383 34.2017V28.1692C27.7465 21.0682 30.5711 14.2604 35.5923 9.23923C40.6134 4.21805 47.4213 1.39352 54.5223 1.38525H60.0802C67.1812 1.39352 73.989 4.21805 79.0102 9.23923C84.0314 14.2604 86.8559 21.0682 86.8641 28.1692V34.2017C86.8642 34.4499 86.8149 34.6955 86.7192 34.9245C86.6235 35.1534 86.4833 35.3611 86.3066 35.5354C86.13 35.7097 85.9205 35.8471 85.6903 35.9398C85.4601 36.0325 85.2138 36.0785 84.9657 36.0752Z" fill="#F56132"/>
<path d="M84.9662 36.6996C84.3037 36.6996 83.6683 36.4365 83.1999 35.968C82.7314 35.4995 82.4683 34.8642 82.4683 34.2017V28.1692C82.4616 22.227 80.0982 16.5302 75.8965 12.3284C71.6947 8.12665 65.9978 5.7632 60.0556 5.75659H54.5227C48.5806 5.7632 42.8837 8.12665 38.6819 12.3284C34.4802 16.5302 32.1167 22.227 32.1101 28.1692V34.2017C32.1101 34.8642 31.8469 35.4995 31.3785 35.968C30.91 36.4365 30.2747 36.6996 29.6122 36.6996C28.9497 36.6996 28.3143 36.4365 27.8459 35.968C27.3774 35.4995 27.1143 34.8642 27.1143 34.2017V28.1692C27.1225 20.9026 30.0128 13.9359 35.1511 8.79763C40.2894 3.65933 47.2561 0.769006 54.5227 0.760742H60.0806C67.3473 0.769006 74.3139 3.65933 79.4522 8.79763C84.5905 13.9359 87.4808 20.9026 87.4891 28.1692V34.2017C87.4891 34.5318 87.4237 34.8587 87.2966 35.1634C87.1695 35.4681 86.9833 35.7446 86.7487 35.9769C86.514 36.2092 86.2357 36.3927 85.9298 36.5167C85.6238 36.6408 85.2963 36.7029 84.9662 36.6996ZM54.5227 4.50763H60.0806C66.3535 4.51589 72.3671 7.01145 76.8028 11.4471C81.2384 15.8827 83.7339 21.8963 83.7422 28.1692V34.2017C83.7422 34.533 83.8738 34.8506 84.108 35.0849C84.3422 35.3191 84.6599 35.4507 84.9912 35.4507C85.3224 35.4507 85.6401 35.3191 85.8743 35.0849C86.1085 34.8506 86.2401 34.533 86.2401 34.2017V28.1692C86.2319 21.2338 83.4731 14.5848 78.5691 9.68078C73.665 4.77671 67.016 2.01797 60.0806 2.0097H54.5227C47.5873 2.01797 40.9384 4.77671 36.0343 9.68078C31.1302 14.5848 28.3715 21.2338 28.3632 28.1692V34.2017C28.3632 34.533 28.4948 34.8506 28.729 35.0849C28.9633 35.3191 29.2809 35.4507 29.6122 35.4507C29.9434 35.4507 30.2611 35.3191 30.4953 35.0849C30.7296 34.8506 30.8611 34.533 30.8611 34.2017V28.1692C30.8678 21.8958 33.3628 15.8812 37.7988 11.4453C42.2347 7.00928 48.2493 4.51424 54.5227 4.50763Z" fill="#093F68"/>
<path d="M53.1992 76.6103V71.6394H61.842V76.6103" fill="#FFC9B0"/>
<path d="M61.8425 77.235C61.6769 77.235 61.518 77.1693 61.4009 77.0521C61.2838 76.935 61.218 76.7762 61.218 76.6106V72.2392H53.8242V76.6106C53.8242 76.7762 53.7584 76.935 53.6413 77.0521C53.5241 77.1693 53.3653 77.235 53.1997 77.235C53.0341 77.235 52.8752 77.1693 52.7581 77.0521C52.641 76.935 52.5752 76.7762 52.5752 76.6106V71.6147C52.5752 71.4491 52.641 71.2903 52.7581 71.1731C52.8752 71.056 53.0341 70.9902 53.1997 70.9902H61.8425C62.0081 70.9902 62.167 71.056 62.2841 71.1731C62.4012 71.2903 62.467 71.4491 62.467 71.6147V76.6106C62.467 76.7762 62.4012 76.935 62.2841 77.0521C62.167 77.1693 62.0081 77.235 61.8425 77.235Z" fill="#093F68"/>
<path d="M57.5023 72.8008C44.7566 72.8008 34.3965 65.2134 34.3965 51.225V38.2421C34.3965 31.8536 39.4423 26.8765 45.2312 27.5634C50.0522 28.1317 51.3012 31.3915 59.3507 31.5414C62.673 31.6101 65.8079 27.4323 68.5806 26.8765C74.4132 25.6962 79.8212 30.4485 80.121 36.9494L80.5581 51.1938C80.5831 65.1822 70.2479 72.8008 57.5023 72.8008Z" fill="#FFC9B0"/>
<path d="M57.502 73.4253C43.3201 73.4253 33.7718 64.5077 33.7718 51.225V38.2421C33.7605 36.5799 34.1014 34.9343 34.7719 33.4134C35.4425 31.8925 36.4276 30.5309 37.6623 29.4181C38.6909 28.475 39.9102 27.7639 41.2376 27.3329C42.5649 26.9019 43.9694 26.7612 45.3559 26.9202C47.1126 27.1769 48.8065 27.7571 50.3517 28.6313C53.1198 30.1486 56.2314 30.9292 59.388 30.8982C61.0741 30.9356 62.7789 29.6867 64.44 28.4814C65.8264 27.4698 67.144 26.5143 68.4804 26.2458C69.8687 25.9639 71.3021 25.9918 72.6784 26.3275C74.0547 26.6632 75.34 27.2984 76.4425 28.1879C77.755 29.2439 78.8219 30.5729 79.5692 32.0827C80.3166 33.5924 80.7264 35.2467 80.7702 36.9306L81.2073 51.1813C81.2073 64.4765 71.6778 73.4253 57.502 73.4253ZM44.1819 28.1255C42.0694 28.1305 40.0337 28.9181 38.4678 30.3361C37.3737 31.3353 36.5032 32.5545 35.9134 33.9138C35.3236 35.2731 35.0279 36.7417 35.0457 38.2233V51.1938C35.0457 65.6693 46.3238 72.1451 57.527 72.1451C68.7302 72.1451 80.0083 65.6693 80.0083 51.1938L79.5712 36.9681C79.5293 35.4698 79.1632 33.9983 78.498 32.655C77.8328 31.3118 76.8845 30.1286 75.7181 29.1871C74.7578 28.4111 73.6381 27.8565 72.4389 27.5629C71.2396 27.2693 69.9904 27.2439 68.7802 27.4885C67.7061 27.7008 66.5008 28.5813 65.2206 29.5056C63.3971 30.8357 61.4737 32.2158 59.4129 32.1659C56.0721 32.1914 52.7797 31.3661 49.8459 29.7678C48.3971 28.9471 46.8056 28.4089 45.156 28.1817C44.8326 28.1452 44.5074 28.1264 44.1819 28.1255Z" fill="#093F68"/>
<path d="M46.3229 52.6553C47.5472 52.6553 48.5398 51.6627 48.5398 50.4383C48.5398 49.214 47.5472 48.2214 46.3229 48.2214C45.0985 48.2214 44.106 49.214 44.106 50.4383C44.106 51.6627 45.0985 52.6553 46.3229 52.6553Z" fill="#093F68"/>
<path d="M69.1857 52.6553C70.41 52.6553 71.4026 51.6627 71.4026 50.4383C71.4026 49.214 70.41 48.2214 69.1857 48.2214C67.9613 48.2214 66.9688 49.214 66.9688 50.4383C66.9688 51.6627 67.9613 52.6553 69.1857 52.6553Z" fill="#093F68"/>
<path d="M57.7448 57.713C57.0254 57.7084 56.3073 57.65 55.5966 57.5382C55.431 57.51 55.2833 57.4172 55.1861 57.2802C55.0889 57.1432 55.0501 56.9731 55.0783 56.8075C55.1065 56.6419 55.1992 56.4942 55.3363 56.397C55.4733 56.2998 55.6433 56.261 55.8089 56.2892C56.9198 56.4661 58.0516 56.4661 59.1624 56.2892C59.356 55.7084 58.5067 53.273 57.289 50.9624C57.2511 50.8894 57.228 50.8097 57.221 50.7278C57.214 50.6459 57.2232 50.5634 57.2482 50.4851C57.2731 50.4068 57.3133 50.3341 57.3664 50.2714C57.4194 50.2086 57.4844 50.1569 57.5575 50.1193C57.7035 50.0443 57.8731 50.0298 58.0297 50.0789C58.1863 50.128 58.3173 50.2367 58.3943 50.3816C59.0188 51.5369 60.8922 55.4149 60.2677 56.8388C60.1973 56.9944 60.0919 57.1317 59.9598 57.24C59.8276 57.3483 59.6723 57.4247 59.5059 57.4632C58.9311 57.6173 58.3398 57.7012 57.7448 57.713Z" fill="#093F68"/>
<path d="M50.1014 45.6172H39.8162C39.5528 45.6172 39.3003 45.5126 39.1141 45.3264C38.9279 45.1402 38.8232 44.8876 38.8232 44.6243C38.8232 44.3609 38.9279 44.1084 39.1141 43.9222C39.3003 43.736 39.5528 43.6313 39.8162 43.6313H50.1014C50.3647 43.6313 50.6173 43.736 50.8035 43.9222C50.9897 44.1084 51.0943 44.3609 51.0943 44.6243C51.0943 44.8876 50.9897 45.1402 50.8035 45.3264C50.6173 45.5126 50.3647 45.6172 50.1014 45.6172Z" fill="#093F68"/>
<path d="M75.6873 45.6172H65.4021C65.1388 45.6172 64.8862 45.5126 64.7 45.3264C64.5138 45.1402 64.4092 44.8876 64.4092 44.6243C64.4092 44.3609 64.5138 44.1084 64.7 43.9222C64.8862 43.736 65.1388 43.6313 65.4021 43.6313H75.6873C75.9506 43.6313 76.2032 43.736 76.3894 43.9222C76.5756 44.1084 76.6802 44.3609 76.6802 44.6243C76.6802 44.8876 76.5756 45.1402 76.3894 45.3264C76.2032 45.5126 75.9506 45.6172 75.6873 45.6172Z" fill="#093F68"/>
<path d="M48.3339 57.9628H43.6441C42.0336 57.9628 40.4891 57.3235 39.3498 56.1853C38.2104 55.0472 37.5695 53.5033 37.5679 51.8928V48.939C37.5695 48.2279 37.8532 47.5465 38.3566 47.0443C38.86 46.5421 39.542 46.26 40.2531 46.26H51.7249C52.4354 46.26 53.1168 46.5423 53.6192 47.0447C54.1216 47.5471 54.4039 48.2285 54.4039 48.939V51.8928C54.4022 53.5022 53.7622 55.0451 52.6242 56.1831C51.4862 57.3211 49.9433 57.9611 48.3339 57.9628ZM40.2531 47.509C39.8733 47.509 39.5089 47.6594 39.2397 47.9274C38.9705 48.1955 38.8185 48.5592 38.8168 48.939V51.8928C38.8185 53.172 39.3278 54.3982 40.2329 55.3022C41.138 56.2061 42.3649 56.7138 43.6441 56.7138H48.3339C49.6125 56.7138 50.8388 56.2059 51.7429 55.3018C52.647 54.3977 53.1549 53.1714 53.1549 51.8928V48.939C53.1533 48.5603 53.0021 48.1975 52.7342 47.9296C52.4664 47.6618 52.1036 47.5106 51.7249 47.509H40.2531Z" fill="#093F68"/>
<path d="M70.6147 57.9628H65.9186C64.3092 57.9611 62.7663 57.3211 61.6283 56.1831C60.4903 55.0451 59.8503 53.5022 59.8486 51.8928V48.939C59.8503 48.2279 60.1339 47.5465 60.6373 47.0443C61.1407 46.5421 61.8228 46.26 62.5339 46.26H74.0056C74.7156 46.2617 75.3961 46.5444 75.8982 47.0465C76.4002 47.5486 76.683 48.229 76.6846 48.939V51.8928C76.683 53.5022 76.0429 55.0451 74.905 56.1831C73.767 57.3211 72.224 57.9611 70.6147 57.9628ZM62.5339 47.509C62.1541 47.509 61.7897 47.6594 61.5205 47.9274C61.2513 48.1955 61.0992 48.5592 61.0976 48.939V51.8928C61.0992 53.1709 61.6077 54.3962 62.5115 55.3C63.4152 56.2037 64.6405 56.7122 65.9186 56.7138H70.6147C71.8933 56.7138 73.1195 56.2059 74.0236 55.3018C74.9278 54.3977 75.4357 53.1714 75.4357 51.8928V48.939C75.434 48.5603 75.2828 48.1975 75.015 47.9296C74.7472 47.6618 74.3844 47.5106 74.0056 47.509H62.5339Z" fill="#093F68"/>
<path d="M60.05 51.0631C59.9012 51.0631 59.7572 51.0099 59.6441 50.9132C57.1087 48.7338 54.5858 50.8258 54.4796 50.9132C54.4173 50.9665 54.3451 51.007 54.2671 51.0324C54.1891 51.0578 54.1069 51.0676 54.0252 51.0612C53.9434 51.0548 53.8637 51.0324 53.7906 50.9952C53.7175 50.958 53.6524 50.9068 53.5991 50.8445C53.5458 50.7822 53.5053 50.71 53.4799 50.632C53.4545 50.554 53.4447 50.4718 53.4511 50.39C53.4575 50.3083 53.4799 50.2285 53.5171 50.1554C53.5543 50.0823 53.6055 50.0173 53.6678 49.964C54.6094 49.1434 55.8161 48.6914 57.065 48.6914C58.3139 48.6914 59.5206 49.1434 60.4622 49.964C60.5871 50.0725 60.6639 50.2262 60.6756 50.3913C60.6873 50.5564 60.633 50.7194 60.5246 50.8445C60.466 50.913 60.3932 50.9681 60.3113 51.0058C60.2294 51.0435 60.1402 51.0631 60.05 51.0631Z" fill="#093F68"/>
<path d="M38.193 49.5642C38.1007 49.5636 38.0094 49.5444 37.9245 49.508L30.8928 46.1733C30.7429 46.1021 30.6275 45.9742 30.5718 45.8179C30.5162 45.6615 30.525 45.4895 30.5962 45.3396C30.6674 45.1897 30.7953 45.0743 30.9516 45.0186C31.1079 44.963 31.28 44.9718 31.4299 45.043L38.4615 48.3777C38.5885 48.4392 38.6909 48.5418 38.752 48.6689C38.8132 48.796 38.8296 48.94 38.7984 49.0776C38.7673 49.2152 38.6905 49.3381 38.5806 49.4265C38.4707 49.5148 38.3341 49.5634 38.193 49.5642Z" fill="#093F68"/>
<path d="M76.3801 49.564C76.2402 49.5632 76.1047 49.5155 75.9952 49.4285C75.8858 49.3415 75.8087 49.2202 75.7763 49.0842C75.7439 48.9482 75.7581 48.8052 75.8166 48.6782C75.8751 48.5512 75.9746 48.4475 76.099 48.3838L81.7194 45.6048C81.8684 45.532 82.0403 45.5213 82.1973 45.5752C82.3542 45.629 82.4833 45.743 82.5562 45.8921C82.629 46.0412 82.6397 46.2131 82.5859 46.37C82.532 46.5269 82.418 46.656 82.2689 46.7289L76.6486 49.5016C76.5648 49.5422 76.4731 49.5635 76.3801 49.564Z" fill="#093F68"/>
<path d="M54.673 8.61694H59.9248C65.4036 8.61694 70.6581 10.7934 74.5321 14.6675C78.4062 18.5416 80.5827 23.796 80.5827 29.2748V31.5104H34.0151V29.2748C34.0151 26.562 34.5495 23.8757 35.5876 21.3694C36.6258 18.863 38.1474 16.5857 40.0657 14.6675C41.9839 12.7492 44.2612 11.2276 46.7676 10.1894C49.2739 9.15127 51.9601 8.61694 54.673 8.61694Z" fill="#007580"/>
<path d="M80.5827 32.1344H34.0151C33.8495 32.1344 33.6906 32.0686 33.5735 31.9515C33.4564 31.8344 33.3906 31.6755 33.3906 31.5099V29.2743C33.3972 23.6319 35.6416 18.2225 39.6314 14.2327C43.6211 10.2429 49.0305 7.99855 54.6729 7.99194H59.9248C65.5672 7.99855 70.9766 10.2429 74.9664 14.2327C78.9562 18.2225 81.2005 23.6319 81.2071 29.2743V31.5099C81.2071 31.6755 81.1413 31.8344 81.0242 31.9515C80.9071 32.0686 80.7483 32.1344 80.5827 32.1344ZM34.6396 30.8854H79.9582V29.2743C79.9516 23.9631 77.8388 18.8714 74.0832 15.1158C70.3277 11.3603 65.236 9.24752 59.9248 9.24091H54.6729C49.3618 9.24752 44.2701 11.3603 40.5145 15.1158C36.759 18.8714 34.6462 23.9631 34.6396 29.2743V30.8854Z" fill="#093F68"/>
<path d="M31.6544 34.2021H29.2626C27.1967 34.2021 25.522 35.8769 25.522 37.9428V53.28C25.522 55.3459 27.1967 57.0207 29.2626 57.0207H31.6544C33.7203 57.0207 35.395 55.3459 35.395 53.28V37.9428C35.395 35.8769 33.7203 34.2021 31.6544 34.2021Z" fill="#F56132"/>
<path d="M31.6538 57.645H29.262C28.1026 57.645 26.9908 57.1845 26.171 56.3647C25.3512 55.5449 24.8906 54.433 24.8906 53.2737V37.9427C24.8906 36.7833 25.3512 35.6714 26.171 34.8516C26.9908 34.0318 28.1026 33.5713 29.262 33.5713H31.6538C32.8131 33.5713 33.925 34.0318 34.7448 34.8516C35.5646 35.6714 36.0251 36.7833 36.0251 37.9427V53.2737C36.0251 54.433 35.5646 55.5449 34.7448 56.3647C33.925 57.1845 32.8131 57.645 31.6538 57.645ZM29.262 34.8265C28.4339 34.8265 27.6397 35.1555 27.0541 35.741C26.4686 36.3266 26.1396 37.1208 26.1396 37.9489V53.2799C26.1396 54.108 26.4686 54.9022 27.0541 55.4878C27.6397 56.0733 28.4339 56.4023 29.262 56.4023H31.6538C32.4819 56.4023 33.2761 56.0733 33.8616 55.4878C34.4472 54.9022 34.7762 54.108 34.7762 53.2799V37.9427C34.7762 37.1145 34.4472 36.3203 33.8616 35.7348C33.2761 35.1492 32.4819 34.8203 31.6538 34.8203L29.262 34.8265Z" fill="#093F68"/>
<path d="M86.1598 34.2021H83.768C81.7021 34.2021 80.0273 35.8769 80.0273 37.9428V53.28C80.0273 55.3459 81.7021 57.0207 83.768 57.0207H86.1598C88.2257 57.0207 89.9004 55.3459 89.9004 53.28V37.9428C89.9004 35.8769 88.2257 34.2021 86.1598 34.2021Z" fill="#F56132"/>
<path d="M86.1586 57.645H83.7669C82.6075 57.645 81.4956 57.1845 80.6758 56.3647C79.8561 55.5449 79.3955 54.433 79.3955 53.2737V37.9427C79.3955 36.7833 79.8561 35.6714 80.6758 34.8516C81.4956 34.0318 82.6075 33.5713 83.7669 33.5713H86.1586C87.318 33.5713 88.4299 34.0318 89.2497 34.8516C90.0694 35.6714 90.53 36.7833 90.53 37.9427V53.2737C90.53 54.433 90.0694 55.5449 89.2497 56.3647C88.4299 57.1845 87.318 57.645 86.1586 57.645ZM83.7669 34.8265C82.9388 34.8265 82.1446 35.1555 81.559 35.741C80.9734 36.3266 80.6445 37.1208 80.6445 37.9489V53.2799C80.6445 54.108 80.9734 54.9022 81.559 55.4878C82.1446 56.0733 82.9388 56.4023 83.7669 56.4023H86.1586C86.9868 56.4023 87.781 56.0733 88.3665 55.4878C88.9521 54.9022 89.281 54.108 89.281 53.2799V37.9427C89.281 37.1145 88.9521 36.3203 88.3665 35.7348C87.781 35.1492 86.9868 34.8203 86.1586 34.8203L83.7669 34.8265Z" fill="#093F68"/>
<path d="M34.0151 31.5103H80.5827V32.3845C80.5827 35.2995 79.4247 38.0951 77.3635 40.1562C75.3023 42.2174 72.5068 43.3754 69.5918 43.3754H45.006C42.091 43.3754 39.2955 42.2174 37.2343 40.1562C35.1731 38.0951 34.0151 35.2995 34.0151 32.3845V31.5103Z" fill="#007580"/>
<path d="M69.5855 43.9996H45.006C41.9264 43.9963 38.9739 42.7715 36.7963 40.5939C34.6187 38.4163 33.3939 35.4638 33.3906 32.3843V31.51C33.3906 31.3444 33.4564 31.1855 33.5735 31.0684C33.6906 30.9513 33.8495 30.8855 34.0151 30.8855H80.5827C80.7483 30.8855 80.9071 30.9513 81.0242 31.0684C81.1413 31.1855 81.2071 31.3444 81.2071 31.51V32.3843C81.2038 35.4649 79.9782 38.4183 77.7992 40.5961C75.6203 42.7739 72.6662 43.9979 69.5855 43.9996ZM34.6146 32.1345V32.3843C34.6179 35.1326 35.7111 37.7674 37.6545 39.7107C39.5979 41.6541 42.2327 42.7473 44.981 42.7506H69.5606C72.3095 42.7473 74.9449 41.6543 76.8893 39.7111C78.8336 37.7679 79.9282 35.1331 79.9332 32.3843V32.1345H34.6146Z" fill="#093F68"/>
<path d="M57.7209 66.2877C56.0677 66.321 54.4336 65.9297 52.9749 65.1512C51.6484 64.4467 50.5858 63.3315 49.9461 61.9726C49.8849 61.8185 49.8873 61.6465 49.9528 61.4942C50.0184 61.342 50.1418 61.222 50.2958 61.1607C50.4499 61.0995 50.6219 61.1019 50.7742 61.1674C50.9264 61.233 51.0464 61.3564 51.1077 61.5104C51.2138 61.779 53.768 67.6616 64.2218 63.6212C64.2988 63.5911 64.381 63.5766 64.4637 63.5786C64.5464 63.5805 64.6279 63.5989 64.7034 63.6326C64.7789 63.6663 64.847 63.7146 64.9037 63.7749C64.9604 63.8351 65.0045 63.906 65.0336 63.9834C65.0627 64.0601 65.0765 64.1417 65.074 64.2237C65.0716 64.3057 65.053 64.3864 65.0194 64.4612C64.9857 64.536 64.9377 64.6035 64.878 64.6597C64.8183 64.7159 64.7481 64.7599 64.6714 64.789C62.4649 65.7069 60.1096 66.2148 57.7209 66.2877Z" fill="#093F68"/>
<path d="M42.3518 68.8608C39.3293 68.8608 35.2452 68.5174 33.1782 66.8438C29.6998 64.0273 29.8247 57.3579 29.831 57.0769C29.831 56.9113 29.8968 56.7524 30.0139 56.6353C30.131 56.5182 30.2898 56.4524 30.4555 56.4524C30.6211 56.4524 30.7799 56.5182 30.897 56.6353C31.0142 56.7524 31.0799 56.9113 31.0799 57.0769C31.0799 57.1393 30.9613 63.4091 33.965 65.8196C36.9688 68.2301 45.8302 67.4058 45.9239 67.3995C46.0059 67.3913 46.0887 67.3994 46.1676 67.4232C46.2465 67.447 46.3199 67.4861 46.3837 67.5383C46.4475 67.5905 46.5004 67.6547 46.5393 67.7273C46.5783 67.8 46.6026 67.8796 46.6108 67.9616C46.619 68.0436 46.6109 68.1264 46.5871 68.2053C46.5633 68.2842 46.5242 68.3576 46.472 68.4214C46.4198 68.4852 46.3556 68.5381 46.283 68.5771C46.2103 68.616 46.1308 68.6403 46.0487 68.6485C45.8989 68.7047 44.3626 68.8608 42.3518 68.8608Z" fill="#093F68"/>
<path d="M47.4784 65.6509H41.4959C40.3094 65.6509 39.3477 66.6127 39.3477 67.7991C39.3477 68.9855 40.3094 69.9473 41.4959 69.9473H47.4784C48.6648 69.9473 49.6266 68.9855 49.6266 67.7991C49.6266 66.6127 48.6648 65.6509 47.4784 65.6509Z" fill="#F56132"/>
<path d="M47.4794 70.5775H41.4969C40.7834 70.5437 40.1104 70.2364 39.6175 69.7196C39.1246 69.2027 38.8496 68.5159 38.8496 67.8017C38.8496 67.0875 39.1246 66.4007 39.6175 65.8838C40.1104 65.367 40.7834 65.0597 41.4969 65.0259H47.4794C48.1928 65.0597 48.8658 65.367 49.3587 65.8838C49.8516 66.4007 50.1266 67.0875 50.1266 67.8017C50.1266 68.5159 49.8516 69.2027 49.3587 69.7196C48.8658 70.2364 48.1928 70.5437 47.4794 70.5775ZM41.4969 66.2748C41.1088 66.2997 40.7447 66.4713 40.4787 66.755C40.2126 67.0386 40.0646 67.4128 40.0646 67.8017C40.0646 68.1906 40.2126 68.5648 40.4787 68.8484C40.7447 69.1321 41.1088 69.3037 41.4969 69.3286H47.4794C47.8674 69.3037 48.2315 69.1321 48.4975 68.8484C48.7636 68.5648 48.9117 68.1906 48.9117 67.8017C48.9117 67.4128 48.7636 67.0386 48.4975 66.755C48.2315 66.4713 47.8674 66.2997 47.4794 66.2748H41.4969Z" fill="#093F68"/>
<path d="M40.4473 76.6104H74.5877C75.5046 76.6104 76.4125 76.7909 77.2595 77.1418C78.1066 77.4927 78.8762 78.0069 79.5245 78.6552C80.1729 79.3035 80.6871 80.0732 81.038 80.9203C81.3888 81.7673 81.5694 82.6752 81.5694 83.592V122.697H33.4844V83.5983C33.4827 81.7488 34.215 79.9742 35.5204 78.6641C36.8259 77.3539 38.5979 76.6153 40.4473 76.6104Z" fill="#007580"/>
<path d="M81.5753 123.321H33.4902C33.3246 123.321 33.1657 123.255 33.0486 123.138C32.9315 123.021 32.8657 122.862 32.8657 122.697V83.598C32.8674 81.5807 33.6691 79.6463 35.095 78.2192C36.5209 76.7922 38.4545 75.9889 40.4719 75.9856H74.6185C76.6359 75.9889 78.5696 76.7922 79.9955 78.2192C81.4214 79.6463 82.2231 81.5807 82.2247 83.598V122.697C82.2248 122.781 82.2078 122.864 82.1749 122.942C82.142 123.019 82.0937 123.089 82.0331 123.147C81.9724 123.206 81.9006 123.251 81.8219 123.281C81.7432 123.311 81.6593 123.325 81.5753 123.321ZM34.1147 122.072H80.9508V83.598C80.9491 81.9119 80.279 80.2952 79.0873 79.1024C77.8957 77.9096 76.2797 77.2379 74.5935 77.2346H40.4469C38.7608 77.2379 37.1448 77.9096 35.9531 79.1024C34.7615 80.2952 34.0914 81.9119 34.0897 83.598L34.1147 122.072Z" fill="#68E1FD"/>
<path d="M51.3997 76.6104H44.9551V96.5688H51.3997V76.6104Z" fill="white"/>
<path d="M51.3997 97.1999H44.955C44.7894 97.1999 44.6306 97.1341 44.5135 97.017C44.3964 96.8999 44.3306 96.741 44.3306 96.5754V76.592C44.3306 76.4264 44.3964 76.2675 44.5135 76.1504C44.6306 76.0333 44.7894 75.9675 44.955 75.9675H51.3997C51.5653 75.9675 51.7242 76.0333 51.8413 76.1504C51.9584 76.2675 52.0242 76.4264 52.0242 76.592V96.5754C52.0242 96.741 51.9584 96.8999 51.8413 97.017C51.7242 97.1341 51.5653 97.1999 51.3997 97.1999ZM45.5795 95.9509H50.7752V77.2165H45.5795V95.9509Z" fill="#68E1FD"/>
<path d="M70.0848 76.6104H63.6401V96.5688H70.0848V76.6104Z" fill="white"/>
<path d="M70.0847 97.1999H63.6401C63.4745 97.1999 63.3156 97.1341 63.1985 97.017C63.0814 96.8999 63.0156 96.741 63.0156 96.5754V76.592C63.0156 76.4264 63.0814 76.2675 63.1985 76.1504C63.3156 76.0333 63.4745 75.9675 63.6401 75.9675H70.0847C70.2504 75.9675 70.4092 76.0333 70.5263 76.1504C70.6434 76.2675 70.7092 76.4264 70.7092 76.592V96.5754C70.7092 96.741 70.6434 96.8999 70.5263 97.017C70.4092 97.1341 70.2504 97.1999 70.0847 97.1999ZM64.2646 95.9509H69.4603V77.2165H64.2646V95.9509Z" fill="#68E1FD"/>
<path d="M74.4564 96.575H40.5908V122.703H74.4564V96.575Z" fill="white"/>
<path d="M74.4559 123.321H40.5903C40.4247 123.321 40.2658 123.256 40.1487 123.139C40.0316 123.021 39.9658 122.863 39.9658 122.697V96.5749C39.9658 96.4093 40.0316 96.2505 40.1487 96.1333C40.2658 96.0162 40.4247 95.9504 40.5903 95.9504H74.4559C74.6215 95.9504 74.7804 96.0162 74.8975 96.1333C75.0146 96.2505 75.0804 96.4093 75.0804 96.5749V122.697C75.0804 122.863 75.0146 123.021 74.8975 123.139C74.7804 123.256 74.6215 123.321 74.4559 123.321ZM41.2148 122.072H73.8314V97.1994H41.2148V122.072Z" fill="#68E1FD"/>
<path d="M40.5903 97.1998C40.4247 97.1998 40.2658 97.134 40.1487 97.0169C40.0316 96.8998 39.9658 96.741 39.9658 96.5754V85.291C39.9658 85.1254 40.0316 84.9665 40.1487 84.8494C40.2658 84.7323 40.4247 84.6665 40.5903 84.6665C40.7559 84.6665 40.9148 84.7323 41.0319 84.8494C41.149 84.9665 41.2148 85.1254 41.2148 85.291V96.5316C41.2208 96.6173 41.2091 96.7032 41.1804 96.7841C41.1517 96.865 41.1067 96.9391 41.0481 97.0018C40.9895 97.0645 40.9186 97.1144 40.8398 97.1485C40.7611 97.1826 40.6761 97.2001 40.5903 97.1998Z" fill="#68E1FD"/>
<path d="M74.4575 97.1998C74.2919 97.1998 74.133 97.134 74.0159 97.0169C73.8988 96.8998 73.833 96.741 73.833 96.5754V85.291C73.833 85.1254 73.8988 84.9665 74.0159 84.8494C74.133 84.7323 74.2919 84.6665 74.4575 84.6665C74.6231 84.6665 74.782 84.7323 74.8991 84.8494C75.0162 84.9665 75.082 85.1254 75.082 85.291V96.5316C75.088 96.6173 75.0763 96.7032 75.0476 96.7841C75.0189 96.865 74.9739 96.9391 74.9153 97.0018C74.8567 97.0645 74.7858 97.1144 74.707 97.1485C74.6282 97.1826 74.5433 97.2001 74.4575 97.1998Z" fill="#68E1FD"/>
<path d="M90.7672 118.713H51.3125V122.697H90.7672V118.713Z" fill="#FFBC0E"/>
<path d="M90.7427 123.322H51.313C51.1473 123.322 50.9885 123.256 50.8714 123.139C50.7543 123.022 50.6885 122.863 50.6885 122.697V118.713C50.6885 118.547 50.7543 118.388 50.8714 118.271C50.9885 118.154 51.1473 118.088 51.313 118.088H90.7427C90.9083 118.088 91.0672 118.154 91.1843 118.271C91.3014 118.388 91.3672 118.547 91.3672 118.713V122.697C91.3672 122.863 91.3014 123.022 91.1843 123.139C91.0672 123.256 90.9083 123.322 90.7427 123.322ZM51.9125 122.073H90.1182V119.337H51.9374L51.9125 122.073Z" fill="#093F68"/>
<path d="M76.5488 122.697H113.225V118.713H76.5488V122.697Z" fill="#FFBC0E"/>
<path d="M113.224 123.322H76.5424C76.3768 123.322 76.218 123.256 76.1009 123.139C75.9838 123.022 75.918 122.863 75.918 122.697V118.713C75.918 118.547 75.9838 118.388 76.1009 118.271C76.218 118.154 76.3768 118.088 76.5424 118.088H113.224C113.39 118.088 113.549 118.154 113.666 118.271C113.783 118.388 113.849 118.547 113.849 118.713V122.697C113.849 122.863 113.783 123.022 113.666 123.139C113.549 123.256 113.39 123.322 113.224 123.322ZM77.1732 122.073H112.6V119.337H77.1669L77.1732 122.073Z" fill="#093F68"/>
<path d="M85.6911 96.575H122.361L113.218 118.713H76.5425L85.6911 96.575Z" fill="#FFBC0E"/>
<path d="M113.224 119.337H76.5419C76.4396 119.337 76.3388 119.312 76.2484 119.265C76.158 119.217 76.0808 119.147 76.0235 119.062C75.9665 118.977 75.9316 118.878 75.9218 118.776C75.912 118.674 75.9276 118.57 75.9673 118.475L85.1222 96.3376C85.1695 96.2226 85.25 96.1243 85.3535 96.0553C85.4569 95.9863 85.5786 95.9498 85.703 95.9504H122.373C122.475 95.9499 122.577 95.9748 122.668 96.0229C122.758 96.0709 122.836 96.1407 122.894 96.2259C122.951 96.3112 122.987 96.4093 122.997 96.5116C123.007 96.6139 122.992 96.7171 122.953 96.8122L113.798 118.95C113.752 119.064 113.672 119.162 113.57 119.231C113.468 119.3 113.347 119.337 113.224 119.337ZM77.4848 118.088H112.805L121.436 97.1994H86.1027L77.4848 118.088Z" fill="#093F68"/>
<path d="M57.5193 115.478C54.4977 115.475 51.6008 114.273 49.4643 112.136C47.3277 110 46.1259 107.103 46.1226 104.081V102.014C46.1226 101.849 46.1884 101.69 46.3055 101.573C46.4226 101.455 46.5814 101.39 46.747 101.39H68.2916C68.4573 101.39 68.6161 101.455 68.7332 101.573C68.8503 101.69 68.9161 101.849 68.9161 102.014V104.081C68.9128 107.103 67.711 110 65.5744 112.136C63.4378 114.273 60.5409 115.475 57.5193 115.478ZM47.3715 102.639V104.081C47.3715 106.773 48.4407 109.354 50.3437 111.257C52.2468 113.16 54.828 114.229 57.5193 114.229C60.2107 114.229 62.7918 113.16 64.6949 111.257C66.598 109.354 67.6672 106.773 67.6672 104.081V102.639H47.3715Z" fill="#DFEAEF"/>
<path d="M39.3482 112.143C36.307 107.809 33.553 104.893 30.5118 100.559C29.344 98.8915 25.8719 93.8769 25.2911 93.0651C24.8204 92.2182 24.4755 91.3073 24.267 90.3611C24.267 90.3611 22.5122 78.2149 19.0151 80.5505C18.855 80.6688 18.7333 80.8317 18.6654 81.0189C18.46 81.6705 18.491 82.3736 18.7528 83.0047C18.8215 83.217 19.7395 86.0522 19.6521 86.0584C15.7865 86.2458 10.1787 84.9781 6.33189 85.4339C5.92509 85.4442 5.5327 85.5867 5.21407 85.8399C5.03701 86.0442 4.92611 86.2975 4.89601 86.5662C4.8659 86.8349 4.91801 87.1064 5.04546 87.3448C5.30641 87.8144 5.66656 88.2214 6.10083 88.5376C9.31066 91.2229 14.5001 93.1151 16.8606 96.6559L28.0014 120.755C30.5555 126.088 36.6192 126.725 39.3482 123.802C41.5776 121.367 41.1217 114.897 39.3482 112.143Z" fill="#FFC9B0"/>
<path d="M35.0842 126.107C34.691 126.106 34.2985 126.075 33.9102 126.013C32.4994 125.773 31.1702 125.187 30.0412 124.307C28.9122 123.428 28.0187 122.282 27.4406 120.973L16.3123 96.9121C14.9073 94.8326 12.3781 93.3026 9.93639 91.8226C8.4572 90.9784 7.04206 90.0266 5.70241 88.9749C5.1852 88.6044 4.75827 88.122 4.45344 87.5636C4.27201 87.2089 4.20291 86.8074 4.25534 86.4125C4.30777 86.0175 4.47925 85.648 4.74695 85.3529C5.16213 84.9922 5.68969 84.7869 6.23946 84.7722C8.39392 84.5286 11.0542 84.8034 13.6333 85.0657C15.5068 85.2593 17.274 85.4279 18.8415 85.4341C18.6042 84.641 18.217 83.417 18.1358 83.186C17.817 82.4165 17.7904 81.557 18.0609 80.7692C18.1758 80.4622 18.3803 80.1968 18.6479 80.0074C18.9349 79.7938 19.2736 79.6605 19.6291 79.621C19.9847 79.5815 20.3443 79.6372 20.6712 79.7826C23.4502 81.0315 24.7241 89.3121 24.8615 90.2551C25.0496 91.1066 25.3587 91.9268 25.7795 92.6906L26.5476 93.7959C27.7965 95.6069 30.0946 98.9104 31.0001 100.203C32.5114 102.358 33.9727 104.187 35.3715 105.967C36.7703 107.747 38.2816 109.608 39.8178 111.793C42.3657 115.74 41.5851 122.197 39.7491 124.164C39.1434 124.787 38.4176 125.28 37.6158 125.614C36.814 125.948 35.9527 126.115 35.0842 126.107ZM8.12539 85.915C7.54985 85.9123 6.97457 85.9394 6.40183 85.9961C6.13402 85.9991 5.87314 86.0817 5.65245 86.2334C5.57143 86.347 5.52431 86.4812 5.51657 86.6205C5.50883 86.7598 5.54079 86.8985 5.60873 87.0203C5.83524 87.4072 6.13927 87.7431 6.50174 88.007C7.79505 89.0165 9.16001 89.9306 10.5858 90.7422C13.1587 92.3034 15.8252 93.9146 17.3802 96.2439L17.4239 96.3313L28.5709 120.43C29.06 121.559 29.8214 122.55 30.7869 123.312C31.7525 124.075 32.8921 124.587 34.1038 124.801C34.9603 124.964 35.8436 124.917 36.6779 124.664C37.5121 124.41 38.2725 123.958 38.8936 123.346C40.8295 121.273 40.511 115.128 38.8311 112.518C37.3261 110.37 35.8586 108.534 34.4598 106.76C33.0609 104.987 31.5559 103.126 30.0197 100.94C29.1142 99.6473 26.8161 96.3375 25.5609 94.5266L24.7741 93.4087C24.2555 92.4968 23.8786 91.5114 23.6562 90.4862C23.1754 87.1639 21.814 81.6498 20.1779 80.9191C20.043 80.862 19.8947 80.844 19.75 80.8672C19.6053 80.8904 19.4701 80.9538 19.3598 81.0503C19.3028 81.0998 19.2616 81.1649 19.2412 81.2376C19.0892 81.7488 19.1224 82.2972 19.3348 82.7863C20.4339 85.9899 20.3278 86.1523 20.1654 86.3896C20.1111 86.4701 20.0389 86.5368 19.9543 86.5845C19.8698 86.6322 19.7753 86.6595 19.6783 86.6643C17.6201 86.6863 15.5628 86.5673 13.5209 86.3084C11.6849 86.121 9.799 85.915 8.12539 85.915Z" fill="#093F68"/>
<path d="M24.7034 67.0493C24.6918 66.7383 24.5777 66.4399 24.3789 66.2005C24.1801 65.9611 23.9078 65.794 23.6043 65.7254C23.0735 65.6068 22.5364 65.5256 21.9994 65.4381C21.9259 65.432 21.856 65.4036 21.7991 65.3568C21.7422 65.3099 21.701 65.2468 21.6809 65.1759C21.5248 64.745 21.3437 64.3266 21.1563 63.9269C21.1276 63.8772 21.1152 63.8198 21.1208 63.7626C21.1264 63.7055 21.1497 63.6516 21.1875 63.6084C21.5123 63.165 21.812 62.7216 22.1368 62.2595C22.3088 61.9987 22.3899 61.6882 22.3673 61.3765C22.3447 61.0648 22.2198 60.7693 22.0119 60.536C21.5248 59.9989 20.994 59.4931 20.4819 58.9748C20.2269 58.689 19.8729 58.5107 19.4916 58.476C19.1102 58.4412 18.7298 58.5525 18.4273 58.7874C18.0214 59.0684 17.6218 59.3494 17.2283 59.643C17.1818 59.676 17.1262 59.6938 17.0691 59.6938C17.012 59.6938 16.9564 59.676 16.9098 59.643C16.454 59.4431 15.9919 59.2558 15.5297 59.0747C15.4734 59.0602 15.423 59.0283 15.386 58.9834C15.349 58.9385 15.3271 58.883 15.3237 58.8249C15.2487 58.3378 15.1675 57.8445 15.0801 57.3574C15.0239 57.0166 14.8513 56.7058 14.5917 56.4781C14.3321 56.2503 14.0015 56.1197 13.6563 56.1084C12.8986 56.1084 12.143 56.1084 11.3894 56.1084C11.0673 56.1136 10.7563 56.2274 10.507 56.4315C10.2576 56.6355 10.0845 56.9177 10.0156 57.2325C9.89068 57.782 9.80949 58.3378 9.71582 58.8936C9.71144 58.9514 9.68927 59.0064 9.65238 59.0511C9.61549 59.0959 9.56566 59.1281 9.50974 59.1434C9.06636 59.3182 8.62922 59.5056 8.19209 59.6992C8.14928 59.7326 8.09653 59.7507 8.04221 59.7507C7.9879 59.7507 7.93515 59.7326 7.89234 59.6992C7.4552 59.3807 7.01806 59.0747 6.56219 58.7562C6.30224 58.5772 5.98961 58.491 5.67468 58.5114C5.35974 58.5318 5.06084 58.6576 4.82613 58.8686C4.25161 59.3932 3.68958 59.9427 3.15877 60.5172C2.90763 60.7702 2.75859 61.107 2.74016 61.463C2.72172 61.819 2.83519 62.1693 3.05885 62.4469C3.3586 62.8715 3.68333 63.2899 3.95811 63.6958C3.97358 63.7313 3.98157 63.7696 3.98157 63.8082C3.98157 63.8469 3.97358 63.8852 3.95811 63.9207C3.77701 64.3953 3.58966 64.8699 3.38983 65.3382C3.37065 65.373 3.34477 65.4035 3.31368 65.4282C3.28259 65.4529 3.24692 65.4711 3.20873 65.4819C2.72164 65.5755 2.22829 65.6567 1.73495 65.7316C1.38894 65.7707 1.06776 65.9304 0.827896 66.1829C0.588037 66.4353 0.44486 66.7642 0.423545 67.1117C0.392321 67.9048 0.423545 68.6917 0.423545 69.4785C0.436818 69.7864 0.550065 70.0816 0.746134 70.3194C0.942203 70.5571 1.21041 70.7245 1.51014 70.7962C2.07217 70.9211 2.64669 71.0085 3.21497 71.1084C3.26927 71.1135 3.32084 71.1346 3.3631 71.1691C3.40536 71.2036 3.4364 71.2498 3.45228 71.302C3.62713 71.7516 3.81448 72.195 4.01431 72.6384C4.0452 72.6787 4.06194 72.7281 4.06194 72.7789C4.06194 72.8297 4.0452 72.8791 4.01431 72.9194C3.71456 73.3253 3.38983 73.7375 3.13379 74.1684C2.90913 74.4619 2.80192 74.8287 2.8331 75.197C2.86428 75.5654 3.0316 75.9089 3.3024 76.1605C3.77701 76.6476 4.25161 77.1222 4.73871 77.5968C4.99496 77.8783 5.34913 78.0513 5.72873 78.0804C6.10834 78.1094 6.48469 77.9922 6.78076 77.7529C7.19292 77.4656 7.60508 77.1721 8.02973 76.8724C8.06925 76.8453 8.11606 76.8307 8.16399 76.8307C8.21192 76.8307 8.25873 76.8453 8.29825 76.8724C8.71666 77.0535 9.13506 77.2346 9.54722 77.3907C9.61323 77.4085 9.67159 77.4474 9.71333 77.5016C9.75507 77.5557 9.77789 77.6221 9.77827 77.6905C9.85321 78.1713 9.93439 78.6584 10.0218 79.1392C10.071 79.4709 10.2323 79.7757 10.4789 80.003C10.7254 80.2302 11.0424 80.3662 11.3769 80.3882C12.17 80.3882 12.9694 80.3882 13.7625 80.3882C14.0742 80.3728 14.3723 80.2558 14.6114 80.0551C14.8504 79.8544 15.0172 79.581 15.0864 79.2766C15.205 78.7396 15.2862 78.1963 15.3736 77.653C15.3784 77.5889 15.4024 77.5278 15.4425 77.4777C15.4827 77.4275 15.537 77.3907 15.5984 77.372C16.0418 77.2034 16.4852 77.016 16.9223 76.8224C16.9647 76.7937 17.0148 76.7784 17.066 76.7784C17.1172 76.7784 17.1672 76.7937 17.2096 76.8224L18.4586 77.703C18.7464 77.9118 19.0962 78.0174 19.4515 78.0027C19.7813 78.003 20.0978 77.8728 20.332 77.6405C20.8566 77.1534 21.3562 76.6413 21.8682 76.1355C22.1632 75.8793 22.3471 75.5185 22.3809 75.1293C22.4147 74.74 22.2958 74.3529 22.0493 74.0497C21.7683 73.6438 21.4873 73.2442 21.2 72.8507C21.1648 72.8125 21.1428 72.7639 21.1372 72.7122C21.1316 72.6605 21.1427 72.6084 21.1688 72.5635C21.3624 72.1201 21.5497 71.6767 21.7246 71.2271C21.7402 71.1702 21.7734 71.1197 21.8193 71.0827C21.8653 71.0457 21.9217 71.0241 21.9806 71.021C22.4677 70.9461 22.9611 70.8649 23.4482 70.7775C23.7942 70.7334 24.1134 70.568 24.3489 70.3107C24.5845 70.0534 24.7211 69.7209 24.7346 69.3724C24.7283 68.6043 24.7221 67.8049 24.7034 67.0493ZM12.5635 73.469C11.5275 73.4665 10.5155 73.157 9.65537 72.5795C8.79526 72.002 8.12567 71.1825 7.73121 70.2245C7.33675 69.2666 7.23514 68.2132 7.43922 67.1975C7.64329 66.1818 8.1439 65.2494 8.87776 64.5182C9.61162 63.7869 10.5458 63.2896 11.5622 63.0892C12.5786 62.8887 13.6316 62.9941 14.5882 63.392C15.5447 63.7899 16.3618 64.4624 16.9362 65.3246C17.5107 66.1867 17.8166 67.1998 17.8153 68.2358C17.812 69.626 17.2571 70.9579 16.2723 71.9392C15.2876 72.9204 13.9536 73.4706 12.5635 73.469Z" fill="#68E1FD" stroke="#093F68" stroke-width="1.24896" stroke-linecap="round" stroke-linejoin="round"/>
<path d="M52.8678 14.3809C53.2361 14.3809 53.5893 14.5267 53.8503 14.7865C54.1113 15.0463 54.2587 15.399 54.2604 15.7672V25.609C54.2587 25.9773 54.1113 26.3299 53.8503 26.5897C53.5893 26.8495 53.2361 26.9954 52.8678 26.9954C52.5006 26.9937 52.1489 26.8471 51.8893 26.5875C51.6297 26.3279 51.4831 25.9762 51.4814 25.609V15.7672C51.4831 15.4 51.6297 15.0484 51.8893 14.7887C52.1489 14.5291 52.5006 14.3825 52.8678 14.3809Z" fill="white"/>
<path d="M59.231 16.8414H56.8642C56.533 16.8414 56.2153 16.7098 55.981 16.4756C55.7468 16.2414 55.6152 15.9237 55.6152 15.5925C55.6152 15.2612 55.7468 14.9435 55.981 14.7093C56.2153 14.4751 56.533 14.3435 56.8642 14.3435H64.358C64.6892 14.3435 65.0069 14.4751 65.2411 14.7093C65.4753 14.9435 65.6069 15.2612 65.6069 15.5925C65.6069 15.9237 65.4753 16.2414 65.2411 16.4756C65.0069 16.7098 64.6892 16.8414 64.358 16.8414H62.0162V25.7653C62.0162 26.0965 61.8846 26.4142 61.6504 26.6484C61.4161 26.8826 61.0984 27.0142 60.7672 27.0142H60.4487C60.1175 27.0142 59.7998 26.8826 59.5656 26.6484C59.3313 26.4142 59.1998 26.0965 59.1998 25.7653L59.231 16.8414Z" fill="white"/>
</g>
<defs>
<clipPath id="clip0_1868_3398">
<rect width="122.59" height="125.346" fill="white" transform="translate(0.409668 0.760742)"/>
</clipPath>
</defs>
</svg>
