<svg width="498" height="402" viewBox="0 0 498 402" fill="none" xmlns="http://www.w3.org/2000/svg">
<g clip-path="url(#clip0_2304_3611)">
<path d="M472.022 29.7722V285.496C472.022 286.341 471.856 287.178 471.533 287.959C471.21 288.74 470.736 289.45 470.139 290.047C469.541 290.645 468.832 291.12 468.051 291.443C467.27 291.767 466.433 291.934 465.588 291.934H31.4772C31.1682 291.936 30.8595 291.912 30.5546 291.862C29.0233 291.642 27.6228 290.877 26.6097 289.707C25.5967 288.538 25.0391 287.043 25.0391 285.496V29.7722C25.0388 28.9271 25.205 28.0901 25.5281 27.3091C25.8513 26.5282 26.3252 25.8185 26.9226 25.2207C27.52 24.6228 28.2294 24.1485 29.0101 23.8248C29.7909 23.5011 30.6277 23.3344 31.4729 23.3341H465.584C466.429 23.3338 467.266 23.5 468.047 23.8232C468.828 24.1464 469.538 24.6202 470.136 25.2176C470.733 25.8151 471.208 26.5244 471.531 27.3052C471.855 28.0859 472.022 28.9228 472.022 29.768V29.7722Z" fill="#E6E6E6"/>
<path d="M134.465 175.382C165.66 175.382 190.948 150.094 190.948 118.899C190.948 87.7047 165.66 62.4164 134.465 62.4164C103.271 62.4164 77.9824 87.7047 77.9824 118.899C77.9824 150.094 103.271 175.382 134.465 175.382Z" fill="#007580" fill-opacity="0.63"/>
<path d="M311.59 292.959H34.5013C34.1543 292.964 33.8077 292.936 33.4658 292.877L164.516 65.8795C165.316 64.4657 166.477 63.2897 167.88 62.4714C169.283 61.6531 170.878 61.222 172.502 61.222C174.127 61.222 175.722 61.6531 177.125 62.4714C178.528 63.2897 179.689 64.4657 180.488 65.8795L268.44 218.213L272.653 225.502L311.59 292.959Z" fill="#3F3D56" fill-opacity="0.79"/>
<path d="M465.871 292.959H226.212L272.653 225.502L275.995 220.642L336.512 132.732C340.48 126.971 350.024 126.612 354.689 131.645C355.002 131.989 355.293 132.352 355.56 132.732L465.871 292.959Z" fill="#3F3D56" fill-opacity="0.79"/>
<path d="M496.446 13.622C495.006 9.63677 492.374 6.19143 488.908 3.75426C485.442 1.31708 481.31 0.00628165 477.072 1.54815e-06H20.5843C17.8808 -0.00104712 15.2037 0.530671 12.7058 1.56476C10.2079 2.59885 7.93832 4.11503 6.02667 6.02667C4.11503 7.93832 2.59885 10.2079 1.56476 12.7058C0.530671 15.2037 -0.00104712 17.8809 1.54815e-06 20.5843V381.416C0.00772344 386.873 2.1789 392.104 6.03754 395.962C9.89618 399.821 15.1274 401.992 20.5843 402H477.072C482.529 401.992 487.76 399.821 491.619 395.962C495.478 392.104 497.649 386.873 497.657 381.416V20.5843C497.661 18.2108 497.251 15.8548 496.446 13.622V13.622ZM495.235 381.416C495.229 386.231 493.314 390.847 489.909 394.252C486.504 397.657 481.888 399.572 477.072 399.578H20.5843C15.7691 399.572 11.1528 397.657 7.74787 394.252C4.34298 390.847 2.42755 386.231 2.42169 381.416V20.5843C2.42755 15.7691 4.34298 11.1528 7.74787 7.74788C11.1528 4.34299 15.7691 2.42755 20.5843 2.42169H477.072C481.888 2.42755 486.504 4.34299 489.909 7.74788C493.314 11.1528 495.229 15.7691 495.235 20.5843V381.416Z" fill="#3F3D56"/>
<path opacity="0.2" d="M320.604 292.747H226L272.441 225.29L275.784 220.431L277.455 218L281.668 225.29L320.604 292.747Z" fill="black" fill-opacity="0.35"/>
<path d="M179.36 196C178.912 196 178.528 195.856 178.208 195.568C177.92 195.28 177.776 194.928 177.776 194.512C177.776 194.096 177.92 193.76 178.208 193.504C178.528 193.216 178.912 193.072 179.36 193.072H183.92V166.768H179.36C178.912 166.768 178.528 166.624 178.208 166.336C177.92 166.048 177.776 165.696 177.776 165.28C177.776 164.864 177.92 164.528 178.208 164.272C178.528 163.984 178.912 163.84 179.36 163.84H191.504C191.92 163.84 192.272 163.984 192.56 164.272C192.848 164.528 192.992 164.864 192.992 165.28C192.992 165.696 192.848 166.048 192.56 166.336C192.272 166.624 191.92 166.768 191.504 166.768H186.992V193.072H191.504C191.952 193.072 192.304 193.216 192.56 193.504C192.848 193.76 192.992 194.096 192.992 194.512C192.992 194.928 192.848 195.28 192.56 195.568C192.272 195.856 191.92 196 191.504 196H179.36ZM200.077 196.288C199.661 196.288 199.293 196.144 198.973 195.856C198.685 195.568 198.541 195.232 198.541 194.848V173.824C198.541 173.44 198.685 173.104 198.973 172.816C199.293 172.496 199.661 172.336 200.077 172.336C200.493 172.336 200.845 172.496 201.133 172.816C201.421 173.104 201.565 173.44 201.565 173.824V179.344C202.621 177.264 203.981 175.584 205.645 174.304C207.341 172.992 209.005 172.336 210.637 172.336C212.013 172.336 213.245 172.752 214.333 173.584C215.453 174.384 216.221 175.776 216.637 177.76C217.789 175.904 219.085 174.544 220.525 173.68C221.965 172.784 223.389 172.336 224.797 172.336C226.749 172.336 228.301 173.056 229.453 174.496C230.637 175.936 231.229 178.176 231.229 181.216V194.848C231.229 195.232 231.069 195.568 230.749 195.856C230.461 196.144 230.109 196.288 229.693 196.288C229.277 196.288 228.925 196.144 228.637 195.856C228.349 195.568 228.205 195.232 228.205 194.848V180.88C228.205 178.896 227.885 177.456 227.245 176.56C226.605 175.632 225.661 175.168 224.413 175.168C223.453 175.168 222.381 175.536 221.197 176.272C220.045 177.008 219.053 178.048 218.221 179.392C217.389 180.736 216.973 182.272 216.973 184V194.848C216.973 195.232 216.829 195.568 216.541 195.856C216.253 196.144 215.901 196.288 215.485 196.288C215.069 196.288 214.701 196.144 214.381 195.856C214.093 195.568 213.949 195.232 213.949 194.848V180.88C213.949 178.864 213.661 177.408 213.085 176.512C212.509 175.616 211.565 175.168 210.253 175.168C209.165 175.168 208.045 175.632 206.893 176.56C205.741 177.456 204.685 178.56 203.725 179.872C202.861 181.088 202.285 182.224 201.997 183.28C201.709 184.336 201.565 185.808 201.565 187.696V194.848C201.565 195.232 201.421 195.568 201.133 195.856C200.845 196.144 200.493 196.288 200.077 196.288ZM254.036 196.672C253.556 196.672 253.188 196.512 252.932 196.192C252.676 195.904 252.548 195.536 252.548 195.088V193.744C251.684 194.512 250.644 195.136 249.428 195.616C248.212 196.064 246.996 196.288 245.78 196.288C244.052 196.288 242.5 195.856 241.124 194.992C239.748 194.128 238.66 192.912 237.86 191.344C237.092 189.744 236.708 187.936 236.708 185.92C236.708 183.744 237.156 181.616 238.052 179.536C238.98 177.424 240.308 175.696 242.036 174.352C243.796 173.008 245.86 172.336 248.228 172.336C249.7 172.336 250.996 172.528 252.116 172.912C253.236 173.296 254.372 173.76 255.524 174.304V195.088C255.524 195.536 255.38 195.904 255.092 196.192C254.804 196.512 254.452 196.672 254.036 196.672ZM245.78 193.456C247.028 193.456 248.276 193.168 249.524 192.592C250.772 191.984 251.732 191.344 252.404 190.672L252.596 176.128C252.084 175.904 251.412 175.696 250.58 175.504C249.78 175.28 249.028 175.168 248.324 175.168C246.756 175.168 245.316 175.632 244.004 176.56C242.692 177.488 241.652 178.768 240.884 180.4C240.148 182 239.78 183.808 239.78 185.824C239.78 188.16 240.34 190.016 241.46 191.392C242.58 192.768 244.02 193.456 245.78 193.456ZM270.578 205.024C268.786 205.024 266.834 204.784 264.722 204.304C264.37 204.24 264.082 204.064 263.858 203.776C263.634 203.52 263.522 203.216 263.522 202.864C263.522 202.448 263.666 202.096 263.954 201.808C264.274 201.52 264.642 201.376 265.058 201.376C265.218 201.376 265.586 201.44 266.162 201.568C267.602 201.888 269.058 202.048 270.53 202.048C272.898 202.048 274.61 201.44 275.666 200.224C276.754 199.04 277.346 197.344 277.442 195.136L277.538 192.736C276.706 193.856 275.73 194.72 274.61 195.328C273.49 195.904 272.29 196.208 271.01 196.24C269.218 196.24 267.586 195.744 266.114 194.752C264.674 193.76 263.538 192.4 262.706 190.672C261.874 188.912 261.458 186.96 261.458 184.816C261.458 182.672 261.954 180.64 262.946 178.72C263.97 176.768 265.346 175.216 267.074 174.064C268.802 172.88 270.722 172.288 272.834 172.288C274.466 172.288 276.178 172.768 277.97 173.728C277.97 172.416 278.466 171.76 279.458 171.76C279.874 171.76 280.226 171.904 280.514 172.192C280.834 172.48 280.994 172.848 280.994 173.296L280.466 195.232C280.402 198.496 279.458 200.944 277.634 202.576C275.842 204.208 273.49 205.024 270.578 205.024ZM270.626 193.36C272.578 193.36 274.242 192.576 275.618 191.008C277.026 189.44 277.73 186.928 277.73 183.472V176.704C277.218 176.288 276.514 175.952 275.618 175.696C274.754 175.408 273.89 175.264 273.026 175.264C271.426 175.264 269.954 175.696 268.61 176.56C267.266 177.392 266.194 178.544 265.394 180.016C264.594 181.488 264.194 183.12 264.194 184.912C264.194 186.192 264.418 187.488 264.866 188.8C265.346 190.112 266.066 191.2 267.026 192.064C268.018 192.928 269.218 193.36 270.626 193.36ZM298.863 196.288C296.527 196.288 294.447 195.776 292.623 194.752C290.799 193.696 289.391 192.288 288.399 190.528C287.407 188.768 286.911 186.848 286.911 184.768C286.911 182.592 287.359 180.56 288.255 178.672C289.183 176.752 290.463 175.216 292.095 174.064C293.727 172.912 295.599 172.336 297.711 172.336C299.631 172.336 301.263 172.704 302.607 173.44C303.983 174.176 305.007 175.056 305.679 176.08C306.383 177.104 306.735 178.016 306.735 178.816C306.735 179.392 306.351 179.904 305.583 180.352L290.703 188.848C291.503 190.384 292.591 191.552 293.967 192.352C295.343 193.12 296.959 193.504 298.815 193.504C299.839 193.504 300.911 193.248 302.031 192.736C303.183 192.224 304.095 191.616 304.767 190.912C304.991 190.592 305.311 190.432 305.727 190.432C306.143 190.432 306.479 190.576 306.735 190.864C307.023 191.12 307.167 191.456 307.167 191.872C307.167 192.192 307.039 192.512 306.783 192.832C305.919 193.824 304.735 194.656 303.231 195.328C301.759 195.968 300.303 196.288 298.863 196.288ZM303.759 178.432C303.311 177.344 302.607 176.528 301.647 175.984C300.687 175.44 299.391 175.168 297.759 175.168C296.223 175.168 294.847 175.6 293.631 176.464C292.415 177.296 291.455 178.432 290.751 179.872C290.079 181.312 289.727 182.896 289.695 184.624C289.695 185.264 289.727 185.776 289.791 186.16L303.759 178.432Z" fill="black"/>
<rect x="25" y="315" width="447" height="64" fill="#D9D9D9"/>
</g>
<defs>
<clipPath id="clip0_2304_3611">
<rect width="497.657" height="402" fill="white"/>
</clipPath>
</defs>
</svg>
