<svg width="49" height="38" viewBox="0 0 49 38" fill="none" xmlns="http://www.w3.org/2000/svg">
<path d="M0 38L24.1228 0L48.2456 38H0ZM5.70175 35H42.5439L24.1228 6L5.70175 35ZM24.3421 32.15C24.8173 32.15 25.2102 32.0083 25.5208 31.725C25.8315 31.4417 25.9868 31.0833 25.9868 30.65C25.9868 30.2167 25.8315 29.8583 25.5208 29.575C25.2102 29.2917 24.8173 29.15 24.3421 29.15C23.867 29.15 23.474 29.2917 23.1634 29.575C22.8527 29.8583 22.6974 30.2167 22.6974 30.65C22.6974 31.0833 22.8527 31.4417 23.1634 31.725C23.474 32.0083 23.867 32.15 24.3421 32.15ZM22.6974 26.6H25.9868V15.4H22.6974V26.6Z" fill="#FF0000"/>
</svg>
